<svg xmlns="http://www.w3.org/2000/svg" fill="#d7374a" stroke="#000" viewBox="50 50 200 200">
  <metadata author="Baseluna014" source="https://commons.wikimedia.org/wiki/File:Villadose-Stemma.svg" license="https://creativecommons.org/licenses/by-sa/4.0"/>
  <g id="amphora" stroke-width=".509">
    <linearGradient id="gradient1" x2="1">
      <stop stop-color="#fff" stop-opacity=".3" offset="0"/>
      <stop stop-color="#000" stop-opacity="0" offset=".5"/>
      <stop stop-color="#000" stop-opacity=".3" offset="1"/>
    </linearGradient>
    <path d="M86.011 94c-.05-2.85-.152-6.77-.203-8.907-.102-5.447-.204-8.755.152-10.893.255-1.73.917-4.021 3.767-4.174 1.222-.05 2.392.356 3.258 1.17 2.24 2.139 2.24 6.516 2.24 6.974l-2.393 6.922c0-1.323-.306-10.74-1.629-11.656-.254-.203-.407-.56-1.069-.509-.407 0-1.629.204-1.832 1.731-.306 1.934-.153 5.192-.051 10.282.05 2.188.102 3.665.102 6.566z"/>
    <path fill="url(#gradient1)" d="M86.011 94c-.05-2.85-.152-6.77-.203-8.907-.102-5.447-.204-8.755.152-10.893.255-1.73.917-4.021 3.767-4.174 1.222-.05 2.392.356 3.258 1.17 2.24 2.139 2.24 6.516 2.24 6.974l-2.393 6.922c0-1.323-.306-10.74-1.629-11.656-.254-.203-.407-.56-1.069-.509-.407 0-1.629.204-1.832 1.731-.306 1.934-.153 5.192-.051 10.282.05 2.188.102 3.665.102 6.566z"/>
    <linearGradient id="gradient2" x2="1">
      <stop stop-color="#000" stop-opacity=".3" offset="0"/>
      <stop stop-color="#000" stop-opacity="0" offset=".5"/>
      <stop stop-color="#000" stop-opacity=".3" offset="1"/>
    </linearGradient>
    <path d="M111.818 94c.05-2.85.152-6.77.203-8.907.102-5.447.204-8.755-.153-10.893-.254-1.73-.916-4.021-3.766-4.174-1.222-.05-2.392.356-3.258 1.17-2.24 2.139-2.24 6.516-2.24 6.974l2.393 6.922c0-1.323.305-10.74 1.629-11.656.254-.203.407-.56 1.069-.509.407 0 1.629.204 1.832 1.731.306 1.934.153 5.192.051 10.282-.05 2.188-.102 3.665-.102 6.566z"/>
    <path fill="url(#gradient2)" d="M111.818 94c.05-2.85.152-6.77.203-8.907.102-5.447.204-8.755-.153-10.893-.254-1.73-.916-4.021-3.766-4.174-1.222-.05-2.392.356-3.258 1.17-2.24 2.139-2.24 6.516-2.24 6.974l2.393 6.922c0-1.323.305-10.74 1.629-11.656.254-.203.407-.56 1.069-.509.407 0 1.629.204 1.832 1.731.306 1.934.153 5.192.051 10.282-.05 2.188-.102 3.665-.102 6.566z"/>
    <path d="M97.515 60.152s-7.635.661-7.788 3.308 1.069 2.494 2.8 3.156c1.781.662 1.017 17.611-.204 20.156s-1.73 3.614-4.327 5.294c-2.748 1.832-5.344 5.395-4.53 15.728.662 8.551 2.902 12.267 2.902 12.267s2.545 8.093 5.548 9.62c0 0 1.425 7.431 5.446 8.551 0 0 .865 2.443 4.327 1.527 3.41-.865 1.323-.865 1.323-.865s3.41-1.12 4.632-4.785 2.087-3.36 2.647-4.428.56-1.883.56-1.883 5.853-12.166 5.853-17.917.255-12.929-4.225-16.797c-4.428-3.869-7.635-4.429-7.533-8.042.102-3.665-1.527-16.492.102-18.274 0 0 2.24-.356 2.749-2.34.56-1.986-3.818-4.327-7.585-4.327-1.374.05-2.697.05-2.697.05z"/>
    <path fill="url(#gradient1)" d="M97.515 60.152s-7.635.661-7.788 3.308 1.069 2.494 2.8 3.156c1.781.662 1.017 17.611-.204 20.156s-1.73 3.614-4.327 5.294c-2.748 1.832-5.344 5.395-4.53 15.728.662 8.551 2.902 12.267 2.902 12.267s2.545 8.093 5.548 9.62c0 0 1.425 7.431 5.446 8.551 0 0 .865 2.443 4.327 1.527 3.41-.865 1.323-.865 1.323-.865s3.41-1.12 4.632-4.785 2.087-3.36 2.647-4.428.56-1.883.56-1.883 5.853-12.166 5.853-17.917.255-12.929-4.225-16.797c-4.428-3.869-7.635-4.429-7.533-8.042.102-3.665-1.527-16.492.102-18.274 0 0 2.24-.356 2.749-2.34.56-1.986-3.818-4.327-7.585-4.327-1.374.05-2.697.05-2.697.05z"/>
    <g class="pseudostroke" fill="#333" stroke="none">
      <path d="M95.886 80.613s.102-.203.153-.61c.05-.204.05-.459.05-.713v-.967c0-.356.051-.713.102-1.12.051-.204.051-.407.102-.61s.102-.408.255-.612c.101-.203.254-.356.356-.56.102-.152.153-.407.203-.61s.153-.458.306-.662.356-.356.56-.509c.407-.254.814-.458 1.018-.763.152-.255.203-.968.712-1.171.255-.102.458-.153.611-.204s.204-.152.306-.356a5 5 0 0 1 .254-.56c.051-.102.102-.204.153-.254l.203-.204c.306-.255.611-.356.866-.458.254-.102.458-.204.661-.306.153-.101.255-.203.255-.305s-.051-.153 0-.153h.05s.052.051.052.153c0 .153-.102.305-.255.407s-.356.255-.662.357a3 3 0 0 0-.763.458.7.7 0 0 0-.153.203c-.05.051-.102.102-.102.204-.05.153-.101.356-.203.509-.051.102-.051.203-.153.305s-.203.204-.305.204c-.255.102-.458.102-.56.203-.051 0-.153.102-.204.153s-.05.051-.05.102-.051.102-.051.153c-.102.152-.102.407-.255.61-.305.458-.814.611-1.17.815-.204.102-.357.254-.51.407a1.9 1.9 0 0 0-.254.56c-.051.204-.102.458-.255.662-.101.203-.254.356-.407.56-.203.356-.305.763-.356 1.12-.051.407-.102.763-.153 1.12-.05.66 0 1.272-.102 1.679q-.075.305-.152.458c-.102.254-.102.305-.153.305"/>
      <path d="M95.784 69.059v.255c0 .152 0 .407-.05.712 0 .305-.052.662.203.916.102.153.254.255.407.458.102.153.153.408.153.611 0 .102-.051.204-.051.306v.101c0 .051 0 .102.05.153.052.153.153.255.357.356.153.102.356.255.407.458s.051.357.102.51c.05.305.05.56.05.712v.305h-.355v-.254c0-.153 0-.407-.051-.713 0-.152-.051-.305-.051-.458 0-.101-.102-.254-.255-.356-.152-.102-.356-.254-.407-.509 0-.05 0-.102-.05-.153v-.152c0-.102.05-.204.05-.306.051-.203 0-.356-.102-.509-.102-.152-.203-.305-.356-.458-.102-.153-.204-.356-.204-.509s0-.356.051-.458c.051-.305.102-.56.102-.713zm-4.072-6.312s-.153 0-.305.102-.357.255-.56.407c-.102.102-.153.204-.255.255l-.203.203-.153.153-.05.051h-.052v-.102c0-.05 0-.152.051-.254s.102-.204.204-.306c.102-.101.203-.152.356-.254.255-.153.458-.255.662-.305.203 0 .305.05.305.05m3.563 2.545s.051.153-.102.306c-.102.203-.305.356-.458.509l-.153.305c-.05.102-.152.153-.203.255l-.153.152h-.05v.051h-.102s0-.05-.051-.05v-.255q0-.153.152-.305c.051-.102.153-.204.255-.306s.203-.153.305-.254c.102-.051.204-.102.255-.204.254-.05.254-.204.305-.204m2.698.204s0 .05.05.102l.204.203c.153.153.407.306.713.458.153.102.305.153.407.306.051.05.102.153.153.203.05.051.05.153.05.204v.204c0 .05 0 .101-.05.152s-.051.102-.051.102h-.051s-.05-.153-.153-.356c-.05-.102-.102-.153-.203-.255l-.306-.305c-.254-.204-.509-.407-.61-.61-.051-.103-.102-.204-.153-.255q-.077-.153 0-.153m5.09-.102.254.255c.153.152.407.356.611.56l.102.101c0 .051.05.051.102.102s.101.153.101.204c.051.152.102.254.102.356s.051.153.102.204.102.05.102.05v.051h-.102q-.153 0-.305-.152c-.102-.102-.153-.255-.204-.357 0-.05-.05-.101-.05-.203 0 0 0-.051-.052-.102 0 0-.05-.05-.05-.102-.153-.254-.357-.458-.51-.661-.152-.153-.254-.255-.203-.306M84.332 96.596s.101.153.356.254c.254.153.61.306 1.069.56.102.051.203.102.356.204.102.05.255.153.356.203.051.051.102.102.204.153l.102.102v.356l.05.051c0 .051.052.051.052.102.152.153.458.305.712.407.306.102.611.153.916.204.662.102 1.324.102 1.935.254.61.153 1.17.357 1.628.51.917.356 1.578.457 1.578.457v.051s-.661-.102-1.629-.356a11 11 0 0 0-1.628-.407c-.611-.153-1.222-.153-1.884-.204-.356-.05-.661-.05-1.018-.153-.305-.101-.661-.203-.916-.509-.05-.05-.05-.05-.05-.101l-.052-.051c0-.051 0-.051-.05-.051-.051-.204 0-.255-.051-.306.05 0-.102-.101-.204-.203s-.204-.153-.356-.255c-.102-.05-.204-.152-.306-.203-.407-.255-.763-.51-.967-.713l-.254-.254c.05-.051 0-.102.05-.102m7.431-6.922c.05.356.458.508.764.61.305.102.661.204.967.407.305.204.56.459.814.662s.61.306.916.56c.306.204.51.56.51.967 0 .357-.052.713 0 1.018 0 .153.05.306.101.458 0 .051.05.051.05.102l.103.102c.05.05.102.102.203.153.255.203.611.305.916.509.153.101.306.254.408.407s.203.305.254.509c.153.305.255.661.407.916.153.255.458.458.662.764.102.152.204.356.255.56.05.203.05.407.05.508.051.255.357.408.662.611.153.102.306.204.458.356a.67.67 0 0 1 .153.611c-.05.357-.05.662-.05 1.018v1.07l-.052-.052c.051-.05.102-.102.102-.203h.05c0 .05-.05.152-.1.203l-.052.051v-.102c0-.356-.05-.712-.102-1.018a3.8 3.8 0 0 1 0-1.069c.051-.305-.203-.508-.509-.661-.305-.153-.712-.306-.865-.764-.05-.203-.05-.407-.05-.509a1.5 1.5 0 0 0-.204-.407c-.153-.254-.459-.509-.662-.814-.204-.306-.306-.662-.407-.967-.051-.153-.102-.306-.204-.458-.05-.153-.204-.255-.305-.306-.255-.204-.611-.305-.917-.509-.05-.05-.152-.102-.203-.204l-.102-.101c0-.051-.05-.102-.102-.153-.102-.204-.102-.356-.102-.56 0-.356.051-.712.051-1.069 0-.305-.152-.61-.407-.814-.254-.204-.61-.357-.865-.56-.306-.204-.51-.458-.815-.662-.254-.203-.61-.305-.916-.407-.152-.05-.305-.102-.458-.204-.305-.203-.458-.356-.407-.56m1.272-1.63c.102-.101.153-.152.204-.254 0-.05.051-.102.051-.203 0-.051.102-.153.102-.204a.7.7 0 0 1 .203-.153c.051-.05.102-.05.204-.101l.305-.153.102-.102c.051-.05.051-.102.051-.153 0-.101 0-.254.051-.407 0-.05.05-.153.102-.203l.152-.153c.102-.102.204-.153.306-.255l.05.051-.152.204h-.05l.101-.255.05.051c-.05.102-.152.204-.254.306-.05.05-.101.101-.101.152-.051.051-.051.102-.051.153-.051.102 0 .204 0 .356 0 .051 0 .153-.051.255a.4.4 0 0 0-.102.203c-.102.153-.255.204-.356.255-.051.05-.102.05-.153.102-.05 0-.102.05-.102.05l-.102.102-.101.153-.153.153c-.153.102-.255.102-.305.05"/>
      <path d="M93.85 91.099v-.051c0-.051.05-.102.05-.153q.078-.23.153-.61c.051-.153.051-.255.102-.408s.102-.305.255-.458c.05-.05.102-.102.152-.102s.102 0 .153-.05c.102 0 .153-.052.204-.052.102-.05.203-.203.305-.356a1.6 1.6 0 0 1 .407-.407c.153-.102.357-.102.458-.204s.153-.254.204-.407 0-.305 0-.407c0-.153 0-.255.102-.356.05-.102.203-.102.254-.102h.255-.255c-.05 0-.152.05-.254.102-.051.101-.051.203-.051.356v.458c0 .153-.05.305-.204.458-.152.153-.305.204-.458.255-.152.101-.254.203-.305.356-.102.153-.153.305-.356.458-.204.102-.408.102-.459.153a.55.55 0 0 0-.152.356c-.051.153-.051.255-.102.407-.05.255-.102.458-.102.662 0 .05-.05.153-.05.203v.051zm10.689-5.701s-.051 0-.102.05c-.102.052-.153.052-.254.154-.102.101-.204.203-.255.407a5 5 0 0 1-.254.61c-.102.255-.204.51-.408.764s-.56.356-.712.509c-.102.102-.153.255-.204.356-.05.153-.05.306-.05.458 0 .306 0 .713-.255.967-.102.153-.255.255-.255.357s.051.254.102.407c.102.255.306.509.458.814.153.306.204.662.204.917v.763c0 .204.153.407.203.61.051.205.153.408.102.56-.05.154-.152.255-.203.306s-.102.051-.102.051v-.05l.102-.103c.05-.05.101-.152.101-.254s-.05-.255-.152-.458c-.102-.153-.255-.356-.306-.662-.05-.254-.05-.56-.05-.814 0-.306-.051-.51-.153-.764s-.306-.56-.407-.865c-.051-.153-.102-.356-.051-.56 0-.102.101-.204.152-.254s.153-.102.204-.153c.254-.204.254-.56.305-.865 0-.306 0-.662.204-.968.102-.152.254-.203.356-.305s.204-.153.255-.305c.152-.204.254-.458.356-.662s.204-.458.305-.61c.102-.204.255-.306.357-.408.152-.102.254-.102.356-.102 0 .051.05.051.05.102m-20.818 23.77c.254.153.56.306.865.407.306.153.56.255.865.458.153.102.255.204.357.306.102.153.152.305.203.458.051.305.306.56.611.61.153.052.306.103.458.204.051.102.102.153.102.204v.05c-.05-.05 0 0 0 0 .05 0 .05.052.102.052.254.152.61.152.916.152.305 0 .662.051.814-.254.102-.153.153-.254.255-.407.05-.051.102-.153.203-.153.051-.05.153-.05.255-.102.356-.102.662-.05.967-.05s.61-.051.865-.255c.255-.153.408-.407.458-.713l.153-.458a.68.68 0 0 1 .356-.407c.306-.153.51-.305.611-.61.051-.153.102-.306.255-.459.102-.153.305-.254.458-.305.61-.255 1.272-.255 1.883-.357l-.102.102c.255-.712.764-1.272 1.018-1.883l.051.203.102-.05.051-.153v-.051l-.204.05c.051-.05.051-.1.102-.152l.051-.05.051-.052v.051l.102-.102c.254-.05.509-.152.712-.407.204-.203.357-.509.51-.763.152-.255.305-.56.56-.815.254-.254.61-.305.915-.407.255-.102.51-.254.56-.458.051-.102.051-.305.153-.509s.305-.305.407-.356c.306-.153.611-.204.815-.357.101-.05.254-.203.356-.254.153-.102.305-.153.458-.255l.916-.305c.306-.102.611-.153.815-.305.203-.153.407-.408.56-.662.152-.255.305-.509.458-.814.152-.255.305-.56.56-.815.203-.254.509-.458.814-.509.305-.102.61-.102.967-.153.153 0 .306 0 .51.051.152.051.355.204.355.357l-.101-.051c.254-.102.56-.204.763-.407.102-.102.153-.204.255-.357.05-.05.101-.152.152-.152.051-.051.153-.051.204-.051v.05c-.051 0-.153 0-.204.051s-.101.102-.101.153l-.102.204c-.051.05-.102.152-.153.203-.254.204-.509.306-.763.458l-.051.051v-.101c-.051-.255-.408-.255-.713-.255-.305.051-.61.051-.916.153a1.7 1.7 0 0 0-.713.458c-.203.203-.356.509-.509.763-.152.255-.254.56-.458.815-.153.254-.356.56-.61.763-.306.204-.611.306-.917.357-.305.101-.61.152-.865.305-.153.05-.255.102-.407.204-.153.101-.204.152-.357.254-.305.204-.61.255-.865.356-.305.153-.305.255-.407.611a.74.74 0 0 1-.306.458c-.152.102-.305.153-.458.204-.305.102-.61.153-.814.356-.204.153-.356.458-.51.713-.152.254-.305.56-.559.814-.204.255-.56.458-.916.51l.102-.103c-.051.051 0 .051-.051.051v.051l-.051.051c-.051.051-.051.102-.102.102l-.102.153-.102-.102-.05-.051v-.051l.05-.153.102-.05.153.05-.051.153c-.305.662-.763 1.222-1.018 1.883l-.05.051h-.052c-.662.102-1.272.102-1.832.306-.306.101-.458.305-.56.61q-.077.23-.306.458c-.101.102-.305.204-.407.255a.52.52 0 0 0-.254.305l-.153.458c-.05.153-.102.306-.204.459a1.2 1.2 0 0 1-.356.356c-.153.102-.305.153-.458.203s-.356.051-.509.051c-.305 0-.662-.05-.916.051-.051 0-.153.051-.204.102s-.102.051-.152.153c-.102.102-.153.254-.255.407-.05.05-.102.153-.203.204a.4.4 0 0 1-.255.101H88.2c-.305-.05-.662 0-.967-.203-.051 0-.051-.051-.102-.051l-.05-.051v-.05c-.052-.052-.052-.154-.103-.205-.101-.101-.254-.152-.407-.203-.305-.051-.61-.356-.661-.662-.051-.305-.255-.56-.51-.763-.254-.153-.56-.306-.814-.458a1.02 1.02 0 0 1-.865-.306"/>
      <path d="M98.024 95.934s.05 0 .203-.05c.102 0 .306-.052.56-.052s.51 0 .815.051c.305 0 .661 0 1.069-.05.407-.102.712-.357 1.017-.662.357-.306.662-.662 1.222-.815.51-.05 1.018-.05 1.527-.05s1.069.05 1.578.203a2.4 2.4 0 0 1 .764.305c.101.051.254.153.356.255.152.102.203.254.254.356.102.204.255.357.458.407.204.051.458.051.713.051.509.051.967.255 1.374.153.357-.05.56-.509.916-.763s.764-.255 1.019-.408.458-.356.61-.509l.51-.509h.05s-.153.204-.407.611a3.5 3.5 0 0 1-.61.61c-.154.103-.306.205-.51.255-.153.051-.305.153-.458.255s-.254.254-.407.407-.356.356-.61.407c-.56.153-1.019-.102-1.477-.102-.255 0-.509 0-.814-.101a1.13 1.13 0 0 1-.662-.611c-.051-.102-.102-.204-.153-.255-.102-.101-.203-.152-.305-.203-.204-.102-.458-.204-.713-.306-.509-.152-1.018-.203-1.527-.203s-1.018-.051-1.476 0c-.458.102-.814.458-1.17.712-.357.306-.713.611-1.12.662-.408.102-.764.051-1.07.051-.305 0-.61-.05-.814-.05-.458-.103-.712 0-.712-.052m17.153.815-.153.101c-.101.051-.305.102-.407.051h-.305c-.051 0-.051.051-.102.051-.102.051-.255.204-.356.356l-.204.204c-.102.051-.153.102-.254.102-.153.05-.357.05-.51.05-.152 0-.254 0-.356.052-.102 0-.102.05-.102.05s.051 0 .102-.05c.102-.051.204-.051.357-.051.152-.051.305-.051.458-.102.05-.05.152-.102.203-.153a.7.7 0 0 0 .153-.203c.102-.153.204-.306.356-.458.051-.051.102-.051.153-.051.05 0 .102-.051.153-.051h.254c.153 0 .204 0 .204-.051.05 0 .101-.051.101-.051zm-5.345 1.018s0 .05.051.152.102.255.102.458c.051.408 0 .967-.05 1.578 0 .306-.052.713.05.967.102.306.407.51.713.815.152.153.305.305.356.56.051.203.051.458.051.661-.05.408-.102.866-.05 1.273s.355.712.66 1.018c.306.305.56.712.764 1.069.204.356.306.763.357 1.17.05.408 0 .764 0 1.12-.102.662-.255 1.171-.306 1.578-.05.356-.05.611-.05.56h-.052c-.05 0-.05-.204-.05-.61 0-.408.101-.917.152-1.579 0-.305 0-.661-.05-1.018s-.204-.712-.357-1.069a3.2 3.2 0 0 0-.662-1.018c-.254-.356-.56-.712-.61-1.221-.051-.458.05-.916.101-1.324 0-.203 0-.407-.05-.61-.052-.153-.255-.306-.357-.458-.153-.102-.305-.204-.509-.357-.153-.102-.356-.305-.407-.509-.153-.407-.051-.763-.051-1.12.05-.305.102-.61.153-.865.05-.254.05-.509.05-.662 0-.203 0-.356-.05-.407.101-.05.101-.102.101-.152"/>
      <path d="M110.901 102.602s.153-.153.408-.356c.101-.102.305-.204.509-.306.203-.101.407-.101.61-.152s.408-.102.56-.204.306-.204.407-.356c.102-.153.153-.255.153-.357.051-.101.051-.152.051-.152s0 .05-.05.152c0 .102-.052.204-.154.357-.05.152-.203.305-.356.407a1.9 1.9 0 0 1-.56.254c-.203.051-.407.153-.56.204-.152.102-.305.204-.407.305-.203.204-.305.408-.305.408zm1.07 2.85c.101-.101.305-.152.406-.203l.459-.153.916-.152-.102.101c0-.101 0-.203.05-.305 0-.051.052-.102.103-.153.05-.05.102-.05.152-.102h.56c.102 0 .153-.05.204-.101s.05-.153.102-.204v-.407c0-.051 0-.102-.051-.102.05 0 .05.05.05.102v.56c0 .05-.05.102-.05.152-.051.051-.153.102-.255.153-.203.051-.407 0-.509.051s-.152.204-.152.407v.051h-.102c-.306.051-.611.153-.865.204-.153.05-.255.102-.408.152a.8.8 0 0 0-.356.204zm2.951.357v.153c0 .101-.05.254-.152.407s-.306.254-.458.356-.357.255-.458.407c-.051.102-.102.204-.102.306-.051.101-.051.203-.102.305-.05.204-.153.407-.305.56l-.051.05h-.051c-.051 0-.051.052-.102.052s-.102 0-.102.05c-.05 0-.102.052-.152.052s-.051.05-.051.05l-.204-.305s.05-.05.204-.102c.05-.05.152-.05.203-.05h.102c.102-.052.204-.204.305-.408.051-.102.102-.203.102-.305l.153-.306c.153-.203.356-.305.56-.407q.305-.153.458-.305a.55.55 0 0 0 .153-.357c.05-.152.05-.203.05-.203m-30.743 7.635s.203.05.61.05c.204 0 .459.052.713.102.255.051.611.153.866.408.305.254.458.61.712.763.255.153.713.255 1.12.306.407.101.865.152 1.272.203.204.051.459.102.662.102.204.05.458.102.662.102s.458-.051.662 0c.254 0 .509.102.712.254.356.255.713.51 1.12.611a3.3 3.3 0 0 0 1.17.204c.408.05.764.05 1.07.05.661 0 1.221-.05 1.628-.05.408.05.611.101.611.101v.051s-.203-.101-.61-.101c-.408 0-.968.05-1.63.101h-1.12c-.406 0-.814-.05-1.22-.203-.204-.051-.408-.153-.612-.255-.203-.102-.356-.254-.56-.356-.203-.102-.356-.204-.56-.204-.203 0-.407.051-.661.051s-.458-.05-.713-.102c-.203-.05-.458-.05-.661-.101-.459-.051-.866-.102-1.324-.204l-.61-.153c-.204-.05-.408-.101-.611-.254s-.306-.306-.408-.458-.203-.306-.305-.407c-.204-.255-.509-.357-.764-.408-.254-.05-.509-.101-.661-.152-.306.05-.56 0-.56-.051m18.782 15.88s.102-.101.305-.203c.204-.153.51-.305.967-.305.408-.051.917.05 1.426 0 .509 0 1.069-.153 1.578-.357.254-.101.509-.254.712-.356a2.4 2.4 0 0 1 .764-.305c.254-.102.509-.102.763-.102s.458 0 .662-.051.356-.102.458-.204.204-.203.305-.254l.204-.204c.05 0 .05-.05.102-.05h.102l-.051.356h.05-.05a.7.7 0 0 1-.204.152c-.102.102-.204.153-.356.306a1.1 1.1 0 0 1-.611.203c-.458.051-.916-.05-1.425.102-.51.102-.967.407-1.476.61a4.4 4.4 0 0 1-1.63.306c-.508 0-1.017-.05-1.424-.05s-.764.152-.967.254c-.051.102-.204.153-.204.153m-5.599 8.806h.255c.152 0 .407-.05.661-.101.102-.051.255-.102.407-.153.153-.102.306-.153.458-.255s.357-.152.56-.203q.306-.076.611 0c.407.05.764.152 1.12.152.356.051.662 0 .916-.101s.458-.204.662-.255c.153-.05.254 0 .254 0s-.101-.05-.254.051c-.153.05-.356.153-.61.255-.255.152-.612.203-.968.203s-.713-.102-1.12-.102c-.203 0-.356 0-.56.051-.152.051-.305.102-.458.204-.254.203-.56.407-.865.509-.306.102-.51.102-.713.153h-.254z"/>
    </g>
    <path fill="#4d4d4d" d="M113.04 122.911s-6.465 3.614-13.337 3.665c-6.871.05-12.165-3.207-12.165-3.207l-.865-2.545s6.057 3.665 13.234 3.665c7.177-.05 14.1-3.97 14.1-3.97z"/>
    <path class="pseudostroke" fill="#333" stroke="none" d="m92.628 66.463 1.527.61c.407.154.815.255 1.07.306.305.051.508.102.508.102s-.203 0-.509-.05-.712-.103-1.12-.204c-.814-.153-1.628-.408-1.628-.408zm5.396 1.273h1.68c.305 0 .61 0 .967-.051.305 0 .661-.051.967-.051.305-.051.61-.051.814-.102.255-.05.458-.05.61-.102.154 0 .204-.05.204-.05s-.05.05-.203.101-.306.153-.56.204-.51.152-.814.203c-.306.051-.662.102-.968.102-.661.051-1.323 0-1.832-.102-.509-.05-.865-.152-.865-.152"/>
    <linearGradient id="gradient3" x2="1">
      <stop stop-color="#000" stop-opacity=".5" offset="0"/>
      <stop stop-color="#fff" stop-opacity=".1" offset=".5"/>
      <stop stop-color="#000" stop-opacity="0" offset="1"/>
    </linearGradient>
    <path fill="url(#gradient3)" stroke="none" d="M93.952 61.679c-.153.05-.306.05-.458.101-.306.102-.611.204-.866.407-.102.102-.356.662-.203.764.254.255.509.458.814.61 1.018.662 2.24.917 3.461.968.662.05 1.324 0 2.036-.051s.764-.61.611-1.222c-.05-.356-.153-.763-.203-1.12-.051-.254-.102-.508-.306-.661-.153-.102-.407-.102-.56-.102-1.476 0-2.952 0-4.326.305"/>
    <path class="pseudostroke" fill="#333" stroke="none" d="M92.628 62.29s-.05.05-.102.152a.5.5 0 0 0-.05.407c.152.357.712.662 1.323.967.153.102.305.153.509.204s.356.102.56.153c.407.101.814.101 1.272.203.866.102 1.884.102 2.85.102.968.05 1.935.102 2.851 0 .458-.05.865-.05 1.273-.153.407-.05.763-.152 1.12-.254.356-.102.661-.204.865-.356.254-.153.356-.306.407-.51.05-.203.05-.356.05-.458-.05-.101-.1-.152-.1-.152l.05-.051s.05.05.102.153c.05.101.05.305.05.509-.05.203-.203.458-.407.661q-.381.306-.916.458c-.712.255-1.527.458-2.443.56s-1.934.102-2.901.051-1.985-.05-2.902-.203c-.916-.102-1.781-.306-2.443-.713-.305-.204-.61-.407-.814-.56-.204-.204-.407-.407-.458-.61-.102-.204.05-.408.102-.51.05-.05.101-.102.152-.05"/>
  </g>
</svg>
