<svg xmlns="http://www.w3.org/2000/svg" fill="#d7374a" stroke="#000" viewBox="50 50 200 200">
  <metadata author="Rama" source="https://commons.wikimedia.org/wiki/File:Caduceus.svg" license="https://creativecommons.org/publicdomain/zero/1.0"/>
  <g id="caduceus" stroke-width=".464">
    <path d="m66.854 71.869 2.678-.874c2.044-.667 3.876-1.878 5.709-3 1.91-1.17 3.632-2.626 5.489-3.88 1.419-.957 2.802-1.984 4.318-2.78a9.6 9.6 0 0 1 1.756-.732c.808-.237 1.646-.44 2.488-.44.967.002 1.955.16 2.854.513.675.264 1.321.656 1.83 1.17.402.408.695.928.907 1.46.222.556.373 1.16.362 1.76a4.7 4.7 0 0 1-.465 1.914c-.369.78-1.355 1.23-1.553 2.07-.044.188.019.396.104.57.204.416.585.725.931 1.034.221.198.437.445.725.518.539.136 1.12-.06 1.656-.207.29-.08.532-.306.828-.363 1.576-.303 3.217-.022 4.812.156.454.05.893.199 1.346.258.48.063.98.225 1.449.104.458-.119.865-.432 1.19-.776.286-.304.657-.671.621-1.087-.068-.781-1.159-1.106-1.5-1.811-.324-.667-.452-1.164-.52-1.902-.063-.67-.136-1.662.105-2.29.229-.594.526-1.102.97-1.558a6.9 6.9 0 0 1 1.825-1.288c.599-.286 1.303-.317 1.966-.31.981.01 1.958.235 2.898.517.63.188 1.23.471 1.811.776 1.93 1.01 3.734 2.247 5.538 3.467 1.308.886 2.513 1.92 3.829 2.795 1.779 1.182 3.548 2.411 5.485 3.312.975.452 1.993.86 3.054 1.035.119.02.688-.094.764 0 .211.26-.462.682-.61.983-.187.385-.475.739-.827.983-.677.47-1.534.61-2.329.828a38 38 0 0 0-2.524.786 8.7 8.7 0 0 1-1.616.393c-.746.11-1.564-.663-2.225-.3-.163.09-.086.377-.207.518-.26.307-.652.496-1.035.621-2.52.823-5.345.087-7.918.725-.217.054-.481.083-.62.259-.131.164-.015.43-.104.62-.471 1.01-1.192 2.012-2.174 2.536 0 0-.646.446-2.076 1.124-1.023.486-4.16 2.612-5.248 2.923-1.717.49-5.288.36-5.288.36-1.945.317-7.286-3.417-8.812-4.666-.727-.594-1.422-1.252-1.966-2.018-.514-.723-.378-2.024-1.19-2.38-.856-.375-1.758.768-2.691.776-.93.008-1.772-.593-2.691-.724-.803-.115-1.642.128-2.433-.052-.813-.185-1.474-.81-2.277-1.035-.686-.193-1.448-.027-2.121-.259-.761-.261-1.312-.973-2.07-1.242-.69-.245-1.45-.2-2.174-.31-.432-.066-.883-.058-1.294-.207a2.4 2.4 0 0 1-.776-.466c-.258-.232-1.056-.573-.964-.907Z"/>
    <path class="secondary" d="M100.87 121.939c.008.561-.006.661-.09 1.217-.068.446-.172.78-.411 1.162-.933 1.494-3.247 1.562-4.45 2.846-.392.417-.694.946-.829 1.501-.146.604-.033 1.248.052 1.863.087.634.223 1.27.466 1.863.128.315.28.635.517.88.313.323.747.503 1.139.724.47.266 1.104 1.14 1.449.725.456-.55-1.008-1.053-1.294-1.708-.357-.819-.61-1.758-.466-2.64.07-.426.357-.795.621-1.138.275-.357.618-.667.983-.931 1.445-1.045 3.322-1.416 4.71-2.536.723-.584 1.38-1.298 1.81-2.122.315-.6.447-1.292.518-1.966"/>
    <path class="secondary" d="M103.67 90.817c1.108-.37 1.11-.318 2.132-.86.748-.397 1.51-.813 2.122-1.398.51-.486.883-1.102 1.242-1.707.37-.624.755-1.263.931-1.967.169-.67.183-1.383.104-2.07-.072-.624-.2-1.27-.518-1.811-.346-.589-.871-1.084-1.449-1.449-.696-.44-1.516-.688-2.328-.828-.578-.1-1.18-.09-1.76 0a4.6 4.6 0 0 0-1.449.466c-.27.144-.596.29-.724.569-.166.36-.125.835.052 1.19.229.46.756.706 1.19.983.403.258.827.515 1.294.621a3.6 3.6 0 0 0 1.552 0c.482-.106 1.002-.975 1.345-.62.403.415-.53 1.028-.776 1.552-.183.392-.267.837-.517 1.19-.395.558-.936 1.013-1.501 1.397-.727.496-1.578.779-2.38 1.139-1.198.538-2.488.917-3.761 1.32z"/>
    <path class="secondary" d="M102.18 110.294c-.003.503.017 1.028-.155 1.5-.18.49-.523.914-.88 1.295-.964 1.027-.983 1.249-2.178 2.024l3.556 1.927c1.115-.418.637-.377 1.623-1.002.892-.565 1.843-1.127 2.484-1.966.48-.626.766-1.403.932-2.174"/>
    <path class="secondary" d="M103.318 96.684c.052.57.007 1.16-.155 1.708-.105.355-.291.69-.517.983-.343.445-.794.801-1.242 1.138-.633.476-1.31.89-2.005 1.276l4.003 2.645c.507-.289.678-.44 1.158-.764.77-.518 1.64-.929 2.277-1.604.696-.738 1.282-1.625 1.604-2.587.298-.887.228-1.86.26-2.795"/>
    <path fill="none" d="m71.946 73.68 1.46-.538s1.715-.77 2.534-1.229c1.14-.638 2.229-1.369 3.303-2.113 1.354-.937 3.957-2.957 3.957-2.957l.576-.576.077 1.306.614 1.766 1.882 1.921 1.92.422 1.038.27.192 1.113s.643 1.346 1.125 1.904c.518.599 1.847 1.494 1.847 1.494s.721.507 1.14.543c3.644.309 9.472-.177 9.523-.177h2.497c.487 0 .975-.148 1.421-.345.919-.407 2.497-1.69 2.497-1.69s.83-.673.998-1.153c.115-.326-.038-1.037-.038-1.037l-.23-.845 2.65-.192.754-.156s1.302-.65 1.792-1.168c.337-.357.548-.822.734-1.277.204-.502.407-1.575.407-1.575l-.054-1.032.76 1.25 3.558 2.96 3.096 2.037 2.934 1.466 2.498.625"/>
    <path class="tertiary" d="m97.678 66.926.725-.427 3.033-.03.692.407-2.38 72.967h-.725z"/>
    <path class="secondary" d="M96.701 116.534c-1.141.74-1.193.611-2.077 1.626-.34.39-.636.847-.776 1.346-.213.764-.152 1.593-.052 2.38.089.693.22 1.413.57 2.018.482.835 1.274 1.458 2.018 2.07.78.641 1.685 1.112 2.536 1.656.737.473 1.578.807 2.225 1.397.336.308.675.658.828 1.087.168.472.073 1 .052 1.5-.025.574.015 1.18-.207 1.709-.086.203-.258.36-.414.517-.235.234-.924.324-.777.621.253.51 1.156-.143 1.656-.414.559-.302 1.035-.772 1.398-1.294.361-.52.631-1.132.724-1.76.104-.702-.018-1.436-.207-2.12-.193-.7-.469-1.409-.931-1.967-1.008-1.218-2.708-1.682-3.83-2.795-.595-.59-1.198-1.236-1.5-2.018a4.03 4.03 0 0 1-.208-2.07c.061-.373.204-.763.466-1.035.726-.754.448-.306 1.447-.68z"/>
    <path class="secondary" d="M105.595 121.679c.078-.738.076-1.505-.103-2.225-.156-.63-.46-1.226-.828-1.76-.395-.572-.922-1.048-1.45-1.5-1.041-.895-2.28-1.535-3.363-2.38-.646-.506-1.335-.978-1.863-1.605a3.6 3.6 0 0 1-.62-1.035c-.169-.443-.319-.927-.26-1.397.062-.49.376-.917.621-1.346.136-.237.27-.483.466-.673 1.397-1.35.506-.673 2.207-1.641l-4.187-2.535c-1.894 1.054-.738.122-2.367 1.537-.472.41-.888.902-1.19 1.45-.237.429-.335.923-.466 1.396-.17.613-.373 1.229-.414 1.863a9.5 9.5 0 0 0 .259 2.898c.14.563.352 1.121.673 1.605.586.884 1.419 1.587 2.225 2.277.95.812 2.026 1.462 3.053 2.173.89.615 2.085.916 2.691 1.811.138.205.189 1.1.192 1.347"/>
    <path class="secondary" d="M107.562 111.898c.202-.944.154-1.937.051-2.898-.064-.599-.175-1.206-.414-1.76-.335-.777-.827-1.494-1.397-2.12-.834-.918-1.868-1.64-2.898-2.33-1.34-.896-2.887-1.454-4.243-2.328-.58-.374-1.219-.709-1.656-1.242-.558-.68-1.022-1.509-1.139-2.38-.05-.383.103-.768.207-1.14q.138-.481.363-.93c.117-.236.25-.467.414-.673.211-.268.44-.535.724-.725 1.507-1.007.627-.624 2.363-1.202l-4.247-2.465c-1.793.568-.773.012-2.204 1.183-.855.7-1.443 1.72-1.863 2.743-.36.876-.455 1.849-.518 2.794-.065 1-.038 2.019.156 3.002.13.663.332 1.33.672 1.914.542.93 1.31 1.727 2.122 2.433.932.809 2.068 1.348 3.105 2.018.965.623 1.96 1.2 2.898 1.863.482.34.993.657 1.397 1.087.272.289.539.61.673.983.065.18.053.379.052.57"/>
    <path class="secondary" d="M108.7 96.684c.023-.673.103-1.363-.052-2.018-.14-.593-.44-1.147-.776-1.656-.47-.714-1.081-1.333-1.707-1.915a9 9 0 0 0-1.346-1.035 19 19 0 0 0-3.053-1.552c-1.59-.641-3.318-.884-4.916-1.501-.641-.248-1.284-.511-1.863-.88-.662-.42-1.303-.904-1.812-1.5-.22-.26-.428-.552-.517-.88a1.8 1.8 0 0 1 0-.828c.035-.166.046-.41.207-.466.277-.095.485.38.776.414.549.065 1.091-.21 1.604-.414a6 6 0 0 0 1.398-.776c.311-.235.661-.475.828-.828.155-.33.202-.737.103-1.087a.5.5 0 0 0-.155-.207 2.2 2.2 0 0 0-.776-.466c-.659-.218-1.377-.212-2.07-.207-.452.004-.91.035-1.346.156-.565.156-1.124.387-1.604.724a6.3 6.3 0 0 0-1.656 1.708c-.376.577-.706 1.23-.776 1.914-.088.855.125 1.747.465 2.536a9.24 9.24 0 0 0 2.433 3.312c2.348 2.015 5.587 2.684 8.228 4.295.92.561 2.018.984 2.64 1.863.257.366.32.848.361 1.294"/>
    <ellipse class="tertiary" stroke-width=".399" cx="99.809" cy="63.493" rx="3.199" ry="3.289"/>
    <path fill="#d6d6d6" stroke-width=".232" d="M104.925 80.013c-.657-.158-.476-.527.266-.541.772-.015 1.133.322.584.545-.2.08-.38.135-.402.12a4 4 0 0 0-.448-.124z"/>
    <path fill="#d6d6d6" stroke-width=".232" d="M93.554 80.248c-.293-.281.075-.556.763-.57.375-.006.684.092.686.22.003.127-.143.235-.324.238a2.2 2.2 0 0 0-.648.136c-.175.07-.39.06-.477-.024z"/>
    <path stroke="none" fill="#000" fill-opacity=".5" d="M99.735 65.225c-.082-.128.066-.304.329-.393.707-.24 1.296-1.657.924-2.228-.595-.914-.036-1.31.718-.509.558.594.515 1.751-.091 2.457-.56.65-1.644 1.039-1.88.673"/>
    <path fill="none" d="M76.392 75.213s1.59-.701 2.336-1.14c.818-.482 1.568-1.072 2.336-1.63 1.212-.882 3.585-2.716 3.585-2.716"/>
    <path fill="none" d="M80.818 76.253s1.246-.796 1.844-1.229a35 35 0 0 0 2.15-1.69c.69-.588 1.998-1.844 1.998-1.844"/>
    <path fill="none" d="m86.234 76.368 3.188-3.418"/>
    <path fill="none" d="M115.733 69.724s.7 1.008 1.114 1.46c.76.827 1.582 1.611 2.496 2.265.56.4 1.213.65 1.805.999.625.368 1.844 1.152 1.844 1.152"/>
    <path fill="none" d="M113.357 71.465s.77 1.501 1.303 2.146c.311.375.705.676 1.087.977.613.485 1.27.91 1.928 1.331a65 65 0 0 0 2.01 1.195"/>
    <path fill="none" d="m110.47 73.872 3.803 3.534"/>
  </g>
</svg>
