<svg xmlns="http://www.w3.org/2000/svg" fill="#d7374a" stroke="#000" viewBox="50 50 200 200">
  <metadata source="https://wappenwiki.org/images/4/43/Kr%C3%B6cher_Ancient.svg" license="https://creativecommons.org/licenses/by-nc-sa/3.0"/>
  <g id="camelBactrian" stroke-width=".11">
    <g>
      <path class="secondary" stroke-width=".33" stroke-linejoin="round" d="M82.71 129c-.02-.43.06-.92-.24-1.23-.3-.33-.84-.29-1.23-.06a.84.84 0 0 0-.42.7c-.01.13-.01.25.06.35.04.07.12.12.2.17l.28.19c.34.23.68.43 1.09.33.15-.03.22-.12.25-.28l.01-.17z"/>
      <path class="secondary" stroke-width=".33" stroke-linejoin="round" d="M82.6 127.22c-.03-.18-.04-.36-.13-.5a.8.8 0 0 0-.57-.4 1.52 1.52 0 0 0-.7.06.61.61 0 0 0-.21.1c-.1.09-.36.25-.39.38-.08.3.09.58.2.86.04.11.15.22.25.17.25.28.56.53.91.69.14.07.28.11.42.07.15-.05.23-.18.27-.32.03-.15.02-.29 0-.44l-.06-.67z"/>
      <path stroke-width=".33" stroke-linejoin="round" d="M77.43 108.64c.84-.42 1.5-.31 2.24-.9 1.22-.96 1.15-1.2 2.63-1.69 1.3-.44 5.8.01 7.45-1.01l.45-5.49-8.92-.7c-.89 1.64-1.38 1.66-2.7 2.8-.52.46-1.01.98-1.51 1.49-1.66 1.67-1.26.5-3.63 2.32-.42.2-.73.6-.81 1.05-.06.29.18 2.89.18 3.17-.02 2.23-.78 3.65.14 5.8.16.4.15.78.26 1.2.23 2.24.1 2.84 1.88 5.87.45.77 1.23 2.64 3.04 3.36.17.06.58.28.68.45.22.4.76 1.1.99 1.52.2.41.91.99 1.15.97.04-.44.29-.58.23-.8-.22-.3-.31-.61-.16-.81.15-.2.42-.27.67-.28.42-.03.67.32.91.23-.04-.84.22-2.45-.62-3.42-.3-.34-.85-.95-1.3-1.03-.45-.08-.65.01-1.15-.33-.53-.46-1.51-.34-1.98-.73-.66-.55-.12-1.6-.55-2.3-.44-.73-1.27-.43-1.27-1.94.13-.62-.1-1.24-.02-1.86.06-.59-.29-1 0-1.5.44-.71.62-1.55.59-2.37a7.02 7.02 0 0 0-.22-1.52c-.12-.35.66-1.23 1.35-1.55z"/>
      <g class="pseudostroke" stroke="none" fill="#000">
        <path d="M74.84 110.58c.06.33.06.66.03 1-.03.32-.1.65-.18.96l-.22.94c-.06.3-.1.62-.15.95a3 3 0 0 1-.1-.99c.01-.33.08-.66.16-.97.07-.32.16-.63.24-.94.08-.3.15-.63.22-.95z"/>
        <path d="M80.94 127.93c-.06-.05-.09-.09-.12-.13-.02-.05-.05-.08-.08-.12l-.06-.12c-.02-.05-.05-.08-.06-.15-.03-.13-.14-.27-.24-.4a3.47 3.47 0 0 1-.16-.21l-.04-.06-.03-.04a.71.71 0 0 0-.09-.1 1.15 1.15 0 0 1-.27-.44c.07.15.2.28.33.39l.1.08.04.05.04.04.2.18c.11.12.25.24.34.43l.06.08a.6.6 0 0 0 .07.1l.08.1.07.05-.18.27z"/>
        <path d="M79.7 123.87c.04.06.1.06.13.07h.13l.17.05c.05.03.1.06.15.11-.06.05-.12.06-.17.07a.47.47 0 0 1-.18 0c-.06-.01-.13-.02-.2-.08a.2.2 0 0 1-.06-.1c0-.05 0-.1.03-.12z"/>
        <path d="M81.33 126.7a.37.37 0 0 1-.25-.03c-.07-.04-.14-.1-.2-.16l-.26-.37-.26-.35-.3-.36c.16.05.29.14.42.23.12.1.23.21.33.35.1.13.17.27.22.4.07.12.14.23.3.29z"/>
        <path d="M76 122.94c.16.25.34.46.56.65.21.18.46.35.69.52l.7.54c.23.2.45.41.62.66l-.77-.44c-.26-.15-.51-.3-.75-.48a3.54 3.54 0 0 1-.67-.62 1.82 1.82 0 0 1-.39-.83z"/>
        <path d="M85.64 102.8a.69.69 0 0 1-.25.18c-.1.05-.2.1-.3.11-.21.07-.42.1-.63.14l-.62.07-.62.07c-.2.02-.39.08-.56.15l-.55.26c-.36.18-.7.41-1.1.61.28-.33.6-.61.96-.86.35-.24.77-.41 1.22-.46l.63-.03.63-.02.62-.05c.18-.02.4-.04.57-.17z"/>
      </g>
    </g>
    <path class="secondary" stroke-width=".33" stroke-linejoin="round" d="M101.75 136c.43.07.9.24 1.26 0 .38-.24.45-.75.3-1.2a.72.72 0 0 0-.3-.38 1.13 1.13 0 0 0-.32-.15.64.64 0 0 0-.35-.03.68.68 0 0 0-.21.16l-.24.24c-.3.3-.55.58-.54 1 0 .16.07.23.22.31l.18.06z"/>
    <path class="secondary" stroke-width=".33" stroke-linejoin="round" d="M103.53 136.24c.17 0 .35.03.51-.03.23-.06.4-.26.5-.48a1.4 1.4 0 0 0 .03-.92c-.07-.11-.19-.4-.3-.46-.27-.13-.58-.02-.88.04-.1.02-.24.1-.2.2-.34.2-.63.46-.86.77-.1.12-.17.25-.16.4.01.13.13.26.27.32.13.07.27.08.42.09l.67.07z"/>
    <path stroke-width=".33" stroke-linejoin="round" d="m115.26 92.58-11.65 6.92c.07 1.24 1.8 3.4 2.42 4.46.59 1 .53 4.2 1.02 5.24.33.7 1.2 3.47 1.26 3.74l.36 1.75c.29 1.38.66 1.7.64 3.11a73.42 73.42 0 0 1-.14 4.11c-.17 2.36-.49 2.98-1.3 5.2-.3.85-.63 1.7-.94 2.55-.1.3-.22.6-.33.89-.12.32-.24.74-.37 1.05-.01.2-.5.8-.67.86-.44.15-1.68.75-2.12.9-.45.13-1.16.7-1.2.94.44.12.53.4.77.38.34-.15.66-.2.81 0 .17.2.18.47.14.72-.05.42-.44.6-.4.85.84.12 2.4.08 3.52-.16.76-.16 1.1-.57 1.28-1.06.17-.44-.13-1.02-.17-1.49-.05-.47.42-1.1.82-1.52.11-.12.36-.4.44-.55.2-.34.16-.76.15-1.15-.07-1.6 1.75-6.2 1.9-6.61.34-.97.82-2.02 1.23-2.96a80 80 0 0 0 .62-1.43l.4-.9c.17-.4.35-.82.33-1.25 0-.23-.05-.46-.12-.68-.34-1.35-1.22-2.4-1.22-4 0-2.12 2.61-11.36 3.54-13.95.85-2.32-1.35-3.51-1.02-5.96z"/>
    <g class="pseudostroke" stroke="none" fill="#000">
      <path d="m103.15 134.48.02-.01c.01-.02.03-.03.05-.03l.04-.02.24-.09c.06 0 .1-.03.17-.04l.09-.01.06-.01.33-.15.18-.08c.05-.04.12-.06.16-.08l.29-.17a.88.88 0 0 1 .22-.07l.09-.01s-.04 0-.1.03l-.2.1-.26.22-.16.1-.15.1c-.11.08-.22.16-.34.22-.04 0-.07.02-.1.03a.45.45 0 0 1-.08.02c-.04.02-.09.03-.13.06l-.19.1c0 .02 0 .02-.02.03h-.01l-.2-.24z"/>
      <path d="m107.38 134.05-.04.02a.24.24 0 0 0-.04.05l-.01.04-.01.02v.02l-.03.1a.5.5 0 0 1-.12.2l-.08.09s-.03-.06-.03-.13a.5.5 0 0 1 .04-.24.37.37 0 0 1 .06-.13l.04-.03.03-.02.06-.04.1.01.03.04z"/>
      <path d="M104.28 135.1v-.03l.02-.07a.4.4 0 0 1 .1-.2l.13-.1.14-.07.15-.07.16-.06.28-.14.26-.14.18-.1.08-.03-.04.07-.14.16c-.05.07-.14.13-.23.2a1.6 1.6 0 0 1-.3.18l-.16.06a.92.92 0 0 1-.16.05.54.54 0 0 0-.15.04l-.12.04a.62.62 0 0 0-.15.11l-.05.1z"/>
      <path d="m108.96 128.23-.02.04a.56.56 0 0 0-.05.11l-.06.18c-.03.06-.06.14-.08.23l-.18.58a3.68 3.68 0 0 1-.46 1c-.06.1-.14.18-.22.27l-.4.46a4 4 0 0 1-.43.42l.06-.16.21-.38a11.4 11.4 0 0 1 .5-.8c.07-.1.13-.2.17-.3.1-.2.19-.42.28-.63a4.45 4.45 0 0 1 .42-.77l.12-.15.08-.1h.06z"/>
      <path d="M109.8 118.79a4.1 4.1 0 0 0 .36.64l.14.18c.1.13.22.24.33.33.06.05.12.1.18.13.03 0 .06.03.08.03l.1.02c.13.02.27 0 .4-.05l.19-.1.08-.07.05-.03.04-.05c.05-.04.1-.1.15-.17l.13-.2c.09-.13.16-.29.24-.43l.01-.01a.1.1 0 0 1 .09-.04h.1a.28.28 0 0 0 .1-.1.93.93 0 0 0 .14-.3.8.8 0 0 1-.04.35.48.48 0 0 1-.11.17l-.05.03-.05.02-.12.01.1-.05c-.06.16-.1.32-.18.47-.03.08-.08.16-.12.23l-.17.22-.04.05-.06.05c-.03.03-.06.07-.1.09l-.25.14c-.17.08-.37.11-.58.08l-.14-.05a1.19 1.19 0 0 1-.35-.24 2 2 0 0 1-.33-.41l-.12-.24a5.47 5.47 0 0 1-.1-.24c-.05-.12-.08-.3-.1-.46z"/>
      <path d="m111.52 113.49.05.1.1.3a13.1 13.1 0 0 1 .44 1.78l.03.3v.13s-.01-.04-.06-.1c-.04-.07-.1-.16-.15-.28a3.74 3.74 0 0 1-.18-.4l-.14-.49c-.04-.17-.07-.33-.09-.5a3.2 3.2 0 0 1-.03-.44l.01-.3.02-.1z"/>
      <path d="m106.14 101.37.1.1.09.12a2.15 2.15 0 0 1 .22.37l.1.24a2 2 0 0 1 .08.28l.05.28.02.3v.29l-.04.26a3.58 3.58 0 0 1-.12.42l-.06.14-.06.12V103.82l-.01-.22-.02-.25c0-.1 0-.18-.02-.27l-.03-.27-.04-.27-.05-.26-.05-.24-.06-.22a10.8 10.8 0 0 0-.09-.33v-.12z"/>
    </g>
    <path class="secondary" stroke-width=".33" stroke-linejoin="round" d="M86.68 139.2c.43.06.9.23 1.26 0 .38-.25.45-.76.3-1.2a.72.72 0 0 0-.3-.39 1.13 1.13 0 0 0-.32-.15.64.64 0 0 0-.35-.03.68.68 0 0 0-.21.16l-.24.24c-.3.3-.55.58-.54 1 0 .16.07.23.22.31l.18.06z"/>
    <path class="secondary" stroke-width=".33" stroke-linejoin="round" d="M88.45 139.43c.18 0 .36.03.52-.03.23-.06.4-.26.5-.48a1.4 1.4 0 0 0 .03-.92c-.07-.11-.19-.4-.3-.46-.27-.13-.58-.02-.88.04-.1.02-.24.1-.2.2-.34.2-.63.46-.86.77-.1.12-.17.25-.16.4.01.13.13.26.27.32.13.07.27.08.42.09l.66.07z"/>
    <path class="secondary" stroke-width=".33" stroke-linejoin="round" d="M115.94 139.09c.43.06.9.23 1.26 0 .38-.25.45-.76.3-1.2a.72.72 0 0 0-.3-.39 1.13 1.13 0 0 0-.32-.15.64.64 0 0 0-.35-.02.68.68 0 0 0-.21.15l-.24.24c-.3.3-.55.58-.54 1 0 .16.07.23.22.31l.18.06z"/>
    <path class="secondary" stroke-width=".33" stroke-linejoin="round" d="M117.72 139.32c.17 0 .35.03.51-.03.23-.06.4-.26.5-.48a1.4 1.4 0 0 0 .03-.92c-.07-.11-.19-.4-.3-.45-.27-.14-.58-.03-.88.03-.1.02-.24.1-.2.2-.34.2-.63.46-.86.77-.1.12-.17.25-.16.4.01.13.13.26.27.32s.27.08.42.09l.67.07z"/>
    <path stroke-width=".33" stroke-linejoin="round" d="M91.69 80.03a9.49 9.49 0 0 0 3-3.67c.17-.35.32-.73.52-1.05.67-1.06 1.43-1.14 2.4-1.13.94.02 1.75.1 2.55.86l.47.53c.66.77 1.5 1.95 2.25 2.5.9.65 1.41 2.66 2.3 2.66.46 0 .53-.4.92-.7a9.28 9.28 0 0 0 2.9-3.67c.16-.35.31-.73.5-1.05.68-1.06 1.44-1.14 2.4-1.12.95 0 1.76.08 2.56.85l.47.53c.66.77 1.5 1.95 2.25 2.5.9.65 2.2 2.83 3.1 3.46.57.54.6 1.05 1.62 1.7.49.33.93.68 1.34 1.19.88 1.07 1.8 2.26 2.52 3.54.47.84 1.55 3.63 1.72 4.34a51.06 51.06 0 0 1 1.38 11.85c0 .77-.02 1.54.13 2.29.26 1.26 1.02 2.36 1.5 3.56 1.04 2.64.71 5.36.36 8.2-1.82-2.14-3.28-4.41-3.45-7.24-.17-2.62.5-2.7.53-5.33.04-3.16-.06-6.56-.63-9.05-.4 1.65-1.18 2.83-1.76 4.7-.82 2.65-1.49 4.3-.95 7.02.3 1.5.26 1.98.76 3.43.15.45.34.88.52 1.32.52 1.29 1 2.6 1.42 3.93.06.22.13.44.15.67.03.43-.13.85-.28 1.26l-.35.93-.55 1.46c-.36.97-.79 2.02-1.09 3.01l-.38 1.28c-.29.97-.59 1.93-.75 2.92-.26 1.59-.47 3.1-.33 4.69.03.4.09.8-.09 1.16-.08.14-.3.44-.4.57-.4.42-.9 1.22-.85 1.7.04.46.34 1.04.17 1.48-.18.48-.52.9-1.28 1.06-1.11.25-2.68.28-3.52.16-.05-.24.35-.43.4-.85.04-.24.03-.52-.14-.71-.16-.2-.48-.16-.81 0-.23 0-.33-.27-.76-.39.03-.24.72-.81 1.19-.95.44-.14 1.68-.74 2.12-.89.18-.05.68-.71.68-.9.11-.32.22-.75.32-1.07l.29-.9.81-2.58c.7-2.26.88-5.1.94-7.46.03-1.38-.02-2.74-.07-4.11-.06-1.42-.44-1.72-.8-3.08l-.44-1.73-.21-.77-.29-.8c-.27-.73-.58-1.41-.94-2.1-.54-1-1.63-1.97-2.26-2.93a12.29 12.29 0 0 1-1.54-4.4c-.2-1.9-.09-2.51-.25-4.14-1.3 0-1.73 2.7-9.06 5.82-1.06.45-2.65.7-3.81.7-2.35.03-4.37-.68-5.6-.28-.07 1.94-.91 2.78-1.27 4.12-.4 1.51-.17 1.61-.03 3.16.09.94-.03 1.5-.14 2.44-.11.85-.26 1.88-.13 2.73.04.35.2.7.31 1.04a4.33 4.33 0 0 1-.41 3.55c-.31.5-.4.9-.48 1.48-.08.63-.2 1.25-.33 1.86-.37 1.67-.99 3.26-1 4.99-.02.74.02 1.5-.06 2.23-.1.82-.2 1.16-.11 2.01.02.23.04.58-.05.8a.6.6 0 0 1-.07.15c-.26.4-.46 1-.41 1.47.04.47.12.83-.05 1.27a2.45 2.45 0 0 1-1.28 1.17c-1.11.25-2.68.28-3.52.16-.05-.24.35-.43.4-.85.04-.24.03-.52-.14-.71-.16-.2-.48-.16-.81 0-.23 0-.33-.27-.76-.39.03-.24.72-.81 1.19-.95.44-.14 1.24-.52 1.68-.67.18-.05.57-.38.57-.57.08-1.76.8-3.22.83-3.42.2-2.77-.22-1.5.37-4.21.24-1.11.66-2.07.4-3.17-.1-.42-.1-.8-.25-1.2-.83-2.06-.35-4-.25-6.03.09-1.93-.5-3.5-.89-5.39-.14-.7-.3-1.38-.4-2.08-.23-1.71.33-2.6-.55-4.25-1.08-1.3-1.62-1.51-2.62-2.21-1.31-.64-2.14-1.42-3.73-1.5-2.61-.13-3.34-.54-5.37-2.2-2.05-1.68-3.21-2.74-4.13-5.24-.34-.91-.48-3.42-.73-4.35-.31-1.16.08-2.24.08-3.41 0-2.37 1.67-4.03 1.69-4.59.09-2.42 2.2-4.5 2.26-5.14.16-1.36 2.61-3.19 2.45-4.54-.43.14-.9-.11-1.26-.38s-.68-.62-1.1-.76c-.71-.23-1.46.16-2.21.2a2.72 2.72 0 0 1-2.12-.83c-1.03-.36-2.17.13-2.94.9-.09.09-.16.18-.27.25-.1.06-.2.1-.3.14-.24.07-.4.15-.53-.1a.55.55 0 0 1-.01-.4c.07-.17.1-.4.3-.68.26-.4.32-.64.72-.88.01-.03-.43.16-.75.07a.73.73 0 0 1-.3-.2c-.14.1-.2.18-.34.14a.35.35 0 0 1-.25-.32c-.03-.3-.03-.43.04-.65.08-.28.26-.55.5-.73.28-.22.46-.57.6-.9.27-.73.37-1.3 1.15-2.1.24-.26.63-.52.95-.69.61-.32 1.2-.33 1.9-.29s1.65.14 2.33-.03a9.77 9.77 0 0 0 3.56-1.75c0-.3-.35-.79.03-1.26.12.12.3.2.48.2l.28-.49c.02-.03.04-.08.07-.09.13-.07.26.11.4.14.17.03.3-.14.36-.3.08-.14.19-.32.36-.31 0 .14.05.29.13.42.25-.07.5-.17.75-.28 0 .22.26.36.47.3.13-.04.3-.13.4-.04l.08.1c.1.12.29.05.42-.02l.35-.18c.21.35.66.53 1.06.42l.05.37c.18.05.38.08.56.07.03.1.11.17.21.2.1.02.21 0 .31-.02l.4-.06c.14-.03.28-.05.42-.04.55.05.94.58 1.13 1.1.42.26.61.75.63 1.25 0 .23-.05.46.02.68.07.24.32.46.28.71-.03.26.31.42.36.69.04.28-.31.58-.18.83.04.09.14.14.2.21.07.07.12.19.05.26-.04.05-.1.06-.15.1-.17.08-.14.32-.08.5.08.16.19.34.16.53-.04.14-.15.25-.17.38-.03.16.04.3.11.44s.14.3.11.44-.23.28-.35.18l.09.97c-.2-.05-.36-.11-.45-.28-.26 1.78-2.28 7.18-4.33 10.8-.98 1.74-2.78 5.66-1.17 7.13.1.09 1.1 1.08 1.9 1.08 2.19.6 3.55-3.55 4.23-5.82.3-.9 1.15-2.54 2.27-3.66z"/>
    <path stroke-width=".33" stroke-linejoin="round" d="M86.49 62.47a2.4 2.4 0 0 1 1.79 0c.67.29 1.15.91 1.83 1.2.03.01.06.02.08.05.04.04.04.1.03.14-.05.4-.37.7-.68.95l-.5.44c-.37.32-.77.65-1.25.66-.63.01-1.14-.53-1.77-.65"/>
    <g class="pseudostroke" stroke="none" fill="#000">
      <path d="M128.23 111.95s-.05-.21-.1-.54a6.93 6.93 0 0 1-.05-.56l-.01-.32-.01-.33v-.33c0-.11.02-.21.03-.32 0-.2.03-.4.06-.56l.1-.54.01.15.01.4.02.55v1.26c0 .2 0 .4-.02.55v.4c-.04.13-.04.19-.04.19z"/>
      <path d="m128.5 110.38.07.18c.05.12.1.3.16.52.02.1.05.23.06.35.02.12.05.26.06.4 0 .14.03.28.04.43.01.14.02.3.05.44l.03.44c0 .14.02.28.04.41l.06.4a21.08 21.08 0 0 0 .24 1.07l-.09-.19c-.05-.12-.13-.29-.2-.5l-.1-.36a3.54 3.54 0 0 1-.08-.4l-.07-.42-.04-.44-.04-.44-.02-.43-.05-.75a12.22 12.22 0 0 0-.07-.53.9.9 0 0 1-.06-.19z"/>
      <path d="M129.3 110.07a5.38 5.38 0 0 1 .52 1.7c.04.3.04.6.05.9v.87a23.52 23.52 0 0 0 .14 2.64l.05.44.02.22c0 .04.02.07.03.1.02.01.05.03.07.01h.02v.01l-.01.2-.01-.2.02.01c-.01.02-.04.03-.07.02l-.05-.04c-.02-.03-.05-.06-.06-.1l-.05-.23c-.03-.14-.07-.28-.09-.44a12.14 12.14 0 0 1-.2-1.77c-.02-.14-.02-.3-.03-.45l-.01-.45.01-.44.01-.44c.01-.3 0-.58-.01-.88a5.9 5.9 0 0 0-.35-1.68z"/>
      <path d="m128.96 108.15.05.07.16.2a5.6 5.6 0 0 1 .95 1.99 7.49 7.49 0 0 1 .25 1.46l.04.75.03.73a28.3 28.3 0 0 1 .05 2.2v.34s-.03-.12-.05-.34l-.09-.92-.1-1.28-.06-.73-.06-.75a15.15 15.15 0 0 0-.2-1.44 8.23 8.23 0 0 0-.4-1.21c-.14-.34-.3-.62-.4-.81l-.14-.22-.03-.04z"/>
      <path d="M124.1 90.6s.03 0 .06.03l.11.09c.08.09.16.22.19.36a.72.72 0 0 1-.09.54l-.03.04-.04-.04-.06-.12a1.55 1.55 0 0 1-.15-.7c0-.06 0-.1.02-.14v-.06z"/>
      <path d="m123.89 88.55.05.02.12.08c.09.07.19.2.23.33.06.14.06.29.04.4a.37.37 0 0 1-.05.13c0 .03-.02.05-.02.05l-.04-.04a2.16 2.16 0 0 1-.24-.43 1.5 1.5 0 0 1-.1-.35v-.19z"/>
      <path d="M123.2 86.43h.05l.14.07c.11.07.23.18.3.32.09.15.13.3.14.42l-.01.16-.01.05-.04-.03c-.04-.02-.07-.07-.11-.1l-.25-.33a1.5 1.5 0 0 1-.16-.36l-.05-.15v-.05z"/>
      <path d="m123.8 98.68.03.09c.02.06.05.13.06.23.02.1.02.21.03.33l-.01.19-.02.18a3.5 3.5 0 0 1-.1.37l-.12.3-.14.2-.05.06v-.09l.01-.23c.01-.19.04-.42.09-.66l.13-.65c.02-.09.04-.16.07-.22 0-.06.02-.1.02-.1z"/>
      <path d="m124.6 97.68.05.06.08.16c.04.08.05.17.06.25v.15l-.02.15-.1.29a.8.8 0 0 1-.16.2.58.58 0 0 1-.15.12l-.07.03.01-.07.04-.16.1-.46.1-.48.04-.16.02-.08z"/>
      <path d="M125 96.66s.03 0 .05.03l.09.1.08.15c.02.06.03.13.03.2l-.02.18-.07.15c-.03.05-.05.08-.08.1l-.04.03-.02-.04-.05-.11a.9.9 0 0 1-.04-.3.9.9 0 0 1 .04-.32l.05-.1-.01-.07z"/>
      <path d="m91.38 87.2-.01.1-.04.25c-.03.1-.04.22-.06.35l-.05.4-.05.4v.18l-.02.17-.02.25-.01.1-.04-.09a3.28 3.28 0 0 1-.11-.62v-.2l.02-.21.03-.21c0-.07.03-.13.04-.2l.06-.19.06-.16.12-.23.08-.1z"/>
      <path d="M90.97 85.71v.31l-.04.3-.03.36-.04.35v.17l-.02.14-.02.22-.01.09s-.06-.12-.09-.3c-.02-.09-.03-.2-.03-.32v-.36c.02-.12.04-.24.08-.36.03-.11.06-.22.1-.31.03-.09.06-.16.1-.21-.02-.06 0-.08 0-.08z"/>
      <path d="m90.98 83.75-.02.31c0 .1-.02.2-.04.31l-.08.34c-.03.12-.05.23-.09.34a4.69 4.69 0 0 1-.22.59v-.31c0-.09.02-.2.04-.31l.06-.35.1-.34.11-.29c.08-.19.14-.29.14-.29z"/>
      <path d="m88.08 137.67.02-.01c.01-.02.03-.03.05-.03l.04-.02.24-.09c.06 0 .1-.03.17-.04l.09-.01.06-.01.33-.15.18-.08c.05-.04.12-.06.16-.08l.29-.17a.88.88 0 0 1 .22-.07l.09-.01s-.04 0-.1.03l-.2.1-.26.22-.16.1-.15.1c-.11.08-.22.16-.34.22-.04 0-.07.02-.1.03a.45.45 0 0 1-.08.02c-.04.02-.09.03-.13.06l-.19.1c0 .02 0 .02-.02.03h-.01l-.2-.24z"/>
      <path d="m86.73 97.66.04.37c.02.12.02.27.06.42 0 .08.03.17.04.25.02.1.02.2.06.29l.06.3.04.17c0 .06.03.11.04.17l.1.34.12.35c.08.24.19.47.28.72l.36.71.4.7a17.44 17.44 0 0 0 .77 1.27 10.72 10.72 0 0 1 .6 1.07l.19.38.15.34-.3.14-.16-.33-.19-.38c-.07-.14-.17-.3-.25-.48l-.32-.56-.38-.63-.4-.67c-.12-.23-.26-.47-.38-.72l-.34-.73c-.1-.26-.2-.5-.27-.74l-.11-.36-.1-.36-.03-.16-.04-.17-.05-.31c-.04-.2-.04-.4-.05-.57v-.42l.03-.38.03-.02z"/>
      <path d="M96.94 98.43s0 .02.04.06l.11.2c.04.08.09.18.13.31a2.43 2.43 0 0 1 .06.97 3.8 3.8 0 0 1-.12.57 8.57 8.57 0 0 0-.27 1.5v.3l.01.05.01.02.01.03c.02.02.03.07.03.1v.07c.03.1.04.18.08.25.04.08.08.15.14.21l.04.05.06.05c0 .02.03.03.04.06l.05.06c.13.18.18.35.22.52.1.33.1.6.11.79l.02.3h-.33l-.02-.29c0-.17-.02-.43-.1-.72-.03-.15-.08-.3-.17-.42l-.03-.05a.24.24 0 0 1-.05-.05l-.02-.02-.02-.04-.06-.05a1.22 1.22 0 0 1-.26-.62l-.01-.06-.01-.06-.01-.03-.01-.05c-.02-.03-.02-.06-.03-.1V102l.04-.31c.06-.43.18-.85.3-1.23a6.36 6.36 0 0 0 .18-1.02c.01-.3-.05-.55-.1-.72a1.02 1.02 0 0 0-.06-.2c-.03-.05-.03-.08-.03-.08l.03-.01z"/>
      <path d="M113.85 91.7c.05.12.08.23.14.33l.08.15.1.14c.11.2.24.4.37.6l-.04-.03.1.08.05.08.1.17.18.33.18.33.15.34c.2.46.38.92.54 1.38l.12.35.06.18.05.19a4.77 4.77 0 0 1 .11.76c.03.5.02 1 .02 1.48h-.33c0-.5.02-.99-.02-1.46 0-.12-.02-.24-.03-.35-.01-.13-.03-.24-.06-.35 0-.05-.03-.1-.04-.17l-.06-.18-.1-.35c-.16-.46-.31-.93-.49-1.39l-.14-.33c-.06-.1-.1-.22-.16-.33-.05-.1-.1-.22-.16-.31l-.09-.16-.04-.08-.04-.04-.03-.04-.3-.63c-.06-.11-.1-.22-.14-.33l-.04-.18a.96.96 0 0 1-.03-.17z"/>
      <path d="m92.3 137.24-.03.02a.24.24 0 0 0-.04.05l-.01.04-.01.02v.02l-.03.1a.5.5 0 0 1-.12.2l-.08.09s-.03-.06-.03-.13a.5.5 0 0 1 .04-.24.37.37 0 0 1 .06-.13l.04-.03.03-.02.06-.04.1.01.03.04z"/>
      <path d="M89.21 138.28v-.02l.02-.07a.4.4 0 0 1 .1-.2l.13-.1.14-.07.15-.07.16-.06.28-.14.26-.14.18-.1.08-.03-.04.07-.14.16c-.05.07-.14.13-.23.2a1.6 1.6 0 0 1-.3.18l-.16.06a.92.92 0 0 1-.16.05.54.54 0 0 0-.15.04l-.12.04a.62.62 0 0 0-.15.11l-.05.1z"/>
      <path d="M95.06 121.96v.09a1.26 1.26 0 0 1-.08.54l-.06.16-.08.17-.11.15-.13.13c-.08.08-.17.14-.25.2l-.1.05a.18.18 0 0 1-.1.04l-.08.02s0-.03.04-.08c.03-.04.07-.1.1-.18l.35-.52.33-.52.12-.17.05-.08z"/>
      <path d="M92.6 131.82s0 .06-.03.16l-.06.4c-.04.34-.1.78-.18 1.22-.08.44-.18.88-.29 1.2l-.08.22-.06.16-.07.14v-.15l.02-.4c.03-.35.07-.79.15-1.23.04-.22.08-.44.14-.65.05-.2.12-.4.19-.55l.08-.22.08-.16c.07-.08.1-.14.1-.14z"/>
      <path d="m123.25 131.14-.01.05a.56.56 0 0 0-.05.1l-.06.18-.07.23-.15.59c-.06.22-.13.45-.24.68l-.2.33c-.06.1-.13.2-.2.28l-.4.48-.3.32-.11.12.06-.16.2-.38.3-.53.18-.28.16-.3c.1-.21.17-.42.26-.63.09-.2.17-.4.27-.56.04-.08.08-.15.13-.2.04-.07.09-.12.12-.16.03-.05.06-.07.09-.1 0-.05.02-.06.02-.06z"/>
      <path d="M123.26 119.47a3.97 3.97 0 0 0 .38.63l.16.19c.1.12.23.22.35.31.07.05.12.1.19.13.03 0 .06.02.08.03l.1.02c.14.01.27-.01.4-.08a.95.95 0 0 0 .25-.17c.01-.01.04-.02.04-.04l.04-.04c.04-.05.1-.1.13-.18.05-.06.09-.13.12-.2l.22-.43.01-.01c.03-.04.06-.06.1-.05H125.91a.42.42 0 0 0 .1-.1c.06-.1.1-.2.12-.32.01.11.01.24-.03.36a.5.5 0 0 1-.1.16l-.05.03a.08.08 0 0 1-.05.03h-.12l.1-.05c-.05.17-.09.33-.16.49l-.1.24a1.4 1.4 0 0 1-.16.23l-.04.05-.05.06-.1.1c-.07.06-.15.1-.24.15a.94.94 0 0 1-.57.1l-.14-.03a.34.34 0 0 1-.15-.07c-.08-.04-.16-.1-.23-.16a2.32 2.32 0 0 1-.34-.4l-.13-.22a2.2 2.2 0 0 1-.11-.23c-.05-.2-.09-.36-.11-.53z"/>
      <path d="m124.72 114.1.06.1.12.29c.1.23.2.55.3.87.08.32.17.64.21.89.03.12.05.23.05.3l.01.13-.08-.1-.16-.26a2.22 2.22 0 0 1-.19-.4 4.32 4.32 0 0 1-.28-.96l-.05-.44v-.3l.01-.13z"/>
      <path d="m111.18 100-.04.05-.11.08c-.1.07-.22.11-.36.15a1.07 1.07 0 0 1-.5-.04l-.06-.02.05-.04.1-.09a1.07 1.07 0 0 1 .91-.09z"/>
      <path d="m112.17 98.81-.03.04a.48.48 0 0 1-.08.06.47.47 0 0 1-.25.1.54.54 0 0 1-.27-.04c-.03-.02-.06-.03-.08-.06-.03 0-.04-.03-.04-.03l.04-.03.07-.08a.47.47 0 0 1 .26-.1c.08-.01.18.01.26.04l.09.06.03.04z"/>
      <path d="M113.4 97.42s0 .02-.04.05c-.02.04-.07.08-.11.13-.1.1-.24.21-.4.29a1.47 1.47 0 0 1-.63.19h-.07l.04-.06.11-.13c.1-.1.25-.2.4-.29a1.47 1.47 0 0 1 .64-.18h.06z"/>
      <path d="m118.87 104.44.1.1c.03.03.07.06.1.11l.12.17c.04.07.09.13.12.2l.11.25c.03.09.07.18.09.28.03.08.04.18.06.28.02.1.04.2.04.3v.29l-.01.26-.05.23c0 .08-.03.13-.05.2l-.06.14-.05.12-.01-.13-.03-.34c0-.07 0-.14-.02-.22 0-.08 0-.17-.02-.24l-.03-.27-.05-.26-.05-.26a2.65 2.65 0 0 1-.06-.26l-.06-.24a5.56 5.56 0 0 0-.17-.55c0-.11-.02-.16-.02-.16z"/>
      <path d="m94.6 117.57.02.15.02.18v.24l-.01.28-.05.3a3.36 3.36 0 0 1-.17.64l-.1.31-.1.3c0 .04-.01.1-.03.14l-.04.14-.05.27-.05.22a5.26 5.26 0 0 1-.06.33l-.04-.16-.03-.17a1.5 1.5 0 0 1-.02-.23v-.29l.01-.15.02-.16.03-.16.05-.17.1-.33c.08-.2.14-.42.2-.61l.1-.29c.03-.09.04-.18.07-.25.02-.08.03-.16.06-.22l.04-.18c0-.08.02-.13.02-.13z"/>
      <path d="m95.14 103.78.03.04.03.12a1.01 1.01 0 0 1-.01.47c-.05.19-.12.4-.21.62l-.13.32c-.01.04-.05.1-.06.16l-.04.17c-.04.1-.06.23-.07.34l-.04.34c-.03.22-.04.44-.05.62 0 .18-.02.34-.03.45l-.02.17-.05-.16a3.95 3.95 0 0 1-.1-.44c0-.09-.03-.2-.04-.3l-.02-.34a2.95 2.95 0 0 1 .14-.94l.07-.17a4.6 4.6 0 0 1 .33-.62c.04-.08.1-.17.13-.25l.09-.22.04-.19.01-.06v-.13z"/>
      <path d="m117.34 137.56.02-.01c.01-.02.03-.03.05-.03l.04-.02.24-.09c.06 0 .1-.03.17-.04l.09-.01.06-.01.33-.15.18-.08c.05-.04.12-.06.16-.08l.29-.17a.88.88 0 0 1 .22-.07l.09-.01s-.04 0-.1.03l-.2.1-.26.22-.16.1-.15.1c-.11.08-.22.16-.34.22-.04 0-.07.02-.1.03a.45.45 0 0 1-.08.02c-.04.02-.09.03-.13.06l-.19.1c0 .02 0 .02-.02.03h-.01l-.2-.24z"/>
      <path d="m121.56 137.13-.03.02a.24.24 0 0 0-.04.05l-.01.04-.01.02v.02l-.03.1a.5.5 0 0 1-.12.2l-.08.09s-.03-.06-.03-.13a.5.5 0 0 1 .04-.24.37.37 0 0 1 .06-.13l.04-.03.03-.02.06-.04.1.01.02.04z"/>
      <path d="M118.47 138.17v-.02l.02-.07a.4.4 0 0 1 .1-.2l.13-.1.14-.07.15-.07.16-.06c.1-.05.2-.09.28-.15l.26-.13.18-.1.08-.03-.04.07-.14.16c-.05.07-.13.13-.23.2a1.6 1.6 0 0 1-.3.18l-.16.06a.92.92 0 0 1-.16.05.54.54 0 0 0-.15.04l-.12.04a.62.62 0 0 0-.15.11l-.05.1z"/>
    </g>
    <g>
      <g class="pseudostroke" stroke="none" fill="#000">
        <path d="M77 65.24a.2.2 0 0 1-.03-.09v-.08a.43.43 0 0 1 .07-.17l.1-.14.08-.12.03-.02.07-.06.08-.04.07-.04c.02 0 .04-.02.06-.04l.14-.1.1-.04.08-.04c.09-.02.2-.07.3-.12l.32-.1c-.08.07-.17.15-.27.21l-.13.1a.7.7 0 0 1-.15.09l-.07.03-.07.04-.13.1-.07.04c-.03 0-.06.03-.08.04l-.13.07.02-.02-.23.23-.1.1-.03.07-.04.1z"/>
        <path d="m74.44 66.45-.01.06-.04.15a.83.83 0 0 1-.1.2l-.16.2-.2.15a.83.83 0 0 1-.2.1l-.15.04-.05.01s0-.02.04-.04l.1-.1.3-.3.32-.31a.8.8 0 0 1 .1-.1l.05-.06z"/>
        <path d="m69.59 71.15-.01-.06.01-.15a.9.9 0 0 1 .07-.2.82.82 0 0 1 .14-.2l.14-.15a.23.23 0 0 0 .05-.07c0-.03.03-.05.05-.08a.19.19 0 0 1 .07-.07l.06-.02h.06s-.02 0-.05.03a.17.17 0 0 0-.04.11l-.01.09-.01.05-.02.07a.95.95 0 0 1-.16.2l-.14.15-.11.14-.1.16z"/>
        <path d="m70.27 66.21.19-.12.2-.16.23-.23.26-.28.16-.16.17-.15a.75.75 0 0 1 .23-.11l.04-.01h.03l.08-.01h.13c.09.02.17.04.26.1.05.02.09.06.12.1l.05.08v.13a.4.4 0 0 1-.06.15c0 .02-.03.04-.04.05l-.04.04-.04.03-.12.04-.11.05-.43.15c-.13.06-.26.11-.38.18-.13.06-.22.13-.32.2-.1.06-.18.14-.25.2-.06.07-.14.13-.2.17-.05.04-.1.06-.15.07h-.05l.05-.01.13-.1c.06-.05.1-.11.17-.2a1.86 1.86 0 0 1 .54-.5l.38-.2.43-.17.11-.05c.04 0 .1-.03.1-.03h.02l.04-.04c.02-.02.03-.05.03-.07l-.01-.03-.06-.06a.47.47 0 0 0-.18-.06l-.1-.01H71.79a.5.5 0 0 0-.18.07 2.4 2.4 0 0 0-.33.26l-.28.25c-.18.16-.35.27-.49.33-.06.03-.12.04-.15.07l-.09.04z"/>
        <path d="M72.45 68.31a1.04 1.04 0 0 1 .29-.15l.1-.04.22-.04.22-.01.1.01a.4.4 0 0 1 .12.02l.1.04c.04 0 .08.03.12.05l.1.07.08.07.08.1.06.09v.01c.04.09.05.17.04.24a.7.7 0 0 1-.03.22c-.04.15-.1.29-.2.4.04-.14.06-.28.06-.42v-.2a.6.6 0 0 0-.05-.16l-.06-.07-.06-.06-.07-.06a.18.18 0 0 0-.08-.04l-.08-.05c-.04 0-.06-.02-.1-.03a.34.34 0 0 0-.08-.02l-.1-.02c-.03-.02-.06-.02-.1-.02h-.4l-.1.02c-.03 0-.06 0-.1.02a.12.12 0 0 1-.08.03z"/>
        <path d="M74.35 65.13s.05.01.08.05c.04.03.07.07.07.13 0 .05-.02.1-.05.14l-.06.06-.06-.07a.23.23 0 0 1-.04-.11c0-.04 0-.08.02-.12l.04-.08z"/>
        <path d="m73.9 65.09.03.02c.03.01.05.03.07.07.06.05.09.15.1.25 0 .1-.02.2-.07.25-.04.07-.1.09-.1.09v-.03l-.03-.1a1.35 1.35 0 0 1-.02-.21l.01-.22.01-.09v-.03z"/>
        <path d="M70.72 66.8v-.04l.03-.09a.45.45 0 0 1 .06-.12l.06-.08c.02-.03.05-.04.1-.06a1.65 1.65 0 0 1 .46-.08l.25-.01h.25l.26-.01.23-.02a.85.85 0 0 0 .2-.06l.15-.1c.09-.1.15-.18.19-.25l.05-.11-.01.12a.95.95 0 0 1-.13.3c-.05.05-.09.12-.17.16a.6.6 0 0 1-.24.11c-.09.03-.17.05-.26.05h-1.21l-.07.03-.06.04-.1.1-.06.06.02.05z"/>
        <path d="M79.71 62.87a.5.5 0 0 0-.09.32l-.04-.06.14.01.07.01a.2.2 0 0 1 .1.02c.04.03.07.08.07.11l.01.08v.01l.04.01.12.04H80.54c.05.02.13.03.18.07.07.06.08.1.1.1l.09.01h.14a1.38 1.38 0 0 1 .57.15h-.28c-.1 0-.19 0-.28.02-.04 0-.09 0-.14.02a.32.32 0 0 1-.2-.02l-.12-.1c-.02-.01-.04-.02-.09-.02h-.28a.65.65 0 0 1-.16-.02l-.15-.06-.09-.05a.2.2 0 0 1-.05-.13v-.06c0-.01 0 0 0 0l-.03-.01-.06-.02-.14-.05h-.02c-.02-.01-.04-.03-.03-.05a.44.44 0 0 1 .2-.33z"/>
        <path d="m87.48 64.2.08-.06a.38.38 0 0 1 .2-.04c.07 0 .14.02.2.04.05.02.09.07.09.07l-.09.06a.38.38 0 0 1-.2.05.58.58 0 0 1-.2-.05l-.08-.06z"/>
        <path d="m86.94 64.53.03-.01.08-.01c.05-.02.13 0 .2 0l.18.06c.06.02.1.06.1.06s-.03.04-.09.06a.38.38 0 0 1-.23.04.3.3 0 0 1-.2-.11.14.14 0 0 1-.07-.1z"/>
        <path d="m86.4 64.71.12-.03a.81.81 0 0 1 .23 0 .75.75 0 0 1 .32.14s-.05.04-.11.06a.57.57 0 0 1-.24.02.44.44 0 0 1-.22-.09c-.07-.05-.1-.1-.1-.1z"/>
        <path d="m86.02 64.57.03-.06c.02-.05.04-.12.08-.18.05-.07.11-.14.2-.21l.11-.1c.06-.03.08-.04.11-.08l.1-.1.1-.1.2-.2c.05-.05.1-.08.15-.11l.05-.04v.01c0 .02 0 .04-.02.06l-.08.18-.15.23-.08.12-.11.12a.2.2 0 0 1-.08.05l-.02.02h-.03l-.03.03a.45.45 0 0 0-.12.08c-.08.04-.15.1-.2.14-.07.04-.12.09-.16.1a.19.19 0 0 1-.05.04z"/>
        <path d="m86.67 63.52-.02.1a.34.34 0 0 1-.1.14.52.52 0 0 1-.17.06h-.1l.02-.1c.02-.06.05-.1.1-.14a.52.52 0 0 1 .17-.06c.06-.02.1 0 .1 0z"/>
        <path d="m86.16 63.32.02-.04a.35.35 0 0 1 .06-.07c.04-.04.07-.07.13-.1.04-.03.1-.08.17-.11.13-.07.3-.12.49-.14.08-.02.18-.03.28-.03h.3a1.3 1.3 0 0 1 .56.19 3.88 3.88 0 0 1 .42.25c.24.16.38.29.38.29s-.19-.06-.45-.17a7.02 7.02 0 0 1-.68-.3l-.25-.04h-.54c-.18.01-.33.04-.47.07-.06.02-.12.03-.17.07a.73.73 0 0 0-.13.06c-.04.02-.07.03-.08.06h-.04z"/>
        <path d="m89.42 64.3-.2.26a4.47 4.47 0 0 1-.53.5l-.17.13-.17.1a.58.58 0 0 1-.18.06.92.92 0 0 1-.17.05h-.34l.1-.04.21-.08a.82.82 0 0 0 .13-.08 1 1 0 0 0 .15-.09l.15-.11.15-.11.3-.23.28-.2.3-.16z"/>
        <path d="m85.03 63.55.18-.23a4.14 4.14 0 0 1 .96-.86l.18-.11.08-.03.12.3-.08.03c-.04 0-.1.03-.18.06a3.19 3.19 0 0 0-1.05.65l-.2.19z"/>
        <path d="m86.01 65.42-.06-.02-.15-.04-.5-.05c-.18-.02-.36-.05-.5-.1a.7.7 0 0 1-.15-.07l-.06-.03.07.01.17.02c.13.01.31 0 .49-.02l.52-.05h.25l-.08.35z"/>
        <path d="M80.51 75.88c-.06 0-.1.08-.08.1V76l-.03.01c-.05.06-.1.1-.17.14-.07.05-.12.1-.19.13l-.2.1-.2.07c-.08.02-.15.05-.23.06l-.1.02h-.12c-.15.02-.3.02-.45-.01l.21-.08.1-.03.1-.04.2-.06.2-.07.4-.14.19-.08c.03 0 .07-.02.1-.04l.1-.05-.02.05c.03-.09.14-.13.2-.1z"/>
        <path d="M80.77 74.64s-.04.07-.12.16a1.35 1.35 0 0 1-.78.42c-.12.02-.2.01-.2.01l.04-.03.12-.1.36-.21.39-.18.13-.05.06-.02z"/>
      </g>
      <path fill="#f6f6f6" stroke-width=".33" stroke-linejoin="round" d="M79.79 64.98a.75.75 0 0 1-.2.35c-.04.06-.1.1-.15.14-.13.1-.27.19-.42.23-.24.07-.52.04-.76-.04-.13-.04-.36-.19-.42-.3-.04-.12-.09-.25-.06-.37.2-.13.62-.17.92-.17.34 0 .79.05.94.08.07 0 .13.03.15.08z"/>
      <g class="pseudostroke" stroke="none" fill="#000">
        <path d="m77.88 65.12-.1.03-.22.08-.2.1-.07.07.03-.1a.88.88 0 0 1 .14-.2l.15-.18.08-.07.2.27z"/>
        <path d="m79.8 64.77.03.02.1.05.17.04.1.01.1.01c.14.01.27 0 .37-.02.05-.01.09-.03.12-.05.03 0 .04-.02.04-.02l-.03.04-.11.07c-.1.06-.24.11-.39.15-.03 0-.07 0-.1.02h-.12a.66.66 0 0 1-.2 0l-.16-.01-.05-.03.13-.28z"/>
        <path d="m79.74 72.2.08-.02h.08l.1-.03.3-.1a.53.53 0 0 1 .2-.04h.18a1.76 1.76 0 0 0 .64-.05l.28-.07-.27.12-.3.1c-.11.04-.24.06-.36.07l-.1.01-.07.01-.13.06-.28.15-.12.06-.1.03a.34.34 0 0 0-.07.02l-.06-.33z"/>
        <path d="M69.04 69.83h-.02c-.03 0-.07 0-.1-.02l-.02-.01-.01-.02h-.02c0-.02-.02-.03-.03-.04l-.04-.05-.07-.11-.04-.13-.01-.06v-.2c0-.04 0-.09.03-.12a.95.95 0 0 1 .12-.2.95.95 0 0 0 .3-.6.98.98 0 0 1-.19.69.33.33 0 0 0-.05.17v.13l.02.04v.03l.03.04.05.06.05.07.02.02h.01v-.01c-.03-.01-.06-.02-.1-.01-.02 0 0 0 0 0l.07.33z"/>
        <path d="m69.95 69.67.04-.02.1-.05a1 1 0 0 1 .38-.11.72.72 0 0 1 .26 0c.1.02.2.06.27.09.08.02.15.04.24.04s.18 0 .26-.02c.1-.02.18-.05.26-.08l.23-.13c.08-.05.15-.1.23-.13a.64.64 0 0 1 .23-.06c.15 0 .26.05.34.09l.08.05c0 .02.02.03.02.03l-.02-.03-.09-.04a.69.69 0 0 0-.33-.05.77.77 0 0 0-.2.06c-.08.03-.14.09-.2.14-.07.06-.15.13-.24.17a1.23 1.23 0 0 1-.57.18c-.1 0-.2 0-.3-.03-.08-.02-.16-.04-.23-.04l-.2.01a.6.6 0 0 0-.26.11l-.07.04-.02.03-.2-.25z"/>
        <path d="m79.34 62.22.03-.01.04-.03c.03 0 .04 0 .06-.02.08-.03.19-.04.27-.05a8.61 8.61 0 0 0 .39-.06s-.03.04-.1.07l-.23.14a.77.77 0 0 0-.2.14l-.02.04-.02.02-.03.02-.2-.26z"/>
        <path d="M78.8 65.45c.02-.01.03-.02.03-.04.02-.1-.03-.19-.04-.29l-.01-.14c0-.05-.02-.08-.03-.11l-.02-.04a.08.08 0 0 0-.05-.02c-.16 0-.31 0-.47.04 0 .07-.1.2.07.41.17.21.39.22.47.21.01 0 .04 0 .06-.02z"/>
        <path d="m78 66.12.06.05c.04.02.1.05.17.06l.24.01h.14c.04 0 .09 0 .13-.02l.05-.02.04-.03.14-.1.26-.1c.07-.02.14-.05.18-.05h.08l-.05.05c-.04.03-.1.06-.16.12l-.2.16-.12.1-.07.05a.4.4 0 0 1-.1.04l-.2.02h-.14a.8.8 0 0 1-.3-.1.37.37 0 0 1-.13-.15l-.03-.05v-.04z"/>
        <path d="m78.04 66.75.05.04.15.07.08.01h.15c.06.01.13.04.16.09.05.04.07.09.1.12l.03.04.05.04.09.04.22.08.16.07.05.04h-.48a.31.31 0 0 1-.15-.07l-.04-.02v-.01l-.03-.02-.05-.07-.08-.1c-.02-.02-.03-.04-.06-.04l-.1-.03c-.06 0-.1-.03-.13-.05a.33.33 0 0 1-.12-.14c-.05-.07-.05-.1-.05-.1z"/>
        <path d="m78.94 69.06.03.01.06.02c.04.01.09.03.12.07a.4.4 0 0 1 .08.1l.03.08s-.03.04-.09.04c-.05 0-.12-.01-.17-.06a.21.21 0 0 1-.08-.16v-.07c0-.02.02-.03.02-.03z"/>
        <path d="M78.11 68.78s.06 0 .1.03a.4.4 0 0 1 .23.3c.02.05 0 .1 0 .1l-.1-.03a.3.3 0 0 1-.14-.12.36.36 0 0 1-.07-.18c-.03-.05-.02-.1-.02-.1z"/>
        <path d="m77.44 68.6.04.03.05.04.12.11.1.15.05.08s-.05.03-.11.02c-.07 0-.15-.05-.2-.1a.33.33 0 0 1-.08-.21l.01-.08a.14.14 0 0 1 .02-.03z"/>
        <path d="M83.14 70.3v.03c0 .03 0 .07-.02.11-.02.1-.1.2-.19.3-.1.08-.2.13-.3.14-.1.03-.17 0-.17 0l.03-.03.08-.08.22-.2.23-.2.09-.07h.03z"/>
        <path d="M83.7 69.75a.46.46 0 0 0 .04.2.74.74 0 0 1-.1.4l-.07.1-.03.05c-.01.01-.02.03-.05.04a.52.52 0 0 1-.17.11c-.06.03-.11.03-.14.03-.04 0-.06-.02-.06-.02s.02 0 .04-.03c.03-.02.06-.04.1-.09a.69.69 0 0 0 .1-.13l.03-.07.05-.1.16-.31.06-.12a.57.57 0 0 0 .03-.06z"/>
        <path d="M84.32 69.17s.03.05.04.14c.01.09.01.2-.02.31a.75.75 0 0 1-.14.26c-.06.07-.11.1-.11.1s-.01-.06 0-.14a1.47 1.47 0 0 1 .17-.54c.03-.09.06-.13.06-.13z"/>
        <path d="M84.92 68.56s.05.04.08.1c.03.07.06.16.05.26a.41.41 0 0 1-.11.23c-.05.05-.1.07-.1.07l-.03-.12.01-.22.06-.2a.54.54 0 0 1 .03-.08l.01-.04z"/>
        <path d="M85.28 67.9s.05.01.1.06c.05.04.1.13.1.22.02.09 0 .17-.03.24-.03.07-.08.1-.08.1l-.05-.1a1.04 1.04 0 0 1-.06-.2v-.28l.02-.05z"/>
        <path d="m83.89 63.91.01.07.01.17.02.1.04.09c.02.07.06.13.1.22l.05.12.05.13c0 .05.02.1.03.12l.02.11.03.15.05.04-.02.01h-.06a.39.39 0 0 1-.18-.1l-.07-.1-.08-.1-.07-.13-.06-.13a.85.85 0 0 1-.09-.3v-.15a.47.47 0 0 1 .04-.13c.04-.08.08-.12.11-.16.05 0 .07-.03.07-.03z"/>
        <path d="M82.4 62.95c0-.17.1-.35.22-.48h.02c0-.01.04-.02.06-.01l.06.02.04.06.01.03.01.02.01.04.05.16-.02-.05c0 .02.03.02.04.02l-.07.04a.67.67 0 0 1 .51-.3c.05 0 .11.05.11.1v.02c0 .04.02.1.05.11l-.15.07.04-.1a.23.23 0 0 1 .13-.1h.15l.03.03c.05.05.05.1.06.11 0 .04 0 .05.02.06l.02.02c.02.02.07.02.11.02h.07c.02-.02.04-.02.07-.03l.17-.07c.03 0 .07 0 .09-.02h.1c.06.01.12.05.15.1-.04-.04-.1-.04-.15-.04a.2.2 0 0 0-.08.02l-.07.03-.14.1-.08.03-.1.04a.39.39 0 0 1-.22-.02.19.19 0 0 1-.1-.1l-.04-.1-.02-.04h.01-.01.02v.02c-.02 0-.02.03-.03.05-.01.06-.08.09-.13.08l-.03-.01a.34.34 0 0 1-.16-.32l.11.12a.45.45 0 0 0-.2.05.49.49 0 0 0-.16.14c-.01.03-.05.04-.07.04a.22.22 0 0 1-.2-.08l-.02-.04-.02-.17-.01-.04v-.04c.02 0 .03 0 .04-.02h.01c-.13.15-.24.28-.32.43z"/>
      </g>
    </g>
    <g class="pseudostroke" stroke="none" fill="#000">
      <path d="M115.75 82.42c-.05-.06-.07-.13-.1-.18l-.05-.18c0-.05-.03-.1-.04-.17a3.69 3.69 0 0 1-.03-.2c.07 0 .14.06.18.12.05.05.08.12.1.2.02.06.02.14.01.22 0 .06-.02.14-.07.2z"/>
      <path d="M115.12 82.48a.42.42 0 0 1-.11-.14l-.07-.15-.02-.15c0-.06 0-.11.02-.18a.4.4 0 0 1 .15.12l.07.16c.01.05.03.1.03.17-.02.05-.03.11-.07.17z"/>
      <path d="M114.26 82.48a.52.52 0 0 1-.1-.13.34.34 0 0 1-.03-.15l.01-.14a.4.4 0 0 1 .08-.15c.05.04.07.08.1.13.02.04.03.1.03.14l-.01.14a.3.3 0 0 1-.08.16z"/>
      <path d="M113.5 82.77a.42.42 0 0 1-.1-.15.81.81 0 0 1-.05-.15.42.42 0 0 1 0-.17c0-.05.02-.1.06-.16.06.04.1.1.11.14l.05.15v.17a.35.35 0 0 1-.07.17z"/>
      <path d="M113.03 83a.56.56 0 0 1-.14-.28c-.02-.04-.02-.09-.02-.14 0-.06.02-.1.04-.17.06.02.1.07.13.11.03.05.06.1.07.15v.16a.29.29 0 0 1-.08.17z"/>
      <path d="M112.07 83.15a.67.67 0 0 1-.03-.19l-.02-.16-.01-.17-.02-.18c.08.02.14.07.17.13.04.05.07.13.07.2 0 .06 0 .14-.03.2a.28.28 0 0 1-.13.17z"/>
      <path d="m111.51 83-.09-.16a.39.39 0 0 1-.03-.15.36.36 0 0 1 0-.16c.01-.05.01-.1.04-.17.06.03.1.09.12.14.03.06.05.11.06.17.01.05 0 .1-.01.17-.02.06-.04.11-.09.16z"/>
      <path d="M110.72 83.13a.51.51 0 0 1-.05-.21c0-.07 0-.13.03-.19a.64.64 0 0 1 .06-.19c.04-.05.07-.12.12-.16.04.08.05.14.05.2 0 .08 0 .14-.02.2a.64.64 0 0 1-.07.18.79.79 0 0 1-.12.17z"/>
      <path d="M109.9 82.83a.84.84 0 0 1-.2-.43c-.02-.07-.03-.15-.03-.23 0-.08.01-.16.05-.24l.13.2c.03.09.06.15.07.23l.02.23c0 .08-.01.15-.05.24z"/>
      <path d="M108.84 82.78a.59.59 0 0 1-.08-.22l-.01-.22c0-.08.01-.15.03-.21.03-.07.05-.15.1-.21.05.07.07.14.08.22l.01.22a.71.71 0 0 1-.13.42z"/>
      <path d="M107.87 82.68a2 2 0 0 0 .36-.64l.1-.24a.64.64 0 0 1-.19.8.41.41 0 0 1-.27.08z"/>
      <path d="m107.1 82.2.12-.06-.04.03a1.22 1.22 0 0 1 .43-.73c0 .08-.02.16-.03.22l-.06.2c-.06.13-.13.24-.24.35l-.03.03h-.02a.31.31 0 0 1-.13-.05z"/>
      <path d="M116.5 81.57c.05.05.07.1.1.17l.01.18c0 .05 0 .1-.02.17-.02.06-.04.11-.09.18a.53.53 0 0 1-.08-.18c-.01-.05-.03-.1-.03-.17l.03-.18a.53.53 0 0 1 .08-.17z"/>
      <path d="M116.92 81.51c.07.02.11.07.15.1l.08.13c.03.05.05.1.05.16l-.01.17a.36.36 0 0 1-.15-.1c-.03-.04-.06-.07-.08-.13a.36.36 0 0 1-.05-.15.33.33 0 0 1 .01-.18z"/>
      <path d="M117.42 81.06c.06.02.12.06.17.09l.14.1.1.14c.03.06.05.1.07.18-.07 0-.13-.03-.18-.05a.7.7 0 0 1-.15-.1.46.46 0 0 1-.1-.16.41.41 0 0 1-.05-.2z"/>
      <path d="M101.45 82.42c-.05-.06-.07-.13-.1-.18l-.05-.18c0-.05-.03-.1-.04-.17a3.69 3.69 0 0 1-.03-.2c.07 0 .14.06.18.12.05.05.08.12.1.2.02.06.02.14.01.22 0 .06-.02.14-.07.2z"/>
      <path d="M100.82 82.48a.42.42 0 0 1-.11-.14l-.07-.15-.02-.15c0-.06 0-.11.02-.18a.4.4 0 0 1 .15.12l.07.16c.01.05.03.1.03.17-.02.05-.03.11-.07.17z"/>
      <path d="M99.96 82.48a.52.52 0 0 1-.1-.13.34.34 0 0 1-.03-.15l.01-.14a.4.4 0 0 1 .08-.15c.05.04.07.08.1.13.02.04.03.1.03.14l-.01.14a.3.3 0 0 1-.08.16z"/>
      <path d="M99.2 82.77a.42.42 0 0 1-.1-.15.81.81 0 0 1-.05-.15.42.42 0 0 1 0-.17c0-.05.02-.1.06-.16.06.04.1.1.11.14l.05.15v.17a.35.35 0 0 1-.07.17z"/>
      <path d="M98.73 83a.56.56 0 0 1-.14-.28c-.02-.04-.02-.09-.02-.14 0-.06.02-.1.04-.17.06.02.1.07.13.11.03.05.06.1.07.15v.16a.29.29 0 0 1-.08.17z"/>
      <path d="M97.77 83.15a.67.67 0 0 1-.03-.19l-.02-.16-.01-.17-.01-.18c.07.02.13.07.16.13.04.05.07.13.07.2 0 .06 0 .14-.03.2a.28.28 0 0 1-.13.17z"/>
      <path d="m97.21 83-.09-.16a.39.39 0 0 1-.03-.15.36.36 0 0 1 0-.16c.01-.05.01-.1.04-.17.06.03.1.09.13.14l.05.17c.01.05 0 .1-.01.17-.02.06-.05.11-.09.16z"/>
      <path d="M96.42 83.13a.51.51 0 0 1-.05-.21c0-.07 0-.13.03-.19a.64.64 0 0 1 .06-.19c.04-.05.07-.12.12-.16.04.08.05.14.05.2 0 .08 0 .14-.02.2a.64.64 0 0 1-.07.18.79.79 0 0 1-.12.17z"/>
      <path d="M95.6 82.83a.84.84 0 0 1-.2-.43c-.02-.07-.03-.15-.03-.23 0-.08.01-.16.05-.24l.13.2.07.23.02.23c0 .08-.01.15-.05.24z"/>
      <path d="M94.54 82.78a.59.59 0 0 1-.08-.22l-.01-.22c0-.08.01-.15.03-.21.03-.07.05-.15.1-.21.05.07.07.14.08.22l.01.22c0 .07-.01.14-.03.2-.03.07-.05.14-.1.22z"/>
      <path d="M93.57 82.68a2 2 0 0 0 .36-.64l.1-.24a.64.64 0 0 1-.19.8.41.41 0 0 1-.27.08z"/>
      <path d="M92.8 82.12c.04-.04.08-.05.12-.07l-.04.03a.99.99 0 0 1 .14-.35l.12-.14c.04-.05.1-.09.17-.12 0 .07-.02.14-.03.2l-.06.17a.99.99 0 0 1-.23.3l-.04.02h-.02l-.13-.04z"/>
      <path d="M102.2 81.57c.05.05.07.1.1.17l.01.18c0 .05 0 .1-.02.17-.02.06-.04.11-.09.18a.53.53 0 0 1-.08-.18c-.01-.05-.03-.1-.03-.17l.03-.18a.53.53 0 0 1 .08-.17z"/>
      <path d="M102.62 81.51c.07.02.11.07.15.1l.08.13c.03.05.05.1.05.16l-.01.17a.36.36 0 0 1-.15-.1c-.03-.04-.06-.07-.08-.13a.36.36 0 0 1-.05-.15.33.33 0 0 1 .01-.18z"/>
      <path d="M103.12 81.06c.06.02.12.06.17.09l.14.1.1.14c.03.06.05.1.07.18-.07 0-.13-.03-.18-.05a.7.7 0 0 1-.15-.1.46.46 0 0 1-.1-.16.41.41 0 0 1-.05-.2z"/>
      <path d="m83 90.83-.11.38-.12.44-.16.56-.17.68-.18.74a101.17 101.17 0 0 0-.3 1.64 21.85 21.85 0 0 0-.25 2.41 13.43 13.43 0 0 0 .16 2.11l-.04-.1-.08-.28a7.42 7.42 0 0 1-.28-1.73 9.18 9.18 0 0 1 .04-1.62 11.5 11.5 0 0 1 .29-1.7l.2-.81c.06-.27.14-.52.22-.75l.23-.66c.15-.41.3-.74.4-.97a2.37 2.37 0 0 0 .15-.34z"/>
      <path d="M80.41 96.89a1.4 1.4 0 0 1-.14-.32 3.72 3.72 0 0 1-.14-1.04c0-.24.02-.47.05-.7l.1-.68.12-.67.07-.34.07-.34.1-.34.12-.33c.08-.22.18-.43.33-.63l-.02.02.07-.14a.49.49 0 0 1 .09-.12c.06-.08.12-.15.19-.21l.2-.2.17-.2c-.07.17-.19.32-.29.48l-.15.23-.06.12a.25.25 0 0 0-.03.1l-.01.03v.01c-.06.09-.1.2-.13.3-.05.1-.08.2-.11.32l-.1.32-.08.31a3.2 3.2 0 0 0-.04.35l-.06.34-.1.67-.13.67c-.04.22-.09.44-.1.66l-.04.33-.01.33c-.03.22 0 .45.06.67z"/>
      <path d="M83.6 91.4s0 .14-.03.39l-.1 1c-.02.2-.03.43-.03.67-.01.23 0 .48.01.73.01.26.04.52.09.79.04.26.1.52.17.8.06.27.12.55.16.83V96.83l.02.21-.01.41-.05.75a3.9 3.9 0 0 0 .08 1.21c.05.15.09.3.14.4l.14.26.05.09-.06-.08-.18-.23a2.6 2.6 0 0 1-.36-.96 4.4 4.4 0 0 1-.06-.68v-1.13l-.02-.2v-.1l-.01-.1a6.7 6.7 0 0 0-.16-.8c-.05-.27-.12-.53-.16-.82a5.18 5.18 0 0 1-.03-1.57 12.3 12.3 0 0 1 .32-1.66c.04-.29.08-.43.08-.43z"/>
      <path d="M84.88 92.82v.08l.01.22.02.34.03.2.03.24.09.51a57.39 57.39 0 0 1 .25 1.19c.03.21.08.44.08.67 0 .23-.03.45-.04.66l-.03.62c0 .2 0 .38.02.57.01.19.03.35.07.52.02.15.05.3.09.43l.08.33.1.28-.05-.06-.11-.19-.16-.32a3.71 3.71 0 0 1-.27-.96 5.1 5.1 0 0 1-.07-.6c0-.21.01-.43.03-.64 0-.22.04-.43.04-.64 0-.2-.01-.4-.05-.62l-.08-.62c-.04-.2-.06-.4-.08-.58l-.04-.53V93.47a3.17 3.17 0 0 1 .05-.57l-.01-.08z"/>
      <path d="m127.15 96.6-.02-.27a6.98 6.98 0 0 0-.23-1.45 22.92 22.92 0 0 0 .32.82l.17.58.08.28-.32.04z"/>
    </g>
  </g>
</svg>
