<svg xmlns="http://www.w3.org/2000/svg" fill="#d7374a" stroke="#000" viewBox="50 50 200 200">
  <metadata author="Anenja" source="https://commons.wikimedia.org/wiki/File:Escudo_de_Calcena.svg" license="https://creativecommons.org/licenses/by-sa/3.0"/>
  <g id="chalice2" stroke-width=".375">
    <line fill="none" y2="135.173" x2="92.352" y1="137.819" x1="92.345"/>
    <line fill="none" y2="135.173" x2="107.65" y1="137.819" x1="107.642"/>
    <path d="M95.687 114.552s-.29 2.293-1.629 4.306c-1.369 2.06-3.273 3.306-3.273 3.306l-.006.008c-2.317 1.621-4.873 2.074-6.93 2.701q-.544.163-1.036.355c-.164.065-.324.127-.478.2a6 6 0 0 0-.446.233 5 5 0 0 0-.776.554c-.35.316-.637.694-.85 1.16q-.16.35-.26.77a5 5 0 0 0-.062.286q-.03.172-.031.346v.06c0 .039-.003.076 0 .113v3.835c.6.776 1.146 1.39 2.066 1.766q.136.056.285.104c.102.034.206.058.316.087q.162.043.335.078c.356.07.753.117 1.21.138.156.163.309.313.466.459h.006c.155.144.309.287.465.415h.006c1.42 1.166 2.89 1.698 4.498 1.836h.006c.356.03.723.04 1.092.034a14 14 0 0 0 1.725-.12c1.894 1.762 5.09 2.585 8.202 2.475a14.5 14.5 0 0 0 3.208-.467q.507-.137.986-.312h.006a9.2 9.2 0 0 0 2.178-1.117h.006q.381-.271.714-.58c.001 0 .004.003.006 0 .394.048.776.083 1.154.104h.006q.282.014.558.017h.007c.183.003.365.006.546 0h.006c2.184-.074 4.115-.792 5.98-2.744.002-.003.005.003.007 0a7.5 7.5 0 0 0 1.557-.216q.072-.021.143-.044c.051-.015.105-.026.155-.043q.152-.048.291-.104c.004-.003.009.003.013 0 .92-.377 1.472-.99 2.072-1.766v-4.008a2 2 0 0 0-.037-.346c-.282-1.587-1.172-2.428-2.407-3.004a8 8 0 0 0-.466-.199c-.331-.13-.681-.243-1.048-.355-.178-.054-.362-.112-.546-.164h-.013q-.56-.158-1.154-.32c-1.67-.463-3.505-1.03-5.211-2.225l.012.017c-1.921-1.339-3.68-3.483-4.858-7.194l.007-.017c1.173 3.706 2.924 5.852 4.839 7.194 0 0-2.73-2.025-3.386-3.362-.658-1.343-1.845-4.346-1.845-4.346z"/>
    <line fill="none" y2="135.173" x2="92.352" y1="137.819" x1="92.345"/>
    <path fill="none" d="M115.92 132.55c-1.896-3.898-10.806-6.118-11.602-17.674-3.616.832-6.34.832-8.629 0-.796 11.556-9.706 13.776-11.601 17.674m31.831 0c2.374-.017 4.516-2.044 4.19-3.879-1.126-6.33-11.904-.814-15.791-13.795m-11.966 20.297c-3.172.385-5.775-.018-8.265-2.623m8.265 2.623c3.565 3.319 11.738 3.319 15.302 0m-23.567-2.623c-2.373-.017-4.515-2.044-4.189-3.879 1.125-6.33 11.904-.814 15.79-13.795m11.966 20.297c3.172.385 5.776-.018 8.265-2.622"/>
    <line fill="none" y2="135.173" x2="107.65" y1="137.819" x1="107.642"/>
    <path d="M94.383 98.559c2.581.87 8.644.87 11.225 0 .285-.096.527-.202.717-.319 1.619-.993 2.024-3.069 1.282-4.7-2.42.62-4.974.952-7.611.952-2.638 0-5.19-.332-7.611-.952-.743 1.631-.337 3.707 1.281 4.7.19.117.433.223.717.319z"/>
    <path d="M103.97 106.893c-1.908.75-6.041.75-7.948 0 .253 1.107.32 2.627.164 4.235h.002c2.336.799 5.28.799 7.615 0h.002c-.156-1.608-.089-3.128.164-4.235z"/>
    <path d="M104.52 103.64c-1.656 1.124-7.393 1.124-9.049 0-.721.86-.816 2.193 0 2.974q.23.154.55.28c1.908.75 6.04.75 7.948 0 .213-.084.399-.178.55-.28.817-.781.722-2.114 0-2.974z"/>
    <path d="M95.471 103.64c1.656 1.124 7.393 1.124 9.049 0 .02-1.22-.034-3.23 1.088-5.082-2.581.87-8.644.87-11.225 0 1.122 1.852 1.067 3.861 1.088 5.082z"/>
    <path d="M127.493 63.707c.426 1.772.576 3.293.576 5.181 0 14.138-12.571 25.604-28.073 25.604S71.923 83.026 71.923 68.888c0-1.986.206-3.753.676-5.609 8.198 2.508 17.846 3.955 28.171 3.955 9.723 0 18.846-1.283 26.723-3.527z"/>
    <path d="M92.385 93.54c-.743 1.63-.337 3.707 1.281 4.7 2.111 1.294 10.548 1.295 12.659 0 1.619-.993 2.024-3.07 1.281-4.7"/>
    <path d="M104.52 103.64c.72.86.816 2.193 0 2.974-1.656 1.123-7.393 1.123-9.049 0-.816-.781-.721-2.114 0-2.974"/>
    <path d="M95.471 103.64c1.656 1.124 7.393 1.124 9.049 0"/>
    <path d="M104.52 103.64c.72.86.816 2.193 0 2.974-1.656 1.123-7.393 1.123-9.049 0-.816-.781-.721-2.114 0-2.974"/>
    <path fill="none" d="M95.471 103.64c1.656 1.124 7.393 1.124 9.049 0"/>
    <path fill="none" d="M90.534 82.962c-.124-2.19-4.906-2.436-4.877-1.073.055 2.594.999 10.673 14.172 12.707"/>
    <path fill="none" d="M85.68 82.014c-.26-1.695-4.009-1.706-3.893-.584.084 2.3 1.454 11.592 18.042 13.166"/>
    <path fill="none" d="M99.829 94.596c-5.617-1.466-9.048-6.42-9.295-11.634-.102-2.137 5.344-1.723 5.274-.055"/>
    <path fill="none" d="M99.829 94.596c-16.108-.829-21.405-8.498-21.147-13.97.04-.865 2.947-.61 3.098.65"/>
    <path fill="none" d="M99.829 94.596c-4.017-5.074-4.256-10.404-3.982-11.967.222-1.268 7.742-1.268 7.964 0 .274 1.563.035 6.893-3.982 11.967"/>
    <path fill="none" d="M109.124 82.962c.124-2.19 4.906-2.436 4.877-1.073-.056 2.594-.999 10.673-14.172 12.707"/>
    <path fill="none" d="M113.978 82.014c.26-1.695 4.008-1.706 3.893-.584-.084 2.3-1.454 11.592-18.042 13.166"/>
    <path fill="none" d="M99.83 94.596c5.616-1.466 9.047-6.42 9.294-11.634.102-2.137-5.345-1.723-5.274-.055"/>
    <path fill="none" d="M99.83 94.596c16.106-.829 21.404-8.498 21.146-13.97-.04-.865-2.947-.61-3.098.65"/>
    <path fill="none" d="M120.965 81.437c-.096-2.24 4.503-1.908 3.87-.626-1.81 3.523-10.009 13.938-24.945 13.665"/>
    <path fill="none" d="M92.352 135.173c4.082-6.399 5.595-10.12 6.038-19.719"/>
    <line fill="none" y2="132.55" x2="84.087" y1="135.196" x1="84.08"/>
    <line fill="none" y2="132.55" x2="84.087" y1="135.196" x1="84.08"/>
    <path fill="none" d="M107.639 135.173c-4.082-6.399-5.595-10.12-6.037-19.719a10.4 10.4 0 0 0 2.7-.579c.797 11.556 9.706 13.777 11.602 17.675-2.49 2.605-5.093 3.007-8.265 2.623z"/>
    <line fill="none" y2="132.55" x2="115.916" y1="135.196" x1="115.907"/>
    <line fill="none" y2="132.55" x2="115.916" y1="135.196" x1="115.907"/>
    <path fill="none" d="M92.352 135.173c4.082-6.399 5.637-10.207 6.079-19.805"/>
    <path d="M95.582 115.09c2.86 1.054 5.816 1.054 8.583 0 1.436-.583 1.147-4.413-.496-4.253h-.002c-2.327.906-5.26.906-7.587 0h-.003c-1.643-.16-1.932 3.67-.495 4.253z"/>
    <path d="M127.522 63.673c0 2.005-12.319 3.631-27.515 3.631s-27.514-1.626-27.514-3.631 12.318-3.632 27.514-3.632 27.515 1.626 27.515 3.632z"/>
    <path fill="none" d="M78.683 81.52c.096-2.24-4.208-2.08-3.575-.798 1.25 2.871 9.419 13.938 24.68 13.837"/>
    <path d="M125.816 63.528c0 1.605-11.485 2.905-25.652 2.905s-25.651-1.3-25.651-2.905 11.484-2.905 25.651-2.905 25.652 1.3 25.652 2.905z"/>
  </g>
</svg>
