<svg xmlns="http://www.w3.org/2000/svg" fill="#d7374a" stroke="#000" viewBox="50 50 200 200">
  <metadata source="https://wappenwiki.org/index.php/File:Wettin_Sachsen.svg" license="https://creativecommons.org/licenses/by-nc-sa/3.0"/>
  <g id="crancelin" stroke-width=".336">
    <g stroke-linejoin="round">
      <path stroke="none" d="m181.791 98.914-2.58-2.45c-.796.783-1.896 1.259-3.163 1.259-2.584 0-4.49-2.013-4.49-4.49h-1.093c0 2.477-1.906 4.49-4.49 4.49s-4.49-2.013-4.49-4.49h-1.236c0 2.477-1.906 4.49-4.49 4.49s-4.49-2.013-4.49-4.49h-1.093c0 2.477-1.906 4.49-4.49 4.49s-4.49-2.013-4.49-4.49h-1.236c0 2.477-1.906 4.49-4.49 4.49s-4.49-2.013-4.49-4.49h-1.093c0 2.477-1.906 4.49-4.49 4.49s-4.49-2.013-4.49-4.49h-1.236c0 2.477-1.906 4.49-4.49 4.49s-4.49-2.013-4.49-4.49h-1.093c0 2.477-1.906 4.49-4.49 4.49s-4.49-2.013-4.49-4.49h-1.236c0 2.477-1.906 4.49-4.49 4.49s-4.49-2.013-4.49-4.49h-1.093c0 2.477-1.906 4.49-4.49 4.49s-4.49-2.013-4.49-4.49h-1.236c0 2.477-1.906 4.49-4.49 4.49s-4.49-2.013-4.49-4.49H69.02c0 2.477-1.906 4.49-4.49 4.49s-4.49-2.013-4.49-4.49h-1.236c0 2.477-1.906 4.49-4.49 4.49s-4.49-2.013-4.49-4.49h-1.093c0 2.477-1.906 4.49-4.49 4.49s-4.49-2.013-4.49-4.49h-1.236c0 2.477-1.906 4.49-4.49 4.49s-4.49-2.013-4.49-4.49h-1.093c0 2.477-1.906 4.49-4.49 4.49-1.267 0-2.367-.476-3.163-1.259l-2.58 2.45v10.426h163.582z"/>
      <path fill="none" d="M179.207 96.464c-.796.783-1.896 1.259-3.163 1.259-2.584 0-4.49-2.013-4.49-4.49h-1.093c0 2.477-1.906 4.49-4.49 4.49s-4.49-2.013-4.49-4.49h-1.236c0 2.477-1.906 4.49-4.49 4.49s-4.49-2.013-4.49-4.49h-1.093c0 2.477-1.906 4.49-4.49 4.49s-4.49-2.013-4.49-4.49h-1.236c0 2.477-1.906 4.49-4.49 4.49s-4.49-2.013-4.49-4.49h-1.093c0 2.477-1.906 4.49-4.49 4.49s-4.49-2.013-4.49-4.49h-1.236c0 2.477-1.906 4.49-4.49 4.49s-4.49-2.013-4.49-4.49h-1.093c0 2.477-1.906 4.49-4.49 4.49s-4.49-2.013-4.49-4.49h-1.236c0 2.477-1.906 4.49-4.49 4.49s-4.49-2.013-4.49-4.49h-1.093c0 2.477-1.906 4.49-4.49 4.49s-4.49-2.013-4.49-4.49h-1.236c0 2.477-1.906 4.49-4.49 4.49s-4.49-2.013-4.49-4.49h-1.093c0 2.477-1.906 4.49-4.49 4.49s-4.49-2.013-4.49-4.49H58.8c0 2.477-1.906 4.49-4.49 4.49s-4.49-2.013-4.49-4.49h-1.093c0 2.477-1.906 4.49-4.49 4.49s-4.49-2.013-4.49-4.49h-1.236c0 2.477-1.906 4.49-4.49 4.49s-4.49-2.013-4.49-4.49h-1.093c0 2.477-1.906 4.49-4.49 4.49-1.267 0-2.367-.476-3.163-1.259"/>
      <g>
        <path d="M38.278 91.956c2.036 0 3.042-2.1 4.524-2.1 2.036 0 1.644 1.975 1.644 2.491s.392 2.491-1.644 2.491c-1.466 0-2.472-2.1-4.524-2.1"/>
        <path d="M39.982 91.956c-2.036 0-3.042-2.1-4.524-2.1-2.036 0-1.644 1.975-1.644 2.491s-.392 2.491 1.644 2.491c1.466 0 2.472-2.1 4.524-2.1"/>
        <path d="M38.638 92.716c0-1.949-2.44-2.9-2.44-4.294 0-1.931 2.333-1.584 2.931-1.584s2.931-.347 2.931 1.584c0 1.394-2.44 2.345-2.44 4.294"/>
        <circle cx="39.129" cy="92.347" r="1.6"/>
      </g>
      <g>
        <path d="M58.567 91.956c2.036 0 3.042-2.1 4.524-2.1 2.036 0 1.644 1.975 1.644 2.491s.392 2.491-1.644 2.491c-1.466 0-2.472-2.1-4.524-2.1"/>
        <path d="M60.271 91.956c-2.036 0-3.042-2.1-4.524-2.1-2.036 0-1.644 1.975-1.644 2.491s-.392 2.491 1.644 2.491c1.466 0 2.472-2.1 4.524-2.1"/>
        <path d="M58.927 92.716c0-1.949-2.44-2.9-2.44-4.294 0-1.931 2.333-1.584 2.931-1.584s2.931-.347 2.931 1.584c0 1.394-2.44 2.345-2.44 4.294"/>
        <circle cx="59.418" cy="92.347" r="1.6"/>
      </g>
      <g>
        <path d="M78.856 91.956c2.036 0 3.042-2.1 4.524-2.1 2.036 0 1.644 1.975 1.644 2.491s.392 2.491-1.644 2.491c-1.466 0-2.472-2.1-4.524-2.1"/>
        <path d="M80.56 91.956c-2.036 0-3.042-2.1-4.524-2.1-2.036 0-1.644 1.975-1.644 2.491s-.392 2.491 1.644 2.491c1.466 0 2.472-2.1 4.524-2.1"/>
        <path d="M79.216 92.716c0-1.949-2.44-2.9-2.44-4.294 0-1.931 2.333-1.584 2.931-1.584s2.931-.347 2.931 1.584c0 1.394-2.44 2.345-2.44 4.294"/>
        <circle cx="79.707" cy="92.347" r="1.6"/>
      </g>
      <g>
        <path d="M99.145 91.956c2.036 0 3.042-2.1 4.524-2.1 2.036 0 1.644 1.975 1.644 2.491s.392 2.491-1.644 2.491c-1.466 0-2.472-2.1-4.524-2.1"/>
        <path d="M100.849 91.956c-2.036 0-3.042-2.1-4.524-2.1-2.036 0-1.644 1.975-1.644 2.491s-.392 2.491 1.644 2.491c1.466 0 2.472-2.1 4.524-2.1"/>
        <path d="M99.505 92.716c0-1.949-2.44-2.9-2.44-4.294 0-1.931 2.333-1.584 2.931-1.584s2.931-.347 2.931 1.584c0 1.394-2.44 2.345-2.44 4.294"/>
        <circle cx="99.996" cy="92.347" r="1.6"/>
      </g>
      <g>
        <path d="M119.434 91.956c2.036 0 3.042-2.1 4.524-2.1 2.036 0 1.644 1.975 1.644 2.491s.392 2.491-1.644 2.491c-1.466 0-2.472-2.1-4.524-2.1"/>
        <path d="M121.138 91.956c-2.036 0-3.042-2.1-4.524-2.1-2.036 0-1.644 1.975-1.644 2.491s-.392 2.491 1.644 2.491c1.466 0 2.472-2.1 4.524-2.1"/>
        <path d="M119.794 92.716c0-1.949-2.44-2.9-2.44-4.294 0-1.931 2.333-1.584 2.931-1.584s2.931-.347 2.931 1.584c0 1.394-2.44 2.345-2.44 4.294"/>
        <circle cx="120.285" cy="92.347" r="1.6"/>
      </g>
      <g>
        <path d="M139.723 91.956c2.036 0 3.042-2.1 4.524-2.1 2.036 0 1.644 1.975 1.644 2.491s.392 2.491-1.644 2.491c-1.466 0-2.472-2.1-4.524-2.1"/>
        <path d="M141.427 91.956c-2.036 0-3.042-2.1-4.524-2.1-2.036 0-1.644 1.975-1.644 2.491s-.392 2.491 1.644 2.491c1.466 0 2.472-2.1 4.524-2.1"/>
        <path d="M140.083 92.716c0-1.949-2.44-2.9-2.44-4.294 0-1.931 2.333-1.584 2.931-1.584s2.931-.347 2.931 1.584c0 1.394-2.44 2.345-2.44 4.294"/>
        <circle cx="140.574" cy="92.347" r="1.6"/>
      </g>
      <g>
        <path d="M160.012 91.956c2.036 0 3.042-2.1 4.524-2.1 2.036 0 1.644 1.975 1.644 2.491s.392 2.491-1.644 2.491c-1.466 0-2.472-2.1-4.524-2.1"/>
        <path d="M161.716 91.956c-2.036 0-3.042-2.1-4.524-2.1-2.036 0-1.644 1.975-1.644 2.491s-.392 2.491 1.644 2.491c1.466 0 2.472-2.1 4.524-2.1"/>
        <path d="M160.372 92.716c0-1.949-2.44-2.9-2.44-4.294 0-1.931 2.333-1.584 2.931-1.584s2.931-.347 2.931 1.584c0 1.394-2.44 2.345-2.44 4.294"/>
        <circle cx="160.863" cy="92.347" r="1.6"/>
      </g>
      <circle cx="28.984" cy="92.92" r="1.9"/>
      <circle cx="49.273" cy="92.92" r="1.9"/>
      <circle cx="69.562" cy="92.92" r="1.9"/>
      <circle cx="89.851" cy="92.92" r="1.9"/>
      <circle cx="110.14" cy="92.92" r="1.9"/>
      <circle cx="130.429" cy="92.92" r="1.9"/>
      <circle cx="150.718" cy="92.92" r="1.9"/>
      <circle cx="171.007" cy="92.92" r="1.9"/>
    </g>
    <g>
      <path d="M18.209 98.914h163.582"/>
      <path d="M18.209 101.156h163.582"/>
      <path d="M18.209 107.198h163.582"/>
      <path d="M18.209 109.34h163.582"/>
    </g>
  </g>
</svg>
