<svg xmlns="http://www.w3.org/2000/svg" fill="#d7374a" stroke="#000" viewBox="50 50 200 200">
  <metadata author="Azgaar" license="https://creativecommons.org/publicdomain/zero/1.0"/>
  <g id="crossClechy" stroke-width=".5">
    <path d="M 96.9,103.1 c 0,9 -5,19 -9.9,23.9 5,2 11,8 13,15 2,-7 8,-13 13,-15 -5,-5 -10,-15 -9.9,-23.9 9,0 19,5 23.9,9.9 2,-5 8,-11 15,-13 -7,-2 -13,-8 -15,-13 -5,5 -15,10 -23.9,9.9 0,-9 5,-19 9.9,-23.9 -5,-2 -11,-8 -13,-15 -2,7 -8,13 -13,15 5,5 10,15 9.9,23.9 -9,0 -19,-5 -23.9,-9.9 -2,5 -8,11 -15,13 7,2 13,8 15,13 5,-5 15,-10 23.9,-9.9 z"/>
  </g>
</svg>
