<svg xmlns="http://www.w3.org/2000/svg" fill="#d7374a" stroke="#000" viewBox="50 50 200 200">
  <metadata author="Azgaar" license="https://creativecommons.org/publicdomain/zero/1.0"/>
  <g id="crossSantiago" stroke-width=".5">
    <path d="M100 148s3.84-26.43 9-46c-5 0-6.3-6-6.3-11h9.3c1.7 0 3.8 1.45 3.8 3.16 0 1.4-1.38 2.38-2.58 2.38-1.72 0-2.89-.83-2.89-.83 0 4.5 2.74 6.61 5.82 6.61 3.52 0 6.64-2 6.64-5.64 0-3.32-2.67-4.77-2.67-4.77l1 .07c5.11 0 8.88-3.98 8.88-3.98s-3.78-3.54-8.88-3.54l-1 .07s2.67-1.45 2.67-4.77c0-3.65-3.12-5.65-6.64-5.65-3.07 0-5.82 2.11-5.82 6.61 0 0 1.17-.83 2.89-.83 1.21 0 2.58.99 2.58 2.39 0 1.71-2.1 2.72-3.8 2.72h-9.3c0-7 1.3-11 1.3-11 4 3 8-1 8-4 0-6-8-6-12-12-4 6-12 6-12 12 0 3 4 7 8 4 0 0 1.3 4 1.3 11h-9.3c-1.7 0-3.8-1.01-3.8-2.72 0-1.4 1.37-2.39 2.58-2.39 1.72 0 2.89.83 2.89.83 0-4.5-2.75-6.61-5.82-6.61-3.52 0-6.64 2-6.64 5.65 0 3.32 2.67 4.77 2.67 4.77l-1-.07c-5.02 0-8.88 3.54-8.88 3.54s3.77 3.98 8.88 3.98l1-.07s-2.67 1.45-2.67 4.77c0 3.64 3.12 5.64 6.64 5.64 3.08 0 5.82-2.11 5.82-6.61 0 0-1.17.83-2.89.83-1.2 0-2.58-.98-2.58-2.38 0-1.71 2.1-3.16 3.8-3.16h9.3c0 5-1.3 11-6.3 11 5.16 19.57 9 46 9 46z"/>
  </g>
</svg>
