<svg xmlns="http://www.w3.org/2000/svg" fill="#d7374a" stroke="#000" viewBox="50 50 200 200">
  <metadata author="Azgaar" license="https://creativecommons.org/publicdomain/zero/1.0"/>
  <g id="crossTriquetra" stroke-width=".5">
    <path d="M63 126A37.5 37.5 0 0187 97.15 37.5 37.5 0 01100 62a37.5 37.5 0 0113 35.15 37.5 37.5 0 0124 28.85 37.5 37.5 0 01-37-6.45 37.5 37.5 0 01-37 6.45zM70.6 121.6A31.4 31.4 0 0095.5 115.2 37.5 37.5 0 0188.6 103.3 31.4 31.4 0 0070.6 121.6zM129.4 121.6A31.4 31.4 0 00112.4 103.3 37.5 37.5 0 01104.5 115.2 31.4 31.4 0 00129.4 121.6zM100 110.8a32.1 32.1 0 005.3-9.1 31.4 31.4 0 00-10.6 0 31.4 31.4 0 005.3 9.1zM100 70.8a31.4 31.4 0 00-6.9 24.8a37.5 37.5 0 0113.8 0 31.4 31.4 0 00-6.9 -24.8z"/>
    <path fill="none" d="M88.6 103.3a37.5 37.5 0 01-1.6-6.15m6.1-1.55a31.4 31.4 0 001.6 6.1"/>
    <path fill="none" d="M106.9 95.6a37.5 37.5 0 016.1 1.55m-.6 6.15a31.4 31.4 0 00-7.1-1.6"/>
    <path fill="none" d="M95.5 115.2a31.4 31.4 0 004.5-4.4m4.5 4.4a37.5 37.5 0 01-4.5 4.35"/>
 </g>
</svg>
