<svg xmlns="http://www.w3.org/2000/svg" fill="#d7374a" stroke="#000" viewBox="50 50 200 200">
  <metadata author="Azgaar" license="https://creativecommons.org/publicdomain/zero/1.0"/>
  <g id="crossBottony" stroke-width=".5">
    <path d="M78.6 95.75a5.5 5.5 0 10-9.7-.4 5.5 5.5 0 100 9.3 5.5 5.5 0 109.7-.4h17.15v17.15a5.5 5.5 0 10-.4 9.7 5.5 5.5 0 109.3 0 5.5 5.5 0 10-.4-9.7v-17.15h17.15a5.5 5.5 0 109.7.4 5.5 5.5 0 100-9.3 5.5 5.5 0 10-9.7.4h-17.15v-17.15a5.5 5.5 0 10.4-9.7 5.5 5.5 0 10-9.3 0 5.5 5.5 0 10.4 9.7v17.15z"/>
  </g>
</svg>
