<svg xmlns="http://www.w3.org/2000/svg" fill="#d7374a" stroke="#000" viewBox="50 50 200 200">
  <metadata author="Azgaar" license="https://creativecommons.org/publicdomain/zero/1.0"/>
  <g id="crossCeltic2" stroke-width=".5">
    <path d="M100 60a39.37 39.37 0 00-14.2 2.7l2.1 7.8a32 32 0 00-17.4 17.4l-7.8-2.1a39.37 39.37 0 00-2.7 14.2 39.37 39.37 0 002.7 14.2l7.8-2.1a32 32 0 0017.4 17.4l-2.1 7.8a39.37 39.37 0 0014.2 2.7 39.37 39.37 0 0014.2-2.7l-2.1-7.8a32 32 0 0017.4-17.4l7.8 2.1a39.37 39.37 0 002.7-14.2 39.37 39.37 0 00-2.7-14.2l-7.8 2.1a32 32 0 00-17.4-17.4l2.1-7.8a39.37 39.37 0 00-14.2-2.7zM110 78.2c5.2 2.4 9.2 6.4 11.75 11.75l-11.35 2.9a4 4 0 11-3.3-3.3l2.9 -11.35zm-20 0l2.9 11.35a4 4 0 11-3.3 3.3l-11.35-2.9c2.4-5.2 6.4-9.2 11.75-11.75zm0 43.6c-5.2-2.4-9.2-6.4-11.75-11.75l11.35-2.9a4 4 0 11 3.3 3.3l-2.9 11.35zm20 0l-2.9-11.35a4 4 0 113.3-3.3l11.35 2.9c-2.4 5.2-6.4 9.2-11.75 11.75z"/>
  </g>
</svg>
