<svg xmlns="http://www.w3.org/2000/svg" fill="#d7374a" stroke="#000" viewBox="50 50 200 200">
  <metadata author="Azgaar" license="https://creativecommons.org/publicdomain/zero/1.0"/>
  <g id="crossCercelee" stroke-width=".5">
    <path d="M133 100c3.59-.26 6.43-4.77 6.43-10.24 0-5.65-3.02-10.24-6.73-10.24h-5.73c2.36 0 4.28 3.24 4.28 7.26 0 4.03-1.92 7.26-4.28 7.26h-21.01v-21.01c0-2.36 3.24-4.28 7.26-4.28s7.26 1.92 7.26 4.28v-5.73c0-3.72-4.59-6.74-10.24-6.73-5.47 0-9.95 2.84-10.24 6.43-.26-3.59-4.77-6.43-10.24-6.43-5.64 0-10.23 3.02-10.24 6.73v5.73c0-2.36 3.24-4.29 7.26-4.29s7.26 1.93 7.26 4.29v21.01h-21.01c-2.36 0-4.28-3.28-4.28-7.26s1.92-7.26 4.28-7.26h-5.73c-3.72 0-6.73 4.59-6.73 10.24 0 5.47 2.84 9.98 6.43 10.24-3.59.26-6.43 4.77-6.43 10.24 0 5.65 3.02 10.24 6.73 10.24h5.73c-2.36 0-4.28-3.24-4.28-7.26 0-4.03 1.92-7.26 4.28-7.26h21.01v21.01c0 2.36-3.28 4.29-7.26 4.28s-7.26-1.93-7.26-4.28v5.73c0 3.72 4.59 6.74 10.24 6.73 5.47 0 9.95-2.84 10.24-6.43.26 3.59 4.77 6.43 10.24 6.43 5.64 0 10.23-3.02 10.24-6.73v-5.73c0 2.36-3.24 4.29-7.26 4.29s-7.26-1.93-7.26-4.29v-21.01 h21.01c2.36 0 4.28 3.28 4.28 7.26s-1.92 7.26-4.28 7.26h5.73c3.72 0 6.73-4.59 6.73-10.24 0-5.47-2.84-9.98-6.43-10.24z"/>
  </g>
</svg>
