<svg xmlns="http://www.w3.org/2000/svg" fill="#d7374a" stroke="#000" viewBox="50 50 200 200">
  <metadata author="Azgaar" license="https://creativecommons.org/publicdomain/zero/1.0"/>
  <g id="crossFleury" stroke-width=".5">
    <path d="M95.2 125.8a2.6 2.6 0 01-2.6 2.6 2.6 2.6 0 01-2.6-2.6 4.8 4.8 0 00-1.7 3.7 4.8 4.8 0 004.8 4.8 4.8 4.8 0 003-1.1 7.8 7.8 0 003.9 6.8 7.8 7.8 0 003.9-6.8 4.8 4.8 0 003 1.1 4.8 4.8 0 004.8-4.8 4.8 4.8 0 00-1.7-3.7 2.6 2.6 0 01-2.6 2.6 2.6 2.6 0 01-2.6-2.6v-21h21a2.6 2.6 0 012.6 2.6 2.6 2.6 0 01-2.6 2.6 4.8 4.8 0 003.7 1.7 4.8 4.8 0 004.8-4.8 4.8 4.8 0 00-1.1-3 7.8 7.8 0 006.8-3.9 7.8 7.8 0 00-6.8-3.9 4.8 4.8 0 001.1-3 4.8 4.8 0 00-4.8-4.8 4.8 4.8 0 00-3.7 1.7 2.6 2.6 0 012.6 2.6 2.6 2.6 0 01-2.6 2.6h-21v-21a2.6 2.6 0 012.6-2.6 2.6 2.6 0 012.6 2.6 4.8 4.8 0 001.7-3.7 4.8 4.8 0 00-4.8-4.8 4.8 4.8 0 00-3 1.1A7.8 7.8 0 00100 60a7.8 7.8 0 00-3.9 6.8 4.8 4.8 0 00-3-1.1 4.8 4.8 0 00-4.8 4.8 4.8 4.8 0 001.7 3.7 2.6 2.6 0 012.6-2.6 2.6 2.6 0 012.6 2.6v21h-21a2.6 2.6 0 01-2.6-2.6 2.6 2.6 0 012.6-2.6 4.8 4.8 0 00-3.7-1.7 4.8 4.8 0 00-4.8 4.8 4.8 4.8 0 001.1 3A7.8 7.8 0 0060 100a7.8 7.8 0 006.8 3.9 4.8 4.8 0 00-1.1 3 4.8 4.8 0 004.8 4.8 4.8 4.8 0 003.7-1.7 2.6 2.6 0 01-2.6-2.6 2.6 2.6 0 012.6-2.6h21z"/>
  </g>
</svg>
