<svg xmlns="http://www.w3.org/2000/svg" fill="#d7374a" stroke="#000" viewBox="50 50 200 200">
  <metadata author="Jacques63" source="https://commons.wikimedia.org/wiki/File:Ermite.svg" license="https://creativecommons.org/licenses/by-sa/4.0"/>
  <g id="hermit" stroke-width=".292">
    <g stroke-width=".569" stroke-linejoin="round">
      <path fill="#eabfa2" d="M97.805 135.084s-.245.226-.893.479q-.159.062-.313.131s.119-.893-.596-1.468l.217-.323 1.812.935z"/>
      <path fill="#eabfa2" d="M91.011 136.085c.16-.666 1.092-1.227 1.092-1.227 2.393-.788 2.565 1.946 2.565 1.946l-.128.084c-1.088.71-2.834 1.537-3.137.673-.238-.677-.3-.4-.408-1.187a.8.8 0 0 1 .016-.289z"/>
      <path fill="#eabfa2" d="M96.003 134.226a10 10 0 0 0-1.862-.53s-1.473.301-2.038 1.162c2.393-.789 2.565 1.946 2.565 1.946l-.128.083c-1.088.71-2.834 1.538-3.137.673-.238-.676-.3-.4-.408-1.186a.8.8 0 0 1 .016-.289s-.181.365-.19.634c-.01.268.267 1.436 1.099 1.576s1.591-.355 2.54-.975c.95-.618 1.433-1.076 2.256-1.343.624-.202 1.431-.749 1.431-.749q-.173-.07-.342-.144s-.245.226-.893.479q-.159.062-.313.13s.119-.892-.596-1.467z"/>
      <path stroke-linecap="round" d="M94.668 136.804c.735-.477 1.323-.838 1.93-1.11"/>
    </g>
    <g stroke-width=".569" stroke-linejoin="round">
      <path fill="#eabfa2" d="M102.84 135.471s.157.267.706.66q.134.096.26.198s.22-.844 1.147-1.19l-.093-.349-2.152.4z"/>
      <path fill="#eabfa2" d="M109.206 138.083c.093-.648-.62-1.393-.62-1.393-2.077-1.317-3.282 1.134-3.282 1.134l.095.108c.812.92 2.232 2.111 2.86 1.398.492-.557.45-.29.854-.98a.7.7 0 0 0 .093-.267z"/>
      <path fill="#eabfa2" d="M104.953 135.14a12 12 0 0 1 2.05-.018s1.348.642 1.583 1.568c-2.077-1.317-3.283 1.134-3.283 1.134l.096.108c.812.92 2.232 2.111 2.86 1.398.492-.557.449-.29.854-.98a.7.7 0 0 0 .093-.267s.042.378-.05.625c-.091.247-.809 1.243-1.688 1.163s-1.445-.722-2.153-1.524-1.016-1.34-1.731-1.789c-.543-.34-1.139-1.041-1.139-1.041q.199-.02.395-.046s.158.267.706.66q.134.096.26.198s.22-.844 1.147-1.19z"/>
      <path stroke-linecap="round" d="M105.303 137.824c-.549-.619-.996-1.095-1.496-1.495"/>
    </g>
    <g stroke-linejoin="round" stroke-linecap="round">
      <path d="M110.444 120.664c0 7.077.974 11.671 1.677 13.203.703 1.531-.541 2.218-3.625 1.637-3.084-.58-4.545-.475-5.843 0s-3.084.106-4.49-.317c-3.506-1.052-6.71 0-8.224.264s-1.028-1.531-.487-2.746c.54-1.215 3.181-29.561 2.296-36.37.15-.738.372-1.891.565-3.629-1.953 14.94-6.298 11.883-7.749 8.47-2.853-9.874.222-15.537 1.944-18.327 1.64-2.657 1.172 1.19 1.902-1.346.73-2.534 7.284-6.812 7.284-6.812-.493-.244-.753-.7-.258-.89.854-.328 1.602.3 5.474.257s4.604-.687 5.466-.378c.425.152.307.51-.037.77 0 0 1.041.538 2.238 1.706 1.197 1.169 2.605.911 4.058 3.526 1.623 2.92.59 5.832 2.353 8.714 1.745 2.851 2.174 3.094 1.461 7.241-.373 2.17-1.373 5.017-2.556 7.493-1.078 2.256-2.34 4.443-3.175 5.459 0 0-.274 6.556-.274 12.075"/>
      <path d="M95.694 74.69c.2.1.437.163.678.16"/>
      <path d="M105.464 74.75c.33-.003.65-.131.875-.3"/>
      <path d="M92.413 94.91c-.754 1.025.848 12.379.28 12.379"/>
      <path d="M110.78 99.492c0 4.722-.166 9.688-.783 9.688-1.42 0-1.907-18.052-.243-18.052 1.055 0 1.026 4.08 1.026 8.364"/>
      <path d="M88.647 91.689c.735 5.951-.948 10.823-1.565 10.832-3.413.05-4.602-19.465-.487-19.488.771 0 1.498 4.17 2.052 8.656"/>
      <path d="M110.718 108.589c-.308.375-.559.59-.72.59"/>
      <path d="M88.236 82.206c.386-1.215 1.27-2.208 4.84-.861 3.572 1.347 5.6 2.139 8.684 2.139s5.762-.713 7.142-2.06 3.211-1.506 4.295-.447"/>
      <path d="M109.632 85.306s.244 3.248.122 5.822c0 0 1.435-.443 2.773.014 1.623.554 1.826 2.442 2.028 2.244.311-.304-.216-1.482.92-1.241"/>
      <path d="M89.38 81.6s2.723.393 2.37 1.494c-.101.317.736 3.715.563 9.612"/>
      <path d="M95.998 102.813s.568 9.823.568 16.081c0 6.259.65 8.635.65 12.913"/>
      <path d="M101.922 90.138s.406 9.665.812 14.18 1.38 15.29 1.542 23.607"/>
      <path d="M104.919 94.37s.06 4.06 1.142 6.7 1.592 8.954 1.461 12.992c-.135 4.172-.108 5.55 0 6.575"/>
      <path d="M92.435 96.736s6.106.809 8.08.809c3.842 0 6.928-.79 8.246-1.702"/>
      <path d="M100.515 98.557s-.364-2.363-.902-1.858c-.537.506.231.403-.207.815-.439.413.329.31-.208.815-.538.505-.902-1.858-.902-1.858"/>
      <circle cx="99.406" cy="97.514" r=".37"/>
    </g>
    <path class="tertiary" d="M106.572 72.02c-1.785 17.598-3.335 50.163-6.325 67.56l.956.033c3.713-25.06 5.183-49.962 7.363-67.56-.583-.332-1.324-.61-1.994-.033z"/>
    <g stroke-linejoin="round" stroke-linecap="round">
      <path fill="#eabfa2" d="M110.326 91.907s-.794-.318-1.498-1.434c-.705-1.116-1.259-1.813-2.542-1.597-1.023.173-1.912.101-1.72 1.079 0 0-.487.486-.098.962 0 0-.575.444-.087 1.042 0 0-.702.672.373 1.322-.425-.572 1.183-.619 1.392-.46s.79.558 1.405 1.024c.613.466 1.598.237 1.598.237.136-.046.372.35 1.522.8.134-.991.048-1.983-.345-2.975"/>
      <path d="M105.792 91.659s-.78.218-1.411.3"/>
      <path d="M105.861 90.663s-.582.287-1.393.253"/>
      <path d="M105.963 89.737s-.745.33-1.397.218"/>
    </g>
    <path fill="#eabfa2" d="M86.165 75.545a.6.6 0 0 0-.122.02c-.382.096-.479.464-.482 1.857-.002 1.097-.016 1.202-.13 1.049-.408-.548-.607-.602-.914-.253a11 11 0 0 1-.465.481c-.335.326-.355.618-.115 1.587.09.36.186 1.058.217 1.55.063 1.022.219 1.657.485 1.995l.184.237-.151 1.049c-.09.622-.588 5.78-.392 6.393 1.286 4.02 2.779 4.627 3.484-.376.004-.177-.254-6.143-.416-6.393-.213-.328.05-.76.55-1.57.34-.55.405-.758.686-2.09.172-.81.3-1.558.286-1.66-.02-.14-.094-.192-.306-.212-.225-.022-.338.032-.575.27l-.294.293v-1.734c0-1.853-.053-2.132-.4-2.22-.268-.067-.441.014-.534.245-.056.14-.078.153-.082.05-.003-.08-.095-.25-.204-.376-.12-.14-.2-.194-.31-.192z"/>
    <path fill="none" d="m86.71 76.253-.1 3.56"/>
    <path fill="none" d="M84.253 78.61s.489.465.676.742c.17.253.405.509.346.808-.03.153-.207.2-.363.198-.299-.006-.577-.495-.577-.495"/>
    <path fill="none" d="M85.539 78.594s.36.67.379 1.038a.43.43 0 0 1-.132.359c-.12.105-.536-.025-.536-.025"/>
    <path fill="none" d="M87.674 79.913s-.299.669-.33 1.055c-.287.09-.565.163-.8.362-.318.27-.527 1.138-.527 1.138"/>
    <g stroke-width=".163">
      <path fill="#eabfa2" d="M98.144 65.337c-.934.163-.389 3.616-.318 3.616.008.326-.886 1.497-.455 1.761.3.363-.555 1.7-.08 2.133.472.935 2.393.173 2.817.278.381-.44.583-.3 1.052-.324.498.067.838.18.913.37.75.105 1.437-.247 1.765-.417.316-.507.557-2.282.714-2.642.12-.283-.261-.565-.158-1.159.097-1.495.573-2.114-.377-3.986-1.85-.116-2.112-3.013-5.873.37z"/>
      <path fill="none" d="M99.18 68.576c.397-.005.79.081 1.272-.419"/>
      <path fill="none" d="M102.138 68.235c.374.345.673.561 1.207.38"/>
      <g>
        <path fill="#f6f6f6" d="M98.68 67.674c.677-.476 1.207-.473 1.726.163-.47.4-1 .468-1.726-.163z"/>
        <path fill="#000" opacity=".88" d="M99.887 67.772c0 .2-.139.362-.31.362s-.31-.162-.31-.362.139-.362.31-.362.31.162.31.362z"/>
        <path stroke-linecap="round" d="M99.47 67.657c.026.19.035.215.135.276"/>
      </g>
      <g>
        <path fill="#f6f6f6" d="M102.192 67.931c.407-.66.917-.67 1.587-.232-.404.57-1.067.77-1.587.232z"/>
        <path fill="#000" opacity=".88" d="M102.655 67.86c0 .2.14.362.31.362.171 0 .31-.162.31-.361 0-.2-.139-.362-.31-.362s-.31.162-.31.362z"/>
        <path stroke-linecap="round" d="M103.093 67.718c-.026.19-.035.215-.134.276"/>
      </g>
      <path class="secondary" d="M100.2 66.457a1.8 1.8 0 0 0 .029-.404c.345.431.47.873.267 1.29a.37.37 0 0 0-.29-.241c-.4.025-.799.163-1.198-.038.115-.03.269-.042.328-.099-.436-.15-.985-.038-1.487-.032-.245-.043-.303-.13-.294-.23.008-.082.064-.096.331-.311.298-.02.606-.02.893-.066.148-.02.271-.04.407-.06.362.036.709.232 1.015.191z"/>
      <path class="secondary" d="M102.658 66.441c-.06.085-.203.17-.187.295.443-.108 1.032-.285 1.216-.262.16-.021.758.076 1.137.114l-.01.547c-.562.04-1.123.094-1.697-.05.02.13.112.111.177.148-.398.144-.84.115-1.314-.033-.049.061-.068.157-.093.246-.099-.558.092-.935.771-1.005z"/>
      <path class="secondary" d="M99.15 59.94c-.06.55-.389 1.026-1.08 1.251.327-.487.36-.747.342-1.06-.339 1.203-1.113 1.146-1.598 1.72-.055-.284.022-.526.101-.767-.201.176-.226.503-.244.836-.143-.185-.119-.418-.145-.67-.537.507-.385 1.094-.324 1.672-.228-.216-.437-.473-.432-1.16-.242.47.005.952.407 1.438-.229-.033-.506-.038-.759-.057.272.093.559.198.784.25-.425.078-.656.232-.871.456.328-.142.652-.323 1.004-.284-.395.204-.654.378-.813.911.172-.118.382-.283.494-.238-.181.603-.684.655-1.054.934.25.015.509.034.674.007-.416.647-.822.681-1.246.785.209.078.443.097.697.09-.237.272-.452.559-.517.947.124-.162.246-.326.444-.402-.423.797-.325 1.258-.292 1.761.072-.563.116-1.317.27-1.307-.015.649-.268 1.44.199 1.937-.102-.807-.011-1.115.117-1.137.192.83.2 1.722-.017 2.143.119-.168.238-.288.357-.369-.162.746-.086 1.113-.089 1.605.252-1.013.333-.944.442-1.054.202.556-.956 1.95 0 2.182-.415-.389.014-.965.256-.879.114.429-.009 1.164-.072 1.136.016.019-.49.472-.637.534.118-.028.544-.123.53-.114.087.834-1.41.996-.708.339-.816.194-.542 1.222-.065 1.35-.26-.058-.505.018-.848-.82.008.412.222 1.21 1.297 1.16-.467.859-.31 1.513-.095 1.692-.113-1.004.284-1.157.413-1.321-.049.703.164 1.535.098 1.717-.324.7-.859.784-1.36.838.722.205 1.068-.015 1.358-.3.035.54-.264.952-.5 1.228.67-.23.747-.536 1.003-.819-.033.882.596 1.557 1.145 1.67-.389-.237-.698-.55-.814-1.048.224.334.456.476.692.52-.661-.626-.193-1.061 0-1.162.032.931.46 1.334.732 1.558a.8.8 0 0 1-.018-.298c.116.054.217.257.188.524-.13.353-.332.95-.963.636.073.452.6.197.737.225-.155.287-.316.352-.518.474.373.116 1.128-.44 1.237-.774.118.146.394.759.659.758-.172-.245-.382-.409-.313-.901.193.242.283.513.457.574-.217-.854.408-.92.384-.452.193 2.124-1.02 1.687-.633.995-.786.385-.044 1.216.299 1.278 1.664.313 1.858-1.003 2.224-1.403.176.572-.402 1.024-.416 1.078.453.023 1.113-.97 1.037-1.916.298.351.477.84.904.81-.239-.158-.41-.393-.536-.68.176.088.33.224.495.338-.342-.391-.471-.67-.071-1.217.329.14.334.335.432.515.109-.3.262-.458.42-.6.785.288 1.538-.428.958-.826.048.746-.654.283-.563-.411.037-.287.08-.599.32-.797.239.024.108.575.017.796.4-.107.618-.788.632-1.943.183.736-.054 1.363-.119 1.961.124-.416.674-.896.21-2.915.321-.056.626-.05.934-.438-.315.013-.615.045-.772-.51.374.204.652.138.764-.227-.548.553-.835-.153-.899-.463-.057-.349-.125-.887.232-1.007.043.105.06.27.067.461.286-.344.218-1.084-.255-1.879 0 0 .231.108.631.93-.05-.486-.556-1.478-.579-1.47.373.013.61-.01.788-.354-.477.31-1.453.054-1.203-1.362.147.075.194.49.182.876.133-.089.359-1.394.297-1.767.095.24.157.541.237.782-.04-.363-.113-.9-.198-1.167.093.11.263.43.401.642-.084-.278-.232-.574-.362-.865.457.262.86.319 1.23.261-.48-.193-1.038-.53-1.25-1.374.26.324.551.603.885.825-.36-.425-.85-.999-.997-1.66.221-.052.385.191.507.648.012-.933-.576-1.542-1.3-2.247.448-.383.806.067.478.333.325.123.646-.504.072-1.04.522-.178.548-.307.64-.443-.422.22-.792.27-1.091.196.407-.14.63-.272.859-.376-.601.147-1.026.199-1.768.232.359-.314.867-.4 1.074-.949-.096.048-.2.123-.31.161-.663.228-1.56.25-2.336.117.171-.115.786-.617 1.371-.107-.069-.246-.267-.551-.888-.549.114-.274.094-.562.024-.745-.271.702-1.435.982-2.44.629.73.145 1.025-.066 1.53-.105-.422-.002-.72.142-1.277-.017.612-.219.64-.294.807-.403-1.154.465-2.226.043-2.776.172.308-.307.362-.685.35-.84-.077.23-.123.403-.205.434.022-.387-.038-.679-.19-.863zm-3.602 13.211zm4.121-7.634c.48.14 1.32.76 1.733.742-.227-.109-.438-.191-.688-.34.595.158 1.752.151 2.389.016-.47-.069-.953-.156-1.238-.325.5-.086 1.692.243 1.808 1.202.24-.38.433-.54.692-.708.345 1.76-.449 3.452-.926 3.94.222-.027.393-.233.58-.38-.057.465.007.91-.388 1.43-.429.599-1.329.505-1.938.526-.687.097-1.332-.007-1.997-.015l-1.379.609c-.244.15-.498.413-.777.225-.104-.203-.048-.723.026-.772.09.051.163.184.276.132a2.7 2.7 0 0 1-.226-1.386c.176.051.325.362.556.362-.273-.646-.72-1.106-.063-2.755.196.18.35.441.603.518-.222-.282-.47-1.185-.127-2.063.005-.249-.08-.46-.212-.65.196-.127.385-.257.837-.299.393-.026.637.329.927.667-.123-.267-.186-.498-.468-.676z"/>
      <path class="secondary" d="M98.04 73.772c-.133-.17-.46-.724-.265-1.097.074-.231.582-.531.574-.558-.04-.132-.687.032-.663.09.188-.445.673-.627.918-.824.034-.034-.537-.08-.684-.313.604.19 1.031-.034 1.257-.281-.242.027-.494.023-.723-.12.209-.013.95.035.979-.136.377-.656.805-.716 1.162-.667.616.1.699.82.568 1.17-.338.624-.66.339-1.18.508-.412.174-.179.481-.567.823-.24.257-.608.54-1.006.675-.348.33-.261.47-.37.73z"/>
      <path class="secondary" d="M104.353 73.77c.132-.169.46-.723.264-1.096-.074-.231-.582-.531-.574-.558.04-.132.687.032.663.09-.188-.446-.673-.628-.917-.824-.035-.034.536-.08.683-.314-.604.19-1.03-.033-1.257-.28.242.027.494.022.723-.12-.209-.013-.95.035-.979-.136-.377-.656-.805-.717-1.162-.667-.615.1-.698.82-.568 1.169.338.625.66.34 1.18.509.412.174.179.481.567.823.24.257.609.54 1.006.675.348.33.261.469.37.73z"/>
      <g>
        <path fill="#eabfa2" d="M100.882 67.678c.045.574-.012.711-.02 1.101-.202.382-.2.145-.585.568-.11.228-.159.311-.09.51.095.165.496.108.616.012.242.456.295.336.615.382.161-.078.447-.203.375-.463 0 0 .323.238.448 0 .12-.227.043-.48-.07-.557-.16-.141-.402-.148-.525-.463-.088-.52-.054-.447-.09-1.09"/>
        <path opacity=".88" d="M100.783 69.81c-.044-.167-.037-.445.08-.625"/>
        <path opacity=".88" d="M101.785 69.788c.019-.185.074-.36-.11-.603"/>
      </g>
    </g>
  </g>
</svg>
