<svg xmlns="http://www.w3.org/2000/svg" fill="#d7374a" stroke="#000" viewBox="50 50 200 200">
  <metadata source="http://wappenwiki.org" license="https://creativecommons.org/licenses/by-nc-sa/3.0"/>
  <g id="lionRampant">
    <g stroke-width=".338">
      <path fill="#fff" d="M98.76 68.76c-.23 1.53.65 2.43.8 2.34.2-.09-.37-1.15.48-1.96m-.9 4.51c-.02-.88.54-1.38.65-1.32.15.07-.31.86.35 1.54"/>
      <path d="M106.15 75.1l1.9-3.17-2.5-3.68-1.3.9c.81.89.87 2.17.87 2.93 0 .77-.32 1.96-.8 2.28z"/>
      <path class="tertiary" d="M105.79 72.1s-1.85-1.55-3.56-1.55c-1.78 0-2.9.97-3.89.97-2.17 0-1.83-2.08-2.02-2.08-.14.04-.32.6-.32.96 0 1.26.79 2.4 2.34 2.4 1.58 0 2.39-.99 3.88-.99 2.02 0 3.38 1.4 3.38 1.4"/>
      <path d="M107.65 62.32c.51-.32 1.26-.73 1.82-.53.48.18.73.58.85 1.05"/>
      <path class="secondary" d="M76.3,93.29 c -0.02,0.19 -0.32,0.25 -0.42,0.33 -0.66,0.68 -1.08,0.6 -1.19,0.65 -0.1,0.05 -0.06,0.11 -0.03,0.17 0.28,0.58 1.04,0.9 1.8,0.94 0.45,0.02 1.01,-0.45 1.01,-0.45 0,0 0.4,-2.55 -1.17,-1.64 z m -7.43,-3.57 c -1.4,0.13 -2.76,1.86 -2,3.55 0.06,0.12 0.2,0.36 0.38,0.05 0.84,-1.38 1.6,-0.85 1.6,-0.85 0,0 0.55,0.02 0.74,0.1 1.8,-1.65 -0.35,-2.63 -0.72,-2.85 z m 27.46,56.06 a 3.1,3.1 0 0 0 -0.14,3.9 c 0.15,0.16 0.25,0.1 0.27,-0.04 0.32,-1.44 1.49,-1.75 2,-1.7 0.23,-0.98 -0.64,-2.86 -2.13,-2.16 z m 14.05,-5.58 c -0.59,-1.21 -2.5,-0.95 -1.92,0.78 0.66,0.22 0.41,0.95 0.41,1.36 0,0.16 0.03,0.3 0.2,0.26 0.98,-0.3 1.54,-1.4 1.31,-2.4 z m -14.93,0.04 c -2.54,0.76 -2.04,3.8 -1.79,3.75 0.35,0.1 0.92,-1.65 1.91,-0.95 1.64,-0.42 0.77,-3.02 -0.12,-2.8 z m 6.44,6.26 c 0,0.08 -0.3,0.38 -0.33,1.16 -0.05,0.98 0.62,1.81 0.84,1.92 0.15,0.08 0.34,0.26 0.3,-0.15 -0.06,-0.66 0.06,-1.57 1.22,-1.74 0.16,-1.46 -1.7,-1.83 -2.03,-1.19 z M 67.55,84.33 c -1.25,-0.56 -3.32,0.1 -3.58,1.93 -0.02,0.13 -0.04,0.4 0.27,0.23 1.45,-0.72 1.83,0.15 1.83,0.15 0,0 0.45,0.32 0.56,0.49 2.21,-1.87 1.11,-2.42 0.92,-2.8 z m 4.83,-2.75 c -0.14,-1.22 -1.76,-2.76 -3.39,-2.13 -0.12,0.05 -0.36,0.15 -0.07,0.35 1.33,0.9 0.77,1.64 0.77,1.64 0,0 -0.06,0.54 -0.14,0.72 2.23,1 2.6,-0.23 2.83,-0.58 z"/>
      <g class="background">
        <path class="secondary" d="M73.27,111.8 v 0.41 c 0.34,0.33 2.89,-2.07 1.5,-2.92 -0.53,-0.14 -0.45,-0.1 -0.64,-0.14 -2.16,-0.09 -2.92,0.85 -3.3,1.59 -0.13,0.26 -0.17,0.42 0.04,0.38 1.24,-0.5 2.4,0.05 2.4,0.68 z m 0.78,3.5 c -1.13,0.3 -2.6,1.52 -1.92,3.25 0.04,0.12 0.15,0.39 0.34,0.1 0.53,-0.78 0.86,-0.8 1.08,-0.81 0.51,0 0.63,0.21 0.63,0.21 0,0 0.56,-0.58 0.64,-1.15 0.11,-0.77 -0.37,-1.5 -0.77,-1.6 z m 6.92,-8.45 c -0.22,-0.18 -0.2,-0.59 -0.8,-1.07 a 2.62,2.62 0 0 0 -2.22,-0.5 c -0.4,0.07 -0.4,0.2 -0.25,0.3 0.46,0.2 1.05,0.7 1.07,1.18 0,0.33 -0.22,0.5 -0.36,0.68 0.75,1.42 3.14,0.4 2.56,-0.6 z m -0.1,11.73 c -1.12,0.8 -1.77,0.46 -1.77,0.72 0.02,0.36 0.86,0.94 1.8,1.23 1.19,-0.6 1.67,-2.56 -0.03,-1.95 z M 79.68,73.64 c -0.15,0.1 -0.4,-0.06 -0.5,-0.07 -0.92,0.03 -1.16,-0.33 -1.26,-0.35 -0.1,-0.02 -0.1,0.03 -0.13,0.09 -0.2,0.58 0.09,1.3 0.58,1.86 0.3,0.32 1,0.38 1,0.38 0,0 2,-1.49 0.3,-1.91 z m -2.65,-7.47 c -1.04,-0.87 -3.12,-0.61 -3.74,1.05 -0.05,0.13 -0.11,0.37 0.21,0.3 1.51,-0.38 1.67,0.49 1.67,0.49 0,0 0.36,0.4 0.43,0.57 2.35,0.1 1.55,-2.02 1.44,-2.41 z M 79.8,61.6 c -0.47,-1.23 -2.33,-2.18 -3.74,-1.12 -0.1,0.08 -0.3,0.24 0.02,0.34 1.47,0.5 1.13,1.33 1.13,1.33 0,0 0.1,0.53 0.06,0.7 2.78,0.27 2.4,-0.86 2.52,-1.25 z m 5.14,1.4 c 0.73,-0.9 0.68,-3.06 -0.86,-3.73 -0.12,-0.05 -0.35,-0.14 -0.28,0.19 0.29,1.5 -0.6,1.63 -0.6,1.63 0,0 -0.4,0.34 -0.57,0.4 0.83,2.19 1.92,1.6 2.31,1.52 z"/>
        <path d="M98.87 116.2s-.99.64-.96 1.74c0 .46.2 1.85.62 2.81.8 2.14 1.76 3.45 1.26 4.94-.18.55-.87 1.16-1.98 1.16-.75 0-1.57-.2-2.67-1.45-1.34-1.42-3.73-2-5.31-2-1.5 0-2.78.41-3.74.78-.42.17-.4-.1-.4-.14 0-.05.12-.63.83-1.27.16-.16.91-.69.98-1.1.03-.3-.26-.52-.77-.53-3.23.08-4.96-.22-5.96-.63.62-.61.68-1.44-.06-1.88.95-.52.44-1.34.1-1.53-.51-.27-1.83.12-2.78.46-1.12.34-1.4.45-2.03.12-.22-.15-1.02 1-1.98.26 1.12-.83.6-2.54-.28-2.58-.18-.48.37-.93 1.49-.53 1.48-.32 1.31.29 2.86-.4-.19-.82-.8-.46-2.27-1.09-.62-.26-.4-.7-1.47-.79-.82.35-1.67-.19-1.14-.9.94-.2 1.51-1.67.92-2.41-.18-.23.19-.4.73-.34.21.02.98.26 1.04.8.04.23.63.64.92.75.48.18.95.17 1.6.77.04.03.1.09.17.03.7-.74.22-1.11.24-2.02.02-.51-.7-.34-.63-1.4.01-.17.05-.47.3-.6.77.8 2.47.43 2.46-.44.33-.05 1.05.43.73 1.45.7 2-.08 1.75.04 3.52.02.53.51 1.98 1.95 2.56 2.14.94 5.12 2.64 6.14 2.43.25-.06-.13-1.06-.28-1.63-.7-2.42-.56-4.38-.56-4.38s-.07-1.1-.83-1.75c-.46-.34-.9-.4-1.15-.4-.54 0-.84.29-.84.6 0 .22.12.48.41.48.13.03.08.11.03.17-.08.09-.18.09-.34.08-.24 0-.65-.33-.65-1.1.04-.94.92-1.47 1.68-1.47.4 0 1.02.18 1.29.44.23-.16.15-.58-.03-.86-.18-.29-.44-.4-.94-.45-.1-.03-.16-.08-.02-.16.33-.2.56-.25.78-.23 1.35.13 1.45 1.08 1.47 1.18.02.05.04.03.06 0 .3-.36.69-.83 1.18-1.18 1.75-1.21 4.22-.88 6.25-.2 1.44.47 3 1.73 4.05 2.54m.56-2.87s-.93-1.04-1.7-1.34c-.33-.1-.53-.09-.65.05-.28.3-.01.62.12.8a9.2 9.2 0 011.56 2.86M87.33 85.41c-.32-1.05-.94-2.35-3.02-3.99-1.74-1.26-3.53-1.23-3.53-1.23s-.66.06-.58-.19c.19-.63.4-.8 1.04-.96.76-.23 1.73-.08 1.76-.75-.01-.51-.81-1.21-1.69-1.6-1.52-.6-2.48-.96-3-1.59.7.01 1.18-.98.7-1.56.62.12 1.39-.13 1.31-1.23-.16-1.03-1.36-2.11-2.4-2.13a1.8 1.8 0 01-1.76-1.09c-.62.2-1.61-.75-1.01-1.18 1.48-.09 1.87-1.14 1.33-2.1.44.17.13-.65 1.07.21.39.38.39.92.53 1.06.59.56.9.33 1.3 0 1.08-1.06-1.1-1.24-1.59-3.06-.3-.3-.63-.13-.89-.85-.07-.23-.1-.63.1-.91.16-.15.13-.05.19-.13.64.87 2.47.42 2.56-.7.21.17.35.02.64.29.47.42.53 1.09.15 1.57-.23.56.25 1.27.7 1.59.17.1.48.24.53.2.73-.64.04-1.81.37-2.4-.24-.31.14-1.67.83-1.6.13.02.25 0 .33-.04-.18 1.1 1.4 2.38 1.8 1.76l.1.17c.12.18.32.23.25.72-.13.6-.53.86-.86.95-.26.1-.28.84-.4 1.06-.4.72-.61.86-.61 1.5.02.83.8 3.52 3.59 6.3.89.9 2.03 1.98 3.43 3.01.2.15 3.03 1.9 3.24 2.05"/>
        <path fill="#000" stroke-width=".113" d="m 78.3,105.57 0.08,0.05 a 0.2,0.2 0 0 1 0.1,0.06 l 0.14,0.07 0.16,0.1 c 0.04,0.05 0.1,0.1 0.16,0.14 l 0.14,0.17 c 0.05,0.07 0.1,0.12 0.13,0.2 0,0.04 0.03,0.07 0.04,0.12 l 0.04,0.1 0.02,0.12 0.01,0.11 0.01,0.12 v 0.1 c 0,0.06 0,0.13 -0.02,0.19 a 0.62,0.62 0 0 1 -0.05,0.16 c 0,0.04 -0.03,0.09 -0.04,0.12 -0.02,0.03 -0.02,0.06 -0.05,0.08 a 0.13,0.13 0 0 1 -0.02,0.03 l -0.17,-0.14 0.02,-0.01 0.03,-0.06 0.05,-0.1 a 0.36,0.36 0 0 0 0.04,-0.13 c 0.01,-0.05 0.03,-0.1 0.03,-0.17 l 0.02,-0.1 v -0.1 l -0.01,-0.1 c 0,-0.03 0,-0.06 -0.02,-0.1 0,-0.03 0,-0.06 -0.02,-0.1 l -0.03,-0.1 c -0.02,-0.06 -0.07,-0.12 -0.1,-0.19 -0.04,-0.05 -0.1,-0.11 -0.13,-0.17 l -0.13,-0.14 -0.14,-0.11 -0.12,-0.1 -0.1,-0.06 -0.09,-0.06 z M 79.27,74.2 h -0.06 l -0.08,-0.01 a 0.39,0.39 0 0 1 -0.1,-0.03 c -0.04,0 -0.08,0 -0.13,-0.03 a 0.52,0.52 0 0 1 -0.12,-0.04 l -0.14,-0.06 -0.13,-0.07 a 2.38,2.38 0 0 1 -0.55,-0.45 l -0.05,-0.04 0.02,-0.02 c 0,0 0.02,0 0.05,0.03 l 0.14,0.11 c 0.11,0.1 0.27,0.2 0.44,0.26 l 0.12,0.05 c 0.05,0 0.1,0.02 0.12,0.03 l 0.13,0.02 c 0.03,0.02 0.08,0.02 0.11,0.02 h 0.24 z m 19.51,42.25 -0.02,0.05 -0.11,0.12 c -0.08,0.1 -0.2,0.2 -0.32,0.36 l -0.19,0.26 -0.18,0.3 c -0.07,0.1 -0.11,0.23 -0.17,0.34 l -0.14,0.37 c -0.05,0.13 -0.1,0.25 -0.13,0.39 -0.03,0.12 -0.07,0.24 -0.09,0.37 a 20.73,20.73 0 0 1 -0.11,0.69 l -0.02,0.27 -0.01,0.21 -0.01,0.2 h -0.06 v -0.41 l 0.01,-0.28 0.02,-0.33 0.05,-0.37 c 0.01,-0.12 0.04,-0.26 0.07,-0.4 0.02,-0.13 0.06,-0.26 0.1,-0.4 l 0.12,-0.4 c 0.06,-0.11 0.1,-0.25 0.16,-0.36 l 0.17,-0.34 0.18,-0.28 0.31,-0.4 0.07,-0.07 0.02,-0.05 z m -17.53,-2.07 0.1,0.08 0.12,0.1 0.14,0.1 0.18,0.13 0.2,0.13 0.12,0.07 0.11,0.07 0.23,0.13 0.23,0.14 0.23,0.12 0.21,0.12 0.2,0.09 0.17,0.07 0.14,0.06 0.12,0.05 v 0.05 l -0.14,0.01 h -0.16 a 1.2,1.2 0 0 1 -0.2,-0.03 c -0.06,0 -0.14,-0.03 -0.22,-0.05 l -0.24,-0.08 -0.26,-0.12 c -0.1,-0.04 -0.17,-0.09 -0.25,-0.13 l -0.24,-0.16 -0.2,-0.17 c -0.08,-0.05 -0.13,-0.12 -0.2,-0.18 a 2.19,2.19 0 0 1 -0.16,-0.18 l -0.1,-0.15 -0.09,-0.14 c -0.03,-0.07 -0.04,-0.11 -0.03,-0.12 z m 7.07,4.36 0.22,0.05 0.26,0.08 0.33,0.11 c 0.12,0.05 0.25,0.1 0.38,0.17 l 0.2,0.1 0.22,0.13 0.4,0.3 c 0.14,0.12 0.25,0.24 0.37,0.33 0.13,0.1 0.25,0.18 0.4,0.25 0.07,0.03 0.15,0.05 0.21,0.09 l 0.22,0.08 c 0.05,0 0.15,0.04 0.2,0.05 0.03,0.02 0.06,0.02 0.09,0.02 h 0.09 a 0.6,0.6 0 0 0 0.31,-0.14 c 0.1,-0.07 0.2,-0.15 0.3,-0.19 a 0.96,0.96 0 0 1 0.3,-0.08 h 0.23 v 0.06 l -0.06,0.01 -0.06,0.01 a 0.2,0.2 0 0 1 -0.1,0.02 0.86,0.86 0 0 0 -0.22,0.12 c -0.08,0.05 -0.16,0.13 -0.25,0.22 a 0.6,0.6 0 0 1 -0.17,0.14 0.36,0.36 0 0 1 -0.1,0.05 c -0.05,0.03 -0.09,0.03 -0.13,0.04 h -0.27 l -0.07,-0.01 -0.05,-0.01 -0.06,-0.01 -0.03,0.03 h -0.03 v 0 l -0.24,-0.07 c -0.08,-0.03 -0.16,-0.05 -0.25,-0.1 A 1.96,1.96 0 0 1 90.5,120.3 l -0.37,-0.35 c -0.06,-0.05 -0.13,-0.1 -0.18,-0.16 l -0.18,-0.14 -0.18,-0.14 -0.18,-0.12 -0.35,-0.21 -0.3,-0.17 a 2.2,2.2 0 0 1 -0.24,-0.14 l -0.2,-0.1 z m -6.11,-1.41 -0.12,-0.04 -0.14,-0.05 -0.18,-0.04 a 0.8,0.8 0 0 0 -0.21,-0.05 l -0.25,-0.03 -0.27,-0.01 H 80.5 l -0.26,0.04 -0.46,0.08 -0.31,0.08 a 0.33,0.33 0 0 1 -0.1,0.02 l -0.02,0.01 -0.1,-0.32 0.04,-0.01 0.1,-0.02 0.35,-0.06 c 0.14,-0.02 0.31,-0.03 0.48,-0.03 h 0.58 l 0.28,0.04 c 0.09,0.01 0.18,0.02 0.27,0.05 0.09,0 0.17,0.03 0.25,0.05 a 5.46,5.46 0 0 1 0.4,0.14 l 0.14,0.06 0.1,0.05 z m -6.35,-7.13 a 15.3,15.3 0 0 0 0.06,0.23 l 0.01,0.16 v 0.2 c 0,0.06 0,0.13 -0.02,0.2 a 0.65,0.65 0 0 1 -0.06,0.23 l -0.07,0.23 -0.12,0.21 c -0.04,0.07 -0.07,0.14 -0.13,0.2 l -0.15,0.16 c -0.04,0.06 -0.1,0.1 -0.14,0.13 l -0.14,0.09 -0.11,0.05 -0.1,0.04 -0.01,-0.04 0.08,-0.06 0.09,-0.08 a 0.98,0.98 0 0 0 0.1,-0.11 l 0.11,-0.14 0.11,-0.16 0.06,-0.09 a 0.26,0.26 0 0 1 0.06,-0.09 c 0.03,-0.06 0.07,-0.13 0.09,-0.2 0.05,-0.13 0.11,-0.27 0.14,-0.4 l 0.06,-0.2 0.05,-0.17 0.04,-0.27 v -0.1 z m 3.15,-1.24 0.12,0.02 0.29,0.04 h 0.4 l 0.23,-0.04 0.23,-0.06 0.23,-0.08 0.22,-0.08 0.19,-0.08 0.17,-0.09 0.12,-0.1 0.08,-0.09 0.05,-0.07 v -0.02 l 0.04,0.01 v 0.04 c 0,0.02 0,0.05 -0.02,0.09 l -0.06,0.12 -0.1,0.15 -0.18,0.13 c -0.06,0.05 -0.13,0.08 -0.2,0.12 l -0.22,0.1 -0.24,0.08 -0.25,0.06 c -0.04,0.02 -0.09,0.02 -0.12,0.02 h -0.12 a 1.6,1.6 0 0 1 -0.24,-0.03 c -0.03,0 -0.07,0 -0.1,-0.02 l -0.1,-0.03 c -0.07,-0.01 -0.11,-0.05 -0.17,-0.06 a 1.04,1.04 0 0 0 -0.12,-0.05 C 79.1,109.03 79.08,109 79.06,108.99 a 0.12,0.12 0 0 1 -0.04,-0.02 z m -3.12,8.36 0.04,-0.1 0.04,-0.1 c 0,-0.05 0,-0.1 0.02,-0.15 v -0.38 l -0.02,-0.22 -0.04,-0.2 v -0.08 c 0,0 0,0 0,0 v 0 l -0.02,-0.03 -0.03,-0.11 -0.07,-0.2 a 0.9,0.9 0 0 0 -0.08,-0.18 l -0.08,-0.16 -0.07,-0.12 -0.07,-0.1 -0.07,-0.07 0.01,-0.04 0.1,0.05 a 0.6,0.6 0 0 1 0.1,0.08 l 0.13,0.11 0.11,0.16 0.12,0.19 a 1.67,1.67 0 0 1 0.12,0.33 l 0.01,0.02 v 0.03 l 0.01,0.06 c 0.04,0.16 0.05,0.31 0.04,0.47 0,0.08 -0.01,0.15 -0.03,0.22 a 0.93,0.93 0 0 1 -0.1,0.35 0.95,0.95 0 0 1 -0.08,0.1 l -0.05,0.07 H 75.9 Z m -4.64,-6.52 0.1,-0.06 0.13,-0.07 0.17,-0.06 0.1,-0.02 c 0.03,0 0.07,0 0.11,-0.02 l 0.24,-0.03 0.26,-0.01 h 0.27 l 0.26,0.05 0.24,0.07 0.24,0.08 c 0.08,0.02 0.14,0.06 0.2,0.09 0.07,0.02 0.12,0.07 0.17,0.09 l 0.13,0.08 0.1,0.08 -0.15,0.17 -0.09,-0.07 a 0.4,0.4 0 0 0 -0.1,-0.08 c -0.04,-0.02 -0.09,-0.07 -0.14,-0.09 l -0.18,-0.1 c -0.07,-0.03 -0.14,-0.07 -0.22,-0.09 l -0.23,-0.08 a 1.85,1.85 0 0 0 -0.25,-0.05 l -0.26,-0.04 h -0.48 l -0.11,0.02 c -0.04,0 -0.07,0 -0.1,0.02 -0.07,0 -0.13,0.03 -0.17,0.04 l -0.13,0.06 -0.1,0.06 z m 1.18,7.42 0.05,-0.1 0.05,-0.1 c 0.03,-0.04 0.06,-0.07 0.08,-0.12 0.04,-0.04 0.07,-0.1 0.12,-0.14 l 0.13,-0.15 c 0.06,-0.04 0.1,-0.1 0.17,-0.13 0.06,-0.05 0.12,-0.1 0.2,-0.13 l 0.2,-0.1 0.2,-0.07 0.2,-0.05 0.18,-0.03 0.28,-0.03 h 0.11 l -0.03,0.23 h -0.02 l -0.07,-0.01 a 0.93,0.93 0 0 0 -0.25,0 l -0.16,0.01 -0.2,0.03 a 0.97,0.97 0 0 0 -0.19,0.06 l -0.19,0.08 c -0.06,0.02 -0.12,0.07 -0.19,0.1 l -0.17,0.11 -0.14,0.13 -0.11,0.12 -0.1,0.12 -0.06,0.1 a 0.43,0.43 0 0 1 -0.06,0.08 z m 8.8,0.82 -0.21,0.11 a 0.47,0.47 0 0 0 -0.1,0.06 l -0.13,0.06 a 0.72,0.72 0 0 0 -0.13,0.05 0.54,0.54 0 0 1 -0.15,0.05 l -0.14,0.03 -0.15,0.02 -0.13,0.02 h -0.13 l -0.1,-0.01 -0.08,-0.02 c -0.04,0 -0.06,-0.02 -0.06,-0.02 v -0.02 l 0.07,0.01 0.08,0.01 h 0.22 l 0.12,-0.03 0.14,-0.03 a 0.66,0.66 0 0 0 0.13,-0.06 0.41,0.41 0 0 0 0.13,-0.05 l 0.12,-0.07 0.11,-0.06 0.1,-0.07 c 0.13,-0.07 0.2,-0.13 0.2,-0.13 z m 0.71,-50.64 0.04,0.1 0.06,0.13 0.08,0.16 0.1,0.19 c 0.02,0.07 0.06,0.13 0.1,0.2 l 0.06,0.11 0.07,0.12 0.13,0.22 0.14,0.22 0.13,0.21 c 0.05,0.07 0.1,0.13 0.13,0.2 l 0.12,0.16 0.1,0.15 0.1,0.11 0.07,0.1 -0.03,0.05 -0.11,-0.06 -0.13,-0.08 -0.15,-0.11 c -0.06,-0.05 -0.12,-0.09 -0.17,-0.15 -0.06,-0.05 -0.12,-0.1 -0.17,-0.18 l -0.16,-0.2 -0.14,-0.25 a 1.63,1.63 0 0 1 -0.13,-0.24 1.13,1.13 0 0 1 -0.1,-0.25 L 82,69.07 a 1.63,1.63 0 0 1 -0.04,-0.22 l -0.02,-0.2 v -0.26 z m 0.35,10.26 h 0.07 c 0.04,-0.02 0.1,-0.02 0.18,-0.03 l 0.12,-0.01 0.13,-0.01 0.15,-0.01 0.15,-0.01 0.14,-0.01 c 0.05,-0.01 0.1,-0.01 0.14,-0.03 0.04,0 0.09,0 0.12,-0.02 0.05,0 0.08,-0.02 0.12,-0.03 a 0.75,0.75 0 0 0 0.09,-0.04 l 0.06,-0.03 0.07,-0.02 0.02,0.03 -0.05,0.04 -0.07,0.04 -0.09,0.06 -0.11,0.06 -0.13,0.05 a 0.72,0.72 0 0 0 -0.13,0.06 l -0.15,0.04 -0.14,0.04 -0.15,0.03 -0.13,0.04 -0.12,0.03 -0.09,0.02 -0.07,0.03 c -0.05,0 -0.07,0.02 -0.07,0.02 z m -1.77,-6.91 -0.08,-0.1 -0.09,-0.12 -0.12,-0.13 -0.16,-0.16 c -0.05,-0.06 -0.12,-0.1 -0.18,-0.16 l -0.2,-0.16 -0.22,-0.14 -0.23,-0.14 -0.22,-0.1 a 1.8,1.8 0 0 0 -0.23,-0.09 l -0.2,-0.05 -0.3,-0.05 h -0.1 v -0.34 h 0.03 c 0.02,0 0.07,0 0.1,0.02 0.09,0 0.21,0.03 0.35,0.08 0.07,0.02 0.15,0.04 0.21,0.09 l 0.24,0.1 0.24,0.15 0.22,0.16 0.22,0.18 0.19,0.18 c 0.05,0.07 0.12,0.13 0.17,0.18 l 0.14,0.17 0.12,0.15 0.08,0.12 0.06,0.1 z m -0.22,-8.49 -0.05,0.1 c -0.04,0.05 -0.1,0.13 -0.19,0.2 l -0.14,0.1 a 0.93,0.93 0 0 1 -0.18,0.12 l -0.2,0.1 c -0.07,0.04 -0.15,0.06 -0.22,0.08 l -0.23,0.06 -0.22,0.02 a 0.68,0.68 0 0 1 -0.21,-0.01 c -0.07,0 -0.13,-0.02 -0.18,-0.03 l -0.15,-0.05 c -0.04,0 -0.08,-0.03 -0.11,-0.05 l -0.1,-0.06 0.02,-0.03 h 0.1 l 0.11,0.02 0.15,0.01 h 0.37 l 0.1,-0.02 0.1,-0.02 0.2,-0.05 c 0.13,-0.03 0.27,-0.09 0.4,-0.13 0.05,-0.04 0.12,-0.06 0.17,-0.08 L 80,63.46 80.22,63.33 c 0.06,-0.05 0.08,-0.07 0.1,-0.06 z m 2.22,-0.26 0.05,0.1 c 0.02,0.04 0.03,0.07 0.06,0.1 0.02,0.04 0.05,0.1 0.09,0.14 l 0.1,0.15 0.14,0.16 0.15,0.14 0.08,0.07 0.04,0.03 0.05,0.04 0.18,0.13 c 0.06,0.05 0.12,0.1 0.18,0.13 l 0.17,0.1 c 0.06,0.02 0.11,0.06 0.16,0.07 l 0.14,0.03 a 0.4,0.4 0 0 0 0.12,0.01 h 0.1 v 0.03 h -0.01 c -0.01,0.02 -0.05,0.03 -0.08,0.04 l -0.06,0.02 -0.06,0.02 -0.17,-0.01 a 1.13,1.13 0 0 1 -0.4,-0.14 1.88,1.88 0 0 1 -0.2,-0.12 L 83.16,64.1 83.12,64.07 a 0.09,0.09 0 0 1 -0.05,-0.05 l -0.09,-0.07 a 2.19,2.19 0 0 1 -0.16,-0.18 c -0.04,-0.07 -0.09,-0.13 -0.11,-0.2 l -0.04,-0.08 -0.04,-0.1 -0.05,-0.15 -0.03,-0.13 v -0.07 c -0.03,-0.01 -0.03,-0.03 -0.02,-0.03 z m -6.12,5.83 0.1,-0.02 a 0.39,0.39 0 0 0 0.1,-0.05 l 0.13,-0.06 c 0.1,-0.06 0.2,-0.14 0.3,-0.22 l 0.14,-0.13 0.15,-0.15 0.03,-0.03 0.01,-0.01 c 0,0 0,-0.01 0,0 v 0 l 0.02,-0.02 0.06,-0.1 0.12,-0.16 c 0.03,-0.06 0.06,-0.12 0.1,-0.16 l 0.08,-0.15 0.05,-0.13 0.04,-0.11 v -0.1 h 0.04 c 0,0 0.02,0.03 0.03,0.1 v 0.12 l -0.03,0.16 a 0.4,0.4 0 0 1 -0.05,0.18 1.43,1.43 0 0 1 -0.2,0.38 l -0.06,0.1 -0.01,0.01 -0.01,0.02 h -0.01 l -0.04,0.05 a 2.09,2.09 0 0 1 -0.52,0.4 0.5,0.5 0 0 1 -0.17,0.07 0.44,0.44 0 0 1 -0.16,0.03 0.22,0.22 0 0 1 -0.12,0 l -0.08,-0.01 h -0.02 z m -2.56,-1.69 0.09,-0.03 a 3.86,3.86 0 0 1 0.4,-0.1 L 74.5,67 l 0.2,0.01 c 0.07,0.01 0.14,0.01 0.2,0.04 0.08,0 0.14,0.03 0.21,0.05 0.07,0.02 0.13,0.06 0.18,0.08 a 2.16,2.16 0 0 1 0.47,0.38 l 0.05,0.06 0.02,0.02 -0.19,0.13 -0.01,-0.01 -0.03,-0.05 a 1.46,1.46 0 0 0 -0.4,-0.37 0.73,0.73 0 0 0 -0.15,-0.09 l -0.18,-0.07 -0.18,-0.04 -0.18,-0.02 h -0.34 l -0.14,0.03 -0.1,0.02 -0.09,0.03 z m 2.56,-6.45 0.1,0.02 0.12,0.03 0.16,0.05 c 0.05,0.02 0.12,0.03 0.18,0.07 0.05,0.03 0.12,0.05 0.19,0.1 l 0.19,0.13 0.18,0.17 0.08,0.1 0.07,0.1 c 0.04,0.06 0.09,0.13 0.12,0.2 l 0.1,0.2 c 0.01,0.07 0.04,0.12 0.06,0.19 l 0.07,0.3 v 0.12 H 77.8 v -0.1 a 1.44,1.44 0 0 0 -0.08,-0.45 l -0.06,-0.2 -0.1,-0.19 C 77.53,61.5 77.52,61.47 77.5,61.43 l -0.08,-0.08 -0.14,-0.16 -0.17,-0.15 -0.17,-0.11 -0.17,-0.08 -0.14,-0.06 a 0.7,0.7 0 0 1 -0.12,-0.03 l -0.1,-0.03 z m 7.71,-1.05 0.03,0.09 0.05,0.1 a 2.84,2.84 0 0 1 0.08,0.4 v 0.11 l -0.01,0.1 -0.02,0.1 a 1.56,1.56 0 0 1 -0.13,0.4 l -0.1,0.19 a 0.59,0.59 0 0 0 -0.1,0.17 0.67,0.67 0 0 1 -0.11,0.13 c -0.07,0.08 -0.12,0.15 -0.18,0.2 a 2.7,2.7 0 0 0 -0.08,0.07 l -0.13,-0.18 c 0,0 0,0 0,0 l 0.07,-0.05 0.18,-0.17 0.1,-0.12 0.12,-0.15 0.1,-0.16 a 0.86,0.86 0 0 0 0.1,-0.18 c 0.01,-0.06 0.05,-0.12 0.06,-0.19 a 0.33,0.33 0 0 0 0.02,-0.09 l 0.01,-0.09 0.02,-0.09 v -0.18 l -0.02,-0.08 c 0,-0.04 0,-0.1 -0.02,-0.13 a 0.52,0.52 0 0 0 -0.03,-0.1 0.74,0.74 0 0 0 -0.02,-0.1 z m -0.37,7.2 -0.02,0.12 c -0.01,0.04 -0.01,0.1 -0.03,0.14 0,0.06 0,0.11 -0.02,0.18 l -0.02,0.2 -0.01,0.24 v 0.26 l 0.02,0.26 c 0.01,0.09 0.01,0.18 0.04,0.26 0,0.09 0.03,0.17 0.04,0.26 l 0.06,0.23 0.05,0.22 0.14,0.42 -0.03,0.02 -0.18,-0.42 a 1.56,1.56 0 0 0 -0.08,-0.2 l -0.08,-0.24 a 8.02,8.02 0 0 1 -0.07,-0.26 l -0.07,-0.27 c 0,-0.09 -0.04,-0.18 -0.04,-0.27 L 83.41,67.72 83.4,67.48 c -0.02,-0.08 0,-0.16 0,-0.23 v -0.19 c 0.02,-0.06 0.02,-0.1 0.02,-0.15 l 0.01,-0.12 z m 4.62,15.48 -0.12,-0.11 a 1.33,1.33 0 0 1 -0.15,-0.14 l -0.18,-0.18 -0.2,-0.22 a 1.78,1.78 0 0 1 -0.22,-0.26 l -0.12,-0.14 -0.1,-0.14 c -0.09,-0.1 -0.15,-0.2 -0.23,-0.3 l -0.22,-0.3 -0.19,-0.3 -0.17,-0.3 -0.13,-0.26 C 86.28,79.59 86.25,79.51 86.22,79.44 L 86.15,79.26 A 0.64,0.64 0 0 1 86.09,79.1 h 0.04 l 0.07,0.14 0.07,0.17 0.13,0.21 0.16,0.25 c 0.05,0.1 0.12,0.18 0.19,0.27 0.07,0.1 0.13,0.2 0.21,0.28 0.08,0.1 0.15,0.2 0.23,0.28 l 0.23,0.27 0.13,0.14 0.12,0.12 0.24,0.24 0.21,0.2 0.18,0.15 0.16,0.12 c 0.08,0.07 0.14,0.1 0.14,0.1 z"/>
      </g>
      <path d="M109.96 62.8s-1.02-.47-1.85-.54c-.84-.07-1.81-.38-2.51-.38-.7 0-1.52.11-1.76.28-.48.33-.66.57-1.12.66-.53.07-1.2.1-2 .34-.48.14-.96.4-1.51.53-.49.13-1.86.25-1.96.43-.04.11-.16 1.11.35 1.52 0 .04-.19.28-.19 1.12 0 .85.44 1.2.82 1.6a3 3 0 002.06.97c.84 0 1.6-.54 2.46-.54.44 0 1.22-.01 2.03.77.81.8.84 1.85.84 2.52 0 .68-.29 1.83-.75 2.1a6.9 6.9 0 01-3.27.11c-1.22-.26-1.66-.56-2.16-.7-.5-.13-.86-.21-.86-.05 0 .38.12.32.2.5 0 1-.98 1.22-.92 1.32.1.16.48.24.92.08.43-.16.63-.4.63-.4s-.03.37.31.8c.12 0 .26-.65.77-.86.33-.08.68.18 1.89.18 0 .21-.87.8-1.66 1.03-.79.23-1.17-.09-1.92-.09-.9 0-1.15.46-1.85.46-.7 0-1.4-.16-1.99-.97-.23-.34-.32-.18-.44.09-.38 1.17.14 1.73.17 1.79 0 0 0 0 0 0-2.02-.72-2.91 1.04-4-.12-.16-.21-.37-.37-.43-.02a2.17 2.17 0 001.2 2.14l-.04.01c-1.4-.2-2.42 1.53-3.43.76-.23-.18-.18-.12-.18.12.02 1.57 1.82 1.69 1.81 1.7-1.72.11-2.5.82-3.07 1.53l-.2.25c-.52.65-.97 1.21-2.1 1.22-.3 0-.37.08-.12.34 1.78 1.53 3.17 1.01 3.97.53-.61.55-.55 1-1.05 1.16-2.08.38-4.03.44-5.52.44-4.1-.01-6.45-1.24-7.1-1.83-.47-.47-.4-.72-.65-1.54-.08-.25-.6-.82-.48-1.08.17-.3.27-.8-.08-1.32-.3-.43-.48-.32-.7-.36l-.2-.06c.16.75-1.96.98-2.63.03a.7.7 0 01-.2.27c-.57.44.15 1.74.55 1.78.19.68 1.56 1.04 1.5 2.05-.02.06-.34.2-.53.24-.58.1-1.44-.07-1.7-.66A1.15 1.15 0 0068.06 84c-.4 0-.4.22-.68.26.76.88-.27 2.57-1.38 2.4.01.1-.02 0-.04.23.05.35.37.63.6.74.71.34.85-.02 1.27-.02 1.71.98 3.45-.49 3.42 1.1-.05.53-.1.93-.95.95-.21 0-.6-.4-1.17-.4-1.33.06-.5.44-.95.63 1.12.32 1.6 1.39.57 2.54-.13.76 1.3.72 1.6.13a1.9 1.9 0 002.11-.5c.78-.74 2.46-.84 3.33-.19.87.76.48 1.5-.07 1.87.78.08 1.16 1.16.63 1.67.85.07 1.82-.36 3.38-1.04.94-.35 2.03-.43 2.43-.06.47.51-.35 1.12-.74 1.84-.37.6-.39.88-.07 1.48.12.24.57-.29.57-.29s1.3-1.34 3.51-1.69c4.33-.5 5.31 1.03 6.72 1.6.45.16 2.34 1.26 2.24-.6-.01-1 .36-1.7.5-1.83.07.52.5 1.64 2.04 2.6 4.2 2.71 4.83 6.02 4.83 6.8 0 4.28-2.88 6.01-2.88 12.34 0 1.55.4 3.26 1.13 4.85.9 1.68 1.57 2.55 2.31 3.33 1.15 1.21 2.17 2.24 2.17 6.16 0 5.31-1.05 7.42-1.74 8.32-.6.84-1.2.92-1.82.94-1.36-.06-2.16-1.05-4.41-.28-.4-.11-1-.11-1.18.36.78.54 1.47 1.73.12 2.77.34.3.53.3.75.29 1.04 0 .57-.42 1.26-.45.94.04 1.03.48 1.5.43-.16.1-.37.35-.78.86-.38.48-.75.76-1 .77-.51.02-.98.38-1.04.56-.16.4.11.23-.04.54.76-.02 2.37.28 1.98 1.97.23-.03.12.07.3.2.5.34 1.2-.45 1.18-.82-.02-.55.7-1 .8-1.08 1.21-.97 1.18-.32 1.84-.9 0 .06.18.25.11.36-.18 0-.43.15-.48.35-.07.27-.07.46.04.53.76-.17 1.94 0 1.78 1.17.13-.03.39-.07.54-.08 1.65 0 2.4-1.56 2.4-1.56.6-.82.44-2.17.43-3.3 0-.86.07-1.66.6-1.82.34-.08.83-.04 1.09.11.36-.92 1.03-1 1.73-.47-.01-.2-.1-.41-.12-.53-.1-.55-.62-1.33-.62-3.12 0-4.63 2.38-7.25 2.74-7.8.5-.65 2.06-3.3-.98-3.93-2.13-.4-2.4-.8-2.43-2.17 0-1.03.94-3.91.95-5.53.11.3.21.58.3.74.13.2 1.42 3.02 3.06 4.72 1.25 1.28 2.75 2.18 4.51 2.2a5.9 5.9 0 003.56-1.32c2.68-2.16 2.85-5.74 2.88-7.58 0-1.03-.27-3.46-.35-3.86-.03-.31-.23-1.66 1.23-2.14 1.42-.61 1.88-.39 2.64-.47a4.5 4.5 0 002.38-.85c1.53-1.06 2.02-2.3 2.02-3.47 0-.39-.16-1.85-1.12-2.14-.14-.04-.2.04-.13.22.08.18.25.35.25 1.05 0 .7-.5 1.82-1.89 2.07.53-.2 1.28-1.03 1.28-1.67 0-.28.02-.73-.24-.73-.2 0-.08.47-.66 1-.6.54-1.32.78-2.09.68a5.85 5.85 0 00-4.03.76l-.76.43c-.1-1.12.63-2.18 1.74-3.06.18-.14.96-.74 1.15-.85 1.74-1.04 3.39-.7 4.98-1.57.8-.44 1.41-.64 1.74-1.4.17-.37.24-.67.2-.9-.06-.36-.1-.25-.21 0-.28.6-.57.82-2.02 1.13-.08.02-.14-.06-.14-.06.89-.52 2.4-1 2.31-3.27-.09-1.7-.86-2.3-.86-2.3s-.21-.4-.28.4c-.14 1.06-.15 3.84-3.93 3.5-4.2-.3-6.77 3.87-7.05 4.39l-.2.4c.13-.46 1.22-4.65 3.98-7.12 2.76-2.6 5.55-1.64 8.83-4.3 1.7-1.38 2.39-2.53 2.42-3.84-.03-1.03-.27-1.5-.4-1.55-.06-.04-.18-.07-.18.1 0 .36 0 1.25-.44 1.66 0 0-.18.23-.2.23a3.5 3.5 0 00.23-1.39c0-2.3-2.36-3.28-3.42-2.85-.3.12-.46.13-.4.24.06.1.22.12.31.13 2.45.33 1.9 2.1 1.86 2.44-.42 1.38-1.81 2.23-3.74 2.5-2.92.5-4.7 1.24-5.97 2.08-1.4.93-2.9 2.08-4.61 5.38-.01.02-.03.02-.03 0 1.9-9.5 11.5-13.21 15.07-19.42 1.77-2.8 2.38-5.14 2.4-7.07.09-5.07-3.8-6.81-5.07-7.39-.44-.18-2.62-1.08-5.34-1.02-2.06.03-4.14.59-5.75 2.76-2.62 3.88-1.66 6.74-.7 8.25.3.48.62.97.62 1.64 0 .32-.07.74-.27 1.21-.2.5-.5.59-.76.59-.38 0-.37-.3-.5-.27-.07 0-.15.04-.13.2.06.57.64.73.92.75.8.05 1.4-.75 1.52-.98a3.52 3.52 0 01-1.44 2.13c-1.11.79-1.25 1.75-1.2 2.66 0 .86.26 1.56.26 1.56s.5 2.14-.3 3.29c-.38.6-.41.64.2.45 1.42-.52 1.36-3.45 1.36-3.45s-.07-1.6.8-2.3c0 0-.05.28-.05.58 0 .5.32 1.07.95 1.1.08 0 .12-.07.04-.13a.84.84 0 01-.27-.57c0-1.7 3.07-2.04 3.88-3.02 1.38-1.65.45-3.77.25-4.68a.75.75 0 01.45-.8c.3-.13.78-.28 1.1-.27 1.05.06 1.67.25 1.67 1 0 .35-.28.68-.24.69.47 0 .9-.37.9-.78l.02-.29c.17.18.33.55.33.72 0 .4-.18 1.1-.3 1.35-.1.2-.25.3.1.24 1.32-.28 1.68-1.9 1.68-2.48 0-2.23-1.77-2.74-1.76-2.76.83-.18 1.58.46 1.86 1.16.03.18.14.03.14.03s.17-.14 0-.89c-.33-1.28-1.28-1.78-2.97-1.97-2.8-.14-2.68-3.16-.93-3.46 3.97-.46 5.1 2.01 5.1 2.01s3.32 5.4-5.76 12.42a38.6 38.6 0 00-9.56 11.17c-1.37 2.46-4.82 7.92 1.35 18.62a22 22 0 012.3 6.86c.38 2.83-.41 3.8-.41 3.8s-1.08 1.6-2.77 1.37c-.76-.13-2.65-.92-4.58-5.6-.74-1.78-1.2-4.68-1.9-7.78-.84-3.74-1.3-5.95-1.3-9.83-.19-5.23.49-7.73.62-8.54.67.49 1.22.8 2.24.77.62.02 1.14-.12 1.67-.61.36-.4.58-.81.18-.78-2.49.49-3.35-1.76-3.3-3.59.01-.99.5-2.84.69-3.15.03.04.88 1.52 2.4 1.62.51.04.98-.1 1.64-.43.33-.14.76-.54.51-.6-2.9.02-3.13-2.33-3.13-2.33s-.64-1.45.1-3.35c.09-.21.17-.44.31-.5.33.24 1.02.78 2.05.67.71-.11 1.14-.25 1.5-.7.5-.47.03-.35-.2-.4-1.56.17-2.42-.91-2.82-2.13-.53-1.6-.1-2.35-.1-2.35s.67.36 1.45.3c.5-.04.95-.16 1.34-.6.08-.1.16-.28.01-.28-1.22.1-1.8-.46-2.25-1.22a3.7 3.7 0 01-.45-1.43c0-.19 0-.4.1-.6 1.56-.12 1.9-1.32 1.82-1.38-.26-.21-.55.27-1.34.27-1.02 0-1.01-1.14-1.18-1.78-.17-.43-.43-1-.69-1.16"/>
      <path d="M108.74 63.47s.5-.41.84-.54c.18-.07 1.8-.74 2.58-.17 1.08.77.21 2.72.16 2.88"/>
      <path d="M108.74 63.47l.05-.06.16-.15.27-.2.18-.13.22-.12a5.4 5.4 0 011.67-.45c.23 0 .45.03.69.1.11.04.22.1.33.19l.06.04.07.07.12.13a1.83 1.83 0 01.3 1.23c-.01.2-.06.36-.1.53a3.5 3.5 0 01-.26.73l-.1.2-.04.06-.04-.02.08-.28c.04-.18.11-.44.15-.75.03-.15.04-.31.05-.49 0-.17-.01-.36-.06-.53a1.25 1.25 0 00-.22-.48l-.1-.1a.06.06 0 00-.04-.05l-.06-.04a1.14 1.14 0 00-.24-.13 1.51 1.51 0 00-.56-.09c-.2 0-.4.02-.59.05l-.55.11-.48.14a.6.6 0 00-.2.08c-.07.03-.13.05-.18.09a6.67 6.67 0 00-.58.32zm11.71 53.32c-1.35-.2-1.98-.66-2.07-1.8-.11-1.27.34-1.74 1.11-2.02.38.29 4.16-.26 4.48-.49 1.01.05 1.89.3 2.02 1.73.1.94-.6 1.71-1.7 2.2-.39.25-2.54.67-3.84.38z"/>
      <path fill="#fff" d="M104.91 64.25c-.13.15-.44.2-.8.24-.37.04-.73.02-.8-.16-.07-.12.15-.74.4-.74.24-.02.87.4 1.2.66z"/>
    </g>
    <path class="pseudostroke" fill="#000" stroke-width=".113" d="m 111.3,62.98 -0.18,0.02 -0.2,0.04 -0.26,0.05 -0.3,0.1 -0.3,0.15 -0.32,0.18 -0.3,0.22 -0.14,0.12 -0.13,0.14 -0.13,0.13 -0.1,0.14 c 0,0.02 -0.03,0.04 -0.04,0.06 a 0.62,0.62 0 0 1 -0.05,0.08 0.23,0.23 0 0 1 -0.04,0.07 l -0.04,0.08 -0.09,0.28 v 0.25 a 0.5,0.5 0 0 0 0.05,0.17 l 0.09,0.08 a 0.1,0.1 0 0 0 0.04,0 v 0.04 h -0.05 a 0.22,0.22 0 0 1 -0.14,-0.06 0.44,0.44 0 0 1 -0.1,-0.2 0.73,0.73 0 0 1 -0.04,-0.29 c 0,-0.1 0.02,-0.21 0.06,-0.32 l 0.04,-0.1 0.03,-0.08 a 0.37,0.37 0 0 1 0.05,-0.1 l 0.04,-0.07 0.12,-0.17 0.12,-0.16 0.14,-0.13 0.15,-0.14 0.34,-0.22 a 4.15,4.15 0 0 1 0.7,-0.3 l 0.31,-0.07 0.27,-0.03 c 0.08,0 0.15,0 0.2,0.02 l 0.2,0.03 z m 0.06,2.82 h 0.02 l 0.06,-0.05 c 0.02,-0.02 0.04,-0.05 0.08,-0.07 l 0.09,-0.1 0.09,-0.12 0.09,-0.15 0.08,-0.17 0.06,-0.18 0.07,-0.18 0.06,-0.18 c 0.03,-0.12 0.06,-0.23 0.1,-0.32 l 0.1,-0.33 h 0.03 c 0,0 0.03,0.14 0.02,0.35 0,0.1 -0.03,0.23 -0.05,0.35 0,0.07 -0.02,0.14 -0.04,0.2 l -0.07,0.2 a 1.93,1.93 0 0 1 -0.31,0.53 l -0.14,0.13 -0.12,0.08 a 0.71,0.71 0 0 1 -0.12,0.04 l -0.06,0.01 -0.04,-0.03 z m -12.82,-0.94 -0.03,0.08 -0.05,0.08 -0.07,0.07 -0.08,0.05 -0.15,0.1 -0.13,0.1 h -0.01 l -0.1,0.09 -0.04,0.04 -0.03,0.05 -0.07,0.1 -0.02,0.05 -0.02,0.06 -0.3,-0.16 0.06,-0.06 a 6.63,6.63 0 0 0 0.17,-0.17 l 0.07,-0.05 0.07,-0.04 c 0.04,-0.04 0.1,-0.05 0.14,-0.07 v 0 l 0.16,-0.07 0.17,-0.05 0.08,-0.04 a 0.23,0.23 0 0 0 0.07,-0.04 l 0.05,-0.06 0.06,-0.07 z m 7.44,4.46 c 0,0 0.05,0 0.1,0.04 0.06,0.03 0.1,0.09 0.14,0.16 l 0.03,0.1 v 0.1 c 0,0.06 -0.03,0.1 -0.03,0.1 l -0.04,0.01 c 0,0 -0.04,-0.02 -0.06,-0.06 a 0.28,0.28 0 0 0 -0.06,-0.07 l -0.04,-0.08 c -0.01,-0.03 -0.03,-0.05 -0.03,-0.09 v -0.09 c -0.02,-0.07 0,-0.11 0,-0.12 z m -0.78,-0.34 h 0.04 l 0.09,0.02 0.11,0.06 c 0.04,0.03 0.07,0.05 0.1,0.1 l 0.05,0.06 0.03,0.06 0.02,0.07 c 0.02,0.02 0.02,0.05 0.02,0.06 l -0.01,0.12 -0.04,0.01 -0.09,-0.08 -0.07,-0.07 -0.06,-0.1 a 0.43,0.43 0 0 1 -0.06,-0.1 l -0.05,-0.08 -0.04,-0.08 -0.03,-0.05 z m -0.41,6.87 -0.11,0.07 -0.14,0.08 -0.16,0.1 -0.18,0.13 -0.2,0.16 c -0.13,0.11 -0.28,0.24 -0.45,0.36 l -0.26,0.17 c -0.09,0.06 -0.18,0.1 -0.27,0.14 l -0.26,0.09 -0.23,0.05 -0.2,0.03 h -0.16 c -0.1,0 -0.14,-0.02 -0.14,-0.02 v -0.05 l 0.12,-0.06 c 0.04,0 0.09,-0.03 0.14,-0.05 l 0.18,-0.08 c 0.07,-0.02 0.14,-0.07 0.2,-0.1 l 0.23,-0.1 0.11,-0.07 0.12,-0.07 0.22,-0.16 0.47,-0.32 0.24,-0.14 0.11,-0.05 0.11,-0.05 0.2,-0.05 0.16,-0.03 h 0.14 z m -0.35,-11.11 c 0,0 -0.02,0 -0.06,0.04 l -0.06,0.05 a 0.36,0.36 0 0 1 -0.08,0.05 l -0.1,0.07 -0.1,0.08 a 0.88,0.88 0 0 0 -0.12,0.09 l -0.1,0.09 -0.12,0.09 a 0.42,0.42 0 0 1 -0.11,0.09 l -0.2,0.17 c -0.1,0.1 -0.2,0.17 -0.2,0.17 l -0.03,-0.02 c 0,0 0.03,-0.1 0.11,-0.24 a 1.68,1.68 0 0 1 0.64,-0.6 0.66,0.66 0 0 1 0.14,-0.06 0.57,0.57 0 0 1 0.12,-0.05 0.76,0.76 0 0 1 0.2,-0.03 z m 3.76,21.18 c 0,0 -0.01,-0.06 -0.06,-0.17 a 0.92,0.92 0 0 1 -0.04,-0.2 c -0.03,-0.09 -0.02,-0.18 -0.02,-0.28 l 0.06,-0.33 0.1,-0.33 0.12,-0.35 0.05,-0.18 0.05,-0.18 0.03,-0.18 0.02,-0.18 c 0.02,-0.06 0.02,-0.12 0.02,-0.17 V 83.2 c -0.02,-0.11 -0.02,-0.22 -0.05,-0.33 -0.02,-0.1 -0.03,-0.2 -0.07,-0.29 a 3.19,3.19 0 0 1 -0.08,-0.25 l -0.07,-0.18 -0.07,-0.16 0.04,-0.04 0.12,0.14 0.12,0.17 a 2.22,2.22 0 0 1 0.26,0.54 c 0.05,0.11 0.07,0.23 0.09,0.36 l 0.01,0.19 v 0.2 c 0,0.07 0,0.14 -0.02,0.2 l -0.05,0.2 c -0.03,0.14 -0.06,0.27 -0.12,0.39 l -0.14,0.35 A 8.5,8.5 0 0 1 108.36,85 l -0.03,0.08 c -0.01,0.03 -0.01,0.05 -0.03,0.07 0,0.05 -0.03,0.1 -0.04,0.14 l -0.03,0.12 -0.01,0.06 c 0,0.02 0,0.03 -0.02,0.05 0,0.07 -0.02,0.14 0,0.2 0.03,0.14 0.03,0.2 0.02,0.2 z m -1.67,19.94 c 0,0 0.1,0.1 0.24,0.31 0.08,0.1 0.16,0.24 0.25,0.38 0.1,0.15 0.19,0.33 0.3,0.52 l 0.32,0.63 c 0.1,0.23 0.21,0.46 0.31,0.72 a 12.51,12.51 0 0 1 0.65,2.04 l 0.1,0.43 0.07,0.41 0.07,0.4 c 0.03,0.28 0.07,0.54 0.08,0.78 l 0.02,0.36 v 0.94 l -0.02,0.25 -0.02,0.21 -0.06,0.4 h -0.05 l -0.01,-0.4 v -0.2 l -0.01,-0.25 -0.02,-0.28 -0.02,-0.3 -0.03,-0.34 -0.05,-0.35 c -0.02,-0.25 -0.07,-0.5 -0.1,-0.76 l -0.17,-0.81 -0.09,-0.42 a 7.3,7.3 0 0 0 -0.1,-0.42 7.3,7.3 0 0 0 -0.12,-0.41 l -0.12,-0.4 a 7.38,7.38 0 0 1 -0.13,-0.4 l -0.13,-0.38 a 16.84,16.84 0 0 0 -0.4,-1.05 l -0.13,-0.3 c -0.1,-0.2 -0.16,-0.38 -0.24,-0.53 -0.08,-0.16 -0.13,-0.3 -0.2,-0.4 a 5.46,5.46 0 0 1 -0.18,-0.38 z M 97.36,65.1 97.31,65.02 a 0.44,0.44 0 0 1 -0.04,-0.26 c 0.02,-0.06 0.03,-0.12 0.07,-0.2 a 0.31,0.31 0 0 1 0.23,-0.13 h 0.12 c 0.02,0.02 0.06,0.02 0.08,0.03 l 0.06,0.03 0.15,0.1 0.1,0.01 h 0.1 a 0.4,0.4 0 0 0 0.12,-0.08 c 0.05,-0.03 0.1,-0.07 0.2,-0.1 h 0.08 l 0.04,0.02 c 0.01,0 0.03,0 0.04,0.02 0.06,0.03 0.08,0.07 0.1,0.1 l 0.03,0.08 v 0.02 l -0.05,0.02 c 0,0 0,0 0,0 l -0.05,-0.04 c -0.03,-0.01 -0.05,-0.02 -0.07,-0.01 h -0.06 0.02 l -0.01,0.01 c -0.03,0.02 -0.04,0.06 -0.06,0.08 a 0.59,0.59 0 0 1 -0.15,0.15 0.53,0.53 0 0 1 -0.24,0.08 l -0.14,-0.01 a 0.38,0.38 0 0 1 -0.12,-0.05 l -0.17,-0.11 -0.02,-0.01 v -0.01 l -0.04,-0.01 h -0.02 v 0 h -0.06 c -0.03,0.03 -0.06,0.05 -0.08,0.09 a 0.52,0.52 0 0 0 -0.08,0.19 l -0.01,0.09 z m 4.63,1.1 -0.08,-0.03 -0.1,-0.05 -0.1,-0.04 a 0.66,0.66 0 0 0 -0.14,-0.06 l -0.14,-0.07 c -0.06,-0.02 -0.1,-0.03 -0.16,-0.07 a 0.95,0.95 0 0 0 -0.17,-0.05 0.95,0.95 0 0 0 -0.17,-0.06 0.64,0.64 0 0 1 -0.16,-0.05 l -0.29,-0.1 c -0.17,-0.04 -0.3,-0.1 -0.3,-0.1 v -0.03 h 0.47 l 0.17,0.03 c 0.06,0 0.11,0.02 0.18,0.04 l 0.18,0.06 c 0.06,0.02 0.11,0.04 0.17,0.08 a 0.5,0.5 0 0 1 0.16,0.09 1,1 0 0 0 0.14,0.09 l 0.13,0.09 c 0.08,0.05 0.12,0.11 0.16,0.15 z m -3.25,-1.07 v 0.03 c 0,0.03 0,0.06 -0.02,0.1 0,0.02 0,0.04 -0.02,0.06 0,0.02 -0.02,0.05 -0.04,0.06 l -0.06,0.06 c -0.02,0 -0.03,0.02 -0.05,0.04 -0.05,0.02 -0.08,0.05 -0.13,0.06 l -0.11,0.03 -0.12,0.01 -0.03,-0.03 0.07,-0.1 a 0.27,0.27 0 0 1 0.1,-0.08 l 0.1,-0.07 0.1,-0.04 0.04,-0.02 0.04,-0.03 c 0.02,0 0.03,0 0.04,-0.02 l 0.03,-0.02 c 0.04,-0.04 0.05,-0.05 0.06,-0.04 z m 6.18,1.32 v 0.02 l -0.03,0.03 -0.07,0.03 h -0.07 a 0.21,0.21 0 0 1 -0.1,-0.06 l -0.03,-0.06 0.01,-0.02 0.06,-0.02 0.04,-0.01 0.05,0.01 0.04,0.02 0.02,0.01 v 0.02 c 0.02,0 0.04,0 0.04,0.02 l 0.05,0.01 z m 0.64,-0.15 -0.05,0.05 -0.06,0.02 h -0.08 a 0.15,0.15 0 0 1 -0.06,-0.02 l -0.06,-0.04 c -0.03,-0.02 -0.04,-0.05 -0.04,-0.05 v -0.03 c 0,0 0.03,-0.02 0.08,-0.02 h 0.11 l 0.06,0.01 0.05,0.04 c 0.04,0 0.06,0.03 0.06,0.04 z m 0.58,-0.28 c 0,0 -0.01,0.03 -0.05,0.06 l -0.05,0.03 -0.08,0.01 h -0.07 a 0.08,0.08 0 0 1 -0.05,-0.03 0.17,0.17 0 0 1 -0.06,-0.05 v -0.02 l 0.06,-0.04 c 0,-0.02 0.03,-0.02 0.05,-0.03 h 0.06 a 0.1,0.1 0 0 1 0.06,0 l 0.05,0.03 c 0.06,0 0.08,0.03 0.08,0.04 z m 0.47,-0.36 -0.04,0.06 c -0.02,0 -0.03,0.03 -0.05,0.03 a 0.15,0.15 0 0 1 -0.07,0.02 h -0.12 a 0.15,0.15 0 0 1 -0.06,-0.04 v -0.02 l 0.06,-0.05 a 0.1,0.1 0 0 1 0.06,-0.02 l 0.05,-0.01 h 0.12 c 0.02,0 0.05,0.02 0.05,0.03 z m 0.44,-0.34 -0.06,0.05 c -0.02,0 -0.04,0 -0.05,0.02 l -0.06,0.01 h -0.05 l -0.06,-0.01 a 0.15,0.15 0 0 1 -0.06,-0.03 v -0.03 l 0.06,-0.04 a 0.1,0.1 0 0 1 0.06,-0.02 l 0.07,-0.01 h 0.07 c 0.03,0 0.05,0.03 0.06,0.03 z m -4.19,2.6 0.02,0.05 v 0.12 l -0.01,0.08 -0.04,0.09 a 0.78,0.78 0 0 1 -0.43,0.38 c -0.1,0.04 -0.16,0.02 -0.16,0.02 l -0.01,-0.03 0.1,-0.12 a 0.98,0.98 0 0 0 0.11,-0.11 l 0.11,-0.13 0.11,-0.12 0.1,-0.11 a 0.34,0.34 0 0 0 0.07,-0.1 l 0.04,-0.02 z m 4.44,2.4 0.11,-0.23 a 0.47,0.47 0 0 1 0.06,-0.1 l 0.08,-0.11 0.1,-0.11 a 0.27,0.27 0 0 1 0.11,-0.1 1.54,1.54 0 0 1 0.36,-0.24 l 0.11,-0.05 0.24,-0.07 v 0.03 l -0.17,0.17 -0.09,0.08 c -0.03,0.02 -0.07,0.04 -0.1,0.08 l -0.21,0.18 -0.12,0.09 -0.1,0.09 -0.1,0.08 -0.09,0.08 c -0.09,0.09 -0.18,0.14 -0.18,0.13 z m 2.47,-1.66 0.06,-0.06 c 0.02,-0.03 0.03,-0.05 0.07,-0.08 a 0.25,0.25 0 0 1 0.08,-0.1 l 0.09,-0.13 c 0.03,-0.04 0.05,-0.09 0.09,-0.13 l 0.09,-0.16 0.07,-0.16 c 0.06,-0.1 0.1,-0.22 0.14,-0.32 0.01,-0.06 0.03,-0.1 0.06,-0.16 0,-0.06 0.03,-0.1 0.04,-0.15 0.06,-0.18 0.08,-0.3 0.08,-0.3 h 0.03 c 0,0 0.02,0.03 0.02,0.1 v 0.23 c 0,0.1 -0.01,0.21 -0.04,0.33 l -0.05,0.18 a 0.88,0.88 0 0 1 -0.08,0.18 l -0.1,0.18 -0.11,0.16 a 0.58,0.58 0 0 1 -0.13,0.14 1.87,1.87 0 0 1 -0.24,0.2 l -0.08,0.03 -0.08,0.03 z m 1.54,0.21 0.03,0.09 V 69 c 0.02,0.01 0.02,0.03 0.03,0.05 l 0.02,0.04 0.04,0.06 0.08,0.11 0.1,0.12 0.11,0.14 0.12,0.16 c 0.05,0.05 0.08,0.1 0.12,0.17 l 0.08,0.19 0.04,0.2 c 0.01,0.07 0,0.12 -0.01,0.18 a 0.54,0.54 0 0 1 -0.05,0.15 c 0,0.04 -0.03,0.06 -0.04,0.1 a 0.43,0.43 0 0 1 -0.06,0.08 l -0.04,-0.03 -0.01,-0.09 -0.01,-0.1 -0.01,-0.12 a 1.78,1.78 0 0 0 -0.1,-0.26 c -0.01,-0.04 -0.05,-0.09 -0.07,-0.13 l -0.1,-0.15 -0.11,-0.16 -0.1,-0.16 c -0.04,-0.06 -0.06,-0.12 -0.08,-0.17 a 0.55,0.55 0 0 1 -0.05,-0.17 v -0.16 l 0.01,-0.06 c 0,-0.03 0.02,-0.04 0.02,-0.05 l 0.05,-0.07 z m -9.41,-3.07 -0.2,-0.06 -0.1,-0.04 -0.1,-0.03 -0.2,-0.08 a 1.2,1.2 0 0 1 -0.22,-0.09 l -0.1,-0.04 -0.1,-0.05 -0.17,-0.1 v -0.04 h 0.32 l 0.12,0.03 a 1.87,1.87 0 0 1 0.46,0.2 l 0.1,0.06 0.08,0.07 c 0.08,0.09 0.12,0.16 0.12,0.17 z m 1.57,9.23 0.26,-0.04 0.27,-0.03 h 0.27 l 0.27,0.01 c 0.18,0.02 0.35,0.04 0.52,0.04 h 0.12 l 0.12,-0.01 0.1,-0.02 a 0.18,0.18 0 0 0 0.08,-0.05 l -0.04,0.02 0.14,-0.14 0.05,-0.07 0.02,-0.02 v -0.01 l 0.02,-0.04 0.01,-0.06 V 74.1 l 0.01,-0.21 a 0.7,0.7 0 0 1 0.06,-0.25 c 0.03,-0.08 0.07,-0.13 0.09,-0.2 l 0.17,-0.37 0.07,-0.2 0.05,-0.18 c 0.03,-0.07 0.04,-0.14 0.05,-0.2 l 0.03,-0.2 0.03,-0.21 0.02,-0.21 h 0.05 l 0.04,0.21 0.02,0.21 v 0.22 l -0.01,0.21 -0.03,0.22 -0.06,0.21 a 3.1,3.1 0 0 1 -0.14,0.4 c -0.03,0.07 -0.06,0.13 -0.07,0.19 l -0.02,0.15 -0.02,0.2 v 0.55 c -0.02,0.04 -0.02,0.1 -0.05,0.13 a 0.81,0.81 0 0 1 -0.15,0.22 l -0.15,0.15 -0.02,0.02 v 0 c -0.06,0.03 -0.1,0.06 -0.16,0.07 -0.06,0.03 -0.1,0.03 -0.16,0.04 h -0.15 l -0.14,-0.01 -0.27,-0.05 -0.26,-0.05 -0.5,-0.1 -0.27,-0.04 c -0.09,0 -0.18,0 -0.25,-0.02 z m -4.25,-10.8 0.13,-0.06 0.16,-0.05 0.2,-0.1 0.22,-0.1 0.25,-0.14 0.27,-0.14 c 0.09,-0.05 0.19,-0.1 0.3,-0.14 l 0.02,-0.01 h 0.03 l 0.03,-0.01 0.08,-0.01 0.16,-0.04 0.3,-0.05 0.54,-0.1 0.53,-0.05 0.01,0.04 c 0,0 -0.2,0.08 -0.5,0.17 l -0.53,0.14 -0.3,0.07 -0.15,0.03 -0.08,0.03 h -0.05 l -0.02,0.02 -0.27,0.11 -0.28,0.14 a 2.64,2.64 0 0 1 -0.51,0.19 l -0.22,0.05 c -0.06,0.02 -0.12,0 -0.17,0.02 h -0.14 z m 10.07,9.6 -0.1,-0.05 c -0.01,-0.02 -0.06,-0.03 -0.1,-0.07 l -0.12,-0.1 -0.1,-0.18 -0.05,-0.1 -0.04,-0.11 c 0,-0.03 0,-0.08 -0.02,-0.11 l -0.01,-0.12 v -0.22 l 0.01,-0.2 v -0.28 c -0.02,-0.02 -0.02,-0.05 -0.03,-0.07 l -0.02,-0.08 a 0.1,0.1 0 0 1 -0.03,-0.07 l -0.06,-0.12 a 0.87,0.87 0 0 1 -0.06,-0.09 l -0.06,-0.09 0.04,-0.05 0.1,0.05 c 0.03,0.02 0.07,0.03 0.11,0.07 l 0.13,0.11 c 0.03,0.04 0.09,0.1 0.12,0.17 l 0.05,0.1 0.03,0.11 0.02,0.12 a 0.4,0.4 0 0 1 0.01,0.1 V 73 c 0,0.06 -0.02,0.13 0,0.19 v 0.17 c 0,0.03 0.02,0.05 0.03,0.08 0,0.02 0,0.05 0.02,0.08 0.02,0.04 0.03,0.09 0.06,0.12 0,0.05 0.04,0.08 0.05,0.1 0.02,0.05 0.04,0.08 0.03,0.1 z m 0.26,2.52 0.05,0.12 0.07,0.12 c 0.02,0.05 0.07,0.1 0.1,0.15 l 0.15,0.16 c 0.04,0.06 0.11,0.11 0.17,0.18 l 0.38,0.4 c 0.06,0.08 0.13,0.16 0.17,0.24 0.06,0.08 0.1,0.17 0.15,0.25 0.08,0.17 0.13,0.34 0.17,0.47 0,0.07 0.02,0.14 0.03,0.2 L 111,78.8 v 0.14 h -0.05 l -0.06,-0.12 -0.05,-0.13 a 0.67,0.67 0 0 1 -0.08,-0.17 2.84,2.84 0 0 1 -0.1,-0.19 1.88,1.88 0 0 0 -0.13,-0.2 l -0.14,-0.22 -0.17,-0.2 c -0.11,-0.16 -0.24,-0.29 -0.34,-0.44 l -0.14,-0.22 c -0.05,-0.07 -0.08,-0.15 -0.12,-0.22 l -0.05,-0.2 -0.03,-0.16 c 0,-0.07 0,-0.12 0.02,-0.12 z m -0.58,3.73 -0.1,-0.08 c -0.03,0 -0.04,-0.02 -0.07,-0.04 l -0.05,-0.06 -0.11,-0.11 -0.1,-0.11 -0.07,-0.13 -0.07,-0.12 a 0.66,0.66 0 0 1 -0.06,-0.13 c 0,-0.05 -0.03,-0.1 -0.04,-0.14 l -0.03,-0.13 -0.03,-0.14 -0.03,-0.27 v -0.27 l 0.02,-0.27 0.05,-0.06 -0.04,0.03 v 0.03 0 -0.04 l -0.02,-0.06 a 0.39,0.39 0 0 0 -0.02,-0.11 1.15,1.15 0 0 0 -0.16,-0.42 l -0.03,-0.04 -0.03,-0.05 c -0.01,0 -0.02,-0.03 -0.05,-0.03 l -0.04,-0.03 0.02,-0.04 0.05,0.04 c 0.02,0 0.03,0.02 0.04,0.03 l 0.05,0.05 0.04,0.04 0.12,0.2 0.1,0.23 0.03,0.11 0.01,0.06 v 0.06 l -0.01,0.04 -0.03,0.02 0.04,-0.05 v 0.26 l 0.02,0.26 0.06,0.24 0.03,0.13 0.05,0.11 a 0.2,0.2 0 0 0 0.06,0.11 c 0,0.04 0.03,0.07 0.05,0.1 l 0.07,0.1 a 0.3,0.3 0 0 0 0.08,0.1 l 0.08,0.08 c 0.02,0.03 0.06,0.04 0.09,0.06 l 0.04,0.04 0.06,0.03 0.11,0.07 z M 97.62,80.3 c 0,0 -0.07,0 -0.17,0.03 l -0.19,0.04 -0.24,0.08 -0.29,0.12 -0.14,0.08 -0.15,0.09 -0.14,0.1 -0.15,0.11 -0.28,0.25 -0.27,0.26 a 0.8,0.8 0 0 1 -0.14,0.12 l -0.15,0.11 c -0.1,0.07 -0.2,0.14 -0.32,0.2 l -0.15,0.06 A 0.78,0.78 0 0 1 94.68,82 l -0.15,0.03 -0.12,0.02 c -0.08,0.03 -0.16,0.03 -0.21,0.03 h -0.18 v -0.33 h 0.36 l 0.11,-0.01 0.12,-0.02 0.14,-0.04 c 0.04,0 0.09,-0.03 0.13,-0.04 0.1,-0.03 0.2,-0.1 0.29,-0.15 l 0.14,-0.09 0.15,-0.1 0.3,-0.25 0.3,-0.23 0.15,-0.1 0.16,-0.1 0.16,-0.07 0.16,-0.07 0.29,-0.09 0.26,-0.05 0.2,-0.03 c 0.11,0 0.17,-0.02 0.17,-0.02 z m 5.51,-1.83 -0.1,0.1 c -0.04,0.03 -0.1,0.05 -0.14,0.1 l -0.16,0.13 -0.17,0.18 -0.17,0.21 c -0.05,0.07 -0.1,0.16 -0.17,0.24 l -0.15,0.26 -0.17,0.27 -0.17,0.26 -0.19,0.24 -0.1,0.1 -0.1,0.09 -0.1,0.08 a 1.1,1.1 0 0 1 -0.16,0.1 l -0.07,0.03 -0.13,0.06 -0.03,-0.05 0.1,-0.1 c 0.02,0 0.04,-0.03 0.06,-0.05 l 0.06,-0.07 a 1.88,1.88 0 0 0 0.27,-0.36 l 0.15,-0.24 0.14,-0.25 0.16,-0.27 0.18,-0.27 c 0.07,-0.1 0.14,-0.17 0.22,-0.25 0.06,-0.08 0.14,-0.14 0.22,-0.2 0.07,-0.06 0.16,-0.1 0.23,-0.15 l 0.2,-0.1 A 0.52,0.52 0 0 1 103,78.5 c 0.09,-0.02 0.13,-0.03 0.14,-0.02 z m 9.05,-2.36 0.18,0.2 c 0.03,0.01 0.06,0.05 0.09,0.07 l 0.1,0.1 0.13,0.08 0.12,0.1 0.26,0.15 0.24,0.12 0.16,0.1 0.07,0.04 -0.2,0.27 -0.06,-0.05 -0.14,-0.12 c -0.07,-0.04 -0.14,-0.11 -0.21,-0.17 l -0.24,-0.21 a 0.53,0.53 0 0 1 -0.11,-0.11 l -0.1,-0.12 a 0.77,0.77 0 0 1 -0.1,-0.1 l -0.07,-0.1 -0.15,-0.23 z m 13.12,-8.27 v -0.02 l -0.01,-0.08 v -0.12 l 0.03,-0.16 c 0.01,-0.11 0.05,-0.24 0.08,-0.38 l 0.03,-0.12 0.05,-0.1 0.04,-0.1 0.06,-0.1 0.06,-0.1 0.06,-0.09 0.14,-0.18 0.13,-0.16 0.13,-0.13 0.11,-0.11 a 0.64,0.64 0 0 1 0.1,-0.08 l 0.12,-0.07 0.13,0.3 -0.07,0.04 -0.09,0.06 -0.1,0.09 -0.14,0.1 -0.15,0.14 -0.15,0.15 -0.06,0.08 -0.07,0.08 -0.07,0.08 -0.05,0.09 -0.06,0.09 -0.04,0.09 -0.13,0.35 c 0,0.05 -0.02,0.1 -0.03,0.14 l -0.02,0.12 v 0.1 z m 3.71,3.12 -0.23,0.01 h -0.76 l -0.12,0.01 -0.1,0.02 -0.16,0.05 -0.06,0.02 V 71.04 L 127.63,71 a 0.53,0.53 0 0 1 0.15,-0.07 0.39,0.39 0 0 0 0.1,-0.05 l 0.12,-0.03 0.14,-0.04 0.13,-0.02 0.26,-0.04 0.22,-0.05 0.2,-0.05 z m 0.15,1.88 c 0,0 -0.02,0 -0.03,0.03 l -0.04,0.1 -0.02,0.07 c -0.02,0.02 -0.02,0.04 -0.03,0.08 0,0.02 0,0.06 -0.02,0.08 l -0.01,0.09 v 0.17 l 0.02,0.14 0.04,0.14 -0.34,0.04 0.01,-0.16 0.02,-0.17 c 0,-0.04 0.01,-0.07 0.03,-0.1 0,-0.03 0.02,-0.06 0.03,-0.08 a 0.37,0.37 0 0 1 0.04,-0.1 l 0.05,-0.07 0.04,-0.08 A 0.23,0.23 0 0 0 129,72.95 l 0.08,-0.08 0.03,-0.03 z m -9.13,8.14 0.04,-0.07 a 0.56,0.56 0 0 0 0.03,-0.07 l 0.02,-0.05 0.04,-0.06 0.08,-0.12 0.1,-0.12 0.1,-0.13 0.1,-0.13 0.18,-0.27 0.07,-0.14 0.06,-0.12 0.1,-0.26 0.04,0.01 -0.07,0.29 a 0.61,0.61 0 0 1 -0.04,0.13 l -0.05,0.15 -0.14,0.3 c -0.02,0.06 -0.06,0.1 -0.08,0.15 l -0.08,0.15 -0.06,0.13 -0.05,0.11 -0.02,0.05 -0.01,0.05 -0.03,0.1 a 0.97,0.97 0 0 1 -0.02,0.07 z m 1.28,-4.81 h -0.03 l -0.1,0.05 -0.12,0.08 -0.14,0.1 -0.12,0.12 a 0.2,0.2 0 0 0 -0.05,0.05 c 0,0.03 -0.02,0.04 -0.03,0.05 l -0.04,0.08 c -0.02,0 -0.02,0.02 -0.02,0.02 l -0.29,-0.18 0.04,-0.03 0.04,-0.05 c 0.01,-0.02 0.04,-0.03 0.06,-0.04 l 0.07,-0.05 0.07,-0.04 A 1.18,1.18 0 0 1 121,76.19 c 0.06,0 0.12,-0.03 0.16,-0.03 l 0.11,-0.01 h 0.05 z m -0.97,-0.77 -0.04,-0.1 a 1.78,1.78 0 0 1 -0.03,-0.12 c -0.01,-0.05 -0.02,-0.1 -0.06,-0.16 l -0.08,-0.17 -0.1,-0.18 -0.08,-0.09 -0.07,-0.09 -0.16,-0.18 a 8.87,8.87 0 0 1 -0.33,-0.35 c -0.05,-0.05 -0.1,-0.1 -0.14,-0.17 l -0.14,-0.14 -0.26,-0.33 0.29,-0.19 0.21,0.34 0.11,0.16 c 0.05,0.05 0.08,0.11 0.13,0.18 l 0.29,0.38 0.13,0.2 0.07,0.1 0.06,0.1 0.1,0.2 0.07,0.2 0.03,0.16 0.02,0.12 0.03,0.11 z m 9.45,14.75 0.32,-0.26 0.35,-0.26 0.4,-0.28 0.41,-0.27 0.18,-0.13 0.16,-0.13 c 0.04,-0.03 0.09,-0.06 0.12,-0.1 l 0.1,-0.09 0.07,-0.07 0.24,0.24 -0.1,0.08 c -0.04,0.02 -0.07,0.06 -0.11,0.1 a 1.7,1.7 0 0 1 -0.15,0.1 l -0.18,0.1 -0.2,0.12 a 17.3,17.3 0 0 0 -0.88,0.45 l -0.37,0.21 -0.36,0.22 z m 4.68,-1.32 -0.16,0.29 a 0.9,0.9 0 0 1 -0.1,0.13 2,2 0 0 0 -0.1,0.16 l -0.12,0.16 c -0.03,0.05 -0.09,0.1 -0.13,0.15 l -0.15,0.15 -0.14,0.12 -0.15,0.12 c -0.04,0.03 -0.09,0.05 -0.13,0.09 l -0.2,0.12 -0.08,0.05 -0.03,-0.04 0.07,-0.05 0.18,-0.15 0.12,-0.1 c 0.05,-0.03 0.08,-0.08 0.13,-0.12 l 0.12,-0.14 c 0.05,-0.04 0.08,-0.1 0.12,-0.16 l 0.1,-0.15 c 0.03,-0.06 0.05,-0.12 0.09,-0.16 l 0.07,-0.16 0.06,-0.13 0.13,-0.3 z m -16.13,33.27 -0.05,0.01 -0.07,0.02 c -0.02,0.02 -0.05,0.02 -0.09,0.02 h -0.34 l -0.12,-0.01 -0.45,-0.08 -0.2,-0.04 0.09,-0.32 0.2,0.08 0.4,0.17 c 0.04,0 0.09,0.03 0.12,0.04 l 0.11,0.04 c 0.04,0 0.07,0 0.1,0.02 l 0.1,0.01 c 0.03,0 0.05,0.01 0.07,0 h 0.13 z m -8.15,-3.6 -0.05,-0.09 a 0.38,0.38 0 0 0 -0.04,-0.1 l -0.06,-0.15 a 0.81,0.81 0 0 1 -0.05,-0.18 c -0.03,-0.05 -0.04,-0.12 -0.06,-0.19 l -0.1,-0.41 -0.08,-0.43 -0.05,-0.37 -0.03,-0.27 v -0.1 h 0.03 l 0.02,0.1 0.06,0.26 c 0.02,0.1 0.05,0.22 0.1,0.36 0.03,0.13 0.09,0.27 0.13,0.4 l 0.16,0.4 0.08,0.18 0.08,0.14 c 0.02,0.05 0.04,0.1 0.07,0.13 l 0.05,0.1 0.06,0.1 z m -0.97,4.83 v 0.1 l 0.01,0.29 a 6.56,6.56 0 0 0 0.22,1.28 l 0.06,0.2 0.08,0.18 0.08,0.14 a 0.4,0.4 0 0 0 0.07,0.1 l 0.06,0.1 -0.03,0.02 -0.06,-0.08 c -0.03,-0.02 -0.05,-0.06 -0.08,-0.1 a 0.4,0.4 0 0 1 -0.1,-0.14 2.84,2.84 0 0 1 -0.2,-0.36 c -0.05,-0.13 -0.12,-0.29 -0.16,-0.44 -0.1,-0.3 -0.17,-0.61 -0.22,-0.86 l -0.04,-0.3 -0.01,-0.1 z m -1.15,16.69 v 0.08 l -0.02,0.09 c 0,0.03 0,0.08 -0.02,0.11 l -0.03,0.14 a 0.75,0.75 0 0 1 -0.06,0.14 l -0.08,0.16 -0.1,0.15 c -0.08,0.09 -0.16,0.18 -0.21,0.26 l -0.15,0.22 -0.04,0.1 a 0.22,0.22 0 0 0 -0.03,0.07 c 0,0.05 -0.02,0.07 -0.02,0.07 L 107,141.49 c 0,0 0,-0.03 0.04,-0.08 l 0.05,-0.1 0.06,-0.1 0.1,-0.1 0.12,-0.12 c 0.08,-0.08 0.17,-0.14 0.26,-0.21 a 0.51,0.51 0 0 0 0.11,-0.11 0.48,0.48 0 0 0 0.09,-0.13 l 0.07,-0.12 0.05,-0.12 0.04,-0.1 0.02,-0.1 0.02,-0.07 z m -3.6,6.44 -0.06,-0.07 -0.08,-0.08 -0.1,-0.1 -0.13,-0.11 c -0.04,-0.05 -0.1,-0.07 -0.14,-0.12 l -0.16,-0.1 c -0.06,-0.04 -0.11,-0.08 -0.17,-0.1 l -0.09,-0.03 v 0 c -0.02,0 0,0 0,0 v 0 l -0.03,-0.01 -0.05,-0.01 c -0.03,-0.01 -0.06,-0.03 -0.1,-0.03 -0.03,0 -0.05,0 -0.09,-0.02 l -0.18,-0.03 -0.17,-0.02 c -0.1,-0.01 -0.19,-0.01 -0.24,-0.03 h -0.1 l -0.01,-0.04 0.09,-0.03 a 1,1 0 0 1 0.26,-0.06 l 0.18,-0.01 c 0.06,0 0.12,-0.01 0.2,0.01 0.07,0.01 0.14,0.01 0.21,0.04 h 0.05 l 0.02,0.02 0.02,0.01 h 0.01 l 0.1,0.05 0.2,0.1 c 0.05,0.05 0.1,0.1 0.17,0.14 0.04,0.05 0.1,0.1 0.13,0.15 0.05,0.05 0.08,0.1 0.1,0.15 0.04,0.04 0.06,0.09 0.08,0.12 l 0.05,0.1 c 0.04,0.08 0.05,0.12 0.04,0.12 z m -0.71,-2.53 -0.09,0.03 -0.1,0.04 a 0.35,0.35 0 0 1 -0.12,0.07 l -0.13,0.1 -0.15,0.1 -0.15,0.12 -0.13,0.14 c -0.1,0.1 -0.17,0.2 -0.23,0.32 -0.06,0.1 -0.12,0.2 -0.16,0.3 l -0.12,0.22 -0.04,0.09 -0.28,-0.2 0.04,-0.06 0.14,-0.2 c 0.05,-0.1 0.13,-0.2 0.22,-0.3 0.1,-0.1 0.18,-0.2 0.3,-0.3 l 0.16,-0.13 0.17,-0.12 0.17,-0.09 c 0.06,-0.02 0.1,-0.05 0.16,-0.06 a 0.4,0.4 0 0 1 0.14,-0.05 0.53,0.53 0 0 0 0.1,-0.03 l 0.09,-0.03 z m -6.46,0.79 h 0.12 l 0.16,0.03 c 0.05,0 0.11,0.02 0.18,0.04 l 0.2,0.08 0.2,0.1 0.22,0.14 0.2,0.15 0.09,0.08 0.09,0.1 0.16,0.17 0.12,0.18 0.1,0.18 0.07,0.16 0.04,0.13 0.04,0.1 -0.03,0.02 -0.05,-0.1 -0.06,-0.11 -0.07,-0.15 -0.12,-0.16 -0.14,-0.15 c -0.06,-0.05 -0.1,-0.12 -0.17,-0.16 l -0.1,-0.07 -0.1,-0.07 -0.2,-0.12 c -0.06,-0.03 -0.13,-0.07 -0.2,-0.09 a 0.83,0.83 0 0 0 -0.19,-0.07 l -0.18,-0.04 -0.14,-0.03 h -0.1 c -0.03,0 -0.06,0 -0.08,0.02 h -0.04 z m 1.33,-1.38 0.1,-0.07 a 0.64,0.64 0 0 0 0.1,-0.08 l 0.14,-0.1 0.2,-0.1 c 0.06,-0.05 0.14,-0.08 0.22,-0.11 l 0.12,-0.04 0.13,-0.04 0.26,-0.03 0.26,-0.01 0.23,-0.01 c 0.08,-0.01 0.15,-0.01 0.22,-0.04 a 2.12,2.12 0 0 0 0.56,-0.25 l 0.02,0.03 -0.09,0.07 -0.1,0.08 -0.15,0.09 -0.2,0.08 -0.22,0.06 -0.25,0.05 -0.25,0.03 -0.22,0.06 -0.1,0.04 -0.1,0.05 a 0.78,0.78 0 0 0 -0.18,0.11 l -0.15,0.11 -0.12,0.1 -0.1,0.1 -0.07,0.08 z m -2.11,-3.64 0.02,0.02 0.1,0.04 c 0.03,0.03 0.07,0.05 0.12,0.07 l 0.14,0.1 0.16,0.14 c 0.05,0.05 0.11,0.1 0.15,0.17 0.04,0.06 0.1,0.13 0.13,0.2 l 0.06,0.11 0.01,0.04 0.01,0.02 0.02,0.05 0.07,0.24 0.02,0.13 c 0.02,0.03 0.02,0.07 0.02,0.1 v 0.43 a 1.3,1.3 0 0 1 -0.05,0.28 c 0,0.06 -0.02,0.1 -0.02,0.1 l -0.03,-0.01 v -0.1 c 0.02,-0.07 0.02,-0.17 0.02,-0.28 l -0.01,-0.18 -0.01,-0.1 -0.02,-0.1 c -0.01,-0.04 -0.01,-0.07 -0.03,-0.1 0,-0.04 -0.02,-0.07 -0.03,-0.1 l -0.03,-0.1 -0.05,-0.11 -0.02,-0.06 -0.05,-0.02 v -0.02 a 0.2,0.2 0 0 1 -0.06,-0.1 c -0.04,-0.06 -0.1,-0.1 -0.14,-0.15 -0.04,-0.05 -0.1,-0.09 -0.14,-0.12 -0.05,-0.05 -0.1,-0.07 -0.15,-0.1 -0.04,-0.04 -0.09,-0.05 -0.12,-0.07 l -0.1,-0.04 -0.06,-0.03 h -0.02 z m 4.47,0.66 0.04,-0.02 0.12,-0.06 0.08,-0.04 0.1,-0.05 0.17,-0.11 c 0.13,-0.08 0.24,-0.17 0.33,-0.24 l 0.11,-0.09 0.05,-0.03 0.14,0.3 -0.04,0.01 -0.12,0.06 -0.4,0.16 -0.21,0.07 c -0.03,0 -0.07,0 -0.1,0.02 l -0.1,0.02 -0.13,0.02 c -0.03,0 -0.05,0.02 -0.05,0.02 z m 3.8,-8.63 c 0,0 -0.01,-0.3 -0.05,-0.73 l -0.09,-0.74 a 6.92,6.92 0 0 0 -0.08,-0.42 6.02,6.02 0 0 0 -0.07,-0.43 l -0.1,-0.42 -0.12,-0.4 a 6.68,6.68 0 0 0 -0.21,-0.7 l -0.1,-0.3 -0.08,-0.21 -0.08,-0.18 0.3,-0.14 0.07,0.2 0.07,0.23 c 0.02,0.1 0.06,0.18 0.1,0.3 0.01,0.1 0.05,0.22 0.08,0.34 l 0.1,0.4 c 0.01,0.13 0.05,0.27 0.07,0.41 l 0.07,0.44 0.05,0.44 0.05,0.43 0.04,0.75 v 0.74 z m -0.71,9.69 c 0,0 0.06,-0.08 0.13,-0.23 0.08,-0.14 0.17,-0.36 0.26,-0.63 0.1,-0.27 0.17,-0.58 0.25,-0.92 l 0.1,-0.53 a 7.87,7.87 0 0 0 0.1,-0.82 v -0.18 c 0,0 0,-0.01 0,0 0,0 0,0.02 0.04,0.03 h 0.06 -0.02 0.04 c 0.01,-0.02 0,0 0.01,0 h -0.01 l -0.02,0.06 -0.04,0.13 -0.05,0.26 a 4.56,4.56 0 0 1 -0.65,1.53 l -0.13,0.14 a 0.28,0.28 0 0 0 -0.04,0.06 l -0.02,-0.02 0.13,-0.23 a 5.07,5.07 0 0 0 0.52,-1.53 l 0.04,-0.27 0.04,-0.14 0.02,-0.08 0.02,-0.05 h 0.02 v -0.03 l 0.04,-0.02 0.02,-0.01 h 0.08 c 0.05,0.02 0.06,0.05 0.07,0.07 l 0.02,0.06 c 0.02,0.04 0.02,0.06 0.02,0.1 v 0.14 l -0.03,0.3 a 8.3,8.3 0 0 1 -0.53,2.02 c -0.1,0.26 -0.23,0.47 -0.33,0.6 l -0.13,0.15 c 0,0.04 0,0.05 -0.02,0.05 z m -2.07,-23 a 15.75,15.75 0 0 0 0.07,0.63 l 0.05,0.44 0.08,0.5 0.12,0.57 a 11.48,11.48 0 0 0 0.37,1.17 c 0.04,0.09 0.08,0.2 0.13,0.28 l 0.15,0.28 c 0.04,0.1 0.1,0.18 0.15,0.26 0.04,0.1 0.1,0.17 0.15,0.25 l 0.17,0.22 0.1,0.1 0.08,0.1 c 0.13,0.1 0.26,0.2 0.4,0.27 0.14,0.06 0.29,0.12 0.41,0.21 a 0.6,0.6 0 0 1 0.15,0.15 l 0.06,0.06 c 0,0.03 0.02,0.05 0.03,0.07 l 0.1,0.2 a 0.2,0.2 0 0 1 0.01,0.08 l -0.04,0.03 -0.05,-0.07 a 0.62,0.62 0 0 0 -0.12,-0.17 l -0.04,-0.06 c -0.03,0 -0.04,-0.03 -0.06,-0.05 l -0.14,-0.1 c -0.1,-0.06 -0.23,-0.1 -0.39,-0.15 a 1.55,1.55 0 0 1 -0.48,-0.26 c -0.05,-0.02 -0.08,-0.06 -0.11,-0.1 l -0.12,-0.1 -0.1,-0.11 a 4.36,4.36 0 0 1 -0.45,-0.66 c -0.1,-0.2 -0.2,-0.37 -0.29,-0.59 a 7.1,7.1 0 0 1 -0.45,-2.36 c -0.01,-0.65 0.06,-1.08 0.06,-1.08 z m 5.07,8.36 0.05,0.2 0.07,0.22 0.05,0.12 0.08,0.14 a 0.9,0.9 0 0 1 0.1,0.13 l 0.1,0.14 a 7.28,7.28 0 0 1 0.6,0.57 l 0.17,0.17 c 0.04,0.07 0.1,0.12 0.15,0.2 0.09,0.14 0.15,0.3 0.2,0.44 0.04,0.16 0.08,0.32 0.1,0.46 l 0.01,0.43 v 0.35 a 1.06,1.06 0 0 0 0.08,0.4 l 0.05,0.1 0.06,0.13 0.03,0.05 -0.05,0.03 -0.04,-0.03 -0.12,-0.12 a 0.6,0.6 0 0 1 -0.06,-0.09 l -0.07,-0.1 c -0.05,-0.1 -0.1,-0.2 -0.11,-0.32 a 4.09,4.09 0 0 1 -0.05,-0.39 c 0,-0.12 -0.02,-0.25 -0.04,-0.39 a 2.13,2.13 0 0 0 -0.28,-0.75 1.73,1.73 0 0 0 -0.26,-0.33 l -0.3,-0.31 a 2.48,2.48 0 0 1 -0.37,-0.5 l -0.07,-0.17 a 0.95,0.95 0 0 1 -0.06,-0.16 l -0.03,-0.15 c -0.01,-0.09 -0.01,-0.18 -0.03,-0.25 l 0.05,-0.21 z m -10.7,22.28 0.04,-0.1 0.1,-0.29 c 0.02,-0.05 0.06,-0.1 0.08,-0.18 l 0.1,-0.19 0.14,-0.2 c 0.04,-0.07 0.1,-0.13 0.15,-0.19 l 0.17,-0.18 0.1,-0.08 0.08,-0.08 0.18,-0.13 0.17,-0.11 0.16,-0.08 0.12,-0.06 a 0.66,0.66 0 0 1 0.12,-0.04 l 0.06,0.21 -0.1,0.03 -0.1,0.05 -0.15,0.07 a 0.56,0.56 0 0 0 -0.17,0.09 c -0.06,0.03 -0.13,0.06 -0.18,0.11 l -0.1,0.07 -0.08,0.06 -0.18,0.16 c -0.06,0.06 -0.12,0.11 -0.16,0.18 a 1,1 0 0 0 -0.14,0.18 l -0.1,0.18 c -0.04,0.06 -0.08,0.11 -0.1,0.17 -0.06,0.11 -0.11,0.2 -0.13,0.27 -0.02,0.07 -0.05,0.1 -0.05,0.1 z m 5.98,-0.06 0.01,-0.1 0.01,-0.27 0.02,-0.18 0.04,-0.2 0.05,-0.22 0.1,-0.21 0.1,-0.2 0.14,-0.18 0.14,-0.16 c 0.04,-0.05 0.09,-0.1 0.13,-0.12 l 0.13,-0.1 c 0.03,-0.03 0.06,-0.06 0.1,-0.07 a 0.33,0.33 0 0 1 0.09,-0.06 l 0.12,0.2 -0.08,0.04 -0.1,0.05 a 0.36,0.36 0 0 1 -0.12,0.08 l -0.13,0.1 -0.15,0.14 -0.14,0.16 c -0.04,0.05 -0.09,0.11 -0.12,0.18 a 3.1,3.1 0 0 0 -0.1,0.19 c -0.02,0.07 -0.06,0.12 -0.07,0.2 l -0.05,0.18 -0.04,0.17 -0.03,0.26 -0.01,0.1 z m -8.52,-5.41 c 0,0 0.07,-0.16 0.23,-0.37 0.03,-0.06 0.09,-0.1 0.13,-0.17 l 0.17,-0.17 c 0.04,-0.02 0.06,-0.06 0.1,-0.09 l 0.1,-0.08 0.2,-0.16 0.23,-0.13 c 0.08,-0.05 0.16,-0.08 0.24,-0.11 0.08,-0.04 0.16,-0.06 0.22,-0.1 0.07,-0.03 0.15,-0.04 0.2,-0.05 0.07,0 0.13,-0.03 0.19,-0.04 l 0.13,-0.03 c 0.08,0 0.13,-0.02 0.13,-0.02 l 0.02,0.23 h -0.11 l -0.14,0.02 a 0.45,0.45 0 0 0 -0.17,0.03 l -0.2,0.05 -0.21,0.07 -0.23,0.09 c -0.08,0.03 -0.16,0.06 -0.22,0.1 l -0.22,0.14 -0.1,0.07 -0.09,0.08 c -0.07,0.05 -0.11,0.1 -0.17,0.16 l -0.14,0.14 c -0.17,0.2 -0.25,0.35 -0.25,0.35 z m 15.31,-3.02 c 0,0 0.04,0.1 0.07,0.25 l 0.03,0.12 0.03,0.15 0.02,0.16 0.01,0.16 v 0.15 c -0.02,0.06 -0.02,0.1 -0.02,0.15 l -0.03,0.14 a 0.53,0.53 0 0 1 -0.05,0.12 0.57,0.57 0 0 1 -0.07,0.17 c 0,0.04 -0.02,0.07 -0.02,0.07 h -0.02 l 0.01,-0.07 0.05,-0.18 c 0,-0.03 0,-0.08 0.02,-0.12 l 0.01,-0.14 v -0.2 l -0.01,-0.08 -0.02,-0.15 a 0.61,0.61 0 0 0 -0.05,-0.13 1.78,1.78 0 0 0 -0.03,-0.12 c -0.01,-0.05 -0.03,-0.08 -0.05,-0.12 l -0.1,-0.23 z M 76.43,94.02 c 0,0 -0.03,0.01 -0.06,0.05 l -0.07,0.04 -0.09,0.06 a 0.95,0.95 0 0 1 -0.1,0.06 l -0.13,0.07 -0.14,0.06 -0.14,0.04 c -0.2,0.06 -0.4,0.07 -0.55,0.07 h -0.18 l -0.07,-0.01 -0.01,-0.02 0.07,-0.01 0.18,-0.01 c 0.14,-0.01 0.33,-0.06 0.51,-0.14 0.05,0 0.1,-0.04 0.13,-0.05 L 75.9,94.16 76,94.09 a 0.6,0.6 0 0 0 0.1,-0.07 l 0.07,-0.05 0.06,-0.06 0.04,-0.04 z m -9.12,-1.25 0.05,-0.09 0.04,-0.1 0.07,-0.12 0.1,-0.15 c 0.03,-0.04 0.07,-0.1 0.12,-0.14 L 67.83,92.03 68,91.91 a 0.75,0.75 0 0 1 0.2,-0.1 c 0.06,-0.04 0.13,-0.06 0.19,-0.08 l 0.19,-0.05 0.17,-0.02 a 1.11,1.11 0 0 1 0.35,0.01 h 0.03 l -0.05,0.23 h -0.02 l -0.07,-0.01 a 1.22,1.22 0 0 0 -0.23,-0.03 c -0.05,0 -0.1,0 -0.16,0.02 -0.05,0 -0.11,0 -0.18,0.02 -0.05,0.01 -0.12,0.02 -0.18,0.05 a 0.86,0.86 0 0 0 -0.18,0.08 l -0.17,0.1 -0.15,0.12 -0.13,0.12 c -0.04,0.05 -0.06,0.1 -0.1,0.13 -0.03,0.04 -0.05,0.08 -0.08,0.1 l -0.05,0.1 -0.05,0.08 z m -2.86,-6.65 0.1,-0.05 0.11,-0.07 0.15,-0.08 0.18,-0.08 0.21,-0.06 c 0.08,-0.02 0.16,-0.04 0.24,-0.04 h 0.37 l 0.12,0.03 c 0.08,0 0.16,0.03 0.24,0.05 l 0.21,0.08 c 0.07,0.04 0.14,0.06 0.18,0.1 a 1.52,1.52 0 0 1 0.33,0.22 l 0.02,0.02 -0.15,0.16 -0.01,-0.03 c -0.02,0 -0.04,-0.03 -0.06,-0.05 -0.05,-0.05 -0.12,-0.1 -0.23,-0.17 l -0.15,-0.1 -0.2,-0.09 C 66.05,85.94 65.98,85.9 65.91,85.89 A 0.4,0.4 0 0 0 65.79,85.87 L 65.68,85.86 65.44,85.85 65.22,85.87 65,85.92 c -0.06,0 -0.12,0.04 -0.18,0.05 l -0.15,0.07 -0.12,0.06 -0.1,0.05 z m 4.88,-6.33 0.09,0.04 0.1,0.05 c 0.03,0.02 0.08,0.04 0.12,0.08 l 0.07,0.04 0.07,0.06 0.08,0.07 0.07,0.08 0.06,0.08 0.07,0.09 a 0.6,0.6 0 0 1 0.11,0.19 l 0.1,0.2 0.06,0.2 0.05,0.2 0.02,0.18 0.01,0.27 v 0.12 l -0.23,-0.02 v -0.03 l 0.02,-0.06 v -0.42 l -0.03,-0.2 c 0,-0.06 -0.03,-0.13 -0.04,-0.2 l -0.07,-0.2 C 70.03,80.55 70.01,80.48 69.97,80.42 L 69.92,80.33 69.86,80.25 A 0.32,0.32 0 0 1 69.8,80.18 l -0.06,-0.07 -0.07,-0.07 -0.07,-0.05 -0.11,-0.1 a 0.43,0.43 0 0 0 -0.1,-0.05 l -0.1,-0.04 z m 20.91,6.51 c 0,0 0,-0.02 0,0 0,0 0,0 0,0 h -0.1 c -0.1,0.01 -0.22,0.05 -0.37,0.1 -0.3,0.08 -0.67,0.2 -1.07,0.33 l -1.07,0.35 a 7.1,7.1 0 0 1 -0.36,0.1 l -0.1,0.02 c -0.04,0 -0.05,0.02 -0.05,0.02 l -0.03,-0.34 h 0.03 l 0.09,-0.01 0.36,-0.07 1.09,-0.25 a 29.24,29.24 0 0 1 1.47,-0.29 h 0.11 c 0.02,0 0.03,0 0.04,0.02 v 0.01 z m -2.27,-0.5 0.08,-0.05 a 0.83,0.83 0 0 0 0.2,-0.11 c 0.17,-0.1 0.37,-0.26 0.6,-0.4 l 0.18,-0.1 a 0.77,0.77 0 0 1 0.18,-0.1 c 0.05,-0.02 0.11,-0.05 0.17,-0.06 0.05,-0.03 0.11,-0.04 0.15,-0.05 l 0.14,-0.03 0.1,-0.01 0.1,-0.01 v 0.03 l -0.1,0.02 -0.1,0.04 -0.12,0.04 -0.15,0.07 -0.14,0.09 -0.16,0.11 -0.15,0.13 c -0.19,0.16 -0.38,0.36 -0.55,0.5 l -0.2,0.15 -0.08,0.05 z m -3.03,-1.03 0.1,-0.02 0.23,-0.04 a 8.48,8.48 0 0 0 1.06,-0.26 l 0.15,-0.06 0.15,-0.05 0.11,-0.06 0.1,-0.05 0.07,-0.04 0.03,0.02 -0.07,0.06 -0.08,0.07 -0.11,0.08 -0.14,0.07 -0.16,0.1 -0.34,0.16 a 7.37,7.37 0 0 1 -0.91,0.32 l -0.08,0.02 z m 6.58,-2.93 H 91.2 l -0.15,0.03 -0.15,0.05 -0.17,0.06 -0.18,0.07 -0.2,0.06 c -0.03,0 -0.06,0 -0.1,0.02 l -0.08,0.01 -0.18,0.02 c -0.06,0.02 -0.12,0.02 -0.16,0.02 -0.2,0 -0.34,0.02 -0.34,0.02 l 0.02,-0.34 0.32,0.02 0.14,0.01 h 0.35 l 0.18,-0.03 c 0.07,0 0.13,-0.02 0.18,-0.03 l 0.18,-0.05 0.18,-0.02 h 0.17 l 0.14,0.01 0.1,0.01 a 0.5,0.5 0 0 0 0.09,0.02 z m -3.39,-1.69 0.09,0.06 0.04,0.03 0.05,0.02 0.11,0.06 0.16,0.06 0.18,0.05 0.2,0.05 0.21,0.03 0.22,0.01 h 0.41 c 0.07,0 0.13,-0.02 0.18,-0.03 l 0.38,-0.07 v 0.04 l -0.35,0.12 a 0.81,0.81 0 0 1 -0.18,0.05 0.65,0.65 0 0 0 -0.2,0.04 c -0.07,0.02 -0.15,0.02 -0.23,0.03 l -0.22,0.03 H 88.94 A 0.85,0.85 0 0 1 88.71,80.7 c -0.06,0 -0.14,0 -0.2,-0.03 -0.08,0 -0.14,-0.03 -0.2,-0.04 -0.05,-0.01 -0.11,-0.05 -0.17,-0.06 l -0.06,-0.02 -0.05,-0.02 -0.09,-0.05 z m 3.29,-0.81 a 13.3,13.3 0 0 0 0.55,0.1 l 0.2,0.02 h 0.44 l 0.23,-0.02 0.23,0.01 0.21,0.04 c 0.07,0 0.13,0.02 0.18,0.03 l 0.37,0.1 v 0.04 L 93.44,79.6 h -0.18 l -0.2,-0.02 -0.22,0.02 c -0.06,0.01 -0.14,0.02 -0.2,0.05 -0.09,0 -0.17,0.03 -0.23,0.04 l -0.23,0.04 H 91.76 L 91.38,79.69 Z M 90.8,77.2 v 0.02 l 0.05,0.07 c 0.02,0.02 0.03,0.05 0.07,0.07 0.03,0.03 0.06,0.07 0.12,0.1 l 0.16,0.11 0.2,0.1 a 4.25,4.25 0 0 0 0.91,0.34 c 0.16,0.05 0.3,0.07 0.42,0.1 l 0.3,0.03 h 0.12 v 0.04 l -0.12,0.01 h -0.31 a 4.32,4.32 0 0 1 -0.93,-0.15 4.1,4.1 0 0 1 -0.5,-0.14 c -0.08,-0.03 -0.16,-0.05 -0.22,-0.09 a 2.84,2.84 0 0 1 -0.35,-0.2 1.09,1.09 0 0 1 -0.13,-0.11 l -0.05,-0.07 -0.02,-0.02 z m 3.94,0.13 0.37,0.15 0.18,0.07 0.2,0.07 0.23,0.05 c 0.08,0.03 0.16,0.04 0.24,0.05 l 0.47,0.07 c 0.08,0 0.15,0.02 0.23,0.03 l 0.19,0.05 c 0.05,0 0.11,0.02 0.15,0.04 0.05,0.01 0.1,0.02 0.13,0.04 l 0.11,0.03 v 0.03 l -0.12,-0.02 c -0.04,0 -0.08,0 -0.13,-0.02 a 0.68,0.68 0 0 0 -0.15,-0.02 l -0.2,-0.03 h -0.2 c -0.16,-0.02 -0.32,0 -0.49,-0.02 -0.08,0 -0.17,0 -0.25,-0.02 L 95.47,77.85 95.24,77.8 a 0.65,0.65 0 0 1 -0.2,-0.04 l -0.4,-0.13 z m 1.58,4 c 0,0 -0.03,0.01 -0.05,0.05 a 0.21,0.21 0 0 1 -0.05,0.04 l -0.08,0.06 C 96.07,81.51 96,81.57 95.92,81.6 l -0.25,0.11 -0.27,0.1 a 3.23,3.23 0 0 0 -0.33,0.08 L 95,81.92 c -0.03,0 -0.05,0.02 -0.05,0.02 l -0.1,-0.33 h 0.06 l 0.08,-0.02 h 0.1 c 0.07,-0.02 0.16,-0.02 0.24,-0.03 l 0.27,-0.04 c 0.1,0 0.18,-0.03 0.27,-0.05 L 96.1,81.4 a 0.31,0.31 0 0 0 0.09,-0.04 l 0.06,-0.04 a 0.54,0.54 0 0 1 0.06,-0.03 z m 4.25,1.31 -0.02,0.09 -0.04,0.1 a 0.66,0.66 0 0 1 -0.05,0.14 l -0.08,0.16 c -0.02,0.06 -0.07,0.11 -0.11,0.17 a 0.97,0.97 0 0 1 -0.15,0.16 l -0.08,0.08 -0.09,0.06 a 0.64,0.64 0 0 1 -0.19,0.13 l -0.18,0.1 -0.3,0.17 c -0.03,0.03 -0.08,0.05 -0.1,0.08 l -0.07,0.06 A 0.28,0.28 0 0 0 99.07,84.2 L 98.8,84 l 0.09,-0.08 0.1,-0.08 a 5.75,5.75 0 0 1 0.69,-0.28 0.86,0.86 0 0 0 0.18,-0.09 l 0.09,-0.04 0.08,-0.06 0.14,-0.12 a 1.41,1.41 0 0 0 0.22,-0.27 l 0.06,-0.13 0.05,-0.1 a 2,2 0 0 0 0.03,-0.09 z m 3.91,1.63 0.1,-0.3 0.07,-0.14 0.08,-0.16 c 0.04,-0.04 0.07,-0.1 0.1,-0.16 l 0.12,-0.14 c 0.08,-0.1 0.17,-0.18 0.23,-0.27 l 0.1,-0.13 a 0.73,0.73 0 0 0 0.08,-0.12 l 0.04,-0.06 0.02,-0.05 0.05,-0.1 0.03,-0.07 0.03,0.01 -0.02,0.08 a 0.81,0.81 0 0 0 -0.03,0.1 l -0.02,0.05 a 0.26,0.26 0 0 1 -0.04,0.05 l -0.06,0.14 -0.1,0.15 -0.18,0.3 -0.1,0.16 -0.06,0.15 -0.05,0.14 c 0,0.05 -0.03,0.08 -0.04,0.12 l -0.06,0.3 z m -9.18,2.48 -0.09,0.1 -0.09,0.1 -0.12,0.12 a 1.88,1.88 0 0 1 -0.35,0.27 13.64,13.64 0 0 1 -1.26,0.7 l -0.38,0.19 -0.13,-0.32 0.4,-0.14 c 0.24,-0.1 0.55,-0.2 0.87,-0.34 l 0.44,-0.21 0.19,-0.12 0.17,-0.1 0.13,-0.1 0.1,-0.1 0.08,-0.08 z m 4.02,1.4 0.02,-0.01 a 0.2,0.2 0 0 1 0.07,-0.04 c 0.03,0 0.07,-0.03 0.11,-0.05 l 0.14,-0.07 c 0.2,-0.1 0.46,-0.22 0.7,-0.37 l 0.37,-0.23 0.15,-0.1 0.14,-0.12 a 0.43,0.43 0 0 0 0.1,-0.1 0.51,0.51 0 0 0 0.08,-0.1 l 0.07,-0.07 0.03,0.02 -0.05,0.1 a 2.49,2.49 0 0 1 -0.16,0.23 l -0.12,0.12 -0.15,0.15 c -0.1,0.1 -0.21,0.2 -0.34,0.28 -0.23,0.18 -0.48,0.34 -0.66,0.46 l -0.13,0.08 a 1.1,1.1 0 0 1 -0.09,0.06 0.26,0.26 0 0 0 -0.05,0.05 h -0.02 z m -2.06,-6.08 0.06,-0.02 0.06,-0.02 0.06,-0.04 a 0.74,0.74 0 0 0 0.18,-0.12 c 0.07,-0.04 0.14,-0.11 0.22,-0.17 l 0.22,-0.17 c 0.08,-0.04 0.16,-0.09 0.23,-0.1 a 0.75,0.75 0 0 0 0.09,-0.04 l 0.06,-0.01 0.07,-0.01 0.01,0.03 -0.05,0.02 -0.07,0.04 -0.08,0.04 a 0.97,0.97 0 0 0 -0.18,0.15 l -0.18,0.2 c -0.05,0.06 -0.11,0.14 -0.18,0.2 a 1.3,1.3 0 0 1 -0.18,0.19 l -0.09,0.06 -0.07,0.05 a 0.63,0.63 0 0 1 -0.05,0.03 z m -22.81,3.38 0.08,0.11 0.09,0.11 0.12,0.15 a 4.68,4.68 0 0 0 1.24,1.01 l 0.22,0.12 0.22,0.09 0.1,0.03 0.09,0.02 c 0.06,0.01 0.1,0.04 0.15,0.04 0.08,0 0.13,0.02 0.13,0.02 v 0.03 H 76.76 L 76.6,87.15 76.5,87.14 76.4,87.12 76.18,87.05 c -0.08,-0.02 -0.15,-0.06 -0.24,-0.1 l -0.26,-0.11 a 5.09,5.09 0 0 1 -1.13,-0.8 L 74.4,85.89 C 74.35,85.85 74.32,85.8 74.28,85.78 l -0.09,-0.1 z m 35.57,4.84 c 0,0 -0.02,-0.04 -0.07,-0.08 l -0.09,-0.12 c -0.03,-0.04 -0.05,-0.09 -0.09,-0.13 l -0.22,-0.33 -0.15,-0.16 a 1.56,1.56 0 0 0 -0.35,-0.27 c -0.06,-0.04 -0.12,-0.08 -0.19,-0.1 a 0.38,0.38 0 0 1 -0.1,-0.05 l -0.1,-0.03 a 0.7,0.7 0 0 0 -0.18,-0.05 3.86,3.86 0 0 1 -0.16,-0.03 l -0.12,-0.01 -0.11,-0.01 v -0.04 h 0.23 l 0.17,0.02 c 0.06,0 0.13,0 0.2,0.02 l 0.1,0.02 0.1,0.03 0.23,0.08 c 0.07,0.04 0.15,0.07 0.22,0.12 l 0.2,0.14 c 0.07,0.06 0.13,0.1 0.18,0.16 0.11,0.11 0.2,0.23 0.28,0.3 l 0.1,0.12 0.08,0.08 0.08,0.06 z m 1.46,-7.39 -0.05,-0.08 a 0.5,0.5 0 0 1 -0.07,-0.12 l -0.08,-0.14 a 0.98,0.98 0 0 0 -0.09,-0.15 l -0.12,-0.14 -0.16,-0.15 -0.18,-0.15 a 1.56,1.56 0 0 0 -0.37,-0.22 c -0.07,-0.02 -0.12,-0.05 -0.2,-0.06 -0.06,0 -0.13,0 -0.18,-0.03 a 0.27,0.27 0 0 1 -0.16,-0.08 c -0.05,-0.03 -0.07,-0.07 -0.09,-0.09 l -0.07,-0.09 0.02,-0.02 0.08,0.08 c 0.06,0.04 0.13,0.11 0.24,0.12 0.06,0.02 0.11,0 0.18,0.02 a 1.19,1.19 0 0 1 0.45,0.11 c 0.08,0.03 0.14,0.07 0.21,0.11 l 0.2,0.13 0.2,0.13 0.17,0.16 c 0.06,0.05 0.09,0.11 0.13,0.16 0.04,0.04 0.07,0.1 0.1,0.12 a 0.6,0.6 0 0 0 0.06,0.09 l 0.07,0.08 z m -2.33,-18.3 -0.03,-0.01 -0.03,-0.01 -0.05,-0.03 -0.04,-0.05 -0.04,-0.07 a 0.31,0.31 0 0 1 -0.03,-0.14 c -0.01,-0.1 0.01,-0.2 0.04,-0.26 l 0.07,-0.1 0.04,0.01 0.04,0.11 0.04,0.23 v 0.33 z m 0.48,0.96 v -0.01 l 0.04,-0.04 a 3.65,3.65 0 0 0 0.26,-0.54 l 0.03,-0.1 0.04,-0.12 0.03,-0.11 a 0.31,0.31 0 0 0 0.03,-0.1 c 0,-0.07 0.03,-0.12 0.03,-0.16 l 0.02,-0.06 h 0.04 l 0.02,0.06 0.03,0.17 a 1.2,1.2 0 0 1 -0.1,0.64 l -0.08,0.12 -0.07,0.1 a 0.3,0.3 0 0 1 -0.1,0.09 0.42,0.42 0 0 1 -0.15,0.08 h -0.05 c 0,-0.02 -0.02,0 -0.02,-0.02 z m -6.98,19.06 -0.58,0.32 a 3.82,3.82 0 0 0 -1.34,1.43 c -0.22,0.38 -0.37,0.81 -0.59,1.22 -0.11,0.2 -0.23,0.4 -0.4,0.58 -0.15,0.18 -0.33,0.35 -0.53,0.47 -0.2,0.14 -0.42,0.24 -0.63,0.33 l -0.3,0.11 c -0.04,0.02 -0.06,0.05 -0.05,0.03 v -0.05 l 0.01,0.01 c 0.02,0.03 0.06,0.05 0.1,0.06 h 0.01 l 0.03,0.01 0.04,0.01 0.08,0.04 0.16,0.05 0.16,0.05 0.15,0.04 0.16,0.04 c 0.1,0.02 0.22,0.03 0.32,0.06 a 2.99,2.99 0 0 0 1.87,-0.4 c 0.19,-0.1 0.38,-0.22 0.56,-0.35 v 0 c 0.08,-0.03 0.13,-0.07 0.2,-0.12 l 0.18,-0.13 0.35,-0.3 a 2.07,2.07 0 0 0 0.3,-0.36 c 0.05,-0.05 0.1,-0.12 0.14,-0.19 l 0.06,-0.1 0.04,-0.1 0.06,0.01 c -0.01,0.04 -0.01,0.08 -0.04,0.13 0,0.03 -0.02,0.08 -0.04,0.11 -0.03,0.08 -0.07,0.15 -0.11,0.21 l -0.14,0.2 -0.14,0.18 c -0.1,0.12 -0.22,0.23 -0.34,0.33 a 2.03,2.03 0 0 1 -0.38,0.3 v 0 l -0.55,0.4 a 3.25,3.25 0 0 1 -0.97,0.4 2.97,2.97 0 0 1 -1.06,0.08 3.83,3.83 0 0 1 -0.7,-0.13 l -0.17,-0.05 -0.15,-0.06 c -0.1,-0.05 -0.23,-0.07 -0.35,-0.18 l -0.1,-0.12 a 0.28,0.28 0 0 1 -0.01,-0.1 c 0,-0.04 0,-0.08 0.02,-0.12 l 0.04,-0.08 a 0.14,0.14 0 0 1 0.06,-0.05 l 0.1,-0.07 0.06,-0.02 0.04,-0.01 0.08,-0.02 0.16,-0.06 a 2.63,2.63 0 0 0 1.43,-1.21 c 0.21,-0.39 0.4,-0.8 0.64,-1.2 a 3.5,3.5 0 0 1 1.5,-1.38 3.9,3.9 0 0 1 0.57,-0.24 z m -9.18,8.55 v 0.27 l -0.01,0.1 -0.02,0.13 a 0.61,0.61 0 0 1 -0.05,0.14 c -0.02,0.1 -0.08,0.19 -0.13,0.3 l -0.1,0.15 -0.14,0.13 -0.14,0.13 -0.16,0.11 -0.17,0.1 -0.17,0.1 c -0.12,0.05 -0.26,0.1 -0.38,0.13 -0.07,0 -0.12,0.03 -0.2,0.03 l -0.18,0.02 h -0.36 l -0.17,-0.03 -0.16,-0.03 a 2.58,2.58 0 0 1 -0.44,-0.18 l -0.1,-0.08 -0.04,-0.04 0.02,-0.03 0.05,0.02 c 0.02,0.02 0.06,0.03 0.12,0.05 a 2.3,2.3 0 0 0 0.74,0.12 h 0.34 c 0.11,-0.02 0.24,-0.04 0.35,-0.08 0.11,-0.03 0.24,-0.07 0.34,-0.12 l 0.17,-0.08 0.15,-0.09 0.15,-0.1 0.14,-0.1 0.12,-0.11 0.1,-0.12 0.08,-0.13 0.07,-0.12 0.05,-0.12 0.04,-0.12 0.03,-0.1 0.03,-0.09 c 0,-0.09 0.03,-0.15 0.04,-0.15 z m -19.35,-5.42 0.11,0.06 0.14,0.07 c 0.04,0.02 0.11,0.04 0.17,0.08 l 0.2,0.08 0.24,0.08 c 0.04,0 0.08,0.02 0.12,0.04 l 0.12,0.03 0.26,0.07 0.26,0.07 0.26,0.06 c 0.08,0 0.17,0.02 0.24,0.04 l 0.21,0.02 c 0.07,0.02 0.14,0.02 0.2,0.02 h 0.27 v 0.04 l -0.13,0.04 a 0.55,0.55 0 0 1 -0.14,0.02 l -0.2,0.02 H 76.23 A 2.1,2.1 0 0 1 75.97,88.57 2.17,2.17 0 0 1 75.7,88.52 c -0.09,0 -0.18,-0.04 -0.28,-0.05 l -0.27,-0.08 -0.26,-0.1 -0.23,-0.11 -0.2,-0.13 -0.16,-0.11 a 0.5,0.5 0 0 1 -0.11,-0.1 l -0.06,-0.08 z m 26.96,-9.6 c 0,0 -0.07,0 -0.17,0.03 -0.06,0 -0.12,0.03 -0.2,0.05 -0.06,0 -0.14,0.05 -0.22,0.09 l -0.12,0.06 -0.14,0.07 -0.28,0.17 -0.31,0.2 -0.17,0.08 a 0.84,0.84 0 0 1 -0.18,0.08 l -0.18,0.08 -0.2,0.06 -0.18,0.04 -0.2,0.02 c -0.12,0.02 -0.24,0.03 -0.36,0.02 L 97.86,79.16 97.6,79.11 a 1.81,1.81 0 0 1 -0.19,-0.07 0.9,0.9 0 0 1 -0.17,-0.07 l 0.01,-0.04 h 0.93 c 0.1,0 0.21,-0.03 0.32,-0.05 0.06,0 0.12,-0.02 0.17,-0.03 a 0.9,0.9 0 0 0 0.17,-0.05 l 0.17,-0.05 0.17,-0.07 0.17,-0.07 0.17,-0.07 c 0.11,-0.06 0.21,-0.12 0.33,-0.16 0.1,-0.06 0.2,-0.1 0.32,-0.14 l 0.3,-0.09 c 0.1,0 0.2,-0.03 0.28,-0.03 a 1,1 0 0 1 0.2,0.01 l 0.17,0.04 z M 82,94.94 82.18,94.77 82.26,94.7 c 0.02,-0.04 0.05,-0.06 0.09,-0.1 l 0.18,-0.2 0.15,-0.21 0.07,-0.11 c 0.02,-0.04 0.03,-0.07 0.06,-0.1 l 0.09,-0.22 0.03,0.02 c 0,0 0,0.09 -0.04,0.23 l -0.04,0.11 a 0.53,0.53 0 0 1 -0.04,0.13 c -0.04,0.08 -0.07,0.18 -0.13,0.26 a 1.8,1.8 0 0 1 -0.14,0.25 0.95,0.95 0 0 1 -0.07,0.1 l -0.07,0.11 -0.13,0.2 z m -6.47,-3.65 h -0.7 l -0.25,0.03 -0.27,0.03 -0.27,0.05 -0.13,0.02 -0.14,0.04 -0.26,0.06 -0.23,0.08 -0.2,0.08 -0.17,0.08 -0.13,0.07 -0.07,0.06 c -0.03,0 -0.03,0.02 -0.03,0.02 l -0.02,-0.02 0.02,-0.03 a 1.21,1.21 0 0 1 0.34,-0.3 l 0.2,-0.12 0.24,-0.12 0.27,-0.09 0.15,-0.03 0.14,-0.03 c 0.1,-0.03 0.2,-0.03 0.3,-0.04 h 0.54 l 0.23,0.04 c 0.15,0.02 0.26,0.06 0.34,0.08 z m -6.38,-6.11 0.02,0.1 0.01,0.12 v 0.17 c 0,0.06 0,0.13 -0.02,0.2 -0.01,0.06 -0.02,0.13 -0.05,0.2 -0.02,0.08 -0.04,0.16 -0.07,0.22 l -0.1,0.22 -0.14,0.2 c -0.04,0.07 -0.1,0.12 -0.15,0.18 -0.04,0.06 -0.1,0.1 -0.15,0.15 l -0.16,0.1 -0.15,0.09 -0.12,0.04 -0.1,0.04 -0.01,-0.04 0.09,-0.06 c 0.02,-0.03 0.06,-0.05 0.09,-0.07 l 0.11,-0.1 0.13,-0.12 0.12,-0.15 0.07,-0.08 0.05,-0.09 c 0.05,-0.05 0.08,-0.12 0.12,-0.19 0.08,-0.12 0.13,-0.26 0.19,-0.4 0.02,-0.06 0.06,-0.12 0.07,-0.18 l 0.05,-0.17 c 0.04,-0.11 0.06,-0.2 0.07,-0.27 0.01,-0.07 0.02,-0.1 0.03,-0.1 z m 1.44,-1.82 c 0,0 0.04,0 0.11,0.03 l 0.12,0.03 0.16,0.04 0.2,0.03 0.2,0.02 h 0.41 l 0.06,-0.02 0.24,-0.03 c 0.07,-0.01 0.14,-0.02 0.22,-0.05 0.07,0 0.14,-0.03 0.2,-0.05 l 0.17,-0.07 c 0.05,-0.02 0.1,-0.04 0.14,-0.08 l 0.09,-0.08 0.04,-0.05 a 0.46,0.46 0 0 0 0.02,-0.02 H 73 l -0.01,0.04 -0.03,0.08 a 0.26,0.26 0 0 0 -0.04,0.06 c 0,0.02 -0.03,0.03 -0.04,0.06 l -0.14,0.12 c -0.05,0.03 -0.11,0.08 -0.18,0.1 a 1.87,1.87 0 0 1 -0.45,0.14 c -0.08,0 -0.15,0.02 -0.23,0.04 l -0.06,0.01 h -0.07 c -0.04,0 -0.09,0 -0.12,0.02 a 1.78,1.78 0 0 1 -0.47,-0.08 l -0.1,-0.04 c -0.04,0 -0.06,-0.02 -0.1,-0.03 L 70.81,83.5 70.7,83.43 70.63,83.38 70.6,83.37 Z m -0.23,8.8 c 0,0 0.04,-0.03 0.06,-0.09 a 0.78,0.78 0 0 0 0.04,-0.1 l 0.05,-0.14 0.06,-0.37 v -0.49 0 c 0,0 0,-0.02 0,0 v -0.16 l -0.04,-0.2 c 0,-0.07 -0.03,-0.14 -0.04,-0.2 -0.01,-0.05 -0.05,-0.1 -0.06,-0.17 l -0.05,-0.13 c -0.03,-0.03 -0.04,-0.08 -0.06,-0.1 l -0.05,-0.08 0.02,-0.02 0.09,0.05 0.09,0.1 c 0.03,0.03 0.07,0.07 0.1,0.13 0.03,0.06 0.07,0.11 0.09,0.17 a 1.45,1.45 0 0 1 0.14,0.43 v 0.17 0 0.06 c 0,0.17 0,0.33 -0.03,0.48 a 1.15,1.15 0 0 1 -0.13,0.4 0.62,0.62 0 0 1 -0.09,0.14 0.33,0.33 0 0 1 -0.09,0.09 0.23,0.23 0 0 1 -0.07,0.04 h -0.02 z m 26.27,0.74 -0.02,0.02 a 0.37,0.37 0 0 1 -0.07,0.05 l -0.21,0.22 -0.63,0.69 -0.1,0.09 a 0.6,0.6 0 0 1 -0.06,0.09 0.6,0.6 0 0 1 -0.07,0.09 l -0.06,0.1 -0.13,0.19 -0.1,0.17 A 37.15,37.15 0 0 1 95,94.98 l -0.3,-0.15 0.07,-0.1 0.17,-0.26 0.12,-0.16 a 0.84,0.84 0 0 1 0.15,-0.18 l 0.08,-0.1 c 0.03,-0.03 0.05,-0.06 0.09,-0.08 l 0.09,-0.1 0.1,-0.07 0.7,-0.6 0.24,-0.2 c 0.04,-0.02 0.06,-0.03 0.07,-0.05 h 0.02 z m 30.76,1.44 -0.2,0.06 -0.23,0.08 c -0.09,0.04 -0.18,0.07 -0.28,0.13 -0.1,0.05 -0.21,0.1 -0.32,0.18 -0.12,0.06 -0.24,0.13 -0.35,0.22 l -0.18,0.13 a 2.4,2.4 0 0 1 -0.18,0.13 l -0.35,0.3 -0.33,0.3 -0.3,0.32 a 77.36,77.36 0 0 0 -0.88,1.02 l -0.14,0.16 -0.24,-0.23 0.15,-0.15 0.38,-0.4 a 13.76,13.76 0 0 1 1.25,-1.17 l 0.37,-0.28 0.2,-0.14 a 0.81,0.81 0 0 1 0.18,-0.1 c 0.13,-0.09 0.25,-0.16 0.38,-0.21 0.1,-0.07 0.23,-0.11 0.35,-0.16 l 0.3,-0.11 a 0.9,0.9 0 0 1 0.24,-0.07 l 0.2,-0.04 z m 2.67,4.29 0.06,-0.06 0.08,-0.07 a 0.43,0.43 0 0 0 0.1,-0.1 l 0.1,-0.13 c 0.05,-0.04 0.07,-0.09 0.12,-0.14 l 0.11,-0.16 0.1,-0.18 c 0.04,-0.06 0.06,-0.12 0.08,-0.18 0.02,-0.06 0.06,-0.12 0.07,-0.18 l 0.06,-0.17 c 0,-0.05 0.02,-0.11 0.04,-0.16 l 0.03,-0.13 c 0.02,-0.03 0.02,-0.07 0.02,-0.1 v -0.1 l 0.33,0.08 -0.03,0.1 -0.03,0.11 a 0.66,0.66 0 0 1 -0.06,0.14 l -0.06,0.15 -0.1,0.17 c -0.03,0.06 -0.06,0.13 -0.1,0.18 -0.03,0.06 -0.06,0.13 -0.1,0.18 -0.05,0.06 -0.1,0.11 -0.13,0.17 l -0.14,0.16 -0.13,0.13 -0.14,0.12 a 1.93,1.93 0 0 1 -0.28,0.2 z m 0.32,2.07 -0.04,0.01 -0.06,0.02 h -0.21 c -0.06,0 -0.1,0.02 -0.16,0.03 l -0.16,0.03 -0.13,0.05 -0.12,0.07 -0.03,-0.03 0.1,-0.1 a 0.41,0.41 0 0 1 0.13,-0.1 0.5,0.5 0 0 1 0.15,-0.1 l 0.15,-0.09 0.14,-0.07 h 0.03 c 0.01,0 0.01,-0.02 0.03,-0.02 h 0.03 a 0.13,0.13 0 0 0 0.03,-0.03 z m -3.09,1.67 -0.16,0.07 -0.18,0.07 c -0.07,0.04 -0.15,0.07 -0.22,0.12 l -0.26,0.14 -0.28,0.18 c -0.2,0.13 -0.4,0.29 -0.59,0.43 -0.4,0.3 -0.75,0.65 -1.01,0.92 l -0.42,0.45 -0.24,-0.23 0.46,-0.43 a 10.37,10.37 0 0 1 1.73,-1.25 l 0.3,-0.16 0.29,-0.13 0.23,-0.1 0.2,-0.07 0.16,-0.05 z m -4.34,4.99 -0.04,0.03 -0.04,0.02 a 0.08,0.08 0 0 1 -0.06,0.02 c -0.03,0.02 -0.07,0.03 -0.11,0.07 l -0.14,0.1 -0.14,0.11 -0.08,0.05 -0.07,0.03 -0.05,0.02 c -0.03,0 -0.04,0.02 -0.05,0.02 h -0.04 l -0.01,-0.03 0.03,-0.02 c 0.01,0 0.02,0 0.03,-0.02 l 0.05,-0.03 a 1.06,1.06 0 0 0 0.09,-0.1 l 0.1,-0.14 0.1,-0.15 a 0.31,0.31 0 0 1 0.06,-0.06 l 0.06,-0.07 0.04,-0.05 0.04,-0.03 0.03,-0.03 z m 7.72,-0.76 0.08,-0.1 0.1,-0.12 0.08,-0.14 0.1,-0.2 0.07,-0.2 0.06,-0.24 0.02,-0.12 0.01,-0.13 c 0.02,-0.09 0,-0.17 0,-0.26 0,-0.07 0,-0.16 -0.02,-0.24 a 1.3,1.3 0 0 0 -0.04,-0.23 l -0.06,-0.2 a 1.73,1.73 0 0 0 -0.1,-0.3 l -0.05,-0.1 0.33,-0.1 0.04,0.12 0.06,0.32 0.04,0.23 c 0,0.08 0,0.16 0.02,0.25 v 0.27 l -0.03,0.27 c -0.01,0.04 -0.01,0.09 -0.03,0.13 0,0.05 -0.02,0.1 -0.03,0.14 a 0.85,0.85 0 0 1 -0.09,0.24 l -0.11,0.23 -0.12,0.18 -0.12,0.15 a 0.43,0.43 0 0 1 -0.1,0.1 l -0.09,0.09 z m -5.76,3.05 c 0,0 -0.09,0.12 -0.2,0.31 l -0.1,0.16 c -0.03,0.06 -0.07,0.11 -0.09,0.18 l -0.09,0.19 c -0.03,0.07 -0.05,0.14 -0.09,0.2 l -0.07,0.22 -0.05,0.2 -0.05,0.2 -0.03,0.16 -0.02,0.15 -0.01,0.11 v 0.08 l -0.34,0.01 0.01,-0.12 0.03,-0.13 0.05,-0.15 0.06,-0.18 a 0.84,0.84 0 0 1 0.08,-0.2 l 0.09,-0.2 a 4,4 0 0 0 0.1,-0.21 l 0.11,-0.2 0.11,-0.2 0.13,-0.16 0.1,-0.15 0.26,-0.28 z m -5.68,3.05 -0.21,-0.71 a 5.39,5.39 0 0 0 -0.09,-0.36 3.67,3.67 0 0 1 -0.09,-0.4 l -0.08,-0.44 -0.07,-0.45 -0.06,-0.43 -0.08,-0.43 -0.08,-0.4 -0.09,-0.34 a 0.63,0.63 0 0 0 -0.05,-0.16 c 0,-0.05 -0.03,-0.1 -0.04,-0.14 a 6.7,6.7 0 0 1 -0.08,-0.22 l -0.07,-0.2 h 0.04 l 0.08,0.19 0.09,0.22 0.05,0.14 c 0.03,0.04 0.04,0.1 0.06,0.16 l 0.11,0.35 0.1,0.39 0.1,0.43 0.1,0.44 0.11,0.44 0.1,0.41 0.11,0.38 a 6.12,6.12 0 0 0 0.37,1.05 z m 7.89,-46.87 -0.2,0.03 a 1.2,1.2 0 0 0 -0.23,0.05 c -0.09,0 -0.18,0.05 -0.28,0.09 l -0.16,0.06 -0.15,0.08 c -0.12,0.06 -0.22,0.14 -0.33,0.22 l -0.17,0.13 -0.17,0.15 -0.15,0.16 c -0.05,0.05 -0.1,0.1 -0.14,0.17 a 2.56,2.56 0 0 0 -0.4,0.76 5.4,5.4 0 0 0 -0.12,0.4 l -0.05,0.36 -0.01,0.3 0.01,0.24 0.01,0.15 0.01,0.06 -0.03,0.01 -0.01,-0.05 a 0.53,0.53 0 0 1 -0.02,-0.16 1.45,1.45 0 0 1 -0.03,-0.24 v -0.31 c 0,-0.11 0.02,-0.24 0.04,-0.37 0.02,-0.14 0.04,-0.27 0.09,-0.4 0.03,-0.15 0.09,-0.29 0.15,-0.43 0.06,-0.14 0.13,-0.28 0.22,-0.42 l 0.15,-0.2 0.15,-0.16 c 0.06,-0.05 0.12,-0.1 0.16,-0.16 l 0.17,-0.14 c 0.11,-0.1 0.23,-0.18 0.34,-0.26 0.06,-0.03 0.11,-0.08 0.17,-0.1 l 0.17,-0.1 c 0.11,-0.04 0.21,-0.08 0.31,-0.1 0.1,-0.04 0.18,-0.06 0.25,-0.07 l 0.2,-0.05 z m -23.13,-1.32 c 0,0 -0.09,-0.12 -0.09,-0.35 0,-0.22 0.13,-0.4 0,-0.4 -0.12,0 -0.32,0.19 -0.32,0.46 0,0.27 0.08,0.26 0.08,0.26 m 11.8,12.28 -0.06,-0.03 -0.18,-0.08 a 1.77,1.77 0 0 1 -0.25,-0.13 l -0.27,-0.17 a 1.14,1.14 0 0 1 -0.12,-0.1 l -0.12,-0.1 -0.1,-0.1 -0.08,-0.1 -0.06,-0.1 c -0.03,-0.02 -0.04,-0.04 -0.05,-0.06 l -0.04,-0.06 0.03,-0.02 0.05,0.06 0.05,0.05 0.08,0.07 0.1,0.08 c 0.04,0.02 0.08,0.04 0.12,0.08 l 0.12,0.08 0.14,0.06 0.27,0.12 0.23,0.08 0.18,0.04 0.07,0.01 z m -2.91,-5.51 0.07,0.01 0.09,0.04 c 0.03,0 0.07,0.03 0.1,0.05 l 0.11,0.08 0.11,0.1 0.24,0.2 0.23,0.2 0.2,0.16 0.08,0.04 0.07,0.02 0.05,0.01 -0.1,0.32 -0.08,-0.03 c -0.02,-0.01 -0.05,-0.04 -0.09,-0.05 l -0.1,-0.08 a 3.01,3.01 0 0 1 -0.21,-0.2 l -0.2,-0.25 -0.2,-0.24 c -0.03,-0.04 -0.05,-0.08 -0.08,-0.1 l -0.1,-0.1 a 0.5,0.5 0 0 1 -0.07,-0.06 l -0.07,-0.04 c -0.05,0 -0.07,-0.02 -0.07,-0.02 z m 1.58,-2.61 -0.07,-0.01 -0.18,-0.02 a 1.13,1.13 0 0 1 -0.25,-0.07 l -0.13,-0.05 c -0.05,0 -0.1,-0.04 -0.14,-0.05 l -0.13,-0.07 -0.13,-0.09 -0.1,-0.09 a 0.54,0.54 0 0 1 -0.08,-0.09 c -0.02,-0.03 -0.04,-0.05 -0.05,-0.09 l -0.04,-0.07 -0.02,-0.05 0.04,-0.01 c 0,0 0,0.02 0.03,0.05 l 0.04,0.06 0.07,0.07 0.1,0.07 0.1,0.06 c 0.03,0.03 0.07,0.04 0.12,0.06 l 0.12,0.04 0.14,0.03 c 0.04,0 0.09,0 0.12,0.02 l 0.24,0.01 h 0.16 c 0.03,0 0.05,-0.02 0.05,-0.02 z m -4.23,1.96 0.1,0.05 0.11,0.06 0.13,0.08 0.16,0.11 0.16,0.14 c 0.06,0.04 0.1,0.1 0.16,0.17 l 0.14,0.18 a 2.95,2.95 0 0 1 0.32,0.6 l 0.04,0.2 c 0.03,0.12 0.03,0.22 0.03,0.29 l -0.01,0.11 h -0.06 l -0.04,-0.09 a 0.43,0.43 0 0 0 -0.06,-0.1 l -0.07,-0.14 c -0.05,-0.1 -0.11,-0.2 -0.19,-0.31 -0.03,-0.06 -0.08,-0.11 -0.11,-0.18 l -0.12,-0.18 -0.13,-0.18 -0.12,-0.17 -0.12,-0.16 c -0.05,-0.04 -0.08,-0.1 -0.12,-0.14 l -0.16,-0.23 a 0.46,0.46 0 0 1 -0.04,-0.1 z m 0.12,2.79 0.06,0.05 c 0,0.03 0.03,0.05 0.05,0.07 l 0.08,0.08 c 0.02,0.04 0.06,0.06 0.1,0.1 l 0.08,0.1 0.1,0.1 0.1,0.12 0.1,0.11 0.1,0.11 0.19,0.2 c 0.06,0.06 0.1,0.12 0.12,0.16 l 0.05,0.07 -0.02,0.05 c 0,0 -0.13,-0.02 -0.28,-0.1 a 1.5,1.5 0 0 1 -0.7,-0.66 l -0.07,-0.14 -0.04,-0.14 -0.03,-0.12 v -0.1 c 0,-0.03 0,-0.06 0.02,-0.06 z m -2.21,0.27 0.1,0.05 0.08,0.1 c 0.04,0.03 0.07,0.07 0.1,0.13 l 0.1,0.18 c 0.02,0.07 0.05,0.13 0.06,0.2 0.05,0.15 0.07,0.3 0.1,0.45 l 0.05,0.43 c 0.02,0.13 0.03,0.26 0.06,0.37 a 2.84,2.84 0 0 0 0.07,0.26 l 0.02,0.1 -0.05,0.04 -0.08,-0.08 a 0.4,0.4 0 0 1 -0.07,-0.1 l -0.1,-0.14 -0.08,-0.18 -0.07,-0.2 c -0.05,-0.15 -0.07,-0.3 -0.1,-0.45 l -0.01,-0.23 c -0.01,-0.06 -0.01,-0.14 -0.03,-0.2 0,-0.08 0,-0.14 -0.02,-0.2 0,-0.06 0,-0.12 -0.03,-0.17 l -0.03,-0.13 a 0.33,0.33 0 0 0 -0.05,-0.12 l -0.01,-0.1 z m -0.71,1.8 0.05,0.07 0.05,0.1 v 0.17 a 0.9,0.9 0 0 1 -0.05,0.17 l -0.07,0.15 -0.16,0.32 -0.08,0.16 -0.07,0.15 -0.03,0.08 c -0.01,0.02 -0.01,0.05 -0.03,0.07 l -0.04,0.13 -0.03,0.13 -0.03,0.1 c 0,0.06 -0.02,0.1 -0.02,0.1 h -0.05 l -0.04,-0.1 -0.03,-0.1 -0.02,-0.14 -0.01,-0.07 v -0.18 c 0,-0.04 0.02,-0.06 0.03,-0.1 l 0.06,-0.18 0.08,-0.2 0.1,-0.16 c 0.03,-0.06 0.08,-0.1 0.11,-0.15 l 0.1,-0.12 0.05,-0.06 c 0,-0.02 0.03,-0.03 0.04,-0.05 l 0.04,-0.05 c 0,-0.01 0,-0.03 0.02,-0.04 l 0.02,-0.08 0.01,-0.11 z m -1.43,1.29 v 0.27 c 0,0.06 0,0.13 -0.02,0.2 0,0.06 -0.03,0.14 -0.05,0.22 -0.02,0.08 -0.06,0.16 -0.1,0.24 -0.01,0.04 -0.05,0.07 -0.07,0.12 -0.02,0.03 -0.04,0.08 -0.08,0.11 -0.03,0.04 -0.05,0.08 -0.09,0.11 l -0.1,0.1 c -0.07,0.07 -0.14,0.13 -0.22,0.18 -0.08,0.05 -0.15,0.1 -0.23,0.13 a 1,1 0 0 1 -0.2,0.11 l -0.17,0.12 -0.07,0.05 a 0.31,0.31 0 0 0 -0.06,0.06 l -0.1,0.09 -0.07,0.09 -0.05,-0.02 0.04,-0.13 a 0.72,0.72 0 0 1 0.05,-0.13 c 0.03,-0.06 0.07,-0.1 0.12,-0.17 l 0.15,-0.17 0.2,-0.16 0.2,-0.14 0.19,-0.16 0.09,-0.08 c 0.02,-0.03 0.06,-0.05 0.08,-0.09 0.06,-0.05 0.1,-0.11 0.15,-0.18 l 0.12,-0.18 0.1,-0.18 0.08,-0.16 c 0.02,-0.05 0.03,-0.1 0.06,-0.13 l 0.05,-0.11 z m -2.69,-13.58 v 0.04 l 0.05,0.08 a 0.6,0.6 0 0 0 0.08,0.1 c 0.04,0.03 0.08,0.05 0.14,0.05 h 0.04 c 0.01,0 0,0 0,0 h 0.25 l 0.11,-0.03 a 0.42,0.42 0 0 1 0.12,-0.02 l 0.12,-0.03 0.27,-0.08 0.16,-0.03 h 0.16 l 0.14,0.02 0.15,0.03 a 3.73,3.73 0 0 1 0.46,0.2 1.96,1.96 0 0 1 0.39,0.26 l -0.03,0.05 -0.12,-0.03 a 0.61,0.61 0 0 1 -0.14,-0.05 l -0.18,-0.04 c -0.06,-0.03 -0.13,-0.04 -0.2,-0.06 a 0.4,0.4 0 0 0 -0.12,-0.02 0.39,0.39 0 0 1 -0.11,-0.03 h -0.34 l -0.12,0.03 c -0.08,0 -0.17,0.03 -0.26,0.05 -0.1,0.03 -0.2,0.04 -0.28,0.05 h -0.15 l -0.13,-0.01 -0.12,-0.02 -0.06,-0.01 -0.07,-0.03 a 0.46,0.46 0 0 1 -0.17,-0.15 0.31,0.31 0 0 1 -0.05,-0.16 c 0,-0.1 0,-0.15 0.02,-0.15 z m 2.89,0.13 -0.1,-0.01 -0.12,-0.04 a 0.97,0.97 0 0 1 -0.14,-0.04 l -0.17,-0.05 c -0.06,0 -0.12,-0.03 -0.19,-0.04 l -0.1,-0.04 c -0.03,0 -0.07,0 -0.1,-0.02 -0.07,0 -0.14,-0.04 -0.2,-0.05 l -0.2,-0.05 -0.2,-0.03 -0.19,-0.03 h -0.42 l -0.06,0.02 h -0.03 l -0.04,-0.02 0.02,-0.04 0.07,-0.05 0.11,-0.07 0.07,-0.03 0.03,-0.01 0.05,-0.02 c 0.06,0 0.12,-0.03 0.2,-0.04 l 0.2,-0.01 0.23,0.02 0.22,0.05 0.23,0.06 c 0.07,0.03 0.15,0.06 0.2,0.1 0.07,0.03 0.13,0.05 0.18,0.1 l 0.16,0.1 0.07,0.04 a 0.2,0.2 0 0 0 0.05,0.05 l 0.1,0.08 c 0.05,0.04 0.07,0.08 0.07,0.09 z m 0.95,16.27 0.06,0.4 c 0.02,0.14 0.08,0.21 0.1,0.27 0.04,0.05 0.07,0.1 0.08,0.24 v 0 c 0.15,0.95 -0.24,1.5 -0.77,1.99 -0.54,0.48 -1.23,0.89 -1.61,1.51 -0.14,0.2 -0.23,0.43 -0.27,0.86 v 0 l -0.03,0.15 a 1.72,1.72 0 0 1 -0.77,-1.07 c -0.07,-0.34 -0.02,-0.67 0.07,-0.99 0.1,-0.31 0.23,-0.6 0.32,-0.85 0.05,-0.12 0.08,-0.23 0.1,-0.34 0.01,-0.1 0,-0.22 -0.08,-0.3 l -0.11,-0.13 -0.09,0.15 -0.16,0.33 c -0.09,0.17 -0.2,0.38 -0.38,0.62 a 6.57,6.57 0 0 1 -1.61,1.61 c -0.85,0.58 -2.28,1.08 -3.34,0.57 v 0 c -0.06,-0.02 -0.07,-0.04 -0.1,-0.06 h 0.04 c 0.61,-0.12 1.06,-0.58 1.38,-1.08 0.32,-0.5 0.53,-1.03 0.65,-1.32 l 0.01,-0.02 -0.22,-0.11 c -0.24,0.4 -0.47,0.6 -0.7,0.7 a 1.7,1.7 0 0 1 -0.68,0.15 c -0.23,0.01 -0.48,0.02 -0.73,0.13 -0.25,0.1 -0.48,0.32 -0.7,0.7 v 0 c -0.03,0.05 -0.06,0.08 -0.07,0.08 l -0.04,-0.05 v 0 a 0.97,0.97 0 0 1 -0.07,-0.98 1.35,1.35 0 0 1 0.28,-0.37 l 0.02,-0.03 0.01,-0.01 0.02,-0.02 0.16,-0.23 -0.28,0.04 c -0.04,0 -0.06,0.02 -0.08,0.03 l -0.09,0.05 -0.24,0.13 c -0.2,0.1 -0.46,0.23 -0.76,0.3 a 2.2,2.2 0 0 1 -2.13,-0.54 v 0 l -0.02,-0.01 -0.02,-0.02 0.06,-0.01 v -0.25 a 0.43,0.43 0 0 0 -0.19,0.04 0.25,0.25 0 0 0 -0.11,0.15 c -0.03,0.12 0.03,0.23 0.14,0.3 a 2.5,2.5 0 0 0 2.33,0.59 c 0.29,-0.08 0.51,-0.19 0.7,-0.28 l -0.02,0.04 c -0.14,0.3 -0.2,0.73 0.07,1.2 v 0 a 0.4,0.4 0 0 0 0.15,0.16 c 0.06,0.03 0.13,0.04 0.19,0.02 0.11,-0.04 0.17,-0.14 0.2,-0.22 v 0.01 c 0.2,-0.35 0.4,-0.5 0.6,-0.6 0.19,-0.08 0.4,-0.09 0.64,-0.1 0.24,-0.02 0.5,-0.05 0.77,-0.18 0.1,-0.04 0.18,-0.19 0.27,-0.26 -0.1,0.23 -0.17,0.42 -0.32,0.65 -0.31,0.47 -0.71,0.88 -1.22,0.97 v 0 a 0.48,0.48 0 0 0 -0.17,0.05 c -0.06,0.02 -0.12,0.04 -0.15,0.12 a 0.18,0.18 0 0 0 0,0.14 l 0.07,0.09 c 0.06,0.05 0.13,0.09 0.24,0.14 1.2,0.57 2.69,0.02 3.59,-0.6 v 0 a 6.84,6.84 0 0 0 1.68,-1.67 l 0.18,-0.3 c -0.07,0.18 -0.16,0.37 -0.23,0.61 -0.1,0.34 -0.15,0.72 -0.07,1.1 0.08,0.4 0.3,0.8 0.74,1.15 v 0 l 0.16,0.1 c 0.05,0.03 0.11,0.05 0.19,0.03 a 0.2,0.2 0 0 0 0.15,-0.15 0.9,0.9 0 0 0 0.04,-0.22 v 0 c 0.05,-0.41 0.12,-0.6 0.23,-0.75 v 0 c 0.34,-0.56 1.01,-0.96 1.57,-1.47 0.56,-0.51 1.01,-1.17 0.86,-2.2 v 0 c -0.01,-0.09 -0.04,-0.12 -0.06,-0.17 l 0.02,0.01 c 0.16,0.08 0.36,0.16 0.57,0.21 0.43,0.1 0.95,0.1 1.35,-0.25 v 0 l 0.07,-0.06 a 0.18,0.18 0 0 0 0.05,-0.13 0.2,0.2 0 0 0 -0.06,-0.14 0.7,0.7 0 0 0 -0.12,-0.09 l -0.14,0.2 0.04,0.04 c 0,0 0,0 0,0 -0.32,0.27 -0.75,0.28 -1.13,0.2 a 2.3,2.3 0 0 1 -0.52,-0.2 1.2,1.2 0 0 1 -0.28,-0.2 z M 96.64,85 a 5.1,5.1 0 0 1 -1.26,0.62 l -0.33,0.1 -0.35,0.08 a 3.9,3.9 0 0 1 -0.35,0.05 l -0.36,0.03 -0.36,-0.01 -0.18,-0.02 A 0.96,0.96 0 0 1 93.27,85.83 L 93.09,85.8 92.91,85.75 A 0.95,0.95 0 0 1 92.74,85.7 l -0.17,-0.07 a 2.8,2.8 0 0 1 -0.32,-0.16 l -0.16,-0.1 -0.16,-0.1 -0.14,-0.11 -0.14,-0.12 -0.26,-0.26 h 0.01 c -0.02,-0.01 -0.04,-0.02 -0.05,-0.06 l -0.04,-0.04 a 1.78,1.78 0 0 1 -0.06,-0.17 v -0.07 l 0.03,-0.07 a 0.24,0.24 0 0 1 0.1,-0.1 0.24,0.24 0 0 1 0.1,-0.05 l 0.12,-0.01 a 0.2,0.2 0 0 1 0.1,0.02 l -0.03,-0.01 0.2,0.02 h 0.22 a 1.33,1.33 0 0 0 0.43,-0.08 l 0.22,-0.07 0.2,-0.09 c 0.13,-0.06 0.26,-0.14 0.38,-0.23 l 0.05,-0.04 v 0 l 0.03,-0.02 h 0.03 l 0.1,-0.06 0.1,-0.06 0.12,-0.04 0.24,-0.1 0.23,-0.06 0.24,-0.06 0.24,-0.03 0.23,-0.02 h 0.24 v 0.05 l -0.24,0.04 c -0.07,0 -0.15,0.03 -0.22,0.04 l -0.23,0.06 -0.22,0.07 a 1.8,1.8 0 0 0 -0.21,0.09 0.75,0.75 0 0 0 -0.2,0.1 l -0.1,0.05 -0.1,0.07 -0.1,0.07 -0.03,0.01 h -0.01 0.01 -0.01 l -0.05,0.04 a 2.55,2.55 0 0 1 -1.1,0.55 c -0.09,0 -0.18,0.03 -0.26,0.03 l -0.24,0.01 H 91.6 l -0.02,-0.02 h -0.04 l 0.01,-0.02 V 84.5 c 0,0 0,0 0,0 0,0 0,0 0,0 l 0.02,0.02 0.02,0.02 v 0 0.02 l 0.25,0.23 0.12,0.11 0.14,0.1 a 0.9,0.9 0 0 0 0.13,0.1 l 0.14,0.09 a 3.55,3.55 0 0 0 0.45,0.2 l 0.15,0.06 0.16,0.04 0.16,0.04 0.17,0.03 0.17,0.02 0.33,0.02 h 0.34 c 0.11,0 0.23,0 0.34,-0.03 l 0.34,-0.04 0.33,-0.07 c 0.23,-0.06 0.44,-0.11 0.67,-0.2 0.25,-0.06 0.46,-0.14 0.68,-0.23 z m 3.21,1.11 -0.32,0.2 -0.15,0.1 -0.16,0.1 -0.3,0.23 -0.08,0.06 -0.07,0.06 -0.15,0.12 -0.14,0.12 -0.14,0.13 c -0.09,0.09 -0.18,0.17 -0.25,0.26 l -0.25,0.28 a 0.58,0.58 0 0 0 -0.11,0.15 l -0.1,0.14 v 0 a 5.17,5.17 0 0 1 -3.72,1.95 4.46,4.46 0 0 1 -1.7,-0.3 c -0.26,-0.1 -0.53,-0.2 -0.8,-0.33 l -0.1,-0.05 -0.1,-0.06 -0.1,-0.06 -0.09,-0.06 -0.09,-0.08 -0.1,-0.13 a 0.28,0.28 0 0 1 -0.02,-0.2 0.26,0.26 0 0 1 0.1,-0.18 0.28,0.28 0 0 1 0.14,-0.08 c 0.02,0 0.04,0 0.07,-0.02 h 0.05 l 0.2,-0.04 0.4,-0.08 a 5.7,5.7 0 0 0 2.25,-0.99 C 94.26,87.18 94.46,87 94.65,86.8 l 0.58,-0.6 c 0.2,-0.2 0.45,-0.38 0.74,-0.45 v 0.05 c -0.26,0.08 -0.46,0.27 -0.66,0.47 l -0.55,0.64 a 5.1,5.1 0 0 1 -2.1,1.44 6.9,6.9 0 0 1 -1.24,0.35 l -0.2,0.05 -0.04,0.01 -0.04,0.01 -0.04,0.02 c -0.01,0.02 -0.01,0.02 0,0 0,0 0,0 0,0 h 0.01 l 0.02,0.03 0.07,0.05 0.08,0.06 0.08,0.06 0.08,0.05 0.09,0.05 c 0.24,0.12 0.5,0.22 0.75,0.3 0.26,0.08 0.53,0.16 0.79,0.22 a 3.9,3.9 0 0 0 1.6,0 4.72,4.72 0 0 0 2.76,-1.66 v 0 l 0.12,-0.15 0.12,-0.15 c 0.08,-0.1 0.18,-0.18 0.27,-0.27 l 0.29,-0.26 0.14,-0.12 0.16,-0.11 0.16,-0.11 0.08,-0.06 0.08,-0.06 0.32,-0.2 c 0.06,-0.03 0.1,-0.07 0.17,-0.09 l 0.17,-0.09 z m 4.5,1.81 0.02,-0.18 c 0,-0.05 0.04,-0.12 0.07,-0.2 0.02,-0.08 0.08,-0.16 0.12,-0.25 l 0.2,-0.26 0.25,-0.25 0.27,-0.25 c 0.05,-0.05 0.1,-0.1 0.14,-0.12 l 0.12,-0.14 0.12,-0.13 0.1,-0.15 0.09,-0.15 0.08,-0.14 c 0.03,-0.1 0.09,-0.2 0.1,-0.3 0.03,-0.1 0.08,-0.2 0.09,-0.29 l 0.04,-0.24 c 0.01,-0.08 0.01,-0.15 0.03,-0.2 0,-0.12 0.02,-0.19 0.02,-0.19 h 0.05 a 7.9,7.9 0 0 0 0.07,0.39 v 0.27 c 0,0.1 0,0.21 -0.03,0.32 -0.01,0.12 -0.06,0.24 -0.09,0.36 -0.02,0.07 -0.06,0.13 -0.08,0.18 -0.03,0.06 -0.05,0.13 -0.1,0.18 l -0.11,0.17 -0.14,0.16 c -0.09,0.1 -0.19,0.2 -0.29,0.27 l -0.3,0.24 c -0.08,0.08 -0.17,0.14 -0.26,0.21 a 0.26,0.26 0 0 0 -0.06,0.05 l -0.05,0.05 -0.1,0.1 -0.1,0.1 c 0,0.02 -0.03,0.04 -0.04,0.05 l -0.03,0.05 c -0.05,0.05 -0.1,0.1 -0.11,0.17 l -0.08,0.15 z"/>
  </g>
</svg>
