<svg xmlns="http://www.w3.org/2000/svg" fill="#d7374a" stroke="#000" viewBox="50 50 200 200">
  <metadata source="https://wappenwiki.org/index.php/File:House_Velaryon.svg" license="https://creativecommons.org/licenses/by-nc-sa/3.0"/>
  <g id="seahorse" stroke-width=".318">
    <path class="secondary" stroke-linejoin="round" d="M80.52 102.888c.16.317.549.972.208 1.678-.439.963-3.154 4.134-5.27 3.547-.584-.142.58-2.218.05-4.191-.15-.755 2.363-.985 2.363-.985s2.532-.318 2.65-.049Z"/>
    <path stroke-linejoin="round" d="M100.666 65.64c-.728-.965-1.37-2.254-1.28-3.74 1.301 1.608 2.757 1.854 3.979 2.718"/>
    <path class="secondary background" stroke-linejoin="round" d="M79.586 86.62c.02.354.116 1.11-.476 1.622-.786.71-4.537 2.541-6.246 1.163-.48-.362 1.413-1.805 1.711-3.827.16-.752 2.559.034 2.559.034s2.45.715 2.452 1.008Z"/>
    <path class="background" stroke-linejoin="round" d="M101.739 88.303c-.517-.872-1.917-.854-2.654-1.186-.473-.42-.883-.585-1.396-.962-.803-.56-3.264-3.109-4.104-4.462-1.243-1.654-1.332-2.491-2.399-2.987-.343-.159-.797.163-1.784.35-.592.11-1.438-.105-1.853.079-1.104.49-1.445.936-2.696 1.363a6.1 6.1 0 0 1-2.565.244c-.793-.104-2.732.225-3.819 1.866-.55.749-.826.956-1.559 1.356s-2.24.943-2.392 1.606c1.94-.076 5.089 1.343 5.089 1.343s.583-.15.612-.413c.078-.67-.785-.813-.513-1.177.29-.332.455-.61.933-.626.72 0 .67.853 1.328.74.39-.073.45-.09.644-.333.306-.515-.443-1.467.545-1.697.269-.136 1.257-.095 2.39-.421 1.315-.324 1.978-.835 2.461-.808.62.42 1.613.22 1.9.346.941.413 1.033 2.768 1.457 4.87.243 1.202 1.566 3.01 2.46 4.153.754.965.16 1.268 2.655 2.632 1.186.649 3.115.16 4.235-.599.32-.218.597-.497.835-.804 1.018-1.316 1.04-3.042.19-4.473Z"/>
    <g class="pseudostroke background" fill="#000" stroke="none">
      <path d="M91.587 84.566c.468.968.82 1.977 1.238 2.962.282.643.522 1.308.9 1.904.484.732 1.085 1.397 1.689 2.038.12.13.254.249.435.272a.6.6 0 0 1-.265-.055c-.241-.13-.433-.324-.643-.496-.54-.481-1.045-.996-1.465-1.59-.212-.295-.367-.637-.517-.966-.593-1.309-.993-2.687-1.371-4.068Z"/>
      <path d="M90.235 81.572c-.542.448-1.556.287-2.119-.06.366-.044.715-.019 1.072.005.317.02.726.072 1.047.054Z"/>
      <path d="M87.113 81.513c-1.25 1.08-2.994.842-4.51 1.1.69-.39 1.516-.43 2.278-.546.771-.102 1.507-.253 2.232-.554"/>
      <path d="M79.67 84.15c-.222.453-.778.588-1.219.72-.149.042-.291.068-.447.135.06-.16.208-.276.347-.363.413-.26.87-.315 1.318-.491Z"/>
    </g>
    <path stroke-linejoin="round" d="M95.568 93.023c-1.282.048-3.639.163-4.88-.371-1.966-.646-1.714-1.224-2.89-1.224-.379 0-.655.482-1.472 1.067-.49.35-1.35.51-1.648.852-.796.91-.75 1.39-1.705 2.304-.62.577-1.659 1.163-2.422 1.403s-1.93.496-2.559 2.362c-.339.864-.47 1.444-.983 2.102-.514.658-1.681 1.755-1.558 2.423 1.75-.84 5.203-.789 5.203-.789s.475-.37.399-.623c-.195-.646-1.043-.435-.938-.877.134-.42.054-.639.512-.777.695-.185.867.653 1.474.376.357-.171.411-.204.536-.49.165-.575-.975-1.032-.176-1.657.188-.236 1.102-.615 1.992-1.387 1.058-.847 1.443-1.59 1.893-1.769.738.121 1.585-.514 1.898-.52 1.028-.021 2.333 1.69 3.884 3.17.886.847 3.006 1.575 4.392 2.002 1.17.36.68.467 1.85.828.293.09.411-.086.829-.077l.05.141"/>
    <path stroke-linejoin="round" d="M99.036 101.49c.327 4.081 3.115 7.001 7.596 9.09 5.787 2.696 11.883 6.53 11.883 13.392 0 5.368-3.415 10.619-10.256 10.619-7.514 0-8.258-5.473-8.258-7.075 0-2.597.817-4.866 2.402-6.12 1.716-1.358 3.725-.428 3.697-.532-.355-1.333-3.772-2.427-5.516-.395-4.215-.354-7.012 2.333-7.728 5.216-2.576-1.692-7.228-.893-9.434.732-2.868-.828-4.144 2.247-4.044 2.234.724-.106 2.385-1.418 4.25.19.426.368 1.02 1 1.474 1.334.98.722 2.204 1.066 3.415 1.182 2.433.232 4.963-1.04 8.089 2.304 2.232 2.436 5.787 6.424 11.966 6.424 10.471 0 18.727-8.345 18.727-18.76 0-11.47-9.077-19.424-9.481-19.79-1.467-1.413-2.79-3.353-3.132-6.38-.563-5.017 2.344-8.673 2.729-10.856.616-.277 1.577-1.497 1.337-3.028.875.838.69 1.927.732 1.991s.666-.276.901-1.372-.087-2.055-.253-2.676c-.133-.495.064-.67-.066-1.339-.119-.61-.712-1.123-.712-1.123s.626.198 1.22-.015.624-.722.98-.817c.257-.07.578.133.62.056.043-.076-.204-.623-.66-.64s-.768.313-.923.307c-.587-.021-1.025-.825-1.019-.995.093-.003 1.153-.162 1.193-1.245.024-.648-.6-1.06-.695-.972s.233 1.08-.404 1.057c-.432-.016-.561-.194-.583-.272-.142-.533.863-2.538-1.377-3.473a4 4 0 0 0-.45-.154c.643-.305 1.164-.755 1.23-1.784.045-1.19-1.483-1.744-1.529-1.59-.045.155.463.292.458.831-.013.352-.17.574-.523.561-.507-.019-.798-1.307-1.504-1.802-.45-.316-1.109-.485-1.577-.59-.405-.077-.906-.349-.947-.462.063.02.6.316 1.356.343.728.027 1.22-.698 1.24-1.264.02-.527-.427-.945-.512-.923-.085.023.207 1.19-.637 1.189-.566-.022-.777-1.013-1.66-1.457-.862-.432-1.925-.024-2.063-.116.062 0 .37-.253.401-1.106.035-.937-1.517-1.437-1.603-1.225-.053.048.981.623.625 1.255s-1.013.073-1.459.486c-.445.414-.606.977-.628.967-.469-.017-.733-.985-1.65-1.019-.919-.034-1.347.76-1.347.76s-2.423-1.339-3.246-2.705c-.223 1.22.284 2.685.519 3.07-.715-.614-2.124.9-2.212 1.06-.526-.02-.912-.453-1.574-.008-.661.445-.153 1.084-.836 1.06-.684-.026-.87-1.378-2.26-.906-.068.044.438.13.789.553.462.56.74 1.49 1.35 1.514.956.035.954-.68 1.696-.653.576.072.953.418.93.404-.48 1.078-1.08 1.11-1.587 1.751-.467.57-.123 1.353-1.011 2.14-.915.81-1.722 1.475-2.755 2.4s-.95.804-1.17.972c-.58.445-1.072.458-1.37.974-.285.464.034 1.21.029 1.756-.007.563-.134.895-.048 1.466.042.278.075.552.278.822a.99.99 0 0 0 1.033.349c.803-.214 1.41-1.4 2.325-1.681.159-.043.297-.051.393.026s.118.231-.06.47c-.176.238-.424.347-.965.723-.568.395-.916.755-.978.97-.034.138-.047.322.14.429.212.122.501-.15.501-.15s.194-.127.496-.033c.2.061.702.083.986-.13.38-.284.283-.573.7-1.01.384-.37 1.013-.616 1.596-.864 1.82-.7 2.615-.804 2.615-.804s1.1.326 2.487.012c.863-.196 1.831-.843 1.831-.843s.626 1.207.626 2.377c0 2.023-.88 3.115-1.983 4.164-1.788 1.725-3.14 1.953-4.742 3.549-.62.617-.778 1.447-.902 1.584-.378.378-1.249.434-1.67 1.161-.753 1.363-.503 1.605-.766 2.506-1.237 1.69-.547 1.903-.547 1.903"/>
    <path fill="none" d="M105.559 75.765c.34-.197.695-.568 1.02-1.408.2-.573.303-1.623.273-2.157"/>
    <path fill="#f6f6f6" d="M100.194 69.03c.699.223 1.42.77 1.42.77s-.763.664-1.328.593c-.685-.133-.864-.428-.864-.428s.095-.325.274-.577c.159-.224.399-.38.498-.357Z"/>
    <path fill="none" d="M106.485 64.408c2.707.405 6.203 1.994 8.722 6.515"/>
    <path fill="none" d="M117.414 84.298s-.768.389-1.801.235c-.145-.037-.16-.168-.106-.25"/>
    <g class="pseudostroke" fill="#000" stroke="none">
      <path d="M105.26 100.237c-.063.134-.188.227-.305.31q-.045.032-.093.062l-.095.054c-.064.038-.13.067-.196.099-.266.12-.542.215-.822.298q-.42.123-.854.19a6 6 0 0 1-.877.081.159.159 0 1 1-.006-.318h.006a8.3 8.3 0 0 0 1.678-.168q.419-.084.819-.222c.133-.047.266-.095.393-.155.126-.061.256-.123.353-.23"/>
      <path d="M97.578 92.978q.26-.19.524-.366.266-.176.542-.339t.573-.297c.2-.087.404-.17.645-.195l-.017.002c.225-.05.438-.116.63-.233.192-.114.38-.267.582-.402q.3-.206.621-.38a2.5 2.5 0 0 1 .688-.276c.494-.102.992-.012 1.45.127.231.065.456.15.683.222.227.071.455.143.694.16-.24.011-.48-.038-.712-.094l-.695-.175c-.23-.055-.462-.1-.695-.114a2.3 2.3 0 0 0-.686.047 2.4 2.4 0 0 0-.627.28q-.305.178-.59.387c-.19.137-.367.296-.583.432a2.3 2.3 0 0 1-.701.28h-.005l-.011.003c-.178.022-.37.1-.551.186a7 7 0 0 0-.54.295q-.265.161-.521.337c-.171.118-.342.24-.504.363l-.193-.253Z"/>
      <path d="M98.501 93.72c.152.075.273.195.37.329.095.135.165.28.224.424s.106.284.156.425c.049.142.1.285.146.447-.298-.162-.48-.465-.596-.752-.06-.146-.104-.288-.151-.43z"/>
      <path d="M91.445 96.68c.535.283 1.038.622 1.539.946.504.324 1.012.632 1.532.929l.194.113c.064.039.126.068.19.103l.196.091.202.083c.272.11.557.196.84.284.572.168 1.153.315 1.742.45a9 9 0 0 1-2.687-.452q-.109-.04-.217-.083l-.214-.095c-.145-.071-.276-.146-.406-.22-.26-.155-.52-.31-.773-.476-.251-.169-.503-.34-.742-.526-.481-.368-.936-.757-1.397-1.15Z"/>
      <path d="M97.667 100.471a.47.47 0 0 1 .346-.095c.124.014.238.055.33.071a.3.3 0 0 0 .225-.033c.017-.013.035-.019.052-.033l.053-.041.139-.107c.192-.138.413-.239.647-.288.23-.047.48-.047.694.054-.227.033-.43.1-.62.184q-.286.127-.539.309l-.127.093a1 1 0 0 1-.177.103c-.032.015-.07.022-.105.031-.036.008-.075.009-.112.011a.6.6 0 0 1-.206-.047c-.12-.05-.203-.117-.295-.159a.54.54 0 0 0-.307-.055Z"/>
      <path d="M88.83 94.313c-.213.15-.392.307-.576.477-.183.166-.377.34-.611.474-.118.064-.243.12-.373.159-.133.036-.273.059-.413.053-.279-.012-.558-.142-.698-.367q.171.09.347.115.174.028.342.002a1.9 1.9 0 0 0 .639-.239c.203-.116.4-.26.619-.396.217-.134.464-.254.725-.278Z"/>
      <path d="M98.135 94.793c-.014-.438-.096-.897-.325-1.273a1.1 1.1 0 0 0-.252-.302l.207-.242c.041.043.062.073.089.11.334.498.363 1.13.28 1.706Z"/>
      <path d="M98.69 87.531c-.069.11-.155.21-.229.31a6.2 6.2 0 0 0-1.16 2.214c-.002-.874.435-1.689.915-2.394.051-.073.154-.216.195-.284l.278.155Z"/>
      <path d="M86.447 96.07c-.75.56-1.6.893-2.44 1.267-.82.371-1.681.698-2.38 1.278 1.008-.91 2.352-1.374 3.514-2.05.39-.221.775-.456 1.102-.74z"/>
      <path d="M79.616 100.59c-.023.504-.479.848-.83 1.144-.122.097-.241.178-.358.301-.008-.17.082-.335.174-.47.277-.405.673-.636 1.014-.976"/>
      <path d="M103.515 86.456c.125-.085.251-.143.377-.195a3.7 3.7 0 0 1 .775-.217c.135-.021.273-.037.424-.029a1.3 1.3 0 0 1-.342.265 1.86 1.86 0 0 1-.805.225 1.3 1.3 0 0 1-.429-.049"/>
      <path d="M107.41 86.852c.104-.045.191-.07.276-.093a3 3 0 0 1 .493-.089c.087-.007.178-.015.29-.008a.54.54 0 0 1-.199.241.7.7 0 0 1-.283.115.7.7 0 0 1-.305-.01.53.53 0 0 1-.271-.156"/>
      <path d="M111.55 92.072c.1.135.153.294.176.457a1.35 1.35 0 0 1-.225.942 1 1 0 0 1-.363.328l.14-.44a6 6 0 0 0 .199-.83l.073-.455Z"/>
      <path d="M110.414 96.245c.08.059.116.162.13.263.01.103-.01.21-.05.306-.083.192-.235.351-.41.46-.17.11-.352.183-.514.262a1.7 1.7 0 0 0-.434.283c-.264.23-.482.537-.759.812a2.2 2.2 0 0 1-.463.364 1.16 1.16 0 0 1-.56.16c.362-.134.612-.404.839-.688.223-.288.43-.616.734-.886.151-.134.339-.246.52-.318.182-.075.357-.13.516-.204a1 1 0 0 0 .394-.316.6.6 0 0 0 .1-.234.4.4 0 0 0-.042-.262Z"/>
      <path d="M102.316 98.694a.47.47 0 0 1 .154-.314 1 1 0 0 1 .307-.183c.22-.084.442-.108.644-.144l.62-.11c.21-.037.42-.077.644-.101a2.2 2.2 0 0 1-.572.34q-.309.13-.64.184c-.223.04-.434.042-.631.071-.197.032-.388.073-.526.257"/>
      <path d="M103.727 96.478c.092-.04.161-.068.227-.094a3 3 0 0 1 .612-.157.38.38 0 0 1-.107.257.5.5 0 0 1-.232.142.5.5 0 0 1-.27.007.38.38 0 0 1-.23-.155Z"/>
      <path d="M96.646 76.818a.38.38 0 0 1 .208.152c.053.073.08.17.074.262a.5.5 0 0 1-.086.252.4.4 0 0 1-.201.157c.036-.17.071-.297.075-.417a.7.7 0 0 0-.013-.185c-.01-.067-.037-.133-.057-.221"/>
      <path d="M92.706 75.977q.041-.192.155-.364c.077-.11.183-.208.288-.284q.08-.058.143-.108a.4.4 0 0 0 .088-.102c.011-.017.016-.037.025-.055.004-.022.013-.04.015-.065a.4.4 0 0 0 .003-.135 1.2 1.2 0 0 0-.1-.306c-.047-.101-.11-.205-.17-.269l-.02-.018-.006-.006v-.002a.2.2 0 0 0-.054-.007.3.3 0 0 0-.139.042 1.1 1.1 0 0 0-.274.238.76.76 0 0 1 .176-.359c.05-.052.113-.1.194-.126a.33.33 0 0 1 .178-.007c.015.004.023.008.036.013q.034.016.06.033a1 1 0 0 1 .286.327c.07.12.124.25.15.401q.008.058.005.123c0 .045-.01.078-.015.117-.005.037-.022.077-.035.115q-.025.06-.061.112a.6.6 0 0 1-.177.163 2 2 0 0 1-.176.092c-.11.053-.212.103-.305.177-.096.071-.179.162-.269.258Z"/>
      <path d="M93.186 74.592c0 .058-.031.109-.057.155a2 2 0 0 1-.088.129l-.175.23c-.057.076-.109.154-.164.235-.057.08-.106.165-.177.252a.7.7 0 0 1 .025-.322.9.9 0 0 1 .146-.29 1 1 0 0 1 .229-.225q.065-.044.131-.084c.046-.025.088-.047.13-.083Z"/>
      <path d="M97.925 71.467a3 3 0 0 1-.496.728c-.195.22-.409.42-.627.608-.218.19-.443.367-.668.544-.225.176-.447.352-.676.54.124-.27.31-.506.506-.722.198-.216.412-.414.63-.601.219-.189.44-.368.662-.548s.44-.36.669-.55"/>
      <path d="M106.693 72.194c.016-.144.013-.309.005-.468a7 7 0 0 0-.043-.483 5 5 0 0 0-.084-.48c-.04-.156-.077-.32-.184-.445.066.05.11.124.152.195q.06.11.107.225.094.232.164.471.07.24.125.485c.034.165.066.327.076.51l-.318-.011Z"/>
      <path d="M102.177 69.887a.2.2 0 0 1-.011.05.2.2 0 0 1-.035.041.3.3 0 0 1-.046.028l-.049.015a.7.7 0 0 1-.186.005 1 1 0 0 1-.337-.094l.159-.276.119.08q.061.04.122.076c.042.022.083.046.124.06.042.011.076.034.14.016Z"/>
      <path d="M100.37 76.076c.12.129.267.216.422.275q.116.045.237.07c.079.017.166.03.236.034l-.065.312a1.983 1.983 0 0 1-.489-.278 1.2 1.2 0 0 1-.342-.412Z"/>
      <path d="M96.346 76.48a1.5 1.5 0 0 1-.26.013 6 6 0 0 1-.237-.011l-.235-.02c-.08-.008-.162-.015-.255-.036a.6.6 0 0 1 .239-.129.8.8 0 0 1 .526.035c.081.035.159.08.223.15Z"/>
      <path d="M99.56 70.047a2 2 0 0 1-.107.14q-.055.067-.114.134-.06.066-.122.13a.5.5 0 0 1-.155.11.5.5 0 0 1 .027-.187q.028-.085.059-.169.03-.083.066-.164a2 2 0 0 1 .074-.159z"/>
      <path d="M97.066 74.898a.24.24 0 0 1 .112-.083.25.25 0 0 1 .232.031.22.22 0 0 1 .084.112.4.4 0 0 1-.123.05.3.3 0 0 1-.2-.027.4.4 0 0 1-.105-.083"/>
      <path d="M97.567 74.617c.022-.052.068-.073.105-.087a.2.2 0 0 1 .11-.006.22.22 0 0 1 .166.152.3.3 0 0 1-.114.053.229.229 0 0 1-.177-.036c-.028-.019-.048-.043-.088-.078Z"/>
      <path d="M98.074 74.447a.16.16 0 0 1 .078-.08.13.13 0 0 1 .077-.012.12.12 0 0 1 .066.036.2.2 0 0 1 .048.097.3.3 0 0 1-.083.065.1.1 0 0 1-.068.01.1.1 0 0 1-.058-.032c-.02-.019-.033-.042-.06-.085Z"/>
      <path d="M98.56 74.334c.002-.05.037-.075.06-.09a.1.1 0 0 1 .073-.012.1.1 0 0 1 .055.04.2.2 0 0 1 .027.098.3.3 0 0 1-.079.06q-.03.015-.05.009-.022-.005-.037-.029c-.012-.017-.017-.041-.05-.076Z"/>
      <path d="M93.458 77.218c-.004-.056.028-.096.055-.124a.2.2 0 0 1 .095-.054.2.2 0 0 1 .105 0 .24.24 0 0 1 .113.063.3.3 0 0 1-.079.098.2.2 0 0 1-.084.043.2.2 0 0 1-.09.004c-.034-.004-.061-.018-.114-.03Z"/>
      <path d="M93.835 76.84a.16.16 0 0 1 .033-.105.13.13 0 0 1 .064-.045.12.12 0 0 1 .075.004c.026.01.055.026.087.064a.3.3 0 0 1-.046.097.12.12 0 0 1-.056.039.1.1 0 0 1-.066-.002.4.4 0 0 1-.09-.05Z"/>
      <path d="M94.221 76.616c-.021-.045-.002-.083.014-.107a.1.1 0 0 1 .06-.043.1.1 0 0 1 .067.01.2.2 0 0 1 .068.077.3.3 0 0 1-.044.088q-.02.026-.042.03-.022.005-.046-.01c-.019-.009-.034-.029-.078-.045Z"/>
      <path d="M99.814 72.736a.15.15 0 0 1-.016-.112.13.13 0 0 1 .039-.069.12.12 0 0 1 .07-.03.2.2 0 0 1 .107.02.23.23 0 0 1-.002.108.1.1 0 0 1-.035.06.1.1 0 0 1-.062.026c-.026.003-.054 0-.104-.005Z"/>
      <path d="M100.022 72.271c-.04-.03-.038-.075-.034-.104a.12.12 0 0 1 .039-.066.1.1 0 0 1 .066-.02c.027.002.057.01.095.04a.3.3 0 0 1-.003.098.1.1 0 0 1-.026.047q-.016.015-.045.01c-.022 0-.043-.013-.09-.006Z"/>
      <path d="M100.07 74.496c-.05.003-.08-.033-.094-.056a.1.1 0 0 1-.015-.075.1.1 0 0 1 .037-.059.2.2 0 0 1 .098-.03c.035.033.05.056.061.077q.016.03.01.052-.004.022-.027.038c-.016.014-.041.018-.072.054Z"/>
      <path d="M99.72 73.217a.15.15 0 0 1-.04-.106q.002-.046.023-.077a.12.12 0 0 1 .063-.044.2.2 0 0 1 .11-.002c.018.046.021.077.02.105a.12.12 0 0 1-.02.065.12.12 0 0 1-.055.04c-.025.01-.053.011-.102.018Z"/>
      <path d="M99.715 73.674a.16.16 0 0 1-.05-.101.123.123 0 0 1 .073-.13.2.2 0 0 1 .108-.013c.024.044.03.075.033.103a.12.12 0 0 1-.015.067.1.1 0 0 1-.05.045c-.024.012-.051.017-.099.029"/>
      <path d="M99.852 74.11a.2.2 0 0 1-.066-.087.13.13 0 0 1-.006-.073.13.13 0 0 1 .037-.062.2.2 0 0 1 .096-.049c.038.033.054.06.066.086q.015.038.006.072a.13.13 0 0 1-.038.062.2.2 0 0 1-.096.05Z"/>
      <path d="M94.764 79.312c.08-.032.16-.064.236-.107q.112-.063.216-.15c.07-.057.135-.124.208-.187a.7.7 0 0 1 .25-.141.6.6 0 0 0-.19.194c-.05.076-.095.159-.149.24q-.082.124-.189.231t-.23.197l-.152-.278Z"/>
      <path d="M93.913 74.877c-.039-.088-.064-.166-.093-.239a3 3 0 0 0-.092-.208 2 2 0 0 0-.108-.196c-.042-.063-.08-.129-.155-.185.046-.02.098-.01.145.002a.4.4 0 0 1 .129.067.6.6 0 0 1 .179.22.57.57 0 0 1-.005.539"/>
      <path d="M100.957 69.029c.07-.043.152-.035.22-.02q.106.026.192.086a.7.7 0 0 1 .147.14c.04.056.076.116.093.193a.8.8 0 0 1-.198-.063 1 1 0 0 1-.162-.095 2 2 0 0 1-.143-.11c-.047-.041-.087-.084-.149-.13Z"/>
      <path d="M101.778 67.39a4 4 0 0 1-.395.03 7 7 0 0 1-.367-.001q-.182-.006-.37-.022c-.124-.013-.252-.026-.392-.064a1 1 0 0 1 .368-.184 1.357 1.357 0 0 1 .801.025c.129.047.254.111.354.217Z"/>
      <path d="M101.594 69.02c-.087-.021-.166-.05-.247-.07-.082-.018-.159-.044-.238-.052a1.05 1.05 0 0 0-.442.01c-.138.036-.267.107-.42.186-.075.04-.161.081-.262.109a.6.6 0 0 1-.324 0l.019.003a.6.6 0 0 1-.24-.09.5.5 0 0 1-.17-.19.46.46 0 0 1-.05-.234.34.34 0 0 1 .084-.207.4.4 0 0 0 .109.344c.08.08.184.107.29.107l.02.004c.116.01.227-.04.376-.124.143-.08.317-.17.512-.198a.98.98 0 0 1 .556.09c.168.073.306.187.426.311Z"/>
      <path d="M100.385 69.105s-.073.095-.04.34c.035.246.19.636-.06.633-.249-.002-.471-.22-.498-.612a.45.45 0 0 1 .049-.247"/>
      <path d="M100.6 70.784a.6.6 0 0 1-.254.113.7.7 0 0 1-.54-.108.5.5 0 0 1-.181-.215c.092.025.172.046.251.065q.117.029.23.05c.076.013.154.03.234.042.082.016.165.025.26.052Z"/>
      <path d="M98.481 76.874c-.133.105-.266.199-.398.292a24 24 0 0 1-.399.276q-.202.136-.404.267a29 29 0 0 1-.415.267c.08-.15.192-.28.311-.395q.182-.176.39-.314.206-.14.436-.244c.153-.069.312-.125.48-.15Z"/>
      <path d="M108.864 68.225a11.4 11.4 0 0 1 2.602 2.202q.136.164.273.332l.134.167.125.175c.083.117.169.232.25.35l.232.363c.296.491.563 1.002.78 1.533q.324.8.53 1.637c.133.557.23 1.124.277 1.695.053.569.06 1.142.029 1.712a9 9 0 0 1-.243 1.687c.071-.563.096-1.128.087-1.69a14 14 0 0 0-.118-1.682 13 13 0 0 0-.855-3.237c-.422-1.036-1-2.002-1.693-2.883a15 15 0 0 0-2.411-2.359Z"/>
      <path d="M104.541 66.881c.096.068.177.099.259.138q.12.056.24.122.118.065.236.152c.077.06.155.126.228.219a.7.7 0 0 1-.326.011 1 1 0 0 1-.294-.106.8.8 0 0 1-.247-.21c-.066-.088-.124-.207-.096-.327Z"/>
      <path d="M100.697 65.432a3.6 3.6 0 0 1 .543-.35q.285-.154.583-.286.596-.263 1.223-.455l.074.31q-.627.109-1.24.294a8 8 0 0 0-.606.208 3.5 3.5 0 0 0-.577.278Z"/>
      <path d="M115.347 70.847c.44.857.815 1.746 1.101 2.665.276.922.461 1.868.555 2.823a14.3 14.3 0 0 1-.008 2.869c-.013.118-.023.238-.04.356l-.052.355c-.03.237-.085.47-.128.705-.104.466-.226.928-.388 1.377.15-.453.257-.918.348-1.386.038-.235.085-.468.109-.706l.043-.354q.017-.177.029-.355c.072-.949.046-1.903-.071-2.843a14.7 14.7 0 0 0-.625-2.767A16.4 16.4 0 0 0 115.067 71l.279-.152Z"/>
      <path d="M107.466 75.557c.108.099.215.203.308.318.088.119.183.237.25.37.153.257.254.543.32.835.067.293.084.596.058.894a2.2 2.2 0 0 1-.238.853c.013-.294.01-.576-.012-.856a5.8 5.8 0 0 0-.352-1.62c-.044-.134-.103-.262-.157-.394-.053-.134-.124-.258-.176-.399Z"/>
      <path d="M119.345 76.91a1.4 1.4 0 0 1-.247-.08 1.4 1.4 0 0 1-.223-.117 1 1 0 0 1-.191-.162.6.6 0 0 1-.119-.21.64.64 0 0 0 .374.226q.106.025.215.03c.07.003.149.003.21-.005z"/>
      <path d="M118.64 81.384a3 3 0 0 1-.28-.38 2.812 2.812 0 0 1-.356-.852 2 2 0 0 1-.061-.451c.028.147.077.29.135.425a2.7 2.7 0 0 0 .783 1.028l-.222.229Z"/>
      <path d="M117.334 69.73c-.058.022-.098.028-.146.036a1.2 1.2 0 0 1-.397-.008 1.2 1.2 0 0 1-.242-.075 1.4 1.4 0 0 1-.215-.117q.117.03.234.04c.077.007.155.001.229-.007a.9.9 0 0 0 .307-.099.4.4 0 0 0 .076-.05z"/>
      <path d="M119.61 74.803a1.327 1.327 0 0 1-.766-.153 1.1 1.1 0 0 1-.293-.235 1.3 1.3 0 0 1-.2-.303c.077.092.157.179.253.243a1.02 1.02 0 0 0 .785.175 1 1 0 0 0 .145-.036z"/>
      <path d="M110.737 62.497a.2.2 0 0 1-.024.11.2.2 0 0 1-.047.05.2.2 0 0 1-.046.022c-.022.008-.035.009-.05.012q-.038.005-.074.013a.7.7 0 0 0-.277.122q-.067.046-.129.103.029-.079.07-.156a.9.9 0 0 1 .228-.283l.074-.057c.011-.008.023-.017.025-.022.006-.004-.008 0-.01.002a.1.1 0 0 0-.034.035.14.14 0 0 0-.02.091l.315-.044Z"/>
      <path d="M111.126 64.666c.125-.086.26-.172.413-.214.15-.047.31-.075.472-.07q.242.001.48.063c.158.043.305.094.463.176l-.177.264a1.9 1.9 0 0 0-.78-.346 1.4 1.4 0 0 0-.44-.011c-.15.015-.291.073-.431.137Z"/>
      <path d="M107.736 63.467a1.6 1.6 0 0 1-.013-.317c.008-.108.027-.22.07-.335l.264.177c-.133.106-.246.285-.321.475"/>
      <path d="M115.353 84.243a.3.3 0 0 1 .075-.119 1 1 0 0 1 .067-.06q.064-.05.124-.088l.242-.156c.159-.102.316-.204.465-.315q.227-.165.419-.369a1.6 1.6 0 0 0 .312-.465 1.7 1.7 0 0 1-.25.515c-.11.159-.239.303-.376.44a8 8 0 0 1-.427.387q-.11.092-.213.183-.052.047-.094.09l-.034.04c-.01.011-.009.024 0 0l-.308-.082Z"/>
      <path d="M100.948 64.526a1.886 1.886 0 0 0-.984-.3l.054-.314q.281.091.517.248c.156.104.298.225.414.366Z"/>
      <path d="M117.931 75.024c-.272-.344-.41-.784-.489-1.212-.043-.214-.067-.429-.101-.639a6 6 0 0 0-.113-.617c-.094-.4-.258-.77-.524-1.082a3.3 3.3 0 0 0-.448-.432c-.162-.136-.342-.252-.52-.377.415.122.82.325 1.148.64.166.153.303.34.414.541.11.202.186.419.239.637.102.44.117.875.15 1.297.034.423.09.837.244 1.244"/>
      <path d="M115.404 68.14a.4.4 0 0 1-.266-.014 1 1 0 0 1-.236-.133 3.4 3.4 0 0 1-.393-.348c-.243-.24-.47-.488-.721-.677a1.6 1.6 0 0 0-.405-.225 4 4 0 0 0-.466-.147c-.322-.08-.657-.137-.995-.211.342-.057.69-.072 1.04-.033q.263.025.523.108a1.6 1.6 0 0 1 .494.255c.294.222.513.498.718.77.104.133.201.27.31.395.109.12.223.247.4.261Z"/>
      <path d="M111.221 63.894c-.18.05-.342.099-.501.155a8 8 0 0 0-.466.183c-.155.066-.31.135-.473.2-.082.031-.165.064-.252.09q-.067.02-.136.035a1 1 0 0 1-.073.008c-.025 0-.054 0-.072-.02.023 0 .04-.014.057-.027l.05-.042.097-.09q.1-.09.206-.173c.144-.108.302-.203.472-.274.17-.073.353-.121.54-.135.187-.013.38.008.55.089Z"/>
      <path d="M109.136 62.865a.5.5 0 0 1 .086.448.8.8 0 0 1-.266.379c-.107.093-.213.162-.306.236a1 1 0 0 0-.254.285c-.058-.14-.02-.317.063-.447.083-.133.192-.23.288-.315.098-.085.185-.156.247-.24a.9.9 0 0 0 .141-.346Z"/>
      <path d="M119.306 79.65a1.8 1.8 0 0 1-.497-.584c-.125-.232-.186-.488-.254-.71a2.7 2.7 0 0 0-.276-.634c-.118-.206-.266-.4-.399-.62.224.123.428.277.601.472.172.194.308.438.379.688.074.25.108.485.179.707.067.226.166.445.267.68Z"/>
      <path d="M100.211 65.074c-.248-.017-.483-.053-.713-.068-.227-.016-.454-.014-.625.058a.6.6 0 0 0-.224.165c-.068.074-.129.172-.204.273-.038.05-.08.103-.131.15a.6.6 0 0 1-.18.114.53.53 0 0 1-.387-.022.63.63 0 0 0 .313-.116c.078-.062.122-.152.172-.255s.099-.22.181-.332a.8.8 0 0 1 .337-.27 1 1 0 0 1 .41-.068c.133.002.26.027.381.06q.364.102.67.313Z"/>
      <path d="M101.81 60.413c.07.27.179.523.33.743.15.222.342.412.54.595q.308.267.63.533.32.269.619.574a4.362 4.362 0 0 1 .924 1.428c.213.528.313 1.091.326 1.647-.145-.538-.31-1.063-.553-1.546a5.3 5.3 0 0 0-.929-1.311c-.367-.396-.8-.738-1.19-1.15a3 3 0 0 1-.502-.694 1.9 1.9 0 0 1-.195-.821Z"/>
      <path d="M104.53 65.599a1.2 1.2 0 0 1-.42-.318 1.6 1.6 0 0 1-.274-.451 1.5 1.5 0 0 1-.114-.516c-.01-.176.019-.355.086-.52.065.169.105.325.16.475q.075.226.163.441.085.217.189.434l.212.455Z"/>
      <path d="M104.296 65.797a3.2 3.2 0 0 1-.688-.558 9 9 0 0 1-1.113-1.378q-.06-.093-.12-.187l-.112-.193c-.076-.128-.14-.263-.208-.396l.286-.14c.133.253.268.505.42.748.071.124.154.241.232.362q.122.178.248.352.254.35.53.682c.187.22.374.44.544.683l-.02.025Z"/>
      <path d="M105.026 62.502a4.1 4.1 0 0 1 1.286 1.283c.164.256.296.53.408.809.11.278.192.57.214.871l-.032.01c-.146-.263-.262-.53-.388-.79a5 5 0 0 0-.437-.743 4.3 4.3 0 0 0-.556-.645 5 5 0 0 0-.668-.527l.172-.268Z"/>
      <path d="M117.589 82.472a6 6 0 0 0-.142-.541c-.053-.174-.11-.354-.141-.548a2 2 0 0 1-.013-.59c.03-.197.089-.386.19-.557.03.198.04.382.06.562s.047.354.076.532c.03.178.065.363.075.56.008.195-.013.404-.104.582Z"/>
    </g>
    <g>
      <path fill="none" d="M95.568 93.023c.366-.041.825-.076 1.245-.032.286.03.725.102.862.115"/>
      <path fill="none" d="M99.215 101.348c.081.06.198-.012.255-.096s.099-.191.192-.233c.124-.055.263.03.386.086.715.331 1.631.054 1.97.066"/>
    </g>
    <g class="pseudostroke" fill="#000" stroke="none">
      <g>
        <path d="M87.307 129.29c-.447-.28-.819-.603-1.212-.946-.704-.613-1.432-1.246-2.735-1.78l.121-.295c1.35.553 2.133 1.234 2.823 1.835.384.333.746.65 1.171.915l-.168.27Z"/>
        <path d="m98.739 125.481-.31-.068.091-.436c.288-1.38.68-3.272 1.949-4.618l.23.219c-1.204 1.28-1.588 3.12-1.867 4.463z"/>
        <path d="M87.475 129.02c.223.154.464.293.708.424a13 13 0 0 0 1.527.684c.263.094.53.18.805.238a6 6 0 0 1-.829-.163q-.41-.106-.81-.243-.402-.137-.794-.3a8 8 0 0 1-.775-.37z"/>
        <path d="M98.739 125.481c-.117.414-.204.839-.294 1.268-.045.214-.092.43-.151.641-.06.212-.133.421-.237.614.08-.204.125-.417.158-.63.033-.215.053-.431.072-.648.037-.435.072-.873.14-1.312l.31.068Z"/>
        <path d="M87.614 127.754c.486.22.98.392 1.482.546l.757.224q.38.114.76.237c.252.087.503.178.751.283.246.108.491.222.723.36.467.27.895.612 1.236 1.022a8 8 0 0 0-1.351-.802 10 10 0 0 0-.72-.301 15 15 0 0 0-.74-.261l-.75-.251c-.25-.09-.503-.175-.75-.278-.494-.2-.98-.445-1.398-.78"/>
        <path d="M89.708 126.932c.224.108.46.167.7.208.239.043.481.071.726.105.245.03.491.069.741.127.124.029.254.073.37.121.119.044.234.099.35.155q.342.178.647.411.299.24.554.516c.344.365.638.752.997 1.096-.44-.24-.805-.597-1.17-.917-.364-.323-.746-.611-1.172-.822a4 4 0 0 0-.325-.15 3 3 0 0 0-.33-.12c-.227-.07-.469-.114-.708-.173a7 7 0 0 1-.722-.198c-.236-.085-.474-.191-.66-.359Z"/>
        <path d="M97.736 123.34c-.142.434-.284.86-.411 1.291l-.091.323-.086.325q-.04.163-.082.324l-.073.326q-.143.654-.24 1.318c-.065.443-.115.89-.168 1.344-.08-.45-.1-.91-.08-1.367.02-.458.079-.915.178-1.363l.083-.334c.032-.11.06-.222.093-.331l.11-.327q.058-.162.123-.32c.173-.425.383-.834.644-1.21Z"/>
        <path d="M95.21 124.686a.6.6 0 0 0-.104.283q-.023.15-.026.303c-.009.204 0 .408.01.612.015.203.028.408.052.61q.03.307.077.609c.06.405.129.808.219 1.207q.133.598.327 1.196c-.248-.34-.429-.73-.566-1.128a6.6 6.6 0 0 1-.294-1.23 6.6 6.6 0 0 1-.06-1.265q.014-.318.082-.632c.025-.104.053-.208.096-.307.043-.098.097-.2.188-.259Z"/>
        <path d="M93.497 126.633a1.9 1.9 0 0 0-.36-.44c-.137-.134-.282-.264-.417-.424l.268-.17c.072.164.176.327.274.497.097.17.19.349.234.538Z"/>
      </g>
      <g>
        <path d="M108.276 106.205c.286-.037.567-.06.84-.106s.537-.113.782-.218a2.1 2.1 0 0 0 .657-.441c.187-.19.338-.42.421-.698.03.29-.082.594-.265.832-.182.24-.43.432-.709.55a2.4 2.4 0 0 1-.866.18 3 3 0 0 1-.86-.099Z"/>
        <path d="M115.545 107.182c.25-.097.487-.196.715-.311a5.4 5.4 0 0 0 1.244-.864c.188-.174.364-.362.542-.561-.083.254-.222.49-.39.7a2.8 2.8 0 0 1-1.318.915 2.2 2.2 0 0 1-.793.121"/>
        <path d="M114.035 109.598c.267.007.524.007.779-.01a5.6 5.6 0 0 0 1.483-.315c.24-.087.474-.192.716-.307a2.2 2.2 0 0 1-.632.495 2.85 2.85 0 0 1-1.568.333 2.2 2.2 0 0 1-.778-.196"/>
        <path d="M118.63 112.267c.175-.022.331-.05.483-.095a2.4 2.4 0 0 0 .822-.422 3 3 0 0 0 .359-.337.97.97 0 0 1-.211.483 1.29 1.29 0 0 1-.937.481.97.97 0 0 1-.516-.109Z"/>
        <path d="M119.69 110.147c.175-.022.331-.05.483-.095a2.4 2.4 0 0 0 .822-.422 3 3 0 0 0 .359-.337.97.97 0 0 1-.211.483 1.29 1.29 0 0 1-.937.481.97.97 0 0 1-.516-.109Z"/>
        <path d="M112.564 111.954c.239-.007.466-.018.69-.044a5 5 0 0 0 1.294-.332c.208-.085.413-.184.625-.291a1.9 1.9 0 0 1-.532.476 2.4 2.4 0 0 1-1.382.353 1.9 1.9 0 0 1-.696-.163Z"/>
        <path d="M118.014 115.093c.2.012.38-.008.553-.054q.261-.067.498-.192c.16-.082.315-.18.473-.283.16-.102.317-.21.496-.3q-.155.253-.364.461c-.14.14-.3.263-.483.356a1.4 1.4 0 0 1-.59.163.94.94 0 0 1-.582-.152Z"/>
        <path d="M121.108 116.484c.203-.017.396-.024.588-.037a11 11 0 0 0 1.134-.134c.19-.03.38-.07.581-.1a1.9 1.9 0 0 1-.525.302 2.46 2.46 0 0 1-1.197.14 1.9 1.9 0 0 1-.581-.17Z"/>
        <path d="M120.007 119.612c.188-.022.368-.03.548-.043q.267-.016.53-.038.265-.022.53-.05c.179-.018.358-.04.549-.048a1.8 1.8 0 0 1-.504.252 2.44 2.44 0 0 1-1.115.092 1.8 1.8 0 0 1-.538-.164Z"/>
        <path d="M122.009 112.675a5 5 0 0 0 .467-.114q.222-.067.424-.163.205-.096.397-.222c.13-.084.253-.18.387-.285a1.03 1.03 0 0 1-.253.444c-.117.126-.261.23-.42.303a1.4 1.4 0 0 1-.5.127 1 1 0 0 1-.503-.09Z"/>
        <path d="M123.069 114.795a5 5 0 0 0 .467-.114q.222-.067.424-.163.205-.096.397-.222c.13-.084.253-.18.387-.285a1.03 1.03 0 0 1-.253.444c-.117.126-.261.23-.42.303a1.4 1.4 0 0 1-.5.127 1 1 0 0 1-.503-.09Z"/>
        <path d="M123.022 123.082c.189.014.365.028.539.028q.26 0 .515-.028.254-.03.508-.09c.17-.041.338-.094.518-.15a1.3 1.3 0 0 1-.446.345 1.7 1.7 0 0 1-1.119.13 1.3 1.3 0 0 1-.514-.233Z"/>
        <path d="M124.022 119.925c.172-.001.328 0 .484-.01a4 4 0 0 0 .906-.153c.15-.04.298-.094.46-.148a1.1 1.1 0 0 1-.379.34 1.501 1.501 0 0 1-1.002.167 1.1 1.1 0 0 1-.47-.196Z"/>
        <path d="M119.786 125.784c.153-.023.295-.033.435-.047l.414-.04.414-.048c.14-.016.28-.036.435-.045-.109.11-.241.187-.381.246a1.6 1.6 0 0 1-.892.094 1.2 1.2 0 0 1-.425-.16"/>
        <path d="M109.026 109.932c.186-.06.364-.11.537-.169q.26-.084.51-.185a8 8 0 0 0 .495-.222c.166-.08.328-.166.504-.252-.1.169-.24.309-.392.43a2.135 2.135 0 0 1-1.073.434c-.194.018-.39.014-.58-.036Z"/>
        <path d="M118.063 108.265c.195-.09.383-.169.566-.26a7.211 7.211 0 0 0 1.04-.607c.167-.114.33-.239.503-.365-.088.196-.22.37-.369.523a2.4 2.4 0 0 1-1.103.644 1.9 1.9 0 0 1-.637.064Z"/>
        <path d="M114.061 105.186c.153-.1.295-.19.43-.29a4 4 0 0 0 .72-.674c.11-.127.209-.263.32-.408-.006.183-.063.36-.146.523a1.63 1.63 0 0 1-.79.74 1.25 1.25 0 0 1-.533.11Z"/>
        <path d="M111.179 103.025c.183-.07.353-.136.515-.216q.243-.12.463-.267.22-.15.42-.331c.135-.12.26-.254.392-.399a1.3 1.3 0 0 1-.236.537 1.734 1.734 0 0 1-.969.656 1.3 1.3 0 0 1-.585.021Z"/>
        <path d="M101.133 104.784c.206-.058.405-.102.601-.154a13 13 0 0 0 1.155-.348c.192-.066.382-.138.586-.202a2 2 0 0 1-.5.392 2.8 2.8 0 0 1-1.209.363 2.1 2.1 0 0 1-.633-.05Z"/>
        <path d="M103.509 106.185c.199-.023.386-.043.569-.074a4.8 4.8 0 0 0 1.06-.303c.173-.07.342-.152.524-.237-.109.17-.259.308-.425.42a1.972 1.972 0 0 1-1.147.326c-.2-.008-.401-.046-.583-.132Z"/>
        <path d="M105.697 107.993c.199.014.387.03.573.032a4.8 4.8 0 0 0 1.098-.1c.184-.036.365-.084.559-.134a1.5 1.5 0 0 1-.495.334 1.945 1.945 0 0 1-1.187.108 1.5 1.5 0 0 1-.548-.239Z"/>
        <path d="M115.555 113.445a4 4 0 0 0 .602-.143 3.4 3.4 0 0 0 1.047-.55c.159-.122.307-.261.459-.415-.055.21-.172.4-.316.566a1.847 1.847 0 0 1-1.147.603 1.4 1.4 0 0 1-.645-.06Z"/>
        <path d="M118.797 117.554c.141.005.268.016.394.025q.187.012.37.019.18.005.37.003c.125 0 .253-.004.394 0a.9.9 0 0 1-.36.205q-.201.062-.412.055a1.3 1.3 0 0 1-.407-.08.9.9 0 0 1-.348-.227Z"/>
        <path d="m119.787 122.633.502-.044a7 7 0 0 0 .95-.153l.491-.116a1.4 1.4 0 0 1-.42.312q-.239.116-.501.158c-.174.027-.352.03-.526.007a1.4 1.4 0 0 1-.497-.163Z"/>
        <path d="M118.835 127.987c.135.046.254.089.373.126a4.5 4.5 0 0 0 .714.16c.124.018.25.03.39.047a.84.84 0 0 1-.386.162 1.123 1.123 0 0 1-.81-.183.83.83 0 0 1-.28-.312"/>
        <path d="M122.502 127.323c.138.04.26.085.383.122a7 7 0 0 0 .726.187c.125.026.253.046.393.078a.9.9 0 0 1-.403.13 1.24 1.24 0 0 1-.81-.21.9.9 0 0 1-.29-.309Z"/>
        <path d="M124.073 125.67c.116.013.216.038.314.062a6 6 0 0 1 .56.183c.092.037.188.075.29.133a.74.74 0 0 1-.327.071q-.167 0-.323-.052a1 1 0 0 1-.292-.15.74.74 0 0 1-.221-.248Z"/>
        <path d="M103.766 135.204c-.005.123-.022.232-.038.338l-.05.31-.056.308c-.021.104-.041.212-.077.33a.8.8 0 0 1-.13-.332 1.096 1.096 0 0 1 .119-.687.8.8 0 0 1 .233-.269Z"/>
        <path d="M106.436 136.287c.045.12.067.235.085.348a3.4 3.4 0 0 1 .035.679 2 2 0 0 1-.049.355 1 1 0 0 1-.157-.33 1.5 1.5 0 0 1-.036-.709c.023-.117.057-.234.122-.344Z"/>
        <path d="M108.767 137.2c.001.136 0 .256.007.373a3.5 3.5 0 0 0 .097.676c.028.113.062.228.099.358a.72.72 0 0 1-.29-.276 1 1 0 0 1-.112-.784c.036-.13.1-.253.2-.347"/>
        <path d="M111.094 135.342c-.03.157-.055.298-.067.44a3 3 0 0 0-.01.417q.011.206.05.413c.026.14.065.278.109.432a.9.9 0 0 1-.306-.364 1.21 1.21 0 0 1-.045-.946.9.9 0 0 1 .27-.39Z"/>
        <path d="M112.541 136.566c.034.138.056.266.083.39a9 9 0 0 0 .187.723c.037.121.079.243.117.381a.9.9 0 0 1-.304-.29 1.27 1.27 0 0 1-.21-.805.9.9 0 0 1 .125-.402Z"/>
        <path d="m114.45 136.519.2.245a5 5 0 0 0 .382.417l.226.22a.6.6 0 0 1-.34-.045.83.83 0 0 1-.453-.495.6.6 0 0 1-.016-.341Z"/>
        <path d="M114.852 133.647c.023.132.043.247.07.359a3 3 0 0 0 .22.63c.049.104.105.206.169.325a.7.7 0 0 1-.338-.204.95.95 0 0 1-.259-.739.7.7 0 0 1 .137-.37Z"/>
        <path d="M116.848 134.005c.04.164.092.305.162.434a1.74 1.74 0 0 0 .583.63c.124.081.26.145.42.197a.78.78 0 0 1-.508-.007 1.06 1.06 0 0 1-.437-.288 1.06 1.06 0 0 1-.25-.459.78.78 0 0 1 .03-.507Z"/>
        <path d="M119.006 133.93c.113.044.21.09.304.135l.277.13.278.125c.095.044.192.086.3.144a.7.7 0 0 1-.348.059.978.978 0 0 1-.63-.29.7.7 0 0 1-.181-.304"/>
        <path d="M117.487 131.28c.038.175.098.324.175.461.076.138.17.265.272.383.105.119.22.231.342.347.12.116.247.232.359.37a2 2 0 0 1-.484-.204 1.7 1.7 0 0 1-.416-.338 1.3 1.3 0 0 1-.267-.48.8.8 0 0 1 .018-.539Z"/>
        <path d="M118.818 130.283c.129.032.24.075.35.119q.162.066.317.138.156.073.312.153c.104.055.209.112.317.189a1 1 0 0 1-.38.01 1.36 1.36 0 0 1-.675-.313 1 1 0 0 1-.24-.296Z"/>
        <path d="M121.568 130.245c.153.074.293.147.435.21q.21.095.425.17.214.072.44.127c.15.039.305.067.47.103a1.2 1.2 0 0 1-.494.105 1.572 1.572 0 0 1-.95-.328 1.16 1.16 0 0 1-.326-.386Z"/>
        <path d="M120.006 132.209a.3.3 0 0 0 .145.164 1 1 0 0 0 .2.086 9 9 0 0 0 .883.253c.152.039.305.068.469.114a1.3 1.3 0 0 1-.491.094 1.724 1.724 0 0 1-.953-.276.7.7 0 0 1-.198-.179c-.053-.073-.088-.174-.055-.256"/>
        <path d="m104.692 137.379-.141.339a5 5 0 0 0-.215.641l-.094.355a.8.8 0 0 1-.114-.374 1.04 1.04 0 0 1 .247-.733c.086-.1.19-.183.317-.228"/>
        <path d="M102.424 134.422c-.112.112-.219.208-.319.31a5 5 0 0 0-.538.645c-.083.116-.16.239-.25.37a1 1 0 0 1 .065-.465 1.383 1.383 0 0 1 .598-.713c.137-.079.286-.136.445-.146Z"/>
        <path d="M102.331 136.14c-.036.112-.073.205-.107.298s-.066.18-.096.27a8 8 0 0 0-.088.27c-.03.094-.058.192-.098.302a.6.6 0 0 1-.11-.322.868.868 0 0 1 .216-.63.64.64 0 0 1 .284-.189Z"/>
        <path d="M100.224 134.435a2 2 0 0 1-.135.229 5 5 0 0 1-.279.375 2 2 0 0 1-.18.194.5.5 0 0 1-.007-.284.7.7 0 0 1 .327-.439.5.5 0 0 1 .275-.075Z"/>
        <path d="M100.691 132.438c-.103.097-.206.176-.308.254l-.303.226-.308.22a4 4 0 0 1-.336.216 1.1 1.1 0 0 1 .192-.366 1.5 1.5 0 0 1 .655-.478c.13-.047.265-.077.407-.072Z"/>
        <path d="m111.487 107.398.483-.215a8 8 0 0 0 .896-.472c.148-.087.292-.183.45-.276a1.5 1.5 0 0 1-.321.44 2 2 0 0 1-.96.504c-.18.035-.364.05-.545.017Z"/>
        <path d="M107.257 103.32c.185-.046.357-.094.521-.156a3.3 3.3 0 0 0 .898-.512 5 5 0 0 0 .4-.369c-.036.189-.13.364-.251.516-.122.152-.275.28-.446.377s-.358.163-.55.19-.39.02-.571-.045Z"/>
        <path d="M98.596 132.807a4 4 0 0 0-.325.046 2.4 2.4 0 0 0-.556.183 4 4 0 0 0-.29.153.56.56 0 0 1 .166-.32.783.783 0 0 1 .68-.222c.121.02.24.07.325.16Z"/>
        <path d="M109.165 135.44c.025.125.03.241.033.357a4 4 0 0 1-.054.675 2 2 0 0 1-.09.348 1 1 0 0 1-.12-.347 1.5 1.5 0 0 1 .058-.709c.04-.113.091-.225.173-.323Z"/>
        <path d="M112.955 134.833c.09.116.163.228.237.339l.214.327.215.327c.072.11.146.222.216.352a1.1 1.1 0 0 1-.37-.213 1.5 1.5 0 0 1-.282-.32 1.5 1.5 0 0 1-.18-.386 1.1 1.1 0 0 1-.048-.426Z"/>
        <path d="M116.033 135.907c.08.094.144.18.208.263a12 12 0 0 0 .388.476c.068.08.14.16.215.259a.7.7 0 0 1-.345-.096.973.973 0 0 1-.443-.545.7.7 0 0 1-.024-.357Z"/>
        <path d="M122.604 128.973c.14.016.265.04.388.061l.363.065.365.06c.124.02.25.037.387.07a.95.95 0 0 1-.387.138 1.32 1.32 0 0 1-.797-.137 1 1 0 0 1-.32-.257Z"/>
        <path d="M122.122 121.028c.154.032.292.073.43.11q.207.056.409.107l.411.099c.139.034.281.064.43.108a1.2 1.2 0 0 1-.449.099 1.6 1.6 0 0 1-.882-.224 1.2 1.2 0 0 1-.349-.3Z"/>
        <path d="M123.752 117.528c.18-.037.35-.067.517-.107a5.2 5.2 0 0 0 .955-.323c.157-.07.31-.148.476-.228a1.35 1.35 0 0 1-.37.407 1.8 1.8 0 0 1-1.039.35c-.184 0-.37-.027-.54-.1Z"/>
      </g>
    </g>
  </g>
</svg>
