<svg xmlns="http://www.w3.org/2000/svg" fill="#d7374a" stroke="#000" viewBox="50 50 200 200">
  <metadata author="MostEpic" source="https://commons.wikimedia.org/wiki/File:Arms_of_the_house_of_Ranjina.svg" license="https://creativecommons.org/licenses/by-sa/4.0"/>
  <g id="spider" stroke-width=".75">
    <path d="M103.473 104.905c-.397-1.937 1.358-1.26 2.02-1.32 1.864-.17 8.094 3.623 7.705 11.243 3.307 1.61 2.734 2.836 4.077 5.556.384.776.958-.015 1.495.946 1.407 2.27 1.034 4.098 2.927 5.695 1.35 1.14 1.704 1.56 4.473 5.404 1.085 1.456 4.596 5.797 3.61 6.381-1.818.456-3.79-1.794-4.21-3.83-.742-1.96-4.023-4.526-5.413-6.738-1.69-.846-3.111-3.808-4.118-5.71-2.806-2.295-2.84-2.584-3.806-6.806-3.146-7.343-2.281-7.186-8.76-10.821z"/>
    <path d="M97.426 105.422c.397-1.937-1.358-1.26-2.02-1.32-1.864-.17-8.094 3.623-7.705 11.242-3.307 1.61-2.734 2.837-4.077 5.557-.384.775-.958-.015-1.495.946-1.407 2.27-1.033 4.097-2.927 5.695-1.35 1.14-1.704 1.56-4.472 5.404-1.086 1.455-4.597 5.796-3.611 6.381 1.818.455 3.79-1.795 4.21-3.83.742-1.96 4.023-4.526 5.413-6.738 1.69-.846 3.111-3.808 4.118-5.71 2.806-2.295 2.84-2.584 3.806-6.806 3.146-7.343 2.281-7.187 8.76-10.821z"/>
    <path d="M102.24 88.398c.522 1.13.167 1.18 1.821.89.411-.443 2.999.22 3.303-4.554.463-5.668-3.323-6.318-2.942-8.726 3.75-2.14 1.196-6.51 3.319-7.788 1.712-.44 3.344-1.047 3.825-2.559.547-1.061-2.29-1.288-4.812.893-.618.592-5.015 2.754-4.376 11.436.157 2.129 2.768 4.6 2.683 6.432-.758 4.097-1.91 3.07-2.821 3.976z"/>
    <path d="M97.06 88.55c-.522 1.13-.167 1.18-1.821.89-.411-.443-2.999.22-3.303-4.554-.463-5.668 3.323-6.318 2.942-8.726-3.75-2.14-1.196-6.51-3.319-7.788-1.712-.44-3.344-1.047-3.825-2.558-.547-1.062 2.29-1.288 4.812.892.618.592 5.015 2.754 4.376 11.436-.157 2.129-2.768 4.6-2.683 6.432.758 4.097 1.91 3.07 2.821 3.976z"/>
    <path d="M95.413 91.355c.074 1.975.701 3.15.038 3.102-1.867-.138-5.976-1.572-7.294-4.805-.436-.419-.548-.84-1.85-6.895-.36-5.593-2.524-4.964-6.71-16.4-1.062-1.389-1.727-3.817-.658-4.233.579-.531 2.486 1.31 2.451 3.032 1.559 5.062 8.454 8.109 8.394 22.397-.009 2.135 4.089 4.176 5.629 3.802z"/>
    <path d="M103.882 102.727c-1.488-1.302-2.773-1.652-2.283-2.1 1.38-1.264 5.244-3.27 8.5-2.01.394-.02 1.053 1.19 3.802 3.304 1.327 1.02 2.861 1.378 4.61 2.562 2.494.955 3.097.876 6.422 1.661 1.72.407 2.75-.916 6.124 1.696 2.182-.528 5.823 1.896 5.392 2.958-.301.889-3.705.128-5.808-.57-2.128.377-4.798-.12-6.736-1.86-1.858.35-4.041-.404-5.994-1.31-3.623-.127-6.087-2.624-9.44-5.552-1.608-1.404-3.805-.156-4.589 1.22z"/>
    <path d="M96.578 103.848c1.488-1.302 2.774-1.652 2.284-2.1-1.381-1.264-5.245-3.27-8.5-2.01-.395-.02-1.054 1.19-3.803 3.304-1.327 1.02-2.86 1.378-4.61 2.562-2.493.955-3.097.876-6.421 1.661-1.72.407-2.751-.916-6.125 1.696-2.182-.527-5.823 1.896-5.392 2.958.302.889 3.706.128 5.809-.57 2.127.378 4.798-.12 6.736-1.86 1.857.35 4.04-.404 5.994-1.31 3.622-.127 6.087-2.623 9.44-5.552 1.608-1.404 3.804-.156 4.588 1.22z"/>
    <path d="M95.995 92.539c1.488 1.301.912 3.424.422 3.873-1.38 1.263-2.585.876-5.841-.383-.394.02-1.762.315-4.511-1.798-1.327-1.02-1.798-3.594-3.547-4.778-1.487.653-2.743-.29-3.698-1.532-.115-1.268-1.522-.13-2.989-.395-1.63-.169-2.33-.078-4.146-.652-3.725-1.177-9.405-1.66-9.143-2.85 1.542-.8 6.276-.66 8.379.038 3.66.415 8.147-.21 11.577 3.292.191.728 2.252 1.052 2.252 1.052 1.298.58 3.33 2.676 5.239 4.91 1.386 1.624 5.222.6 6.006-.777z"/>
    <path d="M102.746 91.787c-1.488 1.301-.912 3.424-.422 3.873 1.381 1.264 2.585.876 5.842-.383.394.02 1.761.315 4.51-1.798 1.328-1.02 1.798-3.594 3.547-4.778 1.487.653 2.743-.29 3.698-1.532.116-1.268 1.522-.13 2.99-.395 1.63-.169 2.329-.078 4.145-.652 3.726-1.177 9.405-1.66 9.144-2.85-1.542-.8-6.276-.66-8.38.038-3.66.415-8.147-.21-11.577 3.292-.19.728-2.252 1.052-2.252 1.052-1.298.58-3.33 2.676-5.238 4.91-1.386 1.624-5.222.6-6.007-.777z"/>
    <path stroke-width=".9" d="M110.781 118.848c0 6.99-4.637 12.656-10.358 12.656-5.72 0-10.358-5.666-10.358-12.656s4.637-12.656 10.358-12.656c5.72 0 10.358 5.667 10.358 12.656z"/>
    <path stroke-width=".9" d="M104.796 91.014c.041 1.977-.516 3.187.142 3.1 1.856-.247 5.875-1.92 7.002-5.223.41-.444.497-.87 1.443-6.992.032-5.604 2.23-5.103 5.74-16.763.978-1.45 1.5-3.913.41-4.265-.61-.497-2.406 1.452-2.271 3.17-1.26 5.145-7.965 8.589-7.07 22.85.134 2.13-3.837 4.407-5.396 4.123z"/>
    <path d="M104.808 93.127c1.994 13.493-3.92 13.074-4.509 13.01-5.72 0-5.04-6.906-5.04-13.896.088-2.4.314-4.442 1.691-5.684 1.239-1.118-.013-3.291.658-4.397.506-.834.548-1.584.548-1.584.233-.141.89 1.36 1.15 2.045.486 1.278-.094 2.278.727 2.284.931.006.3-1.234.562-2.477.166-.784.858-1.78 1.034-1.78 1.915 2.216.364 4.504 1.37 6.046 1.057 1.62 1.809 2.612 1.809 6.433z"/>
    <path stroke="none" fill="black" opacity=".3" d="M104.808 93.127c1.994 13.493-3.92 13.074-4.509 13.01-5.72 0-5.04-6.906-5.04-13.896.088-2.4.314-4.442 1.691-5.684 1.239-1.118-.013-3.291.658-4.397.506-.834.548-1.584.548-1.584.233-.141.89 1.36 1.15 2.045.486 1.278-.094 2.278.727 2.284.931.006.3-1.234.562-2.477.166-.784.858-1.78 1.034-1.78 1.915 2.216.364 4.504 1.37 6.046 1.057 1.62 1.809 2.612 1.809 6.433z"/>
    <path stroke="none" d="M104.143 93.389c-.745 13.108-1.71 11.536-3.932 11.761-4.424-.048-4.08-5.754-4.08-12.743.089-2.4-.07-4.298 1.307-5.54 1.24-1.118.083-3.34.754-4.445.506-.834.164-.575.164-.575.233-.141.072.302.333.987.487 1.278-.04 2.899 1.16 2.861 2.239-.07 1.164-1.763 1.427-3.005.165-.785.137-1.107.312-1.107.86 2.023-.452 3.783.554 5.325 1.057 1.62 2 2.66 2 6.48z"/>
    <path fill="none" d="M86.283 121.832c-1.083.888-2.635.546-2.407-1.423"/>
    <path fill="none" d="M114.573 121.286c1.082.887 2.634.545 2.406-1.424"/>
    <path fill="none" d="M83.001 108.075c-1.48.888-3.297-1.31-1.213-2.218"/>
    <path fill="none" d="M77.428 109.337c-1.48.887-3.297-1.311-1.213-2.219"/>
    <path fill="none" d="M71.894 111.397c-1.913.407-3.645-1.95-2.224-2.724"/>
    <path fill="none" d="M128.833 110.289c1.48.887 3.165-1.709 1.744-2.484"/>
    <path fill="none" d="M122.698 108.444c1.48.888 3.165-1.708 1.744-2.483"/>
    <path fill="none" d="M116.672 106.926c1.48.888 3.165-1.708 1.744-2.483"/>
    <path fill="none" d="M117.59 88.678c-1.48.887-2.899-1.179-1.478-1.953"/>
    <path fill="none" d="M81.22 89.527c1.481.887 2.9-1.178 1.48-1.953"/>
    <path fill="none" d="M134.185 84.55c-1.48.888-2.9-1.178-1.478-1.953"/>
    <path fill="none" d="M66.627 85.611c1.48.887 2.9-1.178 1.478-1.953"/>
    <path fill="none" d="M84.76 70.37c.67 2.59-2.535 2.695-3.227 1.232"/>
    <path fill="none" d="M113.556 70.661c-.668 2.59 2.536 2.695 3.228 1.232"/>
    <path fill="none" d="M81.293 64.695c1.067 2.457-1.475 2.695-2.167 1.232"/>
    <path fill="none" d="M117.352 63.256c-1.067 2.457 1.475 2.695 2.167 1.232"/>
    <path fill="none" d="M93.142 67.234c1.464 1.661-1.21 2.43-1.902.834"/>
    <path fill="none" d="M105.904 67.183c-1.464 1.661 1.21 2.43 1.902.834"/>
    <path fill="none" d="M96.907 75.206c.105 1.933-1.89 1.954-2.582.358"/>
    <path fill="none" d="M102.45 74.675c-.649 1.798 2.025 2.158 2.718.563"/>
    <path fill="none" stroke-width="1.5" d="M98.875 88.225a.14.14 0 1 1-.281 0 .14.14 0 1 1 .281 0z"/>
    <path fill="none" stroke-width="1.5" d="M100.984 88.178a.14.14 0 1 1-.28 0 .14.14 0 1 1 .28 0z"/>
    <path fill="white" stroke="none" opacity=".3" d="M108.862 115.721c-2.21-3.707-2.725-4.087-8.245-5.576-3.07-.048-4.929-.245-9.205 5.865 1.586-6.478 6.088-8.5 9.013-8.5 3.406.624 7.38 2.983 8.437 8.211z"/>
    <path fill="white" stroke="none" opacity=".3" d="M98.264 95.036c.073-1.544-.964-2.488.166-3.287 1.902-.985.098-.185 1.977-.754 1.763.744.092.036 1.882.78-.078 1.352-.093.691-.093 3.15-.19.726-3.038 1.608-3.932.11z"/>
    <g fill="none" opacity=".3">
      <path d="M100.527 87.481c-2.174.057.106.041-1.804.081m2.016 1.408c-2.173.058.107.042-1.803.082m1.731-2.332c.017 2.214-.388 4.073.96 3.832m-2.79-3.886c-.017 2.213.388 4.072-.96 3.83"/>
      <path d="M99.843 111.559c.158 4.027-1.588 1.67-.917 12.148 0 0-.005.192-.006.658m0 5.344c0 .654.002.27.018.62"/>
      <path d="M101.063 111.606c-.676 3.833-.086 5.303 1.006 5.929.45 1.27.1 3.274-.089 6.219 0 0 .005.191.006.658m0 5.344c0 .654-.002.27-.018.62"/>
      <path d="M101 113.387c-.163-.603 2.073-.017 1.403.682.02 1.28.42 2.009.881 3.722.055.978-.083 3.82-.202 6.806m1.026.471c-.242.818-2.226 2.107.018 3.526"/>
      <path d="M99.778 113.512c.162-.603-2.074-.017-1.404.683-.02 1.28-.42 2.008-.881 3.722-.055.977.083 3.82.202 6.806m-1.026.47c.242.818 2.226 2.108-.018 3.526"/>
      <path d="M101.626 117.476c2.823-.025-1.479-.286 1.68.028m3.795-.056c-.039 6.04.01.914.08 5.962m2.056-4.591c.08.499-.061.074-.147 4.26"/>
      <path d="M105.078 113.587c-.552.538 1.616.652-.101 2.372m.608 2.476c.055 5.102-.084.07-.015 5.118m.838 1.69c.08.499-.249 1.292-.71 1.26-.83-.056-1.93-.42-.678 1.515"/>
      <path d="M95.765 113.4c.552.538-1.615.652.102 2.371m-.608 2.476c-.055 5.102.084.07.014 5.118m-.837 1.69c-.08.5.248 1.293.709 1.261.83-.057 1.93-.42.679 1.515"/>
      <path d="M99.083 117.336c-2.823-.025 1.572-.098-1.586.215m-3.702-.055c.039 6.04-.01.913-.079 5.962m-2.056-4.592c-.08.499.06.074.146 4.261"/>
      <path d="M92.336 111.77c1.472.58 1.807.872 1.965 1.28m-2.527-.102c2.017.95 1.76 1.885 1.76 1.885m-2.354-.654c.5.254 1.746.51 1.639 2.854"/>
      <path d="M108.508 111.901c-1.473.58-1.807.873-1.965 1.28m2.527-.102c-2.017.951-1.76 1.885-1.76 1.885m2.353-.653c-.499.254-1.746.51-1.638 2.854"/>
      <path stroke-width=".9" d="M104.135 90.125c-.175.001-.659.254-.587.627-1.567 5.867-2.714 8.744-1.537 12.787.153.527.235.675.693 1.007m-6.848-14.477c.175.002.659.255.587.627 1.567 5.867 2.714 8.745 1.537 12.788-.153.527-.235.675-.693 1.006m-1.553-5.258c1.088-.163 1.552 1.554 2.782 1.59m6.247-1.792c-.867-.074-1.95 1.998-3.18 2.034m-3.33-.04c1.003.613 2.539.467 3.487-.032"/>
    </g>
  </g>
</svg>
