<svg xmlns="http://www.w3.org/2000/svg" fill="#d7374a" stroke="#000" viewBox="50 50 200 200">
  <metadata author="Wilfredor" source="https://commons.wikimedia.org/wiki/File:Heraldic_Trident.svg" license="https://creativecommons.org/licenses/by-sa/4.0"/>
  <g id="trident" stroke-width=".384">
    <rect y="97.253" x="98.574" height="42.524" width="2.784"/>
    <path d="m97.816 91.577.069-1.557c-1.196-1.997-3.317-1.43-6.079-3.134-7.002-5.586-1.528-8.265-1.355-16.913-.838-.473-1.33.928-1.957 1.604l.024-7.247c6.178 5.541 2.399 11.582 2.196 16.12-.202 4.54 7.614 6.99 8.302 4.466l.016-18.096c-.62-.135-1.583.747-2.422 1.264l3.407-7.697 3.392 7.708c-.836-.55-1.76-1.461-2.415-1.28l-.1 18.095c.67 2.529 8.502.139 8.33-4.401-.174-4.54-3.913-10.616 2.3-16.117l-.023 7.246c-.622-.68-1.106-2.084-1.947-1.616.117 8.648 5.574 11.364-1.465 16.903-2.772 1.686-4.89 1.106-6.098 3.095l.058 1.558z"/>
    <rect ry="3.794" width="3.088" y="95.028" x="98.413" height="3.391"/>
    <rect ry="12.933" width="5.518" y="91.186" x="97.153" height="3.698"/>
    <rect ry="4.177" width="5.441" y="91.117" x="97.197" height="1.128"/>
    <rect ry="3.794" width="3.978" y="94.82" x="98.001" height="1.124"/>
  </g>
</svg>
