<svg xmlns="http://www.w3.org/2000/svg" fill="#d7374a" stroke="#000" viewBox="50 50 200 200">
  <metadata author="Jpgibert" source="https://commons.wikimedia.org/wiki/File:Meuble_h%C3%A9raldique_Violon.svg" license="https://creativecommons.org/licenses/by-sa/4.0"/>
  <g id="violin" stroke-width=".777">
    <path d="M103.177 66.716v.881c.095-.259.112-.406.388-.392.33.072-.005.632.707.784.438.048.915.06 1.332-.251.355-.306.522-.64.523-1v-.052c.013-.376-.153-.725-.523-1.043-.417-.312-.894-.3-1.332-.252-.712.152-.377.712-.707.785-.276.013-.293-.134-.388-.393v.933zm-2.058.506h2.058v-1.063h-2.237Zm2.475 3.013V71.115c.095-.258.113-.405.389-.391.33.072-.006.632.706.784.438.047.916.06 1.333-.251.355-.306.522-.64.522-1v-.052c.013-.376-.153-.726-.522-1.044-.417-.311-.895-.298-1.333-.251-.712.152-.377.712-.706.784-.276.014-.294-.133-.389-.392v.933zm-2.057.505h2.057v-1.062h-2.236zm-5.28 1.046V72.666c-.096-.258-.113-.405-.39-.392-.329.072.007.632-.705.785-.439.047-.916.06-1.333-.252-.355-.305-.522-.64-.523-.999l.001-.052c-.013-.376.152-.726.522-1.044.417-.312.895-.299 1.333-.251.712.152.376.712.706.784.276.013.293-.134.388-.392v.933zm2.057.505h-2.058v-1.063h2.237zm-1.938-4.024V69.147c-.095-.258-.113-.405-.389-.391-.33.072.006.632-.706.784-.438.047-.916.06-1.333-.251-.355-.306-.522-.64-.522-1v-.052c-.013-.376.153-.726.522-1.044.417-.312.895-.299 1.333-.251.712.152.377.712.706.784.276.014.294-.133.389-.392v.933zm2.057.505h-2.057V67.71h2.236z"/>
    <path d="M99.507 138.985h1.136c2.39-.042 4.78-.038 7.17-1.033 2.447-1 4.556-2.654 5.815-5.95.735-2.177.484-4.354-.044-6.53-.556-1.502-1.69-3.5-1.626-4.488.04-.398.256-.725.492-1.044l-.596-1.163c-1.189.69-2.2.382-3.071-.716-.805-1.416-1.402-3.013-1.298-5.219.036-1.648-.16-3.227 1.044-4.547.39-.336.937-.772 1.909-.194l.283-.7c-.245-.573-.56-1.086-.268-2.118.657-2.11 1.224-4.246 1.058-6.59-.27-2.147-1.289-3.702-2.66-4.981-.86-.884-1.912-1.448-3.038-1.916-1.17-.468-2.356-.768-3.561-1.006-1.8-.356-2.824-.36-4.624-.005-1.799.356-3.557.849-5.278 1.834-2.013 1.486-3.629 3.278-3.981 6.069-.165 2.344.401 4.48 1.059 6.59.29 1.032-.024 1.545-.269 2.117l.284.701c.97-.578 1.518-.142 1.908.194 1.205 1.32 1.008 2.899 1.044 4.547.104 2.206-.493 3.803-1.297 5.22-.871 1.097-1.883 1.405-3.072.715l-.596 1.163c.236.319.451.646.492 1.044.064.987-1.07 2.986-1.626 4.488-.528 2.177-.779 4.353-.044 6.53 1.26 3.296 3.368 4.95 5.815 5.95 2.48 1.033 4.96.99 7.44 1.038z"/>
    <path fill="none" stroke-width=".518" d="M99.526 91.746c-3.703.272-7.849 1.717-9.473 5.35-1.4 2.985-.047 6.214.535 9.207-.068.528.929.149 1.211.626 2.249 1.807 1.676 5.027 1.697 7.563-.314 2.081-.808 4.647-2.783 5.785-.482.342-1.32.196-1.682.277.04 2.34-1.843 4.255-1.86 6.617-.81 4.38 2.225 8.887 6.477 9.975 3.636.878 7.445.663 11.133.332 4.09-.491 7.788-3.957 8.01-8.224.282-2.632-.89-5.044-1.812-7.464-.356-.476.238-1.595-.63-1.253-2.363-.009-3.252-2.699-3.735-4.589-.401-2.287-.45-4.71.073-6.977.369-1.15 1.29-2.469 2.615-2.405.201-2.354 1.358-4.549 1.125-6.974-.162-3.889-3.693-6.768-7.329-7.399-1.169-.284-2.362-.514-3.572-.447z"/>
    <path d="M101.907 72.535c.013.397.055.838-.239.775l1.103 36.47H97.08l1.104-36.47c-.294.063-.252-.378-.239-.775zM100.64 60.22c.203.347.244.963.337 1.493.183-.095.366-.063.549 0l.255.764c.455-.077.823.07.885.468.019.461-.208.927-.297 1.192-.3.16-.518.063-.707.04.167.531.117.977-.263 1.264l.211 7.086h-3.36l.212-7.086c-.486-.28-.372-.925-.263-1.265-.19.024-.408.122-.707-.04-.163-.347-.321-.806-.297-1.191.083-.504.454-.507.884-.468l.256-.764c.183-.063.366-.095.548 0 .093-.53.135-1.146.338-1.493.523.215.918.18 1.419 0z"/>
    <path d="M98.619 139.011c-.846-1.198-.33-2.697-.163-4.118.21-2.128.061-4.2-.487-6.208-.576-1.318-.758-3.396-.908-5.535 1.902.285 3.825.223 5.729 0-.15 2.139-.332 4.217-.908 5.535-.548 2.009-.697 4.08-.487 6.208.167 1.421.683 2.92-.163 4.118z"/>
    <path stroke-width=".518" d="M99.055 139.089v.232c-.204-.021-.063.266.148.4.452.31 1.025.208 1.398 0 .173-.055.423-.363.215-.4l.01-.233-.063-.21-1.687-.021z"/>
    <path stroke="none" fill="#000" d="M99.257 117.644h4.099v-.422l-.569-.25h-5.723l-.57.25v.422zm6.551-.647c-.04 2.413.321 3.851.966 4.43.288.292.434.318.753.097.178-.134.321-.29.428-.47-1.104-1.3 1.37-1.716.723.178-.724 1.247-2.293.934-2.981-.176-.33-.473-.5-.97-.631-1.529-.189-.833-.258-1.644-.205-2.291-.039-1.292.201-2.584-.239-3.877-.285-.268-.433-.854-.954-.477l-.28.285c.137.011.535.423.042.736-.404.165-.643.022-.653-.544.378-1.339 1.606-1.185 2.361-.252.308 1.006.735 1.555.67 3.89zm-11.765 0c.04 2.413-.321 3.851-.967 4.43-.287.292-.433.318-.752.097a1.616 1.616 0 0 1-.428-.47c1.26-1.012-1.205-2.056-.723.178.724 1.247 2.293.934 2.981-.176.33-.473.5-.97.631-1.529.189-.833.258-1.644.205-2.291.038-1.292-.201-2.584.238-3.877.275-.302.374-.823.955-.477l.28.285c-.138.011-.535.423-.042.736.404.165.642.022.653-.544-.13-.602-.452-.801-1-.954-1.826-.296-2.005 3.233-2.031 4.592z"/>
    <path fill="none" stroke-width=".389" d="m97.793 124.393-.239-6.859 1.367-46.525m.3 53.384-.08-6.859.456-49.064.005-.991m2.474 56.914.239-6.859-1.439-46.525V69.43m-.227 54.963.079-6.859-.499-49.107-.004-2.919"/>
    <path fill="none" stroke-width=".518" d="M101.781 62.478c-.378.514-.713 1.035-.119 1.7m-.685-2.464c-.74 1.26-.82 2.877.422 3.728m-2.516-3.728c.857 1.706.689 2.869-.421 3.728m-.383-2.964c.643.76.537 1.32.12 1.7"/>
  </g>
</svg>
