<svg xmlns="http://www.w3.org/2000/svg" fill="#d7374a" stroke="#000" viewBox="50 50 200 200">
  <metadata author="Celbusro" source="https://commons.wikimedia.org/wiki/File:Blason_St_Maurice_sur_Moselle_88.svg" license="https://creativecommons.org/publicdomain/zero/1.0"/>
  <g id="ant" stroke-width=".585">
    <path d="M100.442 85.133c.291-4.584 2.319-10.302.873-13.752 1.534.565 2.118 1.37 2.184 2.135z"/>
    <path d="M99.558 85.133c-.291-4.584-2.319-10.302-.873-13.752-1.534.565-2.118 1.37-2.184 2.135z"/>
    <path d="M104.062 105.898c1.54 1.107 1.667 3.4 2.32 4.913.513.017 1.258.346 1.888.649 2.078.999 3.23 3.483 4.44 4.53.071 2.133 1.117 6.655 2.944 12.166l.026.08.013.055c.463 1.663.919 2.198.859 5.002.99 1.553.673 3.626.63 5.364l.682.512-.068.2-.964-.471-.887.721-.16-.134.967-.922c.035-1.804.096-3.69-.522-5.15v-.027c-.377-1.642-.775-3.194-1.072-5.19-.167-.066-.35-.267-.628-.874-1.147-3.886-2.383-8.63-2.532-10.892-.699-1.754-4.147-2.497-6.033-5.178-1.287-1.034-3.185-1.468-3.651-3.32z"/>
    <path d="M95.938 105.898c-1.54 1.107-1.667 3.4-2.32 4.913-.513.017-1.258.346-1.888.649-2.078.999-3.23 3.483-4.44 4.53-.071 2.133-1.117 6.655-2.944 12.166l-.026.08-.013.055c-.463 1.663-.919 2.198-.859 5.002-.99 1.553-.673 3.626-.63 5.364l-.682.512.068.2.964-.471.887.721.16-.134-.967-.922c-.035-1.804-.096-3.69.522-5.15v-.027c.377-1.642.775-3.194 1.072-5.19.167-.066.35-.267.628-.874 1.147-3.886 2.383-8.63 2.532-10.892.699-1.754 4.147-2.497 6.033-5.178 1.287-1.034 3.185-1.468 3.651-3.32z"/>
    <path d="M98.182 84.945v2.937c1.276-.004 2.36.003 3.636 0v-2.937c-1.276.004-2.36-.004-3.636 0z"/>
    <path d="M96.91 97.617c-1.884-1.907-5.041-11.022 3.09-11.172 8.131.15 4.974 9.265 3.09 11.172l-3.09-.008z"/>
    <path d="M111.637 99.971c.18.004.359.01.536.026 1.767 2.27 4.258 3.01 5.86 5.78 3.377 2.048 5.975 3.884 7.7 5.492.845.283 1.76.325 2.705.263l-.05.463c-.56-.084-.576-.058-.804-.075l.474.477-.281.28c-.165-.49-.495-.626-.802-.807l-1.34-.126a.234.234 0 0 1-.11-.049c-2.616-1.855-3.812-1.917-7.689-5.358-.297.03-.637-.032-1.144-.368-2.224-1.377-3.58-3.205-5.07-4.962-2.149.324-2.922 3.046-5.284 2.594-1.572-.3-2.143-.688-2.838-.47l.234-.987c2.012-.15 2.614-.649 4.282-1.427a8.309 8.309 0 0 1 3.621-.746z"/>
    <path d="M88.363 99.971a7.74 7.74 0 0 0-.536.026c-1.767 2.27-4.258 3.01-5.86 5.78-3.377 2.048-5.975 3.884-7.7 5.492-.845.283-1.76.325-2.705.263l.05.463c.56-.084.576-.058.804-.075l-.474.477.281.28c.165-.49.495-.626.802-.807l1.34-.126a.234.234 0 0 0 .11-.049c2.616-1.855 3.812-1.917 7.689-5.358.297.03.637-.032 1.144-.368 2.224-1.377 3.58-3.205 5.07-4.962 2.149.324 2.922 3.046 5.284 2.594 1.572-.3 2.143-.688 2.838-.47l-.234-.987c-2.012-.15-2.614-.649-4.282-1.427a8.309 8.309 0 0 0-3.621-.746z"/>
    <path d="m116.266 75.17.172.792 1.02-.44.2.47-1.235.533c-.152 2.696-3.448 6.066-5.87 9.249-.735 2.301-1.945 3.772-3.097 5.34.558 2.51-2.375 6.123-3.523 9.309-1.138.279-1.519.143-1.46-.768l.647-1.259c4.661-3.835 1.891-6.579 3.531-7.042 1.19-4.343 2.294-4.325 3.367-5.81.01-.013.017-.026.027-.04 1.756-2.882 2.387-4.78 5.923-9.235l-.212-.992z"/>
    <path d="m83.734 75.17-.172.792-1.02-.44-.2.47 1.235.533c.152 2.696 3.448 6.066 5.87 9.249.735 2.301 1.945 3.772 3.097 5.34-.558 2.51 2.375 6.123 3.523 9.309 1.138.279 1.519.143 1.46-.768l-.647-1.259c-4.661-3.835-1.891-6.579-3.531-7.042-1.19-4.343-2.294-4.325-3.367-5.81-.01-.013-.017-.026-.027-.04-1.756-2.882-2.387-4.78-5.923-9.235l.212-.992z"/>
    <path d="M98.227 110.464c-1.273-1.096-1.485-2.402-1.706-3.711-.499-2.757-2.428-5.768.466-7.935.446-1.607.933-3.782 3.013-2.884 2.08-.898 2.567 1.277 3.013 2.884 2.894 2.167.965 5.178.466 7.935-.221 1.31-.433 2.615-1.705 3.711L100 112.967z"/>
    <path d="M120.423 60.68c1.299.564.445 1.353-.192 1.36-2.871.006-4.146.633-5.517 2.887-1.37 2.255-2.45 5.243-3.612 8.023-.056.134-1.228 1.21-1.36 1.271-3.249 1.5-3.89.36-6.873 2.569l-.79-.443c2.393-2.353 7.452-2.84 8.154-3.56 1.1-2.662 2.79-6.082 4.24-8.47 1.484-2.44 2.66-3.629 5.95-3.636z"/>
    <path d="M79.577 60.68c-1.299.564-.445 1.353.192 1.36 2.871.006 4.146.633 5.517 2.887 1.37 2.255 2.45 5.243 3.612 8.023.056.134 1.228 1.21 1.36 1.271 3.249 1.5 3.89.36 6.873 2.569l.79-.443c-2.393-2.353-7.452-2.84-8.154-3.56-1.1-2.662-2.79-6.082-4.24-8.47-1.484-2.44-2.66-3.629-5.95-3.636z"/>
    <path d="M97.561 85.344c-1.61-.043-3.278-.197-3.172-3.223-.581-1.349.447-2.436.942-3.609.571-2.307 2.478-4.715 4.669-5.201 2.191.486 4.098 2.894 4.669 5.201.495 1.173 1.523 2.26.942 3.61.106 3.025-1.563 3.18-3.172 3.222l-2.439.074z"/>
    <path d="M105.61 82.117c-2.532.279-3.411-3.277-.947-3.607"/>
    <path d="M94.39 82.117c2.532.279 3.411-3.277.947-3.607"/>
    <path d="M100 109.417c-3.662.027-6.95 2.896-7.994 7.53-.766 1.907-.495 4.426.44 6.748.276 1.803 1.043 3.887 3.489 6.934 1.266 1.246 2.497 3.13 4.065 3.152m0-24.364c3.662.027 6.95 2.896 7.994 7.53.766 1.907.495 4.426-.44 6.748-.276 1.803-1.043 3.887-3.489 6.934-1.266 1.246-2.497 3.13-4.065 3.152"/>
    <path d="M91.942 117.285c1.37-.385 4.826-.544 8.058-.45 3.232-.094 6.687.065 8.058.45"/>
    <path d="m92.498 123.947 7.502-.296 7.502.296"/>
    <path d="m95.531 130.325 4.469-.453 4.469.453"/>
  </g>
</svg>
