<svg width="800" height="800" fill="#d7374a" viewBox="50 50 200 200" xmlns="http://www.w3.org/2000/svg">
 <!-- source: http://wappenwiki.org/images/6/66/Luk.svg, CC BY-NC-SA 3.0 -->
 <g id="arrowsSheaf" stroke="#000" stroke-width="3" transform="matrix(.11 0 0 .11 10.9 102)">
  <g transform="matrix(.70711 -.70711 -.70711 -.70711 229.22 543.74)">
    <path d="m817.4 323c6.9676 3.4598 14.542 5.5315 22.3 6.1 9.6 0 20.2-9.6 20.2-20.8 0-30.9-42.5-111.4-42.5-111.4zm-15 0s-12.1 6.1-22.3 6.1c-9.6 0-20.2-9.6-20.2-20.8 0-30.9 42.5-111.4 42.5-111.4zm0-620.4v643.5s3.3 1.2 7.5 1.2 7.5-1.9 7.5-1.9v-643.5z"/>
    <ellipse cx="809.9" cy="-300.7" rx="15" ry="8.3"/>
    <path d="m819.3-301-3.5-52.9 21.8 44.5h32.4l-60-71.9-60 71.9h32.4l21.8-44.5-3.5 52.9s2.8 2.6 9.4 2.6c6.4 0 9.2-2.6 9.2-2.6z"/>
    <path d="m818.8 226.4 18.5 40.4-21.2-39.1zm-0.1 33.2 18.4 30.2-20.9-28.5zm-0.1 28.7 19.2 29.2-21.6-27.4zm-14.8-60.6-21.3 39.1 18.6-40.4zm-0.1 33.6-20.9 28.5 18.4-30.2zm0 28.8-21.6 27.4 19.1-29.2z" fill="#000" stroke="none"/>
  </g>
  <g transform="matrix(.70711 .70711 .70711 -.70711 246.5 -604.54)">
    <path d="m817.4 323c6.9676 3.4598 14.542 5.5315 22.3 6.1 9.6 0 20.2-9.6 20.2-20.8 0-30.9-42.5-111.4-42.5-111.4zm-15 0s-12.1 6.1-22.3 6.1c-9.6 0-20.2-9.6-20.2-20.8 0-30.9 42.5-111.4 42.5-111.4zm0-620.4v643.5s3.3 1.2 7.5 1.2 7.5-1.9 7.5-1.9v-643.5z"/>
    <ellipse cx="809.9" cy="-300.7" rx="15" ry="8.3"/>
    <path d="m819.3-301-3.5-52.9 21.8 44.5h32.4l-60-71.9-60 71.9h32.4l21.8-44.5-3.5 52.9s2.8 2.6 9.4 2.6c6.4 0 9.2-2.6 9.2-2.6z"/>
    <path d="m818.8 226.4 18.5 40.4-21.2-39.1zm-0.1 33.2 18.4 30.2-20.9-28.5zm-0.1 28.7 19.2 29.2-21.6-27.4zm-14.8-60.6-21.3 39.1 18.6-40.4zm-0.1 33.6-20.9 28.5 18.4-30.2zm0 28.8-21.6 27.4 19.1-29.2z" fill="#000" stroke="none"/>
  </g>
  <g transform="matrix(1,0,0,-1,0,-34)">
    <path d="m817.4 323c6.9676 3.4598 14.542 5.5315 22.3 6.1 9.6 0 20.2-9.6 20.2-20.8 0-30.9-42.5-111.4-42.5-111.4zm-15 0s-12.1 6.1-22.3 6.1c-9.6 0-20.2-9.6-20.2-20.8 0-30.9 42.5-111.4 42.5-111.4zm0-620.4v643.5s3.3 1.2 7.5 1.2 7.5-1.9 7.5-1.9v-643.5z"/>
    <ellipse cx="809.9" cy="-300.7" rx="15" ry="8.3"/>
    <path d="m819.3-301-3.5-52.9 21.8 44.5h32.4l-60-71.9-60 71.9h32.4l21.8-44.5-3.5 52.9s2.8 2.6 9.4 2.6c6.4 0 9.2-2.6 9.2-2.6z"/>
    <path d="m818.8 226.4 18.5 40.4-21.2-39.1zm-0.1 33.2 18.4 30.2-20.9-28.5zm-0.1 28.7 19.2 29.2-21.6-27.4zm-14.8-60.6-21.3 39.1 18.6-40.4zm-0.1 33.6-20.9 28.5 18.4-30.2zm0 28.8-21.6 27.4 19.1-29.2z" fill="#000" stroke="none"/>
  </g>
  <rect x="788" y="-34" width="46" height="24"/>
 </g>
</svg>