<svg width="800" height="800" fill="#d7374a" viewBox="50 50 200 200" xmlns="http://www.w3.org/2000/svg">
  <!-- Source: http://wappenwiki.org/images/9/90/Algoursan.svg -->
  <g id="bell" stroke="#000" stroke-width="3" transform="matrix(.11281 0 0 .11281 53.7 54.6)">
    <path d="M423.1,136.7c0,0,7.8-8.7,15.7-8.7 c8.5,0,14.6,4.6,14.6,14.1c0,11.1-10.6,16-10.6,27.3s29.6,24.5,29.6,24.5s-6.3-6.6-6.3-20.7c0-22.6,17.6-21.6,17.6-42.8 c0-21.2-17.6-26.8-31-26.8c-19,0-33.2,12.7-33.2,12.7L423.1,136.7z"/>
    <path d="M397.1,136.7c0,0-7.8-8.7-15.8-8.7 c-8.5,0-14.6,4.6-14.6,14.1c0,11.1,10.6,16,10.6,27.3s-29.6,24.5-29.6,24.5s6.3-6.6,6.3-20.7c0-22.6-17.6-21.6-17.6-42.8 c0-21.2,17.6-26.8,31-26.8c19,0,33.2,12.7,33.2,12.7L397.1,136.7z"/>
    <path d="M410.4,73.3c6.5,0,11.8,5.3,11.8,11.8 c0,6.5-5.3,12.9-11.8,12.9s-11.8-6.3-11.8-12.9C398.5,78.7,403.8,73.3,410.4,73.3 M410.4,57.9c-15.1,0-27.3,12.2-27.3,27.3 s12.2,27.3,27.3,27.3s27.3-12.2,27.3-27.3S425.5,57.9,410.4,57.9L410.4,57.9z"/>
    <path d="M430.1,109.1c0,45.5-8.8,88.9-19.6,88.9 s-19.6-43.4-19.6-88.9c0-10.8,8.8-19.6,19.6-19.6C421.3,89.5,430.1,98.3,430.1,109.1z"/>
    <path d="M416.2,706c0,8.2,9.6,14.9,9.6,25.6 c0,8.4-6.8,15.3-15.3,15.3v0v0c-8.4,0-15.3-6.8-15.3-15.3c0-10.7,9.6-17.4,9.6-25.6"/>
    <path d="M410.5,699.8c88.7,0,269.6-10.5,269.6-69.1 c0-31.1-39.7-76.1-72.6-142.4c-18.5-37.3-34.9-111.2-41-163.3c-10.1-87.3-54.9-156-156-156s-145.9,68.7-156,156 c-6.1,52.1-22.5,126-41,163.3c-33,66.3-72.6,111.3-72.6,142.4C140.9,689.3,321.8,699.8,410.5,699.8z"/>
    <path fill="none" d="M140.9,630.8c0-44.8,153.4-60.8,269.6-60.8 s269.6,16,269.6,60.8"/>
    <path fill="#000" stroke="none" d="m 246,672.7 c -26.67756,-5.5869 -51.92674,-9.77324 -74,-23.5 -6.99257,-4.53672 -14.08086,-10.45693 -11.1,-19.2 5.04641,-11.36636 19.96697,-13.62151 29.4,-16.7 73.39394,-19.9321 147.54825,-26.12596 220.4,-26.2 74.30367,2.34743 152.04692,4.30866 220.4,26.2 7.92144,2.06685 25.24729,5.70379 29.4,16.6 2.59812,9.17409 -4.55823,14.72121 -11.2,19.1 -22.41598,13.31632 -50.27409,19.34078 -74,23.6 25.17252,-6.24757 49.52893,-12.25505 72.5,-25.9 6.2107,-4.26924 11.14661,-8.42585 9.7,-15.9 -5.27753,-8.87155 -19.30398,-12.05815 -27.6,-14.8 -73.03204,-20.01084 -146.92767,-26.02576 -219.5,-26.1 -74.0029,2.3239 -151.29958,6.56042 -219.5,26 -10.45945,3.76489 -22.60116,5.21779 -27.5,14.9 -2.08565,7.49752 4.49357,12.1149 9.7,15.9 22.43068,13.22471 48.39599,20.61315 72.9,26 z"/>
    <path fill="none" d="M557.3,279.8c-9.7-25.8-87.8-38.6-146.9-38.6 S273.3,254,263.6,279.8"/>
    <path fill="none" d="M254.5,323.1c9.7-25.8,96.8-40.7,155.8-40.7 s146.2,14.9,155.8,40.7"/>
    <path fill="none" d="M659.3,578.5c-42.2-37.6-153.4-48.9-248.9-48.9 h0.3c-95.5,0-206.7,11.3-248.9,48.9"/>
    <path fill="none" d="M620.4,515.4c-53.5-20.3-136.4-27-210-27h0.3 c-74.5,0-158.6,6.9-212,27.8"/>
    <path stroke-width="4" d="m 365.4,685.2 c 0,-31.7 28.5,-51.3 28.5,-75.6 v -19.7613 c 6,-0.1 11.6,-0.2 16.7,-0.2 5.1,0 10.7,0.1 16.7,0.2 V 609.6 c 0,24.3 28.5,43.9 28.5,75.6 0,24.9 -20.2,45.1 -45.1,45.1 v 0 0 c -25.1,0 -45.3,-20.2 -45.3,-45.1 z"/>
  </g>
</svg>