<svg xmlns="http://www.w3.org/2000/svg" fill="#d7374a" stroke="#000" viewBox="50 50 200 200">
  <metadata source="http://wappenwiki.org/images/1/1e/Buttler.svg" license="https://creativecommons.org/licenses/by-nc-sa/3.0"/>
  <g id="bucket" stroke-width=".4">
    <path fill="#f2bc51" d="M128.56 77.69c1.97-3.6 5.49-6.42 9.62-6.93 4.89-.82 10.1 1.7 12.4 6.1 2.73 5.18 1.65 11.69-1.4 16.47-3.39 5.46-9.3 8.38-14.52 11.75-4.11 2.85-8.36 5.78-11.21 9.97-6.37 5-4.18-.32-2.04-2.46 3.4-4.83 8.25-8.4 12.84-12.02 4.41-3.23 9.28-6.7 11.02-12.16.5-1.38.72-3.15.72-4.48 0-3.08-.77-6.52-3.65-8.15a8.4 8.4 0 00-9.37 1.35c-1.93 1.76-3.14 4.11-4.22 6.45z"/>
    <path fill="#f2bc51" d="M128.56 84.94c1.91-3.51 5.3-6.28 9.32-6.89 4.91-.93 10.24 1.5 12.61 5.92 2.76 5.07 1.8 11.51-1.13 16.28-3.1 5.25-8.59 8.27-13.62 11.37-4.56 3.06-9.26 6.22-12.42 10.82-6.3 4.84-3.97-.61-1.97-2.52 3.12-4.5 7.55-7.85 11.77-11.27 4.62-3.48 9.98-6.85 12-12.59.76-2.03.97-4.23.8-6.28-.18-2.83-1.37-5.83-4.13-7.03a8.51 8.51 0 00-9.12 1.9c-1.77 1.73-2.9 3.96-3.93 6.18-19.9 9.22-7.84 3.43-.18-5.9z"/>
    <path d="M102.13 61.35a3.2 2.6 0 00-3.28 2.6c0 1.3-1.29 2.03-2.9 2.07-16.33.35-29.12 3.3-29.12 7.32 0 .25 10.2 58.4 10.2 58.4.85 3.98 9.75 6.75 21.8 6.75 11.37 0 20.72-2.7 21.7-6.15 0 0 12.85-64.13 12.85-64.36 0-3.83-13.72-6.28-31.25-6.63z"/>
    <g stroke="#000">
      <line x1="109.384" x2="105" y1="61.377" y2="125"/>
      <path d="M73.52 68.91a574037.28 466066.04 0 001.65 10.4l1.06 6.67 1.12 7.07 1.13 7.17 1.08 6.8.97 6.12.8 4.99.55 3.52.26 1.62.01.07"/>
      <line x1="89.751" x2="93.22" y1="67.349" y2="125"/>
      <line x1="123.915" x2="113.835" y1="72.735" y2="136.63"/>
      <line x1="108.492" x2="104.107" y1="74.665" y2="138.288"/>
      <line x1="74.971" x2="84.236" y1="78.221" y2="136.63"/>
      <line x1="90.495" x2="93.964" y1="80.637" y2="138.288"/>
    </g>
    <path d="M102.13 61h-.08c-1.76 0-3.2.81-3.2 2.25a2.98 2.42 0 01-2.9 2.42c-16.33.35-29.12 3.65-29.12 7.67 0 3.93 12.21 6.82 28 7.3h.15c2.12 0 3.87-1.4 3.87-3.13v0a3.14 2.55 0 013.06-2.55c17.64-.33 31.47-3.14 31.47-6.98 0-3.83-12.6-6.98-31.25-6.98zm21.66 10.63c-5.71 1.32-12.97 1.87-21.4 2.03a5.21 4.23 0 00-5.25 4.2 2.16 1.75 0 01-2.25 1.74C87.37 79.37 80 78.37 74.97 77c-5.1-1.38-6.44-2.78-6.44-3.67 0-.92 1.9-2.83 7.26-4.24 5.26-1.37 12.44-1.96 20.21-2.13 2.56-.06 4.55-1.64 4.55-3.72 0-.67.67-1.21 1.5-1.21h.03c8.38.17 16.67.78 22.34 2.1 5.37 1.24 7.25 2.96 7.25 3.84 0 .88-2.46 2.4-7.88 3.65z"/>
    <path fill="#f2bc51" d="M128.26 93.11c-2.33 4.34-13.69 6.55-29 6.55-15.33 0-27.26-2.7-29.04-6.55 0 0-.71-1.46-1.19-4.01-.32-1.73-.15-3.31-.15-3.31.88 4.33 14.1 6.94 30.37 6.94 16.27 0 29.65-2.65 30.61-6.94 0 0-.12 1.6-.27 2.9-.27 2.3-1.33 4.42-1.33 4.42z"/>
    <path fill="#f2bc51" d="M122.71 123.75c-1.96 3.3-10.75 5.67-23.7 5.67-12.93 0-22.13-2.74-23.63-5.67l-1.2-5.77c-.28-1.31 0-1.87 0-1.87.74 3.29 11.1 7.01 24.84 7.01s24.24-3.75 25.05-7.01c0 0-.1 1.21-.23 2.2-.22 1.76-1.13 5.44-1.13 5.44z"/>
  </g>
</svg>
