<svg xmlns="http://www.w3.org/2000/svg" fill="#d7374a" stroke="#000" viewBox="50 50 200 200">
  <metadata author="spax89" source="https://commons.wikimedia.org/wiki/File:Blason_de_la_ville_d%27Ammertzwiller_(68).svg" license="https://creativecommons.org/publicdomain/zero/1.0"/>
  <g id="church" stroke-width=".504">
    <path d="M81.784 98.41 68.6 119.158l.483-.052v15.902l11.188 2.383h50.163v-19.567h1.749V98.41z"/>
    <path class="tertiary" d="M81.784 98.41 68.6 119.158l12.483-1.372 51.1.038V98.41Z"/>
    <path d="M132.181 117.827H81.197l-12.598 1.33m13.186-20.75-.588 19.42"/>
    <path d="M80.273 137.393v-19.419"/>
    <path fill="none" stroke-width=".252" d="M100.662 137.391h5.67v-3.834h-5.67zm0 0h-2.664v-3.834h2.664zm-6.25 0h3.586v-3.834h-3.586zm0 0h-4.965v-3.834h4.965zm-14.14 0h4.718v-3.834h-4.718zm4.718 0h4.457v-3.834H84.99zm15.63-9.32h4.53v2.565h-4.53zm-20.348 5.486h3.14v-2.921h-3.14zm7.015 0H83.41v-2.921h3.876zm0 0h5.364v-2.921h-5.364zm14.997 0h-4.817v-2.921h4.817zm-4.817 0h-4.816v-2.921h4.816zm-15.142-5.486h-2.053v2.565h2.053zm0 0h2.632v2.565h-2.632zm8.602 0h3.656v2.565h-3.656zm9.693 0h-6.037v2.565h6.037zm0-4.914h4.82v2.306h-4.82zm-20.348 4.914h3.14v-2.608h-3.14zm7.015 0H83.41v-2.608h3.876zm0 0h5.364v-2.608h-5.364zm14.997 0h-4.817v-2.608h4.817zm-4.817 0h-4.816v-2.608h4.816zm-15.142-4.914h-2.053v2.306h2.053zm0 0h2.632v2.306h-2.632zm8.602 0h3.656v2.306h-3.656zm9.693-5.333h4.82v2.716h-4.82zm-20.348 5.333h3.14v-2.617h-3.14zm7.015 0H83.41v-2.617h3.876zm0 0h5.364v-2.617h-5.364zm14.997 0h-4.817v-2.617h4.817zm-4.817 0h-4.816v-2.617h4.816zm-15.142-5.333h-2.053v2.716h2.053zm0 0h2.632v2.716h-2.632zm8.602 0h-5.97v2.716h5.97zm0 0h3.656v2.716h-3.656zm9.693 0h-6.037v2.716h6.037zm5.711 19.567h6.549v-3.834h-6.549zm10.135 0h-3.586v-3.834h3.586zm0 0h4.965v-3.834h-4.965zm13.97 0h-4.548v-3.834h4.547zm-4.548 0h-4.457v-3.834h4.457zm-15.63-9.32h-5.107v2.565h5.107m20.177 2.92h-2.968v-2.92h2.968zm-6.844 0h3.876v-2.92h-3.876zm0 0h-5.364v-2.92h5.364zm-14.996 0h4.816v-2.92h-4.816zm4.816 0h4.816v-2.92h-4.816zm15.142-5.485h1.882v2.565h-1.882zm0 0h-2.632v2.565h2.632zm-8.602 0h5.97v2.565h-5.97zm0 0h-3.656v2.565h3.656zm-9.693 0h6.037v2.565h-6.037zm0-4.914h-4.818v2.306h4.818zm20.177 4.914h-2.968v-2.608h2.968zm-6.844 0h3.876v-2.608h-3.876zm0 0h-5.364v-2.608h5.364zm-10.18-2.608h-4.816v2.608h4.816m0 0h4.816v-2.608h-4.816zm15.142-4.914h1.882v2.306h-1.882zm0 0h-2.632v2.306h2.632zm-8.602 0h5.97v2.306h-5.97zm0 0h-3.656v2.306h3.656zm-9.693 0h6.037v2.306h-6.037zm0-5.333h-4.818v2.716h4.818zm20.177 5.333h-2.968v-2.617h2.968zm-6.844 0h3.876v-2.617h-3.876zm0 0h-5.364v-2.617h5.364zm-14.996 0h4.816v-2.617h-4.816zm4.816 0h4.816v-2.617h-4.816zm15.142-5.333h1.882v2.716h-1.882zm0 0h-2.632v2.716h2.632zm-8.602 0h5.97v2.716h-5.97zm0 0h-3.656v2.716h3.656zm-9.693 0h6.037v2.716h-6.037z"/>
    <path d="M91.418 87.344h14.142v52.13H91.418z"/>
    <path class="tertiary" d="M98.489 64.716 90.708 87.32h15.562z"/>
    <path stroke-width=".252" d="M98.237 61.76v-1.685h.504v1.686h1.68v.504h-1.68v2.52h-.504v-2.52h-1.68v-.504h1.68z"/>
    <g fill="none" stroke-width=".252">
      <path d="M105.604 139.6h-5.137v-3.928h5.137zm-14.312 0h4.718v-3.928h-4.718zm4.718 0h4.457v-3.928H96.01zm-4.718-3.928h3.14v-2.99h-3.14zm7.586 0h-4.446v-2.99h4.446zm0 0h4.794v-2.99h-4.794zm6.726 0h-1.932v-2.99h1.932zm-12.259-5.618h-2.053v2.627h2.053zm0 0h4.278v2.627h-4.278zm8.602 0h3.657v2.627h-3.657zm-10.655 0h4.35v-2.67h-4.35zm7.922 0h-3.573v-2.67h3.573zm0 0h4.458v-2.67h-4.458zm6.39 0h-1.932v-2.67h1.932zm-12.259-5.032h-2.053v2.361h2.053zm0 0h4.278v2.361h-4.278zm7.947 0h4.312v2.361h-4.312zm-10 0h3.14v-2.68h-3.14zm7.754 0h-4.614v-2.68h4.614zm0 0h4.626v-2.68h-4.626zm6.558 0h-1.932v-2.68h1.932zm-12.259-5.461h-2.053v2.781h2.053zm0 0h3.472v2.781h-3.472zm8.602 0h-5.13v2.781h5.13zm0 0h3.657v2.781h-3.657z"/>
      <path d="M91.292 119.56h3.14v-2.991h-3.14zm7.015 0h-3.875v-2.991h3.875zm0 0h5.365v-2.991h-5.365zm7.297 0h-1.932v-2.991h1.932zm-12.259-5.618h-2.053v2.627h2.053zm0 0h2.632v2.627h-2.632zm8.602 0h3.657v2.627h-3.657zm-10.655 0h3.14v-2.671h-3.14zm7.015 0h-3.875v-2.671h3.875zm0 0h5.365v-2.671h-5.365zm7.297 0h-1.932v-2.671h1.932zm-12.259-5.033h-2.053v2.362h2.053zm0 0h2.632v2.362h-2.632zm8.602 0h3.657v2.362h-3.657zm-10.655 0h3.14v-2.68h-3.14zm7.015 0h-3.875v-2.68h3.875zm0 0h5.365v-2.68h-5.365zm7.297 0h-1.932v-2.68h1.932zm-12.259-5.46h-2.053v2.78h2.053zm0 0h2.632v2.78h-2.632zm8.602 0h-5.97v2.78h5.97zm0 0h3.657v2.78h-3.657z"/>
      <path d="M105.604 103.444h-3.14v-2.991h3.14zm-7.015 0h3.875v-2.991h-3.875zm0 0h-5.365v-2.991h5.365zm-7.297 0h1.932v-2.991h-1.932zm12.258-5.618h2.054v2.627h-2.054zm0 0h-2.632v2.627h2.632zm-8.602 0h-3.656v2.627h3.656zm10.656 0h-3.14v-2.671h3.14zm-7.015 0h3.875v-2.671h-3.875zm0 0h-5.365v-2.671h5.365zm-7.297 0h1.932v-2.671h-1.932zm12.258-5.033h2.054v2.362h-2.054zm0 0h-2.632v2.362h2.632zm-8.602 0h-3.656v2.362h3.656zm10.656 0h-3.14v-2.68h3.14zm-7.015 0h3.875v-2.68h-3.875zm0 0h-5.365v-2.68h5.365zm-7.297 0h1.932v-2.68h-1.932zm12.258-5.46h2.054v2.78h-2.054zm0 0h-2.632v2.78h2.632zm-8.602 0h5.97v2.78h-5.97zm0 0h-3.656v2.78h3.656z"/>
      <path d="M77.162 123.232v2.186m-3.457-2.114v2.067m-2.584-2.046v1.967m3.007-6.755v2.42m-3.186-2.13v2.302m6.688-2.996v2.555m1.246-.043v2.538m-3.66-2.332v2.437m-5.289-2.123v2.169m2.085-2.277v2.269m7.099 2.107v2.622m-3.66-2.634v2.386m-5.288-2.576v2.151m2.084-2.075v2.253m1.881.116v2.303m-3.186-2.467v2.118m6.688-1.669v2.387m1.246.108v2.89m-3.66-3.305v2.722m-5.289-3.315v2.554m2.085-2.276v2.554m1.881.268v3.412m-3.186-3.912v3.227m6.688-2.19v3.68m-8.407-11.513 11.292.21m0-2.305-11.292.234m11.292 7.245-11.292-1.207m0-2.071 11.292.786m0 5.413-11.292-1.77m0-10.508 11.292-.739m0-2.716-11.292 1.262v15.796l11.292 2.51z"/>
    </g>
    <g class="secondary">
      <path d="M96.412 131.231v8.242h4.153v-8.242c-.203-2.523-1.331-3.457-2.076-4.491-.745 1.034-1.873 1.968-2.077 4.491z"/>
      <path d="M83.903 125.346v8.06h3.413v-8.06c-.203-2.524-.961-3.458-1.706-4.491-.745 1.033-1.504 1.967-1.707 4.49z"/>
      <path d="M111.875 125.164v8.242h3.414v-8.242c-.204-2.524-.962-3.458-1.707-4.492-.745 1.034-1.504 1.968-1.707 4.492z"/>
      <path d="M121.636 125.164v8.242h3.413v-8.242c-.203-2.524-.961-3.458-1.707-4.492-.745 1.034-1.503 1.968-1.706 4.492z"/>
      <path d="M73.067 124.036v8.242l3.615.554v-7.923c-.203-2.523-.962-2.786-1.707-3.82-.638.592-1.684.98-1.908 2.947z"/>
      <path d="M99.671 92.47v5.307h2.71V92.47c-.162-1.626-.764-2.227-1.355-2.893-.592.666-1.194 1.267-1.355 2.893z"/>
      <path d="M94.597 92.47v5.307h2.71V92.47c-.162-1.626-.764-2.227-1.355-2.893-.591.666-1.193 1.267-1.355 2.893z"/>
      <rect y="103.818" x="97.451" height="7.299" width="2.075"/>
    </g>
    <path d="M90.553 100.517h15.872v1.554H90.553z"/>
    <path d="M90.553 119.165h15.872v1.554H90.553z"/>
  </g>
</svg>
