<svg width="800" height="800" fill="#d7374a" viewBox="50 50 200 200" xmlns="http://www.w3.org/2000/svg">
 <g id="escallop" stroke="#000" stroke-width=".375" transform="matrix(1.8,0,0,1.8,-39.5,-113)">
  <path d="M81.19 106.45s2.42.35 3.79-1.29c1.36-1.38.77-1.67 1.87-2.37 1.09-.7 2.16-1 2.16-2.11 0-.94-.82-.9-.92-.9-1.35 0-.99.4-5.38 1.05-1.37.07-1.4.03-2.17 0M74.49 100.86c-.76.01-.8.06-2.18-.01-4.39-.65-4.02-1.05-5.37-1.05-.1 0-.93-.14-.93.81 0 1.1 1.06 1.5 2.16 2.19 1.1.7.52.97 1.88 2.38 1.36 1.63 3.79 1.28 3.79 1.28"/>
  <path d="M78.16 138.85c.53.42 1.13 1.1 2.29 1.02 1.54-.4 1.17-1.16 1.97-1.47 1.12-.44 2.4.09 3.75-.89.78-.56.68-1.21.45-1.76.08-.46.5-.57 1-.55.74.04 1.6.4 2.27-.04 1.61-1.02.08-1.26 1.35-2.2.81-.52 1.58-.03 2.3-.82.68-.63.13-1.85-.42-2.14-.25-1.09.54-.94.77-.97.41-.07 1.43.25 2.05-.44.72-.83-.28-1.7.03-2.11.3-.43 1.42-.72 1.3-1.78-.12-1.06-.66-1.35-1.08-1.4-.54-.97.05-.84.26-.94.37-.17 1.56-.55 1.96-1.37.48-1-.62-1.79-.42-2.26.17-.5 1.16-1.07.75-2.07-.4-1-.99-.92-1.6-1.01-.58.01-1.18-.62-.5-.95 2.83-1.47.55-3.05.26-4.06 1.47-1.59.15-2.41-.29-2.94-.44-.52-4.95 4.81-9.79 4.76-4.92 0-5.07-6.18-5.5-8.98-.2-1.2-.42-2.75-.82-4.18-.55-1.94-1.43-2.72-2.98-2.72-1.56 0-2.43.78-2.98 2.72-.4 1.43-.63 2.99-.81 4.18-.44 2.8-.58 8.98-5.52 8.98-4.83.05-9.35-5.28-9.78-4.76-.44.53-1.77 1.36-.3 2.94-.28 1.02-2.57 2.59.27 4.06.69.33.08.95-.5.95-.61.09-1.19.03-1.6 1.01-.4 1 .59 1.58.75 2.07.19.47-.9 1.27-.42 2.26.4.82 1.58 1.2 1.96 1.37.2.1.8-.05.26.94-.42.05-.95.33-1.07 1.4-.12 1.06.98 1.35 1.28 1.78.32.4-.68 1.28.04 2.1.61.68 1.64.38 2.05.45.23.03 1.01-.12.76.97-.55.29-1.11 1.53-.41 2.14.71.77 1.48.29 2.3.82 1.28.93-.25 1.18 1.36 2.2.67.43 1.53.08 2.27.04.5-.02.93.09 1 .55-.23.55-.34 1.2.45 1.76 1.35.97 2.65.45 3.75.89.8.31.43 1.05 1.97 1.48 1.16.08 1.76-.6 2.29-1.03.2-.17 1.06-.17 1.27 0z"/>
  <g fill="#000" stroke="none">
   <path d="m73.56 123.08c-1.2081 4.4039-2.9256 8.673-5.23 12.62 0.74419-0.27991 1.1195-1.9731 1.67-2.7 1.5272-3.1602 2.7873-6.5542 3.56-9.92zm-14.7 0.33c3.1599-0.59082 6.0528-2.4136 8.18-4.76-2.2746 2.1759-5.0633 3.9185-8.18 4.54v0.22zm37.08 3.68c-0.09624-0.43647-0.47306-0.75561-0.84-0.98-0.1132 0.3971 0.90401 0.30319 1.15 0.07-0.40977 0.12677-0.95339-0.11889-1.34-0.02 0.29401 0.33466 0.75635 0.54688 1.03 0.93zm2.2-7.59c-0.18902-0.38728-0.88003-0.40372-0.40899-0.64101 1.1187-0.8696-1.0493 0.0956-0.07101 0.41101 0.15001 0.0981 0.32463 0.14237 0.48 0.23zm-7.51 14.21c0.1931-1.0503-0.3326-1.168 0.78-0.93 0.66692-0.0777-0.40641-0.15719-0.61-0.25-0.49416-0.22716-0.11689 1.0356-0.17 1.18zm-8.67 4.95c0.3376-0.4115 0.52854-0.92916 0.56-1.46-0.4632 0.17699 0.44635 0.97137 0.88 0.95-0.4432-0.20644-0.75253-0.61313-0.93525-1.033-0.2587 0.34837-0.23187 1.0688-0.49992 1.5261zm15.2-27.37c-0.17746-0.26106-1.3861-0.73705-0.96-0.4 0.3445 0.13862 1.249-0.93705 0.61-0.45-0.28098 0.25122-1.3529 0.23485-0.54 0.55 0.29558 0.0786 0.61786 0.24381 0.89 0.3zm-0.56 3.34c-2.2555 0.68573-4.7081 0.49401-7 0.48 2.2709 0.30284 4.6339 0.34703 6.8714-0.20103 0.20795-0.0642 0.23204-0.0514 0.12861-0.27897zm-0.4 8.59c-3.1184-0.59323-5.9125-2.3978-8.18-4.52 2.1469 2.3588 5.0163 4.1466 8.17 4.75 0.0033-0.0767 0.0067-0.15333 0.01-0.23zm-2.3 5.72c-3.2033-0.92957-5.5509-3.521-7.6378-5.9858-0.15622-0.10867-1.8113-2.3846-0.89337-1.0228 2.1215 2.8392 4.5668 5.8322 8.0111 7.0586 0.28654-0.0731 0.52224 0.36995 0.52-0.05zm-6.25 6.16c-1.6305-0.87432-2.283-2.8213-3.1035-4.373-1.1809-2.4759-2.0865-5.1316-2.9565-7.707 1.0442 3.8116 2.3929 7.6051 4.5253 10.948 0.27072 0.27869 1.1993 1.6802 1.5347 1.1316zm-9.39 3.71c-0.52388-3.9115-0.425-7.887-0.55705-11.832-0.03209-1.0198-0.02031-2.0929-0.11295-3.0784-0.03475 4.6473 0.03716 9.3028 0.3129 13.942 0.16219 0.1741-0.11672 1.2751 0.3571 0.96847zm-19.16-11.72c0.20066-0.44901 0.80574-0.59722 1-0.98-0.31105 0.0243-1.2305 0.0431-1.26 0.08 0.27805 0.28169 1.5128 0.019 0.95-0.04-0.31189 0.21878-0.68045 0.53174-0.69 0.94zm-2.2-7.59c0.41114-0.0811 1.129-0.52427 0.45-0.82-0.82869-0.66619 0.10848 0.52925 0.15 0.28-0.19576 0.18297-0.4283 0.3368-0.6 0.54zm7.51 14.21c0.04859-0.44047 0.29268-1.5024-0.41-1.12-0.8498 0.0667-0.56111 0.27094 0.15 0.15 0.55584-0.46489-0.05113 0.48965 0.26 0.97zm8.67 4.95c-0.2505-0.46644-0.33338-1.0196-0.44143-1.5074-0.28912 0.282-0.51258 0.83621-0.99857 1.0174 0.4335-0.0182 0.97806-0.43211 1.07-0.92-0.41205 4e-3 -5e-3 0.75484 0.10092 1.0366 0.07239 0.13911 0.14192 0.27431 0.26908 0.37344zm-15.2-27.36c0.2506-0.14219 1.5777-0.3827 0.99984-0.59715-0.31418 0.13031-1.2537-0.73949-0.78411-0.1671 0.19006 0.51885 1.3319 0.23083 0.53428 0.30425-0.24808 0.13095-0.58467 0.21417-0.75 0.46zm7.56 4c-2.4129 0.29811-4.8539 0.32137-7.28 0.22 0.74984 0.49205 2.3296 0.18041 3.4616 0.2085 1.2799-0.0555 2.57-0.12096 3.8184-0.4285z"/>
   <path d="m66.94 118.5c-1.8123 1.4925-3.8019 2.8612-6.0953 3.4814-0.73451 0.19873-1.4936 0.30907-2.2547 0.31865 0.05743 0.45427 0.88201 0.054 1.2245 0.10396 2.6595-0.41671 5.0325-1.9092 6.9661-3.7282 0.05499-0.0569 0.10838-0.11532 0.1594-0.17578zm3.25 2.99c-1.5033 2.1252-3.2065 4.1119-5.1423 5.8557-1.0167 0.93034-2.0896 1.7988-3.2077 2.6043 0.31548 0.30011 0.7598-0.46924 1.1121-0.59135 2.5896-2.0073 4.9214-4.3797 6.7511-7.1042 0.17358-0.24583 0.30767-0.52891 0.48684-0.76445z"/>
   <path d="m67.44 135.29c0.77759-0.25417 1.1948-1.0159 1.6768-1.6176 1.1601-1.7702 1.9658-3.7412 2.7381-5.7028 0.60441-1.625 1.1689-3.2678 1.5951-4.9496-0.16752 0.34693-0.23772 0.74223-0.37826 1.1054-0.86144 2.5653-1.8154 5.1085-3.0268 7.5312-0.57634 1.09-1.1677 2.2049-2.0529 3.0793-0.13393 0.24598-0.71967 0.24169-0.55209 0.55411z"/>
   <path d="m76.96 138.88c0.34701-1.75 0.28366-3.5439 0.38134-5.3171 0.09907-3.2232 0.13748-6.4482 0.12866-9.6729-0.11492 0.93598-0.07361 1.8844-0.12428 2.8257-0.10808 3.7549-0.14766 7.5172-0.42866 11.263-0.0072 0.25364-0.23745 0.74574 0.04293 0.90145z"/>
   <path d="m61.17 129.13c2.2816-0.57928 4.1176-2.1837 5.7254-3.8289 1.1469-1.1972 2.1925-2.4931 3.1146-3.8711-0.85665 1.0548-1.6933 2.1298-2.6239 3.1233-1.6839 1.7986-3.5921 3.5564-5.9882 4.3156-0.21375 0.0468-0.29211 0.0351-0.22788 0.26113z"/>
   <path d="m58.36 114.81c1.3233 0.4532 2.7399 0.44872 4.1218 0.48607 0.96144 7e-3 1.925-0.0449 2.876-0.19068-0.24178-0.0827-0.50571-3e-3 -0.75632-6e-3 -1.2048 0.029-2.4137 0.0563-3.6156-0.059-0.8553-0.0686-1.7227-0.14856-2.5358-0.44058-0.03 0.07-0.06008 0.14005-0.09 0.21011z"/>
   <path d="m84.83 121.5c1.0988 1.8738 2.5265 3.5376 4.0503 5.0777 1.283 1.2723 2.6697 2.4439 4.1334 3.4996 0.27593-0.32938-0.67198-0.58116-0.86058-0.87574-2.8264-2.1834-5.3069-4.8051-7.3532-7.7315l0.0129 0.019 0.0171 0.011z"/>
   <path d="m81.44 123.08c0.67306 3.1437 1.8036 6.1756 3.1347 9.0962 0.56707 1.2477 1.2342 2.4456 1.9153 3.6338 0.3011-0.38609-0.49726-1.0319-0.6083-1.5139-1.9328-3.5434-3.3809-7.3356-4.4417-11.226z"/>
   <path d="m88.09 118.51c1.3511 1.3751 3.0024 2.4318 4.7556 3.2186 1.1306 0.47883 2.3537 0.75791 3.5844 0.75172-0.05809-0.36365-0.51946-0.17654-0.77255-0.2102-0.56435-0.1008-1.1407-0.17909-1.6925-0.35078-2.0194-0.5905-3.8083-1.7629-5.4329-3.072-0.13056-0.10006-0.37191-0.30281-0.44205-0.33725z"/>
   <path d="m89.59 115.31c1.1804 0.33597 2.4188 0.34111 3.635 0.41665 1.211 0.0403 2.4246 0.0585 3.635-7e-3 0.03784-0.41848-0.59776-0.0717-0.84807-0.16609-1.8939 0.0544-3.7929 0.0194-5.6794-0.16381-0.23331-0.0228-0.58031-0.0718-0.74249-0.0801z"/>
  </g>
 </g>
</svg>
