<svg width="800" height="800" fill="#d7374a" stroke="#000" viewBox="50 50 200 200" xmlns="http://www.w3.org/2000/svg">
  <!-- Author: Azgaar. License: Public Domain -->
  <g id="fleurDeLis">
    <path d="m 104.2,113.2 c 0.1,-5.4 1.5,-10.5 4,-15.3 6.6,-13.8 26.6,-13.5 22.2,3.4 -1.6,6.2 -7.2,9.9 -13.7,10.5 0.5,-1.6 3.1,-7.4 1,-8.6 -3.4,0.1 -7.6,6 -8.6,8.7 -0.1,0.4 -0.1,0.9 -0.3,1.3"/>
    <path d="M 95.8,113.2 C 95.7,107.8 94.3,102.7 91.8,97.9 85.3,84.1 65.2,84.5 69.6,101.4 c 1.6,6.2 7.2,9.9 13.7,10.5 -0.5,-1.6 -3.1,-7.4 -1,-8.6 3.4,0.1 7.6,6 8.6,8.7 0.1,0.4 0.1,0.9 0.3,1.3"/>
    <path d="m 99.6,60.5 c -6.9,7.5 -11.6,16.1 -9.6,26.2 1.1,5.6 3.8,10.7 5.7,16.1 1.2,3.4 1.5,6.9 1.3,10.4 h 5.9 c -0.3,-3.6 0.4,-7 1.3,-10.4 1.8,-5.4 4.5,-10.5 5.7,-16.1 2.1,-10.4 -2.9,-18.3 -9.5,-26.2 L 100,60 Z"/>
    <path d="m 92,117.4 c -1.7,3.4 -8.5,9.7 -12.2,11.5 -0.9,0.5 4.5,-0.3 6.9,-0.7 3.2,-0.5 7.4,-3 7.3,-2.1 0,4 1.5,10.7 5.6,13.8 l 0.4,0.3 0.4,-0.3 c 4,-3.4 5.6,-9.5 5.6,-13.8 -0.1,-0.9 4.1,1.6 7.3,2.1 2.4,0.4 7.9,1.1 6.9,0.7 -3.6,-1.8 -10.5,-8.1 -12.2,-11.5 z"/>
    <rect y="112.6" x="86.4" height="5" width="28"/>
  </g>
</svg>