<svg xmlns="http://www.w3.org/2000/svg" fill="#d7374a" stroke="#000" viewBox="50 50 200 200">
  <metadata author="Christie L. Ward" source="http://www.vikinganswerlady.com/Stars/Heraldry_SVG_Images/Gladius.svg" license="https://creativecommons.org/licenses/by-sa/3.0"/>
  <g id="gladius" stroke-width=".352" stroke-linecap="round" stroke-linejoin="round">
    <g>
      <path d="M98.268 130.661a2.576 2.576 0 0 0 0-2.407h3.374a2.576 2.576 0 0 0 0 2.407z"/>
      <path d="M98.268 128.247a2.576 2.576 0 0 0 0-2.407h3.374a2.576 2.576 0 0 0 0 2.407z"/>
      <path d="M98.268 125.863a2.576 2.576 0 0 0 0-2.407h3.374a2.576 2.576 0 0 0 0 2.407z"/>
      <path d="M101.552 127.836a.433.433 0 0 1 .432.434.433.433 0 0 1-.432.432h-3.133a.433.433 0 0 1-.434-.432.433.433 0 0 1 .434-.434z"/>
      <path d="M101.552 125.473a.433.433 0 0 1 .432.433.433.433 0 0 1-.432.432h-3.133a.433.433 0 0 1-.434-.432.433.433 0 0 1 .434-.433z"/>
      <path d="M101.633 130.653c-.233.84-.361 1.742.202 2.408H98.09c.562-.666.433-1.568.2-2.408z"/>
      <path d="M101.552 130.2a.433.433 0 0 1 .432.433.433.433 0 0 1-.432.432h-3.133a.433.433 0 0 1-.434-.432.433.433 0 0 1 .434-.433z"/>
    </g>
    <path d="M104.86 120.262a4.871.917 0 0 0-9.743 0 4.871.917 0 0 0 9.742 0z"/>
    <g>
      <path d="M99.984 139.97a.674 1.272 0 0 0 0-2.545.674 1.272 0 0 0 0 2.545z"/>
      <path d="M96.648 135.543a3.337 2.98 0 0 0 6.673 0 3.337 2.98 0 1 0-6.673 0z"/>
      <path stroke-width=".196" d="M103.17 134.733c.201.157.305.325.305.494 0 .724-1.2 1.31-3.486 1.31-2.285 0-3.486-.586-3.486-1.31 0-.17.103-.337.305-.494a.318.318 0 0 0-.025.12c-.012.594 1.066 1.077 3.205 1.077 2.139 0 3.217-.483 3.205-1.078 0-.04-.008-.08-.023-.119z"/>
    </g>
    <g class="secondary">
      <path d="m99.989 121.66-3.702-.55.87-22.922a35.237 35.237 0 0 0-1.282-10.636 39.949 39.949 0 0 1 4.102-27.485 39.87 39.87 0 0 1 4.115 27.485 35.237 35.237 0 0 0-1.285 10.636l.872 22.923-3.702.549m0-61.593v-.021l.012.021"/>
      <path stroke-width=".196" d="M99.994 118.738h-1.1l1.088-43.189 1.1 43.189h-1.1m0-43.189v-.455l.012.455m-.012-.455.005.228.007-.228"/>
      <path stroke-width=".196" d="M99.987 117.171a3.902 3.277 0 0 0 3.697 2.466v1.497h-7.392v-1.497a3.902 3.277 0 0 0 3.695-2.466z"/>
    </g>
    <g>
      <path d="M99.992 124.582a4.155 4.155 0 0 0-2.522-.825 4.177 4.177 0 0 1-2.016-.665.516.516 0 0 1-.321-.55l-.023-2.293a1.474 1.474 0 0 0 .642.435 19.023 19.023 0 0 0 4.24.299 18.995 18.995 0 0 0 4.233-.299 1.474 1.474 0 0 0 .642-.435l-.024 2.292a.516.516 0 0 1-.32.551 4.177 4.177 0 0 1-2.018.665 4.155 4.155 0 0 0-2.521.825"/>
      <path stroke-width=".196" d="M104.856 121.041a1.26 5.427 85.65 0 1 .362.504 5.234 1.216 0 0 1-10.466 0 5.427 1.26 4.35 0 1 .361-.504 6.666 1.359 12.62 0 0-.008.157 4.915 1.002 0 0 0 9.76 0 1.359 6.666 77.38 0 0-.009-.157z"/>
    </g>
  </g>
</svg>
