<svg width="800" height="800" fill="#d7374a" viewBox="50 50 200 200" xmlns="http://www.w3.org/2000/svg">
<!-- source: wappenwiki.org, CC BY-NC-SA 3.0 -->
 <g id="griffinPassant" transform="matrix(0.11875,0,0,0.11875,53,72)" stroke="#000" stroke-width="3">
  <path d="M83.9 166.9s8.3-5.6 4.1-12.4c-4.2-6.8-8.8-5.1-8.8-5.1s-2.3 1.5-5.2 1.9c-7.3.9-9.9-3.8-10.5-8.6-.3-2.1.5-3.4.2-4.1-.6-1.8-9.1 6.8-2.7 19.9 7.1 14.1 22.9 8.4 22.9 8.4zM73.1 92.3s7.1 7 1.8 13c-5.4 6-9.6 3.4-9.6 3.4s-2-1.9-4.8-2.8c-7-2.2-10.4 2-11.8 6.5-.7 2.1-.1 3.4-.6 4.1-.9 1.7-7.7-8.3.9-20 9.6-12.6 24.1-4.2 24.1-4.2zM116 71.4s-1.4 9.9-9.3 9.2c-8-.7-8.5-5.6-8.5-5.6s.3-2.8-.6-5.5c-2.4-6.9-7.8-7.2-12.3-5.6-2.1.7-2.8 2-3.6 2-1.9.3 2.1-11.1 16.6-11.2 15.8 0 17.7 16.7 17.7 16.7zM152.7 95s-6.6 7.5-12.9 2.5c-6.3-5-4-9.4-4-9.4s1.8-2.1 2.5-4.9c1.8-7.1-2.6-10.3-7.2-11.4-2.1-.6-3.4.1-4.1-.3-1.7-.8 7.9-8.2 20-.2 13.3 8.8 5.7 23.7 5.7 23.7z"/>
  <path d="M77.4 89.9c-3.7-1.3-5.3 1.7-5.3 1.7s1.5 4.6-1.4 10.1c-2.1 4-3.8 5.7-6.7 6.3-.3 2.9-.4 4.4 1.2 5.9 1.8 1.6 5.2 2.7 6.4 2.4 2.1-.3 4-2.5 5.1-3 2.6-1.3 5 3.9 8.1 5.4 1.9 1.1 4.9 1.6 5.6 2.2.8.6 2.8 3 3 5.5.1 2.5-.5 3.7 4.5 6.4 2.6 2.6 0 3.4-.9 3.6-.9.2-3.4-2.7-6.1 2.2-2.8 4.9 4.1 5.3.4 8.3-1-.7-2.5-3.2-4.5-3.9-1.1-.5-4.7 0-6.7 1.2-1.8 1.2-2 2.7-2.2 5.6 2.7 1.1 4.1 3.1 5.4 7.4 1.9 5.9-.4 10.2-.4 10.2s1 3.2 5 2.6c6-1.5 7.3-3.1 7.1-8.3 1.6-4.3 6.3-3 7-8.4.7-5.4 2-6.1 4.3-7.7 4-2.7 8.4 1.7 8.4 1.7s32.6 28.7 45.6 43.5c4.1 0 18.2-2.5 6-17.3l-9.9-10.4s-2.2-3.5-6.2-6.3c-.6-2.2-4.5-5.6-7.1-7-.8-2.4-4.5-5.5-7-6.5a16.6 16.6 0 00-7.3-7.1c-1.9-1.8-3.3-3.3-3.8-3.6-4.2-3-.8-6.7-.4-7 .4-.3 12.2-1.2 10.9-6.6-.6-2.5 0-7.5 3.5-8.2 3.5-.6 3.7-5.4 7.1-5.5 5.9.8 7.5-1.7 9.1-6 1.1-3.8-1.9-5.2-1.9-5.2s-4.6 1.7-10.2-.9c-4.2-1.9-5.9-3.5-6.7-6.3-2.9-.1-4.5-.2-5.8 1.5-1.5 1.9-2.4 5.4-2.1 6.5.4 2 2.1 3 2.9 4.1.8 1 2 4.7-2.2 5.7-6.3 1.5-3.4 5.2-4.1 7.2-1.6 4.2-6.9 4.9-6 3.6.9-1.3 1.6-4.1 1.2-7.2-.3-2.6-3.1-4.5-1.8-8.7.4-1.1 1.8-4.1 1.2-6.9-1.6-5.1-2.3-5-3-6.1-.7-1-1.1-2.3-.4-3.1 4.8-2.1 5.5-4 4.3-10.1-1.2-3.8-4.5-3.3-4.5-3.3s-2.9 3.9-9 4.9c-4.5.7-6.9.4-9.1-1.6-2.5 1.5-3.8 2.3-4 4.5-.2 2.4.9 5.8 1.9 6.6 1.5 1.5 4.4 1.7 5.5 2.3 1.1.6.2 4.6 2.5 7.6 3.5 6.3-.5 10.1.8 14.4 1.3 4.3 2.7 4.2 2.9 5.7.3 2.4-1.9 4-1.9 4s-3.1-1.5-4-5.1c-.8-10.7-9.6-10.1-12.7-10.5-5.6-.6-5.5-5.4-5.9-3.6 1.2-4.7-1.4-7.5-5.7-9.4z"/>
  <path d="M204.8 187.5c-1.7-1.5-5.2-5.5-12-8.5s-22.8-12.8-22-24.1a22 22 0 00-4.4-16 13 13 0 00-11.5-4.8c-1.2.2-5.2.8-6.2 2.9-.4 1 .1 1.1 1 1.1a7 7 0 018.2 5.7c.5 2.8-1.6 6.8-3.2 11.2-4.9 14.1 4.3 21.1 6.7 24.5 1.8 2.3 1.8 5.5 2 6.2-9.3 1-12.9-.9-15.9-3.7-3-2.9-8.5.1-9.3-8.5-.3-.3-.5 0-.5 0s-4 7.9.9 12.1c-14.8 4.5-19.9-.1-23.4-5.3-.4-.3-.7-.9-.9-.1-2.5 15 14 17.4 20.3 16.6 6.3-.8 19.3 5.5 25.3 9.9 14.1 10.1 40.7 52.2 42 52.5"/>
  <path d="M283 137.2l-.6-1-2.5-3.3c-1.1-1.4-2.6-2.9-4.3-4.7a62.2 62.2 0 00-6.4-5.3 43 43 0 00-11.4-5.8l-.3-.1h-.5l-.6-.2-1.3-.3a55.4 55.4 0 00-11.4-1.7l-5.9-.1c-10.3.2-27.5 3.8-37.8 2.3-11.2-1.2-18-6.7-19.3-7.7 1.6-.6 8.1-.7 8.8-.7 2.8-.2 1.1-.7-.1-1.1-.7-.3-7.3-2.8-13.4-7.3-5.9-4.3-10.9-10.9-11.9-10.2-2.2 1.5 4 21.5 9.6 30.1.8 1.2 2 3.3 2 2.2 0-.7.5-6.9.9-9l.3.2c3.7 4.2 12.9 8.4 24 9.6 6.3.8 19.8.4 26.1-.4 3.8-.5 7.6-.9 11.2-1.1l5.4-.1c1.8 0 3.5.2 5.2.3l4.9.8 1.2.3.6.1.3.1.3.1 2.2.7a49 49 0 0117.5 12.7c1.1 1.2 1.8 2.2 2.3 2.9l.5.7.2.3 4.5-2.9-.3-.4z"/>
  <path d="M216.7 141.9a6.7 6.7 0 012.3 6.5c-1.1 3.7-5.3 5.8-3.6 10.2a6.3 6.3 0 003.8 3.5c-1-2.3-1-4.8 1.3-7.2 1.6-1.7 5-1.9 5.3-5.4 0 .5.3 2.8.6 3.8 1.4 4.4 4.1 3.5 3.6 6.9-.4 2.8-5.4 4.5-3.4 5.2 2.7 1 6.3.9 9.1-2 3.3-3.2 3.8-6.6 3-8.5 1.1 2.6 6.7 5.1 11.1.7-1.4-.3-7-2.3-7-7.1 0-6.2 8.6-9.3 12.6-9.8"/>
  <path d="M275.5 146.3a28 28 0 002.3-11.8c0-5.4.2-17.3-10.5-29.7-5.2-6.1-10.3-9.4-22.4-12.1a15.9 15.9 0 01-11.5-9 38.4 38.4 0 01-3.8-13.1c-.5-5.6-.3-7.1-.2-9.1.3-5 1.9-9.8 1.9-9.8-4.2-.7-12.1-1-14.2 5.7-6.1-.8-24.6 6.6-28.1 23.8a27.2 27.2 0 004.9 21.6c1.7 1.7 2.9 1.6 2.6-.8-.5-4.1 3.1-9 9.3-11.4 13.8-5.2 24 6.4 28 9.3 10.3 8.3 14.9 1.6 26.1 7.6 10.5 5.7 13.7 20.5 12.8 22.1-4-1.8-10.9-3.2-15.5-3.1-8.6.2-15.4 5.8-22.2 7.6-5.3 2.2-19 3.2-22.7-4.3-.8-1.9-.9-1-1.3-.2 0 0-.4 3 1.4 7.4 1.9 4.3 7.3 7.2 12.8 7.5 16.1 0 19.4-5.9 34.4-5.9 9.4.1 13.8 4.9 15.9 7.7z"/>
  <path d="M269.1 60.5a37.5 37.5 0 0125.2-17.1c9.8-1.4 19.9 1.5 29.6-.7 7.7-1.8 13.9-7.1 20.6-11.2s16.7-5.1 22.9-.3c-1 1.9-5.5 1.3-9 3-8.7 4.2-11.3 15.2-16.5 23.4-5 8-13 13.7-21.4 18a51.4 51.4 0 01-20.4 6.5c-7 .4-11.5-2.5-20.8-1.3"/>
  <path d="M717.5 75.5s4.7 0 6.6-.3c1.9-.3 1.5-1.8-.1-2.2-2.3-.5-7.1-2.5-13.8-2.3-1.9-1.3-9.1 0-9.1 0L692 93s7.6.7 11.1 2.1c5.5 2.2 6.2 7.6 10.7 9.5 3.9 1.6 7-.4 7-.4l11.3-9.1s6.7-.1 14.1-7c3-2.6 4.7-5.6 0-3.5-10.1 4.5-20.9.3-20.9.3l-8.5-3.6.7-5.8z"/>
  <path d="M388.8 414.6c-6.4 7.2-8.9 19.1-2 28.3 1.1 1.2 1.8.6 2-.3 2.2-10.5 10.8-12.8 14.5-12.3 1.7-7.1-3.6-20.7-14.5-15.7zm95.6-44.4c-7-6.8-19.5-.1-11.1 10.2 5.1-.2 5.3 5.5 6.3 8.2.4 1.1.9 2 2.1 1.2 5.8-4.4 6.7-13.4 2.7-19.6zm-102.9 4.1c-18.5 5.6-14.8 27.6-13 27.3 2.5.7 6.7-12 13.8-6.9 11.9-3.1 5.6-21.9-.8-20.4zm46.7 45.5c.1.6-2.1 2.8-2.4 8.4-.3 7.1 4.5 13.1 6.1 13.9 1 .6 2.5 1.8 2.1-1.1-.4-4.7.5-11.4 8.9-12.6 1.2-10.5-12.3-13.2-14.7-8.6z"/>
  <path d="M489.3 350.5c-4.8 9.5-1.9 13.8-3.4 22.7-6-1.9-10.5.4-10.6 7.6a12 12 0 00-7.6 2c-3.3 2.4-2.3 4.2-2.2 10.5 0 8.2 1.3 18-3.1 23.9 0 0-5.5 11.3-17.4 11.4-1.1.1-3 .3-3.9.6 1.1-8.6-7.5-9.7-13-8.5-.8-.5-.8-1.9-.3-3.9.4-1.5 2.3-2.5 3.5-2.5.5-.9-.9-2.3-.8-2.7-4.8 4.2-4.6-.4-13.4 6.6-.7.6-5.9 3.8-5.8 7.8.2 2.7-5 8.5-8.5 5.9-1.4-.8-.6-1.6-2.2-1.4 2.8-12.2-7.9-14.4-13.4-14.3 1-2.2-.9-1 .3-3.9a7.8 7.8 0 016.5-4.1c1.8-.1 4.5-2.1 7.3-5.5a30 30 0 015.6-6.3c-3.5.4-4.1-2.8-10.9-3.1-5.1.2-1.7 3.3-9.2 3.3-1.6 0-3 .1-5.4-2.1 9.8-7.5 4.8-16.2-.9-20.1 1.3-3.4 5.7-3.4 8.6-2.6 16.3-5.6 20.8-1 30.7-.6 6.9 0 19-11.4 19-11.4a92.5 92.5 0 0010.1-16.4c7-14.7 9.8-17.6 14.2-20.8.8-.5-15.1 2.7-26.3-6.9-11.2-9.6-12.9-22.1-10.9-29.3 2.3-11.8 5.6-17.4 5.6-17.4s-4.9-.5-8.5.9c-3.9 1.6-5.7 6.3-12.8 3.5 6.3-3 5.4-9.6 11.1-11a47 47 0 0011.4-4.6c-1.4 0-6.9 0-9.4-3.3 5.3-.2 8.6-2.8 10.9-3.6 2.3-.8 7.2 0 8.7-1.4 4.5-3.6 13.2-14.2 44.4-30.6 6.5-4 35.3 4 35.3 4l13.7 13.7s11.9 21 7.2 24.6c-10.8 8.3-22.2 12.3-26.8 17.7-7.2 6-8.4 14.8-2.4 21.9 4.3 4.1 14.1-.4 14.1 11.1 0 6.9-10.7 8.7-13.7 10.9-2.9 5.8-23.5 22-25.4 27.7z"/>
  <path d="m493.7 224.1-25.4 7.7s-11.6 9.3-14.7 16.9c-1.3 3.2-0.7 5 0.6 6.3 2.8 2.9 6.1 0.3 8-0.9 9-6 18.7-10.5 24.4-12.8s15.1-4.3 15.1-4.3l-8-12.9z"/>
  <path d="M622.1 419.6a22.5 22.5 0 00-1 28.3c1.1 1.2 1.8.6 2-.3 2.2-10.5 10.8-12.8 14.5-12.3 1.7-7.1-4.6-20.7-15.5-15.7zm96.5-44.4c-7-6.8-19.5-.1-11.1 10.2 5.1-.2 5.3 5.5 6.3 8.2.4 1.1.9 2 2.1 1.2 5.9-4.4 6.7-13.3 2.7-19.6zm-102.8 4.2c-18.5 5.6-14.8 27.6-13 27.3 2.5.7 6.7-12 13.8-6.9 11.8-3.1 5.6-22-.8-20.4zm46.7 45.5c.1.6-2.1 2.8-2.4 8.4-.3 7.1 4.5 13.1 6.1 13.9 1 .6 2.5 1.8 2.1-1.1-.4-4.7.5-11.4 8.9-12.6 1.2-10.6-12.3-13.3-14.7-8.6z"/>
  <path d="m742.4 96.6c-3.5 0.8-7 1.2-10.6-1.6-2.3-1.6-4.1-5.1-6.3-8.9-2.3-4-5.1-8.4-9.6-11.6-10.7-7.9-13.9-8.8-21.6-9.2-12.6-1.7-21.3-0.3-33-8.6-4.4-3.1-32.2-23.1-63.9-11.1-17.4 6.2-35.3 17.8-35.3 43.2 0 39.9 53.3 56.2 102.4 71 18.9 5.7 41.2 13.6 46 31.2 2.8 10.2 0.6 18.4-6 25.7-7.7 8.5-18.7 9.9-31.9 6.6-13.601-3.9769-25.669-11.999-34.6-23l-2-2.3c-6-6.9-15.1-14.3-22.2-21.2-19.731-18.127-45.146-28.838-71.9-30.3-31.1 0-45.2 5.9-88.1 12.9s-49.9 11.1-78.2 11.1l-11.6 16.7c-24.1 0-39-17.4-38.8-23.1 0.9 0.7 0.5 0.3 2.1 1.2 2.8 1.5 6.8 3.6 12.5 2.3 12.9-3 13.1-15 13.1-15s-0.2-1.8-1.3-0.7c-2.6499 2.389-5.8989 4.0134-9.4 4.7-8.3 1.9-10.9-6.6-11.2-8.2-1-4.5 0.9-7.3-0.4-12.8-1.2-5.1-1.1-5.8-1.1-8l0.1-1.4s4.3 1.9 7.1 1.9c4.6 0 11.2-2.6 12.8-9.4 0.4-1.3-0.8-0.9-1.3-0.8-5.1 1.6-10 1.5-12.5-2-3.1-4.2-1.3-14.2-1.8-17.2 0-12.9-11.1-23.3-17.7-30.7-6.6-7.5-2.7-14.1-18.9-21-5.6-2.4-14.6-4.7-20.6-5.8-5.7-1-14.1-1.3-19.9-1.3-13.6 0-21 2.7-24.6 10.1-1.7969 3.5344-2.755 7.4353-2.8 11.4 0 2-0.3 3.6 0.2 9.2s2.2 9.7 3.9 13.2c1.6 3.5 5 7.7 11.6 9 12.2 2.7 17.8 6.4 22.7 12.8 9.8 12.6 9.8 23.5 9.8 28.9 0 4-0.4 9-2.3 11.8-1.6 2.2-1.8-0.9-4.9 3.3-2.6 3.4-2.6 9-11.4 6.2-0.7 1.5 0.4 3.7 2.1 4.9 2.9 2.3 6.6 1.6 6.6 1.6-4.6 4.2-11.1 2.7-16.8 3.1-6.7 0.5-13 2.1-18.9 5.4-3.2 1.8-6.2 4.1-9.6 5.7-4.1764 2.1846-8.9375 2.9898-13.6 2.3-2-0.5-4.1-1.6-5.5-3.1-0.4-0.4-1.617-3.5753-2.2-5.3-3.2 1.2-3.7 5.7-3.6 8.3 0.3 4 3.4 8 6.8 10l-0.9 0.6c-8.8 4.3-9.1 12.1-17.1 17.4-3.5 2.4-13.8 8.1-18.5 1.1-4.9-7.4-0.8-12.2 0-14.1-0.2-1.4-3.9-0.2-6.9 3.5-3.3 4-4.6 12 0.3 19.2 6 9 15.5 9 22.5 5.9 5.6-2.5 6.2-3.2 8.4-4.7 0 0-9.2 7.9-10.4 17-0.3 2.4-1 8-5.2 10.1-4.9 2.4-10.5-2.2-10.5-2.2-0.8 1.7 1.4 5.4 2.7 7 5.2 6.6 11.2 3.7 11.2 3.7s-3.3 5.5-3.4 11.9c-0.1 11.9 5.5 14.3 5.4 22.3-0.2 2.9-0.9 6.2-5.4 8.4-5.3 2.6-8.2-0.3-8.4 1.2-0.1 1.8 0.9 3.4 1.9 4.3 3.6 3.3 9 4 13.7 1.7 8.5-4.1 9.1-14.2 9.1-14.2l0.3-0.1c2.2 23.6 20.1 28.7 25.9 42.5 0 0 6.1 16.5 32.6 22.5 19.3 4.3 48.5-7.3 48.5-7.3 66 13 94-115 181.4-115 20.4 0 31.8 8.5 38.7 19.3 14.6 22.6 11.8 34.8 25.1 62.2 6.5 13.4 14.8 14.6 23.5 31.4 4.2-3.6 4.1-6.8 0.2-14.5 3.8 3.7 3.1 5.9 13 11.6 9.5435 5.6059 20.432 8.5096 31.5 8.4 23.5-0.2 39.6-29.4 51.4-20 4.9 4.3 4 28.8 2.7 33.1l-1.4 3.9s-3.7 10.9-10.5 10.9c-9.9-0.4-15.6-6.2-32-0.6-2.9-0.8-7.3-0.8-8.6 2.6 5.7 3.9 10.7 12.6 0.9 20.1 2.4 2.2 3.9 2.2 5.4 2.1 7.5 0 4-3 9.2-3.3 6.8 0.3 7.4 3.5 10.9 3.1-2.1538 1.826-4.0391 3.9469-5.6 6.3-2.8 3.4-5.5 5.5-7.3 5.5-3.7 0.1-7 2.7-7.5 4.1-1.2 2.9 0.8 1.7-0.3 3.9 5.5-0.1 17.2 2.1 14.4 14.3 1.6-0.3 0.8 0.5 2.2 1.4 3.5 2.6 8.6-3.2 8.5-5.9-0.2-4 5.1-7.2 5.8-7.8 8.8-7 8.6-2.4 13.4-6.6 0 0.5 1.3 1.8 0.8 2.7-1.3 0-3.2 1-3.5 2.5-0.5 1.9-0.5 3.3 0.3 3.9 5.5-1.3 14.1-0.1 13 8.5l3.9-0.6c11.9-0.1 17.4-11.4 17.4-11.4 4.4-5.9 3.2-15.8 3.1-23.9 0-6.3-1.1-8.1 2.2-10.5 2.1-1.4 5.5-2.4 7.6-2 0.1-7.1 4.5-9.5 10.6-7.6 0-6.8-5.3-11-11.5-17.1-7.9-7.3-6.1-18.3-6.5-26.4-1.2-7 4.6-35.1 3.3-40-1.2-4.9-4.3-7.5-4.7-11.9-0.4-3.6 2.7-4.1 2.2-9.6s-4-9.1-10.5-8.5-10.6 4.2-17.2 8.7c-16.3 8.4-10.4 17-32.2 18-1.3 0.1-2.7-0.1-3.9-0.6-11.1-5.4-7.6-18.7-7.9-44.2-0.1-15.8-6.1-32.3-6.3-32.6l-0.4-1.2c11.343 13.754 26.63 23.701 43.8 28.5 19.9 4.9 38.6 3.4 50.9-10.1 10.629-11.892 14.099-28.554 9.1-43.7-7.7-28.1-32.5-36.1-59.5-45.6-25.5-9-86.6-18.8-86.6-53 0-11.6 8.8-20.6 18.6-23.2 19.8-7.5 30.1 7.7 45.4 21.3 29.1 25.6 53.6-6.7 66.6 8.3 1.9 1.9 3.9 6 7 8.3 10.8 6.8 21.6 2 24-4.3 4.3-4.5 3.3-4.8-1.8-3z"/>
  <path d="M186.2 425.5s-1.7-9.9-9.7-8.8c-8 1-8.3 5.9-8.3 5.9s.4 2.8-.4 5.5c-2.1 7-7.5 7.4-12.1 6-2.1-.6-2.9-1.9-3.7-1.8-1.9-.2 2.5 11.1 17 10.6 15.9-.6 17.2-17.4 17.2-17.4zm-72.5-20.7s9.3-3.6 12.6 3.7c3.3 7.3-.8 10.1-.8 10.1s-2.6 1.1-4.5 3.2c-4.9 5.5-2.5 10.3 1.1 13.5 1.6 1.5 3.1 1.5 3.5 2.2 1.2 1.5-10.7 3.6-17.9-9.1-7.6-13.8 6-23.6 6-23.6zm-1.4-47.7s8.5 5.3 4.5 12.3c-4 7-8.6 5.4-8.6 5.4s-2.4-1.4-5.3-1.7c-7.3-.7-9.7 4.2-10.2 8.9-.2 2.2.6 3.4.3 4.1-.5 1.8-9.3-6.5-3.4-19.8 6.7-14.3 22.7-9.2 22.7-9.2zm36.6-23.7s4.2 9.1-3 12.8c-7.1 3.7-10.2-.2-10.2-.2s-1.2-2.5-3.5-4.3c-5.7-4.6-10.4-1.9-13.4 1.9-1.4 1.7-1.3 3.2-2 3.6-1.5 1.2-4.2-10.5 8.1-18.4 13.5-8.5 24 4.6 24 4.6z"/>
  <path d="M113.4 399.9c-2.7 2.9-.7 5.5-.7 5.5s4.8.6 8.6 5.4c2.8 3.6 3.7 5.8 3 8.7 2.5 1.4 3.9 2.2 5.9 1.3 2.2-1 4.6-3.7 4.8-4.9.5-2-.6-4.7-.7-5.9-.1-2.9 5.6-3 8.3-5.2 1.7-1.3 3.5-3.8 4.3-4.2.8-.4 3.9-1.4 6.2-.5 2.3.9 3.1 2 7.6-1.5 3.4-1.3 3.1 1.4 2.9 2.3-.1.9-3.8 2-.5 6.5s6.5-1.5 7.7 3c-1.1.6-3.9 1-5.4 2.5-.9.8-2 4.3-1.6 6.7.3 2.2 1.7 2.9 4.2 4.3 2.1-2 4.5-2.5 9-1.9 6.1.7 9.1 4.5 9.1 4.5s3.4.4 4.4-3.5c1.1-6.1.2-7.9-4.6-9.9-3.3-3.2-.1-7-4.8-9.8-4.6-2.8-4.7-4.4-5.2-7.1-.8-4.8 5-6.9 5-6.9s39.6-17.9 58.4-23.7c1.7-3.7 5.2-17.6-13.3-12.5l-13.5 4.8s-4.1.6-8.3 3c-2.2-.3-7 1.8-9.3 3.6-2.5-.2-6.9 1.9-8.8 3.7-3-.1-7.6 1.9-9.5 3.8l-4.8 1.9c-4.4 2.6-6.4-2-6.5-2.5-.1-.5 3.9-11.6-1.6-12.6-2.5-.5-6.9-3.1-6-6.5.9-3.5-3.4-5.6-2.1-8.7 3.2-5 1.5-7.5-1.8-10.8-3-2.6-5.6-.4-5.6-.4s-.3 4.9-5 8.9c-3.4 3-5.6 4-8.5 3.5-1.3 2.6-2 4-1 5.9 1.1 2.2 3.9 4.4 5.1 4.6 2.1.4 3.6-.7 4.9-.9 1.2-.3 5.1.1 4.3 4.4-1.3 6.4 3.3 5.3 4.9 6.7 3.1 3.2 1.7 8.3.9 7-.8-1.3-3-3.1-6.1-4.1-2.5-.8-5.4 1-8.6-1.9-.8-.8-3-3.3-5.8-3.9-5.3-.7-5.5 0-6.7.2-1.2.2-2.5.1-3-.9 0-5.2-1.4-6.6-7.4-8-3.9-.5-4.9 2.8-4.9 2.8s2.4 4.2.8 10.2c-1.2 4.4-2.5 6.4-5.2 7.6.4 2.9.6 4.4 2.4 5.5 2.1 1.2 5.7 1.5 6.8 1 1.9-.8 3.4-3.3 4.3-4 1-.8 4.3 1.7 8 .9 7.2-.6 9 4.6 13.4 5.1s4.9-.7 6.4-.3c2.3.7 2.8 3.4 2.8 3.4s-2.6 2.2-6.3 1.6c-10.1-3.6-13.1 4.6-14.8 7.3-2.8 4.8-7.2 2.8-5.7 3.8-3.8-3.3-7.4-2-10.8 1.1z"/>
  <path d="M240.5 324.7C235 329.6 217 347 207 341.6c-4.7-2.6-10.9-4.3-16.3-2.6a12.9 12.9 0 00-9.1 8.4c-.3 1.2-1.4 5.1 0 6.9.7.8 1 .3 1.4-.5a7 7 0 018.6-5.1c2.7.7 5.5 4.3 8.9 7.5 10.8 10.4 21 4.9 25 4.1 2.8-.6 5.8.6 6.4.8-3 8.8-6.2 11.4-10 12.9s-3.5 7.8-11.7 4.9c-.4.1-.3.4-.3.4s5.5 6.9 11.4 4.2c-2.1 15.3-8.3 18-14.6 19-.5.2-1.1.3-.4.7 12.6 8.6 21.7-5.4 23.6-11.5 1.9-6 13.1-15.1 19.5-18.9 36.5-21.4 52.4-15.4 71.5-34.1"/>
  <path d="m272.6 306.6c6.1-0.5 12.1-2.1 18-4.6 14.7 8.2 42.6 3.2 57-5.5 19.4-4.9 34.2-20.4 34.9-37.6 0 0 7.7-0.1 18.8-6.7 6.2-3.6 11-13 11-13 8-7.2 11-11.5 9.6-20.7 18.8-2.4 35.7-15 36.3-26.9 4.6-2.8 6.4-11.3 5.5-17.6 0 0 5.2-3.3 9.8-6.5 7-4.9 10.4-10.7 10.4-10.7 9-8 9.7-18.1 5-27.5 0 0 6.5-2.4 19.1-11.3 10.3-7.2 16.6-19.8 19.7-22.4 3.9-3.3 13.8-14.7 13.3-26.2-0.3-7.2-4.4-15.8-4.4-15.8 5.4-2 11.1-7.9 13.4-12.9 3.1389-5.5507 4.2356-12.025 3.1-18.3-0.2-1.3-0.4-2.6-0.3-3.8 0.2-1.5 1.1-2.8 1.6-4.3 1.1-3 1.8-13.1-5.3-15.7-3.3-1.2-13.5 11.4-16.4 14.1-15.1 14.2-25.8 24.3-38.9 36-17 15.1-35.2 28.2-52.5 40.7-22.4 16.2-48 36.3-75.8 50.6-21.7 11.2-56.3 27.1-100.7 60.9-10.846 7.9393-20.249 17.681-27.8 28.8"/>
  <path d="M300.4 52.9c3.8-1.6 7.9-2.5 12.2-2.5 9.9 0 19.5 4.2 29.4 3.3 7.8-.7 14.8-5.1 22-8.3s17.2-2.8 22.7 2.9c-1.3 1.8-5.6.5-9.3 1.7-9.2 3-13.2 13.5-19.5 21a54.5 54.5 0 01-23.7 14.9c-6.8 2.4-14 4.2-21.1 3.7"/>
  <g fill="#000" stroke="none">
   <path d="m122.2 126.4c-0.32051 2.5932 2.6867 3.3783 3.3024 5.4391 0.0684 1.8168-2.7106 1.7019-2.9727 9e-3 -0.74308-1.4021-1.6426-4.5409-0.32969-5.4484zm40.7 57.1c-0.67742 2.8544-1.5577 0.21664-2.9-1.1-8.2132-9.7807-17.849-18.258-26.85-27.289-4.7771-4.5788-9.5942-9.1158-14.45-13.611 14.104 12.484 28.789 24.44 41.873 38.025 1.2708 1.7264 3.2143 3.0537 4.1271 4.9745-0.17209 2.8376-4.2868 0.53915-1.8-1zm-40.1-40.9c3.045-1.426 4.6316-4.3546 4.4389-7.5054 0.68595-1.7238 3.4282-0.66226 2.8611 1.1054-0.0415 3.6988-5.0946 6.5761-7.3 6.4zm7.5 7.2c4.2903-1.1903 3.721-5.7564 5.3-8.3 4.2749 0.45208 0.77375 6.4208-1.8913 7.1925-1.0468 0.45437-2.2791 1.2299-3.4087 1.1075zm7.5 6.3c4.6628-0.38492 2.6447-11.555 6.7-6.6 0.098 3.6288-3.705 6.2407-6.8 6.8zm6.9 7c4.4962-0.50127 2.9221-11.745 6.9-6.6-0.12649 3.6176-3.7114 6.2341-6.9 6.8zm-38.2-45.7c2.0913 2.486 1.1119 6.3901 3.6 8.6-2.144-1.9574-6.9549-6.0742-5.7594-9.0281 0.73123-0.52869 1.6048-0.14003 2.1594 0.42813zm13.7-0.9c-1.5432 1.8289-2.1385 7.9705-2.8 1.9-1.8935-3.692 4.1288-7.2541 2.8-1.9zm25.9-9.6c-2.5914-0.57775-5.4636-1.6561-7.2-3.6 2.6834 1.2067 5.7084 0.52114 8.425 0.975 1.4641 0.80354 0.31498 3.4662-1.225 2.625zm-29-22.1c-2.4447 0.9114-5.4698 1.6828-7.9 1 2.087-0.14681 11.606-7.4963 7.9-1zm-23.2 69.6c1.42 2.5262 3.0299 5.7264 2.1375 8.6-5.066 2.3136-0.72882-7.0086-2.1375-8.6zm21-10.9c-3.1377 0.0714-5.8431 1.6943-8.3219 3.4219-3.5457-0.34847-0.3237-3.5917 1.7567-3.3916 1.8804-0.4781 6.066-1.0769 6.5651-0.0302zm-34.5-37.3c1.499-2.5583 0.78794-5.5423 1.1878-8.2397 0.91509-1.8499 3.6729-0.41189 3.0122 1.4397-0.70204 2.568-1.9429 5.3652-4 7zm2.6 47.7c-5.1063 3.5339-13.396 4.8662-17.881-0.34973-1.2194-1.4546-2.5054-3.9266-2.1191-5.5503 0.67368 6.4495 8.2031 9.9071 13.9 7.5 2.0141 0.21718 5.0399-3.9195 6.1-1.6zm-14.3-48c-4.2533-4.428-12.142-7.3719-17.218-2.5567-1.2503 1.0674-2.0117 2.7113-2.682 4.0567 1.4471-5.9952 8.4277-8.8312 13.907-6.6253 2.6547 0.81996 5.1079 2.2813 7.093 4.2253-0.36667 0.3-0.73333 0.6-1.1 0.9zm33.8-29.9c1.0829-5.8698-1.1238-13.771-7.6254-15.297-2.8029-0.50088-7.5992 0.41071-2.513-0.52917 5.9807-0.63222 10.59 4.8681 11.278 10.414-0.1267 1.3105 1.5606 6.8509-1.14 5.4121zm36.3 15.5c4.4749-4.4139 6.9376-13.087 1.2484-17.542-0.67126-1.0144-5.6729-2.6523-2.1577-1.5876 5.244 1.6716 7.4834 7.8183 5.7594 12.76-0.68404 2.7727-2.012 5.3836-3.85 7.5694-0.33333-0.4-0.66667-0.8-1-1.2z"/>
   <path d="m165.2 193.1c-1.8453-2.0524-2.5044-4.7673-3.4-7.3-0.77789-2.0046 2.7932-2.8118 2.9471-0.66444 0.14019 1.7272-0.28004 3.4863 0.079 5.2126-0.11481 0.77897 0.84823 2.3706 0.3739 2.7518zm17.8-3.6c1.81 0.7506 3.341 2.008 4.9548 3.0941 1.1905 0.8618 2.3253 1.7888 3.3528 2.8417 1.2052 0.75106-0.30293 0.71534-1.0482 0.64525-2.5719-0.30252-5.0265-1.8156-6.3461-4.0518-0.40201-0.80087-0.82249-1.624-0.91328-2.5293z"/>
   <path d="m448 418.8c-3.6815-3.5125-8.3266-5.702-13.411-6.0587-1.6746-0.60221 3.1344-1.3949 3.9264-1.3413 4.2549-0.38826 9.1102 3.153 9.4847 7.4zm-5.2-18.4c-4.8868 1.9841-8.1694 6.4476-10.1 11.2-4.2659 2.4113-2.2995-3.3985-0.20262-4.8963 2.585-3.1365 6.191-6.1014 10.303-6.5037zm-47.1 5.4c6.6758 0.41222 13.074 5.8986 14.4 12.4-2.627-5.3934-8.4979-10.118-14.812-9.3449-1.8293-0.42579-1.3893-2.9887 0.41172-3.0551zm9.6-9.9c3.8054-3.6712 9.1012-4.5435 14.2-4.5 3.5147-1.3181 6.6636-2.5884 1.4781 0.45313-6.1449-0.30508-10.927 5.4086-15.678 6.2469-0.68294-0.61508-0.4817-1.576 0-2.2zm-15.3-25.8c6.2992 2.5406 9.0297 10.678 6.7 16.7 0.71828-5.4496-1.7843-12.183-7.6-13.7-2.0213-0.5742-1.3049-3.554 0.9-3zm48.6 8.3c6.1836-5.733 9.8094-13.688 12.6-21.5 1.3568 1.0419-1.7403 3.6054-2.1443 5.3154-2.1174 3.2702-4.7829 6.5742-8.1557 8.4846 4.1151-3.9548 7.1819-9.0689 9.8-14.2 2.3747-2.0733 2.2155 2.1292 1.1884 3.3758-2.81 6.8501-6.6145 13.748-12.588 18.324l-0.7 0.2zm-50.6 59.2c1.3945-5.463 7.9246-14.562 12.819-12.727-1.9823 1.1317-5.1364 2.2169-7.0006 4.2298-2.6795 2.222-4.3516 5.8718-5.8184 8.497zm44.3-0.4c-0.37484-5.9723 2.625-11.783 7.7-14.9 1.9892 2.0778-2.5088 2.5969-3.3252 4.4336-2.9625 2.6995-3.663 6.7782-4.1748 10.566zm-62.8-40.3c3.2115-6.0263 10.256-9.7242 16.962-9.7875 0.30385 2.5826-4.8184 1.187-6.746 2.6118-3.9577 1.3494-7.8626 3.6389-10.017 7.2757zm108.8-21.6c2.7964 1.4207 4.8982 11.036 3.7865 10.377-0.15453-3.6385-2.1802-6.9384-4.8865-9.2773l1.1-1.1zm29.8-61.3c-2.9839 5.0399-4.6764 11.239-9.4 15 1.7017-5.445 3.8978-12.386 9.4-15zm-42.7-30.9c1.9122 2.0068 2.6273 4.8966 4.8 6.7-3.7206 1.5568-6.233-3.7692-4.8-6.7zm11.4 5.8c3.0602-0.69557 6.8672 5.558 1.6 3.4-0.94012-0.80127-1.7131-2.3032-1.6-3.4zm7.5 0.1c3.3086-0.67968 3.6332 3.7546 5.9 4.8-3.6655 3.0126-4.537-2.9096-5.9-4.8zm10.5 0c4.2288-1.1838 4.4665 6.3967 0.4375 1.825-0.34322-0.54408-0.43628-1.1985-0.4375-1.825zm-31.5 32.2c4.945 0.94576 12.687-1.4402 15.494-2.2081-4.9437 2.7-10.372 5.085-16.082 5.144-1.6563-0.47103-1.0725-3.1124 0.5875-2.9359z"/>
   <path d="m696.8 331.2c-3.1967-12.899 3.3482-10.464 0 0zm-4.2-12.2c-1.0336-7.1538 8.1987-9.197 0 0zm-2.6-9.8c-0.55936-5.7 8.632-5.6529 1.649-1.2037-0.51645 0.44465-1.105 0.79502-1.649 1.2037zm-14.4-25.1c6.4477 3.2823 28.822 0.29551 12.8 5.1-4.7252-0.35372-8.3026-3.9428-12.8-5.1zm-73.8 44.6c-4.0138 0.25283-8.5039-4.2482-7.9-7.8 2.7397 2.4968 4.9784 5.5043 7.9 7.8zm-21.7-9.1c-2.7896-1.212-5.2752-5.8856-3.2-8.2 1.1532 2.696 2.6051 5.3008 3.2 8.2zm-9.7-7.7c-2.4771-1.9043-2.1303-7.0184 0.3-8.3 0.4773 2.7898-0.13888 5.5322-0.3 8.3zm37.7 12.5c5.2501 3.062 8.3096 9.5934 1.0473 3.1907-0.63357-0.94054-1.0002-2.0576-1.0473-3.1907zm12.2-1.4c7.6261 1.1699 8.135 5.7889 1.3608 1.9544-0.60246-0.54536-1.3514-0.99497-1.3608-1.9544zm-57.9-19.6c-2.085-8.3311 5.989-10.626 0 0zm26 20.2c-2.5622-1.8659-2.2546-7.0056 0.2-8.3 0.5184 2.7935-0.21939 5.5204-0.2 8.3zm-69.4-112.2c-1.8713 2.7714-7.2061 3.1707-9 0.7 2.9858-0.35645 5.9954-0.56774 9-0.7zm-17.1 8.8c-2.3727 1.3741-6.2672 0.31876-6.8-2.3 2.3686 0.36086 4.7467 1.033 6.8 2.3zm-9.6 2.3c-8.1597 0.77802-8.0999-7.5182 0 0zm25.5-15.4c9.3766-4.0091 9.2568 3.5695 0 0zm5.5-6c3.5959-3.8497 9.3817-2.9026 1.9 0.5zm-38.6 23.4c-7.169 1.3312-7.7633-7.072 0 0zm24.9-8.4c-2.6447 4.1492-11.909-3.3881-2.3218-0.58435 0.78773 0.13508 1.5448 0.40282 2.3218 0.58435zm20.5-26.9c-3.1103 9.0196-11.458 6.4115 0 0zm-7.1-1.4c2.8895-5.332 7.4001-3.5534 2.2001-0.19039-0.69639 0.26807-1.468 0.33485-2.2001 0.19039zm-5.1-5.4c3.2968-3.4124 8.7782-2.0747 1.8 0.6zm-6.3-3.4c3.8264-2.9037 8.1935 0.61468 1.4 0.9-0.56833-0.0785-1.0926-0.41555-1.4-0.9zm31.7 43.2c-5.4979-14.152 8.5486-26.638 8.2-40.1 4.0194 14.009-9.8488 25.937-8.2 40.1zm24.4 108.4c-2.7179-3.236-9.5302-18.012-5.3-11.1-0.0483 3.5804 11.645 8.6679 5.3 11.1zm114.5 93.2c-3.378-4.0662-9.5139-5.3536-13.8-6.4 5.3521-2.8902 13.008 0.32913 13.8 6.4zm-5.1-18.4c-5.4436 1.989-8.1933 7.4521-11 11.912-4.4797-1.7204 1.8753-6.9028 4.2182-9.094 1.8316-1.3179 4.7827-3.3207 6.7818-2.8185zm-47.2 5.5c6.5916-0.50578 14.332 8.1358 13.915 11.691-2.5949-5.8191-9.0057-8.9409-14.971-8.9441-1.156-0.9421-0.33438-2.683 1.0555-2.7464zm9.9-9.8c4.8669-5.4194 13.369-3.2341 18.7-6.2-5.4403 4.0953-13.365 2.8128-17.9 8.475-1.1655 0.0495-1.7451-1.5828-0.8-2.275zm-15.5-26c6.3271 2.4332 9.1504 11.342 6.6 16.5 1.4612-6.4758-2.7456-12.156-8.4375-14.175-0.93438-1.3061 0.51451-2.6347 1.8375-2.325zm51 10c3.586-7.4183 2.987-17.348 3.1-24.3 1.1324 1.059-0.53294 6.4648-0.92383 8.9514-0.81452 2.3334-1.6193 6.049-3.3762 7.3486 4.6048-3.3943 8e-3 -18.1 5.4-17.2 1.3447 8.176 0.19054 18.107-4.2 25.2zm-51.7-170.4c-2.2039-5.0848-6.4702-10.549-9.3092-13.556 4.9638 3.3993 9.6094 7.9751 12.259 13.281-0.28624 1.5057-2.3803 1.6574-2.95 0.275zm-399.6 58.9c3.478 11.662-0.44869 23.775 0.3 35.7-5.4872-11.451 1.0682-23.748-0.3-35.7zm-14.4 31.4c2.2872 9.3636 10.444 16.813 10.3 26.938-4.0641 0.96483-2.1566-6.5751-4.0007-9.3261-1.3314-6.196-6.0051-11.204-6.2993-17.611z"/>
   <path d="m165 374c2.4414 1.7639 7.8455-3.1664 6.6 1.5-1.637 0.79903-7.1979-0.0671-6.6-1.5zm68.8-13.3c2.1564 1.9739-7.4622 2.2718-9.8389 4.0201-15.774 5.5333-31.184 12.525-46.661 18.48 17.506-8.2195 35.172-16.811 53.509-23.244 1.7124-0.8477 7.2305-2.1528 4.591 1.3439-0.52032 0.50813-1.4465 0.0652-1.6-0.6zm-53.7 19.4c0.22694-3.7446-8.7899-11.25-1.7191-8.4788 2.2608 1.9596 2.8505 6.3852 1.7191 8.4788zm9.6-3.8c0.0537-3.522-9.0809-11.248-1.9229-8.4046 2.3908 1.9567 2.6919 6.2609 1.9229 8.4046zm8.8-4.3c0.6895-3.64-9.6012-10.169-1.9-8.0125 2.0309 1.8549 3.0214 5.7348 1.9 8.0125zm9.3-3.5c-0.21246-3.2422-2.3006-5.7034-5.1875-6.7 0.59144-7.5959 8.1225 3.9983 5.1875 6.7zm-57.4 16.1c3.9452 0.17263 14.555 0.46561 4.4461 2.1528-2.3401 0.6322-7.765 2.0691-4.4461-2.1528zm4.6-12.7c4.2588 3.6578 4.0227 4.5598-1.3 2.1-2.4144-0.9363-0.70566-4.4991 1.3-2.1zm-30-10.3c0.44715 2.8954-3.7784 12.322-2.4375 3.8375-1.2402-2.1516-0.54805-8.5091 2.4375-3.8375zm31.9-17.1c-1.7993 2.432-12.069 8.7951-5.6125 2.9531 1.3723-1.6041 5.8373-9.9055 5.6125-2.9531zm22 66.8c2.7129-0.12189 6.3652-0.54693 8.4377 1.4466 0.94153 2.1844-2.6834 3.2923-3.5174 0.90655-0.64182-1.2463-5.0907-1.4849-4.9203-2.3531zm-1.3-23.6c-2.5819 2.5066 1.9766 11.413-2.7 9.2-0.22833-2.9875 1.0211-7.8883 2.7-9.2zm-48.2 16.1c-1.6805-2.3963-4.8112-2.9126-6.8628-4.6514-0.26399-5.1776 7.2106 1.4594 6.9628 4.3514l-0.1 0.2zm44.6 17.2c1.1603 6.5485-1.688 15.496-9.2312 16.422-11.739 0.0553 10.157 0.11834 7.6047-8.5844 1.6194-2.1208-1.7152-7.9615 1.6266-7.8375zm-49.6-6.6c-6.9917 1.8962-13.421 10.766-7.8453 17.42 2.4073 2.9348-1.6251-1.0544-1.7735-2.3406-3.207-6.8792 2.8724-14.21 9.2188-16.48 0.13333 0.46667 0.26667 0.93333 0.4 1.4zm-13.4-43.1c-5.2679-3.8489-14.624-4.6239-17.981 2.0912-1.7505 5.5593-1.4667 1.4872 0.88099-2.2912 4.3376-5.2065 12.604-4.2241 17.8-0.9-0.23333 0.36667-0.46667 0.73333-0.7 1.1zm29-26.8c-2.1778-6.5605-10.655-12.25-17.014-7.5394-1.3454 1.1534-2.927 2.5806-0.86379 0.36384 5.8131-5.609 15.462-1.253 18.531 5.3725 2.2369 1.785 0.18898 1.5036-0.65313 1.8031zm194.5-36.8c1.0879 2.8068-7.1982 6.7596-4.0042 6.2934 2.3932 0.76446 7.2253-1.8073 7.1914 2.3814 0.0516 4.1604-3.9143 6.9329-7.3872 8.3252-0.22556-4.6138 3.203 0.48919 4.0091 2.2583 0.70006 2.39 1.5684 6.0957-1.9091 6.0417-4.1846 0.12697-9.0483-4.4727-6.1 0.2-0.2286 3.0905-2.422 6.784-5.7125 7.25-2.9297-2.2863 1.6997-3.3582 2.3125-5.55-3.6746-7.3796 9.6349-6.9259 9.1-3.9 1.9349-3.2764-6.6924-7.7142-0.98267-9.3954 2.7186-0.24244 5.398-5.8408 4.5827-5.4046-2.5991 0.25663-6.7973 0.9376-8-1.9 1.6184-2.6325 5.4764-4.1134 6.9-6.6z"/>
   <path d="m251.5 310.7c-0.38941 3.1569-1.3044 6.2892-3.5 8.7-1.9375 2.5153-4.3818 4.5545-6.7 6.7-2.9966 1.474-2.8583-2.7164-0.44351-3.1924 3.1336-2.059 6.297-4.2754 8.5343-7.3292 1.0489-1.4536 1.4208-3.2464 2.1092-4.8783zm-26.1 31.5c-5.8257 3.6628-13.607 3.7703-19.605 0.47344-1.6216-3.4102 3.0732-2.6469 4.4666-1.015 4.6666 2.2266 10.307 2.3512 15.038 0.2416 0.24011 0.0548 0.22347 0.12672 0.1 0.3zm14.1 20.3c-2.7644 0.6564-5.6485 0.17828-8.3812-0.3625-2.0934-2.5106 2.1187-2.8165 3.3629-1.1613 1.47 0.83192 3.8725 1.0306 5.0184 1.5238zm39.5-30.9c-3.8466 3.4289-7.7197 7.2943-9.0298 12.44-0.94523 3.2946-3.3213 6.0161-6.3702 7.5604-0.80619 0.54453-5.7855 2.5487-3.7246 1.0633 3.3503-2.4604 6.8546-5.3511 7.9968-9.5306 1.3101-5.0173 5.3651-8.8323 10.028-10.833 0.31123-0.30377 0.67407-0.58152 1.1-0.7zm-26.1 7.4c-1.5591 4.3991-6.5861 6.0794-10.753 6.8703-4.4968 0.7356-9.4186 0.85044-13.284 3.5471-1.3368 1.3752-0.50344-0.30591 0.19396-0.97594 2.8372-3.247 7.3554-4.191 11.443-4.7415 4.3681-0.71679 9.3014-1.1149 12.4-4.7z"/>
   <path d="m622.3 442.6c1.3944-4.2062 3.6588-8.3044 7.2516-11.015 1.5678-1.2001 3.3173-2.1521 5.1484-2.8848 0.16667 0.46667 0.33333 0.93333 0.5 1.4-4.7615 1.3604-8.7566 4.8297-11.105 9.1487-0.61678 1.1086-1.145 2.2655-1.5949 3.4513-0.0667-0.0333-0.13333-0.0667-0.2-0.1z"/>
   <path d="m666.5 442.2c0.0931-1.5706 0.13577-3.1513 0.46161-4.6961 0.30639-1.9145 1.022-3.7704 2.1938-5.3269 1.3462-1.9306 3.0696-3.5968 5.0446-4.877 0.26667 0.43333 0.53333 0.86667 0.8 1.3-2.5537 1.3966-4.7932 3.4354-6.2916 5.9401-0.80131 1.4459-1.2724 3.0499-1.4955 4.6823-0.17098 1.0259-0.34195 2.0517-0.51293 3.0776-0.0667-0.0333-0.13333-0.0667-0.2-0.1z"/>
   <path d="m603.8 402.9c1.2711-2.6639 3.325-4.8996 5.6186-6.7212 2.5904-2.008 5.7033-3.2662 8.9246-3.8074 0.66922-0.1273 1.3342-0.28025 2.0062-0.3907 0.97541-0.0279 0.9885 1.56 0.01 1.5244-1.1921 0.15607-2.3933 0.25745-3.5634 0.54576-1.6076 0.28163-3.161 0.8132-4.6272 1.5288-2.3465 1.0834-4.4479 2.6824-6.2127 4.5627-0.87405 0.73125-1.3865 2.2093-2.1436 2.7951z"/>
   <path d="m712.6 380.4c0.67866 0.87962 1.3865 1.7422 1.9371 2.7109 0.57337 0.93491 1.0559 1.9295 1.4366 2.9578 0.28229 0.85617 0.49173 1.7408 0.62968 2.63 0.0322 0.96709 0.0645 1.9342 0.0967 2.9013-0.20176 0.0605-0.23516-0.0721-0.23374-0.24465-0.12209-0.88512-0.24417-1.7702-0.36626-2.6554-0.61187-2.593-2.1419-4.8887-4.0766-6.6891-0.16016-0.23123-0.74163-0.46602-0.33135-0.70303l0.90791-0.90791z"/>
   <path d="m744.7 100.3c-3.5088 2.1725-8.0665 3.4515-12.063 1.9064-4.919-2.0355-8.4249-6.3464-11.46-10.554-1.7825-2.4453-3.5002-5.0012-6.039-6.7427-4.4986-3.6224-10.073-6.103-15.922-6.0553-3.9442-0.17646-7.8993 0.7596-11.824 0.19082-0.94018-0.27807-2.9518-0.85966-2.8916-1.7452 2.4878 1.5487 5.4445 0.6473 8.138 0.33656 5.4871-1.0854 11.313-1.0916 16.567 1.0227 3.3974 1.2685 6.4984 3.2509 9.2954 5.5407 0.83666 0.48723 2.3224 2.1632 3.1794 3.3048 3.5497 4.6062 6.9462 9.9319 12.721 11.883 2.9745 0.86744 6.157-0.21774 8.7-1.7875 0.53333 0.9 1.0667 1.8 1.6 2.7z"/>
   <path d="m205.2 187.4c2.629 3.7526 11.473 2.3281 12.136 2.1394-4.1005 2.5344-9.3604 2.5175-13.636 0.46055 0.5-0.86667 1-1.7333 1.5-2.6zm-14.2 29.1c6.5531-4.8399 9.2407-13.633 16.7-17.3-0.9751 1.3448-3.3269 2.4913-4.3 4.3-3.0664 2.6009-7.3587 14.818-11.119 15.482-0.77585 0.13699-0.3832-1.5164-1.2212-2.4095zm0.5 26.6c-2.4489 4.8737-6.5004 8.9285-11.3 11.5-2.5066-3.2443 1.2499-3.5318 3.5039-4.9134 2.9608-1.7119 5.6138-3.9533 7.7961-6.5866zm46.1-87.3c-1.1015-1.1334-0.25577-8.816 0.5-5.3 0.77504 2.9588 3.3338 3.3378-0.5 5.3zm-13.2-6.4c1.0814-2.5326 3.7935-4.8846 2.6-0.67435 0.89188 1.694-1.7805 0.42252-2.6 0.67435zm43 11.4c4.3388-0.47538 6.7957-4.4914 10-6.9-2.5007 3.5948-4.618 8.5345-9.3 9.7-0.23333-0.93333-0.46667-1.8667-0.7-2.8zm53-46.5c2.0104 4.6184 5.7668 8.2883 10.2 10.6-2.0549 6.0914-6.9342-3.4684-8.6469-5.9016-0.62854-1.3907-1.7901-3.3471-1.5531-4.6984zm5.788 46.752c-3.5081 1.763-2.6317 1.4984-2.8066-1.1636-0.47993-4.2638-0.98417-8.5599-2.1814-12.689 2.6221 3.3138 4.0637 10.457 4.988 13.852zm-15.988-6.1522c1.4258 4.244 2.2428 9.0991 1.9084 13.756l-18.083 11.332c-5.3948-5.8722-7.2778-13.827-8.1257-19.488 3.4231 4.8984 4.3154 12.267 9.9422 16.94l14.154-8.7378c0.7553-4.2138 0.22564-9.7919 0.2041-13.802z"/>
   <path d="m298.9 160.4c3.7356 1.9108 6.1119 17.98 2.5055 14.319-1.6821-4.3227-4.2482-10.26-2.5055-14.319zm-11.3 16.6c-0.83079 3.7219-2.4292 6.6922-4.1416 10.125l-19.612 15.167c-3.7166-2.4096-5.542-5.9354-5.9531-10.283-0.66623-6.4234 1.2277-13.134 5.1931-18.238 0.39269-0.85459 3.1464-2.8527 1.604-0.79876-3.1741 4.6031-4.4252 10.345-4.3885 15.873 0.13696 4.2087 1.4357 8.3638 5.11 10.812l17.577-13.793c1.8356-2.8601 3.2422-5.9622 4.6112-9.0642v0.12398z"/>
   <path d="m272.5 175.9c-1.4417 3.8298-1.8643 7.9413-3.0591 11.847-0.53235 2.1199-1.2317 4.2098-2.2409 6.1532-1.3073-0.596-0.57946-3.0872-0.82812-4.3998 0.26601-3.9099 1.2696-7.8886 3.3714-11.227 0.72336-0.98656 1.6737-1.8048 2.7568-2.3736zm-18.3 14.2c-3.0604 7.4332-8.2243 14.246-15.203 18.379-3.847 2.2556-8.4635 3.3914-12.897 2.6214-3.2484-2.9742-4.4943-7.7831-3.2394-11.986 1.8034-6.0956 6.318-10.952 11.127-14.907 1.0008-0.44896 2.3222-2.5882 3.2123-1.8065-4.1917 4.236-8.031 8.9646-10.662 14.337-1.4254 3.3927-1.7833 7.6637 0.61427 10.719 0.64766 0.76137 1.2809 1.2953 0.0478 0.6432 6.1555 0.77267 12.075-2.2624 16.573-6.2336 4.0628-3.3608 7.2577-7.5922 10.427-11.766z"/>
   <path d="m241.7 187.7c-3.2173 5.2368-6.3299 10.701-10.8 15-0.95731-1.0713 0.607-3.1924 0.97-4.5187 1.8862-3.9053 4.524-7.7013 8.3473-9.9014 0.47578-0.23665 0.97289-0.43004 1.4827-0.57983zm-12.6 26.3c-0.85329 7.9939-4.0547 15.936-9.6677 21.776-3.1331 3.205-7.2528 5.476-11.732 6.0244-2.5928-1.5437-4.7616-3.8962-5.5404-6.8711-1.5287-5.3467 0.38045-10.985 2.6351-15.84 1.3258-2.6734 3.0145-5.1663 5.0053-7.3892 0.13552 2.0386-2.6364 4.8105-3.1089 7.3261-1.699 4.9024-3.2466 10.383-1.629 15.513 0.1765 1.7986 3.2724 4.0567 3.3417 4.3819-1.5573-0.23161 1.9469-0.41928 2.344-0.85553 6.6167-2.4336 10.978-8.4465 14.153-14.468 1.6218-3.0713 2.8548-6.324 3.9988-9.5977h0.13468z"/>
   <path d="m216.1 215.5c-2.0258 5.6251-3.9136 11.298-6 16.9-1.4078-0.80382-0.8634-3.7676-0.85733-5.4375 0.73259-4.4005 2.7857-9.2241 6.8573-11.463zm100.5-87.1c0.69963 10.455-1.3199 22.484-10.075 29.288-2.6671 2.5684-6.2019 3.0942-9.0964 0.549-8.7616-5.45-11.241-16.671-10.871-26.321-0.30757-2.0609 0.63157-5.793 0.87211-1.2669 1.0496 9.2419 3.0517 20.261 11.902 25.291 2.4411 0.6248 2.1669 1.817 2.4925 1.0084 8.4223-3.7716 11.839-13.45 13.621-21.875 0.58624-2.1145 0.53973-4.8612 1.155-6.6728z"/>
   <path d="m301.8 131.7c1.2614 4.2384 1.5778 8.6866 1.2434 13.079-0.0396 1.9461-0.49069 3.8628-1.0434 5.7208-1.3915-0.3098-0.99486-2.8937-1.4242-4.1043-0.6285-4.9069-0.22849-9.9391 1.1242-14.696zm6.5-36c1.732 6.9362 1.5985 14.522-1.1234 21.189-1.6146 3.7705-4.374 7.1467-8.0766 9.0107-5.0238-0.68831-9.4426-3.8557-12.158-8.0736-2.7568-4.304-3.9838-9.4176-4.7746-14.411 0.23368-1.1842-1.1698-3.7352 0.13252-4.2154 1.6452 6.0733 3.4113 12.338 7.2215 17.454 2.4209 3.1054 5.7953 5.6716 9.7785 6.246-2.2834 0.62307 1.1597-0.8692 1.5756-1.6038 5.1777-4.6162 6.6696-11.811 7.3058-18.419 0.20742-2.3858 0.26359-4.783 0.21856-7.1768z"/>
   <path d="m295.5 100.5c3.8891 4.5043 4.5471 11.305 2.6 16.8-1.7626-2.2931-1.6671-6.7974-2.1268-10.032-0.10225-2.262-0.51698-4.4981-0.47323-6.7675zm-103.8 177.3c0.72528 3.4314 3.5538 8.9873 1.6334 11.042-4.1936 0.45577-0.5025-5.5321-1.5188-8.1797-9e-3 -0.95504-0.0473-1.9098-0.11462-2.8625zm29.5-21c-0.89384 11.211-6.289 23.685-17.444 27.972-6.6624 2.7568-10.197-7.3812-10.291-12.497-0.18359-6.9968 1.1975-14.228 4.8352-20.275 0.17515 2.6855-1.8571 6.5255-1.8947 9.7632-0.7313 7.1353-1.2787 16.405 5.4947 20.837-0.45179-0.55478 7.1826-2.9014 8.927-5.9986 5.2917-5.4373 7.8572-12.934 10.373-19.801z"/>
   <path d="m206.1 257.4c-0.6191 2.5238-0.82497 5.1208-1.1983 7.6871-0.48931 3.6327-0.89459 7.3036-2.0017 10.813-0.31591 0.025-0.63667 0.051-0.63344-0.375-0.78122-2.4071-0.89752-4.9825-0.7441-7.4934 0.10016-2.0623 0.61118-4.0799 1.2617-6.0316 0.4828-1.3667 1.2384-2.6545 2.24-3.7067 0.32719-0.33308 0.68712-0.63443 1.0758-0.89334z"/>
   <path d="m315.7 91.2c-1.0045-0.28508-3.3119 0.6058-2.7328-1.1087-0.69028-3.3395 3.2593-1.3448 5.2755-1.9728 9.946-0.98376 19.533-4.6309 28.157-9.5967 6.8453-3.8745 11.966-10.039 16.052-16.647 4.0138-6.149 9.2425-12.89 17.059-13.847 1.3146-0.34818 6.1926 0.36883 2.6011-1.1896-6.5038-3.2503-14.35-2.0856-20.527 1.3639-5.3348 2.736-10.751 5.4776-16.708 6.5763-10.616 2.3004-20.996-2.4581-31.569-2.7677-4.2285-0.49606-9.0741 1.5205-12.555 2.0133-1.3205-1.9862-0.6939-3.1991 1.8102-3.4332 8.1878-2.8282 16.93-1.2852 25.149 0.51281 7.3292 1.5488 15.234 2.3508 22.301-0.7282 6.7912-2.4743 12.834-7.0719 20.114-8.1206 6.33-0.85196 13.495 0.67181 17.871 5.569-0.14107 4.3629-6.1929 2.6403-9.1141 3.4719-7.4995 1.7877-11.53 9.0041-15.54 14.91-6.7283 10.725-17.922 18.062-29.886 21.734-5.7157 1.9523-11.72 3.0549-17.756 3.2606z"/>
   <path d="m312.9 91.1c-6.3291-0.99987-11.835-4.8535-18.288-5.3645-2.0278-0.20554-2.0479-0.26838-0.26206-0.23555 3.5845-0.1709 7.1505 0.29572 10.617 1.2158 2.7012 0.66142 5.431 1.3164 8.2328 1.2842-0.1 1.0333-0.2 2.0667-0.3 3.1zm-27.6-27.2c3.8526-5.1606 8.8838-9.4336 14.6-12.4 0.36667 0.93333 0.73333 1.8667 1.1 2.8-5.8924 1.9058-11.318 5.2236-15.7 9.6zm8.5 9.6c3.9455-8.086 12.655-13.622 21.7-13.4 11.379-0.40675 22.958 1.3866 34.15-1.4625 2.3974-0.39741 6.8757-2.4405 7.6626-2.6453-5.646 4.3365-12.704 6.2907-19.715 6.8249-8.5233 0.81762-17.082-0.12374-25.615 0.19063-7.1856 0.51754-13.773 4.9876-18.182 10.492zm11.6 8.4c13.514-0.34795 26.867-3.3935 39.4-8.4-9.4508 7.7566-22.228 11.119-34.3 9.6125-1.7292-0.26368-3.4398-0.65972-5.1-1.2125z"/>
   <path d="m304.2 71.9c3.7656-4.4141 9.9058-6.4213 15.6-5.9-4.5926 3.1295-10.145 5.0362-15.6 5.9zm-81.2-15.3c4.722-0.29104 4.6364 8.6079-0.16011 8.3686-2.3648 0.57381-4.1-3.6532-1.6399-4.3686-0.86508 2.0177 2.4921 2.6803 2.4708 0.34053 0.40569-1.4076 0.19746-3.2035-0.67077-4.3405zm-4.5 1.1c-2.2209 3.2201 0.54854 10.004 1.0859 10.573-3.3816-2.5633-4.629-7.3045-4.0859-11.373 1 0.26667 2 0.53333 3 0.8zm-38.5 52.8c-1.3104-1.5474-2.3033-3.3621-2.9-5.3 1.2847 1.3015 2.8717 2.302 4.6 2.9-0.56667 0.8-1.1333 1.6-1.7 2.4zm-4.5 3.7c-1.6777-2.894-2.843-6.0752-3.7-9.3 0.19369 3.16 7.5827 6.1453 4.7632 8.4217-0.35439 0.29275-0.70878 0.58551-1.0632 0.87827zm40.7-37.1c3.9643 2.959-3.898 3.7809 0 0zm-3.4 2c3.5527 3.5277-3.8228 3.7435 0 0zm-3.5 2.5c0.81696 5.3565-5.1758 0.61045 0 0zm-3.7 2.8c2.4579 4.1006-4.4426 1.3995 0 0zm62.7-23.1c-8.0045-4.6922-17.289-6.3862-26.3-8 7.9344-2.3292 17.041-0.46581 23.57 4.5459 1.0974 0.9851 2.0249 2.1587 2.7297 3.4541z"/>
   <path d="M250.1 77c-14.2 1.6-14.6-13.2-14.4-14.5 1.6.2 13.2-3.6 17.2-1.8 2.4 1.7 6 15-2.8 16.3z" fill="#f6f6f6" stroke="#000" stroke-width="3"/>
   <path d="M242.4 62.6c1.5-.5 2.6.1 3 1.2.8 2.2-2.3 1.8-2 3.9.5 2.2 3.2 2.9 1 3.6 0 0-3.5.1-4.3-3.4-.3-1.6-.1-4.5 2.3-5.3z"/>
   <path d="m235.4 64c-1.3444-0.21154-2.7056-0.80357-3.3807-2.0584-1.0251-1.5359-0.85826-3.5377-0.41934-5.2416 0.29247 1.6172 0.75514 3.6866 2.5 4.3 0.77209 0.07088 1.575-0.35872 1.3 0.73116v2.2688zm25.6-0.8c-2.8269-2.0991-6.5257-1.9762-9.8531-1.6281-0.83946 0.207-1.4987 0.22181-1.2469-0.7786v-2.0933c3.0182 0.36481 6.1093 0.91439 8.8 2.4 0.81698 0.63957 1.671 1.2624 2.3 2.1zm-12.1 16.8c-2.9799-0.09193-5.8671-1.3656-8.1069-3.3069-0.34695-0.31637-0.71615-0.83968-8.5e-4 -0.88654 0.76924-0.3022 1.5385-0.6044 2.3077-0.9066-0.0553 0.18723 0.41688 0.80099 0.65336 1.1045 1.0061 1.2077 2.1225 2.3436 3.5158 3.1106 0.52696 0.32436 1.0717 0.6199 1.6308 0.88488z"/>
   <path d="M238.3 230.4a61.5 61.5 0 00-7.8 14.5c-1.9 5.2-3 10.7-2.8 16.4-.7-5.6-.1-11.3 1.4-16.8a64.3 64.3 0 016.8-15.7c.4-.7 1.3-1 2.1-.5.7.4 1 1.3.5 2.1-.1-.1-.2 0-.2 0z"/>
   <path d="M246.9 302.8a55.5 55.5 0 0025.5 2.3c.8-.1 1.6.4 1.7 1.3.1.8-.4 1.6-1.3 1.7h-.2c-8.9.3-17.8-1.7-25.7-5.3zm149-164.6c6.3-4 12.6-8.1 18.7-12.4A2060.3 2060.3 0 00451 99.5l17.8-13.6c5.9-4.6 11.6-9.4 17.3-14.2l17.2-14.5A525.5 525.5 0 00536 26.5l-3.6 4.3-3.7 4.2A298.8 298.8 0 01505 59.1l-17 14.8-8.6 7.3-8.8 7a674.2 674.2 0 01-55.2 38.7c-6.4 3.9-12.9 7.8-19.5 11.3zm10.7 24c10.6-5.8 21.3-11.5 31.8-17.5a355.3 355.3 0 0030.4-19.6l14.6-10.8c4.9-3.6 9.6-7.3 14.4-11a762 762 0 0028.1-23c-8.3 8.8-17.3 17-26.6 24.8-4.6 3.9-9.4 7.7-14.1 11.4l-14.5 11a253.7 253.7 0 01-31 19.2 396.6 396.6 0 01-33.1 15.5z"/>
   <path d="M258.2 279.8a64.8 64.8 0 0018.6 5.8 97 97 0 0019.4.8c.8 0 1.5.6 1.6 1.4 0 .8-.6 1.5-1.4 1.6h-.1c-6.6-.1-13.3-.8-19.8-2.3-6.4-1.6-12.7-4-18.3-7.3z"/>
   <path d="m456.6 161.2c-21.01 15.711-44.77 28.033-69.25 37.012 3.8923-8.5034 24.288-9.8198 33.57-16.673 12.38-5.8732 24.308-12.697 35.68-20.34zm-14.1 36.1c-12.821 7.223-26.427 14.152-40.738 17.375 6.1921-8.1178 27.762-8.2854 38.311-16.193zm-42.9 43.1c-13.904 5.6892-28.811 10.427-43.8 10.988 0.65904-5.4914 11.823-1.9183 16.622-4.2312 9.2362-1.4377 18.343-3.7017 27.178-6.7563zm-46 40.7c-14.705 3.5286-30.274 7.841-45.455 5.3714-1.8724-1.9354 1.4889-3.5807 3.1269-2.3472 14.176 2.1428 28.393-0.47837 42.328-3.0242zm104.3-87.4c-11.905-5.9984 4.0214-4.5403 0 0zm25.2-35.5c-1.2429-0.64978-3.3846-5.0696-0.4125-2.8625 3.051-0.9878 0.43266 1.8249 0.4125 2.8625zm-59.2 31.3c5.2983-9.3484 4.3458 4.0158 0 0zm6.8-29c2.1681-3.7202 4.0684-9.7366 3.1179-1.9792-0.1339 2.9713-0.16914 3.8461-3.1179 1.9792zm96.8-62.8c-6.7334 2.5245-12.888 2.239-2.7136-1.4576 0.99179-1.7367 1.7784 1.0496 2.7136 1.4576zm26.8-79c-2.496 3.1344-5.6508 5.7405-9.2 7.6 4.0791-1.1807 4.9292-12.519 9.2-7.6zm-17.6 35.8c-9.7583-0.7469 0.45129-5.6165 0.0931-0.55889zm-53.1 40.9c-1.1614-4.9514-1.5143-9.1025 1.7125-2.525 2.8113 1.6984-0.87127 1.7667-1.7125 2.525zm-48 34.4c-7.4485-8.306 2.8991-5.189 0 0zm-23.1 110.9c-12.967-3.7073 2.9157-5.1542 0 0zm-63.7 56.9c-2.3054-1.4093-4.1998-3.4791-5.4-5.9 1.8279 3.1626 8.7848 1.496 5.4 5.9zm-46.9-19.9c-9.3593-1.6726-17.764-9.0688-20.3-18.3 6.0728 6.8351 12.929 12.898 20.3 18.3zm42.2-29.7c-6.6648-2.0946-13.931-6.308-15.6-13.6 4.9609 4.81 11.307 8.0626 15.6 13.6zm39.9-38.1c-11.793-0.48713-23.598-0.62607-35.4-0.4 11.35-3.8185 24.222-4.2244 35.4 0.4zm-3.9-41.4c-9.4579 7.0357-20.875 11.546-32.6 12.8 10.333-5.4699 21.482-9.3005 32.6-12.8zm-3.3 27c-8.1925 0.95354-15.325 1.2025-3.3438-1.8875 1.6335-2.7889 7.5753 0.0417 3.3438 1.8875zm-22.1 31.9c-7.0481-4.128-13.136-6.7134-1.4328-3.4984 2.9929-1.2887 5.7262 4.8133 1.4328 3.4984zm-46.1 28.3c-2.2824-6.4787-5.7291-14.819 0.91326-3.9684 2.0748 1.3521 2.9615 7.0678-0.91326 3.9684zm65.9-102.3c-6.1627-1.3844-26.205 5.7564-22.038 3.5375 7.1695-3.1544 15.104-5.6534 22.862-6.2125 1.3261 0.52384 0.56414 3.2188-0.825 2.675zm-122.6 106.9c9.0084-1.8989 14.955-10.292 16.8-18.9 3.9689-5.9832 13.505-10.735 9.5635-19.273-0.81073-7.5482 8.4417-13.619 8.5994-19.586-0.14577 6.0551-3.7816 10.988-6.1629 16.259-0.0532 4.4286 2.8135 9.7172-0.6 13.7-4.6505 5.3092-9.9414 10.105-11.992 17.078-3.1514 5.7444-9.4807 10.588-16.208 10.722zm43.8-51.8c0.23951-4.2873 7.6436-19.436 5.6125-7.4-0.84245 3.0091-2.7448 5.9761-5.6125 7.4zm12.1-14.3c2.1174-3.4162 7.4162-19.01 6.857-8.3879-0.78357 3.565-2.9143 7.7455-6.857 8.3879zm28.4-11.7c4.5074 3.0228 5.1064 9.462 2.4 13.9 9.0931 8.9038-6.8281 24.321-7.6992 21.723-1.488 13.176-16.298 19.66-27.941 20.497-3.3667-0.54153-6.0829 5.9626-11.185 7.2442-3.0641 1.5414-8.664 2.0804-10.669 1.7215 7.7471-0.0778 14.49-4.9562 19.095-10.686 10.935-1.587 26.06-6.1986 28.002-19.063 4.0066-4.6964 15.243-10.017 9.2384-19.197-1.8326-4.8024 5.0871-9.4165 0.40837-14.24z"/>
  </g>
  <g fill="none" stroke="#000" stroke-width="3">
   <path d="M296.3 287.8c5.4-.1 15.4-3.3 15.4-3.3s3.4-10.1 2.3-14.9c-1-4.9-1.5-10.3-4.5-15.3 14.2 6.7 35.6 8.7 44.6 4.2 4.7-2.3 3.6-28.1.5-32.3 5.1-1.1 30.2 3.5 46.3-11.1-3-14.7-19.4-21.6-24.6-20.7 13.6-7.8 23.1-21.5 23.2-30.8 0-4.3-8.1-12.2-25.2-11.6"/>
   <path d="M536.7 53.4c-3.3 7.3-27.6 30-51.9 41.6a95.8 95.8 0 01-48.2 33.9 125 125 0 01-42.8 27.3m95.1-27.1c-19.6 22.3-47.2 32.8-56.5 31.4-6.2 11.2-15 16.2-26.8 21.3-6 2.6-12.5 4.1-19 5.1m77.1-13a94 94 0 01-29.6 14.2c-2.6.7-5.9.8-8.3 1.8-2.1.9-3.5 3.3-5.5 4.5-6.5 4-19.8 8.9-24 10.6m-13.9 53.9c-14.8 9-41.6 13-52.4 8.3-3.8 2.3-10.3 4-14.7 4.3"/>
   <path d="M421.9 218.4c-6 3.8-11.8 5.7-18.7 7-3.5.7-10.5 1.2-10.5 1.2s-4.6 4.4-7.6 6.3c-7.5 4.8-19.5 7.6-25.4 6.1"/>
  </g>
 </g>
</svg>
