<svg width="800" height="800" fill="#d7374a" viewBox="50 50 200 200" xmlns="http://www.w3.org/2000/svg">
<!-- source: wappenwiki.org, CC BY-NC-SA 3.0 -->
 <g id="hand" stroke="#000" stroke-width="3" transform="matrix(0.2,0,0,0.2,57.5,21.1)">
  <path d="M134.8 551.2c-7.8-8.5-29.1-41.4-29.1-96 0-26.8 1.2-37.4 2.2-64.8l.3-6.9c.7-14.3 1.2-24.7.8-32.7-2.7-4 1-31.6 2.3-39.7-1.9-5.9 2.7-27.1 2.7-27.1s3.4-20.4 14.6-20.5c11-.2 14.1 12.7 14.2 17.9l.2 28c.1 12.9.2 26.3.6 34.2 1 19.7 5.4 29.3 5.4 29.3l1.7-48.5c-2-7.7 1.8-41.3 3.1-52.9-1.6-4 1.8-28.9 1.7-32.5 0-3.6 2-22.9 16.2-23.1 10.2-.1 14.6 12 14.2 17.2.5 15.2 1.6 56.4 1.7 73.4.1 17.2 2.4 56.6 6.3 57.7 0-30.6 2.7-52.6 2.7-52.6s-.5-1.8-.5-4.9c.1-12.3 1-44.2 2.1-53.7-1.3-11.1 1.2-29.8 1-31.4-.2-1.6 1.8-21.9 14.6-21.9 15.2 0 16.7 18 16.7 18l2.1 58.4 3.6 48.5s-2.7 40.5 2.5 40.5c2.3 0 5.3-37.9 6.3-44-1.9-6.5 2-45.2 1.8-47.5-2-5.9-1-30.8-1-34.6 0-3.8 1.5-19.7 15.2-19.7 13.4 0 15.8 19.8 15.8 19.8s6.5 34.2 6.2 63c-.2 24.3-1.5 44.4-2.2 70.1-.5 19.5-1.6 45-2.2 58.9 1.7-1 3.8-5.3 4.4-11-1.3-3.3.9-29.7 2.1-34.1-3.3-16.4 13-45.7 13-45.7s4.6-8.6 15.8-7.7c11.2.9 11.2 11.6 11.2 11.6s-3.6 17.7-3.6 24.5c0 3.4 4.1 39.9 4.1 39.9l-4.8 34.7c-1.9 13.1-3.2 29.3-7.6 36.1-15.3 25.8-29.9 51.7-45.4 60.9-5.3 12.5 1 32.6 2 40.8 0 8.8-6.6 11.1-13.1 11.1-11.7.1-30.4-1.8-50-1.8-18.3-.1-37.4 1.8-52 2.3-9.9 0-21.7-2.5-21.7-15 .6-4.1 1.8-20 1.8-26.5z"/>
  <g fill="#000" stroke="none">
   <path d="m 265.5,273.4 c -5.7,2.9 -12.5,3.2 -18.7,2 0,-5.3 5.1,-0.6 8.2,-1.2 3.5,0.6 7.1,-0.3 10.5,-0.8 z m -1.9,48.7 c -6,2.3 -12.9,2.5 -19,0.6 1,-5.9 8,1.3 12.1,-0.2 2.3,0.3 4.6,-0.2 6.9,-0.4 z m -38.1,-7.9 c -5.3,4.4 -13.6,4.4 -19.4,0.8 6.5,-0.5 12.9,-0.2 19.4,-0.8 z m -0.9,-56 c -5.3,4.4 -13.6,4.4 -19.4,0.8 6.5,-0.5 12.9,-0.2 19.4,-0.8 z m -45.2,17.6 c -4.7,4.5 -12.9,4.7 -18.2,1.1 6,-0.6 12.2,-0.8 18.2,-1.1 z m -2.7,49.9 c -4.7,4.5 -12.9,4.7 -18.2,1.1 6,-0.6 12.2,-0.8 18.2,-1.1 z m -42.4,-15.5 c -4.4,4.2 -12.1,4.7 -17,1 5.7,-0.3 11.4,-0.8 17,-1 z m 2,40.6 c -4.5,4.7 -12.4,5.1 -17.8,1.7 5.9,-0.7 11.9,-0.7 17.8,-1.7 z m 95.3,49.9 c -14.2,2.9 -27.6,8.6 -41.2,13.4 -15.1,6.3 -31.3,11.6 -43.9,22.5 -0.2,-0.9 8.1,-8.8 12.2,-10.8 19.9,-11.8 42.1,-19.8 64.7,-24.4 2.7,-0.4 5.4,-1 8.2,-0.7 z m -5.8,57.5 c -15,14.9 -28,35.3 -25.2,57.2 0.8,7.9 3.9,15.3 7.7,22.2 -11.4,-13.3 -14,-32.8 -6.9,-48.8 C 206.4,476.5 215.5,466.4 225.8,458.2 Z"/>
   <path d="M202.4 590.8l-3-.2 2.7-20.1z"/>
   <path d="m 248.8,548.2 c 6.7,-1.4 13,-4.3 18.6,-8.2 2.2,2.1 1.2,3.3 -1.4,3.9 -5.4,2.4 -11.3,3.7 -17.2,4.3 z m -81.4,6.5 c -9,2 -18.6,3.2 -27.7,0.9 C 137.7,555 135.7,554.2 134,552.9 c 1.2,-2.2 2.4,-2.6 4.2,-0.7 8.9,4.4 19.6,3.6 29.2,2.5 z m 75.1,-103.1 c 6.3,-6.9 15.9,-10.7 25.3,-10.3 1.9,0.2 -3.2,1.3 -4.3,1.9 -7,2.6 -14.2,5 -21,8.3 z"/>
   <path d="m 224.1,367.1 c 7.3,-4 16.4,-2.7 24,-0.2 1.7,0.5 8,4.2 5,3.4 -8.5,-1.9 -17.2,-3.1 -25.9,-3.4 -1,0.1 -2.1,0.1 -3.1,0.2 z m 79.4,24.8 c -6.6,1 -14,0.1 -19,-4.6 1.6,-2.2 2.9,-1.9 4.4,0.2 4.1,3.2 9.5,4.4 14.6,4.4 z m -2,35.2 c -6.7,1.8 -15,0.5 -19.2,-5.6 2.7,-2.7 3.6,0.1 5.5,2 3.8,3.2 8.9,4 13.7,3.6 z M 178.6,368.9 c 6.6,-5.1 15.8,-5.3 23.7,-3.7 2.1,0.4 5.9,1.9 6.5,2.6 -9.5,-0.8 -19.1,-1 -28.5,0.7 -0.6,0.1 -1.1,0.3 -1.7,0.4 z m -45,17.2 c 4.8,-7.1 13.1,-11.3 21.1,-13.7 3,-0.8 6.3,-1.2 9.4,-0.3 -8.1,1.4 -15.2,5.9 -22.5,9.5 -2.6,1.5 -5.4,2.7 -7.7,4.6 z"/>
  </g>
  <path fill="none" d="M280.8 428.7s-3.6 6.7-4.8 13.9"/>
  <path stroke-width="2" d="m 322.1,369 c 0,-6.8 4.2,-27.2 4.2,-27.2 0,0 -6.4,-1.1 -6.4,6.3 0,7.4 2.2,24.3 2.2,20.9 z"/>
 </g>
</svg>
