<svg width="800" height="800" fill="#d7374a" viewBox="50 50 200 200" xmlns="http://www.w3.org/2000/svg">
<!-- source: wappenwiki.org, CC BY-NC-SA 3.0 -->
 <g id="hatchet" stroke="#000" stroke-width="3" transform="matrix(0.205,0,0,0.205,60,85)">
  <path d="m 265.6,257.8 c 0,12.2 46.3,12.2 46.3,0 L 310.1,-61.4 c 0,-12.2 -43.7,-12.3 -44,-0.6 z"/>
  <path d="m 313,-47.8 c 0.4,-14.8 -35.3,-14.9 -45.8,-6.9 -2.5,2 -2.7,5.4 -5.4,7 -2.7,1.6 -20.6,1.5 -26.3,1.5 -54.2,0 -116.5,-65.2 -128.6,-72.3 0,0 -31.2,50.6 -31.2,144.3 0,115.7 69.6,201.9 69.6,201.9 0,0 27.2,-12.8 33.4,-42.6 4.2,-20.3 2.4,-48.4 7.3,-68.8 9.2,-39.1 51.7,-42.6 51.7,-42.6 0,-1.7 -7.7,-19.1 -7.7,-33.7 0.2,-16.1 15.5,-18.3 23.1,-12.1 2.3,1.8 4.1,7 4.4,10.9 v 16.7 c 0,14.4 46.2,15.1 55.6,5.7 0.1,-1.9 -0.1,-107.4 -0.1,-109 z"/>
  <path fill="#000" stroke="none" opacity=".4" d="M 114.5,-79.5 C 100.5,16 96.9,87.5 149.4,193.5 99.7,122.3 91.8,-7.4 114.5,-79.5 Z m 149.9,39.4 c 1.4,27.2 2.6,56.3 0.1,84.6 -1.4,-25.8 -2.4,-57.4 -0.1,-84.6 z"/>
 </g>
</svg>