<svg xmlns="http://www.w3.org/2000/svg" fill="#d7374a" stroke="#000" viewBox="50 50 200 200">
  <metadata source="http://wappenwiki.org/images/e/ef/Bonde_Lolland.svg" license="https://creativecommons.org/licenses/by-nc-sa/3.0"/>
  <g id="helmet" stroke-width=".415">
    <path d="M100.07 117.38s15.08-.05 18.6 8.53c0 0 3.35 9.93 11.2 9.93 7.96 0 9.46-6.18 9.46-11.87 0-4.17-6.52-12.87-6.52-12.87s-6.32-4.97-12.62-3.82c-9 1.63-20.12 10.1-20.12 10.1z"/>
    <path d="M111.87 119.71c-3.43 5.78-4.58 12.96-7.1 14.57-4.26 3.22-7.95 1.43-7.95 1.43s-2.16 3.49-6.53 3.49c-4.95 0-5.65-4.86-5.65-4.86s-.11-3.78-.11-8.5c0-4.72 7.48-12.3 7.48-12.3l1.56-10.34s25.59 3.73 31.34 3.73c4.47 0 10.2 4.83 12.59 7.8 1.8 2.24 2.91 5.25 2.91 9.1 0 8.07-4.96 13.18-11 13.18-6.78 0-8.88-7.34-10.72-11.09-2.3-4.98-6.82-6.2-6.82-6.2z"/>
    <path fill="none" d="M111.87 119.71c2.5-4.2 6.22-7.67 12.57-7.67 9.58 0 13.77 4.82 13.77 11.97 0 5.55-3.22 10.87-8.8 10.87"/>
    <path d="M89.92 108.8s-6.26 9.14-7.01 15.55c-.46 3.78.8 6.9 1.5 7.35 0 .58-.17 6.38 4.2 6.38s7.64-4.83 7.64-4.83 3.8 1.26 7.02-.69c3.87-2.71 4.62-22.74 21.09-22.74 9.83 0 13.12 4.9 13.12 4.9s-3.64-4.23-7.29-6.43c-6.44-5.31-38.7-6.6-38.7-6.6z"/>
    <path d="M 88.8,127.33 C 87.07,125.73 87.76,111.8 81.15,100.45 72.16,84.97 59.54,82.35 59.54,80.23 63.6,80.12 76,71 88,71.390163 L 99.19,69.9 l 12.7,-0.57 0.92,37.65 c 0,0 -0.64,-0.32 -6.45,4.16 -7.21,5.57 -8.72,16.2 -17.56,16.2 z"/>
    <path d="M130.18 108.29s-4.23-7.4-4.23-17.1c-.45-12.44 2.8-20.9 2.8-20.9l-21.57-.74 2.68 39.03s2.5-2.16 11.14-2.16c6.12 0 9.18 1.87 9.18 1.87z"/>
    <path d="M59.54 80.23s15.76-7.36 21.99-7.36c-1.75 1.73-8.2 4.12-15.12 6.75 8.63 2.88 30.6.7 30.6.7s-.6-6.52.9-9.4c.36-.72 2.5-3.94 2.5-3.94s6.1 3.15 6.84 3.89c-1.27.48-7.48 1.2-7.6 1.67-1.04 1.84-.12 8.19 0 10.15-34.26 2.53-40.11-2.46-40.11-2.46z"/>
    <path d="M96.95 77.02s-21.27 1.9-29.9-.98c.69-.87 17.75-15.23 35.86-15.23 18.99 0 25.83 7.54 25.83 9.5-4.55.27-30.83.39-31 1.51-.89 2.25-.8 5.2-.8 5.2z"/>
    <path fill="#000" stroke="none" d="M129.4 135.1c-3.44-.33-5.58-3.2-6.9-6.08 1.4 2.86 3.6 5.43 6.97 5.67z"/>
  </g>
</svg>
