<svg width="800" height="800" fill="#d7374a" stroke="#000" viewBox="50 50 200 200" xmlns="http://www.w3.org/2000/svg">
<!-- source: wappenwiki.org, CC BY-NC-SA 3.0 -->
 <g id="lionPassant" stroke-width="3" transform="matrix(0.14,0,0,0.14,43.2,86)">
  <g>
    <path d="m 189.4,-18.4 c 4.2,-6.2 2.9,-20 -7.3,-23.6 -0.8,-0.3 -2.3,-0.8 -1.7,1.4 2.6,9.5 -3.1,10.7 -3.1,10.7 0,0 -2.4,2.3 -3.6,2.8 6.5,13.8 13.3,9.5 15.7,8.7 z"></path>
    <path d="m 155.7,-25 c -3.6,-7.6 -15.9,-13 -24.5,-5.4 -0.6,0.5 -1.8,1.6 0.3,2.2 9.7,2.5 7.9,8 7.9,8 0,0 0.9,3.3 0.7,4.6 17.9,0.2 15,-6.8 15.6,-9.4 z"></path>
    <path d="m 159.3,64.8 c 0,0 12.2,-10.5 1.2,-12.4 -0.9,0.8 -2.6,-0.2 -3.3,-0.2 -5.8,0.6 -7.5,-1.5 -8.2,-1.7 -0.8,-0.1 -0.8,0.3 -0.8,0.7 -1,3.9 1.2,8.3 4.6,11.6 M 140,5.7 c -7.1,-5.1 -20.4,-2.5 -23.6,8.5 -0.3,0.8 -0.6,2.5 1.5,1.8 9.5,-3.1 10.9,2.5 10.9,2.5 0,0 2.5,2.4 3.1,3.5 C 147,21.4 141,8.1 140,5.7 Z"></path>
    <path d="m 237.5,141 c -4.8,-1.3 -9.5,-2.6 -14.4,-3.9 -2.2,-0.6 -4.5,-1.2 -6.2,-2.6 -3.1,-2.6 -3.8,-7 -5,-10.9 -3.1,-10.5 -9.4,-17.3 -18.3,-23.3 C 181.9,93 170.4,94 170.4,94 c 0,0 -4.2,0.7 -3.8,-0.9 0.9,-4.1 2.2,-5.4 6.3,-6.6 4.8,-1.8 11,-1.4 10.9,-5.6 -0.3,-3.3 -5.8,-7.4 -11.6,-9.6 -10,-3.1 -16.3,-5 -20,-8.8 4.5,-0.3 7.1,-6.9 3.7,-10.4 4.1,0.5 8.8,-1.4 7.8,-8.5 -1.4,-6.5 -9.8,-12.9 -16.4,-12.6 -4.9,0.7 -9.8,-2.1 -11.8,-6.2 -3.9,1.5 -10.6,-4.1 -7.1,-7.1 9.4,-1.3 11.6,-8.2 7.6,-14.1 2.9,0.8 0.5,-4.2 7,0.8 2.6,2.2 2.9,5.7 3.9,6.5 4,3.4 5.9,1.7 8.3,-0.6 6.5,-7.3 -7.6,-7.5 -11.6,-19 -2,-1.7 -4.1,-0.6 -6.1,-5.1 -0.6,-1.4 -0.9,-4 0.2,-5.9 0.9,-1 0.8,-0.3 1.1,-0.9 4.5,5.3 16.1,1.5 16.2,-5.7 1.4,0.9 2.3,-0.1 4.2,1.5 3.2,2.6 3.9,6.7 1.6,10 -1.2,3.7 2.2,8.1 5.3,9.9 1.1,0.6 3.1,1.3 3.4,1 4.4,-4.4 -0.6,-11.6 1.3,-15.6 -1.7,-1.8 0.2,-10.8 4.6,-10.5 0.9,0 1.5,-0.2 2,-0.4 -0.7,7.1 10.1,14.6 12.4,10.5 0,0 0.4,0.6 0.7,1 0.9,1.1 2.1,1.4 1.8,4.5 -0.6,3.8 -3,5.8 -5,6.5 -1.6,0.7 -1.4,5.4 -2.1,7 -2.2,4.8 -3.5,5.8 -3.2,9.9 0.6,5.4 6.8,22.3 25.9,38.8 6.1,5.3 35.5,27.5 45,33.4"></path>
  </g>
  <g stroke="none" fill="#000">
    <path d="m 225,109.9 c -1.8,-2 -3.6,-3.8 -5.3,-5.9 -1.7,-2 -3.4,-4 -4.9,-6 -1.6,-2 -3.1,-4.2 -4.6,-6.4 -1.4,-2.2 -2.7,-4.5 -3.6,-7 l 0.3,-0.1 c 1,2.4 2.5,4.5 4,6.5 1.5,2 3.2,4 4.9,6 1.7,1.9 3.5,3.7 5.4,5.6 1.8,1.8 3.7,3.7 5.6,5.4 z"></path>
    <path d="m 172.6,17.7 c 0.8,1.4 1.5,2.6 2.4,3.9 0.8,1.3 1.6,2.5 2.5,3.7 0.9,1.2 1.7,2.4 2.6,3.6 0.9,1.2 1.8,2.3 2.8,3.6 l -0.3,0.3 c -1.6,-0.4 -3,-1.4 -4.2,-2.4 -1.2,-1 -2.3,-2.3 -3.1,-3.6 -0.9,-1.4 -1.6,-2.7 -2.1,-4.2 -0.5,-1.5 -0.9,-3.2 -0.6,-4.9 z"></path>
    <path d="m 179.4,83.3 c 1.9,-0.5 3.6,-0.5 5.3,-0.7 1.6,-0.2 3.2,-0.6 4.8,-1.4 l 0.2,0.3 c -1.3,1.2 -2.9,2 -4.6,2.6 -1.6,0.6 -3.3,1 -4.7,1.8 z"></path>
    <path d="m 165,39.8 c -1.1,-1.1 -2.2,-2.2 -3.4,-3.1 -1.2,-0.9 -2.6,-1.8 -3.9,-2.5 -1.4,-0.7 -2.8,-1.3 -4.2,-1.6 -1.4,-0.3 -2.9,-0.5 -4.2,-0.3 L 149,29.7 c 1.9,-0.1 3.5,0.4 5.1,1 1.5,0.6 3,1.4 4.3,2.3 1.4,0.9 2.6,2 3.7,3.1 1.1,1.1 2.1,2.4 3.1,3.6 z"></path>
    <path d="m 159.8,-14.6 c -0.3,1.4 -1.3,2.5 -2.3,3.4 -1,0.9 -2.2,1.6 -3.5,2.1 -1.3,0.5 -2.7,0.8 -4.1,0.7 -1.4,-0.1 -2.8,-0.5 -3.9,-1.4 l 0.2,-0.4 c 1.4,-0.1 2.5,-0.2 3.7,-0.4 1.1,-0.3 2.2,-0.5 3.3,-0.9 1.1,-0.4 2.2,-0.8 3.3,-1.4 1,-0.5 2,-1.1 3.3,-1.7 z"></path>
    <path d="m 173.9,-17.3 c 0.9,1.1 1.8,2 2.7,2.9 0.9,0.9 1.8,1.5 2.9,2.2 1.1,0.7 2.1,1.4 3.2,2 1.1,0.6 2,1.1 3.4,0.9 l 0.2,0.3 c -0.5,0.6 -1.4,0.9 -2.1,0.9 -0.8,0.1 -1.5,0 -2.3,-0.3 -1.4,-0.4 -2.7,-1.1 -3.8,-1.8 -1.2,-0.8 -2.3,-1.9 -3.1,-3.1 -0.8,-1.2 -1.3,-2.5 -1.1,-4 z"></path>
    <path d="m 137.2,23 c 0.6,-0.3 1.1,-0.6 1.5,-0.9 0.4,-0.3 0.8,-0.8 1.3,-1.2 0.9,-0.9 1.6,-1.8 2.3,-2.6 0.7,-0.9 1.3,-1.9 1.9,-2.9 0.6,-1 1.1,-2 1.4,-3.2 l 0.4,-0.1 c 0.3,0.6 0.5,1.4 0.5,2 0,0.6 -0.1,1.4 -0.3,2.1 -0.3,1.4 -0.9,2.6 -1.9,3.7 -0.9,1.1 -2,2 -3.1,2.6 -0.6,0.3 -1.3,0.6 -2,0.8 -0.7,0.2 -1.4,0.2 -2.1,-0.1 z"></path>
    <path d="m 158.1,57.4 c -0.8,-0.1 -1.7,-0.2 -2.5,-0.4 -0.9,-0.2 -1.6,-0.5 -2.4,-0.8 -0.8,-0.3 -1.5,-0.8 -2.1,-1.4 -0.3,-0.3 -0.7,-0.5 -0.9,-0.9 -0.3,-0.3 -0.6,-0.6 -0.9,-0.8 l 0.1,-0.2 c 0.4,0.2 0.7,0.4 1.1,0.7 0.3,0.3 0.7,0.4 1,0.7 0.7,0.4 1.4,0.7 2.2,0.9 0.8,0.3 1.5,0.4 2.3,0.4 0.8,0.1 1.5,0.1 2.3,0 z"></path>
    <path d="m 120.1,13.2 c 0.5,-0.3 1,-0.5 1.6,-0.7 0.6,-0.2 1.1,-0.4 1.7,-0.4 1.1,-0.3 2.4,-0.3 3.5,-0.1 1.2,0.2 2.4,0.6 3.4,1.1 1.1,0.6 2,1.3 2.9,2.3 l -1.4,1 c -0.5,-0.8 -1.4,-1.5 -2.2,-2.1 -0.9,-0.6 -1.9,-1.1 -2.9,-1.4 -1,-0.3 -2.1,-0.4 -3.2,-0.3 -0.6,0 -1.1,0.2 -1.6,0.3 -0.5,0.2 -1.1,0.3 -1.6,0.5 z"></path>
    <path d="m 134.4,-28.6 c 0.7,0.1 1.4,0.2 2,0.3 0.7,0.2 1.4,0.3 2,0.6 1.3,0.5 2.5,1.3 3.5,2.2 1,0.9 2,2.1 2.6,3.3 0.7,1.3 1.1,2.6 1.4,4.1 L 144,-18 c -0.1,-1.2 -0.3,-2.5 -0.9,-3.7 -0.5,-1.2 -1.2,-2.3 -2,-3.2 -0.8,-0.9 -1.9,-1.8 -3.1,-2.4 -0.6,-0.3 -1.2,-0.5 -1.8,-0.8 -0.5,-0.1 -1.2,-0.2 -1.8,-0.5 z"></path>
    <path d="m 182.8,-39.5 c 0.5,1.1 1,2.2 1.2,3.4 0.2,1.2 0.1,2.5 -0.2,3.7 -0.3,1.2 -0.8,2.4 -1.4,3.5 -0.6,1.1 -1.3,2.1 -2.2,3.1 l -1.2,-1.3 c 0.8,-0.7 1.6,-1.6 2.2,-2.5 0.7,-0.9 1.2,-2 1.6,-3 0.4,-1.1 0.6,-2.2 0.6,-3.4 0,-1.2 -0.3,-2.4 -0.6,-3.5 z"></path>
    <path d="m 183.6,7 c -0.5,2.9 -0.5,6 0,8.9 0.5,2.9 1.4,5.9 2.6,8.8 l -0.3,0.1 c -1.5,-2.7 -2.9,-5.5 -3.7,-8.6 -0.9,-3.1 -1.3,-6.3 -1.2,-9.5 z"></path>
  </g>
  <g>
    <path d="m 394.3,194.5 c 0.2,0.6 0.7,1.7 0.9,2.3 2.6,1 11.1,-17.8 1.6,-19.5 -3.2,0.4 -2.7,0.4 -3.8,0.8 -12.1,4.3 -14.1,11.3 -14.5,16.2 -0.1,1.7 0.1,2.7 1.1,2 5.7,-5.7 13.3,-5.3 14.7,-1.8 z m 12.3,17.4 c -5.5,4.2 -10.9,14.3 -3.2,22.2 0.5,0.6 1.7,1.9 2,-0.2 1.1,-5.4 3,-6.3 4.1,-6.9 2.8,-1.2 3.9,-0.3 3.9,-0.3 0,0 1.7,-4.5 0.8,-7.7 -1,-4.6 -5.3,-7.5 -7.6,-7.1 z m 18.7,-62.1 c -1.6,-0.5 -2.5,-2.7 -6.8,-4.1 -5.3,-1.3 -8.9,-0.5 -13.3,2.3 -2,1.3 -1.7,2 -0.7,2.2 3,0 7.3,1.4 8.5,4.1 0.8,1.9 0,3.3 -0.4,4.6 7.3,6.1 18.1,-4.8 12.7,-9.1 z m 26,64.6 c -4.4,6.9 -8.7,6.5 -8,8 0.8,2 6.8,3.2 12.6,2.6 5.2,-5.9 3.4,-17.7 -4.6,-10.6 z"></path>
    <path d="m 192.4,226.3 c 0,0 -0.9,-16 -9.2,-8.4 0.1,1.2 -1.7,1.9 -2.1,2.6 -3.1,5 -5.8,5 -6.3,5.5 -0.5,0.5 -0.3,0.8 0,1.1 2.5,3.2 7.4,4.1 12.1,3.4 m -53.2,-24.8 c -8.3,2.6 -14.3,14.7 -7.5,24 0.5,0.7 1.6,2 2.3,-0.2 3.3,-9.4 8.6,-7.2 8.6,-7.2 0,0 3.4,-0.6 4.6,-0.3 8.7,-12.3 -5.6,-15.5 -8,-16.3 z"></path>
    <path d="m 118.7,174.7 c -8.2,-1.8 -20,4.8 -19.1,16.2 0.1,0.9 0.3,2.4 2,1.1 7.9,-6.2 11.2,-1.4 11.2,-1.4 0,0 3.1,1.4 4.1,2.2 10.9,-14.1 3.5,-16 1.8,-18.1 z"></path>
    <path d="m 144.5,152 c -2.4,-7.1 -14.1,-14.4 -23.2,-8.5 -0.7,0.4 -2,1.4 0,2.2 9.2,3.7 6.7,8.9 6.7,8.9 0,0 0.3,3.3 0.1,4.5 14.8,3.2 15.4,-4.8 16.4,-7.1 z"></path>
    <path d="m 618.1,211.6 c -5.4,6 -6.5,15.8 -0.8,23.5 0.9,0.9 1.4,0.5 1.6,-0.3 1.9,-8.7 8.9,-10.5 12,-10.2 1.5,-5.9 -3.8,-17.1 -12.8,-13 z M 698,174.9 c -5.8,-5.6 -16.2,-0.1 -9.3,8.4 4.2,-0.2 4.3,4.5 5.2,6.8 0.3,0.8 0.8,1.7 1.7,1 5,-3.6 5.7,-11.1 2.4,-16.2 z m -85.2,3.4 c -15.3,4.6 -12.2,22.9 -10.8,22.5 2.1,0.5 5.5,-9.9 11.5,-5.7 9.8,-2.5 4.7,-18.1 -0.7,-16.8 z m 38.7,37.7 c 0.1,0.5 -1.8,2.3 -2,7 -0.3,5.9 3.7,10.9 5,11.6 0.9,0.5 2,1.5 1.8,-0.9 -0.3,-3.9 0.4,-9.4 7.4,-10.4 1,-8.9 -10.2,-11.2 -12.2,-7.3 z"></path>
    <path d="m 510.2,95.6 -32,-1.8 c -3.7,3.7 -20.7,27.1 -17.4,45.5 0,0.2 -0.1,0.3 -0.3,0.3 -0.4,-0.4 -4.8,-5 -12.1,-0.9 -1.6,0.9 -2.1,0.9 -3.1,3.1 -0.4,0.8 0.4,0.9 0.9,0.8 3.5,-1.2 5.9,-0.2 7.2,0.3 1.2,0.4 1.4,1.6 2.3,2.7 0.8,1.1 0.2,1.2 -0.1,1.1 -2.3,-0.3 -5.9,0.9 -7.9,2.4 -3.6,2.5 -4.8,5.7 -4.4,9.3 0.3,2.1 1.2,4.3 3.4,6.4 1,0.9 2,1 3.1,0.9 1.7,-0.3 2.5,-0.6 2.6,-1.9 0.1,-0.5 0.1,-1 -0.7,-0.8 -2,0.7 -2.5,-0.7 -3.1,-1.8 -0.5,-0.9 -0.3,-4.2 2,-5.8 0.9,-0.7 2.2,-1.4 4.2,-1.8 2.6,-0.3 5.8,-1.1 9.1,2.4 13.3,20.6 43,21.6 42.1,23.7 -1.5,5.6 -19.4,5.1 -30.6,4.8 -5,-0.3 -30.7,-0.7 -34.8,-9.4 -4.6,-9.4 0.3,-9.9 -8.2,-19.2 -0.6,-6.3 -5.6,-7.3 -7.3,-6.3 2,4.8 -6.5,10.6 -12.4,8.1 -1.2,1.3 -0.6,3 -0.3,4 2,5.9 5.5,3.4 6.6,6.2 2,5.1 5.4,5.9 3.3,11.6 -0.3,0.5 -0.8,0.3 -1,0.3 -4.9,-1.8 -7.5,-0.6 -10.5,-0.5 -1.9,0 -6,-0.9 -6.7,-2 -1.6,-2.9 -6.4,-2.5 -7.6,-2.1 -3.1,0.9 -4.8,2.6 -3.3,3.5 4.9,2.7 5.1,12.1 0.4,15.3 -1.3,5.2 4.6,6.2 8.3,2.5 6.1,-2 5.9,0.9 9.9,0.9 9.5,0.2 12.1,-3.2 15,0.8 -7,7.3 -7.4,3.6 -14.9,8.7 -7,0.3 -9,4.1 -7,6.2 4.9,-1.7 11.6,6.5 7.4,13.5 7,1.9 8.7,-6.3 10.3,-5.9 4.2,0.3 5.4,-0.9 10.8,-5.3 4.5,-4 10.8,-9.2 14.2,-8.8 2.4,0.3 7,3.6 3,8.6 5,0.8 6.6,5.4 4.6,10.1 6.5,0 15.7,-2.2 33.7,-10.2 2.9,-1.1 5,-0.7 5.5,1.2 0.5,2.5 -2.5,7.1 -3,8.4 -2.5,5.2 -1.8,8.8 -1.7,9 0.1,0.3 0.6,1.9 2.5,-0.1 4.5,-4.2 11.1,-10.8 19.6,-14.3 8.9,-3.7 26.4,-5.2 38.3,0 9.1,4.2 15.3,2.4 15.3,2.4 0,0 3.8,0.2 8,-4.8 1.2,-2 2.6,-3.8 2.7,-7.1 0.3,-11 -17.1,-19.6 -24,-28.7 -14.9,-15.6 -4.7,-40.7 -2.8,-42 z"></path>
    <path d="m 276.5,54.6 13.1,-8.2 1.8,-21.4 -15.5,-18.6 -9,5.3 c 5.5,6 6,14.7 6,20 0,5.2 -2.1,13.3 -5.4,15.5 z"></path>
    <path d="m 278.4,31.7 c 0,0 -12.5,-10.5 -24.1,-10.5 -12.2,0 -19.7,6.5 -26.4,6.5 -14.8,0 -12.4,-14.1 -13.8,-14.1 -0.9,0.3 -2.1,4.1 -2.1,6.5 0,8.5 5.4,16.2 15.9,16.2 10.7,0 16.1,-6.6 26.3,-6.6 13.7,0 22.9,9.4 22.9,9.4"></path>
    <path fill="#ffffff" d="m 230.6,9.1 c -1.5,10.4 4.4,16.5 5.5,15.9 1.3,-0.6 -2.6,-7.8 3.2,-13.4"></path>
    <path fill="#ffffff" d="m 233.3,42.3 c -0.2,-5.9 3.7,-9.3 4.4,-8.9 0.9,0.5 -2.1,5.9 2.3,10.5"></path>
    <path d="M 473.6,96.1 455.4,111 c 0,0 -8.7,5.8 -11.4,11.1 -1.1,2.3 -0.8,3.7 0.1,4.7 1.9,2.3 3.6,0.6 5,-0.3 6.9,-3.9 14,-6 18.4,-7.5 4.2,-1.4 12.6,-3.9 12.6,-3.9 z"></path>
    <path d="m 551.4,-45.8 -26,1.6 v 8.4 c 0,0 9.5,-1.7 14.4,-1.7 7.8,0 11.5,3.7 17.9,3.7 5.4,0 8.2,-2.3 8.2,-2.3 z"></path>
    <path d="m 575,-45.8 c 0,0 8.1,-2 13.3,-9 2.3,-2.7 2.7,-5.4 -1.9,-2.5 -9.9,6.1 -25.1,6.2 -25.1,6.2"></path>
    <path d="m 547.3,-55.9 c 0,0 1.7,-0.9 4.7,-2 3,-1.1 1.1,-2.7 -1.9,-2.1 -3,0.5 -8.7,0.7 -13.8,2.7"></path>
    <path d="m 697.5,174.7 c -1.8,-2.9 -2.5,-5.9 -7.6,-11 -2.5,-2.5 -9.6,-7.7 -11.6,-9.9 -4.9,-4.9 -7.8,-13.3 -7.8,-17.7 0,-2.6 1.3,-8.1 1.4,-10.4 0,-9.4 -4.5,-13.5 -8.2,-13.5 -14.6,0 -7.6,9.6 -33.9,9.6 -30.1,0 -42.7,-34.8 -67.1,-49.6 1.7,0 32.6,9.9 57.2,10.8 41.4,4.2 72,-17.4 72,-43.3 0,-19 -10,-43.6 -57.8,-43.6 -15.7,0 -21.7,-8.8 -24.3,-11 -3.1,-1.5 -2.7,-0.5 -3.1,0.5 -0.5,5.4 3.1,11.5 -2,11.5 -9.7,0.1 -22,-9.7 -24.4,-12.2 -3.3,-1.7 -3.1,-0.5 -3.5,0.6 -1.7,5.2 3.8,13.2 -0.1,13.3 -10.4,-0.1 -19.9,-8.2 -23.9,-11.8 -3.5,-1.8 -3.2,-0.7 -3.7,0.4 -2.9,8.9 3.2,13.5 -1,13.6 -8.8,0.1 -15.9,-8.6 -23.1,-12.3 -3.3,-1.7 -3.1,-0.5 -3.5,0.6 -2,8.3 3.6,14.1 -0.7,14.2 -7.9,0.1 -18.4,-8.5 -23.3,-12.3 -3.3,-1.7 -3.1,-0.5 -3.5,0.6 -2.5,8.3 2.7,13.7 -1.4,13.8 -8.3,0.1 -19.8,-11.6 -23.8,-14.1 -3.3,-1.7 -3.1,-0.5 -3.5,0.6 -1.7,5.2 2.9,15 -1,15.1 -8.5,0.1 -17.3,-11.5 -24.2,-14.3 -3.3,-1.7 -3.1,-0.5 -3.5,0.6 -1.7,5.2 3.4,15.2 -0.5,15.3 -8.8,0.1 -12.2,-10.2 -20.2,-15.2 -3.1,-1.5 -2.7,-0.5 -3.1,0.5 -0.3,4.2 -1.6,8.8 -5.1,11.3 -5.9,4.4 -15,0.5 -20.3,-3.1 -4.8,-3.1 -9.8,-8.1 -9.8,-14.2 0,-16.1 24.7,-31 52.2,-31.2 29.3,0 35.7,10.2 53.6,16.7 25.6,10.6 45,-20.8 68.6,-13.9 3.3,0.8 7.7,3.1 12.8,3.8 16.6,1.8 27.2,-4.8 26.8,-9.9 3.5,-4.2 2.2,-4.2 -3.1,-1.4 -3.7,1.6 -7.8,2.9 -13.6,1.9 -3.7,-0.5 -7.6,-2.5 -12.2,-4.6 -4.8,-2.2 -10.5,-4.5 -17.6,-5.5 -17,-2.5 -21.4,-2.2 -30.9,-0.3 -16.2,2.4 -25.9,5.9 -44.3,3.3 -7,-0.9 -17.9,-4.5 -40.1,-4.5 -35.4,0.2 -68.4,19.7 -68.4,45.9 0,21.4 22,40.5 58.7,40.5 71.7,0 161.3,-18.1 214.5,-18.1 24,0 39.5,10.9 39.5,28.2 0,16.3 -27,30.1 -51.9,28.3 -22.5,-1.4 -51,-9.5 -58.5,-11.1 -7.4,-1.5 -28.3,-6 -60.8,-6 -15.5,0 -37.7,3.7 -53.9,6 -23.3,3.3 -42.4,12 -65,10.8 -5.9,0 -19.4,-2.5 -19.4,-2.5 0,0 -16.4,-2.5 -25.8,-13.9 -7.1,-9 -5.4,-17.6 -5.4,-17.6 0,0 4.5,2.5 9.9,2 3.4,-0.3 6.5,-1.1 9.1,-4.1 0.6,-0.7 1,-2 0.1,-2 -8.3,0.7 -12.3,-3.1 -15.3,-8.2 -2.2,-4 -3.1,-8.4 -3.1,-9.8 0,-1.4 0,-2.6 0.7,-4.1 10.5,-0.8 12.8,-9 12.2,-9.4 -1.7,-1.4 -3.7,1.9 -9.1,1.9 -7,0 -6.9,-7.7 -8.1,-12.2 -1.1,-2.9 -2.9,-6.7 -4.7,-7.9 -2.6,-1.7 -18.3,-10.9 -18.3,-10.9 0,0 -7,-3.1 -12.7,-3.7 -5.7,-0.4 -12.3,-2.6 -17.1,-2.6 -4.8,0 -10.4,0.8 -11.9,1.9 -3.3,2.2 -4.5,3.9 -7.6,4.5 -3.7,0.5 -8.2,0.7 -13.5,2.3 -3.2,0.9 -6.5,2.6 -10.3,3.6 -3.3,0.8 -12.7,1.6 -13.3,3 -0.3,0.8 -1.1,7.6 2.4,10.4 0,0.3 -1.3,2 -1.3,7.6 0,5.6 3,8.1 5.5,10.9 2.6,3 8.2,6.5 14,6.5 5.7,0 10.9,-3.7 16.7,-3.7 3,0 8.2,-0.1 13.8,5.3 5.5,5.4 5.7,12.5 5.7,17.1 0,4.6 -2,12.4 -5.2,14.3 -3.6,1.5 -13.9,2.5 -22.2,0.7 -8.2,-1.7 -11.2,-3.8 -14.6,-4.7 -3.4,-0.9 -5.8,-1.4 -5.8,-0.3 0,2.6 0.8,2.2 1.3,3.4 0,6.9 -6.6,8.3 -6.2,9 0.6,1.1 3.2,1.6 6.2,0.5 3,-1.1 4.3,-2.6 4.3,-2.6 0,0 -0.2,2.5 2.1,5.4 0.9,0 1.8,-4.3 5.2,-5.9 2.3,-0.5 4.7,1.2 12.8,1.2 0,1.4 -1.6,11 -10.1,15 -8.5,4.1 -12.1,8.3 -18,15.6 -1.6,2.3 -9.6,7.6 -11.6,14.5 -1.7,5.8 -0.4,9.3 -0.4,9.3 0,0 -3,3.8 -2.8,7.1 0.2,2.6 0.9,5.2 0.9,5.2 0,0 0.9,3.4 1,8.4 0,2.3 -2.5,5.4 -1.3,8.2 1.2,2.8 0.3,9.9 -1.4,13.4 -1.5,5.3 -11.5,7.8 -9,9.1 6.1,3 8.9,1.4 11.6,0.2 0,7.7 -4.1,7.4 -3.6,16.7 -24.8,5.2 -43.8,1.8 -48.4,-1 -3.5,-2.2 -3.4,-3.8 -5.9,-8.5 -0.8,-1.4 -4.8,-4.2 -4.3,-5.9 0.6,-2 0.6,-5.2 -2.1,-8 -2.4,-2.2 -3.3,-1.3 -4.7,-1.3 -0.5,0 -1.3,-0.1 -1.3,-0.1 1.9,4.4 -10.6,8.4 -15.9,3.6 -0.1,0.6 -0.3,1.2 -0.9,1.9 -2.8,3.4 3.1,10.3 5.6,10 2,3.8 10.8,4.2 11.6,10.5 0,0.3 -1.8,1.6 -2.9,2.1 -3.3,1.4 -8.8,1.4 -11.1,-1.8 -1.3,-3.8 -5,-5.8 -9,-4.8 -2.5,0.6 -2.1,1.9 -3.7,2.5 5.7,4.4 1.7,15.9 -5.3,16.3 0.2,0.5 -0.2,0 0,1.4 0.8,2 3.1,3.3 4.6,3.7 4.8,1.1 5.2,-1.2 7.7,-1.8 11.6,3.7 20.1,-7.3 22.1,2.2 0.3,3.3 0.5,5.8 -4.6,7 -1.3,0.3 -4.2,-1.6 -7.6,-0.8 -8,2 -2.5,3.3 -4.9,5 7.1,0.4 11.4,6.4 6.6,14.6 0.2,4.7 8.8,2.6 9.9,-1.4 4.5,0.8 9.7,-1.4 12.1,-5.7 3.7,-5.5 13.8,-8.2 19.9,-5.4 6.2,3.4 4.8,8.4 2,11.4 4.8,-0.5 8.5,5.5 6,9.3 5.2,-0.6 10.5,-4.5 19,-10.5 5.3,-3.3 11.8,-5.2 14.6,-3.5 3.5,2.5 -0.7,7.2 -2.1,12.1 -1.4,4.1 -1.2,5.8 1.5,9 1,1.3 3.1,-2.5 3.1,-2.5 0,0 13.9,-17.8 36.3,-22.6 22.4,-4.8 34.3,3.1 43.3,4.7 2.9,0.1 15.8,0.6 12.8,-10.1 -2.2,-4.8 -4.1,-14.5 -3.8,-17.9 1.4,1.3 10.2,3.7 11.9,3.7 40,7.6 69.5,-46.8 103.1,-64.4 16,-8.3 19.3,-14.4 47.4,-14.4 16.2,0 42.2,17.9 46.9,21.5 21,15.2 35.8,28.1 63.5,28.1 22.3,-0.3 24.1,-12.7 45.6,-12.7 11,0 23,3.8 23,17 0,3.5 -2.6,10 -6.4,10.2 -8.2,-0.3 -12.9,-6.3 -26.4,-1.7 -2.4,-0.7 -6,-0.7 -7.1,2.1 4.8,3.2 8.8,10.5 0.8,16.7 2,1.9 3.2,1.8 4.5,1.8 6.2,0 3.3,-2.6 7.6,-2.7 5.6,0.3 6.1,2.9 9,2.6 -0.9,0.6 -2.3,2 -4.7,5.2 -2.3,2.8 -4.6,4.5 -6,4.6 -3.1,0.1 -5.8,2.3 -6.2,3.4 -0.9,2.4 0.7,1.4 -0.3,3.2 4.5,-0.1 14.2,1.7 11.9,11.8 1.4,-0.3 0.7,0.4 1.9,1.1 2.9,2.1 7.1,-2.6 7,-4.8 -0.2,-3.3 4.2,-5.9 4.8,-6.5 7.3,-5.8 7.1,-2 11,-5.4 0,0.3 1.1,1.5 0.7,2.3 -1,0 -2.6,0.8 -3,2.1 -0.4,1.6 -0.4,2.7 0.3,3.2 4.6,-1 11.7,-0.1 10.8,7 0.8,-0.2 2.3,-0.4 3.2,-0.5 9.9,-0.1 14.4,-9.4 14.4,-9.4 3.7,-4.9 2.6,-13 2.5,-19.8 0,-5.2 -0.8,-6.6 1.9,-8.7 1.8,-1.2 4.5,-2 6.3,-1.6 0.1,-6 3.7,-7.8 8.8,-6.3 -0.6,-1.2 -1.5,-2.3 -1.8,-2.8 z"></path>
  </g>
  <g stroke="none" fill="#000">
    <path d="m 162.9,187.1 c 1.6,0.3 3.1,0.4 4.5,0.5 1.4,0.1 3,0.2 4.4,0.3 1.4,0.1 2.9,0.1 4.4,0.1 1.4,0 3,0 4.5,-0.1 l 0.2,0.3 c -1.3,1 -2.9,1.5 -4.4,1.9 -1.5,0.4 -3.1,0.4 -4.8,0.3 -1.6,-0.1 -3.1,-0.3 -4.7,-0.8 -1.5,-0.6 -3,-1.3 -4.1,-2.5 z"></path>
    <path d="m 219.3,221.4 c 0.8,-1.8 1.8,-3.1 2.6,-4.6 0.9,-1.4 1.5,-3 1.7,-4.7 h 0.3 c 0.2,1.7 -0.2,3.6 -0.7,5.2 -0.5,1.7 -1.2,3.3 -1.4,4.8 z"></path>
    <path d="m 176,206.6 c -1.5,0.2 -3.1,0.4 -4.6,0.9 -1.4,0.4 -2.9,0.9 -4.3,1.6 -1.4,0.7 -2.6,1.4 -3.8,2.4 -1.1,0.9 -2.2,2 -2.8,3.1 l -2.2,-1.4 c 1.1,-1.5 2.5,-2.6 3.8,-3.4 1.4,-0.9 2.9,-1.5 4.4,-2 1.5,-0.5 3.1,-0.8 4.7,-1.1 1.6,-0.3 3.1,-0.3 4.8,-0.3 z"></path>
    <path d="m 129.5,177.8 c 0.7,1.2 0.9,2.6 0.9,3.8 0.1,1.4 -0.2,2.6 -0.5,4 -0.4,1.3 -1,2.6 -1.9,3.6 -0.9,1 -2,2 -3.1,2.4 l -0.2,-0.3 c 0.8,-1 1.5,-2 2.1,-3 0.6,-1 1,-2.1 1.4,-3.3 0.3,-1.1 0.6,-2.3 0.8,-3.5 0.3,-1.1 0.4,-2.3 0.5,-3.7 z"></path>
    <path d="m 135.9,165 c 1.4,0.1 2.6,0.1 3.9,-0.1 1.3,-0.2 2.5,-0.4 3.7,-0.9 1.3,-0.4 2.5,-0.8 3.6,-1.4 1.1,-0.6 2.1,-1.2 2.7,-2.4 l 0.3,0.1 c 0.1,0.8 -0.3,1.4 -0.7,2 -0.4,0.6 -0.9,1.1 -1.5,1.5 -1.2,0.9 -2.5,1.4 -3.7,1.9 -1.2,0.5 -2.8,0.7 -4.2,0.6 -1.6,-0.1 -2.9,-0.5 -4.1,-1.3 z"></path>
    <path d="m 145.8,218.5 c 0.3,-0.6 0.3,-1.2 0.3,-1.8 0,-0.6 0,-1.2 -0.1,-1.8 -0.2,-1.2 -0.3,-2.4 -0.7,-3.6 -0.3,-1.1 -0.8,-2.3 -1.3,-3.3 -0.5,-1.1 -1.1,-2.1 -2,-3 l 0.1,-0.3 c 1.4,0.3 2.4,1.4 3.1,2.5 0.8,1.1 1.4,2.3 1.7,3.7 0.3,1.4 0.4,2.6 0.3,4 -0.1,0.7 -0.2,1.4 -0.4,2 0,0.7 -0.4,1.3 -1,1.6 z"></path>
    <path d="m 185.1,222.1 c -0.6,0.7 -1.2,1.3 -1.9,1.8 -0.7,0.5 -1.4,1 -2.1,1.4 -0.8,0.4 -1.5,0.7 -2.4,0.9 -0.4,0.1 -0.9,0.2 -1.2,0.3 -0.4,0.1 -0.8,0.1 -1.2,0.3 l -0.1,-0.2 c 0.4,-0.3 0.8,-0.3 1.2,-0.4 0.4,-0.1 0.8,-0.3 1.1,-0.4 0.8,-0.3 1.4,-0.7 2,-1.2 0.6,-0.4 1.2,-0.9 1.7,-1.5 0.5,-0.6 0.9,-1.2 1.4,-1.9 z"></path>
    <path d="m 128.2,225.8 c 0.2,-0.5 0.3,-1.1 0.4,-1.7 0.2,-0.5 0.3,-1.1 0.7,-1.6 0.5,-1.1 1.2,-2 2,-2.9 0.9,-0.9 1.9,-1.5 3,-2 1.1,-0.5 2.2,-0.9 3.6,-0.9 v 1.8 c -0.9,0 -2,0.2 -3.1,0.5 -1,0.3 -2,0.9 -2.8,1.5 -0.9,0.7 -1.6,1.4 -2.2,2.4 -0.3,0.4 -0.5,0.9 -0.8,1.4 -0.3,0.5 -0.4,1 -0.6,1.6 z"></path>
    <path d="m 102.4,189.3 c 0.5,-0.4 0.9,-0.9 1.5,-1.4 0.6,-0.4 1.1,-0.8 1.7,-1.2 1.2,-0.8 2.5,-1.2 3.9,-1.4 1.4,-0.3 2.8,-0.3 4.2,0 1.4,0.3 2.7,0.7 4.1,1.4 l -0.9,1.4 c -0.9,-0.7 -2.2,-1.2 -3.4,-1.5 -1.2,-0.3 -2.5,-0.5 -3.8,-0.3 -1.3,0.1 -2.6,0.4 -3.7,1 -0.6,0.3 -1.2,0.6 -1.7,0.9 -0.6,0.3 -1,0.9 -1.6,1.2 z"></path>
    <path d="m 124,145.2 c 1.2,0.3 2.4,0.5 3.4,1.2 1,0.6 2,1.4 2.8,2.4 0.8,0.9 1.4,2 2,3.2 0.5,1.2 0.9,2.3 1.1,3.7 l -1.7,0.2 c -0.1,-1 -0.3,-2.2 -0.6,-3.3 -0.3,-1.1 -0.9,-2.1 -1.4,-3.1 -0.6,-0.9 -1.4,-1.8 -2.4,-2.5 -0.9,-0.8 -2,-1.1 -3.1,-1.4 z"></path>
    <path d="m 161.1,171.9 c 2,2.2 4.4,4 7.1,5.4 2.6,1.4 5.6,2.5 8.6,3.2 l -0.1,0.3 c -3.1,-0.4 -6.1,-1.1 -9.1,-2.2 -3,-1.1 -5.8,-2.7 -8.2,-4.8 z"></path>
    <path d="m 667,215.7 c -0.9,-0.8 -1.7,-1.5 -2.6,-2.2 -0.8,-0.7 -1.7,-1.3 -2.6,-1.6 -0.9,-0.4 -1.9,-0.7 -3,-0.8 -1.1,-0.1 -2.2,-0.3 -3.3,-0.4 l -0.1,-0.3 c 1.1,-0.5 2.3,-0.7 3.5,-0.8 0.6,0 1.2,0 1.8,0.1 0.6,0.1 1.2,0.3 1.8,0.6 1.1,0.5 2.1,1.4 2.9,2.3 0.8,0.9 1.4,1.9 1.6,3.1 z"></path>
    <path d="m 662.8,200.5 c -1,0.4 -2,0.9 -2.8,1.6 -0.9,0.7 -1.6,1.4 -2.3,2.2 -0.7,0.8 -1.3,1.7 -1.7,2.6 -0.3,0.4 -0.5,0.9 -0.7,1.4 -0.3,0.5 -0.4,0.9 -0.8,1.6 l -2.1,-1.4 c 0.3,-0.3 0.6,-0.8 0.9,-1.3 0.3,-0.5 0.7,-0.9 1,-1.4 0.7,-0.9 1.5,-1.8 2.4,-2.5 0.8,-0.8 1.9,-1.4 2.9,-1.9 1.1,-0.3 2.2,-0.6 3.2,-0.9 z"></path>
    <path d="m 623.8,204.9 c 1.8,0 3.1,0.5 4.3,1.1 1.3,0.6 2.4,1.4 3.5,2.3 1,0.9 2,2 2.6,3.1 0.7,1.1 1.3,2.4 1.6,3.7 l -0.3,0.1 c -0.5,-1.2 -1.2,-2.3 -2,-3.2 -0.8,-0.9 -1.8,-1.8 -2.8,-2.5 -1,-0.7 -2.2,-1.2 -3.3,-1.5 -0.6,-0.2 -1.2,-0.3 -1.7,-0.4 -0.6,-0.1 -1.1,-0.1 -1.5,0 z"></path>
    <path d="m 631.7,196.8 c 1.1,-0.8 2.3,-1.8 3.6,-2.4 1.3,-0.7 2.8,-1 4.2,-1.1 1.4,-0.1 2.7,0 4,-0.2 1.3,-0.3 2.5,-0.8 3.6,-1.4 l 0.2,0.3 c -1,0.8 -2.2,1.6 -3.6,2.1 -1.4,0.4 -2.7,0.5 -4,0.8 -1.3,0.3 -2.4,0.8 -3.4,1.4 -1,0.7 -2,1.6 -2.8,2.6 z"></path>
    <path d="m 619.3,174.8 c 0.8,0.3 1.4,0.7 2,1.1 0.6,0.4 1.1,0.8 1.6,1.4 0.9,1 1.7,2.3 2,3.6 0.4,1.3 0.6,2.6 0.6,3.9 0,1.3 -0.2,2.6 -0.5,3.8 l -0.3,-0.1 c 0.2,-1.2 0.1,-2.5 -0.1,-3.7 -0.2,-1.2 -0.6,-2.4 -1.1,-3.4 -0.5,-1 -1.3,-2 -2.1,-2.6 -0.4,-0.3 -0.9,-0.6 -1.4,-0.8 -0.5,-0.3 -1,-0.4 -1.4,-0.5 z"></path>
    <path d="m 663,183.8 c 0.4,-1.4 0.6,-3 0.7,-4.4 0.1,-1.5 0.1,-3 0,-4.5 -0.2,-3 -0.5,-5.9 -1,-8.8 -0.2,-0.8 -0.3,-1.4 -0.5,-2.1 -0.1,-0.2 -0.1,-0.3 -0.2,-0.4 0,-0.1 -0.1,-0.1 -0.1,-0.1 0,0 0,0.1 0.3,0.1 0.1,0 0.3,0 0.3,0 0.1,0 0.1,-0.1 0.2,-0.1 0.1,-0.1 0.1,-0.2 0.1,-0.1 0,0 0,0.1 0,0.2 0,0.2 0,0.3 0,0.5 0.1,1.4 0.3,3 0.3,4.5 0,3.1 -0.5,6.2 -1.8,8.9 l -0.2,-0.1 c 0.8,-2.9 1,-5.9 0.8,-8.8 -0.1,-1.5 -0.3,-3 -0.4,-4.5 0,-0.2 0,-0.4 0,-0.6 0,-0.1 0,-0.3 0,-0.4 0,-0.1 0.1,-0.3 0.3,-0.6 0.1,-0.1 0.2,-0.1 0.3,-0.2 0.1,0 0.3,-0.1 0.4,-0.1 0.3,0.1 0.4,0.3 0.4,0.3 0.2,0.2 0.2,0.3 0.3,0.4 0.1,0.3 0.2,0.4 0.3,0.6 0.3,0.8 0.4,1.5 0.6,2.3 0.6,3.1 0.8,6 0.8,9.1 -0.2,3.1 -0.5,6.2 -1.9,8.9 z"></path>
    <path d="m 617.5,231.3 c 0.8,-2.5 1.9,-4.9 3.7,-7.1 1.7,-2 4,-3.7 6.5,-4.7 l 0.6,1.6 c -2.4,0.7 -4.6,2 -6.5,3.7 -1.8,1.8 -3.1,4 -4.2,6.5 z"></path>
    <path d="m 654,230.9 c 0.1,-1.2 0.1,-2.4 0.3,-3.6 0.2,-1.2 0.5,-2.4 1,-3.5 0.5,-1.1 1.3,-2.1 2.1,-3.1 0.9,-0.9 1.8,-1.7 2.8,-2.4 l 0.9,1.4 c -0.9,0.6 -2,1.2 -2.8,1.9 -0.8,0.8 -1.6,1.5 -2.2,2.5 -0.6,0.9 -1,2 -1.4,3.1 -0.3,1.1 -0.4,2.3 -0.6,3.5 z"></path>
    <path d="m 602.2,198.5 c 0.6,-1.3 1.4,-2.5 2.4,-3.5 0.9,-1 2,-2 3.2,-2.8 1.2,-0.8 2.5,-1.4 3.8,-2 0.7,-0.3 1.4,-0.4 2,-0.7 0.7,-0.2 1.4,-0.3 2.1,-0.4 l 0.2,1.7 c -0.7,0.1 -1.4,0.1 -2,0.2 -0.7,0.2 -1.4,0.2 -2,0.4 -1.3,0.3 -2.5,0.9 -3.7,1.4 -1.2,0.6 -2.3,1.4 -3.3,2.4 -1,0.9 -1.9,2 -2.6,3.1 z"></path>
    <path d="m 692.3,179.7 c 0.5,0.7 1,1.4 1.4,2.1 0.4,0.7 0.8,1.5 1.1,2.3 0.3,0.8 0.5,1.6 0.6,2.5 0.1,0.9 0,1.7 0,2.5 h -0.2 c -0.2,-0.8 -0.2,-1.6 -0.4,-2.4 -0.2,-0.8 -0.5,-1.5 -0.9,-2.2 -0.4,-0.7 -0.8,-1.4 -1.4,-2 -0.5,-0.6 -1.1,-1.2 -1.6,-1.7 z"></path>
    <path d="m 314.3,171.3 c -0.8,2.9 -1.3,5.9 -1.7,8.8 -0.4,2.9 -0.6,5.9 -0.4,8.8 h -2.6 c 0.3,-3.1 0.9,-6.1 1.6,-9 0.7,-2.9 1.8,-5.8 2.9,-8.6 z"></path>
    <path d="m 301.7,191.6 c 0.2,1 0.2,2.1 0,3.2 -0.2,1.1 -0.5,2.2 -1.2,3.1 -0.6,1 -1.4,1.8 -2.4,2.5 -0.9,0.7 -1.8,1.2 -2.8,1.7 -2,0.9 -4.4,1.4 -6.6,1.1 -2.2,-0.3 -4.4,-1 -5.9,-2.6 l 0.3,-0.3 c 2,0.6 3.9,0.9 5.9,0.8 1.9,-0.1 3.7,-0.5 5.4,-1.3 0.9,-0.4 1.7,-0.9 2.5,-1.4 0.8,-0.5 1.5,-1 2.2,-1.7 1.2,-1.2 1.9,-3.1 2.6,-5.1 z"></path>
    <path d="m 592.2,-45.4 c -0.8,0.7 -1.6,1.1 -2.5,1.6 -0.8,0.5 -1.7,0.9 -2.5,1.3 -1.8,0.8 -3.6,1.3 -5.5,1.4 -1.9,0.3 -3.8,0.1 -5.6,-0.1 -1.9,-0.2 -3.7,-0.5 -5.4,-0.9 -3.6,-0.9 -7,-2 -10.4,-3.2 -1.7,-0.6 -3.3,-1.3 -5,-1.8 -0.9,-0.3 -1.7,-0.5 -2.5,-0.7 -0.9,-0.2 -1.7,-0.3 -2.6,-0.5 l -2.6,-0.5 -2.6,-0.3 c -1.8,-0.3 -3.6,-0.3 -5.3,-0.4 -3.6,-0.1 -7.1,0.1 -10.6,0.7 -3.5,0.6 -6.9,1.6 -10.4,2.6 -1.7,0.5 -3.5,1 -5.2,1.4 -1.8,0.3 -3.6,0.4 -5.4,0.1 l 0.1,-0.3 c 1.8,0.2 3.6,0.1 5.3,-0.3 1.7,-0.4 3.4,-0.9 5.1,-1.5 3.4,-1.2 6.8,-2.3 10.4,-3 3.6,-0.7 7.1,-1 10.8,-1 1.8,0.1 3.7,0.1 5.4,0.3 l 2.7,0.3 2.6,0.4 c 0.9,0.2 1.8,0.3 2.7,0.4 0.9,0.1 1.8,0.4 2.7,0.7 1.8,0.5 3.5,1.1 5.1,1.7 3.4,1.1 6.8,2.2 10.2,2.9 1.7,0.3 3.5,0.6 5.2,0.8 1.7,0.2 3.5,0.2 5.1,-0.1 1.7,-0.3 3.3,-0.8 4.8,-1.4 0.8,-0.3 1.5,-0.8 2.2,-1.2 0.7,-0.4 1.4,-0.9 2,-1.4 z"></path>
    <path d="m 406.9,12.5 c 3.7,0.5 7.6,0.9 11.3,1.1 3.7,0.2 7.6,0.3 11.3,0.3 7.6,-0.1 15.1,-0.3 22.7,-0.7 7.6,-0.3 15.1,-0.8 22.7,-1.2 3.8,-0.3 7.6,-0.4 11.4,-0.7 3.8,-0.2 7.6,-0.5 11.4,-0.7 v 0.3 c -3.7,0.5 -7.6,0.9 -11.3,1.4 -3.7,0.4 -7.6,0.8 -11.3,1.1 -7.6,0.7 -15.1,1.2 -22.8,1.5 -7.6,0.3 -15.2,0.4 -22.8,0.3 -3.8,-0.1 -7.6,-0.3 -11.4,-0.7 -3.8,-0.5 -7.6,-1 -11.2,-2 z"></path>
    <path d="m 521,8.3 c 4.3,-0.7 8.7,-1.2 13,-1.8 l 13.1,-1.6 c 8.7,-1.1 17.4,-2 26.2,-2.8 8.8,-0.8 17.5,-1.4 26.3,-1.9 4.4,-0.2 8.8,-0.3 13.2,-0.4 4.4,0 8.8,0 13.2,0.2 v 0.3 l -6.5,0.3 c -2.2,0.1 -4.3,0.2 -6.5,0.3 -4.3,0.3 -8.8,0.5 -13.1,0.8 C 591,2.4 582.3,3 573.5,3.8 l -26.2,2.4 -13.1,1.2 c -4.4,0.2 -8.9,0.7 -13.2,0.9 z"></path>
    <path d="m 664.1,58.2 c 1.4,-1.2 2.5,-2.6 3.7,-4.1 1.1,-1.4 2,-3.1 2.7,-4.7 0.4,-0.8 0.7,-1.7 0.9,-2.5 0.2,-0.4 0.3,-0.8 0.3,-1.3 0.2,-0.4 0.3,-0.9 0.3,-1.3 0.4,-1.7 0.4,-3.5 0.3,-5.2 h 2.6 c -0.2,2 -0.4,3.9 -1.1,5.7 -0.2,0.4 -0.3,0.9 -0.5,1.4 -0.2,0.4 -0.3,0.9 -0.5,1.4 -0.4,0.9 -0.9,1.7 -1.4,2.5 -0.9,1.6 -2.1,3.1 -3.4,4.5 -1,1.3 -2.3,2.6 -3.9,3.6 z"></path>
    <path d="M 381.9,4.7 C 381,3.5 380.3,2.3 379.6,1 c -0.7,-1.3 -1.3,-2.6 -1.7,-4.1 -0.5,-1.4 -0.9,-2.8 -1.2,-4.3 -0.3,-1.4 -0.5,-3 -0.6,-4.4 h 2.6 c -0.1,1.4 -0.1,2.8 0,4.2 0.1,1.4 0.3,2.8 0.5,4.2 0.3,1.4 0.7,2.7 1.1,4.1 0.5,1.4 1,2.6 1.8,3.9 z"></path>
    <path d="m 550.2,67.2 c 1.1,0.2 2.2,0.3 3.3,0.6 1.1,0.3 2.2,0.5 3.2,0.8 1.1,0.3 2.1,0.7 3.2,1.1 1.1,0.4 2.1,0.8 3.1,1.4 l -1.4,2.2 c -0.8,-0.6 -1.7,-1.3 -2.6,-1.9 -0.9,-0.6 -1.9,-1.1 -2.8,-1.6 -1.8,-1 -3.8,-1.8 -6,-2.6 z"></path>
    <path d="m 649.5,130.8 c 1.5,-0.3 3.1,-0.1 4.5,0.4 1.4,0.4 2.8,1.3 3.9,1.9 0.6,0.3 1.1,0.5 1.7,0.6 0.3,0.1 0.6,0.2 0.9,0.2 l 0.5,0.1 c 0.2,0 0.3,0 0.4,0 0.6,0 1.1,-0.1 1.7,-0.3 0.5,-0.2 1.1,-0.5 1.4,-1.1 h 0.4 c 0.1,0.4 0,0.9 -0.2,1.3 -0.2,0.4 -0.4,0.8 -0.8,1.1 -0.6,0.6 -1.4,1 -2.3,1.2 -0.3,0.1 -0.4,0.1 -0.7,0.1 h -0.6 c -0.4,0 -0.8,0 -1.2,-0.1 -0.9,-0.1 -1.6,-0.4 -2.4,-0.8 -1.4,-0.8 -2.5,-1.6 -3.7,-2.4 -0.8,-0.8 -2.1,-1.4 -3.5,-2.2 z"></path>
    <path d="m 324.1,184.1 c 0.4,0.7 0.9,1.2 1.4,1.6 0.5,0.4 1,0.8 1.6,1.2 1.1,0.8 2.4,1.4 3.6,2.5 l -0.1,0.3 c -0.9,0.1 -1.6,-0.1 -2.4,-0.3 -0.8,-0.3 -1.4,-0.6 -2.1,-1 -0.7,-0.4 -1.3,-1 -1.7,-1.8 -0.4,-0.8 -0.7,-1.7 -0.3,-2.5 z"></path>
    <path d="m 330.9,182.6 c 0.7,0.5 1.2,1 1.8,1.4 0.6,0.4 1.1,0.9 1.7,1.3 1.2,0.8 2.4,1.6 3.6,2.6 l -0.1,0.3 c -0.9,0.1 -1.6,-0.1 -2.4,-0.3 -0.8,-0.3 -1.4,-0.6 -2.1,-1.1 -0.7,-0.5 -1.3,-1.1 -1.7,-1.8 -0.5,-0.8 -0.8,-1.6 -0.8,-2.4 z"></path>
    <path d="m 337,180.9 c 0.8,0.5 1.4,0.9 2.1,1.4 0.7,0.3 1.4,0.8 2.2,1.1 1.4,0.7 3,1.3 4.6,2.1 v 0.3 c -0.9,0.2 -1.8,0.2 -2.7,0 -0.9,-0.2 -1.8,-0.4 -2.5,-0.9 -0.9,-0.4 -1.6,-0.9 -2.3,-1.6 -0.7,-0.7 -1.2,-1.5 -1.4,-2.4 z"></path>
    <path d="m 344,179.4 c 0.7,0.1 1.3,0.3 1.9,0.4 0.6,0.2 1.1,0.3 1.7,0.5 1.1,0.3 2.2,0.7 3.3,1.4 v 0.3 c -0.7,0.3 -1.3,0.3 -2,0.3 -0.7,0 -1.3,-0.2 -2,-0.3 -0.6,-0.2 -1.2,-0.5 -1.7,-0.9 -0.5,-0.5 -0.9,-1 -1.2,-1.7 z"></path>
    <path d="m 352,176.7 c 0.5,0.3 0.9,0.4 1.3,0.6 l 1.2,0.4 c 0.8,0.3 1.6,0.7 2.5,1.4 v 0.3 c -0.5,0.3 -1.1,0.3 -1.6,0.3 -0.5,0 -1.1,-0.2 -1.5,-0.3 -0.5,-0.3 -1,-0.5 -1.4,-1 -0.4,-0.5 -0.6,-1.1 -0.5,-1.7 z"></path>
    <path d="m 444,189.6 c 1.5,0.3 2.9,0.6 4.2,0.9 1.4,0.3 2.8,0.4 4.2,0.6 1.4,0.2 2.8,0.3 4.2,0.5 1.4,0.2 2.8,0.3 4.3,0.3 l 0.1,0.4 c -1.4,0.9 -2.9,1.3 -4.4,1.4 -1.5,0.2 -3.1,0.2 -4.6,-0.1 -1.5,-0.3 -3,-0.7 -4.4,-1.3 -1.3,-0.5 -2.7,-1.3 -3.6,-2.7 z"></path>
    <path d="m 455.9,204.5 c -1.4,0.3 -2.9,0.6 -4.2,1 -1.4,0.4 -2.7,0.8 -4.1,1.4 -2.6,1 -5.3,2.3 -8,3.6 l -0.2,-0.2 c 1,-1.2 2.2,-2.1 3.4,-3 1.3,-0.8 2.6,-1.5 4.1,-2 1.5,-0.5 2.9,-0.9 4.4,-1.1 1.5,-0.2 3.2,-0.1 4.6,0.3 z"></path>
    <path d="m 404.9,179.9 c 0.9,0.8 1.5,2 2,3.2 0.4,1.2 0.6,2.5 0.6,3.8 0,1.3 -0.3,2.6 -0.8,3.8 -0.5,1.2 -1.3,2.3 -2.3,3.1 l -0.2,-0.2 c 0.5,-1.1 0.9,-2.2 1.1,-3.3 0.3,-1.1 0.3,-2.2 0.4,-3.4 0.1,-1.1 0,-2.3 -0.2,-3.5 -0.1,-1.1 -0.3,-2.2 -0.6,-3.5 z"></path>
    <path d="m 419.3,165.9 c 1.3,-0.3 2.6,-0.7 3.7,-1.2 0.6,-0.3 1.1,-0.5 1.6,-0.9 0.5,-0.3 0.9,-0.7 1.4,-1.1 1,-0.9 2,-1.6 2.8,-2.5 0.9,-0.9 1.6,-1.8 1.8,-3.1 l 0.3,-0.1 c 0.3,0.7 0.3,1.4 0.1,2.1 -0.2,0.7 -0.6,1.4 -0.9,1.9 -0.8,1.2 -1.8,2 -2.8,2.9 -0.5,0.4 -1.1,0.9 -1.7,1.2 -0.7,0.3 -1.3,0.6 -2,0.7 -1.5,0.4 -2.9,0.4 -4.3,0.1 z"></path>
    <path d="m 421.2,218.8 c 0.1,-0.6 -0.1,-1.2 -0.3,-1.7 -0.2,-0.5 -0.4,-1.1 -0.7,-1.6 -0.5,-1 -1.1,-2 -1.7,-3 -0.6,-0.9 -1.4,-1.8 -2.2,-2.6 -0.9,-0.8 -1.7,-1.5 -2.8,-2 v -0.3 c 1.4,-0.2 2.6,0.4 3.7,1.2 1.1,0.8 2,1.6 2.7,2.7 0.7,1.1 1.3,2.3 1.5,3.5 0.2,0.6 0.3,1.3 0.3,2 0,0.6 -0.1,1.3 -0.5,1.8 z"></path>
    <path d="m 380.9,193.6 c 0.7,-1.3 1.9,-2.1 3.1,-2.9 1.2,-0.8 2.5,-1.3 3.9,-1.7 2.7,-0.8 5.7,-1 8.6,-0.3 l -0.5,1.7 c -2.4,-0.9 -5.2,-0.9 -7.8,-0.4 -1.4,0.3 -2.6,0.7 -3.8,1.3 -1.2,0.6 -2.4,1.4 -3.1,2.5 z"></path>
    <path d="m 404.2,231.9 c 0.1,-1.2 0.2,-2.3 0.6,-3.5 0.2,-0.6 0.4,-1.1 0.7,-1.6 0.3,-0.5 0.6,-1 1,-1.5 0.8,-0.9 1.6,-1.8 2.5,-2.5 1,-0.7 2,-1.3 3.2,-1.8 l 0.4,1.7 c -0.9,0.3 -2,0.7 -3,1.2 -1,0.5 -1.9,1.2 -2.6,2 -0.4,0.3 -0.7,0.8 -1,1.3 -0.3,0.5 -0.6,0.9 -0.9,1.4 -0.4,1.1 -0.6,2.2 -0.9,3.3 z"></path>
    <path d="m 408.1,149.2 c 0.6,0 1.2,0.1 1.8,0.1 0.6,0.1 1.2,0.2 1.8,0.3 1.2,0.3 2.3,0.9 3.3,1.7 1,0.9 1.8,2 2.2,3.1 0.3,0.6 0.4,1.3 0.5,1.9 0,0.3 0.1,0.7 0.1,1 0,0.2 0,0.3 0,0.5 v 0.3 l -0.1,0.3 -1.7,-0.4 v -0.1 -0.2 c 0,-0.1 0,-0.3 0.1,-0.3 0,-0.3 0,-0.5 0,-0.8 0,-0.5 -0.1,-1.1 -0.3,-1.6 -0.3,-1 -0.8,-2 -1.5,-2.8 -0.8,-0.8 -1.7,-1.4 -2.8,-1.9 -0.5,-0.3 -1.1,-0.3 -1.7,-0.5 -0.6,-0.1 -1.2,-0.2 -1.8,-0.3 z"></path>
    <path d="m 454.6,216.2 -0.8,0.9 -0.8,0.9 c -0.6,0.6 -1.2,1.1 -1.8,1.6 -0.7,0.5 -1.4,0.9 -2,1.2 -0.8,0.3 -1.5,0.5 -2.3,0.6 v -0.2 c 0.8,-0.2 1.4,-0.5 2,-0.9 0.6,-0.4 1.2,-0.9 1.7,-1.4 0.5,-0.5 0.9,-1.1 1.4,-1.7 l 0.6,-0.9 0.5,-0.9 z"></path>
    <path d="m 550.2,68.2 c 2.1,0.3 4.3,0.7 6.5,1.2 1.1,0.3 2.1,0.5 3.1,0.8 1.1,0.3 2.1,0.6 3.1,0.9 l -1.1,2.4 c -0.9,-0.5 -1.9,-1 -2.8,-1.5 -0.9,-0.5 -2,-0.9 -2.9,-1.4 -1.8,-0.8 -3.7,-1.7 -5.9,-2.4 z"></path>
    <path d="m 487.3,109.9 c -0.9,-2.4 -1.1,-5.1 -0.7,-7.7 0.4,-2.6 1.4,-5 2.4,-7.4 1,-2.4 2.1,-4.6 3,-7 0.8,-2.3 1.4,-4.8 1,-7.3 l 0.3,-0.1 c 0.9,2.5 0.8,5.3 0.1,7.7 -0.7,2.6 -1.7,4.9 -2.7,7.2 -1,2.3 -2,4.6 -2.6,7 -0.8,2.6 -1,5 -0.8,7.6 z"></path>
    <path d="m 565.6,150 c -0.7,0.3 -1.4,0.3 -2.1,0.1 -0.7,-0.2 -1.4,-0.4 -2,-0.9 -0.6,-0.4 -1.1,-0.9 -1.5,-1.4 -0.4,-0.6 -0.8,-1.2 -0.9,-2 l 0.3,-0.2 c 1.3,0.7 2.2,1.4 3.2,2.1 0.5,0.3 1,0.7 1.5,1 0.3,0.5 0.9,0.8 1.5,1.3 z"></path>
    <path d="m 549.6,146.7 c -1.2,-0.2 -2.2,-0.9 -2.8,-1.9 -0.3,-0.4 -0.6,-1 -0.7,-1.5 -0.1,-0.6 -0.2,-1.2 0,-1.8 l 0.3,-0.1 c 0.8,0.9 1.4,1.6 1.9,2.4 0.3,0.4 0.5,0.8 0.8,1.3 0,0.5 0.3,1 0.5,1.6 z"></path>
    <path d="m 541.9,142.8 c -0.6,-0.2 -1,-0.6 -1.3,-1.1 -0.3,-0.5 -0.5,-1 -0.6,-1.5 -0.1,-0.5 -0.1,-1 0,-1.6 0.1,-0.5 0.3,-1 0.7,-1.5 h 0.3 c 0.5,1 0.7,1.9 0.8,2.8 0.1,0.4 0.1,0.8 0.1,1.4 z"></path>
    <path d="m 569.4,146.2 c 0.6,0.2 1,0.4 1.5,0.7 0.4,0.3 0.8,0.5 1.3,0.8 0.8,0.5 1.6,1 2.5,1.9 l -0.1,0.3 c -0.6,0.2 -1.2,0.2 -1.8,0.1 -0.6,-0.2 -1.1,-0.3 -1.5,-0.7 -1,-0.9 -1.8,-1.8 -1.9,-3.1 z"></path>
    <path d="m 577.5,143.5 1.5,0.1 c 0.4,0 0.8,0.1 1.4,0.1 0.8,0.2 1.8,0.3 2.8,0.8 v 0.3 c -0.5,0.3 -1,0.5 -1.5,0.7 -0.5,0.1 -1,0.1 -1.6,0 -0.5,-0.1 -1,-0.3 -1.5,-0.6 -0.5,-0.2 -0.9,-0.7 -1.1,-1.4 z"></path>
    <path d="m 535.3,138 c -0.5,-0.3 -0.8,-0.8 -0.9,-1.3 -0.2,-0.5 -0.2,-1 -0.1,-1.5 0.1,-0.5 0.3,-0.9 0.4,-1.4 0.3,-0.4 0.5,-0.8 1,-1.1 l 0.3,0.1 c 0.3,1 0.1,1.9 0,2.6 -0.1,0.4 -0.2,0.8 -0.3,1.2 z"></path>
    <path d="m 555.8,148.3 c -0.6,-0.2 -1,-0.6 -1.3,-1.1 -0.3,-0.5 -0.5,-1 -0.6,-1.5 -0.1,-0.5 -0.1,-1 0,-1.6 0.1,-0.5 0.3,-1 0.7,-1.5 h 0.3 c 0.5,1 0.7,1.9 0.8,2.8 0.1,0.4 0.1,0.9 0.1,1.4 z"></path>
    <path d="m 531.3,160.5 c -0.6,0.4 -1.4,0.7 -2,0.7 -0.7,0.1 -1.4,0 -2.1,-0.3 -0.7,-0.2 -1.4,-0.5 -1.9,-0.9 -0.6,-0.4 -1.1,-0.9 -1.4,-1.6 l 0.2,-0.2 c 1.4,0.3 2.5,0.7 3.7,1.1 0.6,0.2 1.1,0.3 1.7,0.6 0.4,0.1 1,0.3 1.8,0.6 z"></path>
    <path d="m 515.9,166.7 c -1.2,0.3 -2.4,-0.2 -3.2,-0.9 -0.4,-0.3 -0.9,-0.8 -1.2,-1.3 -0.3,-0.5 -0.5,-1 -0.5,-1.7 l 0.3,-0.2 c 1,0.5 1.8,1.1 2.6,1.7 0.3,0.3 0.8,0.6 1.1,0.9 0.2,0.5 0.6,0.9 0.9,1.5 z"></path>
    <path d="m 507.8,167.8 c -0.6,0.3 -1.2,0.2 -1.7,0 -0.5,-0.2 -1,-0.5 -1.4,-0.8 -0.4,-0.3 -0.7,-0.8 -0.9,-1.3 -0.3,-0.5 -0.4,-0.9 -0.4,-1.6 l 0.3,-0.2 c 1,0.4 1.7,1.1 2.4,1.7 0.3,0.3 0.6,0.7 0.9,0.9 z"></path>
    <path d="m 500,165.6 c -0.6,0.1 -1.1,-0.1 -1.5,-0.4 -0.4,-0.3 -0.8,-0.7 -1,-1.1 -0.3,-0.4 -0.4,-0.8 -0.5,-1.4 -0.1,-0.5 -0.1,-0.9 0.2,-1.5 l 0.3,-0.1 c 0.8,0.7 1.2,1.4 1.6,2 0.2,0.3 0.3,0.7 0.5,1.1 z"></path>
    <path d="m 522.5,163.9 c -0.6,0.3 -1.2,0.2 -1.7,0 -0.5,-0.2 -1,-0.5 -1.4,-0.8 -0.4,-0.3 -0.7,-0.8 -0.9,-1.3 -0.3,-0.5 -0.4,-0.9 -0.4,-1.6 l 0.3,-0.2 c 1,0.4 1.7,1.1 2.4,1.7 0.3,0.3 0.6,0.7 0.9,0.9 z"></path>
    <path d="m 589.3,106.5 c 1.1,0.6 1.6,1.7 1.9,2.8 0.1,0.6 0.2,1.1 0.1,1.7 -0.1,0.6 -0.3,1.1 -0.7,1.6 l -0.3,-0.1 c -0.4,-1.1 -0.6,-2 -0.8,-3 -0.1,-0.5 -0.2,-0.9 -0.2,-1.4 0,-0.5 0,-1 0,-1.6 z"></path>
    <path d="m 594.3,113.7 c 0.6,0.2 0.9,0.7 1.3,1.2 0.3,0.5 0.4,1 0.5,1.5 0.1,0.5 0,1 -0.1,1.6 -0.2,0.5 -0.3,1 -0.8,1.4 l -0.3,-0.1 c -0.5,-1 -0.6,-2 -0.7,-2.8 0,-0.4 0,-0.9 -0.1,-1.4 z"></path>
    <path d="m 599.6,119.6 c 0.5,0.3 0.8,0.8 0.8,1.3 0.2,0.5 0.1,1 0,1.5 -0.1,0.5 -0.3,0.9 -0.5,1.4 -0.3,0.4 -0.6,0.8 -1.1,1 l -0.3,-0.1 c -0.2,-1 0,-1.9 0.2,-2.6 0.1,-0.4 0.2,-0.8 0.3,-1.1 z"></path>
    <path d="m 583.3,100.5 c 0.6,0 1.1,0.3 1.5,0.8 0.4,0.4 0.7,0.8 0.9,1.4 0.3,0.5 0.3,1 0.3,1.5 0,0.5 0,1.1 -0.3,1.6 h -0.3 c -0.8,-0.8 -1.1,-1.7 -1.4,-2.5 -0.2,-0.4 -0.3,-0.8 -0.4,-1.3 z"></path>
    <path d="m 469.6,99.2 c -0.3,0.6 -0.9,1 -1.4,1.3 -0.6,0.3 -1.2,0.5 -1.8,0.5 -0.6,0.1 -1.3,0 -1.9,-0.2 -0.6,-0.2 -1.2,-0.4 -1.6,-0.8 l 0.1,-0.3 c 1.2,-0.3 2.2,-0.3 3.3,-0.4 l 1.5,-0.1 c 0.5,0 1,0 1.8,0 z"></path>
    <path d="m 457,105.6 c -0.9,0.7 -2,0.7 -2.9,0.4 -0.5,-0.2 -0.9,-0.3 -1.4,-0.7 -0.4,-0.3 -0.8,-0.7 -0.9,-1.3 l 0.2,-0.2 c 1,0.1 1.8,0.3 2.6,0.5 0.4,0.1 0.8,0.3 1.2,0.4 0.4,0.3 0.8,0.6 1.2,0.9 z"></path>
    <path d="m 449.9,107.3 c -0.4,0.3 -0.9,0.4 -1.4,0.4 -0.5,0 -0.9,-0.2 -1.4,-0.4 -0.4,-0.3 -0.8,-0.5 -1.1,-0.8 -0.3,-0.3 -0.5,-0.8 -0.6,-1.3 l 0.2,-0.2 c 1,0.1 1.7,0.4 2.4,0.8 0.3,0.2 0.6,0.4 0.9,0.6 z"></path>
    <path d="m 468.6,96 c 0.5,-0.3 0.9,-0.3 1.4,-0.4 0.4,-0.1 0.9,-0.2 1.2,-0.3 0.9,-0.1 1.6,-0.2 2.6,0 l 0.2,0.3 c -0.3,0.5 -0.7,0.8 -1.1,1.1 -0.4,0.3 -0.9,0.3 -1.4,0.4 -1.1,0 -2.1,-0.2 -2.9,-1.1 z"></path>
    <path d="m 472.7,91.7 1,-0.9 c 0.3,-0.3 0.6,-0.4 0.9,-0.7 0.7,-0.4 1.4,-0.8 2.4,-0.8 l 0.2,0.2 c -0.1,0.5 -0.3,0.9 -0.6,1.3 -0.3,0.3 -0.7,0.7 -1,0.8 -0.4,0.3 -0.9,0.4 -1.4,0.4 -0.5,0.1 -1,0 -1.5,-0.3 z"></path>
    <path d="m 444.4,108.8 c -0.3,0.3 -0.9,0.4 -1.4,0.4 -0.4,0 -0.9,-0.2 -1.3,-0.3 -0.4,-0.1 -0.7,-0.5 -0.9,-0.8 -0.3,-0.3 -0.4,-0.8 -0.5,-1.3 l 0.2,-0.2 c 0.9,0.1 1.5,0.4 2.1,0.8 0.3,0.2 0.5,0.3 0.9,0.6 z"></path>
    <path d="m 462.6,102.7 c -0.3,0.5 -0.8,0.8 -1.2,0.9 -0.5,0.2 -0.9,0.2 -1.4,0.1 -0.4,-0.1 -0.9,-0.3 -1.3,-0.4 -0.4,-0.3 -0.8,-0.5 -1,-1 l 0.1,-0.3 c 1,-0.3 1.8,-0.2 2.6,-0.1 0.3,0.1 0.8,0.2 1.1,0.3 z"></path>
    <path d="m 477.7,82.9 c 0.2,1.2 -0.5,2.4 -1.4,3.1 -0.4,0.3 -0.9,0.7 -1.4,0.8 -0.5,0.2 -1.1,0.3 -1.7,0.2 l -0.1,-0.3 c 0.7,-0.9 1.4,-1.5 2.1,-2 0.3,-0.3 0.7,-0.6 1.1,-0.8 0.4,-0.4 0.8,-0.7 1.4,-1 z"></path>
    <path d="m 472.5,81.8 c 0.3,-0.5 0.5,-0.8 0.8,-1.1 0.3,-0.3 0.5,-0.6 0.8,-0.8 0.5,-0.5 1.1,-0.9 2,-1.3 l 0.3,0.1 c 0.1,0.5 -0.1,1 -0.3,1.4 -0.2,0.4 -0.5,0.8 -0.9,1.1 -0.8,0.6 -1.7,1 -2.7,0.6 z"></path>
    <path d="m 468.7,77.9 c 0.4,-0.3 0.7,-0.6 0.9,-0.8 0.3,-0.2 0.5,-0.4 0.9,-0.6 0.6,-0.3 1.2,-0.6 2.2,-0.6 l 0.2,0.2 c -0.1,0.5 -0.3,0.8 -0.6,1.2 -0.3,0.3 -0.6,0.6 -1,0.8 -0.3,0.2 -0.8,0.3 -1.3,0.3 -0.4,0 -0.9,0 -1.3,-0.5 z"></path>
    <path d="m 464.1,75.5 c 0.4,-0.3 0.7,-0.4 0.9,-0.5 0.3,-0.2 0.5,-0.3 0.8,-0.3 0.6,-0.2 1.2,-0.3 2,0 L 468,75 c -0.2,0.4 -0.4,0.8 -0.8,1 -0.3,0.3 -0.7,0.4 -1,0.5 -0.3,0.1 -0.8,0.1 -1.2,0 -0.3,-0.4 -0.7,-0.6 -0.9,-1 z"></path>
    <path d="m 531.4,205.8 c 1.8,-0.9 3.5,-1.5 5.2,-2.4 1.6,-0.8 3.2,-1.7 4.8,-2.6 1.5,-0.9 3,-2 4.8,-3 0.9,-0.5 2,-0.9 3.1,-0.9 1.2,0.1 2.1,0.7 2.8,1.4 l -0.2,0.3 c -0.9,-0.3 -1.8,-0.3 -2.6,-0.2 -0.8,0.2 -1.4,0.7 -2.1,1.2 -1.4,1.1 -2.9,2.4 -4.6,3.4 -1.7,1 -3.6,1.8 -5.4,2.3 -1.8,0.5 -3.8,0.7 -5.8,0.6 z"></path>
    <path d="m 260.7,87.8 c -0.1,0.6 -0.2,1.1 -0.3,1.7 -0.2,0.6 -0.4,1.1 -0.6,1.7 -0.3,0.5 -0.6,1 -0.9,1.5 -0.3,0.5 -0.8,0.9 -1.2,1.4 -1.7,1.7 -3.7,2.9 -5.4,4.2 -1.8,1.3 -3.3,2.8 -4.5,4.5 -1.3,1.8 -2.2,3.7 -3.2,5.9 l -0.3,-0.1 c 0.3,-2.3 0.9,-4.6 2,-6.7 1.1,-2.1 2.9,-3.9 4.8,-5.4 2,-1.4 3.9,-2.5 5.6,-3.7 0.9,-0.6 1.6,-1.4 2.4,-2.2 0.3,-0.4 0.6,-0.9 0.9,-1.4 0.1,-0.4 0.4,-0.9 0.7,-1.4 z"></path>
    <path d="m 231.8,99.4 c -2,1.1 -3.8,2.6 -5.2,4.3 -1.4,1.8 -2.4,3.8 -3.8,5.8 -1.4,1.9 -3.1,3.6 -4.8,5.1 -0.9,0.8 -1.7,1.5 -2.3,2.3 -0.6,0.8 -1,1.7 -1.3,2.7 l -2.5,-0.8 c 0.4,-1.2 1.1,-2.4 2,-3.4 0.9,-1 1.9,-1.7 2.8,-2.4 1.9,-1.4 3.6,-2.8 5,-4.5 1.4,-1.6 2.7,-3.7 4.2,-5.4 1.6,-1.8 3.6,-3.1 5.7,-4 z"></path>
    <path d="m 239.7,83.5 c -0.5,1.4 -1,2.7 -1.8,4 -0.8,1.3 -1.7,2.5 -2.9,3.4 -1.1,0.9 -2.5,1.7 -3.7,2.4 -1.2,0.7 -2.6,1.4 -3.7,2.2 -2.3,1.6 -4.3,3.6 -6.3,5.7 -2,2 -3.7,4.3 -5.3,6.6 l -2.1,-1.5 c 1.9,-2.4 3.8,-4.5 6,-6.5 2.2,-2 4.4,-3.9 7,-5.4 2.6,-1.5 5.4,-2.4 7.7,-4 1.1,-0.9 2.1,-1.9 2.9,-3 0.9,-1.2 1.4,-2.5 2,-3.8 z"></path>
    <path d="m 223.2,114.9 c -0.1,1.2 -0.3,2.3 -0.9,3.3 -0.4,1 -1.1,2 -1.8,2.9 -0.7,0.9 -1.4,1.6 -2.2,2.4 -0.8,0.8 -1.4,1.4 -2.1,2.3 l -0.3,-0.1 c -0.1,-1.2 0.4,-2.4 1,-3.3 0.6,-1 1.3,-1.9 2,-2.6 l 2.1,-2.4 c 0.6,-0.9 1.2,-1.6 2.2,-2.5 z"></path>
    <path d="m 250,83 c 0,1.6 -0.7,3.2 -1.4,4.7 -0.8,1.4 -1.8,2.8 -2.9,4 -2,2.5 -4.4,4.8 -6.5,7.1 -1.1,1.2 -2,2.4 -2.9,3.7 -0.9,1.3 -1.4,2.7 -2.1,4.2 -1.3,2.9 -2.3,5.9 -3.1,9 l -0.3,-0.1 c 0.1,-3.2 0.8,-6.5 1.8,-9.6 0.5,-1.5 1.2,-3.1 2,-4.6 0.8,-1.5 2,-2.8 3.1,-4 2.2,-2.4 4.7,-4.5 6.9,-6.8 1.1,-1.1 2.2,-2.2 3.2,-3.5 0.9,-1.2 1.7,-2.5 2.2,-4.1 z"></path>
    <path d="m 225.6,120.1 c 0.4,1.7 0.2,3.6 -0.3,5.3 -0.5,1.7 -1.4,3.2 -2,4.7 -0.8,1.4 -1.4,2.9 -1.9,4.4 -0.4,1.5 -0.6,3.1 -0.7,4.8 l -0.3,0.1 c -0.8,-1.6 -1,-3.4 -0.9,-5.3 0.3,-1.8 0.9,-3.5 1.7,-5 0.8,-1.5 1.7,-2.9 2.5,-4.3 0.8,-1.6 1.4,-3 1.9,-4.7 z"></path>
    <path d="m 252.4,116.9 c 0.3,-1.3 0.7,-2.5 1.2,-3.6 0.5,-1.2 1,-2.3 1.6,-3.3 0.6,-1.1 1.4,-2 2.1,-3 0.7,-1 1.7,-1.8 2.7,-2.5 l 0.2,0.2 c -0.9,0.8 -1.6,1.7 -2.3,2.7 -0.6,1 -1.2,2 -1.6,3.1 -0.4,1.1 -0.8,2.2 -1.1,3.3 -0.3,1.1 -0.5,2.3 -0.6,3.4 z"></path>
    <path d="m 378.6,80.9 c -3.2,0.3 -6.5,0.3 -9.7,-0.3 -0.9,-0.1 -1.6,-0.3 -2.4,-0.5 -0.8,-0.2 -1.6,-0.3 -2.4,-0.7 -1.6,-0.5 -3.1,-1.1 -4.6,-1.9 -1.4,-0.8 -2.9,-1.6 -4.2,-2.5 -1.4,-0.9 -2.6,-1.9 -3.9,-2.8 -2.6,-2 -5,-3.7 -8.1,-4.8 l 0.1,-0.3 c 3.3,0.3 6.4,2 9,3.7 2.7,1.7 5.4,3.5 8.2,4.8 2.8,1.4 5.7,2.5 8.8,3.3 2.9,0.9 6,1.3 9.2,2 z"></path>
    <path d="m 296.598,89.568 1.383,3.225 c 0.366,0.853 0.852,1.309 1.139,1.627 0.287,0.318 0.511,0.588 0.828,1.584 l 0.006,0.02 0.008,0.021 c 2.384,6.485 0.446,10.831 -2.631,15.039 -3.072,4.201 -7.379,8.027 -9.256,13.043 -0.656,1.539 -0.979,3.384 -0.67,6.473 l 0.004,0.025 0.004,0.027 c 0.069,0.447 0.06,0.666 0.057,0.885 -0.173,-0.069 -0.362,-0.149 -0.625,-0.285 -2.995,-2.279 -4.696,-4.078 -5.658,-5.354 -0.951,-1.26 -1.146,-1.885 -1.34,-2.344 -1.04,-3.15 -0.555,-6.633 0.012,-9.592 0.284,-1.484 0.585,-2.82 0.686,-3.982 0.05,-0.581 0.056,-1.124 -0.062,-1.654 -0.118,-0.531 -0.4,-1.084 -0.898,-1.439 l -1.176,-0.84 -0.373,1.395 c -0.124,0.465 -0.291,1.306 -0.654,2.59 -0.363,1.284 -0.906,2.963 -1.725,4.906 -1.637,3.886 -4.376,8.827 -8.982,13.777 -0.001,0.001 -0.003,0.002 -0.004,0.004 -5.136,5.324 -14.511,11.065 -22.725,9.012 l -0.016,-0.004 -0.014,-0.004 c -0.278,-0.061 -0.313,-0.101 -0.512,-0.16 0.028,-0.012 0.04,-0.022 0.068,-0.033 l 0.004,-0.002 0.004,-0.002 c 4.185,-1.707 6.656,-5.714 8.217,-9.752 1.561,-4.038 2.242,-8.215 2.686,-10.48 l -1.924,-0.529 c -1.129,3.171 -2.463,4.909 -3.867,6 -1.404,1.091 -2.934,1.565 -4.582,2.023 -1.648,0.458 -3.418,0.89 -5.051,2.043 -1.633,1.153 -3.038,3.019 -4.01,6.066 l 1.906,0.607 c 0.878,-2.752 1.997,-4.15 3.258,-5.041 1.261,-0.891 2.754,-1.283 4.432,-1.75 1.677,-0.467 3.534,-1.019 5.273,-2.371 0.429,-0.334 0.807,-0.884 1.213,-1.32 -0.347,1.331 -0.674,2.673 -1.199,4.031 -1.464,3.787 -3.693,7.228 -7.107,8.621 -0.405,0.162 -0.797,0.338 -1.154,0.568 -0.359,0.231 -0.795,0.501 -0.916,1.201 -0.06,0.35 0.053,0.759 0.242,1.023 0.189,0.265 0.416,0.427 0.658,0.564 0.48,0.272 1.077,0.456 1.914,0.641 9.378,2.338 19.188,-3.907 24.652,-9.578 l 0.008,-0.006 0.006,-0.006 c 4.792,-5.148 7.651,-10.306 9.363,-14.369 0.09,-0.214 0.106,-0.333 0.189,-0.541 -0.458,2.754 -0.786,5.89 0.266,9.045 l 0.014,0.039 0.016,0.037 c 0.102,0.239 0.505,1.345 1.609,2.809 1.105,1.464 2.948,3.401 6.105,5.795 l 0.065,0.049 0.072,0.039 c 0.447,0.237 0.851,0.436 1.273,0.566 0.423,0.131 0.942,0.234 1.492,-0.051 0.551,-0.285 0.805,-0.884 0.873,-1.395 0.068,-0.511 0.025,-1.059 -0.082,-1.758 l 0.006,0.053 c -0.29,-2.899 -0.013,-4.248 0.525,-5.506 l 0.008,-0.023 0.01,-0.021 c 1.628,-4.372 5.76,-8.142 9.008,-12.584 3.245,-4.438 5.5,-9.786 2.896,-16.891 -0.14,-0.435 -0.299,-0.534 -0.455,-0.844 1.237,0.347 2.678,0.603 4.246,0.668 3.214,0.133 6.897,-0.653 9.256,-3.686 l -1.578,-1.229 c -1.842,2.368 -4.758,3.033 -7.594,2.916 -2.836,-0.117 -5.592,-1.165 -6.244,-1.621 z"></path>
    <path d="m 296.9,124.8 c 0.4,3 1.4,5.9 2.6,8.6 1.3,2.6 3.1,5 5.3,6.9 2.2,1.9 4.8,3.1 7.6,3.9 2.8,0.8 5.7,0.9 8.7,0.9 v 0 h 0.1 c 0.2,0 0.3,0 0.3,0 0.1,0 0,0 -0.1,0.2 0,0.2 0,0.2 0,0.2 0,0 -0.1,-0.1 -0.2,-0.2 l -0.1,-0.1 H 321 c -1.7,-1.4 -3.1,-3.1 -4.1,-5 -1,-2 -1.6,-4 -1.9,-6.1 l -0.1,-0.8 c 0,-0.3 -0.1,-0.4 -0.1,-0.7 -0.1,-0.4 -0.3,-0.9 -0.4,-1.4 -0.3,-0.9 -0.7,-1.8 -1.2,-2.6 -0.5,-0.9 -1,-1.7 -1.7,-2.5 -0.6,-0.8 -1.3,-1.5 -2,-2.4 l 0.3,-0.3 c 1.5,1.4 3.1,2.7 4.2,4.4 0.6,0.9 1.2,1.8 1.6,2.7 0.2,0.5 0.4,1 0.6,1.5 0.1,0.3 0.2,0.5 0.2,0.9 l 0.2,0.8 c 0.4,2 1,3.8 2,5.4 0.9,1.7 2.2,3.1 3.7,4.2 l -0.2,-0.1 c 0.3,0.2 0.7,0.4 1,0.9 0.3,0.4 0.5,1 0.3,1.7 -0.3,0.7 -0.8,1 -1.2,1.2 -0.4,0.2 -0.9,0.2 -1.2,0.2 h 0.1 c -3.1,0.2 -6.3,-0.1 -9.4,-1 -0.8,-0.2 -1.5,-0.5 -2.2,-0.8 -0.8,-0.3 -1.4,-0.7 -2.1,-1 -1.4,-0.8 -2.7,-1.7 -3.8,-2.8 -2.3,-2.2 -4.1,-4.8 -5.2,-7.8 -1,-2.8 -1.6,-5.9 -1.5,-9 z"></path>
    <path d="m 306.9,108.1 c 2.5,2.4 5.2,4.5 8.2,6.3 2.9,1.8 6,3.3 9.2,4.2 3.2,0.9 6.5,1.4 9.9,0.9 0.9,-0.1 1.6,-0.3 2.5,-0.4 0.8,-0.3 1.6,-0.4 2.4,-0.7 1.5,-0.5 3.1,-1.3 4.5,-2 h 0.1 0.1 c 0.2,-0.1 0.3,-0.2 0.4,-0.3 0.1,-0.1 0,-0.1 0,0 0,0.1 0.1,0.1 0,0.1 -0.1,0 -0.2,-0.1 -0.3,-0.1 h -0.2 -0.1 c -2.4,-0.5 -4.8,-1.4 -6.7,-2.9 -2,-1.4 -3.7,-3.2 -5,-5.3 -1.2,-1.9 -2.8,-3.4 -4.7,-4.8 -1.9,-1.4 -4,-2.3 -6.1,-3.1 l 0.1,-0.3 c 2.2,0.6 4.5,1.4 6.5,2.5 2,1.2 4,2.8 5.4,4.8 1.4,1.8 3,3.4 4.8,4.6 1.8,1.3 3.9,2 6,2.4 h -0.2 c 0.4,0 0.9,0.1 1.4,0.3 0.5,0.3 0.9,0.8 1.1,1.5 0.1,0.7 -0.3,1.4 -0.6,1.7 -0.3,0.4 -0.8,0.6 -1.1,0.8 l 0.1,-0.1 c -3.1,1.8 -6.5,3.1 -10.2,3.4 -0.9,0.1 -1.8,0.1 -2.7,0.1 -0.9,0 -1.8,-0.1 -2.7,-0.3 -1.8,-0.3 -3.6,-0.7 -5.2,-1.2 -3.3,-1.2 -6.5,-2.9 -9.3,-5 -1.4,-1 -2.7,-2.2 -4,-3.4 -1.4,-1 -2.6,-2.3 -3.6,-3.7 z"></path>
    <path d="m 346.8,96.2 c -0.6,0 -1.3,0.1 -2,-0.1 -0.6,-0.2 -1.3,-0.3 -1.9,-0.5 L 342,95.3 c -0.3,-0.2 -0.6,-0.3 -0.9,-0.4 -0.6,-0.3 -1.1,-0.7 -1.7,-1 -2.1,-1.4 -4,-3.1 -6.1,-4.3 -2,-1.3 -4.2,-2.1 -6.5,-2.6 -2.4,-0.4 -4.8,-0.3 -7.4,-0.2 l -0.1,-0.3 c 2.4,-0.8 4.9,-1.4 7.6,-1.3 0.7,0 1.4,0.2 2,0.3 0.7,0.1 1.3,0.3 2,0.5 1.3,0.4 2.5,1 3.6,1.7 1.1,0.8 2.1,1.5 3.1,2.4 l 2.8,2.5 c 2,1.6 4,2.9 6.4,3.6 z"></path>
    <path d="m 328.6,137.3 c 1.3,2.4 2.9,4.5 4.8,6.3 1.9,1.8 4.1,3.2 6.5,4.1 1.2,0.4 2.4,0.8 3.7,0.9 1.3,0.2 2.5,0.2 3.7,0.1 2.5,-0.2 5,-0.8 7.4,-1.8 v 0 h 0.1 c 0.1,0 0.3,-0.1 0.3,-0.1 0,0 -0.1,0.1 -0.1,0.3 0,0.2 0.1,0.3 0.1,0.3 0,0 -0.1,0 -0.2,-0.1 h -0.2 v 0 c -1.8,-0.7 -3.5,-1.7 -4.9,-3 -1.4,-1.3 -2.5,-2.9 -3.3,-4.6 l -0.3,-0.6 c -0.1,-0.2 -0.2,-0.3 -0.3,-0.5 -0.2,-0.3 -0.4,-0.7 -0.7,-1 -0.5,-0.7 -1.1,-1.3 -1.8,-1.9 -1.3,-1.1 -2.8,-2 -4.3,-3 l 0.2,-0.3 c 1.6,0.6 3.4,1.4 4.8,2.4 0.8,0.5 1.5,1.1 2.1,1.8 0.3,0.3 0.6,0.7 0.9,1.1 0.2,0.2 0.3,0.3 0.4,0.6 l 0.3,0.6 c 0.9,1.4 2,2.8 3.2,3.9 1.3,1.1 2.7,1.9 4.2,2.4 l -0.2,-0.1 c 0.3,0.1 0.8,0.2 1.2,0.4 0.3,0.3 0.8,0.8 0.8,1.4 0,0.7 -0.4,1.2 -0.7,1.4 -0.3,0.3 -0.7,0.4 -1,0.5 h 0.1 c -2.6,1 -5.3,1.7 -8.1,1.9 -0.7,0.1 -1.4,0 -2.1,0 -0.7,-0.1 -1.4,-0.1 -2.1,-0.3 -1.4,-0.3 -2.7,-0.6 -4.1,-1.2 -2.5,-1.1 -4.8,-2.9 -6.6,-4.9 -1.7,-2 -3.1,-4.4 -3.8,-7 z"></path>
    <path d="m 370.1,91.5 c -2,-2.2 -4.5,-3.9 -7.2,-4.9 -2.7,-1 -5.6,-1.4 -8.6,-1.6 -3,-0.3 -6,-0.4 -9.1,-1 -1.5,-0.3 -3.1,-0.8 -4.5,-1.5 -1.4,-0.8 -2.7,-1.8 -3.6,-3.1 l 0.3,-0.3 c 2.3,2 5.2,2.6 8.1,3 1.4,0.2 3,0.3 4.4,0.3 1.5,0.1 3,0.2 4.5,0.3 3.1,0.3 6.2,0.8 9,2.3 3.1,1.4 5.5,3.7 6.7,6.5 z"></path>
    <path d="m 336.3,100.5 c 2.2,1.6 4.8,2.2 7.4,2.6 l 4,0.6 c 1.4,0.3 2.7,0.5 4.1,0.8 1.4,0.4 2.7,0.9 4,1.4 0.6,0.3 1.3,0.7 1.9,1 0.6,0.4 1.2,0.8 1.7,1.2 2.2,1.8 3.9,4 5.3,6.4 l -0.3,0.2 c -2,-1.9 -3.9,-3.7 -6,-5.1 -2.2,-1.4 -4.5,-2.4 -7.1,-3.1 -2.5,-0.8 -5.2,-1.1 -7.8,-1.9 -0.7,-0.2 -1.4,-0.3 -2,-0.7 l -0.9,-0.4 -0.9,-0.5 c -0.6,-0.3 -1.2,-0.8 -1.7,-1.2 -0.8,-0.2 -1.3,-0.7 -1.7,-1.3 z"></path>
    <path d="m 381.9,108.7 c -2.3,-0.2 -4.5,-1.4 -6.5,-2.5 -2,-1.2 -3.7,-2.6 -5.6,-3.7 -1.9,-1.2 -3.7,-2.2 -5.8,-2.9 -2,-0.7 -4.2,-1 -6.5,-1.1 l -0.1,-0.3 c 2.2,-0.8 4.7,-0.8 7,-0.3 2.3,0.5 4.5,1.5 6.5,2.8 2,1.3 3.7,2.7 5.4,4.2 2,1.3 3.6,2.7 5.6,3.8 z"></path>
    <path d="m 349,124.6 c 2.2,-0.8 4.6,-1.1 7,-0.9 2.4,0.2 4.7,0.9 6.8,2 2.1,1.1 4.1,2.3 6,3.5 1.9,1.2 3.7,2.3 6,2.5 v 0.3 c -1.1,0.3 -2.4,0.3 -3.6,-0.1 -0.6,-0.1 -1.1,-0.3 -1.7,-0.5 -0.5,-0.3 -1.1,-0.4 -1.6,-0.7 -2.1,-1 -4,-2.1 -6,-3.1 -1,-0.5 -2,-0.9 -3,-1.3 -0.5,-0.2 -1,-0.3 -1.5,-0.5 -0.5,-0.1 -1,-0.3 -1.6,-0.4 -2.2,-0.6 -4.5,-0.7 -6.8,-0.8 z"></path>
    <path d="m 324.1,26.3 c 1,0.1 2,0.6 2.7,1.2 0.9,0.6 1.5,1.2 2.3,1.9 0.8,0.6 1.4,1.2 2.2,1.7 0.8,0.5 1.5,0.9 2.2,0.9 l -0.8,2.5 c -1.1,-0.4 -2,-1.2 -2.7,-1.9 -0.8,-0.8 -1.4,-1.5 -2,-2.3 -0.6,-0.8 -1.2,-1.5 -1.8,-2.2 -0.6,-0.7 -1.4,-1.3 -2.2,-1.5 v -0.3 z"></path>
    <path d="M 335,8.5 C 334,8.4 333.1,8.2 332.2,8 331.3,7.7 330.4,7.5 329.6,7.1 328.7,6.7 328,6.2 327.3,5.5 326.6,4.8 326.1,4.1 325.9,3.2 l 0.3,-0.1 c 0.5,0.7 1.1,1.3 1.8,1.7 0.7,0.4 1.4,0.7 2.2,0.9 0.8,0.2 1.6,0.3 2.4,0.3 0.8,0 1.7,0 2.4,-0.1 z"></path>
    <path d="m 306.3,21.7 c 0.7,0.3 1.3,0.6 1.9,0.9 0.6,0.4 1.2,0.8 1.7,1.3 1.1,0.9 2.1,2 3,3.1 0.9,1.2 1.5,2.5 2,3.8 0.4,1.4 0.8,2.8 0.5,4.3 h -0.3 c -1.1,-2.5 -2.5,-4.7 -4,-6.9 -0.8,-1.1 -1.5,-2.1 -2.4,-3.2 -0.4,-0.5 -0.8,-1 -1.3,-1.6 -0.3,-0.6 -0.8,-1.1 -1.1,-1.7 z"></path>
    <path d="m 307.1,40.5 c 0.8,0.8 1.3,1.5 2,2.2 0.6,0.7 1.3,1.4 1.9,2.1 1.3,1.4 2.6,2.7 3.8,4.3 l -0.2,0.3 c -1.1,-0.2 -2,-0.6 -2.9,-1.2 -0.9,-0.6 -1.7,-1.3 -2.4,-2 -0.7,-0.7 -1.3,-1.7 -1.7,-2.6 -0.4,-0.9 -0.6,-2 -0.5,-3.1 z"></path>
    <path d="m 292.2,42.4 c 1.3,0.7 2.1,2 2.6,3.4 0.5,1.4 0.8,2.8 0.9,4.2 l 0.5,4 c 0.2,1.3 0.4,2.5 0.9,3.9 l -0.3,0.2 c -1.1,-0.9 -1.9,-2.3 -2.4,-3.7 -0.5,-1.4 -0.8,-2.8 -0.9,-4.2 l -0.4,-4 c -0.1,-1.3 -0.3,-2.5 -0.9,-3.8 z"></path>
    <path d="m 287.3,54.6 c 1.1,1.6 1.6,3.7 1.5,5.8 0,0.3 0,0.5 -0.1,0.8 l -0.2,0.8 c -0.1,0.5 -0.3,1 -0.4,1.5 -0.2,0.5 -0.3,0.9 -0.6,1.4 -0.2,0.5 -0.4,0.9 -0.7,1.4 -1.9,3.5 -4.3,6.3 -4.8,10.1 h -0.3 c -0.6,-2 -0.2,-4.1 0.6,-6 0.8,-1.9 1.8,-3.6 2.6,-5.2 0.9,-1.6 1.6,-3.2 2,-5 0.6,-1.7 0.5,-3.6 0.4,-5.6 z"></path>
    <path d="m 277.6,63.4 c 0.2,1.9 -0.3,3.9 -1.3,5.7 -0.5,0.9 -1.2,1.6 -1.9,2.4 -0.3,0.3 -0.8,0.7 -1.1,1 -0.4,0.3 -0.8,0.6 -1.2,0.9 -1.6,1.1 -3.4,1.9 -5,2.6 -1.6,0.8 -3.2,1.6 -4.3,3.1 l -0.3,-0.2 c 0.3,-0.9 0.8,-1.9 1.4,-2.6 0.7,-0.8 1.4,-1.4 2.3,-1.9 1.6,-1.1 3.2,-2 4.8,-2.9 1.5,-0.9 2.9,-2 4,-3.4 1,-1.4 1.8,-3 2.6,-4.7 z"></path>
    <path d="m 259.3,-28.8 c 0.3,0.8 0.8,1.5 1.4,1.8 0.2,0.1 0.3,0.1 0.4,0.2 0.2,0 0.3,0 0.5,0 0.4,0 0.8,0 1.2,0 0.8,-0.1 1.4,-0.2 2.2,-0.4 0.8,-0.2 1.5,-0.5 2.5,-0.7 1.9,-0.4 3.8,-0.1 5.4,0.6 1.6,0.7 3.1,1.6 4.4,2.7 l -0.2,0.3 c -1.7,-0.4 -3.2,-0.9 -4.8,-1.3 -1.6,-0.4 -3,-0.4 -4.4,-0.2 -0.8,0.2 -1.5,0.4 -2.4,0.5 -0.9,0.2 -1.9,0.3 -2.7,0.1 -0.4,0 -0.9,-0.2 -1.4,-0.3 -0.2,-0.1 -0.5,-0.2 -0.7,-0.3 -0.3,-0.1 -0.4,-0.3 -0.7,-0.4 -0.7,-0.8 -0.9,-1.8 -0.7,-2.6 z"></path>
    <path d="m 278.9,-28 -3.8,-1.3 c -1.3,-0.3 -2.6,-0.8 -3.7,-1 -0.6,-0.2 -1.3,-0.3 -1.9,-0.4 -0.6,-0.2 -1.3,-0.2 -1.9,-0.3 -0.7,-0.1 -1.3,-0.1 -1.9,0 -0.7,0.1 -1.4,0.1 -1.9,0.3 l -0.2,-0.2 c 0.3,-0.3 0.6,-0.5 0.9,-0.7 0.3,-0.2 0.7,-0.3 0.9,-0.4 0.7,-0.3 1.4,-0.4 2.1,-0.4 1.4,-0.1 2.8,0.1 4.2,0.4 1.4,0.3 2.6,0.9 3.9,1.5 1.2,0.7 2.4,1.5 3.3,2.5 z"></path>
    <path d="m 229.3,-17.4 c -0.1,0.4 -0.3,0.8 -0.6,1.1 -0.3,0.3 -0.7,0.6 -1,0.8 -0.7,0.4 -1.4,0.8 -2,1.4 h -0.1 c -0.4,0.3 -0.8,0.7 -1.1,1.1 -0.2,0.3 -0.3,0.4 -0.4,0.7 -0.1,0.3 -0.3,0.5 -0.3,0.7 l -2.3,-1.3 c 0.3,-0.3 0.5,-0.6 0.8,-0.8 0.3,-0.3 0.5,-0.5 0.8,-0.8 0.6,-0.4 1.2,-0.9 1.9,-1.1 h -0.1 c 0.8,-0.3 1.5,-0.6 2.3,-0.9 0.3,-0.1 0.7,-0.3 1,-0.4 0.3,-0.2 0.5,-0.5 0.8,-0.8 z"></path>
    <path d="m 274.4,10.5 c 0.5,0 0.9,0.2 1.3,0.4 0.3,0.3 0.7,0.5 0.9,0.9 0.5,0.7 0.9,1.5 0.6,2.5 l -0.2,0.1 c -0.3,-0.3 -0.6,-0.6 -0.9,-0.9 -0.3,-0.3 -0.4,-0.6 -0.7,-0.8 -0.2,-0.7 -0.6,-1.3 -1,-2.2 z"></path>
    <path d="m 279.8,12.9 c 0.4,0.1 0.7,0.3 0.9,0.6 0.3,0.3 0.4,0.5 0.6,0.9 0.3,0.6 0.3,1.4 0,2 h -0.2 c -0.3,-0.3 -0.5,-0.5 -0.6,-0.8 -0.2,-0.3 -0.3,-0.5 -0.4,-0.8 -0.3,-0.5 -0.4,-1.1 -0.3,-1.9 z"></path>
    <path d="m 271.6,58.1 c -1.9,0.9 -3.6,2 -5,3.3 -1.4,1.4 -2.6,2.9 -3.9,4.5 -1.4,1.6 -2.9,3.2 -4.8,4.2 -1.9,1 -4.2,1.5 -6.2,1.4 l -0.1,-0.3 c 2,-0.8 3.7,-1.5 5.4,-2.6 1.5,-1.1 2.8,-2.6 4.2,-4.1 0.7,-0.8 1.4,-1.5 2.1,-2.3 0.8,-0.8 1.5,-1.5 2.5,-2.1 1.6,-1.3 3.7,-2 5.8,-2 z"></path>
    <path d="m 269.2,-18.3 c -0.8,0.5 -1.5,1 -2.3,1.5 -0.8,0.5 -1.4,1.1 -2.1,1.6 -1.4,1.1 -2.6,2.4 -4.1,3.7 l -0.2,-0.1 c 0.3,-0.9 0.8,-1.7 1.4,-2.5 0.6,-0.8 1.3,-1.4 2,-2 0.8,-0.6 1.6,-1.1 2.5,-1.5 0.9,-0.4 1.8,-0.6 2.8,-0.7 z"></path>
    <path d="m 221.2,-15.7 c -0.3,-0.5 -0.5,-1.1 -0.5,-1.8 0,-0.7 0.3,-1.4 0.8,-2 0.3,-0.3 0.7,-0.5 1.1,-0.6 0.4,-0.1 0.8,0 1.2,0.1 0.8,0.3 1.2,0.8 1.5,0.9 0.3,0.2 0.8,0.3 1.1,0.2 0.3,0 0.7,-0.2 1.1,-0.5 0.2,-0.2 0.4,-0.4 0.8,-0.6 0.3,-0.3 0.8,-0.3 1.2,-0.3 0.8,0.2 1.4,0.8 1.4,1.4 l -0.3,0.1 c -0.3,-0.4 -0.9,-0.6 -1.2,-0.5 -0.2,0 -0.3,0.1 -0.4,0.3 l -0.5,0.6 c -0.3,0.5 -1.1,1 -1.9,1.2 -0.8,0.2 -1.5,0.1 -2.2,-0.3 -0.7,-0.3 -1.1,-0.8 -1.4,-0.9 -0.2,-0.1 -0.3,-0.1 -0.4,-0.1 -0.2,0 -0.3,0 -0.4,0.1 -0.3,0.2 -0.6,0.6 -0.8,1 -0.1,0.5 -0.2,1.1 -0.2,1.7 z"></path>
    <path d="m 252.6,-8.3 c -1.1,-0.4 -2.1,-0.9 -3.1,-1.3 -1,-0.4 -2,-0.8 -3,-1.2 -1,-0.3 -2,-0.7 -3.1,-1 -1,-0.3 -2,-0.7 -3.1,-1.1 v -0.3 c 1.1,-0.2 2.3,-0.2 3.4,0 1.1,0.2 2.2,0.4 3.3,0.9 1.1,0.4 2.1,0.9 3.1,1.6 1,0.6 1.9,1.4 2.5,2.4 z"></path>
    <path d="m 230.5,-15.6 c 0.1,0.4 0,0.9 -0.3,1.4 -0.3,0.5 -0.7,0.7 -1,0.9 -0.3,0.3 -0.7,0.3 -1.1,0.5 -0.3,0.1 -0.8,0.3 -1.2,0.3 l -0.1,-0.2 c 0.4,-0.8 1.1,-1.3 1.8,-1.7 0.3,-0.2 0.7,-0.3 0.9,-0.5 0.3,-0.2 0.6,-0.4 1,-0.7 z"></path>
    <path d="m 276.9,-7.7 c -0.2,0.3 -0.4,0.4 -0.7,0.4 -0.3,0.1 -0.4,0.1 -0.7,0.1 -0.2,0 -0.4,-0.1 -0.6,-0.3 -0.2,-0.1 -0.3,-0.3 -0.5,-0.6 l 0.1,-0.2 c 0.3,-0.2 0.5,-0.3 0.7,-0.3 0.2,0 0.4,0 0.6,0 0.2,0 0.3,0.1 0.5,0.3 0.2,0.2 0.4,0.4 0.6,0.6 z"></path>
    <path d="m 272.6,-6.6 c -0.1,0.3 -0.3,0.5 -0.5,0.5 -0.3,0.1 -0.4,0.1 -0.6,0.1 -0.2,0 -0.3,-0.2 -0.5,-0.3 -0.2,-0.2 -0.3,-0.3 -0.3,-0.6 l 0.1,-0.2 c 0.3,-0.2 0.4,-0.3 0.6,-0.3 0.2,0 0.3,0 0.4,0 0.2,0 0.3,0.1 0.3,0.3 0.1,0.1 0.2,0.3 0.5,0.5 z"></path>
    <path d="m 280.8,-9.5 c -0.1,0.3 -0.3,0.5 -0.6,0.6 -0.2,0.1 -0.4,0.2 -0.7,0.2 -0.3,0 -0.4,0 -0.6,-0.1 -0.2,-0.1 -0.4,-0.2 -0.6,-0.4 v -0.2 c 0.2,-0.3 0.4,-0.3 0.6,-0.4 0.2,-0.1 0.4,-0.1 0.6,-0.1 0.2,0 0.4,0.1 0.6,0.1 0.3,-0.1 0.4,0 0.7,0.3 z"></path>
    <path d="m 284,-12 c -0.1,0.3 -0.3,0.5 -0.5,0.7 -0.2,0.2 -0.4,0.3 -0.6,0.3 -0.2,0 -0.4,0 -0.7,0 -0.3,-0.1 -0.4,-0.2 -0.7,-0.4 v -0.2 c 0.2,-0.3 0.3,-0.4 0.6,-0.5 0.2,-0.1 0.3,-0.2 0.6,-0.2 0.2,0 0.4,0 0.6,0.1 0.2,-0.1 0.4,0 0.7,0.2 z"></path>
    <path d="m 286.9,-14.3 c -0.3,0.2 -0.4,0.3 -0.6,0.4 -0.2,0.1 -0.3,0.2 -0.6,0.2 -0.2,0 -0.4,0 -0.6,-0.1 -0.2,-0.1 -0.4,-0.2 -0.7,-0.3 v -0.2 c 0.2,-0.3 0.3,-0.4 0.6,-0.5 0.2,-0.1 0.4,-0.2 0.6,-0.2 0.3,0 0.4,0 0.7,0.2 0.3,0 0.5,0.2 0.6,0.5 z"></path>
    <path d="m 258.5,3.4 c 0.1,0.6 0.1,1.3 -0.2,1.9 -0.2,0.6 -0.5,1.1 -0.9,1.6 -0.4,0.5 -0.9,0.9 -1.4,1.2 -0.5,0.3 -1.1,0.5 -1.8,0.5 l -0.1,-0.2 c 0.9,-0.9 1.6,-1.5 2.3,-2.4 0.3,-0.3 0.7,-0.8 1,-1.2 0.4,-0.4 0.7,-0.9 1.1,-1.4 z"></path>
    <path d="m 288.7,19.7 c 0.2,-0.9 0.6,-1.7 1.1,-2.5 0.5,-0.8 1.1,-1.4 1.8,-2 0.7,-0.6 1.4,-1.1 2.2,-1.5 0.8,-0.4 1.6,-0.8 2.5,-0.9 l 0.2,0.3 c -0.6,0.7 -1.3,1.3 -1.9,1.9 -0.7,0.6 -1.3,1.1 -2,1.6 l -2,1.6 c -0.5,0.4 -1,1 -1.9,1.5 z"></path>
    <path d="m 305.4,8.4 c 0.7,-1 1.4,-1.9 2,-2.8 0.6,-0.9 1.1,-1.9 1.6,-2.9 0.5,-1 0.9,-2 1.3,-3.1 0.3,-1 0.7,-2.1 1,-3.2 h 0.3 c 0.3,1.2 0.3,2.4 0.2,3.7 -0.2,1.2 -0.6,2.4 -1.1,3.5 -0.3,0.5 -0.6,1.1 -0.9,1.6 -0.4,0.5 -0.8,1 -1.2,1.4 -0.9,0.7 -2,1.4 -3.2,1.8 z"></path>
    <path d="m 315.9,9.8 c 0.3,1.2 0.8,2.1 1.4,2.9 0.7,0.9 1.4,1.6 2.1,2.6 0.7,0.9 1.4,2.1 1.5,3.5 0.1,1.4 -0.2,2.7 -0.9,3.7 l -0.3,-0.1 c 0,-1.2 -0.2,-2.2 -0.5,-3.1 -0.3,-0.9 -0.9,-1.8 -1.5,-2.6 -0.6,-0.9 -1.4,-1.9 -1.9,-3.1 -0.5,-1.2 -0.7,-2.7 0.1,-3.8 z"></path>
    <path d="m 252.1,-11.1 c -0.8,-0.2 -1.4,-0.4 -2.1,-0.7 l -2,-0.8 c -0.7,-0.3 -1.4,-0.5 -2,-0.8 -0.7,-0.3 -1.4,-0.6 -2,-1 l 0.1,-0.2 c 0.8,-0.1 1.5,0.1 2.3,0.2 0.8,0.2 1.4,0.3 2.2,0.7 0.7,0.3 1.4,0.6 2,1.1 0.4,0.3 1,0.9 1.5,1.5 z"></path>
    <path d="m 262.7,51.7 c 1.2,-0.3 2.4,-0.4 3.6,-0.4 1.2,-0.1 2.5,0 3.7,0.1 1.2,0.1 2.4,0.3 3.5,0.3 0.6,0 1.1,0 1.6,-0.1 0.5,-0.1 0.9,-0.3 1.3,-0.4 l -0.2,0.2 c 0.6,-0.7 1.3,-1.4 1.5,-2 0.1,-0.3 0.2,-0.6 0.2,-1 0,-0.4 0,-0.9 0,-1.4 0,-1 0,-2 0.1,-3 v -0.3 c 0,-0.2 0.1,-0.3 0.1,-0.5 0.1,-0.3 0.2,-0.6 0.3,-0.8 0.2,-0.5 0.4,-0.9 0.6,-1.4 0.9,-1.7 1.5,-3.3 2,-5.1 0.4,-1.8 0.7,-3.7 0.9,-5.5 h 0.3 c 0.4,1.9 0.5,3.9 0.3,5.9 -0.2,2 -0.9,3.9 -1.6,5.7 -0.2,0.4 -0.3,0.8 -0.5,1.3 -0.1,0.2 -0.1,0.3 -0.2,0.5 0,0.1 0,0.2 0,0.3 v 0.3 c -0.1,0.9 -0.1,1.9 -0.1,2.8 0,0.5 0,0.9 0,1.4 0,0.5 -0.1,1.2 -0.3,1.8 -0.6,1.2 -1.4,1.8 -2,2.5 l -0.1,0.1 -0.1,0.1 c -0.7,0.3 -1.4,0.6 -2.1,0.6 -0.7,0.1 -1.4,0 -2,-0.1 -1.3,-0.2 -2.4,-0.4 -3.6,-0.7 -1.2,-0.3 -2.3,-0.4 -3.5,-0.7 -1.3,-0.3 -2.5,-0.4 -3.7,-0.5 z"></path>
    <path d="m 233.9,-21.6 c 1.9,-0.6 3.6,-1.4 5.3,-2.2 0.9,-0.4 1.7,-0.9 2.6,-1.4 0.9,-0.4 1.7,-0.9 2.7,-1.3 2,-0.4 3.7,-0.8 5.7,-1.1 1.9,-0.3 3.8,-0.6 5.7,-0.8 v 0.2 c -1.8,0.7 -3.7,1.2 -5.5,1.6 -0.9,0.3 -1.9,0.4 -2.8,0.7 -0.9,0.3 -1.9,0.4 -2.8,0.6 -0.8,0.3 -1.7,0.7 -2.6,1.1 -0.8,0.4 -1.7,0.9 -2.6,1.2 -1.9,0.8 -3.9,1.3 -5.7,1.4 z"></path>
    <path d="m 302.1,43.5 c -1.3,-0.6 -2.4,-1.6 -3,-3.1 -0.6,-1.4 -0.6,-2.9 -0.6,-4.2 0.1,-1.4 0.2,-2.5 -0.1,-3.6 -0.3,-1.1 -0.8,-2.1 -1.6,-3.2 l 0.2,-0.3 c 1.3,0.5 2.5,1.4 3.1,2.9 0.7,1.4 0.7,3 0.6,4.2 -0.1,1.4 -0.2,2.5 0,3.7 0.2,1.2 0.8,2.3 1.4,3.6 z"></path>
    <path d="m 272.5,-21.5 c -0.9,0.9 -3,1.4 -5.4,1.6 -2.4,0.2 -5,0.2 -5.4,-1 -0.5,-0.9 1,-5.1 2.6,-5.1 1.6,-0.2 5.9,2.7 8.2,4.5 z" fill="#ffffff" stroke="#000000"></path>
    <path d="m 265.7,-19.7 c 0,0 -0.6,-0.9 -0.6,-2.4 0,-1.5 0.9,-2.7 0,-2.7 -0.9,0 -2.1,1.3 -2.1,3.1 0,1.8 0.5,1.8 0.5,1.8"></path>
    <path d="m 287.4,126.5 c 0.1,-1.3 0.3,-2.5 0.6,-3.7 0.3,-1.2 0.8,-2.4 1.4,-3.4 0.6,-1.1 1.2,-2 1.8,-3.1 0.5,-1 0.9,-2.1 1.1,-3.3 h 0.3 c 0,1.2 -0.3,2.4 -0.7,3.6 -0.4,1.1 -0.9,2.2 -1.3,3.3 -0.4,1.1 -0.7,2.1 -0.9,3.3 -0.2,1.1 -0.2,2.2 -0.1,3.3 z"></path>
    <path d="m 311.9,63.5 c 0.9,1.6 2.3,2.6 3.7,3.7 1.4,1 3,2 4.4,3.1 1.4,1.1 2.8,2.6 3.8,4.2 1,1.6 1.7,3.4 2,5.3 l -0.3,0.1 c -1,-1.5 -2,-3 -3.1,-4.2 -1.1,-1.3 -2.4,-2.5 -3.7,-3.6 -1.4,-1.1 -2.8,-2.2 -4.1,-3.6 -1.4,-1.4 -2.6,-3.2 -2.7,-5 z"></path>
    <path d="m 335.7,69.4 c -1.2,-1.4 -2.6,-2.3 -4.1,-3 -1.5,-0.6 -3.1,-1.1 -4.8,-1.7 -1.7,-0.6 -3.4,-1.5 -4.8,-2.7 -1.4,-1.2 -2.5,-2.7 -3.3,-4.3 l 0.3,-0.2 c 1.4,1.1 2.7,2.2 4.1,3.1 1.4,0.9 2.9,1.5 4.5,2.2 1.6,0.7 3.3,1.3 4.8,2.3 1.6,0.9 2.9,2.5 3.3,4.3 z"></path>
    <path d="m 323.2,45.4 c 0.5,0.9 0.9,1.9 1.3,2.7 0.4,0.8 0.9,1.7 1.3,2.5 0.8,1.7 1.8,3.3 2.5,5.2 l -0.3,0.3 c -1,-0.4 -1.8,-1.1 -2.6,-1.9 -0.7,-0.8 -1.3,-1.6 -1.8,-2.5 -0.5,-0.9 -0.8,-2 -0.9,-3 0,-1.2 0.1,-2.3 0.5,-3.3 z"></path>
    <path d="m 264.6,117.1 c 1.4,-2.5 2.3,-5 2.8,-7.7 0.5,-2.7 0.6,-5.4 0.9,-8.2 0.1,-0.7 0.2,-1.4 0.3,-2.1 0.1,-0.7 0.2,-1.4 0.3,-2.1 l 0.3,-1 0.3,-1 0.3,-1 0.4,-1 c 1.1,-2.7 2.7,-5.1 4.8,-7.1 l 0.3,0.3 c -1.4,2.5 -2.6,4.8 -3.3,7.5 -0.8,2.5 -1.1,5.3 -1.4,8 -0.3,2.7 -0.5,5.6 -1.4,8.4 -1.1,2.5 -2.6,5.1 -4.6,7 z"></path>
    <path d="m 287.3,114.6 c -1.3,-2.6 -1.4,-5.7 -0.9,-8.5 0.4,-2.9 1.3,-5.5 1.9,-8.2 0.7,-2.6 1.2,-5.4 1.4,-8 0.2,-2.7 -0.1,-5.4 -0.6,-8.2 l 0.3,-0.1 c 1.3,2.6 2,5.4 2.1,8.3 0,0.8 0.1,1.4 0,2.2 -0.1,0.7 -0.1,1.4 -0.2,2.1 -0.2,1.4 -0.5,2.8 -0.9,4.2 -0.8,2.7 -1.6,5.4 -2.4,8 -0.6,2.7 -1,5.4 -0.7,8.2 z"></path>
    <path d="m 245.5,151 c -0.7,2.3 -1.9,4.3 -3.3,6.3 -1.4,1.9 -3.3,3.6 -5.4,4.8 -2.1,1.2 -4.5,2 -7,2.2 -1.2,0.2 -2.5,0.1 -3.7,0 -1.2,-0.1 -2.4,-0.3 -3.6,-0.6 h 0.1 c -0.3,-0.1 -0.7,-0.2 -1.1,-0.3 -0.3,-0.2 -0.8,-0.7 -0.9,-1.4 -0.1,-0.7 0.2,-1.2 0.5,-1.5 0.3,-0.3 0.7,-0.5 1.1,-0.7 l -0.2,0.1 c 1.4,-0.9 2.9,-1.9 3.9,-3.1 1.1,-1.4 1.9,-2.8 2.5,-4.5 0.3,-0.9 0.9,-1.8 1.4,-2.6 0.5,-0.8 1.1,-1.5 1.7,-2.3 1.3,-1.4 2.7,-2.6 4.2,-3.7 l 0.2,0.3 c -1.4,1.3 -2.6,2.6 -3.6,4.1 -0.5,0.8 -1,1.5 -1.4,2.3 -0.4,0.8 -0.8,1.6 -1,2.4 -0.5,1.8 -1.3,3.7 -2.5,5.3 -1.2,1.6 -2.7,2.9 -4.5,3.8 h -0.1 -0.1 c -0.1,0 -0.2,0.1 -0.2,0.1 0,0 0.1,-0.1 0.1,-0.3 0,-0.2 -0.2,-0.3 -0.1,-0.2 0,0 0.2,0.1 0.3,0.1 h 0.1 l 1.6,0.3 0.9,0.2 0.4,0.1 h 0.4 c 1.1,0 2.2,0.2 3.3,0 0.5,-0.1 1.1,0 1.6,-0.2 l 1.6,-0.3 c 0.5,-0.1 1,-0.3 1.5,-0.5 0.3,-0.1 0.5,-0.2 0.8,-0.3 l 0.8,-0.3 c 2,-0.9 3.8,-2.3 5.4,-4 1.8,-1.7 3.1,-3.5 4.3,-5.6 z"></path>
    <path d="m 280.6,162.2 c 0.1,-0.6 0.1,-1.2 0.3,-1.9 0.1,-0.3 0.2,-0.6 0.3,-0.9 0.1,-0.3 0.2,-0.6 0.3,-0.9 l 0.4,-0.9 c 0.2,-0.3 0.3,-0.5 0.5,-0.8 0.3,-0.5 0.8,-1 1.1,-1.5 1.6,-1.9 3.4,-3.5 4.8,-5.3 1.4,-1.8 2.5,-3.7 3.1,-5.9 0.6,-2.2 0.7,-4.5 0.9,-7 l 0.3,-0.1 c 0.6,2.4 1,4.8 0.6,7.4 -0.4,2.5 -1.5,4.9 -3.1,6.9 -0.9,0.9 -1.7,1.9 -2.5,2.7 l -2.6,2.4 c -2,1.8 -3.4,3.5 -4.4,5.8 z"></path>
    <path d="m 264.1,146.1 c -2.4,2 -4.7,4.2 -6.5,6.8 -1.8,2.6 -3.1,5.4 -3.8,8.4 -0.8,3 -1.2,6.1 -2,9.3 -0.4,1.5 -0.9,3.1 -1.7,4.7 -0.8,1.6 -1.7,2.9 -2.9,4.1 -1.1,1.2 -2.4,2.3 -3.7,3.2 l -1,0.7 c -0.3,0.3 -0.7,0.4 -0.8,0.6 -0.3,0.2 -0.3,0.4 -0.3,0.3 0,-0.1 0,-0.3 -0.1,-0.3 0,0 0,0 0.1,0.1 0.2,0.1 0.5,0.2 0.8,0.3 0.3,0.1 0.8,0.1 1.1,0.2 l 1.1,0.2 1.1,0.1 c 0.8,0.1 1.5,0.1 2.3,0 0.8,0 1.5,-0.1 2.3,-0.2 3,-0.4 5.9,-1.4 8.4,-3.1 2.5,-1.6 4.8,-3.8 6.9,-6.1 v 0 0 c 0.8,-0.7 1.4,-1.5 2.1,-2.4 0.7,-0.8 1.3,-1.8 1.9,-2.6 0.6,-0.9 1.1,-1.9 1.5,-2.9 0.4,-1 0.9,-2 0.9,-3.1 h 0.3 c 0.1,1.2 -0.3,2.3 -0.6,3.3 -0.3,1 -0.9,2 -1.4,3.1 -0.5,1.1 -1.1,2 -1.7,2.9 -0.6,0.9 -1.3,1.9 -2,2.7 l 0.1,-0.1 c -2,2.5 -4.2,4.9 -7,6.7 -0.7,0.5 -1.4,0.8 -2.1,1.3 -0.8,0.3 -1.4,0.8 -2.3,1 -1.5,0.6 -3.1,1 -4.8,1.3 -1.6,0.3 -3.3,0.3 -4.9,0.3 l -1.2,-0.1 -1.2,-0.2 c -0.4,-0.1 -0.8,-0.1 -1.3,-0.2 -0.4,-0.1 -0.9,-0.2 -1.4,-0.5 -0.3,-0.2 -0.5,-0.3 -0.8,-0.7 -0.3,-0.3 -0.4,-0.9 -0.3,-1.4 0,-0.3 0.1,-0.4 0.2,-0.6 0.1,-0.2 0.2,-0.3 0.3,-0.4 0.2,-0.3 0.4,-0.4 0.6,-0.6 0.4,-0.3 0.8,-0.5 1.1,-0.8 l 0.9,-0.6 c 1.3,-0.8 2.4,-1.8 3.4,-2.9 2,-2.1 3.4,-4.8 4.2,-7.8 0.8,-3 1.4,-6.1 2.3,-9.2 1,-3.1 2.5,-6 4.5,-8.5 2.3,-2.6 4.7,-4.6 7.4,-6.3 z"></path>
    <path d="m 313.4,90.3 0.3,-0.4 c 0,0 0,-0.1 0,0.1 -0.1,0.2 0.1,0.5 0.2,0.6 0.2,0.2 0,0 -0.1,-0.1 -0.3,-0.1 -0.4,-0.2 -0.4,-0.2 v 0 c -1.3,-0.5 -2.6,-1.2 -3.6,-2.1 -1,-0.9 -1.9,-2 -2.6,-3.2 -0.7,-1.2 -1.1,-2.5 -1.4,-3.7 -0.3,-1.3 -0.5,-2.5 -0.6,-3.8 l 0.2,-0.4 c -0.2,0 -0.3,0.3 -0.2,0.3 V 77.3 77.2 L 305.1,77 305,76.6 c -0.1,-0.3 -0.2,-0.5 -0.3,-0.8 -0.3,-0.5 -0.4,-1 -0.8,-1.4 -0.6,-0.9 -1.4,-1.8 -2.3,-2.2 l 0.1,-0.2 c 1.1,0.4 2,1.2 2.6,2.1 0.3,0.4 0.6,0.9 0.9,1.4 0.2,0.3 0.3,0.5 0.3,0.8 l 0.2,0.4 0.1,0.2 v 0.1 0.1 c 0.1,0.1 -0.1,0.4 -0.2,0.5 l 0.2,-0.4 c 0.3,1.3 0.5,2.5 0.9,3.7 0.4,1.2 0.9,2.3 1.6,3.3 0.7,1 1.4,1.9 2.4,2.6 0.9,0.7 2,1.2 3.1,1.5 v 0 h 0.1 c 0.2,0.1 0.3,0.2 0.6,0.3 0.2,0.1 0.4,0.2 0.8,0.6 0.2,0.2 0.3,0.8 0.3,1.1 -0.1,0.3 -0.2,0.5 -0.3,0.6 l -0.3,0.5 z"></path>
    <path d="m 233.5,122.6 c -0.7,1.2 -1.2,2.3 -1.4,3.6 -0.2,1.3 -0.2,2.5 0.2,3.7 0.3,1.2 1,2.2 1.9,3.1 0.2,0.3 0.4,0.4 0.6,0.6 0.2,0.2 0.3,0.2 0.3,0.1 -0.1,0 -0.2,0 -0.2,0 0,0 0,-0.1 0.1,-0.1 0.1,-0.2 0.2,-0.4 0.2,-0.7 l 2.1,0.6 c -0.2,0.3 -0.3,0.8 -0.6,1.1 -0.2,0.2 -0.3,0.4 -0.6,0.6 -0.3,0.2 -0.7,0.3 -1,0.3 -0.8,-0.1 -1.2,-0.4 -1.4,-0.7 -0.3,-0.3 -0.5,-0.6 -0.7,-0.8 -0.9,-1.1 -1.4,-2.5 -1.7,-3.8 -0.3,-1.4 -0.1,-2.8 0.3,-4.1 0.2,-1.3 0.9,-2.5 1.9,-3.5 z"></path>
    <path d="m 210.3,173.9 c 1.8,-0.1 3.7,-0.3 5.5,-0.7 1.9,-0.3 3.7,-0.7 5.5,-1.3 3.6,-1.1 7.1,-2.6 9.9,-5.3 l 0.2,0.2 c -1.3,1.4 -2.8,2.7 -4.4,3.7 -1.6,1 -3.4,1.9 -5.2,2.6 -1.8,0.8 -3.7,1.4 -5.5,1.9 -1.8,0.5 -3.7,0.9 -5.8,1.3 z"></path>
    <path d="m 213.6,157.4 c 0.3,-0.1 0.7,-0.3 1.1,-0.3 0.4,-0.2 0.8,-0.3 1.1,-0.5 0.8,-0.4 1.5,-0.9 2.2,-1.4 0.8,-0.5 1.4,-1 2.1,-1.6 0.7,-0.6 1.4,-1.2 2,-1.8 l 0.2,0.2 c -0.5,0.8 -1,1.5 -1.6,2.2 -0.6,0.7 -1.2,1.4 -1.8,2.1 -0.7,0.7 -1.3,1.3 -2,2 -0.3,0.3 -0.8,0.6 -1.1,0.9 -0.4,0.3 -0.8,0.5 -1.4,0.8 z"></path>
    <path d="m 298.4,-26.9 c 1.4,-1.4 2.8,-2.7 4.5,-3.7 0.9,-0.5 1.8,-0.9 2.7,-1.3 0.9,-0.4 1.8,-0.7 2.7,-1 1.9,-0.7 3.8,-1.1 5.8,-1.4 2,-0.2 4.2,-0.2 6.2,0.5 2.1,0.8 3.9,2.4 4.8,4.3 0.9,2 1.3,4.2 1.2,6.2 -0.3,4.1 -1.6,7.8 -3.6,11.2 l -0.3,-0.2 c 1,-3.7 1.9,-7.5 1.7,-11 -0.1,-1.8 -0.4,-3.6 -1.2,-5 -0.8,-1.4 -2,-2.5 -3.6,-3.1 -1.5,-0.6 -3.3,-0.7 -5.1,-0.6 -1.8,0.1 -3.7,0.4 -5.4,0.9 -0.9,0.2 -1.8,0.4 -2.7,0.7 -0.9,0.3 -1.9,0.5 -2.6,0.8 -1.7,0.9 -3.4,1.8 -5.1,2.7 z"></path>
    <path d="m 301.2,-19.1 c -0.3,-0.3 -0.6,-0.6 -0.9,-1 -0.2,-0.4 -0.3,-0.9 -0.4,-1.3 -0.1,-0.4 -0.2,-0.9 -0.2,-1.3 0,-0.4 -0.1,-0.9 0,-1.3 l 1.7,0.3 c -0.2,0.3 -0.3,0.7 -0.3,1 -0.1,0.3 -0.2,0.8 -0.3,1.1 -0.1,0.3 -0.1,0.8 0,1.1 0.1,0.3 0.2,0.8 0.4,1 z"></path>
    <path d="m 315.8,-30.1 c -2.4,0.3 -4.7,0.9 -6.7,1.8 -2.1,0.9 -4.1,2 -5.9,3.5 -1.8,1.4 -3.3,3.1 -4.2,5.1 -0.5,1 -0.9,2 -0.9,3.1 0,0.5 0,1.1 0.2,1.6 0.2,0.5 0.5,0.9 1.1,1 v 0.3 c -0.3,0 -0.7,-0.1 -0.9,-0.3 -0.3,-0.2 -0.5,-0.4 -0.7,-0.8 -0.3,-0.6 -0.5,-1.2 -0.6,-1.9 -0.1,-1.3 0.1,-2.5 0.6,-3.7 0.9,-2.4 2.6,-4.3 4.5,-5.9 2,-1.5 4.2,-2.7 6.5,-3.4 2.2,-0.7 4.7,-0.8 7,-0.4 z"></path>
    <path d="m 304.5,-12.7 c 0.6,-0.6 0.8,-1.3 1.2,-2 0.4,-0.7 0.6,-1.4 0.8,-2 0.3,-0.7 0.4,-1.4 0.7,-2.1 0.2,-0.8 0.4,-1.4 0.7,-2.3 h 0.3 c 0.7,1.6 0.6,3.4 0.1,5 -0.3,0.9 -0.8,1.6 -1.3,2.2 -0.8,0.6 -1.6,1.3 -2.5,1.2 z"></path>
    <path d="m 316.2,-11 c 1,-0.8 1.7,-1.6 2.3,-2.6 0.6,-1 1,-2 1.4,-3.1 0.9,-2.2 1.4,-4.5 2.3,-6.9 h 0.3 c 0.2,1.3 0.2,2.6 0,3.8 -0.2,1.2 -0.5,2.5 -0.9,3.7 -0.4,1.2 -1.1,2.4 -2,3.4 -0.8,0.9 -2,1.7 -3.4,1.7 z"></path>
  </g>
  <path d="m 291.1,-34.7 c 3.6,-2.1 8.6,-5 12.4,-3.6 3.2,1.2 4.9,4 5.8,7.1"></path>
  <path d="m 298.4,-26.8 c 0,0 3.4,-2.8 5.8,-3.7 1.2,-0.4 12.2,-4.9 17.5,-1.2 7.4,5.3 1.4,18.4 1,19.5"></path>
 </g>
</svg>
