<svg xmlns="http://www.w3.org/2000/svg" fill="#d7374a" stroke="#000" viewBox="50 50 200 200">
  <metadata source="http://wappenwiki.org/images/4/4a/Jules_L%C3%A9ger%2C_Governor-General_of_Canada.svg" license="https://creativecommons.org/licenses/by-nc-sa/3.0"/>
  <g id="mapleLeaf" stroke-width="0.94">
    <path d="M 63.698 109.885c 3.196 1.645 10.81 6.157 13.489 8.507c 4.042 3.478 7.285 8.131 7.285 8.131c -0.517 1.457 -1.786 2.538 -2.914 3.666c -1.128 1.128 -1.551 2.162 -1.504 3.713c 5.123 -1.316 11.985 -3.149 18.706 -3.29c -0.047 0.282 -0.047 1.551 -0.094 1.833c -0.188 2.068 -0.329 4.512 -0.423 6.58c 1.222 0.846 3.196 0.846 3.901 0.0c -0.094 -2.115 -0.235 -4.512 -0.423 -6.627c -0.047 -0.282 -0.047 -1.551 -0.094 -1.833c 6.721 0.094 13.583 1.974 18.706 3.29c 0.047 -1.551 -0.423 -2.585 -1.504 -3.713c -1.128 -1.128 -2.35 -2.209 -2.914 -3.666c 0.0 0.0 3.243 -4.653 7.285 -8.131c 2.726 -2.35 10.293 -6.862 13.489 -8.507c -1.739 -2.162 -4.23 -3.807 -6.627 -5.217c 0.47 -3.29 2.115 -6.58 3.854 -9.447c -3.713 -0.752 -7.614 0.799 -11.092 2.303c -0.188 -2.303 -0.752 -5.593 -1.645 -7.708c -3.337 3.055 -5.405 7.473 -8.836 10.434c -1.222 -3.854 -0.893 -8.037 -0.047 -12.032c 0.987 -4.794 2.961 -10.246 5.593 -14.382c 0.0 0.0 -3.572 1.316 -4.418 1.692c -1.645 0.705 -3.76 1.692 -5.405 2.444c -1.645 -5.123 -3.713 -9.212 -7.896 -16.92c -3.995 7.003 -7.05 13.583 -7.896 16.92c -1.645 -0.752 -3.76 -1.692 -5.405 -2.444c -0.846 -0.376 -4.418 -1.692 -4.418 -1.692c 2.632 4.136 4.606 9.588 5.593 14.382c 0.846 3.948 1.175 8.178 -0.047 12.032c -3.431 -2.961 -5.499 -7.379 -8.836 -10.434c -0.893 2.115 -1.457 5.452 -1.645 7.708c -3.478 -1.504 -7.379 -3.102 -11.092 -2.303c 1.692 2.867 3.384 6.157 3.854 9.447C 67.975 106.125 65.484 107.77 63.698 109.885z"/>
    <g stroke="none" fill="#000">
      <path d="M 100.264 89.393c 0.235 2.726 0.329 5.499 0.329 8.225l 0.094 8.225c 0.047 2.726 0.047 5.499 0.047 8.225c 0.0 2.726 0.0 5.499 0.0 8.225h -1.175c 0.0 -2.726 0.0 -5.499 0.0 -8.225c 0.0 -2.726 0.0 -5.499 0.047 -8.225l 0.094 -8.225c 0.047 -2.726 0.094 -5.499 0.329 -8.225H 100.264z"/>
      <path d="M 122.025 105.044c -1.41 1.88 -3.008 3.572 -4.747 5.17c -1.692 1.598 -3.478 3.149 -5.264 4.653c -1.786 1.504 -3.666 2.914 -5.546 4.277c -1.927 1.363 -3.901 2.632 -6.016 3.713l -0.517 -1.034c 2.021 -1.081 3.948 -2.303 5.875 -3.619c 1.927 -1.316 3.76 -2.726 5.593 -4.136c 1.833 -1.41 3.619 -2.914 5.358 -4.465l 5.217 -4.653L 122.025 105.044z"/>
      <path d="M 100.405 121.776c 1.081 0.329 2.162 0.752 3.149 1.269c 1.034 0.517 1.974 1.081 2.914 1.739c 0.94 0.658 1.833 1.316 2.679 2.068c 0.846 0.705 1.645 1.504 2.35 2.397l -0.094 0.094c -1.034 -0.517 -1.88 -1.175 -2.773 -1.833c -0.893 -0.658 -1.786 -1.269 -2.726 -1.833c -0.94 -0.564 -1.88 -1.081 -2.867 -1.551c -0.987 -0.47 -1.974 -0.846 -3.008 -1.175L 100.405 121.776z"/>
      <path d="M 78.503 104.95l 5.217 4.653c 1.739 1.551 3.525 3.008 5.358 4.465c 1.833 1.41 3.666 2.82 5.593 4.136c 1.927 1.316 3.854 2.585 5.875 3.619l -0.517 1.034c -2.115 -1.081 -4.089 -2.35 -6.016 -3.713c -1.927 -1.363 -3.76 -2.773 -5.546 -4.277c -1.786 -1.504 -3.525 -3.055 -5.264 -4.653c -1.692 -1.598 -3.337 -3.29 -4.747 -5.17L 78.503 104.95z"/>
      <path d="M 100.405 122.904c -1.034 0.329 -2.021 0.752 -3.008 1.175c -0.987 0.423 -1.927 0.987 -2.867 1.551c -0.94 0.564 -1.833 1.175 -2.726 1.833c -0.893 0.658 -1.786 1.316 -2.773 1.833l -0.094 -0.094c 0.705 -0.893 1.504 -1.645 2.35 -2.397c 0.846 -0.705 1.739 -1.41 2.679 -2.068c 0.94 -0.658 1.927 -1.222 2.914 -1.739c 1.034 -0.517 2.068 -0.94 3.149 -1.269L 100.405 122.904z"/>
      <path d="M 98.196 130.518c 0.235 -0.517 0.517 -1.081 0.705 -1.598c 0.188 -0.517 0.329 -1.081 0.423 -1.692c 0.094 0.564 0.188 1.175 0.141 1.786c 0.0 0.611 -0.094 1.222 -0.141 1.786L 98.196 130.518z"/>
      <path d="M 101.251 127.228c 0.094 1.175 0.47 2.256 0.987 3.29l -1.128 0.329C 100.969 129.625 100.969 128.356 101.251 127.228z"/>
    </g>
  </g>
</svg>
