<svg xmlns="http://www.w3.org/2000/svg" fill="#d7374a" stroke="#000" viewBox="50 50 200 200">
  <metadata author="Christie L. Ward" source="http://www.vikinganswerlady.com/Stars/Heraldry_SVG_Images/Polypus.svg" license="https://creativecommons.org/licenses/by-sa/3.0"/>
  <g id="polypus" stroke-width=".344">
    <path d="M100.026 59.935c-7.915.158-13.12 10.82-10.162 17.325.164.842.717 2.124 1.587 3.616.87 1.493 2.058 3.196 1.35 5.132-1.494 4.096-1.345 3.801-1.283 5.264.091 2.146 1.569 4.24 1.589 5.437.03 1.755-2.77 2.156-4.149.868-1.712-2.248-2.263-4.965-1.529-7.547.7-3.64-1.534-7.234-5.528-8.901-3.587-1.538-7.96.212-8.705 3.483-.53 1.852.535 3.765 2.589 4.644 2.158 1.263 1.424 4.038-1.177 4.451-2.354-.335-3.996-2.108-3.763-4.064-2 2.5-.088 5.856 3.528 6.192 2.585.34 5.107-.854 6.045-2.865.938-2.01.036-4.286-2.163-5.455-1.254-.534-1.794-1.774-1.238-2.842.556-1.067 2.02-1.6 3.355-1.222 3.02 1.253 4.51 4.11 3.53 6.773a13.36 13.36 0 0 0 0 6.385c.385 2.198 2.37 3.977 5.001 4.48-2.39.833-4.42 2.238-5.825 4.034l-4.235 4.838c-1.44 1.072-3.713.789-4.701-.587s-.194-3.15 1.643-3.67a56 56 0 0 0 3.294-1.742c3.019-1.539 2.83-5.201-.335-6.525-3.166-1.323-6.874.71-6.606 3.623.611-1.031 1.721-1.804 3.059-2.13 1.982-.254 3.243 1.692 1.881 2.904l-4.704 2.515c-3.036 2.462-2.329 6.635 1.41 8.321 2.588 1.263 5.922.672 7.648-1.355l4.704-5.224c1.739-1.621 4.036-2.769 6.587-3.29q.444-.02.881-.081-.307.249-.645.468c-3.044 1.84-5.008 4.65-5.411 7.74-.845 2.914-4.539 4.612-8 3.677-4.016-1.026-8.035 1.58-7.762 5.031-.05 1.227.658 2.392 1.881 3.096 1.21.672 1.569 2.005.818 3.035s-2.35 1.396-3.64.835c1.329 1.247 3.615 1.413 5.19.377 1.574-1.036 1.878-2.907.69-4.247a11.7 11.7 0 0 1-1.764-2.322c-.371-1.84 1.69-3.382 3.882-2.903 5.135 1.326 10.541-1.279 11.646-5.611.075-2.201 1.5-4.222 3.786-5.368a12.96 12.96 0 0 0 .531 7.461c1.203 3.553-1.387 7.393-5.61 8.32-3.84-.26-6.645 2.897-5.418 6.096a53 53 0 0 0 3.675 6.771 2.545 2.545 0 0 1-1.025 3.047 2.615 2.615 0 0 1-3.232-.338 3.86 3.86 0 0 0 5.28 1.638 3.846 3.846 0 0 0 1.494-5.313 35.2 35.2 0 0 1-3.29-7.063c-.022-1.34 1.214-2.312 2.708-2.13 6.279-.683 10.59-5.893 9.288-11.222-.961-2.147-.909-4.597.146-6.832.435-.451.817-.94 1.14-1.459a9 9 0 0 0 1.14 1.459c1.055 2.235 1.107 4.685.146 6.832-1.302 5.33 3.01 10.54 9.288 11.223 1.494-.183 2.73.788 2.709 2.13a35.2 35.2 0 0 1-3.29 7.062 3.846 3.846 0 0 0 1.493 5.313 3.86 3.86 0 0 0 5.28-1.638 2.615 2.615 0 0 1-3.232.338 2.545 2.545 0 0 1-1.025-3.047 53 53 0 0 0 3.675-6.771c1.227-3.2-1.579-6.356-5.418-6.096-4.223-.927-6.813-4.767-5.61-8.32.907-2.379 1.09-4.947.533-7.461 2.286 1.146 3.711 3.167 3.786 5.368 1.105 4.332 6.51 6.936 11.644 5.61 2.192-.478 4.253 1.064 3.882 2.904a11.7 11.7 0 0 1-1.765 2.322c-1.197 1.34-.896 3.219.683 4.258 1.579 1.038 3.873.867 5.2-.388-1.291.566-2.895.2-3.648-.831-.753-1.032-.39-2.368.823-3.039 1.225-.703 1.933-1.868 1.884-3.096.273-3.453-3.747-6.058-7.764-5.031-3.46.934-7.153-.763-7.998-3.677-.403-3.09-2.367-5.9-5.411-7.74a7 7 0 0 1-.645-.468q.437.062.88.08c2.55.522 4.848 1.67 6.586 3.291l4.706 5.224c1.726 2.026 5.058 2.617 7.646 1.355 3.74-1.685 4.448-5.858 1.412-8.321l-4.706-2.515c-1.362-1.212-.101-3.158 1.881-2.903 1.338.325 2.448 1.098 3.059 2.129.269-2.913-3.44-4.947-6.606-3.623s-3.353 4.987-.333 6.525a56 56 0 0 0 3.292 1.742c1.837.52 2.631 2.295 1.643 3.67s-3.261 1.66-4.701.587l-4.235-4.838c-1.404-1.795-3.434-3.2-5.824-4.034 2.63-.503 4.617-2.282 5.002-4.48a13.36 13.36 0 0 0 0-6.385c-.98-2.663.508-5.52 3.528-6.773 1.335-.379 2.799.155 3.355 1.222.556 1.068.016 2.308-1.238 2.842-2.199 1.169-3.101 3.445-2.163 5.455s3.46 3.206 6.045 2.865c3.617-.335 5.53-3.692 3.53-6.192.232 1.956-1.41 3.73-3.765 4.064-2.602-.413-3.335-3.188-1.177-4.451 2.054-.879 3.12-2.792 2.589-4.644-.744-3.27-5.118-5.02-8.705-3.483-3.994 1.667-6.227 5.262-5.528 8.9.734 2.583.183 5.3-1.53 7.548-1.379 1.286-4.476.607-4.23-1.13.122-.866.995-2.75 1.07-5.793.036-1.522-.874-3.631-.931-5.034-.057-1.402.515-2.8.805-3.953 1.08-4.29 1.54-3.677 1.805-5.075 3.24-7.124-2.01-16.565-9.458-16.657z"/>
    <path class="secondary" d="M90.628 135.187a1.338.88 85 0 1-1.755.154 1.338.88 85 0 1 1.755-.154zm-16.69-38.812a1.415.769 15 0 1 .398-1.485 1.415.769 15 1 1-.398 1.485zm5.543-1.7a.84 1.305 45 1 1-1.187-1.187.84 1.305 45 1 1 1.187 1.187zm1.104-4.855a1.195.91 75 0 1-1.76.471 1.195.91 75 1 1 1.76-.471zm-2.735-3.723a1.241.88 60 0 1-1.525.88 1.241.88 60 1 1 1.525-.88zm1.235-1.785a1.432.758 0 0 1 0-1.515 1.432.758 0 1 1 0 1.515zm4.412 1.205a1.241.88 60 0 1-1.526.88 1.241.88 60 1 1 1.526-.88zm1.163 4.538a.92 1.18 5 0 1-1.833-.16.92 1.18 5 1 1 1.833.16zm-.345 4.569a.921 1.178 0 1 1-1.842 0 .921 1.178 0 1 1 1.842 0zm1.408 3.96a1.241.88 60 0 1-1.525.88 1.241.88 60 1 1 1.525-.88zm-10.405 5.023a.799 1.369 60 1 1-.8-1.383.799 1.369 60 0 1 .8 1.383zm-3.706 3.078a.91 1.195 15 0 1-1.76-.471.91 1.195 15 1 1 1.76.471Zm.407 3.75a1.241.88 60 0 1-1.525.881 1.241.88 60 1 1 1.525-.88zm3.928 3.36a1.432.758 0 0 1 0-1.515 1.432.758 0 1 1 0 1.515zm6.08-2.04a.868 1.261 35 1 1-1.421-.996.868 1.261 35 1 1 1.421.996zm3.145-3.52a.868 1.261 35 1 1-1.421-.996.868 1.261 35 1 1 1.421.995zm3.557-2.94a.818 1.34 52.8 1 1-.99-1.302.818 1.34 52.8 1 1 .99 1.303zm-11.77 17.09a1.241.88 60 0 1-1.525.88 1.241.88 60 1 1 1.526-.88zm-.936-2.924a.88 1.241 30 0 1-1.526-.88.88 1.241 30 1 1 1.526.88zm4.26-1.025a1.432.758 0 0 1 0-1.516 1.432.758 0 1 1 0 1.516zm6.193-1.172a.799 1.369 60 1 1-.8-1.384.799 1.369 60 0 1 .8 1.384zm3.78-3.22a.88 1.241 30 0 1-1.526-.882.88 1.241 30 1 1 1.526.881zm1.598-4.143a.88 1.241 30 0 1-1.525-.88.88 1.241 30 1 1 1.525.88zm-3.206 20.538a1.338.88 70 0 1-1.655.602 1.338.88 70 0 1 1.655-.602zm-.785-3.932a.91 1.264 30 0 1-1.577-.91.91 1.264 30 1 1 1.577.91zm4.585-1.394a.912 1.415 75 0 1-.472-1.763.912 1.415 75 0 1 .472 1.763zm4.668-3.453a.84 1.305 45 1 1-1.187-1.187.84 1.305 45 1 1 1.187 1.187zm2.293-4.825a.917 1.329 10 0 1-1.806-.318.917 1.329 10 1 1 1.806.318zm-.61-5.137a.917 1.275 0 1 1-1.833 0 .917 1.275 0 0 1 1.834 0zm.02-3.693a.854 1.283 40 0 1-1.308-1.098.854 1.283 40 1 1 1.309 1.098zm10.2 27.182a.88 1.338 5 0 0 1.754.154.88 1.338 5 0 0-1.755-.154zm16.689-38.812a.769 1.415 75 0 0-.398-1.485.769 1.415 75 1 0 .398 1.485zm-5.543-1.7a1.305.84 45 1 0 1.187-1.187 1.305.84 45 1 0-1.187 1.187zm-1.104-4.855a.91 1.195 15 0 0 1.76.471.91 1.195 15 1 0-1.76-.471zm2.735-3.723a.88 1.241 30 0 0 1.525.88.88 1.241 30 1 0-1.525-.88zm-1.235-1.785a1.432.758 0 0 0 0-1.515 1.432.758 0 1 0 0 1.515zm-4.411 1.205a.88 1.241 30 0 0 1.525.88.88 1.241 30 1 0-1.525-.88zm-1.164 4.538a1.18.92 85 0 0 1.833-.16 1.18.92 85 1 0-1.833.16zm.345 4.569a.921 1.178 0 1 0 1.842 0 .921 1.178 0 1 0-1.842 0zm-1.408 3.96a.88 1.241 30 0 0 1.525.88.88 1.241 30 1 0-1.525-.88zm10.405 5.023a1.369.799 30 1 0 .8-1.383 1.369.799 30 0 0-.8 1.383zm3.706 3.078a1.195.91 75 0 0 1.76-.471 1.195.91 75 1 0-1.76.471zm-.407 3.75a.88 1.241 30 0 0 1.525.881.88 1.241 30 1 0-1.525-.88zm-3.928 3.36a1.432.758 0 0 0 0-1.515 1.432.758 0 1 0 0 1.515zm-6.08-2.04a1.261.868 55 1 0 1.421-.996 1.261.868 55 1 0-1.421.996zm-3.145-3.52a1.261.868 55 1 0 1.422-.996 1.261.868 55 1 0-1.422.995zm-3.557-2.94a1.34.818 37.2 1 0 .99-1.302 1.34.818 37.2 1 0-.99 1.303zm11.77 17.09a.88 1.241 30 0 0 1.525.88.88 1.241 30 1 0-1.526-.88zm.936-2.924a1.241.88 60 0 0 1.526-.88 1.241.88 60 1 0-1.526.88zm-4.26-1.025a1.432.758 0 0 0 0-1.516 1.432.758 0 1 0 0 1.516zm-6.192-1.172a1.369.799 30 1 0 .798-1.384 1.369.799 30 0 0-.798 1.384zm-3.78-3.22a1.241.88 60 0 0 1.525-.882 1.241.88 60 1 0-1.526.881zm-1.599-4.143a1.241.88 60 0 0 1.526-.88 1.241.88 60 1 0-1.526.88zm3.206 20.538a.88 1.338 20 0 0 1.655.602.88 1.338 20 0 0-1.655-.602zm.785-3.932a1.264.91 60 0 0 1.578-.91 1.264.91 60 1 0-1.578.91zm-4.585-1.394a1.415.912 15 0 0 .472-1.763 1.415.912 15 0 0-.472 1.763zm-4.667-3.453a1.305.84 45 1 0 1.187-1.187 1.305.84 45 1 0-1.187 1.187zm-2.294-4.825a1.329.917 80 0 0 1.806-.318 1.329.917 80 1 0-1.806.318zm.61-5.137a.917 1.275 0 1 0 1.833 0 .917 1.275 0 0 0-1.834 0zm-.02-3.693a1.283.854 50 0 0 1.308-1.098 1.283.854 50 1 0-1.308 1.098z"/>
    <path fill="#f6f6f6" d="M94.579 89.74c.588-.112 1.091.379 1.298.886.258.526.32 1.263-.143 1.696-.399.316-1.002.396-1.454.152-.465-.32-.819-.896-.706-1.477.078-.411.108-.957.56-1.14.143-.055.298-.072.445-.116zm10.588.074c.52-.136 1.061.38.965.907.022.561-.025 1.215-.464 1.619-.387.291-1.047.445-1.388.005-.404-.5-.34-1.243.04-1.737.18-.337.377-.845.847-.794z"/>
  </g>
</svg>
