<svg width="800" height="800" fill="#d7374a" viewBox="50 50 200 200" xmlns="http://www.w3.org/2000/svg">
<!-- source: wappenwiki.org, CC BY-NC-SA 3.0 -->
 <g id="stagsAttires" stroke="#000" stroke-width=".58">
  <path d="M114.57 128.56a6.53 6.53 0 00-1.72-1.94c-.35-.23-.73-.43-1.1-.64-.95-.61-1.7-1.47-2.62-2.15-.9-.67-2.1-1.22-3.17-.87-1.23-.11-2.15.36-3.03.36s-1.62-.69-2.93-.69-2.07.69-2.93.69c-.88 0-1.8-.45-3.03-.36-1.08-.35-2.27.18-3.17.87-.9.66-1.67 1.54-2.62 2.15-.36.21-.75.4-1.1.64a6.06 6.06 0 00-1.72 1.94c-.27.45-.5 1.11-.1 1.45.14.11.34.15.51.2 4.71 1.07 7.65 2.18 11.38 5.64 1.31 1.21 1.78 2.7 2.78 2.7s1.47-1.49 2.78-2.7c3.73-3.44 6.67-4.57 11.38-5.65.17-.04.35-.08.5-.2.4-.33.18-1-.1-1.44z"/>
  <path d="M133.75 76.89c.28-.27.26-.68-.25-.6-.5.07-2.56.6-3.7 2.52-1.7 2.87-.68 5.8-2.17 7.72-.54.7-1.56.47-1.62-.76-.12-1.94.66-6.88.2-8.74 0 0 2.26-1.18 3.34-3.46 1.37-2.88-1.4-6.89 1.2-10.8.25-.43.05-.63-.46-.49-.62.04-1.76.74-2.42 1.74-1.92 2.9-.12 4.77-1.25 6.75-.38.6-1.53 2.35-2.76 1.7-3.25-1.94-2.7-6.22-4.48-8.7a6.44 6.44 0 00-3.34-2.07c-1.98-.55-3.02.43-2.66.52 1.7.47 2.64 1.22 3.24 2.13 1.22 1.84.37 4.82 2.23 7.63 1.55 2.33 2.1 2.66 2.62 5.38.6 2.85-.1 5.3-.08 6.92-.13.04-.6.43-1.34-.33-1.35-1.39-.63-3.19-.9-5.57-.38-3.15-1.78-4.78-3.8-5.05-1.25-.17-.58.5-.37.69 2.8 2.46.53 5.31.8 8.6.24 2.7 1.2 4.17 2.92 4.97 1.5.68 1.58 1.52 1.72 2.64.13 2.27-1.14 4.55-2.17 10.36-.79 2.1 1.05 12.1-4.66 13.34 0 0 .69-1.56-.14-2.93-1.19-2.02-.37-3.72.02-4.76 1.16-2.89 1.65-5.75.3-7.04-1.04-.9-.84 0-.8.34.4 2.97-1.69 4.42-3.35 7.5a6.13 6.13 0 00-.4 4.56c.5 1.74.71 3.25 0 5-.77 1.3-.42 2.61-2.41 4.33-.24.08-.94-.23-1.78.41-.32.24-.55.69-.6 1.08-.03.39 0 .82.24 1.15.24.33.94.72 1.31.57-.05.58.04 1.47 1.94 2.33.76.35 2.03.21 2.03.21.1 0 .47.53 1.31.72.67.16 1.31-.17 1.67-.76a2.2 2.2 0 00.02-1.97 2.74 2.74 0 00-.59-.83.68.68 0 01-.2-.21c-.04-.1-.04-.2-.04-.31.02-.57-.03-.75.14-1.3.6-1.91 1.78-1.58 2.8-3.32.74-.39 3.23-1.23 5.8-4.42 1.1-1.13 2.12-3.83 2.22-4.8.13-.85.86-1.34 2.09-1.42 1.76-.1 4.42-1.87 4.95-5.24.27-2.29.29-5.36 1.07-6.96.7-1.45 1.6-2.17 1.72-2.3.18-.2.24-.52-.31-.46a4.4 4.4 0 00-2.68 1.21c-1.92 1.75-1.95 4.37-2.64 6.4-.57 1.7-1.64 2.91-3.03 2.54-1.11-.3-.43-2.85-.23-4.07.39-2.4 1.13-4.45 1.44-6.41.5-1.49 3.52-1.11 5.09-4.2 1.11-2.18 1.15-5.01 1.07-6.7-.21-3.85 1.86-4.7 2.13-4.98zM66.3 76.89c-.27-.27-.25-.68.26-.6.5.07 2.56.6 3.7 2.52 1.7 2.87.68 5.8 2.17 7.72.54.7 1.56.47 1.62-.76.12-1.94-.67-6.88-.2-8.74 0 0-2.27-1.18-3.34-3.46-1.37-2.88 1.4-6.89-1.2-10.8-.25-.43-.05-.63.46-.49.62.04 1.76.74 2.42 1.74 1.92 2.9.12 4.77 1.25 6.75.37.6 1.53 2.35 2.76 1.7 3.25-1.94 2.7-6.22 4.48-8.7a6.44 6.44 0 013.34-2.07c1.98-.55 3.01.43 2.66.52-1.7.47-2.64 1.22-3.24 2.13-1.22 1.84-.38 4.82-2.23 7.63-1.55 2.33-2.1 2.66-2.62 5.38-.61 2.85.1 5.3.07 6.92.14.04.61.43 1.35-.33 1.35-1.39.63-3.19.9-5.57.37-3.15 1.78-4.78 3.8-5.05 1.25-.17.58.5.37.69-2.8 2.46-.53 5.31-.8 8.6-.24 2.7-1.2 4.17-2.92 4.97-1.5.68-1.58 1.52-1.72 2.64-.13 2.27 1.14 4.55 2.17 10.36.78 2.1-1.05 12.1 4.66 13.34 0 0-.69-1.56.13-2.93 1.2-2.02.38-3.72-.02-4.76-1.15-2.89-1.64-5.75-.29-7.04 1.04-.9.84 0 .8.34-.4 2.97 1.68 4.42 3.35 7.5.8 1.47.8 3.2.4 4.56-.5 1.74-.72 3.25 0 5 .77 1.3.42 2.61 2.41 4.33.24.08.94-.23 1.78.41.32.24.55.69.59 1.08.04.39 0 .82-.24 1.15-.23.33-.93.72-1.3.57.05.58-.04 1.47-1.94 2.33-.76.35-2.04.21-2.04.21-.1 0-.46.53-1.3.72a1.53 1.53 0 01-1.67-.76 2.2 2.2 0 01-.02-1.97c.14-.32.35-.59.59-.83a.68.68 0 00.2-.21c.03-.1.03-.2.03-.31-.02-.57.04-.75-.13-1.3-.6-1.91-1.78-1.58-2.8-3.32-.74-.39-3.23-1.23-5.8-4.42-1.1-1.13-2.12-3.83-2.22-4.8-.13-.85-.86-1.34-2.09-1.42-1.76-.1-4.42-1.87-4.95-5.24-.27-2.29-.3-5.36-1.07-6.96-.7-1.45-1.6-2.17-1.72-2.3-.18-.2-.24-.52.3-.46.56.06 1.57.2 2.69 1.21 1.91 1.75 1.95 4.37 2.64 6.4.56 1.7 1.64 2.91 3.03 2.54 1.11-.3.43-2.85.23-4.07-.39-2.4-1.13-4.2-1.44-6.41-.5-1.47-3.52-1.13-5.09-4.2-1.11-2.18-1.15-5.01-1.07-6.7.21-3.85-1.86-4.7-2.14-4.98z"/>
  <g fill="#000" stroke="none">
    <path d="m110.5 128.89c-0.68591 0.20179-1.4408 0.13502-2.09 0.53 0.0792-0.79133 1.0595-1.2365 1.7005-0.76484 0.13185 0.075 0.25811 0.15916 0.38953 0.23484zm-3.97 1.47c-0.223 0.68021-1.3249 0.19081-0.53-0.22 0.19875-0.0613 0.46532-3e-3 0.53 0.22zm-0.83-1.14c-0.26537 0.43959-1.2197 0.44264-0.75342-0.16885 0.22609-0.27242 0.68741-0.13796 0.75342 0.16885zm-0.48-0.66c-0.14689 0.31708-0.91182 0.33732-0.74621-0.10031 0.1427-0.33747 0.73469-0.32682 0.74621 0.10031zm-0.55-1.04c-0.16959 0.58792-1.1596 0.13581-0.5-0.27 0.19653-0.0927 0.48979 0.04 0.5 0.27zm-0.43-0.8c-0.26984 0.75006-1.0474-0.34337-0.26291-0.29496 0.12673 0.0475 0.23645 0.16072 0.26291 0.29496zm-0.33-0.8c-0.15495 0.24334-0.46919 0.36575-0.70574 0.20748-0.2503-0.49785 0.62245-0.74931 0.70574-0.20748zm-14.35 2.97c0.43517-0.31004 1.0208-0.62349 1.5275-0.26875 0.39674 0.15606 0.84359 1.1368 0.10234 0.63844-0.49556-0.35775-1.126-0.09576-1.6298-0.36969zm3.97 1.47c0.60268-0.92231 1.2877 0.82912 0.21 0.21-0.08554-0.0554-0.14318-0.1355-0.21-0.21zm0.84-1.14c0.09241-0.50153 0.93027-0.30008 0.8425 0.18875-0.32318 0.45391-0.58992 0.0207-0.8425-0.18875zm0.47-0.66c0.19524-0.86524 1.315 0.26968 0.40856 0.26979-0.171 8e-3 -0.2817-0.23695-0.40856-0.26979zm0.54-1.04c0.1258-0.71068 1.2056 0.21713 0.44397 0.27236-0.26996 0.11773-0.2865-0.13524-0.44397-0.27236zm0.43-0.8c0.21104-0.7446 1.0401 0.20794 0.28 0.29-0.16748-5e-3 -0.15559-0.22082-0.28-0.29zm0.34-0.8c0.13064-0.7532 1.2797 0.28035 0.39 0.29-0.21169 0.0684-0.2517-0.20907-0.39-0.29z"/>
    <path d="m126.36 77.3c-0.89088 0.40294-2.1248 0.82672-0.7357-0.09609 0.46169-0.4597 0.40541-0.54368 0.7357 0.09609zm-18.52 45.4c-0.90503-0.16767-1.675 0.66154-1.57 1.54-1.7023 0.0998 0.84613-2.3591 1.57-1.54zm2.9 1.2c1.1106-0.07 1.1515 2.3327 0.53625 1.8325-0.16097-0.61479-0.2731-1.2503-0.53625-1.8325zm11.73-46.38c-0.23178-1.5121-1.1117-2.7987-1.58-4.23 1.158 0.98319 2.1849 2.6951 1.58 4.23z"/>
    <path d="m120.85 98.81c0.17993 1.1046-0.35239 2.2114 0.0381 3.2791-0.0527 0.54448-1.1323 2.7108-0.87811 1.2409 0.62841-0.91936-0.14244-1.8312 0.22771-2.7748 0.14868-0.59944 0.35357-1.1842 0.61229-1.7452zm-2.45 10.49c0.38931 0.69237 0.14236 1.7089-0.56 2.1-0.0571-0.73739 0.17826-1.4754 0.56-2.1zm7.94-21.52c-0.93641 0.28687-1.4038-0.85678-1.2859-1.6041 0.25786-1.6945 0.53158 1.5257 1.2859 1.6041zm-2.14 19.99c-0.50164 0.38124-1.0519 0.6901-1.61 0.98-0.0737-0.78508 0.95293-1.4154 1.61-0.98zm-11.21 6.33c-0.69624 0.46868-1.0875 1.1909-2.0513 1.2529-0.51957 0.34489-1.3042 0.84114-0.62385-0.0785 0.71546-0.6622 1.7478-1.1326 2.6752-1.1644zm1.83 4.46c0.50847-0.50645 0.7847-1.1746 1.18-1.76-0.014 0.46246-0.38561 2.8647-1.18 1.76z"/>
    <path d="m74.01 76.81c0.44747 0.5392 1.8923 1.3768 0.47 0.82-0.71263-0.29222-0.92901-0.15289-0.47-0.82zm18.21 45.89c0.98485-0.36677 2.0845 0.37519 2.17 1.43-1.0743 0.49563-0.55649-2.0015-2.17-1.43zm-2.9 1.2c-0.38256 0.30871-0.34911 2.5483-0.83619 1.8672-0.30234-0.6692 0.060632-1.7425 0.83619-1.8672zm-11.73-46.38c-0.61686-1.5443 0.44243-3.2351 1.58-4.23-0.46895 1.4327-1.3538 2.713-1.58 4.23z"/>
    <path d="m79.21 98.81c0.53899 1.1174 0.91414 2.3878 0.5225 3.5688 0.34293 0.63736 0.47374 2.3532-0.06406 0.91719-0.75397-0.68517-0.36211-1.6145-0.37844-2.4459-0.1076-0.67258-0.12468-1.3611-0.08-2.04zm2.45 10.49c0.38881 0.36898 0.95773 2.766 0.09 1.68-0.31689-0.48601-0.4224-1.174-0.09-1.68zm-7.94-21.52c0.86734-0.138 0.67198-2.3957 1.2508-1.8163 0.13627 0.78656-0.14628 2.1356-1.2508 1.8163zm2.15 19.99c0.66156-0.43786 1.6557 0.20559 1.6 0.98-0.56364-0.27045-1.0953-0.61094-1.6-0.98zm11.2 6.33c0.76902-0.30926 1.1126 0.60065 1.867 0.52719 0.64108 0.10217 1.6036 1.8737 0.48547 0.9214-0.51625-0.53752-1.5647-0.24893-1.8206-1.0554-0.14408-0.16475-0.32554-0.33456-0.53195-0.39319zm-2.3 4.82c-0.44114-0.61405-0.74888-1.3534-0.71-2.12 0.02405 0.68122 1.5727 1.5026 0.88606 1.9852-0.05869 0.045-0.11737 0.0899-0.17606 0.13485z"/>
  </g>
 </g>
</svg>
