<svg xmlns="http://www.w3.org/2000/svg" fill="#d7374a" stroke="#000" viewBox="50 50 200 200">
  <metadata author="Zorlot" source="https://commons.wikimedia.org/wiki/File:Blason_Ville_La_Haye.svg" license="https://creativecommons.org/publicdomain/zero/1.0"/>
  <g id="stork" stroke-width=".092">
    <path class="secondary" stroke-width=".29" d="M76.02 70.609a.083.083 0 0 1-.035-.159c.47-.215 11.503-5.276 12.458-5.582a.083.083 0 0 1 .096.037c.233.389.499.788.866 1.073.259.197.488.532.276.82a2.861 2.861 0 0 0-.443 1.304.083.083 0 0 1-.068.075 12802.518 12802.518 0 0 0-13.15 2.432z"/>
    <g class="pseudostroke" fill="black">
      <path d="M105.178 111.24a1.69 1.69 0 0 1-.014-.041c-.008-.118 0-.238.034-.359l.903-2.329-4.702.046c.166.253 1.93 2.751 2.071 3.017.083.218.177.429.27.636l1.438-.97z"/>
      <path d="M89.693 139.037c-.239.119-.362.367-.503.58.25-.029.498-.072.75-.088.411-.01.823.135 1.234.052l-.434-.886-1.047.342z"/>
      <path d="M90.744 137.385c-.522.06-1.046.184-1.498.462l-.039.27c.378-.032.733.107 1.097.175l.44-.907z"/>
      <path d="M91.133 136.453c-.451-.046-.906-.143-1.36-.08-.222.027-.301.26-.39.432.531-.043.953.348 1.475.352l.275-.704z"/>
      <path d="M101.94 137.07s.574.214.727.304c.152.09.255.242.255.242s-.553.194-.718.194c-.166 0-.367-.173-.367-.173l.104-.567z"/>
      <path d="m90.601 114.757.08.093.047.055.071.008.222.025c.152.139.32.258.495.366.038-.326.072-.691-.137-.97a1.737 1.737 0 0 0-.132-.155l-.646.578z"/>
      <path d="M82.438 116.341c-.352.52-.716 1.055-.99 1.64 0 0-.119.219-.156.333-.037.115.035.297.046.473.183-.105.337-.26.386-.45.01-.037.136-.134.194-.149.429-.11.802-.427.98-.845l.001-.005-.461-.997z"/>
      <path d="m81.003 116.37-.06.063c-.315.328-.638.665-.814 1.099-.066.112-.126.229-.177.352-.11.247.045.492.15.71.148-.243.259-.539.526-.68.114-.056.216-.125.31-.203a1.04 1.04 0 0 0 .215-.201l.06-.074.014-.016a25 25 0 0 0 .221-.275c.182-.229.586-.684.586-.684l.008-.01-1.04-.08z"/>
      <path d="m80.601 115.215-.005.004-.004.005c-.1.102-.211.197-.328.297-.144.125-.436.408-.444.414-.41.338-.564.873-.648 1.377.338-.135.592-.391.85-.64.085-.01.168-.018.247-.028l.06-.008.045-.042c.175-.169.545-.508.545-.508l-.318-.871z"/>
    </g>
    <polygon points="104.79 111.098 103.656 111.364 102.093 108.876 105.878 108.344"/>
    <path class="secondary" stroke-width=".29" d="M96.82 113.673c-.281-.044-2.62-.453-2.84-.501-.239-.053-3.861-.783-4.055-.517-.195.265.116.588.279.745.12.121.262.226.411.336.357.263.726.536.781 1.037l.013.113-.634-.069s-1.106-1.285-1.8-1.598c-.704-.401-2.21-.766-3.08.06l-.003.002-.004.003c-1.398 1.064-2.46 2.453-3.074 4.02-.19.45-.618.772-1.089.826l-.271.056.078-.166c.27-.579.632-1.112.982-1.628.188-.277.763-1.181.866-1.34.146-.226.296-.457.425-.698-.7.568-1.27 1.29-1.836 2.041l-.004.005-.005.005c-.21.212-.4.451-.583.683-.096.12-.194.244-.296.365-.215.274-.555.375-.827.457l-.155.046.039-.156c.132-.534.929-1.363.929-1.363.24-.241.465-.504.684-.757.213-.248 1.635-1.821 2.023-2.324-.088.077-.174.155-.26.232-.234.212-.475.43-.737.62-.125.101-2.489 2.34-2.489 2.34l-.756.075.052-.136c.148-.384.45-.644.74-.895.114-.097 1.964-1.874 2.393-2.213l.44-.343c1.054-.824 2.144-1.677 3.424-2.17.361-.116.74-.171 1.165-.171.633 0 1.259.128 1.734.239.757.212 1.577.378 2.509.508 1.726.189 8.967 1.397 10.48 1.667.121.022.753.158 1.23.21.288.031.518-.007.547-.01-.088-.395-.258-.771-.422-1.137-.162-.358-.42-1.173-.42-1.173.11-.316.399-.687.676-.755.278-.069.658.12.755.331.08.165.138.34.194.51.02.062.85 2.05 1.415 2.747.277.337.527.676.538 1.106.007.527-.312 1.212-1.063 1.212-.552 0-.943-.4-1.183-.698-.099-.124-.193-.24-.304-.34-.177-.094-.382-.098-.598-.104-.109-.001-1.357-.308-1.95-.428-.527-.155-4.97-.891-5.064-.907z"/>
    <path class="secondary" stroke-width=".29" d="M98.813 110.207c.09.214 2.227 6.178 2.314 6.397.096.26.52 1.07.595 1.234.272.563.271 1.289-.003 1.988a10.006 10.006 0 0 0-.422 1.272c-.063.27-.062.616-.1.915-.068.527-.747 8.217-.746 8.698-.099 1.15-.236 2.306-.37 3.425 0 0-.281 1.93-.189 2.116.033.066.174.35.536.485.649.24 1.987.542 1.987.542l-.17.448-.293.019c-.146.01-.457.026-.457.026l-.01-.002s-.632-.17-.9-.239c-.345-.088-.702-.18-1.048-.298a1.06 1.06 0 0 0-.33-.05c-.257 0-1.98.499-2.525.637-.522.132-3.413.946-4.32 1.141 0 0-.58.188-.797.31-.22.125-.449.253-.713.3-.052.006-.1.009-.148.009-.22 0-.432-.05-.638-.099l-.32-.069.04-.434s1.378-.341 1.986-.414c.525-.066 1.034-.248 1.527-.424.266-.095.542-.194.818-.274.245-.072.479-.16.7-.264-.368.067-.773.123-1.251.176-.452.09-2.139.333-2.517.401a4.458 4.458 0 0 1-.595.043c-.17 0-.335-.012-.49-.036-.193-.03-.49-.451-.49-.451l.118-.04c.291-.1.607-.163.968-.194.173-.014.705-.02.735-.02.534 0 1.075-.081 1.598-.16.256-.037.52-.077.782-.107 0 0 .824-.055 1.142-.186-.078.009-.935.076-1.023.076-.49 0-.995 0-1.492-.07a23.59 23.59 0 0 0-.294.022c-.294.023-.597.046-.898.046-.375 0-.902-.056-1.01-.132-.109-.076-.408-.454-.408-.454l.144-.036c.128-.032.263-.048.414-.048.209 0 .42.03.623.06.201.029.407.058.606.058.127 0 .241-.011.349-.036l.008-.002h.007c.862-.043 2.754-.213 2.884-.213.928 0 1.81-.229 2.548-.663.608-.386 1.107-.948 1.341-1.68.166-.53.256-1.083.328-1.604.034-.25.306-8.882.293-9.752-.012-.87-.178-2.994-.208-3.34-.036-.44-.074-.895-.037-1.348.02-.2.218-.86.242-1.005-.056-.437-.2-.867-.338-1.282l-2.096-5.9 2.013.482z"/>
    <path stroke-width=".363" d="m110.277 92.664 9.384 20.424c-.566-.618-4.05-1.99-5.465-2.69 0 0-2.033-.863-3.574-1.036-1.54-.172-3.53-.136-3.53-.136s-2.097.434-3.845.241c-1.648-.182-3.242-.912-3.403-.947l-.015-.004c.004.244-.019 1.187-.037 1.397-.01.353-.065.704-.161 1.036l-.031.108-.112-.008c-.57-.04-1.01-.384-1.434-.716a7.259 7.259 0 0 0-.136-.106c-.254.288-.949.823-.949.823l-2.42-3.912c-.182-.283-.354-.55-.635-.69 0 0-2.324-1.386-3.802-2.65-1.304-1.116-2.318-2.415-2.575-2.756-.285-.4-.568-.83-.768-1.297-.135.218-.381.53-.637.703-.333.225-.67.284-.67.284s.14-.575.215-1.207a9.753 9.753 0 0 0 .05-1.39c-.265.379-.5.665-.871 1.023-.395.38-.826.634-.826.634s.242-1.187.268-1.73c.033-.679-.065-2.062-.068-2.092-.097.157-.324.43-.55.635-.272.247-.538.415-.538.415s.112-.61.159-1.3a9.933 9.933 0 0 0-.017-1.47c-.107.199-.626.858-.626.858s-.06-1.192-.099-2.345c-.05-1.525-.052-3.688.21-5.573.856-6.16 4.316-9.144 6.87-13.31.735-1.198 1.08-2.462 1.1-2.97a6.928 6.928 0 0 1 .008-.425c.016-.428-.031-1.002-.164-1.179-.134-.177-.113-.531-.105-.582-.383-.125-.714-.348-1.009-.547-.297-.196-.246-.593-.11-.873.191-.368.387-.718.69-.98h-.025c-.113 0-.514-.275-.858-.603-.319-.304-.585-.657-.617-.757l-.007-.043c0-.283.123-.53.242-.767.022-.045.147-.276.147-.276.431-.743.877-1.512 1.57-2.065.932-.85 2.174-1.362 3.215-1.362 2.445 0 3.903 2.17 4.219 3.54.22.915.585 2.616-.124 4.707-.453 1.336-1.731 3.33-2.023 3.75-.814 1.167-1.924 2.908-2.726 4.859-1.33 3.24-1.217 6.3.302 8.187.949 1.178 2.615 1.975 4.952 2.369.508.053 1.016.179 1.506.3.14.036.28.07.421.104.41.108.818.237 1.213.36.962.304 1.957.617 2.978.643l.146.004-.012.146c-.012.128-.022.257-.03.387.224.105.47.157.726.212.21.045.429.091.639.17l.172.065s2.42 1.261 4.149 2.27"/>
    <path fill="none" stroke-width=".29" d="M90.531 68.73c1.533.438 4.1-.811 4.712-1.375"/>
    <path fill="none" stroke-width=".29" d="M76.034 70.607s14.296-4.414 14.754-4.498c.459-.083.438.104.438.104"/>
    <polygon points="106.804 108.983 107.276 109.374 108.15 109.339 110.588 109.615 112.474 109.995 113.06 110.006 114.015 110.455 114.693 110.282 113.083 109.374 108.621 108.718 106.804 108.983"/>
    <path stroke="none" d="m110.523 93.2 5.428 4.14 3.73 4 1.61 2.53s.295.728.454 1.237c.159.51.952 3.105.952 3.105l.94 9.135-.507-.246-7.221-11.39-7.498-5.383 2.112-7.127z"/>
    <path class="pseudostroke" fill="black" d="M94.533 63.406c-.052-.096-.909.05-.909.05-.532.104-1.072.206-1.605.206-.058 0-.115-.001-.173-.003h-.01c-.275.003-.652.022-.993.193-.54.25-.807.739-1.074 1.204-.105.183-.21.367-.324.53l-.04.056-.151.214.363.203s.393-.457.517-.559a.695.695 0 0 1 .419-.171l.17.027c.174.029.362.06.552.061.243.002.46-.058.633-.192.2-.159.334-.36.468-.553.18-.267.351-.506.611-.638.148-.05.301-.094.45-.138.092-.027 1.148-.395 1.096-.49z"/>
    <path fill="#f6f6f6" d="M91.446 64.61c-.064-.062.074-.307.121-.355.113-.112.408-.164.469-.069.06.095.043.252-.104.347-.085.055-.4.162-.486.078z"/>
    <g fill="none" stroke-width=".334">
      <path d="M97.735 92.434c-.706-.49-6.41-3.588-7.606-3.22-1.196.368-2.422 1.901-2.637 3.833-.215 1.932.644 3.834 2.177 3.864 1.534.031 1.38-.736 1.38-.736"/>
      <path d="M88.841 93.293s1.41 2.913 2.515 2.944c1.104.03 1.196-.706 1.196-.706"/>
      <path d="M90.528 92.74s1.656 3.006 2.606 3.067c.12.008.5.083.736-.092.318-.233.491-.736.491-.736"/>
      <path d="M92.306 92.22s1.496 2.42 2.311 2.958c.025.017.291.217.632.267.35.052.778-.048 1.136-.282"/>
      <path d="M93.38 102.431s-1.82-.925-3.159-2.177c-.977-.914-1.557-2.187-1.686-2.484-.307-.705-.301-1.616-.301-1.616"/>
      <path d="M88.703 96.629s.322.773.905 1.509c.582.736 1.932 2.147 2.76 2.239.828.092 1.318-.276 1.318-.276"/>
      <path d="M90.65 96.85s1.411 1.963 1.902 2.423c.49.46 1.102.898 1.594.858.767-.061 1.104-.766 1.104-.766"/>
      <path d="M92.124 96.145s1.9 2.637 2.789 2.974c1.26.478 1.513-.193 1.717-.368"/>
      <path d="M93.816 95.8s2.201 2.92 3.213 2.92 1.41-.582 1.41-.582-.735-.276-1.44-.95c-.706-.675-1.453-1.68-1.453-1.68"/>
    </g>
    <g stroke-width=".29">
      <path d="M105.87 107.456c.299.599.997 1.87 1.62 1.994.623.125.723 0 .723 0"/>
      <path d="M107.14 107.531s.762 1.736 1.272 2.02c.634.351 1.278.064 1.278.064"/>
      <path d="M108.786 107.78s.64 1.747 1.197 2.044c.662.355 1.32.05 1.32.05"/>
      <path d="M110.382 108.055s.627 2.01 1.425 2.135c.797.125.977-.092.977-.092"/>
      <path d="M111.852 108.18s.449 1.62 1.122 2.018c.673.4 1.346.175 1.346.175"/>
      <path d="M113.423 108.279s.523 1.969 1.22 2.293c.699.324 1.422.175 1.422.175"/>
      <path fill="none" d="M114.968 107.531s.374 2.593.948 3.091c.573.499 1.794.05 1.794.05"/>
    </g>
    <g stroke="none" fill="black">
      <path d="M107.006 105.178c-.06 0-.122 0-.183-.002-1.57-.038-3.348-.552-3.955-.726-.775.561-1.497 1.067-2.006 1.439.081.013.161.029.243.04 1.44.22 2.99.296 4.454.296a50.488 50.488 0 0 0 6.024-.376c-.483-.398-.964-.788-1.43-1.16-.352.105-1.718.488-3.147.489z"/>
      <path d="M98.621 100.653c.049.038.11.09.196.159.13.104.303.242.516.397a9.794 9.794 0 0 0 1.682.994c1.083.496 2.717.746 3.19.742v.046c.466-.363.91-.728 1.298-1.075-.654-.04-1.7-.156-2.559-.478-1.452-.546-2.904-1.435-3.333-1.73-.057-.041-.09-.064-.124-.094h-.002c-.051-.006-.233.065-.395.173-.166.105-.33.238-.413.322-.046.039-.081.165-.079.3a1.456 1.456 0 0 0 .023.244z"/>
      <path d="M101.571 104.927c-.614-.043-1.613-.184-2.426-.65a16.95 16.95 0 0 1-1.794-1.236c-.592-.463-1.1-.91-1.334-1.215a1.018 1.018 0 0 1-.096-.153l-.008.032s-.108-.026-.247-.054a3.445 3.445 0 0 0-.412-.063 6.012 6.012 0 0 0-.316-.007c-.387-.001-1.048.026-1.565.162a2.42 2.42 0 0 0-.677.29c-.09.056-.165.117-.213.163l.052.039c.117.086.29.21.512.36.446.302 1.09.713 1.885 1.147 1.426.777 3.334 1.626 5.437 2.055.302-.228.72-.527 1.202-.87z"/>
      <path d="M122.26 114.331c-.644-1.858-1.545-4.177-2.669-6.262-1.44-2.671-3.687-4.759-4.834-5.744-1.18-1.015-3.127-2.298-5.203-3.285-2.276-1.082-4.775-1.947-5.88-2.31l-.02-.007c.212.326.437.722.643 1.097.28.515.516.982.596 1.144.67.054 1.304.171 1.756.421.243.136.44.323.534.576.026.07.038.144.038.219-.002.23-.103.457-.26.7-.11.168-.25.344-.415.527.77.584 4.634 3.527 7.578 6.115 1.676 1.473 2.911 2.957 3.513 3.652a31.75 31.75 0 0 1 1.664 2.097c.481.664 2.249 2.69 3.534 3.633.115.086.227.16.333.226l-.137-.443a72.986 72.986 0 0 0-.77-2.356z"/>
      <path d="M122.235 106.853c-.224-.612-.646-1.499-1.056-2.252-.47-.865-.928-1.577-1.15-1.866-1.01-1.314-2.549-2.99-5.023-5.007a34.51 34.51 0 0 0-6.117-3.99l-.041.032-.07-.088a24.898 24.898 0 0 0-2.72-1.19c-.127-.046-.192-.067-.192-.067l-.074-.024-.035-.07s-.04-.083-.113-.217a9.467 9.467 0 0 0-.301-.514c-.246-.392-.583-.836-.869-1.02-.133-.09-.224-.112-.266-.11-.042.002-.04.006-.058.025a.223.223 0 0 0-.03.123c-.002.075.03.156.053.176.1.108.227.315.372.571.143.254.29.544.388.783.064.164.112.289.115.42a.247.247 0 0 1-.107.215c-.058.034-.1.035-.135.036-.14-.005-.274-.06-.459-.135a10.78 10.78 0 0 1-.727-.34c.477.738.939 1.598 1.305 2.406.512 1.135.791 2.232.793 2.238l-.102.026a48.77 48.77 0 0 1 4.096 1.693c2.108 1.003 4.071 2.296 5.285 3.339 1.162.999 3.44 3.108 4.918 5.848 1.708 3.168 2.895 6.839 3.468 8.683l.24.777a.618.618 0 0 0 .209.04c.087-.002.119-.02.158-.066.039-.047.08-.155.087-.339.004-.08.005-.171.005-.273.001-1.29-.28-4.142-.859-6.608a28.899 28.899 0 0 0-.988-3.255z"/>
      <path d="M96.246 101.501c0 .004.004.01.01.02.01.02.028.05.054.083.052.068.131.156.23.256.2.199.479.444.794.699.631.51 1.41 1.063 1.995 1.4.987.573 2.403.622 2.73.62a80.448 80.448 0 0 0 1.76-1.29c-.729-.075-1.995-.318-2.956-.752a10.092 10.092 0 0 1-1.705-1.001c-.431-.31-.728-.57-.795-.616l-.003-.002c-.049-.033-.205-.069-.399-.067-.511-.005-1.298.204-1.59.455-.1.082-.128.148-.126.185v.01z"/>
      <path d="m103.231 96.168.044.046c.23.073 1 .318 2.038.692a14.523 14.523 0 0 0-.724-2.004c-.661-1.473-1.692-3.16-2.437-3.801-.917-.798-1.952-1.021-2.492-1.083.17.29.367.761.368 1.402 0 .08-.003.161-.01.246-.042.562-.259.932-.495 1.15-.101.094-.202.16-.293.208l.063.039c.847.566 3.36 2.53 3.938 3.105z"/>
      <path d="M109.014 93.39a34.857 34.857 0 0 1 6.224 4.053c2.494 2.032 4.054 3.73 5.082 5.068.402.523.724.992.988 1.403-.2-.525-.448-1.13-.733-1.743a17.473 17.473 0 0 0-1.804-3.002c-1.325-1.745-3.011-3.7-4.775-5.24a18.688 18.688 0 0 0-4.508-2.93c-1.286-.587-2.272-.831-2.612-.866a1.38 1.38 0 0 0-.152-.009c-.286 0-.536.089-.707.216-.173.129-.259.287-.258.432l.001.033c.009.085.035.14.09.203a.908.908 0 0 0 .262.185c.237.124.588.238.977.404.439.191.928.672 1.337 1.111.25.272.462.526.588.681z"/>
      <path d="M103.246 104.175c.762.213 2.27.602 3.585.633.059.002.117.002.175.002 1.137 0 2.26-.259 2.795-.404a34.247 34.247 0 0 0-.144-.114c-.351-.036-1.6-.17-2.597-.409-1.087-.26-1.671-.51-2.263-.891-.152.122-.307.244-.464.366a53.97 53.97 0 0 1-1.087.817z"/>
      <path d="M106.292 101.676a16.09 16.09 0 0 1-1.193 1.07c.524.323 1.044.537 2.047.78.564.135 1.227.238 1.746.306l.221.029a195.336 195.336 0 0 0-2.821-2.185z"/>
      <path d="M106.853 100.18a.264.264 0 0 0-.015-.092c-.053-.145-.174-.272-.37-.382a2.698 2.698 0 0 0-.76-.26c-.607-.126-1.366-.159-2.062-.159-.653 0-1.249.028-1.631.028-.08 0-.15-.002-.21-.004-.233-.014-.624-.108-1.103-.274l-.023.05s-.044-.02-.102-.04a.62.62 0 0 0-.144-.036l-.007.001a.675.675 0 0 0-.11.045.502.502 0 0 0-.154.117.186.186 0 0 0-.02.068c-.009.046-.005.096-.043.186a.111.111 0 0 0-.01.052.22.22 0 0 0 .022.091v.002h.001l-.018.011c.19.12.44.271.733.437a16.64 16.64 0 0 0 2.247 1.073c.971.367 2.285.46 2.807.47.335-.324.605-.626.773-.886.138-.21.202-.388.2-.499z"/>
      <path d="M101.821 98.943c.053.002.118.004.194.004.366 0 .97-.028 1.63-.028.27.001.547.006.823.018-.112-.222-.29-.57-.493-.941-.34-.626-.762-1.33-1.004-1.568-.525-.529-3.073-2.521-3.882-3.06a2.249 2.249 0 0 0-1.256-.397h-.002c-.517 0-.993.194-1.335.492-.344.3-.55.697-.55 1.101 0 .16.033.324.103.488.22.516.718 1.24 2.376 2.43.62.446 1.357.808 1.998 1.06.637.252 1.194.393 1.398.401z"/>
    </g>
  </g>
</svg>
