<svg width="800" height="800" fill="#d7374a" stroke="#000" viewBox="50 50 200 200" xmlns="http://www.w3.org/2000/svg">
<!-- source: wappenwiki.org, CC BY-NC-SA 3.0 -->
 <g id="swanErased" stroke-width=".76" transform="matrix(0.9,0,0,0.9,9.7,9.7)">
  <path d="M87.96 85.52a52.51 52.51 0 00-11.24 3.63c-3.27 1.4-6.45 3.17-9.94 3.95-3.4.68-7.32.28-9.96-2.15-.4-.21-1.38-2.3-.55-1.81 3.1 1.9 7.02 1.69 10.46 1.03 3.33-.57 6.45-1.91 9.59-3.11a43.35 43.35 0 019.5-2.34c.66-.1 1.33-.19 1.99-.26"/>
  <path d="M86.11 77.89c-.84-.69-.63-2.71-2.3-2.97-.77-.1-.9 0-1.3.16l-1.27 1.29s-2.36 1.77-4.44 3.22c-.73.5-4.74 2.4-6.13 2.94-.81.3-.81.3-2.26.96-1.44.66-2.3.84-2.74 1.42-.43.59-.93 1.22-.78 1.96 0 0 .28.45 2.15.32 2.59-.25 3.88-1.03 6.37-1.62 2.74-.63 4.33.36 6.94-.1 2.9-.5 3.83-3.24 6.65-.08-2.1 1.32-4.29 1.86-7.38 3.55-1.93 1.07-2.9 1.53-4.1 2.49-1.76 1.4-3.66 2.28-5.13 3.8-.2.2.08 1.1.99.79a5.9 5.9 0 001.87-1.2c.84-.73 1.35-.75 2.8-1.67 1.41-.88 2.45-1.37 3.09-1.77a20 20 0 013.88-1.85c2.18-.69 4.38-1.8 4.38-1.8.26-1.47.92-2.18 1.25-3.98.45-4.06-1.68-5.18-2.54-5.86z"/>
  <path d="M135.9 71.12c-5.65-4.59-12.24-5.12-17.18-5.12-4.6 0-7.64 1.09-9.66 1.72 0 0-3.76-4-10.4-4.13-9.69-.18-12.32 4.56-13.2 6.31-.92 1.75-4.17 5.43-3.36 5.28.82-.18.76-.4 1.73-.26 1.67.23 1.47 2.28 2.3 2.97.84.68 3 1.8 2.54 5.8-.33 1.83-.99 2.52-1.24 3.99.53 1.47 3.93.8 3.93.8s10.44 3.79 16.43-7.17c0 0 4.51-3.52 11.33-3.52 8.85 0 14.13 3.6 14.13 9.66 0 5.9-5.48 10.22-12.99 13.46-11.66 5.07-27.4 7.15-32.58 8.57-9.5 2.1-16.28 5.63-19.9 12.4l-.05.08c0 .02-.03.05-.03.05s0 .02-.02.02a25.74 25.74 0 00-2.26 6.6 5.6 5.6 0 01-.46 1.16c-1.34 2.51-3.55 3.68-5.22 4.46 3.83.84 6.14 1.12 9.84-.88 3.65-1.98 3.52-2.72 4.33-3.53l.03.03c0 .7 5.32 6.13 9.86 6.74a9.07 9.07 0 011.7-7.25.29.29 0 00.08-.1c.94.99 1.5.56 4.46 2.86 3.12 2.44 7.23 2.7 11.08 1.86-1.67-.8-7.63-3.43-9.08-10.12-.1-1.1.51-1.67 1.4-2.1 2.23-.69 5.63-.92 10.4-1.86 11.2-2.2 21.6-6.06 28.11-10.98 9.13-5.83 12-13.61 12-21.32-.06-6.8-3-12.4-8.04-16.48z"/>
  <path fill="#fff" d="M91.28 71.37c.89.03 1.37 1.14 1.37 2.2-.02 1.07-.76 1.83-1.65 1.8a1.7 1.7 0 01-1.26-.5c-.49-.63-.56-1.21-.46-2.3 0-.54 1.09-1.22 2-1.2z"/>
  <path fill="#000" stroke="none" d="M91.26 73.2c.17.68.02 1.34-.3 1.47-.36.13-.77-.33-.95-1.04-.17-.68-.02-1.34.3-1.47.41-.13.62-.3.95 1.04zM82.28 77.71c-.06 1.33-2.89 3-3.21 2.67.47-1.46 2.24-1.68 3.21-2.67zm-.23 2.44c-.18-2.32 3.88-1.55 1.79.07-2.19 1.1 1.24-1.68-.9-.71-.3.2-.6.43-.89.64zm8.78-.64c0 1.56-.19 3.13-.11 4.69-.73-.33-.75-1.62-.73-2.39.08-.8.28-1.71.84-2.3zm7.73-7.33c.28-1.48 3.54-.84 1.2-.1-.38.16-.8.17-1.2.1zm3.17.54c.57-1.55 3.4-.04 1.11.02-.37.03-.74.06-1.11-.02zm2.51 1.49c1.6-1.12 3.37 2.37 1.02.62-.35-.19-.69-.4-1.02-.62zm-9.59-.76c-.94.68-3.24 1.59-1.42-.1.41-.3 1.06-.28 1.42.1zm-6.49-2.41c1.72.8 4.59-2.63 4.97-1.58-1.2 1.06-3.05 2.93-4.74 1.8a1.67 1.67 0 01-.23-.22zm-14.42 50.49c-.71 2.73-.54 5.68.54 8.29-1.8.57-1.16-3.41-1.29-4.71.1-1.22.35-2.43.75-3.58zm11.48 7.6a5.96 5.96 0 00-.5-7.14 6.44 6.44 0 011.14 7.58l-.64-.44z"/>
 </g>
</svg>
