<svg xmlns="http://www.w3.org/2000/svg" width="84" height="84" viewBox="0 0 84 84">
  <path fill="#222" fill-opacity=".2" d="M84 23a8 8 0 01-8-8V8h-7a8 8 0 01-8-8H23a8 8 0 01-8 8H8v7a8 8 0 01-8 8v38a8 8 0 018 8v7h7a8 8 0 018 8h38a8 8 0 018-8h7v-7a8 8 0 018-8V23zM59.05 83H43V66.95A10 10 0 0052 57v-5h5a10 10 0 009.95-9H83v16.05A10 10 0 0074 69v5h-5a10 10 0 00-9.95 9zm-34.1 0H41V66.95A10 10 0 0132 57v-5h-5a10 10 0 01-9.95-9H1v16.05A10 10 0 0110 69v5h5a10 10 0 019.95 9zm0-82H41v16.05A10 10 0 0032 27v5h-5a10 10 0 00-9.95 9H1V24.95A10 10 0 0010 15v-5h5a10 10 0 009.95-9zm34.1 0H43v16.05A10 10 0 0152 27v5h5a10 10 0 019.95 9H83V24.95A10 10 0 0174 15v-5h-5a10 10 0 01-9.95-9zM50 50v7a8 8 0 11-16 0v-7h-7a8 8 0 110-16h7v-7a8 8 0 1116 0v7h7a8 8 0 110 16h-7z"/>
</svg>
