<svg xmlns="http://www.w3.org/2000/svg" width="512" height="512" version="1.1" viewBox="0 0 55 55"><rect width="100%" height="100%" fill="#35bdb2"/><path fill="#fff" stroke="none" d="M47.7 3.4l.6 1.4A10 10 0 0045 7a6 6 0 00-1.5 2.4c-.3 1-.4 2.2-.4 4v2.1l.5 23.2c0 2.5.3 4.2.8 5 .4.6.8.8 1.3.8.6 0 1.5-.6 2.8-1.8l1 1.1-5.9 5-1.9 1.5a7 7 0 01-3.5-3A74.6 74.6 0 0137 34.4H16.7s-7.4 9.1-7.4 11.1c0 .6.2 1.1.6 1.8.5 1 .8 1.4.8 1.7 0 .4 0 .7-.4 1-.3.3-.6.4-1 .4-.6 0-1-.2-1.3-.6-.5-.6-.7-1.3-.7-2.2 0-1 .3-2 .8-3.3 2.4-4 5-7.2 7.7-11-3-2.2-5-4.4-6.3-6.5-1.2-2-1.8-4.3-1.8-6.9 0-3 .8-5.7 2.3-8.3 1.5-2.5 3.8-4.5 7-6 3-1.5 6.1-2.2 9.3-2.2 5 0 9.7 1.7 14.3 5.1a23.6 23.6 0 017.2-5.2zm-15.3 7.2a17.2 17.2 0 00-15.6 0 13.2 13.2 0 00-5.4 4.6 11 11 0 00-1.8 6c0 4.1 2.3 8 7 11.2l10.3-14.3a9.6 9.6 0 00-4.2-1.3c-1.7 0-3 .8-4.2 2.4-.4.7-1 .5-1-.2a6 6 0 011-2.7 8.3 8.3 0 016.9-3.9c1.3 0 3 .4 4.8 1.1zm4 3.2a10 10 0 00-2.7-2.4L20.1 29.8h16.7z"/></svg>