<svg width="800" height="800" fill="#d7374a" stroke="#000" viewBox="50 50 200 200" xmlns="http://www.w3.org/2000/svg">
<!-- source: wappenwiki.org, CC BY-NC-SA 3.0 -->
 <g id="boat" stroke-width=".35">
  <path d="m136.3 64.6c-1.691-0.15565-3.197 1.08-4.9 0.9-1.3546 0.03344-2.5014-0.70159-3.6356-1.3178-1.1719-0.69538-2.6081-0.94692-3.912-0.44738-1.0359 0.32148-1.9617 1.0698-3.0525 1.1652-0.90969-0.06406-1.661-0.73987-2.5166-1.027-1.3535-0.58886-2.7711-1.1796-4.2834-0.97297-1.3426 0.0251-2.6078 0.47643-3.8685 0.87882-1.9012 0.716-3.8507-0.66458-5.5315-0.77882s-3.7395-0.79267-4.5219 0.01877l0.0384 5.6213c0.23794 0.42006 0.60261 0.30402 1.1665-0.03585 0.84986-0.21733 1.7479-0.1872 2.617-0.10425 1.0321 0.09851 2.0435 0.5182 3.0285 0.70952 1.528 0.25546 3.0947 0.1331 4.5321-0.46447 1.3124-0.4408 2.6524-1.3095 4.0861-0.9864 1.2905 0.49088 2.6259 0.87759 3.9641 1.1992 1.6288 0.26852 3.251-0.25974 4.5601-1.2203 0.66272-0.30511 1.2099-1.0546 2.0025-0.80818 0.87359 0.32402 1.6789 0.80158 2.6118 0.94567 1.9748 0.48976 4.1687 0.10944 5.7921-1.1262 1.0383-0.57394 2.0923-1.2822 3.3386-1.1488 0.56256 0.04419 1.2576 0.78545 0.48417-0.2-0.44667-0.56911-1.4004-0.74481-2-0.8z"/>
  <path d="m67.2 116.2 32.986-48.568-0.0785 1.6149-31.954 47.295 11.986 3.5842 19.977-51.486v2.0608l-19.192 49.603" stroke-width=".25px"/>
  <path d="m100.2 68.088c2.0344 3.2564 32.139 47.664 32.139 47.664l-0.69485 0.35735-31.537-46.863 22.199 49.923-0.99792-0.0855-21.171-47.973" stroke-width=".25px"/>
  <path d="m128.1 128.1-2.8 1 1.7 6.5 3-1z"/>
  <path d="m98.6 126.1 0.8-64h1.3l0.9 64z"/>
  <path d="M100 60.4c.3 0 1 .5 1 1.5s-1.9 1.2-2 .1c0-1 .7-1.6 1-1.6zM100.1 139.7c-26.6 0-27.6-7.7-27.6-7.7l-6.9-20s2.2 10 34.5 10 34.5-10 34.5-10l-6.9 20s-1 7.7-27.6 7.7z"/>
  <g fill="none">
    <path d="M68.6 119.5c2.3 1 14 5.9 31.4 5.9a82 82 0 0031.6-5.9"/>
    <path d="M69.3 122.6a80.4 80.4 0 0030.7 5.7c15.8 0 27-4 30.7-5.6"/>
    <path d="m70.6 126.1c4.4 1.8 15 5.3 29.4 5.3 14.3 0 24.9-3.4 29.5-5.2"/>
    <path d="m72 129.5a80 80 0 0 0 28 4.9c13 0 23-3 28-4.8m-53.5 3.7a85.7 85.7 0 0 0 51 0m-17.3-2.3-0.3-2.8m1.1-0.2 0.2 3m-0.6 5.8-0.2-2.8m1-0.1 0.2 2.8m-2-11.6-0.2-2.9m1-0.1 0.3 3m7.1 7.9-0.5-3m1.1-0.1 0.4 2.9m-2-5.6-0.4-3m1-0.1 0.5 2.9m6.7 1.5-0.7-2.8m1-0.3 0.7 2.9m0.4 5.6-0.7-2.7m1-0.2 0.6 2.6m-3.7-10.6-0.7-3m1-0.2 0.7 2.9m6 1-0.8-2.6m1-0.3 0.8 2.7m-37.2 7.5 0.3-2.8m-1.1-0.2-0.2 3m0.6 5.8 0.2-2.8m-1-0.1-0.2 2.8m1.9-11.6 0.3-2.9m-1.1-0.1-0.2 3m-7.2 7.9 0.5-3m-1-0.1-0.5 2.9m2-5.6 0.5-3m-1-0.1-0.5 2.9m-6.7 1.5 0.7-2.8m-1-0.3-0.7 2.9m-0.3 5.6 0.6-2.7m-0.9-0.2-0.7 2.6m3.7-10.6 0.7-3m-1-0.2-0.7 2.9m-6 1 0.8-2.6m-1-0.3-0.8 2.7m28.6 10.9v-3m1 0.1v2.9m-1-6v-2.9m1 0v3"/>
  </g>
  <path d="m61.8 102.8s1.6 0.4 2.7 1.9c1 1.2 1.3 3.2 1.3 3.2s1.7 10.1 4.8 18c2.8 7.5 7 10.6 7 10.6s-5-2.3-7.2-5.3c-3.9-5.3-8.6-28.4-8.6-28.4zm76.6 0s-1.6 0.4-2.8 1.9c-1 1.2-1.2 3.2-1.2 3.2s-1.7 10.1-4.8 18c-2.8 7.5-7 10.6-7 10.6s5-2.3 7.2-5.3c3.9-5.3 8.6-28.4 8.6-28.4z"/>
  <path d="m 133.2,116.3 c 0,0 -13.8,6.7 -33.2,6.7 -19.4,0 -32.9,-6.6 -32.9,-6.6 0,0 -0.5,-0.2 -0.5,-1 0,-0.6 0.5,-0.8 0.5,-0.8 0,0 13.6,6.6 33,6.6 19.4,0 33,-6.6 33,-6.6 0,0 0.4,0.3 0.4,1 -0.0343,0.25153 -0.0969,0.54768 -0.3,0.7 z"/>
 </g>
</svg>
