<svg width="800" height="800" fill="#d7374a" viewBox="50 50 200 200" xmlns="http://www.w3.org/2000/svg">
<!-- source: wappenwiki.org, CC BY-NC-SA 3.0 -->
 <g id="bullHeadCaboshed" stroke="#000" stroke-width=".3">
  <path d="M111.33 86.02c1.3-.92 2.46-3.23 3.68-4.16 0 0 .76.01 1.7-.66 2.22-1.56 1.93-3.93 1.39-5.24-2.15-5.21-12.23-3.2-16.1-9.99-1.78-3.1-.49-6.9.61-7.31.77-.3-.17 1.61 1 3.44 3.89 6.1 17.3 2.58 23.27 11.02a10.4 10.4 0 011.83 5.84c.26 8.81-8.43 11.97-11.67 12.48-1.72 1.72-2.53-.01-4.2-.01m-24.08-5.41c-1.3-.92-2.45-3.23-3.68-4.16 0 0-.76.01-1.7-.66-2.22-1.56-1.93-3.93-1.39-5.24 2.15-5.21 12.23-3.2 16.1-9.99 1.78-3.1.49-6.9-.61-7.31-.77-.3.17 1.61-1 3.44-4.04 6.35-17.42 2.46-23.27 10.72-1.4 1.96-1.77 4.35-1.83 6.14-.26 8.81 8.44 11.97 11.67 12.48 1.72 1.72 2.53-.01 4.2-.01"/>
  <path d="M114.73 92.4s3.4-1.7 5.41-1.7c3.65 0 5.83 2.27 8.87 2.27 1.83 0 3.4-.85 4.06-1.27.32-.09.3.03.33.23-.08 1.23-1.67 4.56-4.9 6.32-.28.7-2.24 1.92-3.04 1.92-.3.24-1.07.94-3.5.94-3.4 0-7.16-1.94-7.16-2.42M85.21 92.4s-3.4-1.7-5.4-1.7c-3.65 0-5.84 2.27-8.87 2.27-1.83 0-3.4-.85-4.07-1.27-.31-.09-.3.03-.32.23.07 1.23 1.67 4.56 4.9 6.32.28.7 2.23 1.92 3.04 1.92.3.24 1.07.94 3.5.94 3.4 0 7.16-1.94 7.16-2.42"/>
  <path d="M82.7 91.7c-.82 4.79 1.36 5.5 1.24 6.75-1.6 5.22 1.35 6.57 1.35 9 0 1.78.22 1.69.68 3.84.26 1.7 1.8 3.79 2.81 5.78.25.5 1.06 3.97 1.06 4.27 0 .14-1.03 1.82-1.03 4.48 0 3.66 2.14 5.8 3.59 5.8 4.5 0 5.28-.47 7.57-.47 2.3 0 3.06.48 7.58.48 1.45 0 3.58-2.15 3.58-5.8 0-2.67-1.02-4.35-1.02-4.49 0-.3.8-3.78 1.05-4.27 1.01-2 2.56-4.07 2.82-5.78.45-2.15.68-2.06.68-3.84 0-2.43 2.96-3.77 1.35-9-.14-1.25 2.06-1.95 1.23-6.75l-.19-.25c-2.25-1.44-2.4-6.7-1.99-9.5-1.04-1.08-3.32-1.57-6.75-1.57s-5.92 1.2-8.34 1.2c-2.41 0-4.9-1.2-8.33-1.2s-5.71.49-6.76 1.57c.42 2.8.28 8.06-1.99 9.5l-.18.25z"/>
  <path fill="#F6F6F6" d="M111 100.6c0 .43.68 1.2 2.3 1.2 1.22 0 1.83-2.59 1.83-2.8 0-.22-.03-1.36-1.13-1.36-1.2-.01-3 2.99-3 2.96zM88.96 100.6c0 .43-.68 1.2-2.3 1.2-1.23 0-1.83-2.59-1.83-2.8 0-.22.03-1.36 1.13-1.36 1.19-.01 3 2.99 3 2.96z"/>
  <path fill="none" stroke-width=".22" d="M112.08 91.93c-.42.47-1.18.92-2.48 1.11-.23.01-.3-.05-.2-.17.47-.6.6-1.19.6-1.67m-2.7 1.4c-.52.38-1.3.7-2.5.9-.16.04-.35.14-.23-.1.42-1-.09-2.3-.09-2.3m-1.43 1.75c-.23.5-.4 1.1-.38 1.77.01.21-.09.21-.34.16a2.14 2.14 0 01-1.55-1m-.56-2s-.2 1.93-2.3 2.42c-.2.01-.34.1-.48-.08.34-.49.35-.87.18-1.2m-2-1.34c-.3.52-.62 1.05-.05 1.77.16.26-.05.24-.28.2-1.27-.22-1.8-.68-2.05-1.21m-1.7-1.83c.62 1.03-1.41 1.35-.25 2.33.03.29-.2.3-.49.3-1.68 0-2.32-.72-2.8-1.5"/>
  <path fill="#F2BC51" d="M108.72 124.86l-.12.38a2.54 2.54 0 01-.59.9c-.17.17-.36.3-.53.4.7 1.27 1.2 2.8 1.2 4.34a8.67 8.67 0 11-17.34 0c0-1.55.5-3.1 1.2-4.35a3 3 0 01-.84-.8 3.09 3.09 0 01-.38-.9 10.97 10.97 0 00-1.93 6.06 10.63 10.63 0 1021.26 0 11.3 11.3 0 00-1.93-6.03z"/>
  <g fill="#000" stroke="none">
    <path d="M95.78 67.1c.22636.58414-1.3063 1.4139-.99087.96869.37598-.27549.66604-.64001.99087-.96869zm-2.04.97c.15611.73336-.74608 1.4086-1.41 1.09.61979-.05005 1.2191-.48893 1.41-1.09zm-1.88.78c-.07226.52658-.89939.9337-1.16.82.39066-.26695.78563-.53478 1.16-.82zM74.02 81.99c-.02815.68298.79367 2.6576-.05 1.18-.11816-.38353-.14414-.81728.05-1.18zm1.23 2.18c.28259.5397.67358 1.7166.01.69-.1028-.21799-.09671-.46998-.01-.69zm1.47 1.73c.02035.31188.8088 1.355.12.82-.22291-.20109-.2598-.5647-.12-.82zm1.56 1.27c-.09041.50084 1.3241 1.5274.7 1.36-.50538-.23584-.78844-.83452-.7-1.36zm5.36-5.65c-1.4396-.67461-2.9967-1.945-2.96-3.68.08165 1.6826 1.6369 2.8223 3.07 3.41l-.06723.16501zM104.3 67.1c.18585.40621 1.7713 1.4344.66896.99362-.33881-.19904-.70963-.58688-.66896-.99362zm2.06.97c-.0934.76436 1.9752 1.1146.98182 1.15-.55545-.04426-1.0935-.58354-.98182-1.15zm1.87.78c.81026.42589 1.6836 1.3111.31496.48054-.15195-.12478-.24255-.30254-.31496-.48054zm17.85 13.14c.4015.54753-.0227 1.6816-.41 1.78.25837-.54298.38023-1.229.41-1.78zm-1.24 2.18c.49826.53145-.88752 1.7583-.25067.66644.0871-.2194.18129-.44221.25067-.66644zm-1.47 1.73c.54245.53797-.94361 1.5302-.19.52.009-.18642.16698-.33677.19-.52zm-1.56 1.27c.25393.59892-.51956 1.4921-.91 1.38.40412-.37488.78105-.8344.91-1.38zm-5.47-5.91c1.4317-.59478 2.9936-1.7233 3.07-3.41.0453 1.7417-1.5412 2.9884-2.96 3.69l-.0652-.16584zM95.83 90.11c.53373.44275.06997 1.2938-.13209 1.5481l-.18544-.10867s.15754-.22702.36164-.58052c.09527-.24676-.001402-.63463-.044102-.85895zm8.75-1.01c-.49438.53473-.16132 1.1751.015 1.9927-.0112.0484-.16291.04341-.18836.08272-.2923-.4691-.45639-1.6977.17333-2.0754zm5.48 32.5c-.19422-.74367-.92154-1.1961-1.48-1.58.83352.0285 1.5684.70882 1.81 1.49l-.1719.0469zm-6.89-2.68c-1.9089.35905-3.8698.74842-5.7694.0801-1.6141-.32791 2.0682.24669 2.7375.17395 1.0201.0179 2.0102-.37065 3.0319-.25406zm1.68-37.61c-2.2917.94992-4.8112.17086-7.2044.49272-.64205.29482-3.7214-.82616-1.6356-.28272 2.1947.25207 4.4163-.17189 6.62.13.74976.01076 1.5077-.10673 2.22-.34zm4.06 41.29c-.01 1.2495.18909 3.1103-1.1888 3.9275-.39238.18622-.56865.42796-.87487.47248-.2264.0329.27926-.38738.46115-.50836 1.4733-.97998 1.448-2.404 1.4525-3.7416-.21472-.0221.17859-.26777.15-.15z"/>
    <path d="M108.5 122c-.81223.91392.2194 2.698-1.02 3.33.95219-.87359-.0564-2.6363 1.02-3.33zm9.24-27.8c1.9163-1.55 4.5942-1.641 6.79-.62 2.2177.72197 4.7728.646 6.88-.19-2.729 1.5495-6.0322.96022-8.8412-.05375-1.6329-.53945-3.4131.07917-4.8288.86375zm4.23.57c-1.2804.14935-2.4326.82449-3.29 1.71-.62755.18875-.87075-1.1471-.29-.22.95317-.68139 2.1405-1.8293 3.57-1.49zM117 97.94c2.7984 1.9621 6.5403 1.9508 9.5295.44042 1.3354-.72862 3.0297-1.9417.96175-.31534-3.0678 2.126-7.5681 2.4572-10.491-.12508zm-7.3321 28.699c.26811-.82841.1417-1.9119-.10789-2.659-.67533-2.1648.79149.93277.58 1.8382-.0116.35619-.0774.81715-.27751 1.1687zM109.99 127.35c.23243-.39833.36898-.8635.42101-1.2854.0955.4995-.0262 1.0776-.30662 1.529zm-6.239 2.8546c-2.5168-.30252-5.0355-.11841-7.55.04 2.4185-.47092 5.0649-.56446 7.55-.04zm3.8-27.86c-.82784 3.1263-.28013 6.536-1.6597 9.5612-.38279 1.1695-.99889 2.9053-.37154.47506 1.203-3.0757.98536-6.4365 1.7912-9.5862.10905-.12478.11683-.35497.24-.45zm3.51 0c1.1117-.26986 2.6483.64763 3.4101-.6301 1.3085-2.06.26866.99555-1.4336 1.0038-.68533.003-1.3474-.43393-1.9765-.37369zM115.16 105.65c-.40422 1.3094-.98318 2.6573-1.52 3.86.0731-1.3855.77345-2.7729 1.52-3.86zm-2.59-8.42c-.11023-1.4381 3.3137-.47077 2.09-.43-.70994-.11347-1.6073-.1349-2.09.43zm-3.4 4.14c2.3324-1.4491 2.7763-4.2675 3.98-6.5 1.203-1.2021-.065.08705-.16634.71903-.74191 2.226-1.5656 4.6734-3.8137 5.781zm-2.89-7.21c.2221.40922-.23844 1.8391-.37 1.58-.0468-.5566.32242-1.0344.37-1.58zm.66 1.86c-.40141.25619-1.0079 1.8284-.69.52.14912-.24604.39212-.48839.69-.52zm-.32 1.58c-.27495 1.1102-.79553.55434-.05.01zm.22.97c.11649.78295-.50098.7654-.1.07.0266-.03143.0614-.0558.1-.07zm.3 1.12c.37261.79498-.30454.7581-.07.04l.03-.03zm1.02 15.18c-.28579 1.0708-.87201.4912 0 0zm-.11 1.29c.0784 1.004-.52174.72607-.14.07.0377-.0365.0856-.0683.14-.07zm.73-3.96c-.31459.222-.96955 1.4531-.69866.49653.12528-.26341.41672-.50039.69866-.49653zm-.5 1.58c-.58439 1.008-.97169.38358-.04.01h.04zm.8-15.33c.18162-1.1154.65586-2.6138 1.75-3.01-.84463.82248-1.1426 2.0385-1.75 3.01zm-19.49 23.07c.22164-.76277 1.0157-1.5254 1.81-1.46-.62755.3516-1.2751.82003-1.48 1.55-.0022.11526-.3396-.22121-.33-.09zm6.61-1.72c1.9117.0986 3.8492.86228 5.76.2.80058-.2901 2.5849-.24595.86.01-1.8963.8117-3.9896.67328-5.8737-.0695-.23628-.0902-.53646-.064-.74625-.1405zm-5.09 2.8c.38352 1.1251.1111 2.8966 1.36 3.74.72965.33102 1.6407 1.3996.20162.44695-1.5817-1.047-1.5764-2.7607-1.5616-4.187z"/>
    <path d="M91.52 121.98c1.0495.79045.07357 2.4565 1 3.36-1.2488-.74542-.18454-2.436-1-3.36zM82.2 94.21c-1.8663-1.2341-4.2488-1.3785-6.2753-.44081-2.3198.78476-5.2816.8904-7.3347-.42919 3.0085 1.431 6.3517.39807 9.38-.43 1.4743-.18177 3.1256.37238 4.23 1.3zm-4.22.55c1.482-.3328 2.588.82783 3.58 1.51.44558-.69622.43703.02827-.11.21-.82944-.07681-1.1611-1.2064-2.06-1.33-.42393-.16421-1.043-.29439-1.41-.39zm4.97 3.19c-3.3703 2.869-8.7399 2.161-11.73-.9 3.0278 2.3795 7.7618 3.4421 11.23 1.16l.51-.26zm7.2009 28.986c-.4098-.81862-.3692-2.0023.02544-2.765.64422-1.7198.43943-.56614.12386.58033-.13423.58526-.14925 1.3064.04495 1.9049zM89.933 127.6c-.31155-.45607-.44664-1.0487-.32272-1.5638.0413.49507.18494.97025.43531 1.3599zm2.4873-25.264c1.1223 2.9128.65417 6.1996 1.7406 9.1519.42064 1.1738.85116 3.5555.08445.95063-1.423-3.0248-1.1668-6.4154-1.695-9.6225.52153.187-.36937-.52007-.13-.48zm-3.53.01c-1.167.10246-2.6761 1.0102-3.5-.32-.91528-1.6425-.13821-.52671.61683.20094.88182.63584 1.9715-.21663 2.8832.11906zM84.8 105.65c.69019 1.1345 1.5401 2.5707 1.46 3.87-.46568-1.2916-1.1222-2.5555-1.46-3.87zm2.58-8.41c-.63166-.75378-1.756-.40829-2.53-.42.70131-.5233 2.2309-.64517 2.53.42zm3.39 4.14c-2.5875-1.1531-3.1329-4.117-4.13-6.42-1.068-1.2562.46867.05385.54624.74497.8437 2.0769 1.5634 4.4617 3.5838 5.675zm2.91-7.22c.11663.31038.54284 2.1578.24 1.48-.13822-.47636-.4589-.97666-.24-1.48zm-.66 1.85c.98546.23305.93582 1.7852.31.34-.10953-.10895-.19669-.23511-.31-.34zm.32 1.59c.912.62908.30446 1.2838 0 0zm-.22.97c.57101.45411-.02679 1.0821.01.13zm-.3 1.12c.42767.55199-.45017 1.1036-.03.09.05318-.0044-.015-.09937.03-.09zm19.33-.84c.24894 1.1481-1.0629 3.1578.95375 1.535.55907-.69567.76364-1.8545.15625-2.585M87.8 98.85c-.24894 1.1481 1.0629 3.1578-.95375 1.535-.56168-.69711-.75541-1.8449-.16625-2.585m5.12 17.07c.61914.15507.4698 1.161.12.25l-.06-.12zm.1 1.28c.60886.43222-.04361 1.2444.01.04v-.04zM91.17 112.18c.5877-.20154 1.0767 1.4288.55.64-.16932-.22543-.34916-.44288-.55-.64zm.5 1.59c.83283.10211.79773 1.2017.12.12-.03352-.0456-.07169-.0894-.12-.12zM90.85 98.45c-.54293-1.0169-.99254-2.1858-1.7-3.05 1.083.53593 1.5619 1.9548 1.7 3.05zM91.46 90.57c-.37387-.55182-.66979-1.4788-.15-2.02-.42689.59587.13145 1.4311.33106 1.9183zM100.12 91.77c.40734-.8297-.90673-2.4549-.65-2.32.48519.2148 1.0874 1.6697.85793 2.3293-.0386.11104-.10599-.04706-.20793-.0093zM93.25 83.49c1.238 1.7519.46796 3.8815.62 5.82.18418 1.4602-.60943-1.9308-.12089-2.3952.14587-1.1686-.038899-2.3469-.49911-3.4248zM97.82 83.49c.93352 1.6588.11557 3.4445-.07 5.15.35929 1.5739-.17653.48449-.15886-.39586.23831-1.5831.79834-3.1639.22886-4.7541zM88.96 83.38c-.30895 2.1604-.17088 4.5012.7 6.47-1.2324-1.8717-1.2941-4.3809-.7-6.47zM107.06 83.6c-1.035 1.88.47627 4.1605-.55 5.98.69867-1.9478-.77232-4.1941.55-5.98zM102.45 83.6c-.82197 1.7908.62384 4.0663-.45 5.79.74292-1.8645-.66037-4.1026.45-5.79zM110.93 83.38c-.85211 1.884.90135 3.9949-.11 5.77.64628-1.9109-1.0784-3.9445.11-5.77zM115.55 98.11c-.41401-.31954-2.2715-.28577-1.1608-.61026.37364.06982 1.1275.15016 1.1608.61026zM111.21 100.58s-2.0112 2.3528-1.1202.95368c.19342-.14759.8408-1.0897.8408-1.0897zM84.38 98.1c.12112-.65727 2.0269-.81208 1.392-.29288-.47784-.02419-.99837.13093-1.392.29288zM88.982 100.41c.50486.3047 1.5738 2.3443.81889 1.355-.17857-.39452-.55956-.65101-.99617-1.1768z"/>
    <path d="M76.58 94.09c-.6461.96991-1.9377 1.4711-3.01 1.61 1.0202-.48429 2.185-.81142 3.01-1.61zM77.54 93.96c-.02678.71972-.69459 1.4054-1.33 1.55.4812-.47491 1.0677-.90645 1.33-1.55zM123.38 94.08c.82668.79285 2.0506 1.1034 2.99 1.62-1.1065-.2245-2.3332-.6484-2.99-1.62zM122.42 93.96c.17404.60709 1.2009 1.2457 1.24 1.54-.62011-.26027-1.1963-.8575-1.24-1.54zM109.9 91.2c.0282-.13639-.26779-1.3748-.04-1.08.1544.20183.48053 1.4631.04 1.08zM112.54 90.47c.42123.32556-.1921 1.5172-.41897 1.5504-.0518.0076-.14374-.02344-.13947-.15617.3349-.34836.59834-.93762.55844-1.3942zM107.93 92c-.21377.41812-.56968.69246-.56968.69246l-.13577-.16764s.33273-.26847.71545-.52482zM100.69 93.85c-.29342-.25471-.48791-1.569-.12-.65.0465.16635.63507.95529.12.65zM97.54 92.98c-.06482-.31075-1.2888-1.2996-.42-.79.21169.11575.96963.93107.42.79zM93.13 92.39c-.21934-.28361-.308-2.1584-.058435-1.1146-.099316.27497.54928 1.3421.058435 1.1146zM87.91 91.7c.03826-.45809-1.8713-2.2258-.79-1.48.2722.28893 1.3763 1.5578.79 1.48zM103.61 91.97c-.19161.35686-.36329.73328-.47665.94232l-.19569-.08349c.12176-.3515.49072-.81794.67234-.85882z"/>
  </g>
 </g>
</svg>
