<svg width="800" height="800" fill="#d7374a" stroke="#000" viewBox="50 50 200 200" xmlns="http://www.w3.org/2000/svg">
<!-- source: wappenwiki.org, CC BY-NC-SA 3.0 -->
 <g id="cinquefoil" stroke-width=".5">
  <path d="M 99.9 61.1 C 98 61.1 94.9 65.6 89.7 67.1 C 84.6 68.5 84.5 71 84.5 72.3 C 84.5 78.5 95.1 82.1 95.1 88.4 C 95.1 89.4 94.6 90.4 93.9 90.9 C 93.1 91.2 91.9 91.2 90.8 90.6 C 84.7 87.4 86.5 77.4 80.5 74.3 C 79.3 73.7 76.7 72.5 72.8 75.8 C 68.8 79 62.9 79.2 61.9 80.6 C 61 82.1 63.8 86.8 62.7 91.4 C 61.5 96.1 63.9 97.5 65.1 98.1 C 71.1 101.2 79.9 94.8 86 98 C 87.1 98.5 87.8 99.4 87.8 100.2 C 87.8 100.9 87.1 101.8 86 102.4 C 79.9 105.5 71.1 99.1 65.1 102.2 C 63.9 102.8 61.5 104.2 62.7 108.9 C 63.8 113.6 61 118.3 61.9 119.7 C 62.9 121.2 68.8 121.3 72.8 124.6 C 76.7 127.8 79.3 126.7 80.5 126 C 86.5 122.9 84.7 112.9 90.8 109.8 C 91.9 109.2 93.1 109.1 93.9 109.5 C 94.6 109.9 95.1 110.9 95.1 112 C 95.1 118.3 84.5 121.9 84.5 128.1 C 84.5 129.3 84.6 131.9 89.7 133.3 C 94.9 134.7 98 139.3 99.9 139.3 C 101.8 139.3 104.9 134.7 110 133.3 C 115.1 131.9 115.3 129.3 115.3 128.1 C 115.3 121.9 104.7 118.3 104.7 112 C 104.7 110.9 105.2 109.9 105.9 109.5 C 106.6 109.1 107.9 109.2 109 109.8 C 115.1 112.9 113.3 122.9 119.3 126 C 120.5 126.6 123 127.8 127 124.6 C 130.9 121.3 136.9 121.2 137.8 119.7 C 138.8 118.2 135.9 113.6 137.1 108.9 C 138.3 104.2 135.9 102.8 134.7 102.2 C 128.7 99.1 119.9 105.5 113.7 102.4 C 112.7 101.8 112 100.9 111.9 100.2 C 112 99.4 112.7 98.5 113.7 98 C 119.9 94.8 128.7 101.2 134.7 98.1 C 135.9 97.5 138.3 96.1 137.1 91.4 C 135.9 86.8 138.8 82.1 137.8 80.6 C 136.9 79.2 130.9 79 127 75.8 C 123 72.5 120.5 73.7 119.3 74.3 C 113.3 77.4 115.1 87.4 109 90.6 C 107.9 91.2 106.6 91.2 105.9 90.9 C 105.2 90.4 104.7 89.4 104.7 88.4 C 104.7 82.1 115.3 78.5 115.3 72.3 C 115.3 71 115.2 68.5 110 67.1 C 104.9 65.6 101.8 61.1 99.9 61.1 z M 100 91 A 9 9 0 0 1 100 91 A 9 9 0 0 1 109 100 A 9 9 0 0 1 100 109 A 9 9 0 0 1 91 100 A 9 9 0 0 1 100 91 z"/>
  <g fill="#000">
    <path d="m 99.8,125 0.5,-14.4 h -0.7 z"></path>
    <path d="m 75.7,112.5 13.9,-7.4 0.3,0.5 z"></path>
    <path d="M 89.6,95.2 75.7,87.8 89.9,94.7 Z"></path>
    <path d="M 99.9,75.4 100.2,89.8 H 99.5 Z"></path>
    <path d="m 124,87.8 -13.9,7.4 -0.3,-0.6 z"></path>
    <path d="m 109.8,105.7 0.3,-0.5 L 124,112.5 Z"></path>
  </g>
</g>
</svg>
