<svg width="800" height="800" fill="#d7374a" viewBox="50 50 200 200" xmlns="http://www.w3.org/2000/svg">
  <!-- Author: Azgaar. License: Public Domain -->
  <g id="compassRose" stroke-width=".5">
    <path d="m 100,60 6,28 14,-8 -8,15 28,5 -28,6 8,14 -14,-8 -6,28 -6,-28 -14,8 8,-14 -28,-6 28,-6 -8,-14 14,8 z"></path>
    <path fill="#000" opacity=".5" d="m 100,61 v 39 l 7,-6 5,1 c 2.7,-5 5.3,-10 8,-15 -4.3,4.3 -8.7,9.7 -13,14 -2.3,-10.7 -4.7,-22.3 -7,-33 z m 0,39 7,7 c 10.7,-2.3 21.3,-4.7 32,-7 z m 0,0 c -2.3,2.3 -4.7,4.7 -7,7 2.3,10.7 4.7,21.3 7,32 z m 0,0 -7,-7 -32,7 z m -7,-7 1,-5 -14,-8 z m 0,14 c -1.7,-0.3 -3.3,-0.7 -5,-1 -2.7,4.7 -5.3,9.3 -8,14 4.3,-4.3 8.7,-8.7 13,-13 z m 14,0 c -0.3,1.7 -0.7,3.3 -1,5 4.7,2.7 9.3,5.3 14,8 z"></path>
  </g>
</svg>