<svg width="800" height="800" fill="#d7374a" stroke="#000" viewBox="50 50 200 200" xmlns="http://www.w3.org/2000/svg">
<!-- source: http://wappenwiki.org/images/b/b0/Eichst%C3%A4tt.svg, CC BY-NC-SA 3.0 -->
 <g id="crosier" stroke-width=".28">
  <path d="m105.7 72.4c-0.4 1-1 1.8-1.8 2.4-0.7448 0.4048-1.285 0.1465-1.9 0-0.3-0.1-0.6 0-0.7 0.3s0 0.6 0.2 0.7l-1.2 0.1c-0.6 0-1.1 0-1.6-0.2-0.4658-0.2913-0.7913-0.7614-0.9-1.3v-0.3c-0.1-0.2-0.4-0.4-0.7-0.3-0.2 0-0.3 0.1-0.4 0.3-0.4126-0.6637-0.6532-1.42-0.7-2.2v-0.4c0.05179-0.5627 0.2222-1.108 0.5-1.6 0.2-0.3 0.6-0.5 1-0.5h0.3c0.3 0 0.5-0.3 0.5-0.5s-0.2-0.4-0.5-0.5c0.7293-0.4078 1.578-0.5492 2.4-0.4 0.5 0 0.7 0.4 0.9 1v0.2c0 0.3 0.3 0.4 0.6 0.4 0.2 0 0.4-0.3 0.4-0.6 1.219 1.683-0.0657 4.405-2.2 3.6l-0.4228-0.08207c0.6345-0.2117 1.123-0.9179 1.123-1.518 0-1-0.8-1.6-1.7-1.6s-1.8 0.8-1.8 1.8c0 1.8 1.7 3 3.3 3 2.05-0.2372 3.584-1.536 3.5-3.5-1e-3 -0.7421-0.2091-1.469-0.6-2.1 0.3 0 0.5-0.3 0.5-0.5 0-0.3-0.3-0.5-0.5-0.6h-0.3c-0.3 0-0.6 0-0.9-0.2-0.1295-0.07407-0.263-0.1408-0.4-0.2-0.6384-0.3733-1.361-0.5797-2.1-0.6-0.9589-0.0033-1.898 0.2749-2.7 0.8v-0.1c0-0.3-0.3-0.5-0.6-0.5-0.2 0-0.5 0.2-0.5 0.5v0.2c0 0.5-0.4 1-0.5 1.3-0.5761 0.7905-0.9222 1.725-1 2.7v1c0.119 1.199 0.5691 2.342 1.3 3.3-0.3 0-0.5 0.3-0.5 0.6s0.3 0.5 0.6 0.5h0.3c0.4-0.1 1 0.2 1.2 0.3 0.616 0.3585 1.295 0.5961 2 0.7l0.6 0.1h0.5l2-0.1c-0.1129 0.9619 0.9931 0.9843 1 0.2 0.3614-0.4716 0.8863-0.7493 1.4-1.1 1.396-0.8324 2.484-2.096 3.1-3.6z"/>
  <path d="m109.5 72.8c-0.2-0.1-0.5 0-0.7-0.2-0.4-0.1-0.5-0.8-0.4-1.2 0.1622-0.9599 0.1622-1.94 0-2.9-0.2-1.5-0.9-3-1.9-4.2 0.3 0 0.6-0.4 0.6-0.7s-0.4-0.6-0.7-0.6h-0.3c-0.6 0.1-1.3-0.3-1.6-0.5-1.067-0.6655-2.257-1.108-3.5-1.3l-1.3 1.6 0.8 1.3c0.5467 0.07247 1.083 0.2067 1.6 0.4 0.4 0 0.8 0.5 1 1.3v0.3c0.2 0.3 0.6 0.5 0.9 0.4 0.2 0 0.4-0.3 0.5-0.5 0.7 0.8 1.2 1.8 1.4 3l0.1 1.2c0 0.2 0 0.4-0.2 0.5-0.4 0.2-0.6 0-0.8 0h-0.2c-0.4 0.5-0.1 1.5 0.3 1.9 0.5 0.4 1 0.3 1.6 0.2-0.1 0.5 0 1 0.3 1.5 0.5 0.6 2 0.6 2-0.4 0.7 0.1 1.2-0.8 0.5-1.1z"/>
  <path d="M98.4 98v34.8l1.6 7.2 1.6-7.2V98"/>
  <path d="m102.2 86.5-0.1-0.8c0-0.4-0.1-1.1 0.1-1.6l0.2-0.3c0.1-0.3 0-0.7-0.3-0.8-0.3077-0.1682-0.6925-0.08271-0.9 0.2l-0.1-0.2c-0.2373-0.3558-0.5049-0.6904-0.8-1l-1.4-1c-0.3-0.3-0.8-0.9-0.8-1.4v-0.3c-0.1-0.4-0.5-0.6-0.8-0.6s-0.6 0.4-0.5 0.7c-0.9361-0.6523-1.837-1.353-2.7-2.1-0.8-1-1.5-2.1-1.4-3.3 0-0.3 0.1-0.7 0.4-0.8 0 0.2 0.3 0.3 0.6 0.3 0.3-0.2 0.3-0.8 0.1-1-0.2-0.3-0.5-0.4-0.9-0.3-0.6 0-1 0.6-1 0.6v-1.7c0-1 0.2-1.9 0.6-2.7 0.2-0.4 0.7-0.8 1.4-1h0.4c0.3 0 0.5-0.4 0.5-0.7s-0.4347-0.5752-0.8-0.5l0.7-0.6c0.9-0.6 2-1 3-1.3l1.3 0.1c0.3 0.3 0 1 0 1 0.6449 0.6503 1.588-0.3034 1.8-0.8 0.1-0.6-0.2-1.3-0.5-1.7 0.3-0.1 1-0.7 1.2-1.1 0.3-0.8-0.2-2.4-1.2-2-0.2-0.7-1.2-0.8-1.2 0l0.2 0.7c0 0.4-0.4 0.6-1 0.7h-1c-2.361 0.3586-4.54 1.483-6.2 3.2 0-0.3-0.4-0.6-0.7-0.5-0.4 0-0.6 0.4-0.6 0.7l0.1 0.3c0.2 0.6-0.3 1.7-0.3 1.7-0.8646 1.601-1.344 3.381-1.4 5.2-0.3018-0.2548-0.7546-0.2095-1 0.1-0.1 0.3-0.1 0.7 0.1 0.9l0.3 0.2c0.5 0.3 0.7 1.2 0.8 1.5 0.3189 1.601 1.003 3.107 2 4.4 0.7 1.1 1.6 2 2.5 2.7l1.6 1.4c-0.3 0-0.6 0.4-0.6 0.7s0.4 0.6 0.7 0.6l0.4-0.1c0.5-0.1 1.2 0.3 1.6 0.4l0.5 0.6c0.5 0.7 0.6 1.5 0.6 1.8 0.0573 0.8323 0.0573 1.668 0 2.5 0.1128 0.4716 0.1093 1.009 0.4095 1.377l3.884-0.02898c0.2782-0.2497 0.3086-0.8462 0.4069-1.348-0.027-1.002-0.0937-2.003-0.2-3z"/>
  <path d="M97.5 89h5.2a.4.4 0 110 1h-5.2a.4.4 0 110-1z"/>
  <path d="m100.2 95.3c-1.4 0-2.5 1.1-2.5 2.5h4.9c0-1.4-1.1-2.5-2.4-2.5z"/>
  <path d="m102.6 98h-5.2c-0.5333 0-0.5333-0.8 0-0.8h5.2c0.6 0 0.6 0.8 0 0.8zm-4.4 12.2c-0.6 0-0.6-0.9 0-0.9h3.4c0.6667 0 0.6924 0.8964 7e-3 0.9012-1.143-3e-3 -2.263-1e-3 -3.407-1e-3zm3.5 22.8h-3.4c-0.6667 0-0.6667-1 0-1h3.4c0.6667 0 0.6667 1 0 1z"/>
  <path d="M101.2 96.4H99a2.6 2.6 0 01-2.5-2.6v-.6c0-1.4 1.1-2.6 2.5-2.6h2.2c1.4 0 2.6 1.2 2.6 2.6v.6c0 1.4-1.2 2.6-2.6 2.6z"/>
  <path d="m98.44 102.2h3.159m0 0.9h-3.159" fill="none"/>
  <path d="M96.4 93.3h7.4a.4.4 0 110 .9h-7.4a.4.4 0 110-.9z"/>
  <path fill="#000" stroke="none" d="m100.5 85.3c-2.164-4.847-7.881-6.624-8.8-11.1 0.0869 4.281 5.983 6.523 8.8 11.1z"/>
 </g>
</svg>