<svg width="800" height="800" fill="#d7374a" stroke="#000" viewBox="50 50 200 200" xmlns="http://www.w3.org/2000/svg">
 <!-- source: http://wappenwiki.org/images/e/e1/Dauphin_Auvergne.svg, CC BY-NC-SA 3.0 -->
 <g id="dolphin" stroke-width="3" transform="matrix(.11 0 0 .11 27 77)">
  <path d="m697 441c23-7.7 50 2.7 62 23 0.41 0.7 1.4 0.62 1.8-0.13 12-27 38-42 67-35 6.4 1.5 13 3.9 19 6.4 0.67 0.27 1.4-0.24 1.4-0.96-0.12-9.8-6.2-19-11-27-10-17-29-57-11-74 12-12 41-12 57-11 1.7-6.5 3.4-13 5.1-20 5.6-21 29-31 48-38 1.2-0.46 1.6-1.9 0.96-2.9-5.4-8.6-19-22-30-46-9.5-20-20-48-20-48 7.1-21 23-26 37-34s26-21 26-37c-0.25-6.7-3-13-1.9-20 0.98-5.6 3.6-10 8.9-18 3-4.5 17-17 17-17 1.7-5.9-17-4.9-32-9.7-3.6-1.2-23-7.7-26-20-3.6-14 14-22 21-40 2.9-8.1 2.5-15 9.3-28 6.5-13 24-15 28-22 0 0-9.4-4.2-11-4.6 0 0-11-12-12-30-0.45-8.4 3.2-20 9.6-28 5.4-6.7 15-12 14-20-78 31-142 29-181 29-46 0-108-17-178-11l163 270"/>
  <path d="m417-21c1.2 46 34 96 23 137-6.6 23-27 41-47 31 10-6.1 14-21 12-33s-7.4-24-11-36c-10-34-6.5-73 15-100"/>
  <path d="m420-20c6 72 70 108 70 157 0 26-26 42-40 37 5.9-9.3 13-26 5-45-5.1-13-21-27-28-38-18-32-21-78-14-112"/>
  <path d="m724 301-29-40c-4.5 34-25 73-59 102 38 7.3 45 35 55 26 18.12-25.48 22.38-51.36 33-88z"/>
  <path d="m726 593c-1.5-3.8-11 16-38 7.4-40-13-43-65-35-90 7.6-24 26-32 48-67l-43-16c-17 14-26 26-51 19-15-4.1-23-16-42-30-1.2-0.82-4.4-2.7-4.6-2.8-22-13-41-9.2-58-20-30-19-23-46-56-62-15-7-39-3.5-42 17 6.3-1.4 20-9.4 29 2.7 13 18 6 31 19 51 12 18 20 20 42 25-7.8 22 22 32 14 56 41-0.079 41 29 74 15-20 22 2.7 39-9.9 67 39-7.1 26 29 66 29 6.4 13 27 28 43 29 17 1.8 28-2.4 36-10 7.9-7.6 11-15 8.4-22z"/>
  <path d="m665.6 149.6c2.3 8.5 1.313 17.35-1.247 26.35-4.7 16-17 24-13 42 2.4 11 14 18 17 18-1.4-2.7-2.7-5.5-3.2-8.5-1.9-11 13.64-14.71 20.64-19.71 4.4-3.3 9.356-13.29 9.356-23.29"/>
  <path d="m798 15c-47-91-104-138-177-157-21-4.6-52-15-106-5.4-15 2.6-29 10-38 23-0.66 0.94-3.5 2.4-4 2.6-3.5 1.1-5 4.1-5.5 7.2-0.12 0.71 0.17 3.5-2 3.7-13 1.5-14 10-32 13-12 1.5-29 2.7-50-1.2-9.5-1.8-8.9-7.8-17-10-8.9-2.7-15 0.088-17 2.1-4 3-6.6 6.5-4.9 14 0.35 1.7 0.96 3.2 1.4 4.2 19 44 135 13 143 52 3.2 15-122-9-120-0.24 1.7 8.3 16 13 29 16 15 2 112 22 138 33 165 85 162 278 162 288 0.64 39-5 82-25 110-0.17 0.055-3.6 3.6-7.9 8l30 32 12-11s66-39 104-151c30-100 23.9-201-13.1-273z"/>
  <path d="m536 11.96c0.95 13 8.5 12.04 11 40.04 5.7 1.9 8.7-17 8.7-17s3.9 5 5 6.8c2.3 3.8 3.7 8.4 4.7 13 2.3 9.6 1.5 23-9e-3 32-3.2 20-12 27-14 43-2.1 13 5.7 29 15 30 1.5 0.2 0.024-13 3.6-20 6-13 15-18 19-32 4.4-13 5.2-15 4.2-32 0 0 9.7 6.2 10 15 0.2 5.4 1.4 11 4.2 15 4.3 6.9 10 9.8 18 7.9 0.57-0.14 1.3-0.5 1.2-1.1-0.052-0.33-0.35-0.55-0.62-0.74-10-7.5-7.6-18-8-29 0-16-10.07-31.45-31.07-37.45-14.8-12.88-36.08-26.84-50.9-33.45z"/>
  <path d="m706 441s12 14-3.1 29c-13 14-26 3.9-28 2.8-13-7.5-35-31-35-31s-10-12 3.6-27 28-2.9 28-3c8.9 13 34 29 34 29z"/>
  <path d="m493-109c2 0.15 4.6 2 6.5 4.2 1.7 1.9 3.1 4 3.9 5.6 1.5 3.1-7.9 2.8-12 2.6s-6.4-3.3-6.1-6.7c0.34-3.4 2.1-6.3 7.3-5.7z" fill="#F6F6F6"/>
  <g fill="none" stroke-width="2.5">
   <path d="m633.5-114c38.32 68.3-23.2 127.2-87.3 117.7 83.26 19.67 139.1-53.96 87.3-117.7z"/>
   <path d="m707 440c-0.026-12 11-25 16-32-8.2 4.9-19.6 15.94-36.25 18.75m37.48-56.25c-4.9 15-3.719 24.75-1.234 37.5 20-7.7 28.6-28 30.6-32-1.6 8.1-7.5 17-6.9 28m42-64c-6.7 18-30 34-35 36-3.3-5.7 3.7-27 5.8-35-5.9 7.5-22.27 24.5-35.27 29.5m23.16-66.5c0.86 16 6.511 38 12.01 37 16-14 23-39 24-43 1.4 8.1-0.6 31 5.3 42m22.3-54c-3.4-1.7-6.2-18-5.4-35-1.2 19-18.2 44-22.2 47-6.6-5.9-9.8-27-9.8-35-3.4 8.9-14.21 33-26.21 41m5.211-73c5.5 15 14.24 29.48 21 32 11-18 14.4-45 13.4-49 3.8 7.3 8.2 30 18.6 37 9.7-6.9 12.4-44 10.4-52 3.3 6.3 9.907 20.76 9.907 20.76m4.707-71.76c0.72 15-9.615 45-14.61 51-10-11-14.4-27-16.4-37 2.9 19-9.3 48-12.6 52-6.1-4.6-15.4-24-18.4-32-1.4 9.4-6.8 39-16 49m-14.31-78.25c8.6 13 26.31 32.25 30.31 29.25 6.5-20 9-48 7.9-52 5.2 6.4 10 25 23 32 6.7-7.1 5-47 1.4-54 4.6 5.4 18.71 33 29.71 40m-6.946-60c-15.52-2.302-24.77-22-27.77-28 2.2 11 9 36 5 48-9.5-2.9-24-18-28-31 6.1 18 6.2 48 3.6 53-4.4 0.73-23.5-19-27.5-26 0.19 9.5-3.295 36.75-10.71 48.75m-26.75-70.25c11 12 33.76 25.49 37.76 21.49 3-21-1.8-48-3.5-52 6.2 5.4 15.1 23 27.1 25 5.4-8.1-0.151-41-4.8-47 5.4 4.6 15.8 24 27.8 30 3.8-16 2.562-37.66-3.874-54.36-14.98 0.9749-30.33-15.64-34.33-20.64 8.2 12 14.6 37 10.4 45-13-1.5-29.4-16-37.4-25 7.7 12 18.1 41 15.1 47-3.9 2.2-27.1-14-35.1-20 1.1 2 7.137 37.51 0.8366 50.51m-43.84-68.51c9 9.5 41 23 43 18-2.3-19-18-43-20-47 6.8 5.2 26 20 40 20 4.3-7.8-13-39-18-45 5.9 4.7 29 21 45 25 0.29-7.7-2.087-33.99-7.687-42.99m-63.26 484.7c20.44-22.7 64.95-82.39 64.95-171.7 0-121-56-206-84-241"/>
   <path d="m818.8 65.48c27.97 30.4 50.71 65.72 67.25 103.5"/>
   <path d="m801.2 314.7c5.345 22.1 16.55 40.66 19.55 54.17"/>
   <path d="m882.8-96.7c37.71 7.946 36.78-7.383 80.81 13.81"/>
   <path d="m494 429c9.7 2.3 24 1 43 4.7"/>
   <path d="m639 596c-7.6-12-11-36-5.6-55"/>
   <path d="m750-58c84 27 110 64.68 189 88.68"/>
  </g>
  <g fill="#000" stroke="none">
   <path d="m829 8.8c20 10 40 22 58 36s36 29 48 49c-13-17-32-33-50-46-18-14-37-26-57-39z"/>
   <path d="m830.2 190c5.993 23.67 10.77 47.69 20.38 70.24 6.138 15.46 14.33 30 23.24 44.01-19.45-23.86-31.67-52.8-38.88-82.54-2.23-8.807-4.083-17.7-5.882-26.6z"/>
   <path d="m755 393.6c0.8462 3.292 1.742 6.587 1.974 9.995 1.236 11.46 0.236 22.98 0.3425 34.47 0.0554 2.614 0.2165 5.249 0.8545 7.794-2.217-4.453-2.579-9.527-3.007-14.4-0.8244-11.94-0.1744-23.98-1.773-35.87 0.5364-0.6641 1.073-1.328 1.609-1.992z"/>
   <path d="m738-88c27-1.4 55 0.49 82 6.5 40 7.3 76 32 114 36-32-0.51-76-25-114-33-28.53-5.873-57.47-8.569-82-9.5z"/>
   <path d="m693 319c-2.691 15.82-15.77 25.8-29.79 30.36 11.9-7.977 24.41-17.37 29.87-30.47l-0.0502 0.069z"/>
   <path d="m694.8 346.8c-10.87 9.529-24.8 13.76-39.2 13.46 13.63-3.142 27.51-7.96 39.58-16.24z"/>
   <path d="m686 365c-7.058 4.014-15.68 5.326-23.6 2.28 7.616-1.082 15.52-2.268 23.6-2.244z"/>
   <path d="m679.7 187.5c-9.133 7.714-16.13 15.35-20.26 26.6-0.334-13.47 10.12-20.91 19.59-29.34z"/>
   <path d="m537.2 432.2c26.03 1.886 45.92 22.62 72.27 25.49-25.11-3.354-46.73-18.54-72.8-22.65 0.1545-0.9155 0.3636-1.928 0.5335-2.841z"/>
   <path d="m632 540.6c5.736-18.85 18.48-34.62 23.28-54.54-3.298 19.33-15.29 36.08-20.43 55.54z"/>
   <path d="m623 478c-13.93 7.171-24.8 16.18-40.14 21.81l-1.195-2.748c15.07-3.161 26.75-13.42 41.25-19.13z"/>
   <path d="m509 481.4c31.19-19.55 67.03-1.409 100.1-13.12 0.74-0.25 1.1-0.38 1.1-0.38s-0.39 0.14-1.1 0.42c-33.19 11.62-67.26-1.931-99.63 15.39z"/>
   <path d="m573.5 563.2c34.68-13.22 29.79-59.76 59.54-78.56 0.65-0.42 0.99-0.65 0.99-0.65s-0.34 0.23-0.98 0.67c-28.62 25.16-20.47 66.76-58.34 81.06l-1.5-2.6z"/>
   <path d="m547 24c4.068 4.258 4.714 10.89 3.13 16.67-0.9626-5.39-1.608-10.98-3.14-16.57z"/>
   <path d="m580 62c3.721 26.64-13.94 48.98-19.13 74.5 4.639-24.7 17.68-48.68 19.17-74.6z"/>
   <path d="m591 57c12.01 5.608 21.07 21.4 21.34 32.2-5.028-12.85-12.92-24.3-21.34-32.2z"/>
   <path d="m591.5 73.01c0.2215-5.532-2.592-11.17-5.703-15.66 4.63 5.785 9.117 11.97 9.161 17.96-0.8015-0.3836-2.851-1.749-3.459-2.294z"/>
   <path d="m476-90c7.947-6.134 19.77-4.709 27.09-0.904-8.677-0.2666-18.24-2.65-26.9 0.895z"/>
   <path d="m513-102c-5.046-3.691-10.57-7.195-16.87-8.103-4.441-0.6835-8.757 0.8845-12.89 2.293-3.452 1.003-7.099 2.18-10.72 1.455-2.092-0.3942-3.73-2.345-3.584-4.501-0.0378-0.8297 0.4023-3.395 0.4445-1.2 0.1281 1.72 1.143 3.621 3.048 3.773 3.249 0.2436 6.308-1.185 9.322-2.188 4.28-1.648 8.804-3.27 13.47-2.677 6.327 0.7304 11.74 4.645 15.99 9.17 0.6154 0.6448 1.201 1.319 1.797 1.98z"/>
   <path d="m484-121c2.397-1.42 5.142-2.203 7.889-2.588 9.844-0.645 17.2 2.759 21.41 11.2-6.539-6.258-14.82-8.894-23.57-8.836-1.886 0.0127-3.77 0.1234-5.649 0.2859l-0.0506-0.0373z"/>
   <path d="m492-30c0.1682 1.799-1.101 3.28-2.507 4.222-2.741 1.743-6.042 2.33-9.225 2.662-4.404 0.4032-8.839 0.3726-13.24-0.04929-4.233-0.3836-8.43-1.108-12.6-1.92 5.941-0.2162 11.88 0.2585 17.82 0.2767 3.113 0.03616 6.226-0.07695 9.334-0.2307 3.133-0.3353 6.557-0.5877 9.1-2.66 0.7496-0.588 0.9063-1.566 1.323-2.301z"/>
   <path d="m494-109c-1.2-0.54-4.2 0.37-4.8 3.7-0.58 3.2 1.2 4.3 2.3 4.6s0.47-3.4 0.87-4.7 2.8-3.2 1.7-3.7z"/>
   <path d="m366-100c2.107 0.6589 4.18 1.795 5.48 3.628 2.946 7.148-5.544 6.481-9.642 3.951-1.295-0.8118-2.439-1.863-3.396-3.051-0.791-1.07-1.475-2.418-1.209-3.785 0.0265-0.2922 0.3878-0.9647 0.487-0.9281-0.2815 0.9906 0.2158 1.989 0.8815 2.701 1.424 1.504 3.26 2.544 5.116 3.423 3.875 1.584 8.352 1.969 5.533-2.928-0.866-1.145-1.912-2.129-2.99-3.07-0.087 0.0193-0.174 0.0387-0.261 0.058z"/>
   <path d="m492-50c1.132 2.371 1.676 4.771 2.17 7.139-2.276-1.287-3.182-4.919-2.173-7.105 9.1e-4 -0.01142 2e-3 -0.02285 3e-3 -0.03428z"/>
   <path d="m496-48c1.204 1.985 1.776 4.041 2.13 6.16-2.9-1.238-3.154-3.727-2.118-6.165z"/>
   <path d="m500-45c1.275 1.478 1.702 3.882 1.747 5.036-2.619-1.172-2.802-2.952-1.743-4.982-1e-3 -0.018-3e-3 -0.036-4e-3 -0.054z"/>
   <path d="m566-78c3.021 2.508 5.711 4.525 9.5 4.897-4.204 2.877-8.128-1.017-9.44-4.909z"/>
   <path d="m563-72c2.1 2.48 6.889 4.036 8.621 4.758-4.144 1.933-7.906-1.333-8.575-4.778-0.0151 0.0069-0.0303 0.0137-0.0454 0.02055z"/>
   <path d="m559-66c1.746 1.743 6.611 3.596 7.578 4.011-3.643 1.604-7.212-0.2536-7.655-4.073 0.0257 0.02067 0.0513 0.04133 0.077 0.062z"/>
   <path d="m545-58c1.925 0.5943 5.072 2.805 5.85 3.429-3.142 0.9529-5.137-0.6965-5.863-3.442l0.0101 0.01009z"/>
   <path d="m552-62c3.018 1.403 5.779 2.515 8.749 3.229-3.58 2.288-7.135 0.01365-8.754-3.2l3e-3 -0.01935z"/>
   <path d="m513-95c-3.687 0.4749-7.342-1.276-10.66-3.08l1.9-2.3c2.39 2.512 5.202 4.74 8.77 5.417z"/>
   <path d="m436-91s0.077-0.034 0.22-0.096c0.14-0.065 0.36-0.15 0.65-0.24 0.57-0.16 1.4-0.3 2.5-0.22 1 0.065 2.2 0.36 3.4 0.82s2.4 1.1 3.5 1.7 2.3 1.2 3.3 1.6c0.57 0.2 1.1 0.37 1.6 0.52 0.52 0.14 1 0.26 1.5 0.37 0.96 0.21 1.8 0.38 2.3 0.5 0.57 0.13 0.9 0.22 0.9 0.22s-0.33 0.081-0.91 0.18c-0.58 0.096-1.4 0.22-2.4 0.24-0.51 0.016-1.1 0.014-1.7-0.045-0.57-0.048-1.2-0.14-1.9-0.3-1.3-0.31-2.6-0.87-3.7-1.5-1.2-0.62-2.3-1.3-3.3-1.8-1-0.55-2-1-2.9-1.3-0.89-0.3-1.7-0.45-2.2-0.51-0.56-0.061-0.91-0.061-0.91-0.061z"/>
  </g>
 </g>
</svg>
