<svg width="800" height="800" fill="#d7374a" stroke="#000" viewBox="50 50 200 200" xmlns="http://www.w3.org/2000/svg">
<!-- source: wappenwiki.org, CC BY-NC-SA 3.0 -->
 <g id="eagleTwoHeards" stroke-width=".29" transform="matrix(1.12,0,0,1.12,-12.37,-7.23)">
  <path d="M85.36 65.85s-.9.42-.9 1.5c0 1.34 1.05 2.04 2.33 2.04 1.84 0 2.8-1.31 4.72-1.28 2.38 0 3.25 1.19 3.25 1.19l.05-.6s-1.63-1.54-3.57-1.54c-1.74 0-3.46.89-4.45.89-1 0-1.65-.56-1.65-1.17 0-.44.03-.7.22-.97"/>
  <path d="M94.63 70.2c-.16-.22-.2-.52-1.55-.5-.55 0-1.14.47-2.08.36-.39 0-.73-.21-.9-.5-.2-.32-.17-.73-.12-.81.03-.06.03-.14.11 0 .16.67.99.68 1.38.52.56-.15 1.01-.61 1.7-.63.38-.01.95.1 1.28.25.08-.13-.06-.6-.22-.87a2.43 2.43 0 00-.84-.68c-.98-.4-1.87-.21-2.72-.89a1.81 1.81 0 00-1.15-.38c-.73 0-1.11.73-1.16 1.1 0 .13-.14.22-.22.07-.1-.25-.42-.77-.42-1.87.01-.78.4-1.72 1.8-2.26.45-1.03 1.56-.87 1.56-.87s-.16 1.9.5 3.04c.3.52 1.96.02 2.91 1.77.95 1.73.25 3.13.14 3.15zm20.54-4.35s.9.42.9 1.5c0 1.34-1.04 2.04-2.33 2.04-1.84 0-2.8-1.31-4.72-1.28-2.38 0-3.25 1.19-3.25 1.19l-.05-.6s1.64-1.54 3.57-1.54c1.74 0 3.46.89 4.45.89 1 0 1.65-.56 1.65-1.17 0-.44-.03-.7-.22-.97"/>
  <path d="M105.9 70.2c.16-.22.2-.52 1.55-.5.55 0 1.14.47 2.08.36.39 0 .74-.21.9-.5.2-.32.18-.73.12-.81-.03-.06-.03-.14-.1 0-.16.67-1 .68-1.4.52-.54-.15-1-.61-1.7-.63-.37-.01-.93.1-1.27.25-.08-.13.07-.6.22-.87.18-.22.54-.56.84-.68.98-.4 1.87-.21 2.72-.89.34-.24.66-.38 1.15-.38.74 0 1.11.73 1.16 1.1 0 .13.14.22.23.07.1-.25.41-.77.41-1.87 0-.78-.4-1.72-1.79-2.26-.45-1.03-1.56-.87-1.56-.87s.15 1.9-.5 3.04c-.3.52-1.97.02-2.92 1.77-.95 1.73-.25 3.13-.13 3.15zm-26.22 50.21s1.05-.36 1.38.47c.33.83-.13 1.13-.13 1.13s-.29.1-.51.34c-.56.59-.32 1.14.07 1.5.17.18.34.2.37.27.13.17-1.2.36-1.94-1.1-.8-1.57.76-2.6.76-2.6zm12.34-2.06s-1.1-.15-1.26.74c-.17.88.35 1.08.35 1.08s.3.05.57.24c.66.46.53 1.05.23 1.5-.14.2-.29.24-.32.32-.09.2 1.25.12 1.7-1.46.45-1.7-1.27-2.42-1.27-2.42zm-12.79-2.73s1 .5.65 1.31c-.35.82-.9.7-.9.7s-.27-.13-.6-.12c-.8.01-1.02.58-1 1.12 0 .24.1.36.08.45-.04.21-1.1-.6-.6-2.16.55-1.68 2.37-1.3 2.37-1.3zm2.71-4.04s.53 1-.23 1.45c-.77.47-1.13.05-1.13.05s-.15-.27-.41-.45c-.67-.47-1.16-.13-1.47.3-.14.2-.13.38-.2.42-.15.16-.54-1.14.76-2.1 1.41-1.05 2.68.33 2.68.33z"/>
  <path d="M93.68 110.59l-.07.07c-1.08 1.04-2.1 2.16-3.14 3.26l-1.77 1.91c-.37.4-.53.62-.88 1.02-.14.15-.61.59-.49.84.11.21.62.23.79.27.28.07.37.4.65.46.48.12.57-.26.94-.42.34-.15.68.12 1.02-.06.37-.46.6-.48 1.2-.16.37.25.21.6.21.6s-.5.19-.78.82c-.21.46-.24.72-.1 1.02-.23.22-.36.34-.6.3-.26-.05-.59-.28-.65-.4-.1-.2-.05-.52-.08-.65-.53-.03 0 .52-.58.72-.3.1-.47.05-.62-.21a.85.85 0 00-.74-.4c-.18 0-.37.03-.54-.02-.2-.05-.52-.26-.66-.4-.06-.06-.1-.24-.19-.25a.65.65 0 00-.3.06c-.53.23-.86.47-1.28.86-.45.44-.68.34-.94.24a.98.98 0 00-.7.03c-.09.04-.3.31-.48.45-.31.23-.93.22-.94.55 0 .14.11.44.05.67-.03.13-.31.42-.56.52-.22.09-.37 0-.64-.17.08-.32 0-.57-.3-.99-.4-.56-.93-.65-.93-.65s-.22-.3.1-.62c.4-.34.73-.42 1.2-.1-.16-.12.31.13.64-.4.2-.29.56-1.2 1.67-.75.4.08.7-.07.89-.12-.07.01-.04-.47-.31-.47-.18 0-.49.12-.98.11-.5 0-.76-.56-1.54-.4-.39.13-.8-.1-.89 0-.1.1-.22.4-.42.5-.12.07-.52.08-.76-.03-.22-.1-.26-.27-.34-.58.28-.16.4-.4.48-.91.11-.68-.2-1.12-.2-1.12s.06-.38.5-.37c.67.09.85.22.92.8.06.11.2.11.34.07.13-.04.16-.11.75-.1.32.02.59.28.68.36.4.3.7.06.98.12.35.07.69.18.8.3-.12-.3-1.1-1.13-1.48-1.47-.2-.15-.7 0-.6-.7.06-.5-.32-.66-.46-.62-.13.04-.3.18-.53.15-.14-.01-.47-.24-.6-.48-.13-.2-.06-.37.07-.66.32.03.56-.1.9-.46.49-.48.49-1.03.49-1.03s.27-.26.62 0c.39.34.59.6.28 1.19-.13.35.43.52.37.92-.07.4.32.71.6.74.6.07 1.07 1.6 1.19 1.68.11.08.6.47.86.13.03-.05.2-.21.4-.42.1-.27.47-.68.78-.82.1-.28.45-.69.71-.78.16-.28.53-.72.77-.8.3-.44 2.4-2.66 2.4-2.66l1.05-1.02c1.32-1.32 2.31.42 1.77.93zm27.14 9.82s-1.04-.36-1.37.47c-.33.83.12 1.13.12 1.13s.3.1.52.34c.56.59.31 1.14-.07 1.5-.18.18-.34.2-.38.27-.13.17 1.2.36 1.94-1.1.8-1.57-.76-2.6-.76-2.6zm-12.33-2.06s1.1-.15 1.26.74c.16.88-.35 1.08-.35 1.08s-.31.05-.57.24c-.67.46-.54 1.05-.24 1.5.14.2.3.24.32.32.1.2-1.24.12-1.69-1.46-.45-1.7 1.27-2.42 1.27-2.42zm12.78-2.73s-1 .5-.64 1.31c.34.82.89.7.89.7s.28-.13.6-.12c.8.01 1.02.58 1.01 1.12 0 .24-.1.36-.09.45.04.21 1.1-.6.6-2.16-.55-1.68-2.37-1.3-2.37-1.3zm-2.7-4.04s-.54 1 .23 1.45c.76.47 1.12.05 1.12.05s.16-.27.42-.45c.66-.47 1.16-.13 1.47.3.13.2.12.38.19.42.15.16.54-1.14-.75-2.1-1.42-1.05-2.68.33-2.68.33z"/>
  <path d="M106.83 110.59l.07.07c1.09 1.04 2.11 2.16 3.15 3.26l1.77 1.91c.36.4.53.62.88 1.02.13.15.6.59.48.84-.1.21-.62.23-.78.27-.28.07-.37.4-.65.46-.49.12-.57-.26-.95-.42-.34-.15-.68.12-1.02-.06-.36-.46-.6-.48-1.2-.16-.36.25-.2.6-.2.6s.5.19.78.82c.2.46.24.72.1 1.02.22.22.35.34.6.3.25-.05.58-.28.64-.4.1-.2.06-.52.09-.65.52-.03-.01.52.58.72.3.1.46.05.62-.21.14-.25.43-.4.73-.4.19 0 .37.03.54-.02.2-.05.53-.26.66-.4.07-.06.1-.24.2-.25.1-.01.2.02.3.06.53.23.85.47 1.27.86.46.44.69.34.95.24.25-.11.59-.02.69.03.1.04.3.31.49.45.3.23.93.22.94.55 0 .14-.12.44-.05.67.03.13.3.42.55.52.22.09.38 0 .65-.17-.09-.32 0-.57.3-.99.4-.56.93-.65.93-.65s.2-.3-.1-.62c-.4-.34-.74-.42-1.2-.1.15-.12-.32.13-.65-.4-.2-.29-.56-1.2-1.66-.75-.4.08-.7-.07-.9-.12.08.01.05-.47.32-.47.17 0 .48.12.98.11.49 0 .75-.56 1.53-.4.39.13.8-.1.9 0 .09.1.22.4.42.5.11.07.51.08.75-.03.23-.1.26-.27.34-.58-.28-.16-.4-.4-.47-.91-.12-.68.2-1.12.2-1.12s-.07-.38-.5-.37c-.68.09-.85.22-.92.8-.07.11-.21.11-.35.07-.13-.04-.15-.11-.74-.1-.32.02-.6.28-.7.36-.39.3-.68.06-.97.12-.35.07-.68.18-.8.3.12-.3 1.11-1.13 1.49-1.47.2-.15.69 0 .59-.7-.06-.5.33-.66.46-.62.14.04.3.18.54.15.13-.01.46-.24.6-.48.12-.2.05-.37-.07-.66-.32.03-.56-.1-.91-.46-.49-.48-.49-1.03-.49-1.03s-.27-.26-.61 0c-.4.34-.6.6-.29 1.19.13.35-.43.52-.36.92.06.4-.32.71-.6.74-.61.07-1.08 1.6-1.2 1.68-.1.08-.6.47-.85.13-.03-.05-.2-.21-.4-.42a1.8 1.8 0 00-.78-.82c-.1-.28-.46-.69-.72-.78-.15-.28-.53-.72-.76-.8-.31-.44-2.41-2.66-2.41-2.66l-1.05-1.02c-1.32-1.32-2.32.42-1.77.93z"/>
  <path d="M96.67 94.13c-.1 1.98-1.87 3.9-2.86 6.88-1.08 3.21-.91 4.52-2.22 6.44-.59.83-1.54 2.1-2.74 1.97-1.19-.13-1.82-1.27-2.98-1.4-.76-.07-1.61.46-1.7 1.21s.23.96.23.96.1-1.06 1.35-.93c.86.1 1.22 1.11 1.22 1.11s-.6.37-.69 1.22c-.06.6.5.91.5.91s-.16-1.22.99-1.09c.58.06 1.03.27 1.6.23 1.43-.09 3.06-1.19 3.06-1.19s.19.98.08 1.92c-.16 1.41-.61 1.88-.61 1.88s.21.1.51-.08c.3-.19.67-.64.67-.64s.6 1.08.52 1.86c-.08.77-.53 1.04-.53 1.04s1.41.3 1.5-1.4c.05-.7-.42-1.99.28-3.38.33-.62.76-1.18 1.17-1.75a17.64 17.64 0 002.46-4.46l.48-4.64-2.3-6.67zm7.17 0c.1 1.98 1.86 3.9 2.86 6.88 1.07 3.21.9 4.52 2.21 6.44.6.83 1.54 2.1 2.74 1.97 1.2-.13 1.82-1.27 2.98-1.4.76-.07 1.62.46 1.7 1.21s-.23.96-.23.96-.1-1.06-1.34-.93c-.87.1-1.22 1.11-1.22 1.11s.6.37.68 1.22c.06.6-.49.91-.49.91s.16-1.22-1-1.09c-.58.06-1.02.27-1.6.23-1.42-.09-3.06-1.19-3.06-1.19s-.18.98-.08 1.92c.16 1.41.61 1.88.61 1.88s-.2.1-.5-.08c-.3-.19-.68-.64-.68-.64s-.6 1.08-.52 1.86c.09.77.53 1.04.53 1.04s-1.4.3-1.5-1.4c-.04-.7.42-1.99-.28-3.38-.32-.62-.76-1.18-1.17-1.75-1-1.4-1.8-2.85-2.4-4.46l-.49-4.64 2.25-6.67zM77.04 78.3c-.6 4.8-1.69 8.45-2.68 11-2.29 5.77-3.79 7.3-3.85 7.21-.05-.1 1.91-3.83 3.39-8.13a75.6 75.6 0 002.56-10.4c.04-.21.54-.1.58.32z"/>
  <path d="M77.22 77.93s-1.2 10.4-4.98 22.09c-.17.3-.4.86-.6 1.32-.23.48-.32.56-.13.96.3.5 1.2.66 2 .37 1.54.65 2.45-1.58 2.45-1.58s1.77-1.17 1.87-4.16c1.3-.95 1.88-4.7 1.53-5.48.91-.54 1.78-4.05 1.78-4.05l.41-3.22-.43-3.25-3.9-3zm-.86.51s-1.13 5.93-2.25 6.6c.27.02-.6 4.4-2.34 5.56.03.7-.92 2.2-1.49 2.74-.6.74-1.76.87-1.91.8-.07-.03-1.02.59-1.97-.2-.5-.55.75-2.98.8-3.17a59.6 59.6 0 002.3-6.84c.86-3.23 1.54-7.21 1.5-7.92 0-.18 1.5-4.04 3.2-2.68 1.7 1.35 2.16 5.1 2.16 5.1zm10.97 7.58c.68 2.15-.24 4.1-.24 4.15 0 .27.31 5.15-1.1 6.07.74.58-.81 6.86-2 7.02.4 1.99-1.64 4.47-2.56 4.4-1.26 1.68-3.94 1.46-3.78.74-1.25-.26-1.17-1.5-.88-1.71.02-.02-.51-.81.06-1.15.94.86 1.77-.13 2.24-1.07.55-1.18 1-3.22 1.6-5.87.97-4.4 1.54-11.84 1.42-13.72-.02-.18 1.57-1.47 3.15-1.21 1.57.27 2.03 1.2 2.1 2.35zm1.48 1.94c.46 6.53-1.65 16.72-1.65 16.72s-.14.7-.34 1.48.44 1.17.91 1.16c.68.03 1.23-.55 1.23-.55s.73-.1 1.18-.94c.39-.55.45-.9.43-1.22.68-.02 1.99-3 1.77-4.79 1.09-.86 1.34-5.25.9-5.94 1.34-.49 1.1-4.32 1.1-4.32s.89-.21-.83-2.21-4.3.06-4.7.61z"/>
  <path d="M88.45 87.4c.14 4.77-.47 8.58-1.03 11.21-1.34 5.98-2.57 7.78-2.64 7.7-.07-.08 1.27-4.02 2.05-8.44.61-3.42.94-8.81.91-10.52.01-.22.61-.36.7.04zm-6.57-1.43a44.8 44.8 0 01-1.57 10.77c-1.54 5.59-2.77 7.14-2.83 7.06-.06-.08 1.37-3.76 2.31-7.89a71.1 71.1 0 001.33-9.89c.01-.21.7-.44.76-.05z"/>
  <path d="M96.92 85.49l-.94-2.27c-.72-.33-1.44-.3-2.17-.61a9.2 9.2 0 00-2.96-.8c-1.36-.06-2.49.43-3.8-.06-.76-.29-1.8-1.74-2.4-2.27-.97-.86-2.2-1.3-2.3-1.35a3.58 3.58 0 01-1.38-1.37c-.48-.8-.66-2.32-.2-3.19.27-.53.68-.84 1.15-1.11.53-.31 1.32-.9 1.58-1.68.79-2.35-.48-5.62-2.35-6.45a3.5 3.5 0 00-2.88-2.41c-1.4-.24-3.12.49-3.59 1.32 0 0-1.06.31-2.1 1.06a4.39 4.39 0 00-1.37 1.82c-.56 1.31-.11 1.78-.58 2.3-.33.38-.94.32-1.3.28.42 1.1 1.74.75 1.74.75 0 .38-.64 1.41-.82 2.72-.22 1.67.31 1.64-.28 3.57-.34 1.1-1.56.87-2.22.3-.1-.08-.34-.02-.22.28.24.66.73 1.73 2.25 1.53.4-.06.85-.4.85-.4.09.27-.15 1.36.35 1.49.18.05.52-.08.96-.23.26-.1.5.14.1.73-.21.3-.5.86-.33 1.05.44.26 1.8-.69 2.15-.13 0 0-.4.78-.1 1.28.3.51 1.5-.21 1.7.17-.04.37-.26.6-.05 1.07.48.53 1.24.21 1.6.57-.08.27.28 1.23.28 1.23.62.5 1.77.02 1.85.05.09.03.45 1.05.88 1.26.39.2.72-.39.79-.35.06.04.3.8.79 1.09.34.19 1.35-.25 1.48-.25.5 0 .71 1.17 1.17 1.4.45.2 1.02-.56 1.35-.31.42.28.22.6.76 1.04.54.45 1.26-.46 1.48-.29.26.25.25.7.36.85.1.16.72.08 1.31-.34.81-.57.84-.23.94-.23.54.27.46.58 2.17.94 1.08.3 1.61-.83 1.61-.83s.27.52 1.22.51c.73-.05 1.68-1.05 1.68-1.05-.04-.1-.26-.02-.36 0 .18-.42.29-.87.31-1.34.07-.97.02-.4-.16-1.34zm26.54-7.19c.61 4.8 1.7 8.45 2.68 11 2.3 5.77 3.8 7.3 3.85 7.21.06-.1-1.9-3.83-3.39-8.13a75.6 75.6 0 01-2.56-10.4c-.04-.21-.54-.1-.58.32z"/>
  <path d="M123.29 77.93s1.2 10.4 4.98 22.09c.16.3.38.86.6 1.32.22.48.32.56.12.96-.29.5-1.19.66-2 .37-1.54.65-2.45-1.58-2.45-1.58s-1.77-1.17-1.86-4.16c-1.3-.95-1.89-4.7-1.53-5.48-.92-.54-1.79-4.05-1.79-4.05l-.4-3.22.43-3.25 3.9-3zm.86.51s1.13 5.93 2.24 6.6c-.27.02.61 4.4 2.34 5.56-.03.7.92 2.2 1.5 2.74.6.74 1.75.87 1.9.8.07-.03 1.02.59 1.97-.2.5-.55-.74-2.98-.8-3.17a59.6 59.6 0 01-2.3-6.84c-.86-3.23-1.53-7.21-1.5-7.92 0-.18-1.5-4.04-3.2-2.68-1.7 1.35-2.15 5.1-2.15 5.1zm-10.98 7.58c-.68 2.15.24 4.1.24 4.15 0 .27-.3 5.15 1.1 6.07-.73.58.82 6.86 2 7.02-.4 1.99 1.64 4.47 2.57 4.4 1.26 1.68 3.94 1.46 3.77.74 1.26-.26 1.17-1.5.88-1.71-.02-.02.51-.81-.06-1.15-.93.86-1.77-.13-2.24-1.07-.55-1.2-1-3.22-1.6-5.87-.97-4.4-1.54-11.84-1.43-13.72.02-.18-1.56-1.47-3.14-1.21-1.57.27-2.02 1.2-2.1 2.35zm-1.48 1.94c-.46 6.53 1.65 16.72 1.65 16.72s.15.7.34 1.48c.2.78-.43 1.17-.9 1.16-.68.03-1.24-.55-1.24-.55s-.72-.1-1.18-.94c-.38-.55-.45-.9-.43-1.22-.68-.02-1.98-3-1.76-4.79-1.1-.86-1.35-5.24-.91-5.93-1.34-.49-1.1-4.32-1.1-4.32s-.88-.21.84-2.22 4.3.06 4.69.61z"/>
  <path d="M112.06 87.4c-.15 4.77.46 8.58 1.02 11.21 1.35 5.98 2.58 7.78 2.64 7.7.07-.08-1.26-4.02-2.05-8.44a74.9 74.9 0 01-.9-10.52c-.02-.22-.62-.36-.71.04zm6.56-1.43c.08 4.52.91 8.3 1.57 10.77 1.54 5.59 2.78 7.14 2.84 7.06.05-.08-1.38-3.76-2.32-7.89a71.1 71.1 0 01-1.32-9.89c-.02-.21-.7-.44-.77-.05z"/>
  <path d="M103.58 85.49l.94-2.27c.73-.33 1.44-.3 2.18-.61a9.2 9.2 0 012.96-.8c1.35-.06 2.48.43 3.8-.06.75-.29 1.79-1.74 2.39-2.27.98-.86 2.21-1.3 2.31-1.35.57-.3 1.03-.79 1.37-1.37.49-.8.66-2.32.2-3.19a2.71 2.71 0 00-1.14-1.11c-.54-.31-1.33-.9-1.59-1.68-.78-2.35.48-5.62 2.35-6.45a3.5 3.5 0 012.88-2.41c1.4-.24 3.13.49 3.6 1.32 0 0 1.05.31 2.09 1.06a4.39 4.39 0 011.37 1.82c.56 1.31.12 1.78.58 2.3.33.38.94.32 1.3.28-.42 1.1-1.73.75-1.73.75 0 .38.64 1.41.81 2.72.22 1.67-.3 1.64.28 3.57.34 1.1 1.57.87 2.23.3.1-.08.33-.02.22.28-.24.66-.74 1.73-2.26 1.53-.4-.06-.85-.4-.85-.4-.08.27.16 1.36-.34 1.49-.19.05-.53-.08-.96-.23-.26-.1-.5.14-.1.73.2.3.5.86.32 1.05-.44.26-1.79-.69-2.15-.13 0 0 .4.78.1 1.28-.3.51-1.49-.21-1.7.17.05.37.27.6.06 1.07-.49.53-1.24.21-1.6.57.08.27-.28 1.23-.28 1.23-.63.5-1.77.02-1.86.05-.09.03-.44 1.05-.88 1.26-.39.2-.71-.39-.78-.35-.07.04-.31.8-.8 1.09-.33.19-1.35-.25-1.47-.25-.5 0-.72 1.17-1.18 1.4-.45.2-1.02-.56-1.35-.31-.42.28-.21.6-.75 1.04-.55.45-1.27-.46-1.48-.29-.26.25-.26.7-.36.85-.1.16-.73.08-1.32-.34-.8-.57-.84-.23-.94-.23-.54.27-.46.58-2.16.94-1.08.3-1.62-.83-1.62-.83s-.27.52-1.22.51c-.72-.05-1.68-1.05-1.68-1.05.04-.1.26-.02.36 0a4.26 4.26 0 01-.31-1.34c-.07-.97-.02-.4.16-1.34z"/>
  <path d="M95.15 81.18c-.36 1.05-.94 1.53-1.38 2.02-.3.32-.45.74-.54.88-.27.36-.59.9-.84 1.88-.22.88.23 1.92-.03 2.75-.14.46-.5.6-.46.7.04.08.3.24.6.24.53 0 .96-.54.96-.54s-.61.96-.61 1.75c0 .94.59 1.96.59 2.86-.04.54-.4.73-.35.81.04.09.44.09.74-.02.4-.13.7-.44.7-.44s-.23.62-.23 1.22c0 .67.22 1.33.22 1.33l.3.69s.36.72.35 1.4c-.01.48-.4.94-.38.99s.18.1.42.05c.36-.07.81-.48.81-.48s-.3.84-.2 1.53c.1.7.6 1.45.6 2.13 0 .54-.49 1-.47 1.04.02.05.37.16.7-.05.29-.14.5-.5.5-.5s-.46 1.26-.35 2.4c.1.85.78 2.46.14 3.53-.5.68-1.32.69-1.32.73s.45.66 1.08.66c.6 0 .84-.2.86-.22-.01.02-.03.2.05 1.87.14 1.92.68 5.25.78 7.62.1 2.5.15 4.7.05 5.42-.17 1.36-.98 2.44-2.28 2.44-2.41 0-3.26-2.34-5.23-4.01a5.63 5.63 0 00-3.83-1.48 3.93 3.93 0 00-3.85 2.72 3.35 3.35 0 002.01 4.22c.12-.06-.73-1.24-.31-2.38.31-.88 1.28-1.35 2.32-1.35 2.71 0 3.65 3 5.96 2.99-1.48.56-1.5 1.86-2.7 1.86-.61 0-.96-.35-.96-.72 0-.55.43-.84.56-.93-.62-.33-1.63.32-1.63 1.51 0 1.26.97 2.1 2.4 2.1 2.08 0 2.86-1.04 4.4-1.6 0 0-1.73 1.32-1.73 3.02 0 2.38 1.9 2.75 2.44 2.6-.4-.4-1.41-2.17.37-3.38 2.31-1.57 2.56-2.22 2.86-4.23a13.5 13.5 0 01-.33 2.63c-.34 1.12-.96 2.97-.96 3.9 0 2 2 4.57 2.35 4.57s2.23-2.58 2.23-4.57c0-.93-.62-2.78-.96-3.9a13.5 13.5 0 01-.33-2.63c.3 2.01.55 2.66 2.87 4.23 1.78 1.2.78 2.98.36 3.38.55.15 2.44-.21 2.44-2.6 0-1.7-1.73-3.02-1.73-3.02 1.55.57 2.32 1.6 4.41 1.6 1.42 0 2.4-.84 2.4-2.1 0-1.19-1-1.84-1.64-1.5.13.08.57.37.57.92 0 .38-.36.72-.97.72-1.18 0-1.22-1.31-2.69-1.86 2.3 0 3.24-3 5.96-3 1.02 0 1.99.47 2.32 1.36.41 1.14-.44 2.33-.32 2.38a3.36 3.36 0 002.01-4.22 3.94 3.94 0 00-3.85-2.72 5.6 5.6 0 00-3.83 1.48c-1.96 1.67-2.81 4.01-5.22 4.01-1.3 0-2.11-1.08-2.28-2.44-.1-.73-.05-2.93.04-5.42.1-2.37.54-5.7.7-7.62.08-1.95.13-1.87.13-1.87s.24.22.86.22 1.07-.6 1.07-.66-.82-.05-1.31-.73c-.64-1.07.04-2.68.13-3.52a6.14 6.14 0 00-.34-2.38c.06.1.24.36.49.47.33.2.67.1.7.05.01-.05-.47-.5-.47-1.04 0-.68.5-1.42.6-2.14.1-.69-.2-1.53-.2-1.53s.45.4.8.48c.25.04.4 0 .42-.05s-.36-.5-.37-.99c-.02-.68.34-1.4.34-1.4l.3-.69s.22-.66.22-1.33c0-.6-.23-1.22-.23-1.22s.3.32.7.44c.3.1.7.1.74.02.03-.08-.32-.27-.35-.81 0-.9.59-1.92.59-2.86 0-.79-.61-1.75-.61-1.75s.42.54.96.54c.3 0 .56-.17.6-.24.03-.1-.32-.24-.47-.7-.25-.83.19-1.88-.04-2.75a5.3 5.3 0 00-.83-1.88c-.1-.14-.28-.53-.54-.88-.55-.77-1.02-1.03-1.25-2.03m-1.2 22.25s0 0 0 0 0 0 0 0h0zm-.97 0s0 0 0 0 0 0 0 0h0z"/>
  <path d="M117.18 125.1a3.94 3.94 0 00-3.85-2.72 5.6 5.6 0 00-3.83 1.48c-1.96 1.67-2.81 4.01-5.22 4.01-1.3 0-2.1-1.08-2.28-2.44-.09-.73-.05-2.93.05-5.42.1-2.37.53-5.7.68-7.62.09-1.95.14-1.87.14-1.87s.24.22.86.22 1.07-.6 1.07-.66-.82-.05-1.31-.73c-.64-1.07.05-2.68.13-3.52a6.14 6.14 0 00-.34-2.38c.06.1.25.36.49.47.33.2.67.1.7.05.01-.05-.47-.5-.47-1.04 0-.68.5-1.42.6-2.14.1-.69-.2-1.53-.2-1.53s.45.4.8.48c.25.04.4 0 .43-.05s-.37-.5-.38-.99c-.02-.68.35-1.4.35-1.4l.29-.69s.22-.66.22-1.33c0-.6-.22-1.22-.22-1.22s.3.32.68.44c.31.1.7.1.75.02.04-.08-.32-.27-.35-.81 0-.9.59-1.92.59-2.86 0-.79-.61-1.75-.61-1.75s.43.54.96.54c.3 0 .56-.17.6-.24.04-.1-.32-.24-.47-.7-.25-.83.19-1.88-.04-2.75a5.3 5.3 0 00-.83-1.88c-.1-.14-.28-.53-.54-.88-.54-.77-1.01-1.03-1.25-2.02h.01s.3.54.86.54c.33 0 .77-.2.82-.53-.06 0-.7.07-.91-.3-.26-.44-.2-.86-.31-1.47a7.9 7.9 0 00-1.27-2.33c-.4-.6-.45-1.61-.24-2.12a2 2 0 001.31 1.38c.84.3 1.59-.08 1.96-1-.76.23-1.14.21-1.63-.18a2.3 2.3 0 01-.8-1.82c0-.88.33-1.27.5-1.79.15-.43.27-.92.22-1.36-.16-.48-.23-1.12-.23-1.12s-.04-1.33.8-2.34c.41-.49 1.12-.79 2.08-1.02.52-.12.65-.21.88-.95.08-.3.15-.69.16-1.03.02-.7-.09-1.3-.14-1.54-.18-.46-.86-.72-1.4-.74-1.13-.02-1.2.22-1.99.08-.67-.1-.66-.66-.54-1-.31.1-.48.3-.5.49-.03.37.11.64.11.64s-.16.18-.93.1c-.98-.12-.94-1.16-.94-1.16s-.3.26-.3.78c0 .95.8 1.15.8 1.15s-.15.5-.97.64c-.32.06-.85.07-1.11-.2-.37-.39-.16-.69-.21-1.1-.11-.16-.72.52-.6 1.33.15.98 1.23 1.12 1.23 1.12s-.28.68-.74.68c-.28 0-.56-.2-.56-.2s.11.8.88.8c.39 0 .63-.23.66-.26-.03.03-.87.88-1.06 1.98-.13 1.9-1 1.89-1.01 3.43-.02-1.54-.87-1.53-1.02-3.43-.17-1.1-1.01-1.94-1.05-1.98.03.03.27.26.65.26.77 0 .88-.8.88-.8s-.29.2-.56.2c-.47 0-.74-.68-.74-.68s1.08-.14 1.23-1.12c.12-.8-.5-1.49-.6-1.33-.06.41.15.71-.2 1.1-.27.27-.79.26-1.12.2-.82-.13-.97-.64-.97-.64s.8-.19.8-1.15c0-.52-.3-.78-.3-.78s.04 1.04-.94 1.16c-.76.09-.93-.1-.93-.1s.15-.27.1-.64c-.01-.19-.17-.4-.49-.5.12.35.13.91-.54 1.01-.79.14-.86-.1-1.99-.08-.54.02-1.2.28-1.4.74a5.03 5.03 0 00.02 2.57c.23.75.36.84.89.95.96.23 1.66.53 2.07 1.02.85 1.01.8 2.34.8 2.34s-.06.64-.22 1.12c-.05.44.07.93.21 1.36.18.52.5.91.5 1.79a2.3 2.3 0 01-.8 1.82c-.48.4-.87.41-1.62.17.36.93 1.12 1.32 1.95 1 1.13-.4 1.31-1.37 1.31-1.37.22.5.22 1.52-.24 2.12a6.55 6.55 0 00-1.26 2.33c-.12.61-.05 1.03-.31 1.47-.23.37-.85.3-.91.3.05.32.48.53.8.53.58 0 .87-.54.87-.54-.36 1.05-.94 1.53-1.38 2.02-.3.33-.45.74-.54.88-.27.36-.58.9-.84 1.88-.22.88.23 1.92-.03 2.75-.14.46-.5.6-.46.7.04.08.3.24.6.24.53 0 .96-.54.96-.54s-.61.96-.61 1.75c0 .94.59 1.96.59 2.86-.04.54-.4.73-.35.81.04.09.44.09.74-.02.4-.13.7-.44.7-.44s-.23.62-.23 1.22c0 .67.22 1.33.22 1.33l.3.69s.36.72.35 1.4c-.01.48-.4.94-.38.99s.18.1.42.05c.36-.07.81-.48.81-.48s-.3.84-.2 1.53c.1.7.6 1.45.6 2.13 0 .54-.49 1-.47 1.04.02.05.37.16.7-.05.29-.14.5-.5.5-.5s-.46 1.26-.35 2.4c.1.85.78 2.46.14 3.53-.5.68-1.32.69-1.32.74s.45.65 1.08.65c.6 0 .84-.2.86-.22-.01.02-.03.2.05 1.87.14 1.92.68 5.25.78 7.62.1 2.5.15 4.7.05 5.42-.17 1.36-.98 2.44-2.28 2.44-2.41 0-3.26-2.34-5.23-4.01a5.63 5.63 0 00-3.83-1.48 3.93 3.93 0 00-3.85 2.72 3.35 3.35 0 002.02 4.22c.11-.05-.74-1.23-.32-2.38.32-.88 1.28-1.35 2.32-1.35 2.72 0 3.65 3 5.96 2.99-1.47.56-1.5 1.86-2.7 1.86-.61 0-.96-.35-.96-.72 0-.55.43-.84.56-.93-.62-.33-1.63.32-1.63 1.51 0 1.26.97 2.1 2.4 2.1 2.08 0 2.86-1.04 4.4-1.6 0 0-1.73 1.32-1.73 3.02 0 2.38 1.9 2.75 2.44 2.6-.4-.4-1.41-2.17.37-3.38 2.31-1.57 2.56-2.22 2.86-4.23a13.5 13.5 0 01-.33 2.63c-.34 1.12-.95 2.97-.95 3.9 0 2 2 4.57 2.34 4.57s2.23-2.58 2.23-4.57c0-.93-.62-2.78-.96-3.9a13.5 13.5 0 01-.33-2.63c.3 2.01.56 2.66 2.87 4.23 1.78 1.2.78 2.98.36 3.38.55.15 2.44-.21 2.44-2.6 0-1.7-1.73-3.02-1.73-3.02 1.55.57 2.32 1.6 4.41 1.6 1.42 0 2.4-.84 2.4-2.1 0-1.19-1-1.84-1.63-1.5.12.08.56.37.56.92 0 .38-.36.72-.97.72-1.18 0-1.22-1.31-2.69-1.86 2.3 0 3.24-2.99 5.96-2.99 1.02 0 2 .46 2.32 1.35.42 1.15-.44 2.33-.32 2.38.5-.05 2.8-1.54 1.97-4.21zm-13.92-21.69h0s0 0 0 0 0 0 0 0zm.97 0s0 0 0 0h0s0 0 0 0z"/>
  <path d="M100.19 124.42c-1.98 0-2.46-.35-2.46-.35s-1.38-.54-1.38-1.97c0-1.97 1.78-2.02 1.78-2.02s.67.4 2.06.4c1.49 0 2-.4 2-.4s1.78-.06 1.78 2.02c0 1.49-1.38 1.97-1.38 1.97s-.42.35-2.4.35z"/>
  <path fill="#F6F6F6" d="M92.72 64.59c-1.26.12-1.3-1.09-1.28-1.2.14.02 1.18-.3 1.53-.14.22.13.55 1.23-.25 1.34zM107.81 64.59c1.27.12 1.3-1.09 1.29-1.2-.15.02-1.18-.3-1.54-.14-.21.13-.54 1.23.25 1.34z"/>
  <g fill="#000" stroke="none">
    <path d="M80.83 121.54c-1.4.63-1.16 3.16-1.05.5.11-.13 1-1.06 1.05-.5zm10.3-2.04c1.84-.34 1.5 3.52 1.1.8.05-.75-1.36-.14-1.1-.8zm-11.88-2.27c-1.18-1.1-2.92 1.9-1.55-.2.19-.27 1.85-.39 1.55.2zm1.77-4.33c-.78-1.3-3.27-.6-.75-.98.24.15 1.16.66.75.98zM93 110.5c-2.06 1.73-3.97 4.21-5.95 6.24.34-.48 3.47-4.1 5.01-5.7.33-.22.94-1.25.94-.54zm-6.03 4.27c1.18.45.4.88 0 0zm.71-.79c1.34.52.24.81 0 0zm.78-.79c.9.25.94 1.17 0 0zm1.84 5.58c.05-1.24 1.08-1.12 0 0zm-6.27-.42c1.56-.64.29.65-.14.09zm.15-1.7c1.3.22-.53.6 0 0zm-3.51-.67c.14 1.52-.58.24 0 0zm2.23-3.25c-.74 1.7-.61-.74 0 0zm-1.96 6.91c1.42.95-.58.5 0 0zm5.24-4.05c1.3.5.3.82 0 0zm33.56 5.76c1.78.6 1 3.43.8.75-.18-.28-.87-.32-.8-.75zm-10.34-1.67c-1.53.11-1.61 3.03-1.28.47-.08-.12 1.38-1.17 1.28-.47zm11.76-2.61c1.4-1.27 3.17 2.1 1.35.06-.36-.66-1.23.65-1.35-.06zm-1.86-4.25c.44-1.79 3.66-.3 1.08-.78-.5.07-.55.83-1.08.78zm-11.62-2.56c1.69 1.54 4.02 4.33 5.8 6.44-.11-.02-3.04-3.36-4.3-4.63-.57-.83-1.74-1.38-1.5-1.81zm5.89 4.8c-1.28.87-.17-.81 0 0zm-.71-.8c-1.64 1.25 0-.97 0 0zm-.77-.79c-.97.65-.73-.2-.03-.24zm-1.88 5.3c-.87-.81-.22-1.38 0 0zm6.18-.13c-2.22-.73.39-.6 0 0zm.13-1.77c-1.01.56-.36-.55 0 0zm3.6-.83c.15 1.8-.78-.45 0 0zm-2.25-3.42c.97 1.15-.66.33 0 0zm1.85 7.26c-1.17 1.4-.21-.85 0 0zm-5.37-4c-.99.66-.7-.2-.03-.23zm-7.98-11.08c1.93 2.53-1.75 3.94-2.07.84 1.19 2.7 3.02 1.67 2.07-.84z"/>
    <path d="M105.43 105.45c.92.73.74 3.17 0 0zm.65-3.29c1.8 3.14-2.34 3.25-2.1.81 1.06 2.53 2.8 2.14 2.1-.81z"/>
    <path d="M105.1 102.74c.4.23.65 1.26.43 1.44-.28-.42-.32-.98-.43-1.44zm-.36 6.22c.15.72.95 1.64 1.38 1.72.89-.25.35-2.16.61-2 .43.74.12 2.76-1.05 2.09-.61-.37-.9-1.14-.94-1.81z"/>
    <path d="M105.73 108.93c.3.37.57 2 .02.87-.1-.26-.2-.62-.02-.87zm1.97-2.63c.62.64 1.3 2.21.29 2.72-.96.17-1.78-.78-2.07-1.54.42.66 1.75 1.62 2.19 1.14.37-.76-.08-1.65-.41-2.32z"/>
    <path d="M106.93 107.1c.42-.03 1.1 1.3.69 1.14-.3-.33-.5-.74-.69-1.14zm.32 6.37c.67-.34-.37-1.98.19-1.23.22.28.35 1.58-.19 1.23zm5.05-3.22c.65-.45 1.84.36.73.07-.24-.03-.53 0-.73-.07zm-18.16-5.45c-.32.76-.44 2.63.42 2.54.8.06 1.5-1.64 1.62-1.45-.26.9-1.04 2-2.07 1.74-.79-.78-.4-2 .03-2.83z"/>
    <path d="M95.08 105.46c-.09.87-1.1 2.33-.37.37.08-.15.2-.32.37-.37zm-.65-3.3c-.26.79-.2 2.39.46 2.52.91.21 1.71-2.26 1.6-1.43-.18.83-1.11 2.16-2.05 1.57-.6-.74-.44-1.88-.01-2.66z"/>
    <path d="M95.42 102.74c0 .69-.73 2.28-.44.7.06-.26.18-.56.44-.7zm.35 6.23c-.04.84-.7 2.22-1.69 1.86-.87-.28-.3-2.68-.24-2.01-.16.7.14 2.38.94 1.64.52-.34.75-1 .99-1.49z"/>
    <path d="M94.78 108.93c.33.26-.3 1.74-.37 1.07.05-.35.22-.78.37-1.07zm-1.96-2.62c-.45.65-.8 2.19-.25 2.43.78.44 2.2-1.68 1.89-.92-.35.78-1.83 1.87-2.36.78-.26-.83.2-1.68.72-2.29z"/>
    <path d="M93.58 107.1c-.02.33-1.16 1.88-.72.77.13-.31.38-.7.72-.77zm-.6 6.5c-.33-.48-.03-1.47.27-1.57-.65.42.2 1.36-.27 1.57zm-4.78-3.35c-.97.5-1.8-.2-.42-.02.1.02.34.08.42.02zM74.5 99.66a53.5 53.5 0 003.97-14.78h.3c-.86 5.12-2.32 10.57-4.27 14.78zm10.16-11.8c-.44 5.74-1.01 11.45-3.55 16.69-.94 1.58-.46.7.18-.46 2.27-5.16 2.74-10.7 3.08-16.26-.2 0 .42.03.29.03zm6.78 1.27a59.17 59.17 0 01-2.2 15.06 60.97 60.97 0 001.91-15.08zm-12.47 1.55c.94.84.2 1.04-.01 0zm-1.61 5.55c.85.32.45 1.15.17.28 0-.09-.28-.2-.17-.28zm-1.42 4.17c.44 1-.4.9 0 0zm-2.08 1.52c-.27 1.5-.57.53 0 0zM68.8 91.54c2.1-3.4 3.46-7.29 4.1-11.24h.33c-.62 3.64-2.48 8.6-4.43 11.24zm2.97-.79c-1.12-.25.13-.65 0 0zm-3.21 2.83c.2.87-.66.76 0 0zm17.12 2.36c.93.16.21.6 0 0zm-1.66 7.46c-1.27-.04-.1-.69 0 0zm-2.66 4.4c-.37-.3-.34-.66.1-.28l-.06.18zm-3.14.18c-.6.96-.93.27 0 0zm-1.03-1.26c-.62.29-.62-.56 0 0zM93.3 93.98c-1.31-.32-.06-.67 0 0zm-.9 5.94c-1.14-.15 0-.68-.01 0zm-1.72 4.83c-1.09-.27-.01-.62 0 0zm-1.6 2.12c-1.15-.09.07-.63 0 0zM75.32 81.74c.33-.42.24-1.77.37-.51-.13.2.1.93-.37.51z"/>
    <path d="M81.3 64.28c.19.29-.04 2.06-.04.95.04-.31-.54-.98.04-.95zm1.6 15.24c-1.15-1.98-.11-1.55 0 0zm3.53 7.71c-.48.32-.76.33-.8.26.16-.23.52-.28.8-.26zm-5.05-2.26c-.35 1.23-.94.58-.09.07 0-.04.1-.14.09-.07zM79 84.74c-.28-1.34.62-.24 0 0zm-6.98-5.58c.75-1.14.92-1.1.28.12l-.17-.07zM71 76.1c.26 1.52-.92 2.12 0 0zm1.13-8c-.08.44-.72 1.87-1.12 1.21.65-.12.8-.88 1.12-1.21zm17.84 19.74c.3.32.3.55.23.6-.2-.06-.22-.39-.23-.6zm-13.11-4.4c.15-.4.69-1.61.4-.48-.24.29.08.6-.4.48zm-1.54-1.7c.33-.42.24-1.77.37-.51-.13.2.1.93-.37.51zm-1.58-1.47c.68-.8 1.18-.97.31-.02-.01.26-.16.08-.31.02zm11.29 1.16c-.81 1.32-1.25 3.9-.3 4.77 1.67.26 2.77-1.34 3.61-2.53-.67 1.46-2.05 3.3-3.89 2.76-1.07-1.5-.37-3.67.58-5z"/>
    <path d="M86.52 82.94c-.5.66-.87 2.2-1.35 2.32.38-.81.5-1.82 1.35-2.32zm4.91.24c0 .91.45 2.2 1 2.87l-.2.15c-.72-.8-.88-2-.8-3.02zM92.93 83.56c.21.6-.15 1.46-.15 1.46s-.32-.79.15-1.46zM88.51 83c-.18 1.09.3 2.76.97 3.21 1.24-.2 1.58-1.65 1.84-2.67-.05 1.16-.49 2.86-1.89 2.92-1.15-.71-1.14-2.36-.92-3.46z"/>
    <path d="M89.9 83.54c.04.53-.25 2.87-.34 1.38-.04-.48-.01-1.01.34-1.38zm-2.54 1.99c.01.75.03 1.73.74 2.19.24-.04 1.01-.75 1.1-1.33.09.79-.96 2.24-1.64 1.22a2.33 2.33 0 01-.2-2.08z"/>
    <path d="M88.32 85.91c.24 1.14-.55 1.99-.2.29.05-.1.1-.22.2-.29zm2.17.59c.22.86 1.14 1.93 1.75 2.09l.16.18c-1.2.14-1.9-1.37-1.91-2.27zM91.69 86.47c.17.3.68 1.92.28 1.37-.22-.4-.5-.91-.28-1.37zm-9.59-5.63c-.5 1.18-.6 3 .02 3.83.73.4 2.16-1.12 1.91-.73-.47.85-2.16 1.58-2.47.23-.38-1.1-.05-2.38.54-3.33z"/>
    <path d="M83.44 81.87c-.4.66-.36 1.58-.98 2.1.26-.71.23-1.68.98-2.1zm-3.72-2.45c-.63 1.07-1.05 2.78-.55 3.69.92.5 3.15-1.46 1.55-.06-.76.64-2.2.57-2.06-.73a4.23 4.23 0 011.06-2.9z"/>
    <path d="M80.85 80.61c-.32.45-.98 2.02-1.16 1.68.3-.6.46-1.4 1.16-1.68zm-5.17-15.58c-.04 1.13.72 2.65 1.49 2.98 1.23-.3 1.5-1.75 1.6-2.83.17 1.17-.26 3.07-1.7 3.07-1.2-.56-1.44-2.03-1.39-3.22z"/>
    <path d="M77.23 65.38c.1.64.1 2.95-.2 1.2-.07-.4-.1-.88.2-1.2zm-3.6.12c-.15.7.14 2.2.79 2.03.81-.04 1.4-2.4 1.03-.79-.17.96-1.65 1.63-1.92.4a2.74 2.74 0 01.1-1.64z"/>
    <path d="M74.59 65.91c.07.6-.5 2.1-.34.49.06-.19.13-.42.34-.49zm3.39 2.39c.08.75.81 1.95 1.37 1.82.93-.37 1.12-1.46 1.25-2.33.14 1.03-.24 2.5-1.44 2.64-.82-.32-1.22-1.34-1.18-2.13z"/>
    <path d="M79.29 67.93c.18.89-.1 2.57-.24.71a.98.98 0 01.24-.71zm-1.36 9.93c-.54.77-.83 2.14-.48 2.71.8.46 2.77-1.1 1.24.08-.62.44-1.75.38-1.69-.62-.1-.84.43-1.56.93-2.17z"/>
    <path d="M78.95 78.51c-.18.44-1.47 2.32-.89 1.03.17-.45.45-.83.89-1.03zm-1.55-2.93c-.12.79.3 2.35.83 2.38.85.02 1.45-2.38.99-.62-.18.77-1.35 1.39-1.7.37a2.73 2.73 0 01-.12-2.13z"/>
    <path d="M78.45 76c.24 1.5-.7 1.92-.11.11.03-.05.1-.05.11-.11zm-.66-5.75c-.26.87-.05 2.2.45 2.62 1.02.25 1.76-1.66 1.88-1.67-.18.94-.87 2.07-1.96 1.95-.88-.7-.73-1.98-.37-2.9z"/>
    <path d="M78.92 70.84c-.14.46-.15 1.43-.5 1.47.08-.5-.01-1.17.5-1.47zm-2.05 1.89c-.44.8-.5 2.14-.08 2.7 1.04.2 1.72-.76 2.26-1.49-.32.94-1.48 2.33-2.51 1.58-.6-.84-.26-2.04.33-2.79z"/>
    <path d="M77.88 73.53c-.05.35-.89 2.01-.68 1.09.08-.43.24-.91.68-1.09zm-2.65 3.29c-.38.79-.57 2.4.12 2.69.92.24 1.88-1.34 2-1.33-.31.9-1.5 2.12-2.43 1.4-.6-.83-.25-2 .31-2.76z"/>
    <path d="M76.24 77.6c-.08.35-.88 2-.69 1.08.08-.42.26-.92.69-1.08zm-2.25-3.69c-.17.8.21 2.1.59 2.44.73-.07 1.1-.8 1.37-1.39.06.81-1.17 2.42-1.84 1.28-.45-.69-.36-1.58-.12-2.33z"/>
    <path d="M75.01 74.37c.09 1.18-.62 2.12-.21.26a.6.6 0 01.21-.26zm-1.42-3.33c-.45.78-.67 2.41.03 2.71.89.37 2-1.36 2.08-1.23-.36.88-1.6 2.07-2.52 1.28-.55-.9-.12-1.97.41-2.76z"/>
    <path d="M74.57 71.88c-.26.4-.48 1.34-.83 1.35.16-.51.28-1.12.83-1.35zm.45-3.63c-.1.99-.16 2.24.7 2.93.31-.04 1.25-.68 1.43-1.32.33-.45-.43 1.58-1.17 1.54-1.19.1-1.34-1.64-1.11-2.54l.15-.61z"/>
    <path d="M76.2 68.85c.02.77-.58 2.65-.39.84.03-.3.12-.67.39-.84zm49.77 30.82a53.81 53.81 0 01-4.2-14.82l.3.03c.42 5.12 2.25 10.56 3.9 14.79zm-9.83-11.83c.37 5.72.8 11.46 3.3 16.7.81 1.35.5.98-.13-.15-2.48-5.2-3-10.86-3.46-16.52zm-6.76 1.24c-.03 5.21.7 10.1 1.87 15.13a61.25 61.25 0 01-2.15-15.11zm12.18 1.62c-.17.47-.7 1.28-.36.31a.8.8 0 01.36-.31zm1.61 5.54c-.14.66-.97.93-.31.2.1-.06.2-.18.31-.2zm1.43 4.16c.35 1.11-.57.79 0 0zm2.07 1.52c.85.9-.12 1.26 0 0zm5.01-10.36a33.12 33.12 0 01-4.4-11.32h.25c.77 3.93 2.22 8.16 4.15 11.32zm-5.13-6.64c1.04.44-.7.39-.01-.01zm2.18 5.54c.9-.27.05.56 0 .11zm3.24 3.12c.62.93-.3.62 0 0zm-17.13 2.39c-.36.7-.81-.01 0 0zm1.72 7.15c1.09-.15-.06.58-.03.1zm2.46 4.42c.58-.56.29.46.05.1l-.04-.1zm3.29.42c1.09.43.35.85 0 0zm.99-1.27c.68-.47.6.34 0 0zm-16.1-13c1.34-.56-.04.76.01 0zm.92 5.94c1.57-.49-.24.82 0 0zm1.74 4.84c.62-.24.4.26-.05.28l.03-.19zm1.59 2.11c1.14-.2-.2.7 0 0zm13.47-24.72c-.27-.44.04-1.9.05-.66-.07.37.52.56-.05.66z"/>
    <path d="M119.49 64.35c-.23 1.55-.42 1.39-.3.01-.02-.2.2 0 .3-.01zm-1.91 15.16c.34-1.77.91-1.48.03.01h-.03zm-3.53 7.71c1.3-.08 1.3.76 0 0zm5.11-2.26c.5.25.72 1.3.16.42-.05-.12-.18-.3-.16-.42zm2.06-.27c.07-1.27.57-.27.08.02zm7-5.39c-1.46-1.9.25-1 0 0zm1.31-3.2c-.03.5.74 1.92.04.96-.1-.28-.16-.79-.04-.96zm-1.13-8.01c-.01.6 1.6 1.54.72 1.34-.47-.25-.63-.94-.72-1.34zm-17.83 19.75c.01 1.12-.8.71 0 0zm12.78-4.41c-.3-1.14-.14-1.2.28 0h-.19zm1.57-1.57c-.27-.44.04-1.9.05-.66-.07.37.52.56-.05.66zm1.58-1.46c-.45-.78-.9-1.2.16-.28.21.19.01.2-.16.28zm-11.03 1.03c.97 1.4 1.68 3.6.49 5.04-1.82.41-3.14-1.37-3.81-2.8.71 1.3 2.51 3.02 3.74 2.45.92-1.44.2-3.32-.42-4.69z"/>
    <path d="M113.98 82.94c.9.5 1 1.6 1.43 2.43-.8-.58-.83-1.7-1.43-2.43zm-4.9.24c.16 1.09-.06 2.54-1 3.2l.01-.27c.7-.8.94-2 .99-2.93zM107.58 83.56c.47.5.2 1.44.05 1.54-.23-.66.02-.87-.05-1.54zm4.41-.56c.28 1.2.23 2.88-1 3.5-1.37-.23-1.7-1.79-1.8-2.95.28 1.03.59 2.46 1.84 2.67.74-.47 1.11-2.14.96-3.22z"/>
    <path d="M110.6 83.54c.5.28.46 2.24.18 1.77-.21-.56-.03-1.2-.18-1.77zm2.54 1.99c.31.81.15 2.56-.99 2.41-.62.02-1.06-1.99-.71-1.18.26.54.94 1.36 1.26.7.4-.55.4-1.28.44-1.93z"/>
    <path d="M112.18 85.91c.73.86-.11 2.1-.01.33.02-.1-.02-.22.01-.33zm-2.16.59c-.14 1-.74 2.28-1.88 2.32l-.05-.37c1.01.18 1.5-1.26 1.93-1.95z"/>
    <path d="M108.82 86.47c.37.45-.53 2.24-.42 1.17.1-.4.31-.77.42-1.17zm9.59-5.63c.7 1.2 1.16 3.05 0 4.11-.82.32-2.08-.97-1.97-1.1.58.64 2.06 1.46 2.23.26.34-1.07.06-2.23-.26-3.27z"/>
    <path d="M117.07 81.87c.72.46.73 1.38.97 2.11-.61-.53-.59-1.44-.97-2.11zm3.71-2.45c.84 1.06 1.57 2.78.61 3.96-.8.4-2.24-.7-2.19-.9.74.57 2.37 1.28 2.33-.1.12-1.05-.32-2.04-.75-2.96z"/>
    <path d="M119.65 80.61c.77.3.88 1.22 1.25 1.86-.7-.38-.77-1.29-1.25-1.86zm5.17-15.58c.16 1.22-.23 2.85-1.54 3.25-1.35-.34-1.61-1.92-1.52-3.11.13 1.07.37 2.52 1.61 2.83.25-.13 1.05-.8 1.16-1.42.18-.49.34-1.02.29-1.55z"/>
    <path d="M123.28 65.38c.48.44.14 1.8-.01 1.87-.23-.6.08-1.25.01-1.87zm3.59.12c.53.8.1 2.96-1.15 2.12-.62-.17-1.03-2.3-.58-1.14.27.71 1.28 1.62 1.57.57.22-.47.24-1.04.16-1.55z"/>
    <path d="M125.92 65.91c.55.2.4 1.92.09.91-.04-.3-.07-.6-.09-.91zm-3.4 2.39c.14 1.04-.96 2.87-2.02 1.75-.6-.58-.65-1.48-.61-2.26.02.92.66 2.44 1.47 2.34.7-.34.99-1.13 1.16-1.83z"/>
    <path d="M121.22 67.93c.43.35.18 1.7 0 1.55-.2-.5.04-1.04 0-1.55zm1.35 9.93c.77.7 1.43 2.21.47 2.99-.73.15-1.49-.26-1.93-.83.57.43 2.07 1.07 2.08.1.19-.8-.22-1.6-.62-2.26z"/>
    <path d="M121.56 78.51c.59.1 1.17 1.42.97 1.45-.48-.36-.6-1-.97-1.45zm1.54-2.93c.3.86.23 2.56-.91 2.66-.74-.2-1.04-1.01-1.11-1.7.21.74 1.2 2.09 1.64 1.03.36-.6.36-1.31.38-1.99z"/>
    <path d="M122.06 76c.68.55.09 2.34.01.75 0-.25.02-.5-.01-.75zm.66-5.75c.44.9.54 2.33-.43 2.92-1.13-.02-1.74-1.18-1.91-2.16.24.83 1.32 2.13 1.96 1.77.64-.65.6-1.72.38-2.53z"/>
    <path d="M121.58 70.84c.5.14.67 1.81.33 1.35-.2-.42-.19-.9-.33-1.35zm2.05 1.89c.6.82.97 2.23.08 2.97-1.12.2-1.94-.84-2.29-1.78.43.8 1.47 1.65 2.18 1.53.65-.77.31-1.88.03-2.72z"/>
    <path d="M122.62 73.53c.49.04.96 1.57.6 1.3-.32-.36-.39-.87-.6-1.3zm2.65 3.29c.59.81.95 2.2.08 2.93-1.12.2-1.95-.83-2.3-1.77.4.77 1.67 1.85 2.27 1.4.51-.76.2-1.76-.05-2.56z"/>
    <path d="M124.26 77.6c.5.02.98 1.6.6 1.3-.32-.37-.38-.88-.6-1.3zm2.26-3.69c.34.84.34 2.54-.77 2.7-.72-.21-1.1-.98-1.19-1.67.27.72 1.29 2.03 1.68.93.32-.6.3-1.3.28-1.96z"/>
    <path d="M125.5 74.37c.55.25.34 2.23.09 1.02-.04-.33-.03-.7-.09-1.02zm1.41-3.33c.65.78 1.05 2.16.23 2.95-1.12.25-2.02-.73-2.39-1.68.46.8 1.6 1.58 2.25 1.43.63-.76.34-1.92-.09-2.7z"/>
    <path d="M125.94 71.88c.5 0 1.14 1.77.6 1.2-.28-.36-.35-.83-.6-1.2zm-.46-3.63c.39 1.03.47 2.58-.6 3.21-.94-.1-1.49-1.04-1.65-1.89.26.73 1.37 2.05 1.85 1.35.53-.76.55-1.78.4-2.67z"/>
    <path d="M124.3 68.85c.57.22.57 2.52.2 1.32-.1-.43-.1-.89-.2-1.32zM96.74 85.6c-.3 1.69 0 3.78 1.61 4.71.3-.2 1.33-1.02 1.41-1.83.29-.47.38-3.34.45-1.97.04 1.51-.31 3.65-2 4.07-1.7-1-2-3.3-1.47-4.98z"/>
    <path d="M98.38 86.34c-.22 1.01.04 2.19-.13 3.12-.31-.99-.44-2.22.13-3.12zm-4.25-.94c-.63 1.39-.3 3.55.67 4.25 1.52-.62 1.44-2.63 1.89-3.88-.13 1.44-.22 3.73-1.92 4.13-1.53-.93-1.37-3.17-.64-4.5z"/>
    <path d="M95.12 85.93c-.36.91.19 2.12-.29 2.88.03-.95-.43-2.1.29-2.88zm7.08 4.64c.08 1.72-.24 4.14-2.05 4.8-1.82-.75-2.12-3.2-1.93-4.83.14 1.63.32 3.8 2.03 4.55 1.29-.68 1.87-3.07 1.95-4.52z"/>
    <path d="M100.2 90.98c.58.9.21 2.11 0 3.02-.24-.97.27-2.13 0-3.02zm-5.46-.88c-.15 1.66.25 3.74 1.89 4.53.98-.62 1.54-2.7 1.52-4.07.13 1.4-.04 3.69-1.63 4.33-1.78-.77-2.15-3.15-1.78-4.79z"/>
    <path d="M96.4 90.88c-.32.95.45 2.02 0 2.87-.01-.96-.66-1.98 0-2.87zm.08 4.11c-.15 1.75.16 3.84 1.9 4.72.37-.23 1.42-1.23 1.45-2.13.23-.56.34-3.24.37-1.48.03 1.46-.38 3.5-2 3.86-1.84-.92-2.17-3.17-1.72-4.97z"/>
    <path d="M98.31 95.65c-.26 1 .26 2.24-.1 3.12-.1-1.04-.47-2.16.1-3.12zm-2.41 3.52c.86-1.06-.24-2.6.41-3.8.05-.05-.23 1.65.06 2.25.17.43.19 1.9-.47 1.55zm-1.5-5.18c.74-1.02-.27-2.37.2-3.52.21-.78-.18 1.58.17 2.02.2.33.28 2-.37 1.5zm-1.08-4.95c.47-1-.1-2.33.6-3.34.36-.66-.64 1.7-.26 2.23.05.23.17 1.6-.34 1.11zm8.78 10.83c.08 1.66-.25 3.92-1.97 4.6-1.73-.72-2.02-3.03-1.82-4.58 0 1.51.59 4.02 1.95 4.25 1.44-.84 1.66-2.8 1.84-4.27z"/>
    <path d="M100.2 100.27c.56.86.2 2.01 0 2.87-.26-.92.28-1.98 0-2.87zm-3.16 3.06c.8-.96.26-2.57 1.17-3.42-.84 1.04-.11 2.54-.94 3.56l-.16-.1zm3.16 5.09c.48.65.22 1.63-.01 2.26-.23-.73.16-1.51.01-2.26zm-2.54-4.5c-.3 1.36-.2 3.13 1.11 3.93.15-.15 1.14-.9 1.12-1.61.2-.74.36-2.75.34-.87 0 1.07-.41 2.52-1.58 2.73-1.48-.85-1.4-2.85-.99-4.18z"/>
    <path d="M98.72 104.68c-.14.5.19 2.72-.14 2.22-.14-.72-.34-1.66.14-2.22zm-.11 3.43c.02 1.22.7 3.04 1.6 3.38 1.27-.57 1.39-2.23 1.58-3.36.16 1.34-.14 3.28-1.63 3.66-1.35-.64-1.59-2.35-1.55-3.68zm1.59 4.47c.48.65.22 1.63-.01 2.26-.24-.73.16-1.51.01-2.26z"/>
    <path d="M98.61 112.27c.02 1.23.7 3.02 1.6 3.38 1.27-.56 1.38-2.22 1.58-3.36.17 1.33-.14 3.3-1.63 3.66-1.35-.63-1.6-2.37-1.55-3.68zm1.59 4.66c.48.51.23 2.01-.04 2.16-.14-.71.17-1.47.04-2.16z"/>
    <path d="M98.77 116.43c.15 1.2.33 2.7 1.47 3.39a3.4 3.4 0 001.15-2.1c.1-.98.27-1.77.24-.29-.07 1-.43 2.37-1.52 2.63-1.23-.66-1.45-2.46-1.34-3.63zm-1.34-6.02c.77-.53.7-1.7 1.25-2.3-.4.82-.35 1.86-1.02 2.56l-.13-.14zm6.23-24.81c.56 1.75.2 4.19-1.59 5.01-1.81-.69-2-3.1-1.83-4.64.14 1.57.25 3.65 1.93 4.36.3-.27 1.3-1.2 1.39-2.03.26-.88.2-1.8.1-2.7z"/>
    <path d="M102.03 86.34c.55.89.38 2.33.05 3.07-.1-.98.05-2.2-.05-3.07zm4.24-.96c.74 1.41.85 3.78-.79 4.52-1.6-.63-1.7-2.75-1.74-4.14.34 1.35.35 3.25 1.84 3.87.4-.3 1.17-1.55.99-2.49.02-.58-.22-1.28-.3-1.76z"/>
    <path d="M105.28 85.93c.67.84.3 1.99.24 2.91-.39-.9.07-1.96-.24-2.91zm.37 4.17c.4 1.7-.04 4.2-1.88 4.79-1.5-.8-1.65-2.91-1.52-4.33.02 1.4.51 3.43 1.52 4.08 1.64-.77 2.04-2.9 1.88-4.54z"/>
    <path d="M104 90.88c.64.85.05 2-.05 2.84-.35-.9.36-2.01.05-2.84zm-.08 4.11c.46 1.81.03 4.23-1.86 4.98-1.8-.69-1.96-3.08-1.8-4.62-.03 1.54.56 3.78 1.79 4.36 1.74-.9 2.07-2.98 1.87-4.72z"/>
    <path d="M102.08 95.65c.6.9.24 2.28.08 3.08-.27-.97.19-2.13-.08-3.08zm2.19 3.71c-.89-1.15.34-2.66-.22-3.94.2.1.31 2.05.1 2.85-.27.43.63.92.12 1.09zm1.5-5.2c-.78-1.2.45-2.65-.07-3.96.2.34.28 1.61.1 2.31-.38.58.32 1.34-.03 1.65zm1.06-4.96c-.45-1.15.25-2.53-.51-3.66.2.02.78 1.85.55 2.59-.24.4.39.89-.04 1.07zm-3.7 14.32c-.78-1.03-.17-2.56-.9-3.58.89.97.31 2.47 1.15 3.44l-.16.1zm-.39.4c.57 1.39.46 3.56-1.07 4.2-1.43-.55-1.57-2.48-1.4-3.68.15 1.22.2 2.86 1.53 3.41.17-.22 1.13-1.1 1.01-1.85.13-.68.03-1.45-.07-2.08z"/>
    <path d="M101.69 104.68c.5.6.26 2.12.02 2.37-.16-.77.08-1.6-.02-2.37zm.07 3.39c.33.79.87 1.87 1.07 2.46-.73-.12-.76-1.94-1.07-2.46zm8.65-45.17c-.36.58.2.5.22.58-.35.63-.86-.52-.22-.58zm.74.23c-.01.75-.59 1.72-.23.42.09-.22-.24-.51.23-.42zm-3.18 1.59c.42 0 1.1-1.22 1.09-.64-.1.44-.66.8-1.09.64zm2.3.23c.2.5-.64.44-.07.07zm.21.2c.14.57-.7.4 0 0zm.26.17c.23.4-.7.44 0 0zm.66.13c.18.44-.55.22 0 0zm-.3-.05c.03.54-.65.27 0 0zm-20.98-2.5c.82.1-.1 1.26-.21.51.1.18.53-.09.22-.51zM92.1 63.35c.93.48-.7 1.58 0 0z"/>
    <path d="M89.68 63.15c-.17.53.36 1.74-.17.6-.02-.2-.32-.86.17-.6zm4.61.48c-.98-.6-2.19.03-3.16-.25-.46-.88.97.47 1.6-.28.55 0 1.17.12 1.56.53zm.11-.38c-.7-.33-1.57-.37-2.27-.53.73-.31 1.78-.12 2.27.53zm-1.83 1.48c-.53.27-1.36-.65-1.01-.87.24.38.7.62 1.01.87zm2.96-3.02c-.26.49-1.97.62-.68.26.44-.03.31-.72.68-.26zm1.27.95c-1.66.5-.3-.57 0 0zm1.65 1.8c-2.07 0-.39-.83 0 0zm-.35 1.01c-.84-1 .32-.72 0 0zm-.82.64c.24.87.1 2.51-1.02 2.56-.9-.3-1.29-1.46-1.2-2.26.1.81.8 1.87 1.33 2.02.8-.45.84-1.56.89-2.32z"/>
    <path d="M96.2 66.52c.41.16.36 1.76.06 1.21-.1-.4-.05-.8-.06-1.21zm-.15-2.23c.37.74-.62 2.24-1.2 1.08-.3-.54.14-1.62.11-.5.2.62.55.93.87.25.1-.25.24-.68.22-.83z"/>
    <path d="M95.45 64.45c.27.62-.19 1.27-.23.35.04-.12.09-.31.23-.35zm1.9-.11c.54.46.74 2.06-.27 1.87-.62.02-1.16-1.66-.82-1.27.2.58 1.2 1.61 1.29.57.05-.4-.12-.78-.2-1.17z"/>
    <path d="M96.99 64.66c.74.6 0 1.66 0 .18zm1.38 3.48c.23 1.07.26 2.62-.87 3.18-1.22-.3-1.96-1.73-1.9-2.86.14 1.04 1.22 2.65 2.01 2.48.78-.69.74-1.88.76-2.8z"/>
    <path d="M97.23 68.58c.36.37.4 1.66.14 1.75-.19-.56-.1-1.17-.14-1.75zm-6.95-3.63c.67.44-.15.6 0 0zm-.23.2c.78.6-.26.4 0 0zm-.25.17c.7.36-.21.44 0 0zm-.66.13c.53.24-.19.45 0 0zm.3-.05c.73.3-.1.48 0 0zm6.91 7.66c.5.88-.5 3.14-.04.97.08-.3 0-.72.04-.97zm2.99-2.15c.22 1.17.27 2.77-.91 3.43-1.3-.33-2-1.89-1.96-3.08.11 1.15 1.07 2.55 1.89 2.81 1.02-.69.86-2.23.98-3.16z"/>
    <path d="M98.16 71.4c.38.51.36 1.54.18 1.94-.25-.58-.12-1.35-.18-1.94zM108.44 63.35c-.78.22.52 1.8 0 0z"/>
    <path d="M106.23 63.62c.82-.94 2.16-.31 3.1-.42.28-.78.18.62-.39.28-.9-.15-1.87-.28-2.71.14zm-.1-.37c.5-.63 1.63-.9 2.28-.48-.78.04-1.55.2-2.28.48zm-.89-1.72c.63.6 1.42.8.22.49-.16-.13-.75-.3-.22-.49zm-1.41.87c1.88.3-.47.58 0 0zm-1.7 1.78c2.21-.42-.13.8 0 0zm.1 1.07c.9-1.25.38.62 0 0zm1.03.86c-.11.78.35 2.28.91 2.26.88-.07 1.16-1.93 1.33-1.78-.05.88-.5 2.07-1.51 2.11-.86-.5-.97-1.74-.73-2.59z"/>
    <path d="M104.35 66.52c.17 1.1-.49 2.18-.2.28.05-.1.11-.2.2-.28zm.15-2.23c.06.59.54 1.81.97.95.2-1 .42-1.03.28.1-.7 1.35-1.52-.31-1.25-1.05z"/>
    <path d="M105.08 64.44c.53.22-.1 1.4-.07.49 0-.15 0-.38.07-.49zm-1.88-.09c-.33.57-.34 2.13.45 1.41.43-.3.96-1.67.64-.49-.11.67-1.29 1.47-1.53.46-.1-.48.08-1.05.44-1.38z"/>
    <path d="M103.56 64.67c.19.74-.56 1.4-.27.31.05-.12.14-.26.27-.31zm-1.39 3.47c-.09.99.22 2.44.82 2.87 1.18-.28 1.65-1.6 2-2.56-.03 1.2-.75 2.7-2.04 2.85-1.04-.67-.97-2.11-.78-3.16z"/>
    <path d="M103.31 68.58c.1.7-.24 2.8-.3.99 0-.35.08-.71.3-.99zm.9 4.48c-.1.67.41 2.87-.13 1.36-.03-.44-.06-1.03.13-1.36zm-3.01-2.15c.01 1.09-.04 2.46.94 3.18.33-.12 1.26-.81 1.45-1.49.34-.74.64-2.03.32-.36-.26.93-.9 2.01-1.95 2.1-1.05-.76-1.06-2.32-.76-3.43z"/>
    <path d="M102.38 71.4c.1.8-.27 3.13-.3 1 .01-.35.09-.71.3-1zm1.16 2.68c.46 1.45-.12 3.64-1.65 4.06-1.38-.6-1.4-2.5-1.44-3.68.19 1.19.56 2.98 1.48 3.42 1.31-.72 1.79-2.48 1.61-3.8z"/>
    <path d="M101.96 74.66c.74.52 0 3.5 0 1.6a15 15 0 000-1.6zm3.31 6.6c-.47-.7-.29-1.7-.62-2.42.48.66.35 1.58.84 2.22l-.14.13z"/>
    <path d="M104.63 78.77c.46 1.34-.07 3.31-1.48 3.76-1.4-.88-1.23-2.99-1.35-4.38.37 1.4.24 3.18 1.5 4.12.83-.53 1.63-2.3 1.33-3.5z"/>
    <path d="M103.2 78.33c.53.94.28 2.22.08 3.16-.24-1.04.08-2.11-.08-3.16zM97 74.08c-.38 1.38.6 3.37 1.55 3.78 1.26-.59 1.15-2.35 1.56-3.39-.13 1.27-.12 3.33-1.66 3.7A3.52 3.52 0 0197 74.08z"/>
    <path d="M98.58 74.66c-.15.43.13 3.02-.23 2-.11-.62-.27-1.56.23-2zm-3.53 6.41c.5-.62.36-1.65.87-2.2-.42.74-.15 1.7-.64 2.4l-.14-.12zm6.9-3.13c.04 1.68.03 4.04-1.6 4.97-1.66-.87-1.68-3.31-1.5-4.87-.16 1.5 1 6.38 2.4 3.5.5-1.12.63-2.46.7-3.6z"/>
    <path d="M100.37 79.29c.42.76.37 1.83 0 2.57-.07-.84.06-1.8 0-2.57zm-4.46-.52c-.32 1.28.57 3.17 1.41 3.49 1.16-.57 1.02-2.2 1.43-3.13-.1 1.13-.14 3.34-1.63 3.39a3.32 3.32 0 01-1.21-3.75z"/>
    <path d="M97.35 79.3c-.14.42.14 2.8-.23 1.86-.1-.59-.26-1.4.23-1.86zm7.79 2.95c.57 1.34 0 3.5-1.56 3.75-1.33-.48-1.55-2.29-1.53-3.4.17 1.13.66 2.87 1.65 3.16 1.3-.56 1.75-2.25 1.44-3.51z"/>
    <path d="M103.7 82.78c.55.49.33 1.93.08 2.12-.18-.68.11-1.45-.08-2.12zm-1.49-.38c.18 1.5-.25 3.53-1.86 4-1.66-.42-2.09-2.51-1.78-3.91-.17 1.38.69 3.32 1.79 3.63 1.44-.54 1.77-2.42 1.85-3.72z"/>
    <path d="M100.35 82.77c.41.76.39 1.86-.03 2.58-.02-.86.1-1.72.03-2.58zm-5.03-.52c-.4 1.3.4 3.03 1.37 3.49 1.37-.37 1.4-2.13 1.79-3.16-.1 1.26-.3 3.16-1.81 3.44-1.4-.64-1.86-2.49-1.35-3.77z"/>
    <path d="M96.77 82.78c-.2.56.17 2.08-.16 2.11-.17-.68-.35-1.52.16-2.11zm3.64-12.01c.04 2.43-.5.42-.26-.2.05-.11.17.23.26.2z"/>
  </g>
 </g>
</svg>
