<svg width="800" height="800" fill="#d7374a" viewBox="50 50 200 200" xmlns="http://www.w3.org/2000/svg">
<!-- source: wappenwiki.org, CC BY-NC-SA 3.0 -->
 <g id="fountain" stroke="#000" stroke-width=".5">
  <circle r="30" cy="100" cx="100"></circle>
  <g fill="#fafafa">
    <path d="M 74.54,84.09 C 77.76,84.75 78.73,88.7 82.4,88.7 c 4,0 4.8,-4.7 8.8,-4.7 4,0 4.8,4.7 8.8,4.7 4,0 4.8,-4.7 8.8,-4.7 4,0 4.8,4.7 8.8,4.7 3.66,0 4.64,-3.94 7.86,-4.61 -1.3,-2.06 -2.81,-3.9 -4.49,-5.57 C 120.06,79.3 119.03,79.9 117.6,79.9 c -4,0 -4.8,-4.7 -8.8,-4.7 -4,0 -4.8,4.7 -8.8,4.7 -4,0 -4.8,-4.7 -8.8,-4.7 -4,0 -4.8,4.7 -8.8,4.7 -1.41,0 -2.43,-0.59 -3.32,-1.34 -1.79,1.66 -3.24,3.55 -4.54,5.54 z"></path>
    <path d="m 73.6,93 c -1.26,0 -2.2,0.47 -3.03,1.11 -0.61,3.03 -0.67,6.02 -0.4,9.05 C 71.11,102.33 72.1,101.7 73.6,101.7 c 4,0 4.8,4.7 8.8,4.7 4,0 4.8,-4.7 8.8,-4.7 4,0 4.8,4.7 8.8,4.7 4,0 4.8,-4.7 8.8,-4.7 4,0 4.8,4.7 8.8,4.7 4,0 4.8,-4.7 8.8,-4.7 1.48,0 2.53,0.65 3.46,1.46 0.38,-3 0.32,-6.05 -0.46,-9.18 C 128.58,93.35 127.64,92.9 126.4,92.9 c -4,0 -4.8,4.7 -8.8,4.7 -4.1,0.1 -4.9,-4.6 -8.9,-4.6 -4,0 -4.7,4.7 -8.7,4.7 -4.1,0 -4.8,-4.7 -8.8,-4.7 -4,0 -4.8,4.7 -8.8,4.7 -4,0 -4.8,-4.7 -8.8,-4.7 z"></path>
    <path d="m 72.19,111.22 c 2.24,5.67 5.64,10.07 10.42,13.21 C 86.31,124.16 87.32,119.7 91.2,119.7 c 4,0 4.8,4.7 8.8,4.7 4,0 4.8,-4.7 8.8,-4.7 4,0 4.55,4.7 8.55,4.7 4.81,-3.3 8.29,-7.7 10.51,-13.25 C 127.4,110.98 126.97,110.9 126.4,110.9 c -4,0 -4.8,4.7 -8.8,4.7 -4,0 -4.8,-4.7 -8.8,-4.7 -4,0 -4.8,4.7 -8.8,4.7 -4,0 -4.8,-4.7 -8.8,-4.7 -4,0 -4.8,4.7 -8.8,4.7 -5.94,-0.4 -3.88,-5.06 -10.21,-4.38 z"></path>
  </g>
 </g>
</svg>
