<svg width="800" height="800" fill="#d7374a" viewBox="50 50 200 200" xmlns="http://www.w3.org/2000/svg">
<!-- source: wappenwiki.org, CC BY-NC-SA 3.0 -->
 <g id="greyhoundСourant" stroke="#000" stroke-width="3">
    <path d="M230 74c-4.1-5.1-7.2-22.8-17.1-20.8-7.7 1.7-12.4 2-17.1 5.9a33.1 33.1 0 00-7.5 9.2m-11.8 64.6s-17.4-7.3-32.1-5.6c-15.3 1.8-23.6 9.8-32 10.7-15.8 2-17.2-4.7-18.9-4.5-1.1.4-.3 4.7 1.8 6.2s7.4 5.9 18.5 4.7c13.4-1.6 19.2-8.3 32-9.8 17.2-2 30.5 5.6 30.5 5.6" transform="matrix(.11915 0 0 .11915 50.66 77.84)"/>
    <path fill="#f6f6f6" d="M122.9 137.8c-.5-.1-3 4.9-3 8.7l.3-.2c1.4-.7 3.6 1.1 4.8 1.1-.7-2.7-1.7-9.5-2.1-9.6zm-4.6-6.8c.6-.6-2.7-3.8-4.6-7.8l-.6-2.1c-1.7.3-3.3.8-5.1.8-.3 0-1.5.2-1.9.1 1.9 2.9 7.5 9.3 12.2 9z" transform="matrix(.11915 0 0 .11915 50.66 77.84)"/>
    <path d="M499.9 298.8c-4 2.1-9 1.5-13 2.5l-.5.2c-2.5 1.1-3.1 2.4-3.5 2.2-.6-.2 0-2.8.4-4 2.5-8 11.7-10.8 11.7-10.9" transform="matrix(.11915 0 0 .11915 50.66 77.84)"/>
    <path d="M507.8 307.3c-3.9 2.2-8.9 1.8-12.9 3l-.5.2c-2.5 1.2-3 2.5-3.4 2.4-.6-.2-.1-2.8.2-4.1 2.2-8.1 11.3-11.3 11.3-11.4M546.3 298.8c-3-4.8-10.2-4.1-8.2 2.6.2.5.5 1 1 1.3 2.8 2 1.3 7.6 2.7 7.4 3.5-1.5 5.8-6.3 4.8-10.6l-.3-.7z" transform="matrix(.11915 0 0 .11915 50.66 77.84)"/>
    <path d="M514.8 316.2c-3.9 2.2-8.9 1.8-12.9 3l-.4.2c-2.5 1.2-3 2.5-3.4 2.4-.6-.2-.1-2.8.2-4.1 2.2-8.1 11.3-11.3 11.3-11.4" transform="matrix(.11915 0 0 .11915 50.66 77.84)"/>
    <path d="M617.5 262.7c-1.9 4.6-2.2 7.5-3.3 8.9-1.5 2-4.5 3.9-10.9 3.4-11 .5-17.8 3.9-31.6 8.9-18.3 7-17.2 14.3-25 16.8-2.9-1.9-5.4-1.4-7.1 1.3-.3.5-.8.9-1.4 1.2-2.6 1.4-8.4 13.5-14.2 14.6-3.7.7-6.4.6-8.1.1-1-.3-1.8-1.2-1.8-2.3 0-1.5-1-3.2-2.3-5l-.3-.3c-1.6-1.6-2.9-2.2-3.9-2.3-1.1-.2-1.9-1-2.1-2.1a8.9 8.9 0 00-2.4-4.9c-1-1-1.8-1.4-2.4-1.7a2.5 2.5 0 01-1.7-2 9.6 9.6 0 00-1.8-4.2 8.6 8.6 0 00-3.1-2.9 2.5 2.5 0 01-.6-4.1l.3-.3.4-.3c1.5-.9 1.9-.7 3.3-.7s.9.2 3.5-.3c9.3-3.4 12.9 3.2 22.1-.7 21.6-12.3 40.8-15.2 44.4-25.2 0 0-22.7-3.1-34.4-8.7a28.6 28.6 0 01-15.7-19.2c-3.5-15.6 20.9-26.5 28.2-37.9l60.1 25.4c-2.8 5.8-11.3 14-7.6 30 1.9 8.6 21.7 3.9 19.4 14.5zM132.1 242.2c1.3-5.4-4.7-9.8-7.2-2.7 1.4 3.2-3.6 6.4-2.5 7.1 3.2 1.2 7.8-.8 9.7-4.4zM92.3 224.5c-3.8 3.5-12.4 1.6-16.5 5.6-1.2 1.2-.9.7-.9-.2.5-9.2 10.5-12.6 10.5-12.6m8.6 22.2c-3.8 3.5-12.4 1.6-16.5 5.6-1.2 1.2-.9.7-.9-.2.5-9.2 10.8-12.7 10.7-12.7m13.3 18.4c-1.7 4.9-10.2 7.3-11.9 12.7-.5 1.6-.5 1.1-.9.3-4-8.3 3.4-16 3.3-16.1" transform="matrix(.11915 0 0 .11915 50.66 77.84)"/>
    <path d="M250.6 200.9s-15.5 7.4-23.1 7.5c-20.4.2-28.5 4.2-34.4 2.7-8-2.1-14.4-3.8-20.2-3.3-2.6.2-9.1 3.8-15.1 5.4-7.6 2-17.8 1.3-20.8 1.9-8.7 1.5-14.4-.5-16.7.5-2.3 1-8.6.5-10.6.2-3.2-.6-6 .7-9 1.5-2.1.5-6.5-1.2-7.1-1.9-1.1-1.3-3.3-1.7-4.7-1.5-1.5.2-2 .7-3.2 1.5-1.2.8-1.1 2.1-1.1 2.1s2.3-.2 4.1 4.3c1.3 3.2.1 4.5.2 4.7.1.4.5 1.5 1.9 1.3l-1.4.4c-.6.2-1.9.8-3 2.3-.6.7-.6 1.9-.3 2.3.3.1 1.9.6 3.3 3.1 2.1 4.3.4 5.7.4 5.7s1.9.6 2.4.3l-1 1c-.4.5-1.4 1.8-1.7 3.7-.2.9.3 1.9.8 2.1.3-.1 2.1-.5 4.4 1 3.9 2.8 3.5 4.7 3.5 4.7 1.8 1.2 2.8-.4 4.1-1.5 1.3-1.1.9-2.6 1.9-4.1 1.6-2.2 6-2.1 8.3-4.7 1.4-1.5 2.1-3.3 4.2-4.1 6.6-2.3 9.1 2.2 8.2.4 3.4-1.6 5.9-.5 6.7 2.9.4-.5.3-.6.6-1.2 1.6-2.7 3.8-4.8 9.7-4.4 4.9.3 6.8 0 10.5-.7 8.6-1.6 15.3-5.2 23.6-6 8.2-.8 7.7 4.2 17.6 5.5 12.8 1.7 13.5-.1 25.8 1.5s9.5 6.7 25 9c10.4 1.5 24.2.6 30.3.1" transform="matrix(.11915 0 0 .11915 50.66 77.84)"/>
    <path d="M96 228.8c-2.6.1-6.43-1.05-6.43-1.05s5.03.85 5.83-.25c1-1.1 4.3.2 4.3.2s-1.1.9-3.7 1.1zm1.3 11.6c-2.3 1.2-6.45 1.37-6.45 1.37s5.25-.87 5.45-2.17c.4-1.4 4-1.5 4-1.5s-.7 1.1-3 2.3zM705.6 300.8c-3.2 3.3-8.2 4.4-11.7 6.7-2.2 2-2.3 3.4-2.8 3.4-.6 0-.9-2.7-1-4-.2-8.4 7.6-14 7.5-14.1M753.1 279.9c-2.6-5.6-10.9-5.3-8.2 2.6 3.5 1.8 1.3 8.1 2.7 8 3.7-1.2 6.4-6.2 5.5-10.6z" transform="matrix(.11915 0 0 .11915 50.66 77.84)"/>
    <path d="M715.8 306.3c-3 3.4-8 4.7-11.4 7.1-2.1 2.1-2.2 3.5-2.7 3.5-.6 0-1-2.7-1.1-3.9-.5-8.4 7.1-14.3 7-14.4" transform="matrix(.11915 0 0 .11915 50.66 77.84)"/>
    <path d="M725.3 312.5c-3 3.4-8 4.7-11.4 7.1-2.1 2-2.2 3.5-2.7 3.5-.6 0-1-2.7-1.1-3.9-.5-8.4 7.1-14.3 7-14.4m-166-107.9c-1-.2-16.4.6-18.6 1.2-8.6 1.6-17.9 6.6-17.9 6.6s-3.7 2.2-5 .1c-.5-.8-1-2.2-.2-3.7a63.8 63.8 0 0111.9-11.9" transform="matrix(.11915 0 0 .11915 50.66 77.84)"/>
    <path d="M266.4 119.9s15.5 18.9 51.1 27.8c76.5 19.1 119.2-23.6 198.3-23.6 48.2 0 76.6 28.2 103.8 29.7 29.7 1.6 59.7-11.3 59.7-42.7 0-27.8-21.3-48.3-52.6-48.3-28 0-45.7 12.7-59.4 28.1 5.7-17.6 28.3-40.2 60.4-40.2 37.7 0 66.9 24.7 66.9 60.4 0 44.1-44.9 65-87.9 59.2 0 0 19.2 7.4 33.2 37.2 4.7 9.8 14.1 11.7 22 12.2 15.4.9 23.5-12.4 31.4-13.3 5-.5 7.6-1.7 9.4-1.5 2.4.3 5.6 2 8.3 7.9 2.7 5.9 4.5 14.8 18.3 30.7 10.6 11.3 13.8 18.3 17.3 24.5 1.6 2.8 4.3 4.6 6 9.2.9 2.6.6 4.2.6 4.2-3.1-2.5-6-1.7-7.9 2.1-.9-.5-2.1.3-2.3 3.3-.3 3-.3 5.9-.9 12-.4 4.1-2.2 9.5-7.4 12.4-5.2 2.9-8.6 3.1-9.9 2.3.1-1.9-1.7-3.7-4.1-5.3-4.8-2.5-6.4-.1-6.4-.1s-.6-4-4.6-6.2c-3.2-1.6-4.4-.5-4.4-.5s-.6-2.9-3.7-5.2c-4.3-2.9-5.7-1.4-5.7-1.4s-1.5-1.9.3-4.6c1.3-1.6 1.7-1.4 3-1.9 1.3-.4 1-.1 3.2-1.4 5.9-4.4 10.4-.2 17.8-6.8 1-.9 2.3-5.9 2.3-8.9 0-6.8-.9-13.6-11.1-20.8-7-4.6-7.8-5.1-15.4-8.8l15.4 8.8c-7-4.6-7.8-5.1-15.4-8.8-9-4.3-15.2-3.4-23 .2-15.8 6.8-42 12-57.4 12-20.7 0-33-11.6-44.9-22-22.5-19.6-25-37.8-46.2-37.8C423 194 366 292.4 308 268.3c-5.9-2.5-14.6-7.4-16.6-11.1-7-2.4-24.1 1.5-25.8-.1l-8.3-12.6s-7.6 17.5-18.7-23.8c-1.3-4.9.8-13.7-1.2-21.8-5.4-15.1-6-11.2-11.2-18.7-5.2-7.5-6.5-13.5-6.5-13.5-5-6.3-11.4-8.5-13.2-11.6-6.7.5-17.9-1.6-23.8-4.1-3-1.3-5.6-.5-9-.9-3.2-.4-5.7 0-9.3-.5-2.6-.3-6-1.2-8.6-1.4-2.6-.2-7.3 1.5-11.1 2.1-1.8.3-4.2-.3-6 0-2.8.4-4.5.5-7.2.7-2.3.2-4.5 1-6.3 1.5-2.2.3-4.7-.9-6.8-1.4-.7-.2-2.3-.9-2.6-1.6-.6-1.1.2-2 1-2.4 1.5-.8 2.8-1.1 4.4-1.3 1.8-.2 4.1-.1 5.8-.2 1.8-.1 3.4-1.4 5.2-1.4 1.8 0 2.9-.3 4.7-.7 2.5-.5 4.1-2 6.9-2.7 2.8-.7 3.1.1 10-1.2s21.6 2.2 22.8-.3c1.1-2.6-1.2-8.5-7.8-11.7a66.1 66.1 0 00-12.5-4.4c-1.5-.2-6.2-1.4-7.7-1.5-1.6-.1-5.1-1.8-9.1-1.4-5.2.5-8.7 4.3-12.4 4.1-2.3-.4-12.2-2.1-16.1-1.9-1.5.1-4.8 1.3-6.3 1.3-4 0-5.8-3.3-9.2-5.2a15.5 15.5 0 01-4.7-3.1c-1.9-1.8-1.1-3.3-2.3-4.7a9.8 9.8 0 01-2.6-6.3c.2-1.3.2-3.3 1.6-4.3 1.9-1.8 8.4-3 10.3-3.3 1.8-.3 9.5-3.5 15.3-5.1 9.8-2.7 12.8-1.9 22.5-5a48 48 0 0016.3-8.2c1.3-1.5 1.5-1.9 4.6-4.9 2-1.8 7.6-3.6 12.8-4.3 4.3-1.5 8.8-3.1 12.5-4 5.3-1.2 8.1-.5 11.5-.6 2.8-.1 6 .9 10.4.5 11.9-.9 21 3.7 28.9 8.3 4.2 2.4 6.8 5.9 14 15.3.1 0 12.5 12.5 19.8 31zM151.7 286.3c.3-5.5-6.3-8.8-7.6-1.4 2 2.9-2.5 6.9-1.3 7.5 3.5.6 7.8-2.2 8.9-6.1zM107.7 279.8c-2.4 4.6-11.1 5.7-13.6 10.8-.7 1.5-.6 1-.9.2-2.7-8.8 5.7-15.4 5.6-15.4m15.6 17.9c-2.4 4.6-11.1 5.7-13.6 10.8-.7 1.5-.6 1-.9.2-2.7-8.8 5.8-15.5 5.7-15.6m18.7 12.8c.1 5.2-7.1 10.3-6.9 16 .1 1.7-.1 1.2-.8.6-6.5-6.5-2.3-16.2-2.4-16.2" transform="matrix(.11915 0 0 .11915 50.66 77.84)"/>
    <path d="M317.2 264.4a7 7 0 01-4.6 3.2c-1 .1-2.2.2-3.2.1-1.6 1.3-3.9 1.2-5.9.7-2-.5-3.8-1.5-5.9-1.8-1.5-.3-3-.2-4.5 0-6.1 1-19.5 5.2-30 5.4-15.7.4-13.8-5.1-26.2-4.6-12.4.5-12.8 2.4-25.7 2.9-9.9.4-10.2-4.6-18.2-2.4-8 2.2-13.7 6.9-21.9 9.9-3.5 1.4-5.6 2.3-10.5 2.9-5.9.6-7.7 2.7-8.8 5.6-.2.6-.1.7-.4 1.2-1.4-3.3-4-3.9-7.1-1.8 1.3 1.6-3-4.1-8.5.3-1.8 1.4-1.8 3.4-2.6 5.2-1.3 3.2-5.5 4.7-6.2 7.3-.5 1.8.4 3-.4 4.5-.9 1.5-1.3 3.3-3.4 2.8 0 0-.3-1.9-4.9-3.2-2.7-.7-4.3.3-4.5.5-.5-.1-1.3-.8-1.4-1.7a7.6 7.6 0 01.9-5.3c-.4.4-2.4.5-2.4.5s1.1-1.8-2.3-5.2c-2.1-1.9-3.8-1.8-4.1-1.8-.4-.3-.9-1.4-.5-2.3.5-1.8 1.6-2.7 2.1-3.2l1.2-.9c-1.3.7-1.9-.3-2.2-.6-.2-.2.6-1.8-1.8-4.4-3.2-3.6-5.3-2.6-5.3-2.6s-.5-1.2.3-2.4c.9-1.1 1.2-1.8 2.6-2.5 1.3-.7 3.5-1.1 5-.2.7.4 5.5.6 7.3-.6 2.6-1.8 4.8-3.9 8-4.4 2.1-.3 4.3.2 6.3-.3 1.4-.3 6.2-1.5 8.3-2.9 2.1-1.4 8.1-.8 16.4-3.7 2.8-1.1 12.7-2.1 19.8-5.4 5.6-2.6 11.4-7.2 13.9-7.9 5.7-1.5 12.3-.9 20.5-.2 6.1.5 13.7-4.9 33.8-8.5 7.6-1.4 21.5-7.3 21.5-7.3" transform="matrix(.11915 0 0 .11915 50.66 77.84)"/>
    <path d="M112.6 282.5c-2.4 1-6.5 1.6-6.5 1.6s5.2-1.3 5.5-2.6c.5-1.3 4.1-1.2 4.1-1.2s-.7 1.2-3.1 2.2zm5.2 10.5c-1.8 1.9-5.43 3.57-5.43 3.57s4.33-2.67 4.13-3.97c-.1-1.4 3.2-2.8 3.2-2.8s-.1 1.3-1.9 3.2zM234.1 84.4c.4-1.3.9-2.6 1.9-3.4.7-.6 3.5-1.3 6.6-1.5a16 16 0 006.4-2.1c4.6-2.9 10.3-2.6 13.6-4.8 3.4-2.2 18.1-4.1 18.6-8.5S264.5 59 264.5 59s-10-1.5-19.8-1.9c-7.9-.3-13.5-1.9-19 .7-4.7 2.2-10.4 2.2-13.1 8.1l-3.1 6.5" transform="matrix(.11915 0 0 .11915 50.66 77.84)"/>
    <path fill="#f6f6f6" d="M170.3 87.3c-.8 1.4-4.1 2.8-6.8 3.3s-4 0-4.7-1.7c-1.6-2.8 0-6.8 1.8-6.8 1.8-.4 6.8 2.8 9.7 5.2z" transform="matrix(.11915 0 0 .11915 50.66 77.84)"/>
    <g fill="#000" stroke="none">
      <path d="M80.47 101.58a4.78 4.78 0 001.75-.93c-.42.58-1.05.97-1.68 1.27l-.04-.17zm-18.23 2.88c.24-.46-.84-.74-.26-1.03-.1.06.65.93.26 1.03zm2.9.23c-.4.5-1.25.09 0 0zm-.85-.12c.55-.38 1.73.24 0 0zm-4.53.4c.77-.66 1.36-.53 0 0zM62.44 104.86c1.18-.27 1.5.64 0 0zm-.24 1.02c0-.44-.71-.63-.44-.97.26.16.6.71.44.97zm-2.22.87c.64-.62 1.57-.58 0 0zm2.5-.64c.3-.29.86-.18 1.19-.33-.3.16-.93.66-1.2.33zm.4 1.18c-1.1-.5-.6-1.22 0 0zm-1.63 1.6c0-.34.44-.87.64-.8-.26.23-.44.52-.64.8zM79.37 105.2c-1.25.11-3.1-.36-1.15-.42.38.01.75.09 1.13.13zm-6.94-.92c-.2.7-1.25.74-1.67.22.56-.01 1.16.09 1.67-.22zM69.98 87.6c.68 1.14-.64 1.1 0 0zM111.03 99.95c1.45-.02 2.8.65 4 1.42-.44.42-1.2-.64-1.83-.77a6.54 6.54 0 00-2.17-.65zm10.21-2.45c.56.2 1.13.45 1.74.44.2.92-1.44-.45-1.74-.44zm-10.35-3.39c2.32-.36 5.17-.27 6.98 1.46-1.98-1.33-4.63-1.58-6.98-1.46zm24.72 20.42c-.14-.96 1.05-.82 1.43-1.52.75-.32-.64.92-1.1 1.17-.15.17.06.44-.33.35z"/>
      <path d="M136.22 113.64c.44-.42 1.57 1.07.93.45-.28-.3-.82-.05-.93-.45zm-1.29-1.02c-1.2-.2-1.03-.86-.15-.22.03.06.2.15.15.22zm2.1-1.04c.34-.54.86-1.06.38-.16-.1.1-.23.16-.37.16zm.68-.66c.14.86-.53 1.08 0 0zm-4.65 3.57c.81-1.03 1.48-1.1 0 0zm6.2-2.8c-.23-.6-.16-.9.23-.2l-.13.12zm-9.72-7.83c.97.18 2.22-.01 2.93-.26-.91.47-1.96.58-2.97.53l.03-.17zm5.34.68c-.65.22-1.6-1.42-.33-.28l.33.28zm4.8 6.67c.5.3.06 1.53.08.25a1.1 1.1 0 00-.09-.25zm-5.15 2.55c-.12-1.12 1.32-.83 1.87-1.49-.33.86-1.5.55-1.62 1.44l-.17.03z"/>
      <path d="M135.13 112.87c.44-.42 1.58 1.06.93.45-.28-.31-.81-.05-.93-.45zm-.82 2.3c.78-1.07 1.41-1.1 0 0zM135.44 115.92c.62-.96 1.52-1.2 0 0zm-38-11.38c.4-.6 1.62-.93.8-.2a.98.98 0 01-.8.2zm1.83-1.2c.3 0 1.96-1.09 1.65-.5-.36.49-1.08.66-1.65.5zm2.6-1.15c.6-.13 1.15-.7 1.8-.6-.46.45-1.15.88-1.8.6zm2.64-.99c1.3-.56 2.22.2.33.15a1 1 0 01-.33-.15zm-14.1 7.07c1.13-.2 2.03-1.28 3.34-1.33.73.04 1.05-.53 1.4-1.05a13 13 0 011.46-.5c-.6.54-1.45.68-1.7 1.52-.99.69-2.49.2-3.29 1.27-.38.1-.9-.31-1.21.09zM81.74 105.01a5.12 5.12 0 002.05-1.21c-.16.15-1.22 1.34-1.9 1.52zm-17.75 5.83c-1.29-.95-.24-.9.04-.01zm3.17-.64c-.04.35-1.07.44-.35.1.11-.06.23-.08.35-.1zm-.86.02c.32-.45 1.66-.04 0 0zm-4.45 1.94c.44-.83 1.15-1.04 0 0zM64.32 111.15c1.33-.71 1.23.23 0 0zm.12 1.06c-.14-.43-.96-.27-.73-.76.32.08.71.46.73.76zm-1.8 1.57c.44-.84 1.15-1.04 0 0zm2.14-1.46c.17-.41.76-.39.99-.72-.23.25-.64.94-1 .72zm.78.96c-.25-.15-1.41-.3-.55-.44.24.04.48.2.55.44zm-.99 2.09c.1-1.12.58-1.41 0 0zM85.89 102.16c.9-.82 2.67-.59 3.36.03a5.24 5.24 0 00-3.36-.03zm-2.29 3.3c-.44 1.26-1.62 1.18 0 0zm0 .88c.13.26-.63 1.2-.49.57a.89.89 0 01.5-.57zm.11.69c.13.94-.69.91-.24.15zm2.93.44c-.4.11-.97 1.28-1.13 1-.04-.58.57-1.12 1.13-1zm-9.94 1.42c1.35-.87 4.46.14 1.32 0-.44-.03-.88-.08-1.32 0zm-7.14-17.97c.67.35 2.51 1.45.96.98a1.73 1.73 0 01-.96-.98zm4.75 1.97c.61 0 1.54.3 1.51 1.03-.4-.48-1.13-.53-1.51-1.03zm-9.68-2.45c1.45.18 1.89 1.29.16.26a.57.57 0 01-.16-.26zm6.44-.77c-.23-.46.16-1 .62-1.09-.07.43-.35.78-.62 1.09zm.64-1.56c.3-.32 1.52.2.8.3-.29.02-.66 0-.8-.3zm7.02-.16c-.23.26-.34 1.58-.37.43-.37-.82.1-.47.37-.43zm-1.05-.66c.38.3.24 1.04-.24 1.14.04-.39.1-.78.24-1.14zm-1.9-.75c-.23.4-1.25 1-.55.3.23-.23.09-.69.56-.3z"/>
      <path d="M76.68 88.1c-.28-.8.84-1.33.86-2.11.75-1.66 4.25-.1 4.78-.44-1.4.4-2.9-.13-4.27.21-.2.96-1.28 1.37-1.37 2.34zm-15.44 2.78c1.98-2.36.8.86 0 0zm.95.31c.03-.87.91-.14 0 0zm6.88-2.91c-.04 1.35-1.1 1.4-.18.15l.01-.02zm.21-1.32c.4 1.02 1.63-.48 2.2.54-.6-.44-2.4.88-2.2-.54zM71 88.1c1.09.22-.02.59 0 0zm39.78 26.43c.18-.95 1.32-.47 1.9-1 .84-.25-.84.82-1.17.64-.42-.02-.31.61-.73.36z"/>
      <path d="M111.64 113.9c.48.01.88.6.84 1-.03-.64-.9-.5-.84-1zm-.88-1.4c-.19-.3-.5-.51-.84-.57.04-.78.9.45.84.57zm2.32-.3c1.6-.84 1.31-.09 0 0zm1.2-.17c-.05.47-1.34.58-.48.23l.48-.23zm-5.9 1.65c.23-.37.8-.5 1.16-.4-.4.1-.81.17-1.17.4zm6.32.39c-.17-.21-.3-.98-.01-.37.22.18.25.16 0 .37zm.37-.5c.5.2.15 1.56.12.34a.86.86 0 00-.12-.34zm-5.08-.13c.25-1.07 1.58-.46 2.3-.81-.7.58-1.67.26-2.17.84z"/>
      <path d="M110.85 112.8c.49.01.88.61.85 1-.03-.63-.9-.49-.85-1zm-1.51 1.93c.22-.4.77-.53 1.15-.45-.39.12-.82.18-1.15.45zM110.17 115.79c.22-.4.78-.53 1.16-.45-.4.12-.83.18-1.16.45zm8.13-7.3c2 .06 1.12.56-.03.17l.03-.17zm-30 .75c.34-1.01-.48-2.34.37-3.24-.46 1.14.51 2.38-.06 3.44l-.31-.2zm-11-12.83a5.08 5.08 0 002.32-1.14c-.28.91-1.41 1.5-2.32 1.14zm5.28-2.65c.58.18 1.59 1.08.5.71-.26-.15-.5-.39-.5-.71zm-1.74 4.88c-.02.44-.18 1.29-.37 1.41-.32-.44-.08-1.14.37-1.4zm.9-1.24c.45.95-.84 1.95-.2.54l.2-.54z"/>
    </g>
 </g>
</svg>
