<svg width="800" height="800" fill="#d7374a" viewBox="50 50 200 200" xmlns="http://www.w3.org/2000/svg">
<!-- source: wappenwiki.org, CC BY-NC-SA 3.0 -->
 <g id="griffinRampant" stroke="#000" stroke-width="3" transform="matrix(0.10824322,0,0,0.10824322,56.583732,72.53543)">
  <path d="m174.5 28s10-5 6.3-13.2-9-6.9-9-6.9-2.8 1.4-6 1.3c-8.2 0-10.4-5.6-10.4-10.9 0-2.4 1-3.7 0.8-4.5-0.4-2.1-11 6.3-5.7 21.6 5.7 16.7 24 12.6 24 12.6zm-1.5-84.1s6.9 8.8 0.2 14.6c-6.8 5.9-11.1 2.4-11.1 2.4s-2-2.4-4.9-3.7c-7.4-3.4-11.8 0.7-14 5.6-1.1 2.2-0.6 3.8-1.2 4.4-1.3 1.7-7.4-10.3 3.9-22 12.2-12.7 27.1-1.3 27.1-1.3zm50.5-17.2s-2.9 10.8-11.6 8.8c-8.8-1.9-8.6-7.4-8.6-7.4s0.8-3 0.1-6.2c-1.7-8-7.6-9-12.8-7.9-2.4 0.5-3.4 1.8-4.3 1.7-2.2 0 3.9-12.1 20-10 17.5 2.3 17.2 21 17.2 21zm37.3 31.4s-8.4 7.4-14.6 1-3.1-10.9-3.1-10.9 2.3-2.1 3.5-5.1c3-7.6-1.4-11.7-6.4-13.7-2.2-0.9-3.8-0.4-4.5-1-1.8-1.2 9.9-7.9 22.2 2.6 13.4 11.6 2.9 27.1 2.9 27.1z"/>
  <path d="m183-47c1.8069 5.0496 10.198 5.0482 14.781 8.157 5.9241 3.9336 1.5208 12.622 7.5191 16.443 6.5429-3.9291-2.8653-10.566 1.0436-16.038 3.3212-6.4935-1.2414-13.083-1.3436-19.562-6.3314-0.83669-10.041-9.993-4.5299-13.969 4.0747-2.3709 8.5436 3.6787 13.786 1.5903 5.181 0.45936 11.814-8.4841 13.844 0.279 1.4939 5.3465-2.036 9.66-6.5641 11.358 1.7903 5.736 4.8977 12.48 0.32585 18.146-0.0817 5.7105 1.9628 12.73-0.93835 17.564 7.2841 0.98936 6.1876-7.1847 9.281-10.513 6.2879 0.40053 9.1698-5.8175 4.1877-10.087-2.7617-5.8057 7.5825-14.332 10.088-7.0062 3.3839 5.5588 10.5 9.0985 17.02 8.0391 4.6104 3.819-0.3737 11.731-5.4766 12.062-6.4916-2.7466-9.3279 4.7025-15.134 5.5562-3.6099 4.507-1.0866 13.43-9.7677 12.768-6.5765-1.8051-11.147 5.8736-5.0088 9.8884 2.4383 3.7121 6.898 5.7266 8.6176 10.033 2.6675 3.8708 6.8123 7.0849 9.1287 11.295 4.1499 4.1844 6.6279 9.3604 10.398 13.873 4.4935 7.7618 11.849 13.961 14.169 22.885 1.8424 5.5306-3.5493 9.9216-8.6767 9.8649-8.0147 0.72966-9.8986-10.735-15.532-15.12-11.21-13.997-22.668-27.831-34.698-41.12-4.9533-5.0455-12.877 0.22476-13.218 6.4137-2.2359 5.593-10.585 5.8128-10.18 13.232-2.9323 5.231-16.529 4.0024-11.52-3.4199 2.4366-6.3954-0.78325-13.925-4.2475-18.215 0.42527-6.7363 11.213-7.8073 13.77-1.9533 3.0881 4.1152 2.928-2.7334 0.89824-4.391 0.0598-5.2302 5.3946-6.4525 9.1875-4.9406 4.4013-3.8154-6.9966-6.8811-3.6291-12.463-0.189-7.0823-8.7889-6.7408-11.588-12.083-3.5053-8.4169-11.069 3.0718-16.251-3.1904-4.6164-2.7884-3.1051-9.4489 2.1609-9.7266 5.4146-3.822 6.7617-10.919 7.9018-16.425 4.7829-2.7844 11.343 2.831 10.799 8.0064-0.07419 0.94497-0.29737 1.8732-0.60117 2.769z"/>
  <path d="m283.3 112.3c-10.8-6.7-15.9-16.6-30.1-29.8-6-5.7-19.6-14.5-26.7-14.5s-25-5-20.1-21.3c0.2-0.9 0.5-0.2 0.9 0.2 3.2 6.4 8.1 12.2 25.2 9.2-4.9-5.3 0.6-13.5 0.6-13.5s0.3-0.3 0.6 0.1c-0.3 9.7 6.2 7.2 9.1 10.8s6.7 6.1 17.1 6.4c0-0.8 0.3-4.4-1.3-7.1-2.2-4-11.4-13.1-4-28 2.4-4.7 5.2-8.8 5.1-12-0.1-3-2.6-7.8-8.3-7.5-0.9-0.1-1.6-0.3-1-1.3 1.4-2.1 5.9-2.3 7.3-2.3 3.1-0.2 9 1.8 12 6.9 3.6 5.2 3.8 12.5 2.6 18.3-2.5 12.4 13.4 26.5 21 29.8 17.8 8 30.9 25.1 32.5 21.1-0.3-1.5-42.1 34.9-42.5 34.5z"/>
  <path d="m448.3 5.8-0.7-1.1-2.8-3.7a72 72 0 0 0-12-11.2 53.4 53.4 0 0 0-12.7-6.5l-0.8-0.2-2.1-0.6-6.2-1.3a68 68 0 0 0-6.5-0.7c-2.2-0.1-4.4-0.2-6.6-0.1-11.6 0.2-30.9 4.3-42.4 2.6-12.6-1.3-20.2-7.5-21.6-8.6 1.8-0.6 9-0.7 9.8-0.8 3.1-0.2 1.2-0.7-0.1-1.2-0.8-0.3-8.1-3.1-15.1-8.2-6.6-4.8-12.2-12.2-13.4-11.4-2.5 1.7 4.5 24.2 10.7 33.7 0.9 1.4 2.3 3.7 2.3 2.5 0-0.8 0.6-7.8 1-10.1l0.3 0.2c4.2 4.7 14.5 9.5 27 10.8 7.1 0.8 22.2 0.4 29.2-0.5 4.3-0.5 8.5-1.1 12.6-1.3 2-0.1 4-0.2 6-0.1 2 0 3.9 0.2 5.8 0.4a45.1 45.1 0 0 1 6.9 1.2l0.7 0.2 0.3 0.1 0.1 0.1 2.4 0.8a49.5 49.5 0 0 1 19.7 14.2c1.2 1.3 2 2.5 2.6 3.2l0.6 0.8 0.2 0.3 5-3.3z"/>
  <path d="m374 11.1c3.2 2.4 2.8 6.3 2.5 7.3-1.3 4.1-6 6.5-4 11.4a6.7 6.7 0 0 0 4.3 3.9c-1.1-2.6-1.1-5.4 1.4-8 1.8-1.9 5.6-2.1 6-6.1-0.1 0.5 0.3 3.1 0.7 4.2 1.6 5 4.6 3.9 4 7.7-0.5 3.2-6.1 5-3.8 5.9 3 1.1 7.1 1 10.3-2.2 3.7-3.6 4.2-7.4 3.3-9.6 1.2 2.9 7.5 5.8 12.5 0.8-1.6-0.4-7.9-2.5-7.9-7.9 0-7 9.7-10.4 14.1-10.9"/>
  <path d="m439.9 16.1c2.1-4.6 2.6-9.5 2.6-13.3 0-6 0.2-19.4-11.8-33.3-5.9-6.8-11.5-10.5-25.2-13.6a17.7 17.7 0 0 1-12.9-10.1 41.3 41.3 0 0 1-4.3-14.7c-0.6-6.3-0.4-8-0.2-10.2 0.4-5.6 2.1-11 2.1-11-4.7-0.7-13.5-1.1-15.9 6.3-6.9-0.9-27.6 7.4-31.6 26.7a30.8 30.8 0 0 0 5.5 24.3c1.9 1.9 3.2 1.8 2.9-0.9-0.5-4.6 3.5-10.1 10.4-12.8 15.5-5.9 27 7.2 31.5 10.5 11.6 9.3 16.7 1.8 29.3 8.5 11.8 6.4 15.4 23 14.4 24.7-4.5-2-12.2-3.6-17.4-3.5-9.6 0.2-17.3 6.5-24.9 8.6-6 2.5-21.4 3.6-25.5-4.8-0.9-2.1-1-1.1-1.4-0.2 0 0-0.4 3.3 1.6 8.3 2.1 4.8 8.2 8.1 14.4 8.4 18.1 0 21.8-6.6 38.6-6.6 10.5 0.1 15.5 5.5 17.8 8.7z"/>
  <path d="m432.7-80.2a42.2 42.2 0 0 1 28.3-19.2c11-1.5 22.4 1.7 33.2-0.8 8.6-2 15.6-8 23.2-12.6 7.5-4.7 18.7-5.7 25.7-0.3-1.2 2.2-6.2 1.5-10.1 3.4-9.8 4.8-12.6 17.1-18.5 26.3a61.3 61.3 0 0 1-24 20.2 57.5 57.5 0 0 1-22.9 7.3c-7.9 0.5-12.9-2.9-23.3-1.4"/>
  <path d="m200.6 413.3s-5.9-8.9-17.3-10.2a23.8 23.8 0 0 0-17.7 5.4c-4.1 3.5-3.2 4.6 0.6 4.2 4.6-0.3 7.2 0.4 9.7 2.2 4.7 3.4 2.2 7.3 2.2 7.3s6.6 14 15.5 7.5c8.9-6.7 7-16.4 7-16.4zm-41.1 44.4s-3.9 1.1-7.7 4.9c-6.8 6.9-8.6 15.1-5.6 26 1 4.1 4.1 4.3 4.2 0.5 0.4-2.2 1.8-4.9 4.2-6.8 5.5-3.8 11.5-1.3 11.5-1.3s13.9-5.6 10-15.9c-2.9-7.9-17.5-7.2-16.6-7.4zm55.1 44c8.7 6.9-3.4 16.7-3.4 16.7s-7.6 2.5-9.6 8c-1.1 2.9-0.9 6-0.1 8 1.9 3.3-0.9 4.7-3.9 1.7-10.1-9.7-11-18.1-6.3-30.2 2.1-5.5 6.4-6.2 6.4-6.2s8.2-4.8 16.9 2z"/>
  <path d="m253.7 492.8c-1.2 12.2-7.2 14.6-5.3 16.1 2.5 2 11.3-0.3 18.6-5 2.9-11.5-7.5-26-13.3-11.1z"/>
  <path d="m461.9 320.8s-3.9-62.3-29 6.5c-11.5-0.2-55.5-28.7-106-28.7-48.4 0-53.4 26.2-67.1 26.2-8.7-1.5-5.5-14.3-7.4-14.6s-6.8 3.1-8 10.1c-2.1 12 8.2 15.2 8.2 15.2s-3.9 8.9-12.1 10.2c-11.3 1.7-20.7-3.2-19.7-0.3 3.7 12 17.3 15.4 27.8 13 8-1.9 10.2-7.2 11-8.4-3 27.4 31.4 47.6 31.4 59.2 0 0-0.4 1.4-4.3 5.3-4.7 5.3-39.6 33.4-63.4 27.3-10.5-1.8-7-10.9-15.5-14.6-0.4-0.4 2.9-4.7 0.4-9.4-1.3-2.4-3.7-5-7.6-4.6 0 0-2.5 6.1-10 8.9-7.3 2.2-12.5 0-12.5 0s-4.6 3.4-1.9 10.1c2.5 6.2 9.9 7.2 10 6.9l-0.1-0.1 0.1 0.1c9 5.5 2.3 9.2 10.8 12.9-3.7 4.2-17.5 2.5-17.5 2.5 0-0.1-3.4-5.6-11.2-4.9-7.1 0.8-9.9 5.7-8.8 8 0 0 4.2-1.6 7.7 6.5 4.4 10.5-1 16.8-1 16.8 0.9 2.2 4 5.3 10 4.1 6-1.1 6.9-7.5 10-6.9 1.8 1.9 7.7 1.7 13.5-2.2 5.6-1.3 10.4 1.9 12.2 1-0.8 5.4-9.8 5.6-9.7 11.3-0.5 0-6.6-3-11.7 4-3.5 6.1-2.5 12.1 0.7 13.6 0 0 3.7-2.5 12 1 8.4 3.6 8 11.5 8 11.5 3.9 1.1 9.1-1.8 10.9-7.4 2.5-8-1.5-10.2-1.5-10.2s6.9-0.5 10.8-10.3c2.7-1 4.5-4.1 11-5.9l0.8-0.2c3.8-0.8 12.2-0.4 10.4 8.3 7.2-2.4 12.8 3.4 13.3 11.1 12.6-7 17.4-25.8 24.6-32.5 12.9-15.6 24.3-18.6 37.3-23.4s25.1-4.4 32.2-4.4c11.7 0.1 19.1-4.7 19.2-17a16 16 0 0 0-1.1-4.3c-2.8-7.2-10.2-11.2-16.5-14.9-3-1.7-6.1-3.4-8.8-5.7-1.2-1-3.1-3.1-3.9-4.4-0.7-1.2-1.2-2.3-2.3-3.3-0.3-0.3-2.9-1.6-2.9-1.7-0.1-0.4 0.2-0.8 0.5-1l1.2-0.4a51 51 0 0 1 29.7 2.1c13.1 5 20 16.6 39.8 17 30 0.7 33.4-49.6 33.4-49.6z"/>
  <path d="m360.3 652.4c-7.5 8.5-6.5 23.5-0.4 31.7 1.3 1.4 2.2 0.8 2.4-0.4 2.8-12.8 13.2-15.6 17.8-15.1 2-8.7-6.5-22.3-19.8-16.2zm126.2-48.5c-5.2-10.8-22.8-12.6-17.6 2.8 5.9 2 3.7 8.5 3.7 12.1 0 1.4 0.2 2.7 1.8 2.3 8.7-2.5 12.8-8.2 12.1-17.2zm-134.3-1.1c-21.7 6.5-16 31-14.8 30.8 3.1 0.8 8.9-14 17.7-7.8 14.5-3.8 5-24.9-2.9-23zm58.2 54.1s-2.4 3.4-2.7 10.3a19.3 19.3 0 0 0 7.5 16.1c1.3 0.7 3 2.3 2.6-1.4-0.5-5.8 1.3-13.1 8.6-14.6 1.3-13-13.1-16.2-16-10.4z"/>
  <path d="m403.5 297.1s-10-7.9-17.2-9c-3.1-0.4-4.6 0.4-5.4 1.8-2 3.1 1 5.4 2.5 6.8a112.5 112.5 0 0 1 23.4 31l8.3-6.6-3.8-16.6z"/>
  <path d="m556.4 170c-4.7 0-6.9-0.8-7.2-2.7-0.2-1.8 1.4-3.4 10-5.6h0.3c12-0.5 31.8-7.9 55.8-20.6 19.8-10.5 41.1-24 55.5-35.3 13.2-10.1 26.4-23.7 36-33.5l5.1-5.3c2.1-2.5 3.1-2.5 3.5-2.5 0.6 0 1.2 0.3 1.5 0.9 0.5 0.9 0.2 2.1-1.2 4.2-4.3 6.6-22.9 27-45 44-46.1 35.6-85.5 52.1-106.9 55.8-2.6 0.4-5.2 0.6-7.4 0.6z"/>
  <path d="m555.4 126.3c-1.9 0-2.3-1.3-2.4-1.7-0.8-3.6 9.4-11.6 15.1-14.5 16.7-8.4 73.3-38.5 102.9-74.9 7.3-8.4 30.3-39.8 41.6-64.6 1.5-3.1 2.4-3.5 3.2-3.5 0.5 0 1 0.3 1.4 0.7 0.5 0.7 0.6 1.6-0.2 4.2-3 10.8-18.1 39.7-41 67.4-13.5 16.3-42.1 43.1-101.5 78-15 8.9-18.1 8.9-19.1 8.9z"/>
  <path d="m543.7 91.7c-1 0-1.8-0.6-2.1-1.4-1.2-3.4 7.3-13.1 12.2-16.9l1.8-1.4c42.6-32.5 71.7-62.9 86.4-90.3a352 352 0 0 0 28.7-71.3c0.7-2.8 1.6-4 2.8-4 0.5 0 0.9 0.2 1.3 0.6 0.5 0.6 0.8 1.5 0.4 4.1-0.9 11.1-10.3 42.4-27.5 73.9-17.3 31.7-53.3 65.5-86.3 94.4-13.9 12.3-16.6 12.3-17.7 12.3z"/>
  <path d="m171.8 228.8s2.3-10.9-6.4-13.2c-8.7-2.2-11 2.7-11 2.7s-0.7 3-2.7 5.5c-5.1 6.4-10.9 4.6-15 1.2-1.9-1.5-2.2-3.1-3.1-3.4-1.9-1-2 12.5 13.3 18 16.6 6.1 24.9-10.8 24.9-10.8zm-66.5-51.5s11.2 0.1 11.5 9c0.3 9-5 10.2-5 10.2s-3.1 0-6 1.5c-7.4 3.6-6.8 9.6-4.4 14.4 1 2.2 2.6 2.9 2.7 3.7 0.6 2.1-12.6-0.7-14.8-16.8-2.2-17.6 16-22 16-22zm18.3-50.1s6.6 9-0.4 14.6-11.2 2-11.2 2-1.9-2.5-4.8-3.9c-7.3-3.7-11.8 0.3-14.2 5-1.1 2.1-0.8 3.8-1.4 4.4-1.3 1.7-7-10.6 4.7-21.9 12.9-12.2 27.3-0.2 27.3-0.2zm47.8-9.4s0.5 11.2-8.4 12-10.4-4.5-10.4-4.5-0.2-3.1-1.8-5.9c-4.1-7.1-10-6.3-14.7-3.6-2.1 1.2-2.7 2.7-3.6 2.9-2 0.7 0-12.7 16-15.7 17.5-3.1 22.9 14.8 22.9 14.8z"/>
  <path d="m107 172c-4 1.8-3 5.5-3 5.5s4.8 2.6 6.7 9.2c1.4 4.9 1.4 7.6-0.5 10.3 2 2.5 3.1 3.9 5.5 3.8 2.7-0.1 6.3-1.9 7-3 1.4-1.9 1.3-5.1 1.8-6.4 1.1-3 7-0.8 10.7-2 2.3-0.6 5.2-2.5 6.2-2.6 1.1-0.1 4.6 0.2 6.6 2.1 2.1 1.9 2.4 3.3 8.5 1.6 4.1 0.1 2.6 2.7 2.1 3.6s-4.8 0.5-3.2 6.5c1.5 6.1 7.4 1.1 6.8 6.3-1.4 0.2-4.5-0.6-6.6 0.4-1.3 0.5-3.8 3.6-4.5 6.2-0.6 2.4 0.5 3.7 2.6 6.2 3-1.2 5.7-0.7 10.1 1.7 6.1 3.3 7.6 8.5 7.6 8.5s3.3 1.8 6-1.8c3.7-5.8 3.5-8.1-0.7-12.2-2.1-4.7 2.7-7.3-0.9-12.1-3.6-4.9-3.1-6.5-2.5-9.5 1.1-5.3 8.1-5.1 8.1-5.1s48.4-2.1 70.4-0.3c3.3-3.2 12.7-16.1-8.6-18.5l-16-0.7s-4.5-1.1-9.9-0.3c-2.2-1.3-8-1-11.1-0.2a17 17 0 0 0-10.7 0.2 18.5 18.5 0 0 0-11.4-0.1h-5.8c-5.6 0.8-5.8-4.8-5.7-5.3s8.8-10.4 3.6-13.7c-2.4-1.5-5.9-6-3.5-9.3 2.4-3.2-1.3-7.2 1.5-9.9 5.4-3.9 4.7-7.2 2.6-11.9-2-3.9-5.6-2.7-5.6-2.7s-2.3 4.9-8.9 7.2c-4.8 1.7-7.5 1.8-10.3 0.1-2.4 2.2-3.7 3.3-3.5 5.7 0.2 2.7 2.2 6.2 3.4 6.9 1.9 1.3 4 0.8 5.4 1.1 1.4 0.2 5.2 2.3 2.6 6.3-3.9 6.1 1.2 6.8 2.3 9 1.9 4.6-1.7 9.3-2 7.6s-1.8-4.5-4.6-6.7c-2.3-1.9-6-1.2-8.1-5.6-0.5-1.2-1.8-4.7-4.4-6.4-5.2-2.9-5.8-2.3-7.1-2.6s-2.6-1-2.7-2.2c2.2-5.4 1.3-7.4-4.4-11.4-3.9-2.1-6.2 0.9-6.2 0.9s0.8 5.4-3.4 10.9c-3.1 4.1-5.2 5.6-8.5 5.7-0.8 3.1-1.3 4.8 0.2 6.7 1.7 2.1 5.3 3.9 6.6 3.8 2.3 0 4.9-2 6.2-2.4s3.8 3.6 7.9 4.2c7.7 2.4 7.4 8.5 11.8 10.9s5.4 1.3 6.7 2.3c2.1 1.7 1.5 4.7 1.5 4.7s-3.6 1.2-7.2-1c-9-8-15.5-0.7-18.3 1.4-4.9 3.8-8.6-0.1-7.5 1.6-2.6-4.9-6.9-5-11.7-3.2z"/>
  <path d="m735.2 155c-4.1 0.2-0.2 21.9-24.5 21.9-29.1 0-37 31.9-42.2 31.9 0.3 0-3.2-12.6-17.2-12.6-12.5 0-15.2 7.2-15.2 7.2s14.3-2.9 14.3 11.3c0 16.5-27.7 14.7-29.4 14.7-5.9 0-41.6-0.5-64.8 19a59.1 59.1 0 0 0-20.3 47.6c0 49.7 72.5 61.2 72.5 97.8 0 26.3-24.9 37.7-39.1 39.1 3.2-2.5 5.1-5 5.1-11.3-0.5-10.2-3.7-4.9-5.4-3.7-3.7 4-8.7 9.2-20.8 9.2-13.1 0-31-6.3-43.8-45.7-4.3-13.2-7.1-32.4-10.3-44.7-9.5-43.2-36.9-74.1-42.3-93.5l9.6 0.2c47.8-0.4 81.7-15.7 86.3-30.5 34.7 3.6 76.3-24.3 78.4-30.7 16.4 8.2 71.5-24.3 73.4-46.2 9.2-4.6 26.7-32.4 20.9-48.2 0.9-6.5-3.2-9.9-5.5-10-4.4-0.1-11.2 9.8-22.6 21.4-9.9 9.4-31 28.6-60.8 43.6a153 153 0 0 1-53.1 17.4 25 25 0 0 1-9.3 0.6c10.1-1.3 22.1-5.2 38.7-18.7 4.4-3.6 8.6-8.3 10.2-13.9 23.4 9.5 68.2-39.1 65.7-47 10.4 2.5 39-27.2 39.6-52.1 11.5-15.1 14.9-47.3 6.5-51.1-0.4-3.9-4.5-5.4-6-5.3-3.8 0.4-5.9 11.5-15.7 27.3-42.1 64.3-102.5 99.6-135.7 110.3a30 30 0 0 0 5-3.9c5.8-1.2 49.4-20 50-39.4 16.6 3.6 49-35.6 47.3-53.3 9.1 2.6 35.7-44 28.8-55.8 10.2-4 11.2-50.9 1.1-54.3-2-15.1-16.9-19-19.8-15.5-3.5 3.9 0 20.9-10.1 48.5-5 13.6-20.4 43.2-34.4 61.7-13.9 17.4-21.7 30.9-38.8 44.4-29.1 23-29.4 23.2-43.7 29 5.4-3.6 10.8-9.9 10.3-12.9 6.8 2 47-32.5 43.9-47.1 11 1.4 35-49.2 29.8-58.9 8.4-17.1 5.4-43.3-3.5-45.4-11.7-11.1-11.8 4.3-17.7 19.8-2.3 6.6-8.2 21.5-16.2 33s-37.5 50.9-72.1 80.1c-28.2 23.8-67.3 46.1-65.9 44.1 5.5-6.6 11.6-15 15.3-25.2 2.7-7.3 3.6-16.4 5.3-22.6 0.9 1 0.4 0.5 2 1.8 2.7 2.4 6.5 5.6 13 5.6 14.8 0 18.1-13.1 18.1-13.1s0.2-2-1.2-1.1a21.6 21.6 0 0 1-11.5 2.8c-9.6 0-10.2-10-10.2-11.8 0-5.2 2.8-7.8 2.8-14.1 0-5.9-3-9.2-3-11.7l0.1-1.6s4.8 2.2 8 2.2c5.2 0 12.6-2.9 14.4-10.5 0.4-1.4-0.9-1-1.5-0.9-5.7 1.8-11.2 1.7-14-2.3-3.5-4.7-1.4-15.9-2-19.3 0-14.5-9-26.2-16.4-34.5-7.4-8.4-3.1-15.8-21.2-23.6-6.2-2.7-16.4-5.3-23.1-6.5-6.4-1.2-15.9-1.4-22.4-1.4-15.3 0-23.6 3.1-27.6 11.4-1.4 2.5-3 7.1-3.1 12.8-0.1 2.2-0.3 4 0.2 10.3 0.6 6.3 2.5 10.9 4.3 14.8s5.6 8.6 13 10.1c13.7 3.1 19.9 7.2 25.5 14.3 11 14.2 11 26.4 11 32.4 0 4.5-0.4 10.1-2.6 13.3-1.8 2.5-4.5 2.5-9 6.2-3.7 3.1-5.1 9.1-14.1 3.9-1.1 1.5-0.4 4.1 1 5.9 2.6 3.3 6.8 3.4 6.8 3.4-5 2.8-10.2-0.8-19.3 2-4.2 1.3-7.7 4.4-12 5.4-4 1-8.6 1-12.3-0.7-12.2-5.1-23.1-1-28.8-9.3-2-2.9-2.3-8-0.9-11.3-3.8-0.3-6.6 3.9-7.7 6.6-1.7 4.2-0.5 9.8 2 13.4l-1.2 0.1c-11 0-15.2 7.7-25.8 9.2-4.7 0.7-17.9 1.4-19.2-8-1.4-9.9 5.2-12.7 6.9-14.2 0.5-1.5-3.8-2.1-8.7 0.1-5.3 2.4-10.5 9.8-9.2 19.5 1.7 12.1 11.3 16.7 19.7 17 6.8 0.3 7.8-0.2 10.8-0.6 0 0-13.2 3.4-18.9 12-1.5 2.3-5 7.6-10.2 7.6-6.2 0-9.5-7.4-9.5-7.4-1.6 1.3-1.3 6.2-0.7 8.3 2 9.2 9.4 9.2 9.4 9.2s-6.1 3.9-9.2 10.3c-6 11.9-1.4 17.1-5.5 25.2-1.7 2.8-4 5.8-9.6 5.8-6.6 0-8.2-4.3-9.1-2.9-1 1.8-0.7 3.9-0.2 5.3 2 5.1 7 8.5 13 8.5 10.6 0 16.2-9.9 16.2-9.9 0 3.6-1.9 6.8 0.4 13.9-2.5 0.1-8.4-0.4-16.2 2.4-7.8 2.9-28.3 8.4-36.4-1.3a24.6 24.6 0 0 0-15.9-9.4 14.1 14.1 0 0 0-12.9 5.1c-0.8 1.1-3.5 4.7-2.7 7.2 0.4 1.1 0.9 0.7 1.7 0.1a7.9 7.9 0 0 1 11-1.8c2.5 1.8 4 6.7 6.1 11.5 7 15.2 19.8 13.7 24.3 14.5 3.2 0.5 5.7 3 6.4 3.5-6.7 8-11.1 9.3-15.7 9.4-4.6 0-6.8 6.7-14.1 0.4-0.5 0-0.4 0.4-0.4 0.4s2.9 9.4 10.1 9c-8.4 15.1-16 15.3-23 13.8-0.6 0.1-1.3-0.1-0.7 0.6 9.6 14 24.7 3.2 29.2-2.3s19.8-10.6 28-11.7c19.1-2.8 40.1-2.3 41.3-3a64.1 64.1 0 0 0 21 37.4c12.9 12.3 33.4 19.5 50.7 30.2 25.8 15.7 32 34.5 32 45 0 18.6-22.8 33.5-22.8 78.4a132 132 0 0 0 7.1 42.1 92 92 0 0 0 21.5 34.6c10.6 10.4 20.3 18.9 20.3 53.8 0 47.2-9.4 62.9-15.5 70.9-5.3 7.5-10.7 9.2-16.2 9.4-12.1-0.5-17.3-8.4-37.2-2.5-3.6-2.6-13.9 0-13.7 4.7 5.1 1.4 9.7 14.8 2.9 23 0 0 1.7 2.5 5.3 2.5 7.2 0 5.8-4.4 12.1-4.7 8.3 0.4 8.1 4.3 12.3 3.8a39 39 0 0 0-6.9 7.7c-3.4 4.2-6.7 6.7-9 6.8-4.5 0.2-8.4 3.5-9.2 5-2 3.6 0.7 5.8 0.7 5.8 4.4-0.5 20 1.5 16.6 16.5l2.7 1.7c4.3 3.1 10.6-3.9 10.4-7.2-0.2-4.9 6.3-8.8 7-9.6 10.8-8.6 10.5-2.9 16.4-8.1l-0.6 2.7a6.4 6.4 0 0 0-3.3 4.2c-0.6 2.4 0 3.6 0.9 4.3 6.8-1.5 17.3-0.1 15.9 10.4 1.1-0.3 3.4-0.6 4.8-0.7 14.6-0.1 21.3-13.9 21.3-13.9 5.4-7.3 3.9-19.3 3.8-29.3 0-7.7 0.6-14.8 5.4-16.2 3-0.7 7.3-0.4 9.6 1 3.2-8.2 9.2-8.9 15.4-4.2 0.2-1.6-0.2-3.1-0.6-4.5-1.5-4.8-7-12-7-28 0.1-41.1 22.2-63.4 25.4-68.3 4.5-5.8 18.3-25.3-8.7-30.9-19-3.6-21.3-9.1-21.6-21.3 0-9.2 10.4-26.6 11.1-45.6 1.1 1.8 21 52.2 78.8 52.2 49 0 72.4-35.5 72.4-62.7 0-23.9-16.3-36.4-33.3-50.7-3.2-3-4.1-6.4-4.1-9 0-12.7 25.2-2.9 24.9-18-0.4-4.5-1.2-3.2-3-2.1-0.4 0.3-2.2 2-4.9 2-10.8 0-14.4-6-21.8-6-4.5 0-14.9-1.1-22.8 9.8a37 37 0 0 1-11.9-27.3c0-28.7 27.5-40.7 66.2-40.7 18.5 0 42.4 2.6 59.4-7.2 25.5-15.5 16.9-37.7 27.9-48.7 4.2-3.7 13.6-8.7 17.2-12.3s9.7-11.1 9.7-17.8-3-11.8-4.6-12.3z"/>
  <path d="m467.9-88.8c4.2-1.7 8.8-2.8 13.7-2.8 11.1 0 21.9 4.7 33 3.7 8.8-0.8 16.6-5.7 24.7-9.3s19.3-3.1 25.5 3.2c-1.4 2-6.3 0.6-10.5 1.9-10.4 3.4-14.9 15.2-21.9 23.5a60.9 60.9 0 0 1-26.6 16.8 58.7 58.7 0 0 1-23.7 4.1"/>
  <path fill="#f6f6f6" d="m411.4-61.7c-15.9 1.7-16.4-14.8-16.1-16.3 1.8 0.2 14.8-4 19.3-2 2.6 1.9 6.7 16.8-3.2 18.3z"/>

  <g fill="none" stroke="#000">
    <path d="m337.3 132.8c14.2-13.2 34.7-20.4 57.2-26.2 6.2-1.5 33.2-7 48.8-12.3 5.8-2 19.9-8.1 23.4-9.9"/>
    <path d="m329.9 202.5c18.1 19 54.1 14.6 57.6 14.6 31.8 0.3 45.2 24.1 64.2 26.4"/>
    <path d="m434.3 97.2c11.9-0.4 32.8-7.9 39.4-10.7 27-11.7 37-26.2 42.2-26.3 12.9 0.5 5 24.1 3.1 25.6 1.4 4.9-4.8 21-13.4 26.6 1.6-0.7 8.5-3.5 10.6-4.8a158.6 158.6 0 0 0 28-17.4c3.3-2.9 7.7-6.4 9-6.5h0.1c0.6-0.1 1.6 0.3 2.8 1.4 3.2 3.2 5 11-0.2 22.3 1.2 3.5-2 18.7-16.1 28.7a43.5 43.5 0 0 1-7.1 4.4c24.6-5.4 32.4-18.3 36.9-17.5h0.1c0.6 0.1 1.5 0.6 2.4 1.9 3.3 6.1 0.9 15-4.2 22.2 1.2 5.8-2.1 11.7-10.8 19.9-7.2 7.1-23 12.5-23 12.5s11.2-1.3 21.7-6.1c24.2-9.4 30.1-21.2 29.7-2.9 1 2.2 0.2 8.6-1.8 11.4 0.4 6-20.7 26.5-33.2 24.8-0.7 3.2-17.5 22.3-48.4 22.3-3.9 0-11.5-1.3-15.2-3.9-2.6 5.3-29.2 13.1-52.5 10.4"/>
    <path d="m557.9 71.8c-21.3 19.7-41.1 24.8-41.1 24.8m-11.3 15.7c-6.3 1.9-14.5 5.5-14.5 5.5m63-0.3c10.2-1 17.5-6.3 18.5-7"/>
    <path d="m532.7 140.4c-5.4 3.1-13 6.6-16.1 5.2-0.8 4.6-6 7.6-6 7.6"/>
    <path d="m522.4 181.9a49.6 49.6 0 0 0 11.4-2.5m35.2-18.4c-3.1 0.7-7.6 1.3-7.6 1.3"/>
  </g>
  <g stroke="none" fill="#000">
    <path d="m258.5 58.9c-2.205-2.2842 5.5386-3.6542-0.2875-2.0125-0.0466 2.6105-1.8956-2.6427-2.9214-3.3137-11.715-16.139-24.595-31.406-37.291-46.774 12.436 12.823 24.539 27.672 36.373 41.683 2.2754 2.9042 5.0091 5.8561 6.5017 9.1798-4.1654 4.2282-2.7959-2.8566 0.025-0.0625-0.8 0.43333-1.6 0.86667-2.4 1.3zm-37.4-52.2c4.4881-0.020978 5.6068-9.0844 8.7594-5.4985-1.0968 3.6455-5.1947 5.3552-8.6594 5.8985l-0.0925-0.36985zm7.2 9c4.6489 0.0589 5.5708-9.1151 8.6619-5.6328-0.84774 3.8084-5.022 5.5983-8.5619 6.0328l-0.0925-0.36985zm7.4 8c2.4435-1.2257 5.3336-3.2032 5.1-6.3 2.2172-0.27251 3.8285 0.34815 2.1325 2.4751-1.4779 2.562-4.5269 3.5694-7.2325 4.2249v-0.38124zm6.7 8.7c4.0249-0.46398 5.3606-9.2695 8.0969-5.3531-1.0776 3.4585-4.751 4.9916-7.9969 5.6531zm18.5 36.1c-2.9844-2.5292-2.6111-11.988 0.33825-7.3678-0.40246 2.3968-0.78849 4.8919-0.0383 7.2678zm-17.8-7c-1.6754-4.1168-6.6786-4.9601-10.5-3.7-2.1773-5.5394 6.6801-2.4621 8.6375-0.05469 0.95442 0.97267 1.7656 2.5926 1.8625 3.7547zm-36.7-85c1.8992 2.9519 0.45922 6.9987 2.9 9.7-2.1796-0.39966-3.151-3.7235-4.0217-5.7643-0.25272-1.3316-2.413-2.2148-0.16415-2.9585l1.2859-0.97728zm15.3 0.8c-1.8207 1.4501-3.1636 8.1676-3.1665 2.4365 8.4e-4 -3.3275 0.16233-5.2407 3.1665-2.4365zm30.1-7.1c-2.811-0.92571-5.4006-2.514-7.5-4.6 2.3176 0.54605 5.1646 1.9479 7.9 1.8-0.13333 0.93333-0.26667 1.8667-0.4 2.8zm-29.2 18.4c-0.1457 1.9919 0.78967 4.0186 2.4 5.2-1.7271 2.0463-3.1892 1.833-3.2927-0.92793-0.18917-1.2745-0.3277-3.8422 0.89268-4.2721zm0.1-46.9c-2.8407 1.3806-12.782 0.40539-5.4712-0.6883 1.9616-0.09089 4.4448-3.5749 4.9981-0.29422 0.15769 0.32751 0.31538 0.65502 0.47307 0.98252zm-35.3 73.9c2.753 2.8569 1.3858 11.897-0.94702 6.9415 0.89848-2.1601 0.73385-5.0124 0.94702-6.9415zm24.8-9.1c-3.1997-1.2366-7.4016 2.5909-9.5308 1.813-3.8586-4.3985 8.7687-2.9217 9.5308-1.813zm70.3 77.4c-6.531-7.0649-11.87-17.721-7.4922-27.22 2.5509-3.4019 8.2356-2.4533 11.966-1.2783 6.3335 2.3701 11.454 7.3223 15.126 12.898-2.8042-2.0036-5.6495-5.6918-9.0119-7.7432-4.5936-3.4359-10.807-5.4968-16.388-3.2568 0.77741-0.43089-1.4612 3.2002-1.2562 4.6179-1.0319 8.0081 2.9682 15.416 7.0562 21.982z"/>
    <path d="m270.6 81.2c-4.2506-0.08114-9.3512-1.5471-11.4-5.6 3.644 1.1769 7.9111 3.5553 11.4 5.6zm-95.2-67.6c-6.6964 3.3816-17.17 3.3366-20.745-4.4672-1.321-3.8073-1.1504-6.69-0.19981-1.6344 2.0833 6.437 10.038 7.9897 15.841 6.0553 2.0758-0.18283 4.0823-3.0873 5.1039 0.0462zm-9.2-55.2c-3.9806-5.6679-12.417-10.134-18.723-5.2094-2.5238 2.5833-4.7902 5.6211-1.6391 0.82188 5.6768-6.8815 16.085-3.4218 21.102 2.4963 1.5543 1.0675 0.0891 1.1732-0.73949 1.8912zm41.5-28.5c2.5106-6.9384 0.24101-17.524-8.4375-18.438-4.6205 0.30635-3.406-0.53201-0.3792-0.47983 7.1983 0.05465 12.013 7.4804 11.507 14.219-0.41803 2.0722 0.82607 7.1747-2.6906 4.6984zm38.2 22.2c7.5988-5.0094 9.4403-18.117 0.3-22.1 7.6087 2.2929 9.4362 12.122 5.3124 18.249-1.1562 1.7112-2.7633 4.965-4.5003 5.122-0.37069-0.42366-0.74139-0.84731-1.1121-1.271zm-66.7 8.2c0.97624-2.7849 3.78-10.969 4.7801-5.7191-1.0304 2.2725-2.5728 4.3103-4.4801 5.9191z"/>
    <path d="m287.2 70c-1.1763-1.0466-2.3762-2.0709-3.2881-3.3677-1.2971-1.5627-2.3067-3.3343-3.4119-5.0323 1.5514-0.61386 3.328 1.7317 4.3748 2.9047 1.2235 1.6067 2.1261 3.4644 2.3252 5.4953zm-19.2 21.1c-5.7857-2.2911-11.254-6.4045-13.746-12.26-0.7866-1.9861-1.1734-4.2218-0.79851-6.323 2.9775-3.2869 7.8225-4.6012 12.12-3.6576 3.8505 0.62414 7.3672 2.438 10.725 4.3403-1.5686 0.20016-4.1712-1.577-6.1909-1.7632-4.0674-1.0777-8.7275-1.6787-12.558 0.48984-0.67182 0.10458-2.4939 2.2175-2.1735 1.5178 0.21713-0.05367-0.0705 2.3652 0.30873 3.1745 1.5478 6.4515 7.0934 10.918 12.313 14.481z"/>
    <path d="m346.9 40.8c7.6713 8.6875 16.571 10.655 0.55 4.8125-6.58-2.098-2.1787-3.3519-0.55-4.8125zm-28.3 22.5c8.9319-1.8398 16.599-9.5313 25.4-9.1-9.177 1.4409-15.747 9.0435-24.5 11.9-0.3-0.93333-0.6-1.8667-0.9-2.8zm-12.7 26.9c-4.8867 3.6429-10.907 5.7323-17 5.9-1.1222-6.3427 12.748-1.0526 17-5.9zm91.6-63.6c-3.64-10.426 4.5164-4.5985 0 0zm-14.8-7c1.8927-6.3106 5.2582-2.4096 1.792 0.11561l-1.308-0.08439zm-202.4 438.1c6.3973 2.6329 6.9541 12.003 2.1 16.3 1.3542-5.4475 1.1673-11.505-2.1-16.3zm36 40.2c-1.975-6.9188-14.342-5.4973-13.4-11.1 5.6456 1.7413 11.225 5.4667 13.4 11.1zm-66-14.9c2.9086-6.6772 10.715-9.3284 17.5-9.4-1.8868 4.2295-12.298 0.90712-15.7 6.8-0.75755 0.75498-1.2152 1.7226-1.8 2.6zm47.7 48.5c-2.8232-8.4976 4.0088-16.477 11.1-20.2 1.6558 3.3961-5.4271 3.8638-6.9626 7.0544-3.4618 3.343-5.4893 8.2944-4.1374 13.146zm-28.2-121.4c6.7463 0.17093 15.098 4.3495 14.8 12.1-3.5506-0.12816-1.7739-7.3577-6.2305-8.7431-2.5618-1.734-5.5115-2.8894-8.5695-3.3569zm89.2 82.9c-2.5712 10.485-9.436 16.823-2.2 1.8-0.069-2.0812 4.9e-4 -2.455 2.2-1.8zm89.6-84.1c-8.2865 4.8659-10.774 16.914-7.8 24.6-8.1267-7.3392-3.0712-23.254 7.8-24.6zm-90.7-58.8c3.0682-6.401 11.702-12.688 4.8108-4.6177-3.3487 2.3752 0.39857 7.4437-4.8108 4.6177zm-5-16c9.2208 0.54782 7.172 2.0929-0.9 2.8 0.3-0.93333 0.6-1.8667 0.9-2.8zm-56.5 116.5c5.7835-1.154 12.184-0.80011 17.2 2.6-5.2142-2.2462-11.368-1.9318-16.5 0.4-0.23333-1-0.46667-2-0.7-3zm14.7 25.2c3.5736-2.3244 6.2328-5.808 8.1-9.6-0.87231 4.5255-3.0222 8.9291-6.4 12.1-0.56667-0.83333-1.1333-1.6667-1.7-2.5zm-2.2-47.6c-3.6826 3.9624-8.7738 6.9522-14.3 7 5.0596-0.9702 9.1059-4.6833 11.8-8.9 0.83333 0.63333 1.6667 1.2667 2.5 1.9zm215.6-394.3c10.143-2.6565 15.562-6.9389 5.148 1.297-2.6462 0.67226-6.126 3.7957-5.148-1.297zm62.4-53.7c2.1703 5.2119 6.4417 9.3504 11.3 12.1-2.0908 5.6051-6.6584-2.9824-8.8354-5.3973-0.65305-1.4788-4.348-6.5183-2.4646-6.7027zm-4.4 47.5c1.1955 3.0607 3.1289 5.9319 5.8 7.9-2.932 6.3965-6.1412-6.5956-5.8-7.9zm-9.6 10.4c1.1526 10.997-2.4748 26.571-14.3 29.6-12.056-3.7624-15.484-19.532-13.1-29.6 0.83532 9.8363 3.4282 23.254 14.1 26.8 4.1594-1.9867 10.774-11.333 11.945-19.074 0.65942-2.4253 0.98109-5.7404 1.3554-7.7259z"/>
    <path d="m459.1 41.2c1.6827 4.3767 1.5061 9.1648 1.1201 13.758-5e-3 1.2583-1.1466 5.936-1.8776 2.4587-1.1404-5.0366-1.0684-10.411 0.35034-15.382 0.16232-0.18124 0.12148-0.83486 0.40718-0.83452zm-16.5 15.3c-4.162 8.6588-10.624 16.666-19.51 20.746-3.937 1.7776-8.4273 2.5034-12.69 1.6542-3.1067-3.3762-4.6586-8.0947-3.9775-12.655 0.74262-7.6727 4.5932-15.221 10.871-19.804 0.84643-0.95133 3.1155-1.2613 1.0879 0.10457-4.7499 4.1241-7.4884 10.143-8.9014 16.17-0.99618 4.6778-0.62485 10.152 2.8203 13.784-2.13-0.97744 1.4433-0.01964 2.2443-0.26797 6.717-0.21626 12.736-3.9878 17.653-8.298 2.5468-2.3851 4.9651-4.9072 7.3023-7.4965 1.0832-1.2723 2.1055-2.5951 3.1-3.9375z"/>
    <path d="m426.4 51.5c-2.6212 3.4875-4.0409 7.6804-6.2574 11.414-1.2582 2.3327-2.5363 4.6711-4.1426 6.7864-0.9209-1.5916 0.41068-4.2589 0.88722-6.1254 1.59-4.1751 3.6177-8.6672 7.484-11.203 0.63708-0.37235 1.3202-0.66585 2.0288-0.87168zm-25.6 17.3c-7.2928 6.0789-16.38 10.724-26.033 10.941-4.3741 0.040055-8.8793-1.0749-12.467-3.6406-2.0398-4.6664-0.65813-10.285 2.8294-13.882 3.9692-4.4159 9.7652-6.5824 15.262-8.4138 2.039-0.24996 5.3856-2.1015 6.809-1.0045-6.9999 2.4808-14.333 5.243-19.583 10.712-2.562 2.6698-4.2219 6.4916-3.1357 10.197 0.4511 1.1744 0.26278 0.9694-0.28125 0.19062 6.5843 4.3954 15.14 3.5089 22.343 1.309 4.9904-1.5468 9.675-3.9326 14.257-6.409z"/>
    <path d="m389.3 60.3c-5.9629 3.5068-11.785 7.3779-18.3 9.8 9e-3 -1.9564 3.2977-3.6273 4.7976-5.1085 3.8963-2.7485 8.5173-5.0176 13.402-4.7915zm-31.2 19c-5.028 7.4602-12.052 13.971-20.613 17.06-4.6185 1.6015-9.8617 2.0641-14.487 0.2395-3.2741-4.185-2.9161-10.127-0.35752-14.555 3.6373-6.2683 9.6023-10.985 16.048-14.14 3.2249-1.1865-1.2628 1.9893-2.1559 2.5579-5.2074 4.2748-10.572 9.1974-12.606 15.834-0.80196 2.8088-0.46931 6.0067 1.2717 8.4031-2.0643-1.4288 3.8336 0.8998 4.867 0.24277 9.2149-0.32354 17.234-5.7956 23.856-11.797 1.406-1.267 2.7843-2.5643 4.1772-3.8457z"/>
    <path d="m344.3 74.4c-5.0315 4.4943-9.7707 9.2937-14.6 14-0.68868-1.6049 1.306-4.1566 2.1931-5.8353 2.9173-4.0681 7.275-7.7136 12.407-8.1647zm141.7-78.4c0.79499 11.679-1.7363 25.159-11.498 32.708-2.2403 1.3763-4.9115 3.8237-7.5216 1.8942-9.5852-3.9525-13.728-14.744-14.48-24.402-0.23534-2.1583-0.6229-11.784 0.61738-8.9295 1.1127 10.853 3.1965 23.862 13.45 29.914 3.8728 4.3628 10.009-4.0193 13.157-8.7102 3.8367-6.8287 5.4746-14.908 6.2752-22.475z"/>
    <path d="m469.5-0.3c1.3202 4.9566 1.5647 10.107 1.2263 15.202-0.23461 1.9292-0.23974 4.6324-1.3142 5.9976-1.007-1.3996-0.93772-3.8077-1.2484-5.6364-0.50848-5.2036 0.00404-10.492 1.2363-15.564zm7.2-40.4c1.5934 7.4319 1.7358 15.445-0.8875 22.662-1.7692 4.6078-4.9505 8.8629-9.4125 11.138-6.0791-0.83087-11.373-4.8693-14.334-10.168-3.2255-5.9795-4.8595-12.766-5.166-19.532 1.6481 1.4333 1.5378 5.6997 2.8148 8.0727 2.2772 6.8832 5.9448 14.106 12.81 17.352 0.74853 0.66443 4.1216 1.0154 3.5516 1.2597-1.5223 0.37738 1.7791-1.0971 1.9546-1.6214 6.1622-5.2541 8.0092-13.706 8.6187-21.422 0.18187-2.5099 0.17694-5.5628 0.0501-7.7415z"/>
    <path d="m462.3-35.4c1.9932 2.066 2.9769 4.8962 3.4323 7.6791 0.5914 3.672 0.71562 7.5909-0.63226 11.121-0.79509 0.21812-0.6426-0.84714-0.87664-1.3478-0.6353-2.6282-0.85058-5.3305-1.2277-8.0024-0.23276-2.6031-0.46383-5.2064-0.59567-7.8169-0.0333-0.5443-0.0666-1.0886-0.1-1.6329z"/>
    <path d="m284.9 149.2c4.0591-0.13714 8.1096-0.38602 12.14-0.8982 4.691-0.50734 9.3485-1.3076 13.96-2.3018-1.2084 1.2345-4.3309 1.444-6.2625 2.2-6.02 1.557-12.086 2.9972-18.258 3.8061-1.1853 0.49702-1.5124-0.11089-1.4245-1.2532-0.0518-0.51763-0.10353-1.0353-0.15529-1.5529zm4.1-24c-0.67786 4.1882-1.7508 8.3124-3.2 12.3-0.86667-0.5-1.7333-1-2.6-1.5 2.4118-3.3145 4.3689-6.9589 5.8-10.8zm40.1-6.6c-4.732 7.683-11.549 14.437-20.005 17.856-4.5008 1.8482-9.5908 2.1815-14.295 0.94365-3.3573-4.135-3.3386-9.9682-1.6348-14.788 2.0711-6.4249 6.1546-11.99 10.973-16.637 1.3049-1.3262 2.7571-2.5268 4.3613-3.4749 0.33164 1.2366-2.2531 2.2869-2.8937 3.575-4.4299 5.294-8.2319 11.349-10.047 18.061-0.95029 3.6768-1.1077 7.9603 1.2409 11.164-2.052-1.3216 2.3099 0.36635 3.145 7e-3 7.9459 0.35874 15.196-3.9211 21.113-8.8251 2.8799-2.4094 5.4272-5.1949 8.0424-7.8822z"/>
    <path d="m313.5 111.8c-3.9718 5.9404-11.1 14.008-12.41 15.605 1.7913-6.1993 5.5818-13.908 12.41-15.605zm22 21.2c-0.93846-8.7268 1.4758-18.576 5.8-25.6-2.6252 8.0619-4.6302 16.739-2.8 25.2-1 0.13333-2 0.26667-3 0.4zm19.5-16.5c0.84162 10.16-7.6294 5.6378 0 0zm88-27.7c0.96239 11.443-6.7498 6.0134 0 0zm-35.2 14.9c-1.9622-5.9302 4.3799-31.504 2.1744-14.86-1.2316 4.6391 1.6823 11.994-0.71078 14.608l-1.4364 0.24766zm18.2-15c-3.0248 3.0196 1.6471 14.577-4.2 10.6 0.90033-3.4137 1.4996-9.0846 4.2-10.6zm-28.8 7.3c-1.4227 2.9947 1.3331 10.401-1.7169 10.458-5.6476 0.03552 4.3288-8.638 1.7169-10.458zm-32.4 19.9c-1.9668-7.1531-2.5511-15.667-0.7-22.5-2.7285 6.9164 6.8041 20.073 0.7 22.5zm15.6-17.4c1.2954 5.0876-1.4578 19.214-2.1776 8.2448 0.4863-2.672 0.76103-6.3724 2.1776-8.2448zm-58.1 101.8c-14.306 1.794-25.976-5.2622-4.2375-1.2703l4.2375 0.97031zm247.9 233.9c-15.202 8.7454-6.3362-4.9143-0.0434-0.0525zm91.1-209.1c7.3851-2.5945 7.0181-11.452 6.4-17.5 5.4705 0.058-3.8807 3.114 2.8 1.8 0.99431 6.2066-2.5227 15.756-9.2 15.7zm-60.9 109.4c1.4536 12.775-0.23208 14.735-2.9 1.1-0.25559 1.0581 2.5695-1.2786 2.9-1.1zm-31.9-6.7c-0.21968-11.392 8.4453-8.5341 0 0zm156.1-141.2c-6.9678 8.9358-19.11 15.144-4.7525 1.9434 1.2947-0.3532 3.7495-3.0795 4.7525-1.9434zm-473.4-26.7c-7.2804 1.4209-14.928-1.7858-19.9-7.1 4.4838-4.6423 12.767 11.347 19.9 7.1zm-79.9 6.7c6.9834 0.76421 6.5414 6.9059 0.6186 1.7069-0.31133-0.43388-1.3851-1.3878-0.6186-1.7069zm76.7 14.8c-0.444 3.619-15.997-2.5034-20.338-0.1-11.069-0.5677-47.277 0.69967-44.488-0.26562 22.405-0.33598 45.456-3.7648 67.625-0.53438 1.7538 2.4101-1.9299 0.56953-2.8 0.9zm-63.6-2.2c-0.68185-4.5623-0.21417-16.298 2.3-6-0.20594 1.848-0.79725 5.376-2.3 6zm11.5 0c-2.814-9.8514 3.8992-14.516 1.2-1.5-1.0101-0.51687-0.19866 2.0022-1.2 1.5zm10.9-0.8c-3.0784-9.4033 3.6945-13.293 1-1.4-1.3094-1.1126-0.07 1.8987-1 1.4zm11 0.3c-2.0618-5.7207 0.87908-15.171 1.928-4.3252-0.52055 1.196-0.53432 4.2516-1.928 4.3252zm-66.1-7c3.8613 1.7845 14.113 5.9147 4.1 3.8-3.2305-1.3538-5.3609 0.49248-4.1-3.8zm10.1-11.5c2.9611 5.9984 1.1828 5.9965-2.3 1.9-1.8668-1.679 1.586-1.1056 2.3-1.9zm13.4-27.8c-17.856 11.053-3.2468-5.4999 0 0zm-40.4 4.8c-1.3674 2.5163-3.2085 5.621-5.6 6.7 3.2702-1.9934 0.3349-10.166 5.6-6.7zm35.4 73.8c11.026 2.3949 7.1588 11.16 0 0zm8.4-25c-3.5567 2.0506-2.7216 11.271-6.5 7.7 0.98439-2.9376 4.4449-7.1033 6.5-7.7zm-56.6-3.3c-5.0319-3.6748-3.2299-12.26-0.54966-4.4707 0.23321 1.1426 1.267 3.6925 0.54966 4.4707zm39.2 36.4c-1.4036 9.3363-12.868 18.745-21 10.6 11.541 8.8609 16.188-6.9196 21-10.6zm-48.8-27.4c-9.0358-1.507-19.471 7.3418-15.232 16.045-4.9353-9.1625 5.7258-19.236 15.232-18.045v1.4576zm3.8-50.2c-4.277-7.7088-17.167-11.757-22-2.4 4.4297-10.114 18.85-6.625 23.7 1.4l-1.2564 0.73904zm41.2-15.8c1.3462-9.3754-8.9719-18.888-16.856-14.347 9.0045-5.6077 19.956 4.4829 18.856 14.247l-1.4558 0.0728zm125.6 54c-9.9064 0.98328-24.083-2.3306-26.8-13.1 3.304-10.631 17.914-14.224 26.9-11.6-8.7117 0.88798-20.815 3.0253-23.9 12.6 2.3664 6.0041 15.316 11.497 23.8 12.1z"/>
    <path d="m281.7 167.4c-4.5258 1.7062-9.5533 1.6786-14.269 0.87868-0.67352-0.28213-3.6944-0.50224-2.6677-1.4701 3.8885-1.2571 8.0842-1.3634 12.107-0.81189 1.6085 0.32236 3.4773 0.46472 4.8293 1.2979v0.0946zm-2.1 28.1c-4.7369 2.8879-10.417 4.7547-16.008 4.0221-3.0768-0.43741-6.0596-1.8334-8.1919-4.1221-0.91984-4.9756 1.5223-10.242 5.6804-13.046 2.8814-2.1528 6.1592-3.7726 9.6196-4.7538 0.18159 1.2054-2.3894 1.6415-3.1644 2.6244-3.6071 2.64-7.5404 5.6424-8.7309 10.186-0.46232 1.1684-0.33246 3.4156-0.38155 4.0165-0.90972-1.6735 1.2975 0.94078 2.0085 1.0071 4.2921 2.4068 9.4798 1.9266 14.148 1.1774 1.697-0.25479 3.3571-0.69802 5.0203-1.1115z"/>
    <path d="m273.5 187.4c-3.0228 3.0654-7.1775 4.8245-11.4 5.4-0.59898-1.2121 1.6417-2.3586 2.4373-3.2054 2.5684-1.7542 5.8658-2.7013 8.9627-2.1946zm30.5-4.8c-6.4442 1.5892-13.606 1.7231-19.716-1.1578-3.0706-1.4787-5.7879-3.8407-7.2844-6.9422 0.67536-4.5587 3.4631-8.679 7.4084-11.049 4.8995-2.9713 10.666-4.483 16.392-4.3515-0.23433 1.398-3.3822 1.011-4.6112 1.8793-5.4997 1.7487-11.236 4.3246-14.496 9.3293-0.86717 1.0547-1.3947 3.6612-1.6385 4.1637-0.48674-1.8559 1.0116 1.5358 1.6955 1.7902 4.4782 4.4455 11.02 5.843 17.103 6.318 1.6026 0.12429 4.2361 0.20662 5.1473 0.0195z"/>
    <path d="m302 171c-4.077 1.3409-8.3796 1.6436-12.611 2.1894-1.4535 3e-3 -3.1869 0.55494-4.4736 0.14235 0.41649-1.3298 2.5756-1.9904 3.8842-2.6317 4.2733-1.3884 9.0826-1.5998 13.3 0.1-0.0333 0.0667-0.0667 0.13333-0.1 0.2zm16.1-4c-4.5736 1.4534-9.6967 1.5035-14.088-0.58919-2.297-0.99345-4.2898-2.7613-5.4124-5.0108 0.43504-3.3846 2.5164-6.4171 5.4324-8.1621 3.4303-2.1238 7.5642-2.9677 11.568-2.8379 0.43425 1.1806-1.9007 0.7531-2.4562 1.3921-3.5694 1.4472-7.5589 2.6934-9.9897 5.8899-0.85983 0.96356-1.3932 2.6907-1.5725 3.6257-0.50696-1.8265 0.51975 0.46513 1.1679 0.94184 3.0813 3.1122 7.6196 4.0841 11.845 4.3805 1.1266 0.11627 2.2796 0.13801 3.3901 0.31194l0.0842 0.0421z"/>
    <path d="m316.8 158.9c-1.0548 0.61395-2.2259 1.0219-3.4142 1.2857-0.86166 0.16924-1.7185 0.37357-2.5831 0.52101-0.98851 0.0574-1.9762 0.15794-2.9652 0.18803-0.97913-0.0316-1.9582-0.0632-2.9374-0.0947-0.25751-0.31314-0.1655-0.58649 0.18889-0.80028 1.7656-1.66 4.2624-2.2103 6.6182-2.2633 1.7958-0.0273 3.6274 0.36768 5.193 1.2636l-0.1-0.1z"/>
    <path d="m323.5 147.5c3.2101-6.0769 8.0238-11.045 12.8-15.9 4.107 2.7228-1.5604 4.3876-3.3316 6.6042-3.4913 2.779-6.697 5.912-9.3684 9.4958zm0.9 46.8c1.9818 2.543 4.2271 4.9328 6.7 7-3.1037 5.0051-4.5879-3.3328-6.3-5.4 0.13186-0.38741-1.0574-1.4419-0.4-1.6zm180.4-108c-8.1489 10.88-19.464 19.349-32.2 24.1-2.7221-4.5198 4.2704-3.5049 6.7856-5.4752 9.6387-4.3156 18.25-10.905 25.214-18.825zm50.6 61.7c-12.95 11.751-29.929 17.916-46.6 22.3-2.0782-5.6622 7.4529-3.0613 10.72-5.3327 12.753-3.5028 25.327-8.7583 35.58-17.267z"/>
    <path d="m522.1 71.7c37.12-25.749 70.598-57.87 94.018-96.754 5.7512-10.144 10.892-20.692 14.382-31.846-1.9818 9.1866-6.6518 18.921-11.1 27.7-23.073 41.492-57.354 75.987-95.9 103.3-0.46667-0.8-0.93333-1.6-1.4-2.4zm174.5-157.3c-3.2826 47.243-29.223 89.857-60 124.5-21.785 23.675-47.289 44.551-76.8 57.8-2.2438-7.029 13.91-7.2507 18.1-12.5 45.498-27.314 82.428-68.885 104.5-117.1 7.3424-16.72 12.644-34.521 13.9-52.8zm-129.7 270.3c-21.257 13.079-45.152 22.925-70.2 25 1.834-7.1462 17.63-2.3414 24.702-6.6222 15.938-3.839 31.397-10.824 45.498-18.378zm-23.8-74.4c-8.6695 9.5237-19.623 17.327-31.9 21.4-1.7455-6.3474 10.93-4.824 14.857-9.2097 6.2195-3.2386 11.699-7.976 17.043-12.19z"/>
    <path d="m723.4 0.3c-20.149 48.974-59.345 88.354-104.79 114.57-14.534 8.429-29.572 15.99-45.006 22.63-3.6991-5.8766 9.0285-5.141 11.888-8.5135 39.439-17.533 76.54-41.95 104.42-75.243 13.614-16.105 25.053-34.105 33.287-53.543z"/>
    <path d="m708.4 101.3c-17.616 25.387-41.958 45.696-68.808 60.745-17.535 9.5844-36.373 16.763-55.792 21.455-2.6723-5.5937 7.2959-3.3369 10.291-5.6104 43.862-11.861 84.18-37.732 111.93-73.858 0.79305-0.32532 1.5017-3.311 2.3751-2.7312z"/>
    <path d="m398.4 122.5c5.539-4.3467 11.786-8.2735 18.819-9.5544 4.3687-0.7546 9.1025 0.037 12.681 2.7544 1.2551 4.39 0.79849 9.2214-1.3185 13.275-3.3863 6.6855-9.605 11.446-16.082 14.925-0.64053-1.0293 1.8274-1.6878 2.3317-2.6004 4.9127-4.1708 9.7149-8.9842 11.869-15.205 0.98165-2.8825 1.1252-6.0566 0.2988-8.995 1.3368 1.5437-0.61257-0.15362-1.4302-0.41365-4.5037-2.1351-9.6734-1.1153-14.24 0.25056-4.4859 1.4111-8.7151 3.5042-12.929 5.5631z"/>
    <path d="m407.5 130.2c1.9675-3.9525 5.5321-7.1099 9.5465-8.8988 1.5129-0.35027 4.4038-1.8275 5.3535-0.40117-3.9248 2.5841-7.6441 5.5176-11.736 7.8375-1.0264 0.54455-2.0578 1.0952-3.1641 1.4625zm10.9 16.4c6.6988-4.1344 14.172-7.4649 22.075-8.25 5.2078-0.47519 10.688 0.98354 14.525 4.65 1.4604 7.2718-2.1152 14.684-7.4928 19.467-4.4005 4.152-9.6894 7.3559-15.407 9.3335 1.3765-2.1361 5.4084-3.4993 7.6-5.6 5.9486-4.5273 11.879-10.575 12.565-18.41 0.43576-0.8154-0.70374-5.1086 0.33542-2.8895-4.8168-4.5311-12.005-4.3649-18.085-3.2138-5.5322 1.0527-10.825 3.0354-16.115 4.9138z"/>
    <path d="m428.2 156.1c2.9209-5.9648 9.7735-9.9826 16.408-9.2422 2.9279 0.29618-0.0572 1.3199-1.1526 1.6265-4.9676 1.639-9.4845 4.3457-13.95 7.0048-0.42855 0.21722-0.86392 0.42101-1.3052 0.61096zm-63.7-4.3c8.7501-4.9474 18.82-9.4114 29.1-7.7 3.7291 0.66024 7.4764 2.4347 10.036 5.1821 1.6967 9.0006-3.57 17.84-10.627 23.054-4.3739 3.4779-9.2868 6.276-14.509 8.2637 1.6517-2.2591 6.0006-3.7665 8.4-6.1 6.6252-4.9632 13.142-11.708 13.906-20.376 0.41267-0.79711-0.56768-5.5563 0.2937-3.3239-5.7504-5.4636-14.5-5.2999-21.739-3.5953-5.0666 1.1355-9.9893 2.8177-14.861 4.5953z"/>
    <path d="m374.2 163.5c2.8758-5.3546 8.6642-8.6584 14.512-9.7357 1.3758-0.0505 4.7117-0.88494 4.9624 0.48724-4.951 1.9954-9.8403 4.1574-14.587 6.5985-1.6335 0.87529-3.2493 1.7834-4.8875 2.65zm-23.4-34.1c4.9823-3.5587 10.138-7.0294 15.814-9.3797 4.5505-1.795 10.207-2.2868 14.327 0.8187 1.3948 0.64059 1.0868 2.3952 1.3406 3.6635 0.49868 6.2505-2.8537 12.143-7.3435 16.255-3.3411 3.2181-7.2715 5.8216-11.538 7.6427 0.75929-1.9912 4.2568-3.2974 5.8227-5.2472 4.8727-4.4185 9.8117-9.9366 10.077-16.865 0.28043-0.84903-0.5093-3.8878-0.0849-3.4434 0.45309 0.82533-2.2403-1.4167-3.2627-1.3089-5.5432-1.3022-10.955 1.4777-15.914 3.608-3.0882 1.3999-6.1343 2.8915-9.2383 4.2568z"/>
    <path d="m359 134.8c3.1077-4.8562 8.3467-8.5508 14.148-9.1239 1.8725 1.1952-2.362 2.3041-3.1063 3.3538-3.4351 2.3391-7.022 4.5898-11.042 5.7701zm-21.6 24.6c8.0216-0.69737 16.553-1.8322 24.161 1.5215 2.9979 1.4475 5.5704 3.9803 6.6387 7.1785-1.6646 5.807-6.4243 10.357-12.071 12.311-5.5025 2.1186-11.516 2.2346-17.329 1.889 3.1732-1.6616 6.9744-1.0349 10.258-2.3842 5.9602-1.3272 12.243-4.3046 15.086-10.007 0.8046-1.6666 1.2421-1.5714 0.043-2.8991-1.675-2.8573-5.0201-4.2599-8.0701-5.1697-6.1501-1.5703-12.542-1.6044-18.817-2.3403z"/>
    <path d="m341.8 168.3c4.7534-2.653 10.768-3.2827 15.864-1.2543 1.3668 0.27636 2.0955 1.602 0.28634 1.3345-4.9925 0.34573-10.032 0.74115-15.014 0.0916-0.38174-0.0257-0.75347-0.16645-1.136-0.17186zm2 41c6.5621 0.84671 13.107 2.8324 19.773 2.1438 2.6118-0.3737 5.334-1.446 6.8266-3.7438-0.53975 2.1644-0.3209-1.7296-0.86373-2.3778-2.0352-6.24-7.9304-10.148-13.584-12.831-1.6303-1.1221-4.6914-1.4618-5.552-2.8911 7.611 1.34 15.653 4.409 20.1 11.1 1.6063 2.4844 2.5112 5.4373 2.5 8.4-2.4663 3.6357-7.0043 5.2663-11.275 5.025-6.2855-0.36788-12.339-2.456-18.125-4.825h0.12809z"/>
    <path d="m349.8 202.5c5.3124 0.416 10.371 2.1835 15.3 4.1-1.0815 1.8426-4.62 1.0393-6.6494 0.74921-3.2335-0.74487-6.4856-2.276-8.6506-4.8492zm27.6 6.3c7.6596 1.1724 15.381 3.5271 23.187 2.3977 2.6238-0.30828 5.5472-2.1779 6.868-3.8612-0.50587 1.9324-0.27219-2.0353-0.77935-2.5831-1.841-6.5894-7.7071-10.926-13.488-13.948-2.6941-1.5646-5.9966-2.5532-8.5527-3.9444 2.8294-0.14894 6.4901 1.308 9.477 2.3288 6.6898 2.6472 13.34 7.5297 15.315 14.784 0.3266 1.4959 0.83021 3.1395 0.58654 4.6419-2.5933 3.8661-7.3768 5.5929-11.894 5.4633-7.268-0.07289-14.206-2.6383-20.92-5.1784l0.12863-0.0643z"/>
    <path d="m384.2 201.2c5.9311 0.65089 11.616 2.5849 17.2 4.6-3.3746 2.4136-7.7332 0.41331-11.24-0.67912-2.1892-0.9577-4.2167-2.2868-5.9605-3.9209zm44.3 26.4c7.8964 0.98858 15.922 3.9849 23.889 1.82 2.8065-0.95133 5.513-2.9637 3.7408-6.1166-2.548-7.4254-9.8697-11.668-16.663-14.67-1.5768-0.65389-5.3422-2.1824-1.5607-1.6599 3.8964 0.93633 7.6704 2.4563 11.252 4.2376 5.4493 2.935 10.008 8.2957 10.571 14.606-0.52967 4.3659-5.3999 6.1568-9.1843 6.7193-7.3802 0.79888-14.499-2.044-21.284-4.5743l-0.39081-0.17934z"/>
    <path d="m434.9 220.4c5.6583 0.41447 10.995 2.4391 16.3 4.3-1.5788 1.963-5.8453 1.0077-8.2748 0.37813-2.9944-0.8851-5.9094-2.3291-8.0252-4.6781zm-35.8-52.1c8.6484-2.0742 18.262-3.161 26.572 0.7269 3.2911 1.5444 5.993 4.1565 7.8284 7.2731-0.95907 7.6311-6.8513 13.738-13.753 16.6-5.1631 2.3423-10.828 3.3543-16.447 3.8002 1.4641-1.7317 5.8486-1.6384 8.2551-2.9972 7.1442-2.4956 14.738-6.5014 17.777-13.869 0.46952-1.5375 1.2773-4.1272 1.0057-2.9153-3.32-5.7555-10.262-8.0374-16.523-8.5967-4.8845-0.52588-9.8174-0.60029-14.716-0.22196v0.16644z"/>
    <path d="m404.3 180.9c3.1496-3.5212 8.2227-4.5213 12.754-4.5827 2.2424 0.0243 4.4579 0.47154 6.5457 1.2827 0.0942 1.0299-1.621 0.57654-2.3124 0.96248-5.6639 0.76757-11.358 1.325-16.988 2.3375zm29.6 24.4c9.2403-1.3686 19.175-2.5799 26.763-8.5308 2.5034-1.675 4.756-5.7287 5.537-7.4548 0.0816 1.7834-0.9513-2.2118-1.5328-2.5418-4.0138-6.4812-11.566-9.6208-18.747-11.09-4.4136-0.91417-8.919-1.3438-13.421-1.4828 0.56002-1.2953 3.4215-0.47771 4.8369-0.87505 8.2921-0.33381 17.186 0.65787 24.116 5.6079 3.6178 2.5743 6.3426 6.3016 7.8476 10.467-1.661 4.5142-4.7143 8.5696-8.9486 10.958-6.4541 3.831-14.14 4.9626-21.528 5.2606-1.5374-0.0977-3.7348 0.24549-4.9229-0.31909z"/>
    <path d="m436.9 190.6c7.1425-0.10234 14.295-0.18018 21.4-1-0.0528 1.4584-2.8218 2.1281-4.1458 2.7752-5.6432 1.7517-12.184 1.4277-17.254-1.7752zm-10.6-84.6c6.7499-4.2155 14.248-7.9546 22.311-8.4896 4.6318-0.30678 9.7272 1.1094 12.931 4.4974 1.6917 8.0223-2.7088 15.966-8.8095 20.912-3.8573 3.3179-8.3777 5.7753-13.032 7.7801 1.277-2.1542 5.3003-3.5578 7.3-5.8 6.0318-4.786 12.057-11.452 11.862-19.641-0.2659-1.5343-0.0854-2.8364-2e-3 -1.7625-5.1927-4.4139-12.596-3.6649-18.757-2.1617-4.7342 1.1257-9.2712 2.9207-13.803 4.6652z"/>
    <path d="m435.5 115.4c3.1339-4.8096 8.3279-8.3663 14.018-9.2814 0.80729-0.28155 4.646-0.31002 2.7548 0.80246-5.0746 2.4261-9.7629 5.6017-14.929 7.8374-0.60452 0.24159-1.2193 0.45802-1.844 0.6416zm25.4-3.9c6.1911-2.5381 12.874-4.3907 19.616-4.1161 4.7332 0.20009 9.5796 2.1577 12.384 6.1161 0.25563 6.879-4.2441 13.086-9.9612 16.515-4.3578 2.77-9.3004 4.5374-14.339 5.5846 2.3114-1.9867 6.6976-3.1588 9.5294-5.3114 5.0452-2.925 9.9131-7.172 11.377-13.05 0.22213-1.4282 0.59707-3.8729 0.51202-2.6677-3.558-4.4688-9.7572-5.266-15.106-5.03-4.7006 0.24001-9.464 0.9113-14.012 1.9594z"/>
    <path d="m467.5 121.4c2.8998-3.3261 7.1772-5.3282 11.505-5.9488 1.7379-0.13051 3.8512-0.21684 5.2953 0.66734 0.0723 0.77148-1.1775 0.59727-1.6824 0.95595-3.9678 1.2938-7.8498 2.9052-11.927 3.8239-1.0528 0.22623-2.1138 0.43516-3.1907 0.50166zm21.1 1.2c5.5369-2.4778 11.753-4.461 17.853-3.1788 2.8949 0.698 5.6068 2.3315 7.3467 4.7788 0.30172 6.0619-3.9095 11.483-9.1642 14.075-3.2874 1.7845-6.8573 3.0468-10.536 3.7255 0.80325-1.532 3.8821-1.9466 5.4426-3.196 4.6242-2.625 9.5463-6.1424 10.888-11.604 0.11652-1.485 0.62336-2.8942 0.50637-1.9066-2.656-3.4095-7.2852-4.1256-11.346-3.9907-3.6964 0.0961-7.3368 0.81579-10.991 1.2975z"/>
    <path d="m493.1 130.6c2.6869-4.2877 8.6834-6.2448 13.4-4.4-0.43739 1.3917-2.8352 1.4168-4.1636 2.0699-3.0241 0.99062-6.0964 1.8036-9.2364 2.3301zm-16.2 16.9c7.9872-2.6917 16.709-4.4794 25.059-2.4562 4.1612 1.0409 8.2215 3.4997 10.341 7.2855-0.26467 6.374-4.1868 12.092-9.344 15.631-5.6623 3.9241-12.417 5.9396-19.156 7.0401 0.1942-1.3044 2.9068-1.1694 4.0528-1.9722 7.22-2.7118 14.674-6.3308 19.04-12.982 1.4115-2.2706 2.3137-4.8733 2.5071-7.5454 0.65863 2.1273-1.0416-1.1723-1.767-1.4344-4.017-3.653-9.703-4.597-14.95-4.766-5.2875-0.13168-10.551 0.53505-15.783 1.2004z"/>
    <path d="m483.5 159.1c3.4958-3.0813 8.0166-5.0033 12.633-5.5406 2.1758-0.15604 4.4387-0.0276 6.4669 0.84061 0.0395 0.85742-1.0897 0.58359-1.648 0.86231-4.5821 0.99435-9.0644 2.4131-13.655 3.3596-1.256 0.22539-2.5217 0.40883-3.7969 0.47813zm-29.4-5.2c5.0105-1.3094 10.281-2.1091 15.453-1.483 4.1935 0.63224 8.3059 3.0018 10.247 6.883-0.53007 4.1807-2.9031 8.0097-6.3357 10.436-4.3588 3.2139-9.8357 4.5751-15.152 5.0814-1.006 0.55849-2.5499-0.41719-0.75489-0.67594 5.6121-1.6862 11.465-3.737 15.653-8.0211 1.769-1.9302 3.0334-4.3328 3.4891-6.9203 0.61675 2.2237-0.93129-1.1943-1.8171-1.5069-4.1299-3.5835-9.9241-3.8422-15.125-3.8981-1.8192-3e-3 -4.1734 0.0667-5.6582 0.10493z"/>
    <path d="m457.6 162.8c3.5134-3.9446 9.8642-4.9091 14.5-2.5-0.79362 1.4183-3.3857 1.0045-4.9525 1.4646-3.1758 0.38454-6.3364 1.1126-9.5475 1.0354zm44.9 33.6c6.3931-3.7141 13.303-7.294 17.764-13.393 1.6191-2.4015 2.8156-5.2561 2.5356-8.2065 1.0712 2.1043-1.85-1.8214-2.8484-1.9233-6.6331-4.0372-14.847-2.781-21.989-1.0035-1.6773 0.0815-3.9928 1.764-5.2625 1.0268 6.174-3.2404 13.139-5.5866 20.188-5.1993 4.9188 0.28375 9.7559 2.5951 12.812 6.4993 0.4722 6.6491-3.9784 12.478-9.309 15.938-4.2153 2.881-8.9408 5.0113-13.891 6.2621z"/>
    <path d="m501.2 184.4c4.296-2.531 9.0415-4.1715 13.65-6.0438 0.84031-0.23057 1.7695-0.88501 2.5545-0.85179 0.0945 1.2527-1.5558 2.563-2.5808 3.4109-3.8778 2.8901-8.8428 4.0739-13.624 3.5848zm-24.7 39.3c6.2739-3.6295 12.984-7.1534 17.494-13.005 1.7602-2.4884 3.0996-5.4816 2.8062-8.5953 1.1007 2.1286-1.5689-1.5237-2.45-1.6625-6.0052-3.9548-13.685-3.2671-20.362-1.7365-2.3742 0.15458-5.3524 2.0373-7.2875 1.499 6.011-3.1682 12.765-5.4373 19.626-5.2352 5.1101 0.16554 10.201 2.472 13.374 6.5352 0.44506 6.2407-3.4837 11.848-8.4 15.3-4.4406 3.2045-9.4906 5.5589-14.8 6.9z"/>
    <path d="m475.2 211.8c5.1229-2.5888 11.083-5.5763 16.4-6.7-3.0681 5.436-10.703 7.4958-16.4 6.7zm241.9-124.1c7.3512-1.986-0.9845 6.8082 0 0zm-18.3 49.7c-5.246-4.1827 0.58848-5.2798 0.81609-1.469-0.27203 0.48965-0.54406 0.97931-0.81609 1.469zm-73.7 46c-3.8691-7.5884 4.5714-3.1241 0 0zm102.6-202.7c-1.295-4.5225 5.9938-2.3783 1.6253-0.30611-0.45916 0.14482-1.2977 0.99363-1.6253 0.30611zm-44.6 102.1c-5.246-4.1827 0.58848-5.2798 0.81609-1.469-0.27203 0.48965-0.54406 0.9793-0.81609 1.469zm-66.2 46.7c-4.118-9.5223 4.9596-2.0801 0 0zm105.9-98.8c-6.8298-3.8037 1.8914-5.3605 0.0262-0.09185zm-48.6-15.4c-5.246-4.1827 0.58848-5.2798 0.81609-1.469-0.27203 0.48965-0.54406 0.9793-0.81609 1.469zm-47.1 53.3c-1.6933-0.76428-2.919-6.8559-0.1-3.2 2.625 0.13373 0.38982 1.8937 0.1 3.2z"/>
    <path d="m703.1-40.4c-0.4127-0.28799-0.8219-0.58044-1.1925-0.92216-0.32694-0.26282-0.56599-0.6143-0.84476-0.92478-0.49558-0.6344-0.91521-1.3274-1.2627-2.0531 0.10133-0.08026 0.19025-0.28585 0.31566-0.12289 0.52227 0.36689 1.0906 0.67474 1.697 0.8766 0.46258 0.11507 0.91342 0.27884 1.39 0.33008 0.22995 0.03519 0.46512 0.0073 0.69725 0.01621-0.26667 0.93333-0.53333 1.8667-0.8 2.8z"/>
    <path d="m704.9-94.8c-0.73516-0.02155-1.467 0.05692-2.2 0.1-0.53538 0.10411-1.0882 0.19101-1.5608 0.48041-0.1464 0.0732-0.29279 0.14639-0.43918 0.21959-0.0794-0.101-0.27885-0.18593-0.13309-0.31709 0.17204-0.28803 0.30631-0.60372 0.56176-0.83064 0.3438-0.3621 0.66843-0.74495 1.0244-1.0939 0.47679-0.36515 0.93663-0.75492 1.4241-1.1046 0.206-0.1209 0.4054-0.25382 0.62291-0.35374 0.23333 0.96667 0.46667 1.9333 0.7 2.9z"/>
    <path d="m576.6 107.9-0.3-0.2-0.4-0.5a6 6 0 0 1-1.1-3.1v-0.7l0.3-0.1s0.6 0.9 1.4 1.4c0.4 0.3 0.8 0.4 1.1 0.5h0.3s0.1 0 0 0z"/>
    <path d="m611.5 13.1-0.6-0.6-1-1.5-1-2.1 0.2-0.2 2 1.2c0.5 0.3 1 0.5 1.3 0.5h0.6z"/>
    <path d="m567.9 60.2v0l-0.3-0.2-0.4-0.5a6 6 0 0 1-1.1-3.1v-0.7l0.3-0.1s0.6 0.9 1.4 1.4c0.4 0.3 0.8 0.4 1.1 0.5h0.3s0.1 0 0 0z"/>
    <path d="m641.4-45.7-0.7-0.5-1.4-1.1-1.9-1.7 0.2-0.3 2.4 0.4 1.6 0.2h0.7z"/>
    <path d="m639.3-91.4-0.6 0.3-1.3 0.8-1.1 1-0.4 0.6-0.3-0.1v-0.8l0.4-1.7 0.7-1.6 0.3-0.5 0.1-0.2z"/>
    <path d="m475.6 449.8c-0.81248 2.9573-1.6196 5.9534-1.6659 9.0415-0.13168 2.7371 0.0136 5.4975 0.66421 8.1675 0.52046 2.4955 1.5819 4.8787 3.0017 6.991-0.74725 0.15676-1.3006-1.3332-1.8731-1.8701-1.4063-2.06-2.3554-4.4207-2.921-6.8426-0.68002-3.3209-1.0616-6.7186-0.83252-10.11 0.10357-2.006 0.34627-4.0049 0.72662-5.9773 0.96667 0.2 1.9333 0.4 2.9 0.6z"/>
    <path d="m465.5 598.3c-0.24279 2.1816-0.69895 4.3829-1.8515 6.2826-1.1215 1.9138-2.8336 3.4019-3.9116 5.3488-0.72809 0.55446-0.53512 2.2954-1.3279 2.3542-0.73424-0.39914-2.0756-0.593-2.4266-1.1217 0.63265-1.2806 1.3757-2.516 2.4422-3.488 1.6778-1.766 3.9776-2.972 5.1208-5.2131 0.76663-1.2862 1.1955-2.7207 1.5546-4.1628h0.4z"/>
    <path d="m433.5 655.5c-2.2238-2.2992-4.5764-4.5732-7.4799-5.9932-2.6079-1.1881-5.5328-1.3282-8.3481-1.5377-0.53454 0.11017-1.709-0.2174-0.67183-0.58695 1.3785-0.38051 2.7918-0.68976 4.2359-0.67449 1.7232-0.0923 3.4834 0.066 5.0651 0.80494 2.9574 1.2268 5.3187 3.6615 6.651 6.5559 0.24721 0.45144 0.38254 0.94753 0.54777 1.4315z"/>
    <path d="m427.2 633c-2.7875 0.96828-5.2004 2.8132-7.2521 4.896-2.2372 2.3301-3.7581 5.2274-5.039 8.1655-0.43408 1.3581-1.7871-0.70343-2.6526-0.95522 0.30801-1.2383 1.6276-2.7808 2.5148-4.0027 1.2324-1.6318 2.6726-3.1113 4.2073-4.4575 2.3483-1.9389 5.1665-3.2473 8.1216-3.9461l0.05 0.15z"/>
    <path d="m369.7 640c4.1767-0.0587 8.0561 2.0802 11.208 4.6612 3.1476 2.5697 5.5513 6.0931 6.5916 10.039-1.0408-0.43512-1.237-2.5525-2.1668-3.482-2.1452-2.9694-5.0441-5.4431-8.4464-6.8501-1.907-0.82566-3.994-1.4415-6.089-1.3431-1.5624 0.68352-0.66737-2.3257-1.0978-3.0248z"/>
    <path d="m381.6 627.8c3.1544-2.5445 6.8199-4.842 10.978-5.0597 2.809-0.25586 5.7344 0.0215 8.3923-1.1226 1.0746-0.10865 2.6116-1.815 3.225-1.3298-1.8913 1.5245-4.0719 2.687-6.451 3.2305-2.8928 0.71936-6.052 0.61896-8.6708 2.2257-1.9298 1.1257-3.6748 2.5911-5.2151 4.1792-0.73227-0.4544-1.2985-1.2277-1.9588-1.8237-0.0998-0.0998-0.1997-0.19976-0.29946-0.29941z"/>
    <path d="m366.5 596.7c3.0984 1.9586 5.0301 5.3465 6.0548 8.7907 0.90833 3.1929 0.93356 6.7146-0.35485 9.8093-0.46694-1.0161 0.36282-2.501 0.0833-3.7535-0.14045-4.1198-1.8978-8.2846-5.0676-10.975-0.76783-0.71829-2.7048-1.0077-1.5283-2.2462 0.27085-0.54166 0.54165-1.0834 0.81254-1.625z"/>
    <path d="m430 610.6c4.467-7.9669 6.2023-17.098 7.1911-26.081 0.51284-1.1926-0.61004-3.6391 1.3761-3.0535-1.0022 3.6354-1.5645 7.4158-3.126 10.881-1.2787 3.0219-2.9961 5.866-5.1412 8.3528 0.32678-1.9224 1.955-3.3054 2.5016-5.1675 2.0983-4.4802 3.2591-9.3455 3.822-14.245 0.23605-2.5298 3.5555-1.5431 2.9518 0.68896-0.20908 7.8991-2.2804 15.702-5.5008 22.895-1.0067 2.1232-2.469 4.0233-4.0746 5.7285z"/>
    <path d="m361.6 678.6c0.77892-3.4679 2.1017-6.9606 4.6848-9.4988 2.5477-2.617 5.9393-4.2044 9.4074-5.2059 0.5954-0.0938 1.5988-0.80515 1.5278 0.20465 0.0933 0.46668 0.18667 0.93336 0.28001 1.4-3.2636 0.53361-6.5752 1.4015-9.2552 3.4338-3.2496 2.3412-5.6148 5.8706-6.5448 9.7662l-0.1-0.1z"/>
    <path d="m415.7 678.1c-1.1883-3.878-0.28016-8.2638 2.2448-11.421 1.8674-2.496 4.3444-4.5311 7.1552-5.8788l0.9 1.8c-2.5401 1.2105-5.1124 2.5375-6.9905 4.6954-2.7025 2.8057-4.0534 6.9774-3.1095 10.805h-0.2z"/>
    <path d="m339 630c1.317-5.1306 5.4877-9.5113 10.659-10.81 2.5921-0.83664 5.3483-0.83711 8.0412-0.68956-0.1 0.66667-0.2 1.3333-0.3 2-2.6852-0.40865-5.4451-0.43032-8.0926 0.23328-2.3542 0.63127-4.66 1.6712-6.4075 3.4152-1.7323 1.5982-3.0737 3.8919-3.8999 5.8997z"/>
    <path d="m475 603c1.5924 3.4484 2.3175 7.3458 1.6887 11.117-0.17724 1.1783-0.44952 2.3411-0.78871 3.483-0.38424-0.47711 0.20384-1.7713 0.0849-2.571 0.14302-3.1276-0.28208-6.3445-1.5968-9.2058-0.20582-0.83967-1.7854-1.9889-0.34434-2.317 0.31876-0.16875 0.63751-0.33753 0.95628-0.50625z"/>
    <path d="m484.4 407c-2.854-6.4402-4.5875-13.374-5.1-20.4 0.67167-0.18317 0.26626 0.94566 0.55781 1.2376 1.3785 6.2759 3.8395 12.312 7.2422 17.762-0.9 0.46667-1.8 0.93333-2.7 1.4z"/>
    <path d="m257.5 186.9c-2.7824-0.30361-5.2598-1.7025-7.6277-3.0967-1.0418-0.21706-0.0401-0.85574 0.25898-1.3533 0.3999-0.33559 0.77969-1.342 1.1936-1.2104 1.7985 2.0507 3.6761 4.2269 6.2752 5.2604-0.0333 0.13334-0.0667 0.26666-0.1 0.4z"/>
    <path d="m365 235.9c0.37874-0.21608 0.77816-0.37625 1.2087-0.45219 2.3823-0.70494 5.0203-0.48122 7.259 0.59171 0.5902 0.34787 1.2051 0.65978 1.7141 1.126 0.48752 0.343 0.8496 0.82458 1.2372 1.2688 0.36232 0.66772 0.80608 1.3312 0.87121 2.1073-0.0711 0.0886-0.41116-0.18705-0.58657-0.23973-1.1649-0.51966-2.3563-0.9794-3.5666-1.3807-2.4018-0.717-4.8807-1.25-7.1321-2.3855-0.38676-0.14356-0.69683-0.36465-1.0049-0.63563z"/>
    <path d="m380.5 249c2.3749-0.3624 4.8166 0.33657 6.8875 1.4816 1.6446 1.0785 3.346 2.2278 4.3429 3.9795 0.18908 0.40768 1.3161 1.6784 0.17431 1.2278-1.8775-0.44438-3.5356-1.4636-5.2843-2.2411-2.2747-1.1166-4.1975-2.8243-6.1203-4.4478z"/>
    <path d="m396.6 268.2c1.3734-0.0193 2.7236 0.31853 3.9735 0.87143 2.3996 0.88482 4.292 2.8203 5.6168 4.9585 0.55057 1.0244 1.238 2.7615 1.0985 3.597-2.1127-1.4047-4.045-3.0594-5.9824-4.6911-1.5003-1.4973-3.1962-2.8186-4.4792-4.5158l-0.11108-0.11098z"/>
    <path d="m449 330.8c7.853 8.4118 13.388 18.768 16.995 29.644 1.866 6.038 3.4171 12.227 3.8049 18.556-3.494-9.8323-6.7948-19.752-11.214-29.223-2.8108-5.9797-5.5346-12.038-8.8361-17.759-0.28186-0.38497-0.54352-0.787-0.75027-1.218z"/>
    <path d="m411.2 438c-0.65034 4.948 2.7582 9.3026 6.5883 12.001 2.0454 0.89337-2.4074 1.3459-0.10426-0.22849 1.631-1.7885 4.8352-5.4462 7.2348-3.5697 0.28901 2.9194-1.6482 5.7616-1.3356 8.7802-0.12264 3.9376 1.9699 8.1211 5.5922 9.8434 2.1078 0.20013-1.0016 3.2712-0.47858 0.45967-0.48226-4.8354 3.0575-9.1964 7.342-11.014 1.9432-0.71324 4.9086-2.8125 5.5324-3.6991-2.2139 4.3612-8.1055 5.3982-9.7817 10.171-1.0954 2.0088-0.16724 4.2887-0.45921 6.2936-1.6037 1.5509-4.1144-0.12645-5.6192-1.1864-4.0626-3.1963-5.8752-8.6778-4.9444-13.715 0.48628-1.4289 0.66242-5.2318 2.0771-5.1861 0.83093 0.6716 2.2694 1.3765 0.22569 1.647-2.5785 0.37384-3.8013 5.3558-6.4243 3.2669-3.3327-3.1013-6.5552-7.3302-5.9209-12.158 0.098-0.58347 0.26333-1.1544 0.47561-1.7062z"/>
    <path d="m356.5 368.5c-1.0074-1.0252-0.3445-2.6541-0.8927-3.7751-1.5451 0.53041-2.3971 2.3735-4.0997 2.7344-2.7451 0.75566-5.6123 1.0188-8.3166 1.9506-3.4381 1.0681-6.7441 2.5705-9.7911 4.4901 0.86667-2.7667 1.7333-5.5333 2.6-8.3-5.1414 1.8241-10.658 2.5779-16.1 2.2"/>
    <path d="m319.2 366.4c2.6621-0.99015 4.9617-2.8982 6.3933-5.36 1.2932-2.0482 2.1577-4.3233 2.9894-6.5868-0.70604 3.9024-1.4772 8.027-4.0352 11.196-0.99003 1.2623-2.2316 2.2751-3.5745 3.1389-0.89126 0.9865-2.8044 0.4427-2.7868-0.95895 0.034-0.60465 0.37599-1.2875 1.0138-1.4289z"/>
    <path d="m381.7 362.2c-2.6686 1.7164-5.3296 3.4537-8.2102 4.8063-2.9146 1.4079-5.8672 2.8192-8.9634 3.7715-1.151 0.25218-2.3018 0.50576-3.4836 0.54888-2.0773 0.30653-4.2549-0.46367-5.7429-1.9267 0.76667-0.63333 1.5333-1.2667 2.3-1.9 0.20937 0.35014 0.51179 0.61976 0.88533 0.80333 0.98927 0.59667 2.2351 0.59329 3.3569 0.53229 4.7209-0.5598 9.2523-2.0778 13.595-3.9602 2.0652-0.94846 4.2392-1.6361 6.2628-2.6754z"/>
    <path d="m481.9-46.1c-6.9576-0.98024-13.015-5.164-20.053-5.81-0.56393-0.10845-3.6637-0.32596-1.8796-0.29004 5.6624-0.26457 11.196 1.094 16.653 2.427 1.8714 0.34567 3.7681 0.70475 5.6797 0.67305-0.13333 1-0.26667 2-0.4 3zm-31-30.3c4.3924-5.7028 10.043-10.494 16.5-13.7 0.0637 0.94578 1.6976 2.5906 0.56107 3.0021-6.3972 2.1889-12.157 6.0918-17.061 10.698zm9.6 10.8c3.3419-6.6399 9.581-11.787 16.719-13.821 12.018-2.2994 24.255 0.15545 36.359-0.9904 6.3838-0.35485 12.715-1.995 18.421-4.8888-7.1757 5.572-16.468 7.5452-25.382 7.8582-8.7365 0.46666-17.483-0.44437-26.218-0.0582-7.7412 0.88465-14.796 5.4112-19.603 11.425-0.0989 0.1582-0.19775 0.3164-0.29663 0.4746zm13 9.4c12.193 0.09306 24.328-2.0909 35.834-6.089 2.8907-0.9727 5.7483-2.0439 8.5661-3.211-10.276 8.3869-24.052 12.068-37.184 10.803-2.4447-0.27348-4.8735-0.74366-7.2158-1.5029z"/>
    <path d="m472.1-67.5c1.5984-1.5869 3.329-3.0913 5.3986-4.0309 2.0161-1.0071 4.1007-1.9337 6.3367-2.3197 1.9266-0.38846 3.913-0.45853 5.8648-0.24935-2.6317 1.863-5.6683 3.036-8.6465 4.2212-2.9015 1.0467-5.8644 2.0878-8.9535 2.3788z"/>
    <path d="m381-84.6c0.88846-0.31249 1.8077 0.37812 2.4168 0.98634 1.1244 1.0188 1.5148 2.6249 1.3648 4.0918-0.17702 1.4724-0.74985 3.1213-2.1778 3.8119-1.3938 0.76212-3.391 0.57574-4.3326-0.8079-0.64463-0.85677-0.67238-1.9944-0.29618-2.9653 0.0406-0.56285 1.3311-1.1768 0.79981-0.23721 0.0762 0.77231 0.4732 1.7549 1.3622 1.8379 1.0198-0.02217 1.5989-1.067 1.8263-1.9453 0.39356-1.2841 0.27415-2.727-0.40881-3.8916-0.10451-0.3302-0.19181-0.73951-0.55452-0.88067z"/>
    <path d="m375.7-83.5c-0.63168 1.6919-1.0541 3.4973-0.84213 5.3129 5e-3 2.21 0.69387 4.4554 2.0514 6.2088 0.27283 0.41996 1.4964 1.0163 0.43047 0.58382-0.86706-0.58583-1.7177-1.2452-2.2652-2.1596-1.7948-2.6491-2.5731-5.8975-2.5745-9.0724 0.13236-0.57574-0.14075-1.9273 0.7758-1.4391 0.80802 0.18854 1.6163 0.37712 2.4242 0.56565z"/>
    <path d="m332.8-24.4c-0.58425-0.60216-1.0891-1.2825-1.5539-1.9788-0.79421-1.1931-1.2547-2.5544-1.6461-3.9212 1.2383 1.351 2.7879 2.379 4.4532 3.1266 0.20767 0.11026 0.41913 0.21137 0.64678 0.27339-0.63333 0.83333-1.2667 1.6667-1.9 2.5z"/>
    <path d="m327.8-20.1c-0.41282-0.52009-0.7154-1.1168-1.042-1.6919-0.53421-1.1905-1.1023-2.3672-1.6152-3.5665-0.435-1.2349-0.90944-2.4568-1.3188-3.7001-0.14132-0.4805-0.28265-0.961-0.42397-1.4415 0.76949 1.3161 1.5848 2.6053 2.5396 3.7982 1.2346 1.6349 2.5912 3.1749 4.0604 4.6018-0.73333 0.66667-1.4667 1.3333-2.2 2z"/>
    <path d="m373.4-61.7c0.2444 0.11318 0.4676 0.26496 0.7 0.4 0.42406 0.48476 0.49751 1.2453 0.20723 1.8152-0.24436 0.44496-0.73412 0.80732-1.257 0.77647-0.19697-0.04265-0.40611-0.04788-0.59536-0.11427-0.10713-0.03781-0.19467-0.08588-0.13584-0.21064 0.0684-0.45452 0.12468-0.91066 0.18097-1.3668 0.26511-0.37456 0.53416-0.74701 0.80752-1.115 0.0308-0.06165 0.0616-0.1233 0.0925-0.18496z"/>
    <path d="m369.5-59.3c0.40074 0.21201 0.73816 0.56624 0.896 0.99405 0.14472 0.41335 0.10509 0.88558-0.12316 1.2603-0.0978 0.18304-0.17826 0.38137-0.28676 0.55496-0.20184 0.12838-0.39635 0.27647-0.60268 0.3928-0.26113 0.03264-0.52227 0.06528-0.7834 0.09792-0.041-0.38327-0.12052-0.76414-0.1-1.1512v-0.64876c0.10093-0.33016 0.24754-0.6573 0.5-0.9 0.11836-0.23383 0.28808-0.44472 0.5-0.6z"/>
    <path d="m365.7-56.6c-0.0146 0.49734 0.0434 1.003-0.065 1.4925-0.11903 0.35838-0.31286 0.70172-0.61314 0.94031-0.28378 0.20978-0.54972 0.44242-0.82187 0.66719-0.83872-0.68914-0.87047-2.1514-0.025-2.85 0.19459-0.15499 0.41927-0.33174 0.67488-0.34446 0.28337 0.03149 0.56675 0.06297 0.85012 0.09446z"/>
    <path d="m361.4-53.4c0.10782 0.05344 0.22632 0.0941 0.28227 0.2097 0.13789 0.18349 0.30231 0.3626 0.3146 0.60593 0.0476 0.44057-0.0906 0.91097-0.38125 1.2469-0.26267 0.27735-0.67217 0.39248-1.0418 0.30518-0.15793-0.02256-0.31585-0.04512-0.47377-0.06768-0.0454-0.36812-0.13632-0.73467-0.0894-1.1078 0.01-0.36247 0.26853-0.69133 0.6143-0.79538 0.24032-0.0731 0.46812-0.18555 0.68592-0.30758 0.0298-0.02974 0.0595-0.05949 0.0892-0.08923z"/>
    <path d="m431.9-79.3c-4.2918-2.9728-9.3133-4.6515-14.332-5.9299-2.6579-0.58014-5.2988-1.2468-7.9679-1.7701-2.4001-0.40002-4.8002-0.80004-7.2004-1.2001 4.8318-1.6109 10.101-1.1193 14.983-0.01324 3.8806 1.0079 7.7549 2.4477 10.993 4.8625 1.4186 1.107 2.6639 2.4629 3.5243 4.0507z"/>
    <path d="m402.8-77.9c1.7-0.5 2.9 0.1 3.3 1.3 0.9 2.4-2.6 2-2.2 4.4 0.5 2.5 3.6 3.3 1.2 4 0 0-3.9 0.1-4.8-3.9-0.5-1.7-0.2-4.9 2.5-5.8z"/>
    <path d="m394.8-76.6c-1.4509-0.23794-2.7705-1.0541-3.5559-2.3078-0.66067-0.94724-0.75599-2.1532-0.84414-3.2721-0.0468-0.8481 0.0623-1.6851 0.2-2.5201 0.14986 1.4902 0.53899 3.0285 1.5015 4.2015 0.68011 0.81613 1.7951 0.97907 2.7985 0.89854-0.0333 1-0.0667 2-0.1 3zm28.8-0.6c-3.0873-2.1896-7.0654-2.2337-10.69-1.8874-0.60455 0.05448-1.2186 0.03712-1.8105 0.18736v-3c3.9102 0.57606 8.1438 1.0417 11.251 3.7194 0.38264 0.39191 0.79867 0.70056 1.2486 0.98058zm-13.5 18.8c-3.3516-0.2308-6.7542-1.5446-9.1-4-0.69967-0.62998 0.30316-0.68057 0.76074-0.91672 0.52065-0.19421 1.3989-0.56801 1.7018-0.65828 0.71346 1.3673 1.9836 2.3826 3.0637 3.4736 1.047 0.91626 2.2875 1.5862 3.5738 2.1014z"/>
  </g>
 </g>
</svg>
