<svg width="800" height="800" fill="#d7374a" viewBox="50 50 200 200" xmlns="http://www.w3.org/2000/svg">
<!-- source: wappenwiki.org, CC BY-NC-SA 3.0 -->
 <g id="harp" transform="matrix(0.1068,0,0,0.1068,54.8,25.5)" stroke="#000" stroke-width="3">
  <path d="M684.2,487.4c0,0,26.4-46.9-6.4-65.5 c-46.3-26.3-90.4,61.8-157.3,91.9c-66.9,30.1-161.6,63.9-305.6-27.9c-10-17.3-1.9-56.9-1.9-56.9s12.7-38.2,13-37.3 c43.8,36.1,129.2,80.9,216.5,77.9c112.6-12.3,165.8-124.3,250.9-76.1c54.4,30.8,13.2,106.6,13.2,106.6c-0.1,0.2-5.5,0.6-12.7-3.4 C686.5,492.5,684.2,487.4,684.2,487.4z"/>
  <path d="M684.5,513.7c-15.9-8.9-35.8-5.1-46.1,11.1 c-7.6,11.1-287.6,463.5-287.6,463.5l20.4,21.4l-15.5,28.4l33.4,18.9C389.1,1057,656.8,564.6,684.5,513.7z"/>
  <path d="M581.8,435c-2.4,1.7-4.7,3.4-7.2,5.2 L639,597.8l7.8-3.3L581.8,435z"/>
  <path d="M560.9,450.1c-2.4,1.7-4.7,3.3-7.2,5.1 l69.8,170.9l7.8-3.3L560.9,450.1z"/>
  <path d="M539.8,464.7c-2.4,1.6-4.8,3.1-7.3,4.7 l75.7,185.2l7.8-3.3L539.8,464.7z"/>
  <path d="M518.1,477.9c-2.4,1.4-5,2.7-7.5,4.1 l82.2,201l7.8-3.3L518.1,477.9z"/>
  <path d="M495.6,489.3c-2.5,1.2-5.2,2.3-7.8,3.4 l89.4,218.9l7.8-3.3L495.6,489.3z"/>
  <path d="M448,505.4c-2.7,0.6-5.6,1.3-8.5,1.8 l106.8,261.3l7.8-3.3L448,505.4z"/>
  <path d="M472.3,498.5c-2.6,0.9-5.4,1.8-8.1,2.5 L561.7,740l7.8-3.3L472.3,498.5z"/>
  <path d="M394.7,507.4c-3.2-0.3-6.4-0.6-9.6-1 l130.3,318.9l7.8-3.3L394.7,507.4z"/>
  <path d="M422.2,508.6c-3.1,0-6.2,0-9.3-0.1 l117.9,288.4l7.8-3.3L422.2,508.6z"/>
  <path d="M366.1,503.8c-3.3-0.6-6.7-1.2-10-1.9 l143.7,351.8l7.8-3.3L366.1,503.8z"/>
  <path d="M336.5,497.6c-3.4-0.9-7-1.8-10.3-2.7 l158.2,387.3l7.8-3.3L336.5,497.6z"/>
  <path d="M305.7,488.6c-3.6-1.3-7.2-2.5-10.8-3.8 l174,425.8l7.8-3.3L305.7,488.6z"/>
  <path d="M273.5,476.1c-3.9-1.7-7.6-3.4-11.4-5.3 L453.5,939l7.8-3.3L273.5,476.1z"/>
  <path d="M239.3,458.6c-2.8-1.7-5.7-3.4-8.3-5.2 l-2.5,1.1l209.6,513l7.8-3.3L239.3,458.6z"/>
  <path fill="none" d="M211,439c43.8,36.1,133.8,72.4,221.1,69.4 c70.6-11.3,116.2-49.6,154.3-76.8c33.5-23.9,65.1-43.2,99-24c46.8,26.5,8.3,89,8.3,89"/>
  <path d="M413.5,951.8l-13.9,25.6 c0,0-57.8-30.1-118.8-99.5c-96-109.3-140.4-232.2-152.7-355.4c-7.2-71.8,1.9-142.8,27.3-204.8l84.4,48.6 c0,0-32.8,74.1-24.8,213.6c5.1,88.2,40.2,190.6,97.3,268.3C363.2,917.1,413.5,951.8,413.5,951.8z"/>
  <path d="M684.5,513.7c15.9,8.9,23.1,28.2,15.2,45.8 c-5.1,12.4-232.1,492.3-232.1,492.3l-29.7-4.3l-15.5,28.4l-33.3-18.9C389.1,1057,656.8,564.6,684.5,513.7z"/>
  <path d="M486.1,943.5c9.2,5.2,12.5,17.1,7.4,26.5 c-5.1,9.4-16.8,12.8-26,7.6s-12.5-17.1-7.4-26.5C465.2,941.7,476.9,938.3,486.1,943.5z"/>
  <path d="M629.8,661.2c4.6,2.6,6.3,8.5,3.7,13.2 c-2.5,4.7-8.4,6.4-13,3.8c-4.6-2.5-6.3-8.5-3.7-13.2C619.3,660.3,625.2,658.7,629.8,661.2z"/>
  <path d="M557.8,802c6,3.3,8,11,4.8,17 c-3.3,6.1-10.8,8.2-16.7,4.9c-6-3.3-8-11-4.8-17C544.4,800.8,551.8,798.7,557.8,802z"/>
  <path d="M706.5,500.1c-0.1,0.2-5.5,0.6-12.7-3.4 c-7.2-4.1-9.6-9.1-9.6-9.1s-16.8-7.3-23.3,4.5c-7.9,14.5,1.6,23.7,17.9,32.3c16.4,8.7,26.9,9.6,33.7-2.9 C719.5,508.5,706.5,500.1,706.5,500.1z"/>
 </g>
</svg>
