<svg width="800" height="800" fill="#d7374a" stroke="#000" viewBox="50 50 200 200" xmlns="http://www.w3.org/2000/svg">
<!-- source: wappenwiki.org, CC BY-NC-SA 3.0 -->
 <g id="key" stroke-width="3" transform="matrix(0.1412,0,0,0.1422,148.22,37.9)">
  <path d="M-395.2 310.5h17.6v29h10.9v-42.3h46.4v-73.1h-46.4v-41.6h-10.9v27.8h-17.6v-27.8h-54.4v24h30.8v17.6h-30.8v27.8h45.9v-15.8h17.6v15.8h17.2v17.6h-17.2v15.7h-17.6v-15.7h-45.9v27.7h30.8v17.6h-30.8v24.7h54.4z"/>
  <path d="M-342.9 585.6v-422c0-5.2 7.5-9.5 16.7-9.5s16.7 4.3 16.7 9.5v422h-33.4z"/>
  <path d="M-342.9 550.5a5 5 0 010-9.8h33.3a5 5 0 010 9.8h-33.3zM-342.9 588.4a5 5 0 010-9.8h33.3a5 5 0 010 9.8h-33.3zM-342.9 575.8a11.6 11.6 0 010-23.2h33.3a11.6 11.6 0 010 23.2h-33.3z"/>
  <ellipse cx="-326.2" cy="703.3" rx="17.6" ry="14"/>
  <path d="M-340.3 695.9a5 5 0 010-9.8h28.2a5 5 0 010 9.8h-28.2z"/>
  <ellipse cx="-252.4" cy="641.4" rx="14" ry="17.6"/>
  <path d="M-259.7 655.5a5 5 0 01-9.8 0v-28.2a5 5 0 019.8 0v28.2z"/>
  <ellipse cx="-401" cy="641.4" rx="14" ry="17.6"/>
  <path d="M-393.6 627.3a5 5 0 019.8 0v28.2a5 5 0 01-9.8 0v-28.2zM-284.3 641.6l-42.2 29.9-41.4-30.3 42.2-41.4 41.4 41.8zm-25-53.2h-34.3l-39.6 39.6v26.1l42 31.9h29.5l42.4-32.3v-25.4l-40-39.9h0z"/>
  <path d="M-300.1 665.9l-1.6-13.1-18.2-6.9 6.8 18.2 13 1.8zM-353 612.9l1.6 13.1 18.2 6.9-6.8-18.2-13-1.8zM-352 665.8l13.1-1.6 6.9-18.2-18.2 6.8-1.8 13zM-298.9 613l-13.1 1.6-6.9 18.2 18.2-6.8 1.8-13z"/>
  <path d="M-284.3 641.6h14.7M-326.5 671.5v14.6M-325.6 599.8v-11.4M-367.8 641.2h-16"/>
 </g>
</svg>
