<svg width="800" height="800" fill="#d7374a" stroke="#000" viewBox="50 50 200 200" xmlns="http://www.w3.org/2000/svg">
<!-- source: wappenwiki.org, CC BY-NC-SA 3.0 -->
 <g id="lochaberAxe" stroke-width="3" transform="matrix(0.15,0,0,0.15,77,77.775)">
  <path d="m 216.7,-113.3 c 0,-4.8 -17.1,-4.8 -17.3,-0.2 l -0.2,628.2 v 0 0.5 c 0,4.8 18.2,4.8 18.2,0 z"/>
  <path d="m 201.2,93.3 c -25.7,10.5 -54.1,-7.3 -55.8,-35 0,-32.5 17.6,-80 17.6,-121.5 0,-30.4 -25.5,-53 -36.7,-51.6 11,11.2 15.7,22.6 15.7,43.1 0,34.3 -53.4,87.6 -53.4,183.1 0,95.5 53.4,148.9 53.4,183.2 0,20.5 -4.8,31.9 -15.7,43.1 11.3,1.4 36.7,-21.2 36.7,-51.6 0,-41.5 -17.6,-89 -17.6,-121.5 1.7,-27.7 30.1,-45.5 55.8,-35 z"/>
  <path d="M218.4 86.9c0-3.8-20.9-3.8-20.9 0 0 .7-.6 55.7-.1 56.3 2.9 2.9 18.7 2.4 21.1 0l-.1-56.3z"/>
  <path fill="#000" stroke="none" d="m 139,-35.1 c -0.1,9.6 -3.3,19.2 -6.1,27.2 -7.9,21.2 -16,44.2 -20.8,64.4 -9.9,44.6 -6.8,91.2 6.7,134.2 5.8,19.8 13.9,35.4 18.6,54.1 0.9,4.2 1.8,6.9 1.7,12.9 -0.3,-4.5 -1.3,-9.1 -2.3,-12.8 -6.8,-17.8 -14.2,-36.3 -20.1,-53.6 C 99.1,139.6 99.5,81.5 116.8,31 121.6,17 126.4,5.4 132,-8.5 c 3.4,-8.8 6.5,-17.5 7,-26.6 z"/>
 </g>
</svg>
