<svg width="800" height="800" fill="#d7374a" version="1.1" viewBox="50 50 400 400" xmlns="http://www.w3.org/2000/svg">
 <g id="raven" stroke="#000" stroke-width="3" transform="matrix(0.13,0,0,0.13,-6,126)">
  <path d="M809.9-220.9c18.1 2 97.5-4.3 145.4-7.3 51.3-3.2 175.7 8.4 193.5 3.2-1 10.5-25.8 16.3-34.6 20.4-36.7 16.8-104.3 25.4-131.4 32.9-15.2 4.2-71.6 16.1-87.1 17.8M964.2-287.7c-21.2-.3-41.1-1.8-59.6-3.7 36 10.2 71 21 110 29.3 7-4.3 15-10.2 17.7-16.7-8.4-8.5-35.7-8.5-68.1-8.9zM711.3-36.4l-12.7 1.9s-3.8 3.1-3.1 11.6c1.3 10.5 10.7 15.6 11.3 14.3.3-.5-3.9-7.6-2.2-12.1a7 7 0 016.6-4.8zm-37.6-16.4c-2.8 10.2 4.8 18.7 5.8 17.7.3-.6-1.6-7.5 1.7-11s5.4-3.2 6.2-2.8l3.6-8.2-10.4-5.2c.1 0-4.4 1.4-6.9 9.5m126.7-1.5c-2.5-6.7-6.9-8.9-6.9-8.9s-8.1-3.9-10.8 3 1.1 10.5 1.1 10.5 5-1.8 9.4 1c6.1 3.1 6.5 9.3 8.4 10.3 2.3-2.9.4-11.8-1.2-15.9zM696.5-84.5l-6-6.8s-7.5.4-13.1 4.9c-3.4 2.8-6.7 10-4.5 14.5 1.4.1 3.6-6.2 8.9-6.6 5.2-.2 8.1 3 8.1 3z"/>
  <path d="M770-89.1s41.5-63.1 42.6-65.3c2.4-6.8-15.7-10.9-15.7-10.9s-9.6 24.8-12.6 28.5c-.4.6-.2.5-2.3 3-2.7 1-6.9 10.1-6.6 11.5-2.1.4-7.2 8.2-7.2 11.3-2.1 1-6.6 7.9-7.3 10.3-2.5.8-8.3 8.1-7.7 10.4-.9.9-4.7 2.4-9.7 8-2.4 2.3-4.7 3.5-7 3.2-7.9-.4-11.6-6.7-18.1-7.7-2.1-.3-4.8.3-5.5.7-5 2.3-10-.8-10.4-2.7-.9-4.8-4.5-5.4-8.2-5.5-4.1.3-5.5 3.3-5.5 3.3s4.5.6 3.2 8.6c-.2 1.1-.3 2-.9 3-.4.7-2 1.9-2.1 2.6-.1 2 1.9 4.3 5.7 4.2 2.6 0 4.5-1.2 5.3-2.5 3.3 1.4 6.4 2.6 10 1.6 1.2-.3 2.4-.9 3.5-.5 1.2.4 2 1.6 3 2.3 1.4 1.1 3.2 1.2 5 1.4-3.4.9-8.3 1.9-12.6 1-3.1-.6-5.6-1.2-8.3-.4-3.2 1-4.4 2.4-6.8 4.2-.2-1.1-1.7-2.3-2.6-2.8-1-.5-2.2-.7-3.4-.9-3.7-.5-10.8 2.6-9.5 7.7.2.6.2.5.8.6 3.3-.6 8.2 5.6 6.7 12.4-.2.9.5 1.7 1.1 2.3 1.7 1.5 5.7 3.3 9.2 1.1 3.4-2.2 2.8-5.1 2.8-6.1 2.6-1.1 4.5-3.8 7-5.1 3.7-1.9 8-.3 12.1.2 4.5.5 9-.1 13-2.4-2.2 3.3-4.7 5.5-9 5.4-2.5 0-5.3.3-7.3 2.6-.6.8-2.2 2.1-3.2 3.6l-2.1 3.4s-2.4-2.2-6.8-1.3c-6.9 1.5-7.7 6.9-6.4 10.5l.4-.1c.3.5.6 1 1.1 1.4 5-3.4 12.8 4.2 12.2 8.4.3 1.3 3 2.4 7.4.3 2-1.1 3.7-2.3 3.9-5.6s-1.5-2.3-.9-5.3c.5-3 5.1-2.9 7-3.5 2.7-1 4.9-2.3 6.7-4.4 2.4-2.9 5.3-7.8 5.3-7.8s6.4-9.6 12-9.4l.6.1c6.6 1 5.2 5.3 10.6 6.5 5.4 0 6.2-2.7 11.7-1.9 2.1.9-.3 5.9 5.6 7.3 4.8 1 6.4-1.8 6.4-1.8S783.3-59 794-63c1-.9 1-5.3-5.6-6.8-3.8-1.3-6.2 2.1-6.2 2.1s-3.5-3.1-7.3-1.5c-1.6.7-5.4 1.6-7.7 1.3-1.3-.4-7.2-1.5-9.2-4-.5-1.8 3.6-6.4 3.6-6.4z"/>
  <path d="M731.3-181.7c10.8 20.6 40.5 39.4 37.2 59.6-.4 2.5-2.6 4.6-2.8 7.1s4.4-1.9 7.4-2.6 4.8-.1 6.3-.1c0 2.1-2.4 7.4-2.4 7.4l4-1.4c-.1 1.6-.5 5.5.4 6.9 2 2.8 3.4-.1 5.4-1.7 4.5-3.8 4.2-5 8.8-8.8 9-7.5 10.2-15.6 19.3-22 4.7-3.3 13.2-21 8.4-35.6"/>
  <path d="M895.7-154c-16.7 2.3-41.6 7.2-49.4 6.8 0 0-50.8 7.9-89.5.8-99.4-18.4-106.9-86.4-138.5-123.5-10.1-15.2-33.8-26.4-40-38.7 0 0 .1.1 1-1 4.6-1.8 7.4-.9 11.6-4.9 2.6-2.4 2.2-9.9 2.5-13.5.3-3.4-2.5-9.1-5.1-11.3s-5.8-3.6-8.8-5.1a34.5 34.5 0 01-16.7-14.6c-.5-.9-1.2-3.6-2-4.2-.7-.5-1.6-.7-2.4-1-2.3-.6-1.8-2-4.2-1.9-1.5.1-2.3.1-3.7-.4-1.4-.6-2.6-1.9-2.6-3.4.1-3.2 4.9-6.5 7.4-7.6 17.4-7.7 18.5-11.3 41.2-13.2 27.4-2.3 47.6 9 56.9 19.1 23.6 25.7 44.2 31.6 52.3 41.9 39.6 10.2 82.9 9.1 136.5 21.6 32.8 7.6 86 24.3 134.9 37.1 31.3 8.2 60.5 13.2 67.3 22.9-4.9 7.6-18.4 13-26.6 15.9-37.6 13.4-86.5 23.7-126.6 40.9"/>
  <path d="M579.3-309.6c4.6-1.8 7.4-.9 11.6-4.9 2.6-2.4 2.2-9.9 2.5-13.5.3-3.4-2.5-9.1-5.1-11.3s-5.8-3.6-8.8-5.1c-7-2.9-12.9-8-16.7-14.6-.5-.9-1.2-3.6-2-4.2-.7-.5-1.6-.7-2.4-1-2.3-.6-1.8-2-4.2-1.9-1.7 0-2.7 0-4-.6-12.1 1.8-27.5 7-38 10.4-6.1 1.9-7.5 3-14 5.6a57.2 57.2 0 00-14.5 8.9 32.8 32.8 0 00-9.4 12.5c-1 3.7-2.4 8-1.1 11 2.2-2.8 4.1-3.6 4.1-3.6 4.2-3.3 14.6-8 24.2-9.7 16.6-3 23.3-1.2 40.2-2.9a89 89 0 0126.3.2c15.7 3.3 18.6 12 19.8 13.4v.1c-25.1-11.5-41.2-4.2-60.2-2.8-9.3.7-24.6 1.6-34.4 3.1-6.4.9-10.1 1.9-11.3 2.7-1.2.7.1.6 1.5 1.2s16.1 1.4 22.3 2c5.2.5 12.3.6 22.5 1 14.5.5 40.2 1.5 50.6 4.7zM812-13.5l-12.2 4s-3.3 3.7-1.1 12c3 10.2 13.1 13.7 13.5 12.3.2-.6-5.1-6.9-4.2-11.6s4.8-5.8 5.7-5.8zm-39.8-10C771.1-13 780-5.8 780.8-7c.2-.7-2.8-7.1-.1-11.2 2.6-4 4.8-4.1 5.7-3.8l2.3-8.6-11.2-3.4s-4.2 2-5.3 10.5m124.7-22.4c-3.6-6.2-8.3-7.6-8.3-7.6s-8.7-2.5-10.2 4.7c-1.5 7.3 2.8 10.2 2.8 10.2s4.7-2.6 9.4-.6c6.5 2.1 7.9 8.1 10 8.8 1.9-3.3-1.5-11.7-3.7-15.5zM789.5-58.5l-7-5.7s-7.4 1.6-12.1 7c-2.9 3.3-4.9 11-2.1 15 1.4-.1 2.5-6.7 7.7-8a11 11 0 018.5 1.7z"/>
  <path d="M861.2-75.2s30.6-69.1 31.2-71.4c1.3-7.1-17.3-8.1-17.3-8.1s-5.3 26.1-7.7 30.2l-1.8 3.4c-2.5 1.4-5.2 11.1-4.6 12.4-2 .7-5.8 9.3-5.3 12.4a26.2 26.2 0 00-5.4 11.4c-2.3 1.2-6.8 9.3-5.9 11.5-.7 1-4.2 3.1-8.2 9.5-2 2.7-4 4.2-6.4 4.3-7.8.9-12.5-4.7-19.1-4.6-2.2 0-4.7 1.1-5.3 1.6-4.5 3.1-10 .8-10.7-.9-1.7-4.6-5.3-4.6-9-4-4 1-4.9 4.2-4.9 4.2s4.5-.1 4.6 7.9c0 1.1 0 2.1-.3 3.1-.3.8-1.7 2.2-1.6 2.9.2 2 2.5 3.9 6.4 3.2 2.6-.5 4.2-2 4.8-3.3 3.5.8 6.7 1.5 10.1-.1 1.1-.5 2.2-1.2 3.4-1.1 1.3.2 2.2 1.2 3.3 1.8 1.5.8 3.4.7 5.1.5a29.4 29.4 0 01-12.3 3.1c-3.1-.1-5.8-.3-8.2 1-3 1.5-3.9 3.1-6.1 5.3-.4-1-2.1-2-3-2.3-1.1-.4-2.3-.3-3.5-.3-3.7.1-10.2 4.4-8.1 9.1.3.6.3.5.9.4 3.2-1.1 9 4.1 8.7 11.1 0 .9.7 1.6 1.5 2.1 1.9 1.2 6.2 2.3 9.2-.5s1.9-5.5 1.8-6.5c2.4-1.5 3.8-4.5 6.1-6.2 3.3-2.4 7.9-1.6 12-1.8 4.5-.2 8.9-1.6 12.4-4.5-1.7 3.6-3.7 6.2-8 6.8-2.4.4-5.1 1.2-6.8 3.8-.5.9-1.8 2.5-2.5 4.1l-1.5 3.7s-2.7-1.8-6.9-.2c-6.6 2.6-6.5 8.1-4.6 11.4l.4-.2 1.3 1.2c4.4-4.2 13.3 2 13.5 6.3.6 1.2 3.3 1.9 7.4-.9 1.8-1.4 3.3-2.9 2.9-6.2s-1.8-2-1.8-5 4.5-3.7 6.3-4.6c2.5-1.4 4.5-3.1 5.8-5.4 1.9-3.2 4-8.6 4-8.6s4.8-10.5 10.3-11.2h.6c6.7-.1 6.1 4.4 11.5 4.7 5.3-.9 5.6-3.7 11.3-3.8 2.2.5.7 5.9 6.7 6.2 5 .2 6-2.9 6-2.9s-4.3-8.3 5.5-14c.9-1.1.1-5.4-6.6-5.8-4-.6-5.8 3.1-5.8 3.1s-3.9-2.5-7.4-.3c-1.4.9-5 2.5-7.3 2.5-1.3-.1-7.3-.3-9.7-2.4-.8-1.7 2.5-6.9 2.5-6.9z"/>
  <path d="M698.2-280.5a101 101 0 00-14.9 11.1c-7.6 7.5-5.5 15.6-3.3 23.8s20.9 38.1 37.8 51.2c13.3 12 37.3 18 66 21.2 19 2.1 46.9-1.2 76.2-9.8 5.3-1.6 18.1-2.3 31.4-8.4"/>
  <path d="M807.8-160.2c14.1 18.5 46.5 32.2 46.6 52.7 0 2.5-1.8 5-1.6 7.5s4-2.6 6.9-3.8 4.7-.9 6.2-1.2c.4 2-1.2 7.7-1.2 7.7l3.7-2c.1 1.6.4 5.5 1.6 6.7 2.4 2.4 3.4-.6 5-2.5 3.8-4.5 3.4-5.7 7.2-10.2 7.6-8.9 7.4-17.1 15.4-24.9 4.1-4 9.6-22.9 2.4-36.5"/>
  <path fill="#f6f6f6" d="M608.2-364.4c-6.3-.8-12.7.3-18.5 2.9-1 3.6 1.1 7.8 3.8 10.4a8 8 0 002.1 1.5c2.2 1.2 5 1 7.3 0 1.8-.8 3.4-2 4.4-3.7.6-1 .9-2 1.2-3.1l.5-2.9c.2-1.4-.3-3.6-.8-5.1z"/>
  <g stroke="none" fill="#000">
    <path d="M991.6-280.2c3.8-.3 13.6-1.2 4.7.3a281.4 281.4 0 01-30.3 4.4l-13.8-3.8c19.3-.4 34.6-.6 39.4-.9zm-1.8 11c3.3-.8 4.2-1.3 7.4-2.3-3 1.3-3.3 1.5-6.2 2.6zM740.2-64.7c-3.3 2.1-5.6 5.3-8.6 7.7l-1.2-2.7c3.4-1.4 6.2-4 9.8-5zm-45.8 4.9c-.3-1.7-2.2-4.2-1.7-5.3.9 0 2.8-1.2 2.5.2-.2 1.7-.1 3.8-.8 5.1zm27.2-11.8c2.6-.1 5.3.2 8-.2 2.1-.7 5.6-2.3 7.2-.8-3.3-.3-5.6 2.6-8.7 3-1.9.4-5.7 2-6.6.4l.1-2.4zM703.9-89c.4 2.8-.7 7-2.9 8.2a10 10 0 00-.1-7.6l3-.6zm52.8 17.9a7.7 7.7 0 011.5-7.4c.5 1.2-.5 3.2.3 4.6.5 1 1.1 1.6-.2 2l-1.6.8zM773.8-107.3c-1.6-1.1-4.5-2-5.7-2.5 0-.9-.2-1.7-.3-2.6 1.8 0 3 1.3 4.2 2.4.5.8 2 2 1.8 2.7zm-7.3 10.5a7.8 7.8 0 00-5-2.5c-.6.3-.4-1-.7-1.5-.1-.6-.7-1.7.5-1.3 1.5.2 2.6 1.4 3.7 2.4.4.6 2.2 2.5 1.5 2.9zM780.2-110.8c-6 8.6-12.2 17.2-18.5 25.8 5.8-8.7 11.6-17.5 17.2-26.3zM758.9-86c-.8-1-2-1.4-3.2-2-.8-.3-1.7-.7-2.7-.7v-3c1 .1 1.8.9 2.7 1.4 1 .7 1.6 1.7 2.3 2.6.4.5.8 1 1 1.6l-.1.1zM710.3-44.6c1 1.1 1.8 2.3 2.5 3.5s1.2 2.5 1.5 3.9l-.3.1a16 16 0 00-5.6-5.2zM808.9-143.4c-4 2.6-3.1 6.8-4.8 8.2-1-3-.4-5.8 1-8.2zm-13.7 4.5c.5 4.5-.7 9-2.3 13.3-2.6-4.1-1-10 2.3-13.3zM562.7-347.6c1.1-1 3-.9 4.2 0 .6.5 1.3 1.3 1.3 2.1-.8.5-2 0-2.7-.2-1-.5-2-1-2.8-1.9zm7.5 7c1.5-.7 3.2-.5 4.5.5.8.6 1.5 1.5 1.8 2.5-1.7.2-3.5-.5-4.9-1.6-.5-.4-1-.8-1.4-1.4zM613.4-309.2c-2.1-.8-4.3-1.7-6.6-1.6-2.2.2 0-2.4 1-2.5 2.7-1.3 6 1.2 5.6 4.1zm45-9.9c-2 1-4.2 1.9-6.3 1.3-.9-2.7 4.5-4.3 6-1.9l.2.3zm-64.2-26c3 .7 6.2 1.7 9.3.8 2.5-.4 4.9-1.3 7.3-2.1.6 1.3-1.7 2.5-2.6 3.3-4.2 3-11.3 3-14-2zm30.2-5.9c1.8-2.3 5.2-1.9 7.6-.7 1.3.7 4.8 1.1 1.8 2.6-2.9 1-5.6-1-8.3-1.6-.4 0-.7-.2-1.1-.3zm4.7-6c-4 2.2-9.4 3.7-13.6 1-1.2-.5-2-2 0-1.5 4.5.5 9.1-1 13.6.4z"/>
    <path d="M599-363.5c2.4-.3.6 2.7 1 5.6s2.8 5.6.2 5.9c-2.5.3-5.9-3.4-6.4-6.9s2.6-4.2 5.2-4.6z"/>
    <path d="M648.6-313.3c-1.4 1.1-4 2.2-5.4.5.6-2.4 4.6-2.8 5.4-.5zm-16.8 9.5c-1.8 0-3.3-1.9-2.5-3.6 2-1.3 4.2 2 2.5 3.6zm-9.7-2.5c-1.8 0-3.3-1.9-2.5-3.6 2-1.3 4.2 2 2.5 3.6zm20.8-.4c-1 2.2-4.5 1.5-5.1-.5 1.2-2.3 4-1 5.1.5zm-52.4-53.4c-2.8 1-6.3 2.7-9 .8-1.8-2-1-2 .8-.7 2.6.5 5.3-2.9 7.1-2.3l1.1 2.2zm17.9-5.8c3.2.7 6.6.9 9.4 2.7-3.2.4-6.5.2-9.7.1l.3-2.8zm-23.8-2.7c6.1-3.4 14-6.8 20.8-3.4 1.6.8 4 2.9.4 1.5-7.2-1.3-14 2.2-21.2 1.9zm-44.2 15.1c-3.6-1.8-.4-5.7 2.4-6 2.3-.4 5.1.2 6.4 2.3a25 25 0 00-8.4 1.7c-.5.5-.5 1.3-.4 2zM835.8-46.2c-3 2.5-4.6 6.1-7.1 9-.5-1.1-2.7-2.6-.7-3.2 2.6-2 4.9-4.4 7.8-5.8zm39.6-.2c-1-3-1.4-8.4.5-10 1.6.5 2.8 1.1 1.2 2.7-1 2.2-1.5 4.7-1.4 7.2h-.2zm-84 12.6l-2.9-4.8c1.6-.7 3.7-2 3 1.1-.1 1 .6 3-.1 3.7zM816.3-50c2.5-.5 5-.6 7.4-1.3 1.7-1.1 7-3.6 7-2.1-3.1.6-5 3.6-8.1 4.6-1.6.5-5 2.5-6 1.2l-.3-2.4zM796-64.1c.7 3 .5 6.2-1.1 8.8-.5-1.1.3-3.3-.4-4.8.1-1.2-2-2.8 0-3.2l1.5-.8zm55 8.9c-1.4-2.3-1.1-5.3.2-7.5.6 1.2 0 3.6 1.3 4.8 1.6 1-.4 1.6-1.1 2.4l-.4.3zM862-93.7c-1.6-.5-3.2-1.4-5-1.5-.7.5-1.3-.2-1.2-.9-.1-.6-.7-1.4-.4-1.8 1.6-.3 3 .7 4.2 1.6l2.5 2.2-.1.4zm-5.5 11.5a7.1 7.1 0 00-5.4-1.6c-.6.3-.5-1-.8-1.3-.1-.4-1-1.5.1-1.4 2 0 3.6 1.1 5 2.3.5.5 1.3 1.3 1.4 1.8l-.3.2zM867.7-98c-4.5 9.4-9.2 18.9-13.9 28.3 4.4-9.8 8.8-19.6 13-29.5zM850.7-70.3c-.9-.9-2.2-1.1-3.3-1.4-1-.2-1.9-.5-2.8-.2l-.5-3c.7.1 1.5.2 2.2.5l2.1 1.3c1 .7 2 1.4 2.5 2.5l-.2.3zM809.7-21.4c1.6 1.3 3 2.8 4 4.5.4.6 1 1.5 1 2.1-.2.1-.3 0-.4-.1a16.4 16.4 0 00-5.7-3.8c-.2-.1-.7-.1-.4-.4l1.5-2.3z"/>
    <path d="M806.7-159.2c-3.3-4.5-9-6.2-12.7-10.3 4.2 3.3 10 3.8 14 7.5 2 1-.7 1.9-1.3 2.8zm82 17.5c3.2 2.2 2.7 6.9.3 9.4-1 1.4-.4 6-1.9 5.5-2.3-3.9-.6-7.6 1.5-11 .2-1.3.3-2.6.1-3.9zm-10.9 13.3c1.4 4.4.6 9-.2 13.5-3.3-3.7-2.7-9.8.2-13.5zm-15.5-30.2c-.4 4.4-1.3 8.6 1.8 12.3 1 1.3 1.6 9.9-.1 5.9-1.4-3.5-3.9-6.5-5.1-10-.2-3 1.7-5.8 3.4-8.2zm20.6-16.5c4.3-1 9 6.6 6.6 8-2.6-2.3-5-5-6.6-8zM804.7-297.6c-8.3-1.6-16 4.6-24.3 3-3.5-.2-6.4-3-9.9-2.8-2.8.9-2.6 4.8-5.4 5.9-4.3 1-9 2-12.1 5.6-1.8 2-6.2 4.8-2.2.6 3-4 7.1-7.6 12.3-8 2.9-1.4 2.6-5.8 6.1-6.6 4.6-1.5 8.2 2.7 12.6 3 7.7 1.2 15.5-4 23-.5zm-105.3-.2c3.7 3.7 7.5 8.9 6 14.4-.5.5-3.6-1-2.3-2.4.5-4.4-1.7-8.5-4.2-12h.3zm36.5-14.3c1.4 5-1.8 9.7-4.7 13.5a34 34 0 01-6.7 6c-.2-2.4 2.6-5.1 4-7.4 2.6-4 6-7.5 7.4-12.1zm34.5 66.2c3-2.6 6-5.4 9.7-6.9.6 2.7-2.8 5.7-5.5 6.7-1.3.5-2.8.6-4.2.2zm-10 13c3.4-2.1 7-4 10.9-4.8.5 1.4-1.6 2.8-2.6 3.7-2.3 1.5-6 3-8.3 1.1zm-23.4 6.4c3.7 3.4 10.3 1.3 13.5 2.6-3.5 3.7-11.1 3.7-13.3-1.6zm-13.8 9.9c4.5-.4 9 .5 13.3 1.3-1.1 2.2-4.9 2-7.3 1.7-2.2-.4-4.5-1.3-6-3z"/>
    <path d="M723.2-216.6c1.3-.2 2.4-.1 3.5-.1l3.3.3c2.1.3 4.2.6 6.5 1.1l.1.4c-1 .8-2.2 1.2-3.4 1.4a13.3 13.3 0 01-7-1 8.6 8.6 0 01-3-2.1zM718.1-302.8c-.6 2.6-1.8 4.9-2.9 7.2l-1.4 3.5c-.5 1.3-1 2.6-1.8 3.8a19.1 19.1 0 01-6.2 5.5l-3.5 1.9-3.3 1.8-1.5-2.6c2.3-1.4 4.7-2.5 6.9-3.6 2.2-1.2 4.1-2.6 5.5-4.4.7-.9 1.2-2 1.8-3.1l1.8-3.6c1.3-2.3 2.7-4.4 4.5-6.4zM770.9-212.6c14.7 2.9 29.5 5.5 44.2 8.3a104 104 0 01-44.2-8.3zm35.2-23.3c7.2 1.5 14.5 3 22 2.6 5.9 0 11.8 0 17.6.9a96 96 0 01-27.3 1c-4.3-1-8.4-2.4-12.3-4.5zm31.1-18.8a247 247 0 0032.4 3.1c2.8 0 5.2.6 1.3 1a58 58 0 01-33.7-4.1zm26.2-20.4a181 181 0 0025.7 5.4c-8.8 2-18.5 0-25.7-5.4z"/>
    <path d="M744.5-199.3c22.9 8.2 48 8.8 71.7 4.2 9.8-2.6 19.4-6.6 28-12 4-2.9 8.8-6.8 7.2-12.3 3 7.4-5 12.8-10.1 16.6a87.3 87.3 0 01-41.8 13.3c-18.7.9-38.2-1-55-9.8zm69.7-47.1c17.1 3.4 34.4 7.9 52 6 9.2-.1 18.8-1.8 26.2-7.6 5.8-1.4 11.7-12.7 11.7-13.3-.7 8.5-8.4 13.8-15 18.1-8.6 5.8-19.5 5.6-29.5 6.2-15.6.1-30.8-4.2-45.4-9.4z"/>
    <path d="M788.8-222.6c20.3 6.3 42 4.2 62.6.7 4-1 7.8-3.4 10.8-6.3 5-2.5 9.3-6.4 11.7-11.4-1.7 5.6-6 10.3-11 13.1a24.7 24.7 0 01-16.5 8.2 108 108 0 01-52.3-2l-5.3-2.3zm57.4-41.8c14.4 2.4 29 6.4 43.7 5 7-1.3 13.7-4.3 19.4-8.4a33 33 0 01-23.1 11.4A92.5 92.5 0 01847-264l-.8-.3zm62.8-9.8c-3-3.8-8.5-2.5-12.7-3.8-9-1.6-17.7-3.8-26.2-7.1 12 .5 23.9 3.5 35.3 7.1 1.5.8 3 2 3.6 3.8zM926-268.5c15.7 5 32.2 7 48.6 8.6 16.3 1.5 32.7 2.3 49.1 3.2a289 289 0 01-63.6-2 112.2 112.2 0 01-34.1-9.8zM906-244.2c17.2 3.2 34.8 2.2 52.2 1.6a793.3 793.3 0 0060.8-5.4 272.6 272.6 0 01-58.1 8.4c-14.6.7-29.2.7-43.6-1.7-3.8-.7-7.6-1.7-11.3-2.9zM886.3-218c16.8.4 33.4-2.3 49.9-5.1 22.9-4.3 45.8-9 68-16l8.6-3.1c-10 5.5-21.1 8.8-32 12a329.4 329.4 0 01-80.6 13.2c-4.6-.2-9.3-.3-13.9-1zM961.1-216.2c37.6 6 75.9 7.2 113.9 6 8.8-.3 17.6-1 26.3-1.9a609 609 0 01-140.6-1.2l.4-2.9zM909.3-183a58.3 58.3 0 0124 1.4 58.5 58.5 0 01-24-1.4zM900.1-196.2a454.4 454.4 0 00121.2 4.1 458.4 458.4 0 01-121.6-1.2zM898.6-166.2l-.9-8.3 3.7 7.5zM688.9-320.6c4.6 4 9.5 7.5 13.6 12 1.4 1 2.6 2.5 4.3 3.2 0 .4-3.4-.9-4.5-1.8-2.7-1.9-5.3-4-8.1-5.6a13.2 13.2 0 01-5.3-7.8zm-10.1 9.9c2.1 1 3.3 3.3 4.3 5.4.6 1.6 1 3.3 1.4 5-2.1-1-3.3-3.3-4.3-5.4-.6-1.6-1.2-3.3-1.4-5zm-15.9 10c4.3 3.3 6.3 9 5.8 14.4a48.3 48.3 0 01-5.8-14.4zm-9.3 12.7c1.7 6.4 2.8 13.6-.1 19.8-.7 1.2-.3-1.9-.5-2.7-.2-5.2-.4-10.6.3-15.8l.1-.7zm-12.7 14.6c.2 4 .5 8.2 1.1 12.2-3.8-2.6-4.2-9-1.1-12.2z"/>
  </g>
 </g>
</svg>
