<svg width="800" height="800" fill="#d7374a" stroke="#000" viewBox="50 50 200 200" xmlns="http://www.w3.org/2000/svg">
  <!-- Author: Azgaar. License: Public Domain -->
  <g id="sunInSplendour" stroke-width=".5">
    <path d="m 84.7,63 c -1,3.9 0.1,7.1 2,10.1 1.5,2.3 2.4,4.8 2.4,7.5 -0.7,0.4 -1.3,0.8 -1.9,1.2 L 71.8,71.7 82.2,86.9 c -0.2,0.3 -0.4,0.5 -0.5,0.8 -2.9,-1.3 -5.7,-1.6 -8.3,-1.1 -3.7,0.7 -6.9,-0.1 -10.2,-2 2.1,3.5 5.1,5 8.6,5.7 2.7,0.6 5.1,1.7 7,3.6 -0.2,0.7 -0.4,1.5 -0.5,2.2 l -18.1,3.7 18.1,3.5 c 0,0.3 0.1,0.6 0.2,0.9 -3,1.1 -5.2,2.9 -6.6,5.1 -2.1,3.1 -4.9,4.8 -8.6,5.8 3.9,1 7.1,-0.1 10.1,-2 2.3,-1.5 4.8,-2.4 7.5,-2.4 0.4,0.7 0.8,1.3 1.2,1.9 L 71.8,128.1 87.1,117.7 c 0.3,0.2 0.5,0.4 0.8,0.5 -1.3,2.9 -1.6,5.7 -1.1,8.3 0.7,3.7 -0.1,6.8 -2,10.1 3.5,-2.1 5,-5.1 5.7,-8.6 0.6,-2.7 1.7,-5.1 3.6,-7 0.7,0.2 1.5,0.4 2.2,0.5 l 3.7,18.1 3.5,-18.1 c 0.3,0 0.6,-0.1 0.9,-0.2 1.1,3 2.9,5.2 5.1,6.6 3.1,2.1 4.8,4.9 5.8,8.6 1,-3.9 -0.1,-7.1 -2,-10.1 -1.5,-2.3 -2.4,-4.8 -2.4,-7.5 0.7,-0.4 1.3,-0.8 1.9,-1.2 l 15.4,10.2 -10.4,-15.3 c 0.2,-0.3 0.4,-0.5 0.5,-0.8 2.9,1.3 5.7,1.6 8.3,1.1 3.7,-0.7 6.8,0.1 10.1,2 -2.1,-3.5 -5.1,-4.9 -8.6,-5.7 -2.7,-0.6 -5.1,-1.7 -7,-3.6 0.2,-0.7 0.4,-1.5 0.5,-2.2 l 18.1,-3.7 -18.1,-3.5 c 0,-0.3 -0.1,-0.6 -0.2,-0.9 3,-1.1 5.2,-2.9 6.6,-5.1 2.1,-3.1 4.9,-4.8 8.6,-5.7 -3.9,-1 -7.1,0.1 -10.1,2 -2.3,1.5 -4.8,2.4 -7.5,2.4 -0.4,-0.7 -0.8,-1.3 -1.2,-1.9 l 10.2,-15.4 -15.3,10.3 c -0.3,-0.2 -0.5,-0.4 -0.8,-0.5 1.3,-2.9 1.6,-5.7 1.1,-8.3 -0.7,-3.7 0.1,-6.9 2,-10.2 -3.5,2.1 -4.9,5.1 -5.7,8.6 -0.6,2.7 -1.7,5.2 -3.7,7 -0.7,-0.2 -1.5,-0.4 -2.2,-0.5 L 100,60 96.5,78.1 c -0.3,0 -0.6,0.1 -0.9,0.2 -1.1,-3 -2.9,-5.2 -5.1,-6.6 -3.1,-2.1 -4.8,-4.9 -5.7,-8.6 z"/>
    <g fill="#000" stroke="none">
      <path d="m 96.2,110.6 c 2.4,1.9 4.2,2.1 6.6,-0.1 -2.5,-2.1 -4,-2.3 -6.6,0.1 z"/>
      <path d="m 90.4,100.4 c 0.5,-1.6 -1.3,-2.1 -1.9,-0.9 l -1,-0.5 c 2.1,-2.4 4.5,-2.6 6.9,-1.4 0.8,0.2 0.8,1.3 -1.1,1.5 -1.2,-0.4 0.2,2.3 -2.8,1.2 z"/>
      <path d="m 89.3,95.1 c 1.8,0 3.4,-1 5.8,0.8 0.4,-1 -2.9,-2.8 -5.8,-0.8 z"/>
      <path d="m 103.3,96.1 c 1.7,-0.6 2.9,-2 5.8,-1.1 0.1,-1.1 -3.7,-1.7 -5.8,1.1 z"/>
      <path d="m 106,99.2 c -0.5,-0.6 -1.1,-0.3 -1.6,-0.2 -0.7,-1.8 1.1,-1.5 2,-1.9 2.5,-0.3 3,0.9 4.7,1.6 l -2.1,0.3 c -0.3,2.5 -2.8,1.5 -3,0.2 z"/>
      <path d="m 101.2,105.7 c 1.2,-0.1 1.8,1.3 0.5,1.7 -1.9,0 -1.6,-1 -0.5,-1.7 z"/>
      <path d="m 98,105.8 c 1.2,-0.1 1.8,1.3 0.5,1.7 -1.9,0 -1.6,-1 -0.5,-1.7 z"/>
    </g>
  </g>
</svg>