<svg width="800" height="800" fill="#d7374a" viewBox="50 50 200 200" xmlns="http://www.w3.org/2000/svg">
<!-- source: wappenwiki.org, CC BY-NC-SA 3.0 -->
 <g id="sword" stroke="#000" stroke-width=".28">
  <path d="m96.6 118.8 1.4-49.6c0-1.8 0.7-9.2 2-9.2 1.2 0 2 7.4 2 9.2l1.4 49.6z"/>
  <path d="m98.5 133.8-1.5-13.8h5.8l-1.3 13.8z"/>
  <path d="M100 120.9c4.2 0 8.2-.2 12.4-.6l-.8-3.2c-2 .4-3.5 1.3-5.4 1.5-2 .3-4.7-.3-6.2-.6-1.5.3-4.1.9-6.2.6-2-.2-3.5-1-5.4-1.5l-.8 3.2c4.2.4 8.2.6 12.4.6zM100 140c2 0 3.6-1.5 3.6-3.5 0-1.5-1-2.7-2.2-3.3-.4.2-1 .3-1.6.3-.5 0-1 0-1.3-.2-1.2.6-2 1.8-2 3.2 0 2 1.5 3.5 3.5 3.5z"/>
  <g fill="none">
    <path d="m 99,118.25 c 0,0 0.4,-39.35 0.9,-39.35 0.5,0 0.9,39.35 0.9,39.35"/>
    <path d="m102.7 121.4c-0.3 0.6-1.4969 0.85013-2.7 0.8-1.199-0.05-2.4-0.2-2.7-0.8m5.1 2.5c-0.2 0.5-1.3 0.7-2.4 0.7-1 0-2.2-0.3-2.4-0.7m4.6 2.3c-0.2 0.4-1.2 0.6-2.2 0.6s-2-0.2-2.2-0.6m4.2 2.3c-0.2 0.4-1 0.6-2 0.6-0.9 0-1.8-0.2-2-0.6m3.7 2.3c-0.2 0.4-1 0.5-1.7 0.5s-1.5-0.1-1.7-0.5"/>
    <path d="M97.6 137.1a2.4 2.4 0 014.8 0c0 1.3-1 2.3-2.4 2.3-1.3 0-2.4-1-2.4-2.3z"/>
    <path d="m100 118v2.9"/>
  </g>
 </g>
</svg>