<svg width="800" height="800" fill="#d7374a" viewBox="50 50 200 200" xmlns="http://www.w3.org/2000/svg">
<!-- source: wappenwiki.org, CC BY-NC-SA 3.0 -->
 <g id="wyvern" transform="matrix(.125 0 0 .125 50 70)" stroke="#000" stroke-width="3">
  <path d="M146.3 205.5c2-2 6.5-5.2 13.3-4.6 8.1.7 14.1 9.2 14.3 12.9.4 1.2-.6 1.6-.6 1.6s2.5 2.7 0 6.1c-1.3 1.7-6.4 2.8-6.4 2.8s-8.5-.3-9.6-3.3h0c-.6-1.8-1.5-.5.6-3.7.1-.1-.2.8.1-.3.2-.6 1.8-.5 1.4-2.9-.4-2.4-1.9-4.2-4-5.3-3.4-1.9-7.5-.7-10 0-.2-.1-3.4 1.2.9-3.3zM112.9 248.3c-.1-2.8.6-8.3 5.7-12.8 6.1-5.4 16.4-4 19.1-1.6 1.2.5.7 1.5.8 1.5 0 0 3.7 0 4.4 4.2.3 2.2-2.3 6.5-2.3 6.5s-6.1 6-9 4.7h0c-1.8-.8-1.4.7-2.3-3 0-.1.4.7-.1-.3-.3-.6.9-1.6-1.1-3s-4.4-1.5-6.7-.7c-3.7 1.2-5.7 5-6.9 7.3 0 .2-1.3 3.5-1.6-2.8zM122.2 301.1c-2-2-5.3-6.4-4.7-13.2.7-8.1 9.1-14.2 12.7-14.4 1.2-.4 1.6.6 1.6.6s2.7-2.6 6.1 0c1.7 1.3 2.8 6.3 2.8 6.3s-.2 8.5-3.2 9.6h0c-1.8.7-.5 1.5-3.7-.5-.1-.1.8.2-.3-.1-.6-.2-.5-1.8-2.9-1.4-2.4.4-4.2 2-5.3 4.1-1.8 3.4-.6 7.5.1 10 0 .1 1.3 3.3-3.2-1zM183.3 321.6c2.8.5 8.3.6 13.5-3.9 6.2-5.3 6.2-15.7 4.2-18.7-.3-1.2-1.4-1-1.4-1s.5-3.7-3.5-4.9c-2.1-.6-6.8 1.4-6.8 1.4s-6.8 5.2-5.9 8.2h0c.5 1.9-.9 1.3 2.6 2.7.1 0-.6-.5.3.2.5.4 1.7-.6 2.8 1.5 1.1 2.2.8 4.5-.2 6.7-1.7 3.5-5.8 4.9-8.2 5.8-.1.1-3.5.8 2.6 2z"/>
  <path d="M315.3 272.4c-17.2 1.5-33.1 14.4-38 17-3.1 1.6-4.6 3.1-7.4 3-3.7-.2-7.9-4.8-16.9-8.8-7-3.1-15.6-5.6-24.5-7.6s-29-5-36.7-4.7c-1.2-.1-1.2 1.3-.5 2.3 4.6 6.9-1.9 6.8 2.1 11.1.3.2.7.4.9.6.6.6 1.5 2.1 1.7 2.6.1.3.1.5.1.5v.1c.1.4.5.6.9.6 0 0 3.4.2 5 2.7.2.2 1.6 2.7 1.3 4.8-.3 2.1-1.7 2.5-1.7 2.5-2-.1-11.7.3-15.1 6.8-1.6 1.3-4.4-.8-5.3-2-.4-.6-1.2-2-1.4-2.6-1.2-4.2 1.7-6.4 1.7-6.5.2-.1.3-.3.3-.6v-.3c0-.1-.1-.2-.2-.3 0 0 0-2-3-4.8-2.4-2.9.2-6.9-3-9.2-2.3-1.4-3.8-.3-5.2 1.1-4.1 3.5-6.1 2.3-9.3 2.3-4.4.7-3.7 4.8-9.5 3.1-3.9-.8-5.4.2-5.4.2h-.4c-.1 0-.2.1-.2.1-.2.1-.3.4-.3.6 0 .1-.2 3.7-4.3 5.2-.6.2-2.2.4-3 .4-1.4 0-4.7-1.1-4.7-3.1 3.2-6.5-2.1-14.7-3.3-16.2 0 0-.5-1.4 1-2.9s4.4-1.7 4.7-1.7c3-.1 5.1 2.5 5.1 2.5.2.4.6.5 1 .4h.1l.4-.2c.5-.2 2.3-.4 3.1-.2 12.1 3.2 5.2-4 16.7-3 1.1.7 1.5-.1.3-1.7-6.1-7.4-11.3.5-17.5-8.7-2.3-3.3-4.3-3.6-4.3-3.6-.1-.1-.2-.2-.3-.2-.1 0-.2-.1-.3-.1-.2 0-.5.1-.6.2 0 0-2.7 2.5-6.7.8-.6-.3-1.9-1.3-2.4-1.8-1-1-2.7-4-1.2-5.5 6.9-2.5 8.7-12.1 8.9-14 0 0 .6-1.4 2.7-1.4s4.4 1.8 4.6 2c2.2 2 1.9 5.3 1.9 5.4-.1.4.1.8.4 1h.1l.4.2c.5.2 1.9 1.3 2.4 2 4.4 7.1 8.4 1.7 13.7 7.7 2 2.5 1.9.5 1.9-.4.1-7-7.4-3.9-4.6-14.8.9-3.9-.3-5.6-.3-5.6v-.4c0-.1-.1-.2-.1-.2-.1-.2-.4-.3-.6-.3-.1 0-3.7-.2-5.1-4.3-.2-.6-.4-2.2-.4-3 0-1.4 1.1-4.7 3.2-4.6 6.5 3.3 14.7-1.9 16.3-3.2 0 0 1.4-.5 2.9 1 1.4 1.5 1.7 4.4 1.7 4.7 0 3-2.5 5.1-2.6 5.1-.4.2-.5.6-.4 1v.1l.2.4c.2.5.3 2.3.2 3.1-.1.3-.2.6-.4 1-.6 1.4-1.9 4-.2 6.7 1.6 2.6 3.1 3.6 3.1 6.6-.3 2.8.8 5 2.3 6.4 1.5 1.5 3.4 2.3 4.3 2.4 2.7.7 7.6 1 14.4 1.1 3.1 0 6.6 0 10.4-.1 3.8-.1 7.9-.3 12.3-.5 4.6-.2 16.4-.6 16.9-.6 6.4.3 8.4 1.4 14.9-.5 4.1-1.7 7.4-2.7 10.7-5.2 5.8-4.4 20.1-15.8 23.1-18.8l27.4 1.3 3.4 18.2-3.8 25.3z"/>
  <path d="M263.9 246.8c3.3 2.6 5.1 7.5 3.3 9.7-1.8 2.1-12.5 5.1-15.8 2.4-6.5 1.9-8.9-.2-15.3-.5-3 2.3-11.5.8-15 0-2.6 2-11.3 2.2-13.3.4-3.4 2.7-10.5-.2-12.3-.5-7.3.5-12.8-7.3-12.8-7.3" fill="none"/>
  <path d="m251.3 258.9s1.1-3.8-1.8-6.5m-41.7 6.4s0.6-4.5-1.2-5.8m28-1c2.9 3.1 1.5 6.4 1.5 6.4m-16.3-5.7c2 2.2 1.3 5.7 1.3 5.7m-25.9-5.4c1.5 1.9 0.4 5.4 0.4 5.4" fill="none"/>
  <path d="M283.5 266.6s.4 0 1.2-.1c.4-.1.9 0 1.4-.2.5-.1 1.1-.2 1.7-.4.6-.2 1.3-.4 2-.7.7-.3 1.4-.6 2.2-1 .7-.4 1.5-.8 2.2-1.2.7-.5 1.5-.9 2.2-1.4.7-.5 1.4-1 2.1-1.6.7-.5 1.3-1.1 1.9-1.6 1.2-1.1 2.3-2.2 3.2-3.1.9-.9 1.6-1.8 2.1-2.3.2-.3.4-.5.6-.7l.2-.2 2.3 2s-.1.1-.2.3l-.7.7c-.6.6-1.4 1.3-2.4 2.2-1 .9-2.3 1.9-3.7 2.9-.7.5-1.4 1-2.2 1.5-.7.5-1.5 1-2.3 1.4-.8.5-1.6.9-2.4 1.3-.8.4-1.6.7-2.4 1-.8.3-1.6.6-2.3.8-.8.2-1.5.4-2.1.5-.7.1-1.3.2-1.9.2-.6.1-1 0-1.4 0h-1.2l-.1-.3z"/>
  <path d="m412-55.5c2.2 5.3 14.7 12.6 14.7 16.2s-13.6 11.9-15 16.1"/>
  <path d="M365.7-84.3c5.8-3.3 18.2-7.3 21.6-15.9 9 6.1 21.9 1.8 27.8-5.6 6 9.1 25.4 4 31.8-2.9-.3 20.5-28.6 18.3-28.3 35.9-9.4 2.1-16.5 8.8-18.4 17.1-9.4-2.8-18.1 4.3-29.5-.3"/>
  <path d="M292.2-52.7c2.1 2.7 6 7.2 9.2 8.5-.1-3.2 1.1-6.3 3.2-8.8m-24.9 2.6c1.7 3.1 3.7 7.4 7.2 8.8 1-2.9 1-8.2 1.9-11.2m-21.2 4.6c-.1 2.9 1.4 7.2 2.6 8.4.5.5.7 1.6 1.5 1.4.5-.1.8-.5 1-1 .6-1.2 1-7.2 2-9.1m-23.2-2c.8 5.8 4.3 14 8.2 18.5-.2-4.5.4-11.7 2-15.9m12.6 41.4c-2.7-2.8-4.9-12-4-15.7 3.5 3.2 6.9 9.8 15 11.6-1.8-4.1-.1-9.5.8-10.5 3.8 4.1 8.3 8.5 14 8.9-.4-2.8-.3-5.6.3-8.3 2.3 3.1 6.6 7.1 10.5 8.2" fill="#f6f6f6"/>
  <path d="m393.9 28.9c-0.4 5.8 7.3 17.9 5.6 21.2-1.7 3.2-17.5 4.4-20.7 7.5m29.3-70.2c1 5.7 11.6 15.5 10.7 19.1-1 4.2-16.3 9.3-18.2 12.4m-26.1 48.8c-0.7 5.7 6.5 18.2 4.6 21.4-1.8 3.2-17.7 3.5-21 6.5m-3.1 11.5c-0.2 5.8 8.2 17.5 6.7 20.9-1.5 3.3-17.3 5.2-20.3 8.5m33.3 5.1c1.9-5.4-2.4-19.2 0.1-21.9s18 0.4 21.9-1.8m7.6-10.1c2.8-5 1-19.3 3.8-21.6 2.9-2.2 17.7 3.5 21.9 2m159.5 62.3c3.7 4.4 17.7 7.7 18.8 11.2s-9.5 15.4-9.6 19.8m4.9 10.9c2.8 5 16 10.8 16.5 14.4 0.4 3.6-12.1 13.4-13 17.7m2.5 12.4c1.9 5.4 13.9 13.4 13.7 17.1-0.2 3.6-14.2 11.1-15.9 15.2m-3.7 9.9c1 5.7 11.5 15.5 10.7 19.1-0.8 3.5-15.9 8.6-18.2 12.4m-4.9 10c-0.8 5.3 5.6 17.1 3.8 19.9-1.8 2.9-16.5 2.9-19.6 5.6m-7 8.7c-1.7 5.1 2.6 17.8 0.3 20.3-2.2 2.5-16.7 0-20.3 2.1m-9.1 9.5c-2.4 4.6-0.4 17.4-2.9 19.4-2.5 2.1-16-2.6-19.7-1.2m-8 6.3c-2.1 4.7 0.9 17.3-1.5 19.6-2.4 2.2-16.1-1.5-19.7 0.2m-8.5 7.9c-2.5 3.8-1.9 15.3-4.3 16.8-2.4 1.6-13.8-3.8-17.2-2.9m-55.8 70c1.3 3.7 9.4 9.2 9.3 11.7-0.2 2.5-9.8 7.5-10.9 10.3m19.7-54.6c-1 3.8 2.9 12.9 1.4 14.9s-12.3 0.9-14.8 2.6m41.2-46.2c-2.1 4-0.1 15.2-2.3 17.1-2.2 1.8-14-2.1-17.3-0.8m-26.9 77.9c2.3 3.3 11.8 6.5 12.3 9s-7.5 10.1-7.9 13.1m3 11.6c2.3 2.9 11.1 5.2 11.7 7.5 0.6 2.2-6.3 9.5-6.5 12.3"/>
  <path d="m275.1-31.9c-25.2 3.7-38.3 0.7-49-4.3 11-1.8 16.1-10 16.1-10-15.1 1.6-33.4 1.1-49-9.6 7.7 23.6 19.8 37.7 28.1 39.5 0.5 0.1 0.6 0.1 0.8-0.4 0.2-0.4-0.6-1.6-1-4.9s0.4-5.8 0.4-5.8c18.7 9.2 43.1 4 63.5 1.3 24.9-3.3 42.1-1 63.3 11.7l2.1-6c-20.9-13.3-43-16.2-75.3-11.5z"/>
  <path d="m584.6 140.9c-13.9-25.2-34.6-48.1-61.8-57.5-17.3-6-36-7.1-54.3-6.1-56.8 3.2-88 54.8-96.7 65.8-6.9 8.7-13.3 15.1-24.5 15.1-26.9 0 32.3-95.7 45.9-121.5 10.8-17.8 21.3-48.9 21.3-74 0-15.4-5.9-28.4-8.4-32.1-3.7-5.5-7.1-14.5-11.9-19.1-6.6-6.4-8.6-10.7-20.8-14.2-11.7-3.3-28.4 1.7-43.1 0.7-13.2-0.5-14.7 9.4-26 7.6-0.5-0.1-0.9-0.1-1.4-0.1-2.7 0.2-2.3 3.5-1.9 5.3 0.3 1.4 0.8 2.2 0.1 3.6s-1.8 2.6-3.4 3.2c-1.7 0.7-3.7 0.7-5.5 0.8-8.2 0.1-16.4 0.2-24.5-0.8-4.2-0.5-8.5-1.4-12.5-0.2-2.1 0.6-4.9 1.8-7.1 1.9-5.3 0.2-5.6-3.9-9.2-4.5-3.8 3.7-4 8.9-2.2 12.6 1.6 3.2 2.8 4.5 4.1 6.3 2.1 2.9 1.9 6.8 3.1 10.2 1.6 4.6 4 7 9.2 9.5 3.7 1.7 6.4 2.3 10.5 2.2 4.4-0.1 10.6-3.2 12.4-4.1 6-2.8 13.6-5.2 20.2-4.8 6.2 0.4 14.8 3.3 18.4 5.2 0.3 0.2 0.5 0.4 0.8 0.4 0 0 5.8 2.1 11.2 6.7 5.1 4.3 8.9 10.7 11.4 15.8 0.4 0.8 0.8 1.6 0.7 2.5-0.1 1-5.8 3.3-10 3.6-3 0.2-6.5-0.1-10.5 0.9-2.7 0.7-8.4 2.7-12 3.5-4.4 1-9.5 1.9-14.1 2.5-10.5 1.2-15.9 0.7-26.4 1.9-1.1 0.1-1.3 0.4-1.9 1.5-1.2 2.3 1.2 5 3.2 6.7 2.5 2.5 6.2 1.6 7.6 4.6 1.7 4.9-3.8 7.8-1.7 7.8 6.8-1.5 8.9-6.3 8.9-6.3s1.7 4.7 0.8 7.8c-1.1 3.7-4.9 5.2-4.3 6s8.6-2.9 11.1-7.4 2.3-8.9 2.3-8.9 5 2.5 10.3 1.2c5.7-1.4 4.5-6.8 14.7-8.6 6.5-1.1 8 1.6 19.9-1.3 3.7-0.8 6.3-1.3 8.9-2.5-0.1 7.7-7.3 8.2-9 14-6.1 0.2-15.5 11.5-16.6 17.7-7.1 5-12.3 13.5-15 17.5-3.6 4.2-5.2 4-8.6 8.6-1.6 2.1-5.4 9.8-7.1 12.1-4.6 2.4-13.1 11.4-13.3 20.4l0.1 0.1-0.2-0.1c-7.8 2-16.4 20.2-16.1 26.5-4.6-1.1-14.2 21.6-10 29-10.2 5.5-8 28.1-6.3 32.7-5.8 0.7-6.1 32.8 2.8 33.6-3.7 6.4-1.4 28.6 7.6 29.3-2.3 9.4 15.1 26.6 20 24.1-4.4 8.8 11.9 21.8 26 21.6-0.3 6.7 21.4 17.1 30.2 12.6 6.2 8.9 33.5 3 33.5 3l38.5-7.8c8.1-0.2 20.2-0.2 27.5-2 1.7 0.9 13.6 7.9 17.7 7.6 1.8 4 5.2 7.2 8 10.5-1 8.3 6.9 16.2 6.6 17.2-0.6 2.8-1.6 7.3 1.9 14.9-3 6.7-3.2 14.1-3.2 14.1s-4 5.1-5.6 8.8c-1.7 3.8-1.9 6.7-1.9 6.7s-4.9 4.3-7.7 8.4c-2.9 4.3-3.6 8.4-3.6 8.4s-4.1 1.6-9.3 5.6-5.2 7.8-5.2 7.8-5.3 1.4-9.1 4.6c-3.6 3.1-6.8 8.7-6.8 8.7-5.6-1.1-15.6 9.6-17.3 13.8-2.7-2.1-16.9 8.7-16.4 14.7-6.7 0-15.1 14.3-13.2 17.4-3.7-1.3-15.2 17.7-11.7 22.5l-0.3 0.2c-4.4 8.1-5.6 16.1-5.1 25.3 0 0-1.7 11.2 3.6 23.4 0.3 7.2 2.3 16.8 5.3 22.4 0.9 2.7 1 7.8 1.8 10.3 1.7 5.5 2.3 5.5 4.3 10.6 1.2 4.6 3.2 14.4 8.3 21.5 3.5 7.2 4.5 13.5 10.1 19.6 3.7 7.1 12.5 16.5 16 20.5-1.2-0.7-18.9-13-28.6-11-5 0.2 12.7 35.6 17.3 50.4 7.7 21 10.4 50 12.9 50.9 2.5 0.8 18.8-25.6 28.7-52.9 9.1-25.2 11.3-52.5 9-53.8-5.3-3.5-18.8 13.6-22.3 16 3.3-19.7-3.9-37.8-10.1-61.6-4.8-18.3-2.8-42.5 6.1-59.5 7.9-15.2 19.2-28.4 32.4-39.2 24.1-19.6 82-60.5 122.1-104.2 28.1-30.7 41.2-65 44.8-106.8 3.4-40.1-4.9-81.1-24.4-116.1z"/>
  <path d="M345.3-10.2c3.2-2.1 8.6.7 11.9-.9 4.7-2.3.6-7.1-.6-11.5" fill="none" stroke-width="2.376"/>
  <path d="M330.4-80.4c-.1 3-2.1 5.8-4.5 7.4-2.2 1.4-5.4 1.1-7.6-.3-1.1-.7-2-1.7-2.8-2.6-1.4-1.7-2.6-3.5-3.2-5.5-.2-.6-.3-.7-.3-1.2 2.2.4 3.6.7 6.4.5 1.9-.2 3.8-1 5.6-1.6 1.8-.6 3.4-1.8 5.1-2.7 0-.2 1.4 1.9 1.3 6z" fill="#f6f6f6" stroke-width="2.376"/>
  <path d="M377.8-85.1c6.5-1.9 19.5-2.8 25.1-10.4 7.1 8 20.7 6.8 28.4 1 3.5 10.2 23.6 9.7 31.5 4.6-5.6 19.8-32.5 11.1-36.8 28.2-9.7-.1-18.3 4.7-22.2 12.3-8.4-4.9-18.6 0-28.5-7.2"/>
  <path d="M260.9 390.8c-.7-2.8-1.2-8.2 2.8-13.8 4.8-6.6 15.1-7.5 18.3-5.7 1.2.2 1.1 1.3 1.1 1.3s3.6-.8 5.2 3.1c.8 2-.8 6.9-.8 6.9s-4.6 7.2-7.7 6.5h0c-1.9-.4-1.2 1-2.9-2.4 0-.1.6.6-.2-.3-.4-.5.5-1.8-1.8-2.7-2.3-.9-4.6-.5-6.6.8-3.3 2-4.4 6.1-5.1 8.6-.1.3-.6 3.8-2.3-2.3zM280.8 441.4c-2.5-1.4-6.8-4.8-8.1-11.5-1.5-8 4.9-16.2 8.4-17.3 1-.7 1.7.1 1.7.1s1.9-3.2 5.9-1.6c2 .8 4.4 5.3 4.4 5.3s2.1 8.3-.5 10.1h0c-1.6 1.1-.1 1.6-3.7.5h-.3c-.6 0-.9-1.6-3.2-.6-2.2 1-3.5 3-4 5.4-.8 3.8 1.4 7.4 2.8 9.6 0 .2 2.1 2.9-3.4 0zM331 460.2c-2.8.7-8.2 1.3-13.8-2.6-6.6-4.7-7.6-15.1-5.9-18.3.2-1.2 1.3-1.1 1.3-1.1s-.8-3.6 3.1-5.2c2-.8 6.9.8 6.9.8s7.2 4.5 6.6 7.7h0c-.4 1.9 1 1.2-2.3 2.9-.1 0 .6-.6-.3.2-.5.4-1.8-.5-2.7 1.8-.9 2.3-.4 4.6.8 6.6 2 3.3 6.2 4.4 8.6 5 .2.1 3.7.5-2.3 2.2zM379.7 418c1.8-2.2 4.7-6.9 3.5-13.6-1.4-8-10.3-13.4-14-13.2-1.2-.3-1.5.7-1.5.7s-2.9-2.3-6.1.5c-1.6 1.5-2.3 6.6-2.3 6.6s1 8.4 4.1 9.3h0c1.9.5.6 1.4 3.7-.9 0-.1-.8.3.3-.2.6-.2.3-1.8 2.8-1.6 2.4.2 4.3 1.6 5.6 3.6 2.1 3.2 1.3 7.5.8 10 0 .2-1 3.5 3.1-1.2z"/>
  <path d="M341.1 273.6s-.7 6.6 3.9 17.3c1.8 3.9 10.3 11.3 11.1 18.6.5 4.1-.3 7.5-.9 11.9-1.7 6.6-3.7 7.7-7.2 13-.3.4-5.9 10.8-8.1 14.9-2.1 3.9-4 7.5-5.8 10.8-1.9 3.4-3.6 6.4-5.2 9-3.5 5.8-6.3 9.9-8.2 11.8-.6.8-2.3 2-4.3 2.5s-4.4.4-6.7-1.3c-2.6-1.6-4.2-.7-7.3-.7-3.1.1-4.8-2.4-5.6-3.6-.2-.3-.4-.6-.7-.8-.6-.6-2.2-1.3-2.7-1.4-.3-.1-.5-.1-.5-.1h-.1c-.4-.1-.7-.4-.6-.8 0 0-.5-3.3-3.1-4.8-.2-.1-2.9-1.4-4.9-.9-2 .5-2.3 1.9-2.3 1.9.3 2 .6 11.7-5.5 15.6-1.1 1.7 1.2 4.3 2.4 5.1.7.4 2.1 1.1 2.8 1.2 4.2.8 6.3-2.2 6.3-2.2.1-.2.3-.3.5-.4h.3c.1 0 .3.1.4.2 0 0 2-.2 5 2.6 8 7.9 9.1-.1 15.1 3.5.7.5 2.5 1.5-.6 1.9-7.8 1.5-5.2 7.7-13.6 7.9-.8.1-2.5.7-2.9 1-.2.2-.4.3-.4.3h-.1c-.3.2-.8.2-1-.1 0 0-2.8-1.9-5.6-1.1-.3.1-3 1.1-4 2.9-1 1.8-.2 3-.2 3 1.6 1.1 8.9 7.6 7.6 14.8.5 2 4 2.1 5.3 1.8.7-.2 2.2-.8 2.8-1.2 3.5-2.5 2.7-6.1 2.7-6.1-.1-.2 0-.5.1-.6l.2-.2c.1-.1.2-.1.4-.1 0 0 1.3-1.6 5.3-1.9 11.1-.7 6.9-9.1 16.4-10.6 2-.3 2.5.5 1.3 1.1-6.7 9.4 3 7.2-5.9 15.9-.6.6-1.3 2.2-1.4 2.8-.1.3-.1.5-.1.5v.1c-.1.4-.4.7-.8.6 0 0-3.3.5-4.8 3.1-.1.2-1.4 2.9-.9 4.9.5 2 2 2.3 2 2.3 1.9-.3 11.7-.7 15.7 5.4 1.8 1.1 4.3-1.2 5.1-2.4.4-.7 1-2.1 1.2-2.8.8-4.2-2.2-6.3-2.3-6.3-.2-.1-.3-.3-.4-.5v-.3c0-.1.1-.3.2-.4 0 0-.1-1.8 2.6-4.8 4.5-4.1.6-5.6 2.2-9.8 1.7-2.8 3.7-3.9 2.8-9.2-.5-1.9-.7-3.8 1.7-5 3.6-1.6 5.8 2.7 9.5 2.1 3.9-1.2 5.6-.1 5.6-.1h.4c.1 0 .2.1.3.1.2.1.3.3.3.6 0 .1.5 3.7 4.7 4.8.6.2 2.2.2 3 .1 1.4-.2 4.6-1.5 4.4-3.5-3.8-6.2.7-14.9 1.8-16.5 0 0 .3-1.5-1.3-2.8-1.6-1.3-4.5-1.3-4.8-1.3-3 .2-4.8 3-4.9 3-.1.4-.6.6-.9.5h-.1s-.2-.1-.5-.1c-.5-.1-2.3-.2-3.1.1-.3.1-.6.3-.9.4-5.8 1.2-2.4-4.3-10.7-3.8-1.2.1-2.4-.6-1.8-1.6 3.7-6.8 16.5-22.6 22.8-29.2 6.3-6.7 12.8-12.8 19-17.3 8-5.7 14.1-7 16.2-10.1 1.5-2.3 1-4.4 1.2-7.9.3-5.6-4.6-18.6-1.5-31.3.6-2.6 3.1-2.2 3.8-5.3" stroke-linecap="round" stroke-linejoin="round"/>
  <path d="M356.2 310.6c3.9-1.5 9.1-.5 10 2.1.9 2.6-2 13.4-6 14.9-1.7 6.6-4.8 7.6-8.2 12.9.4 3.8-5.2 10.3-7.6 12.9.4 3.2-3.8 10.9-6.4 11.7.6 4.3-5.5 8.9-6.7 10.4-3.3 6.6-12.8 7.4-12.8 7.4" fill="none"/>
  <path d="M360.2 327.5s-2.7-2.9-6.5-1.8M338 365s-3.6-2.8-5.6-1.9M345.8 338.4c4.1-1 6.3 2 6.3 2m-13.3 11.1c2.9-.6 5.6 1.8 5.6 1.8m-17.8 19.6c2.4-.3 4.8 2.4 4.8 2.4" fill="none"/>
  <path d="m243.4 168.8s7-2 17.7-2.2c10.8-0.2 22.1 1.4 22.1 1.4m-29.4 63.8s9.4-7.2 19.4-12.4c10.1-5.2 19.8-8.5 19.8-8.5m6.8 66.5s3.9-10.2 9.2-18.8c5.2-8.3 11.5-13.9 11.5-13.9m9.5 45.3s1.2-14.6 5.1-23.4"/>
  <path d="m306.4 229.4c0.1 0.7-8.9 5.4-17.6 12-8.2 6.2-15 14.4-15 14.4m10.8-66.3s-9.1 0.3-20.7 3.6c-11.1 3.2-17.7 9.4-17.7 9.4m38.9-59.6s-7.3-2.7-15-4.5c-7.1-1.6-20.4-2.3-20.4-2.3m10-29.1s8.2 0.7 15.2 2.7c10.7 3 18 8 18 8m11.7-24.4s-9-8.4-28.9-12.8"/>
  <path d="m304.6 93.3c1.3-2.7 5.3-7.6 6.9-10.7 1.3-2.6 2.4-6 4-8.9s4.6-6 6.4-9.1c1.8-3 3.2-9.1 5.2-12.2 1.6-2.5 3.7-6 6.4-9.4 1.9-2.3 4.5-11.1 4.5-11.1m-22.6 41.6s-18.3-12.7-26.2-13.1m37.9-8.1s-12.7-12.1-22.2-12.8m33.2-7.5s-11-8.8-18.2-9.7"/>
  <path d="M426.7 424.5c6.2 1.7 16.1-7.1 18.4-11.7 2.8 2.6 17.5-8.4 17.5-15.2 9.3.2 15.8-14.4 16.4-18.3 4.3 1.9 17.3-18.4 11.5-22.5 5.1-3 11.1-21.6 4.8-25 4.7-6.2.5-23.4-3.9-23.1 6-5-5.5-24.1-10.7-23.6-1.2-2.3-1.6-6.1-8.1-12.1-3.8-3.5-5.9-4.3-10.5-5.4-2.1-3.1-9.1-7-12.7-8.1-7.6-2.3-12.6-2.2-13.8-1.6-5-6-24-4.7-25.9-3.4" fill="none"/>
  <path d="m462.1 267.5s-10.4 12.8-14.8 23.3m-19.1-7.6c1.3-10.4 7.5-25.4 7.5-25.4"/>
  <path d="m397.5 451.3s-4.9-7-9.3-10.4c-4.1-3.2-10.5-5.9-10.5-5.9m16.4-14.8s2.2 2.1 6.1 5.5c6 5.2 9.2 11.6 9.2 11.6"/>
  <path d="M347.3 500.3c11.7-1.3 22.5 0 22.5 0M338.1 32c5.7-4.2 9.8-14.7 9.8-18.9 0 0 10.2-7.8 8.5-23.1"/>
  <path d="m347.9 13.1s-2-3-4.9-5.2-6.6-3.5-6.6-3.5" fill="none"/>
  <path d="m612.9 63c4.7 2.1 6.9-2.3 15.1 1.9 0.3-0.5-2-8.8-13.2-9.1m-171.2 204.6c-1.5 8.4 1.2 10.4-1.7 16.1 10.1-3.3 9-13.3 9-13.3m81.9 14.5c0.9 3.8 5 6.3 5.6 13.3 6.8-7.1 1.2-14.8 1.2-14.8m50.1-53.7c6 3.3 10.4 1.3 13.8 6.6 2.4-8.5-9.5-15.1-9.5-15.1m10.9-73.4c6.3 1.8 7.7-2.4 15 1.9-0.3-2.4-2.2-5.3-4.2-7.2-3.2-3-7.6-4.3-7.6-4.3"/>
  <path d="m405.1 223.5c25.5 12.5 39.7 44.6 38.1 40.6 4-1.6 7.8 0.5 7.8 0.5s13.7-10.4 43.9-5.4c32.2 5.3 35.6 18.3 38.3 19.2 3.8-3.7 6.5-2.1 6.5-2.1s-2.1-15.6 15.7-34.5c17.7-18.9 28.1-16.9 34.6-19.1-0.6-5.3 4.3-8.5 4.3-8.5s-12.2-8.5-10.1-36.2c2.7-20.7 12.7-30.2 21-37.2-1.9-6.6 3.2-9.6 3.2-9.6s-13.8-9.5-13.8-33.5c0-19.3 14.5-34.4 18.7-34.5-0.7-2.3 1.9-5.7 2.4-7.2-2.6-0.9-9.6-3.5-12.9-4.4-14.4-4-90.6-19.3-152.9 24.4-17.7 12.4-35.6 44.2-37.7 47.9-13.6 20.2-20.189 33.026-40.583 37.794"/>
  <g fill="none" stroke="#000">
   <path d="M320.6 244.7c-3-9.9-14-14-14.2-15.3-.7-3.5-5.6-11.5-13.5-18.5.1-9.1-8.3-21.4-8.3-21.4s.7-6.3.2-11.3c-.5-5.2-1.6-10.1-1.6-10.1s2.2-6 2.7-12.2c.5-6.4-.8-13-.8-13s3.4-4.3 6.6-11.9c3.2-7.6 1.3-13.3 1.3-13.3s7.5-7.8 9.6-13.6c2-5.6 2.1-10.8 2.1-10.8"/>
   <path d="M369.8 500.3s1 3.8 1.4 10.4c.2 2.4-1.3 8.5-1 11.6.3 2.9 2 7.7 2.4 11.1.4 2.9.3 6.4.8 9.7.5 3.2 2.3 7.2 3 10.7.7 3.4.1 6.5.9 10.1.7 2.9 2.8 6.3 4.2 10.4 1 2.8 1.4 6 1.9 9.7 1.2 4 2.6 5.3 4 9.5 1.3 3.8 2.5 12.3 2.5 12.3s2.2 5.4 3.5 8.8c1.4 3.6 1.9 10.2 3.2 13.9M373.3 543.4s-9.4 4.8-17 2.6M370.2 522.2s-11.8 3.6-19.4 1.4M377.2 564.1s-5.9 5.5-15.1 2.9M383.7 584.7s-6.1 5.1-13.1 3.5M389.8 606s-4.2 3.3-9.1 1.9"/>
   <path d="m479 379.3s-4.7-1.4-12.2-5.5c-7.5-4.2-13.8-10.8-13.8-10.8m42.3-31.2s-5.2 3.2-14.2 3.8c-9.1 0.6-17.2-2.2-17.2-2.2m16.8-48.4s-3.8 6.7-11 10.4c-6.8 3.5-14.4 5.8-14.4 5.8m6.6 17.3c0.2-0.5 6.3-1.1 14.8-3.1 8-1.9 14.7-6.7 14.7-6.7m-30.8 38.8s5.5 4.4 14.8 6.7c9 2.2 15.1 2.5 15.1 2.5m-48.8 23s4 4.8 8.6 9.1c4.3 4 12.3 8.7 12.3 8.7m-17.5 15.3s-4.5-2.8-8.5-6.9c-6.2-6.4-9.4-12.7-9.4-12.7m-15.8 13.3s3.3 8 15.3 18"/>
   <path d="m364.4 452.4s2.3 0.9 9.2 4c7 3.1 11 9.6 11 9.6m42.1-41.5s-1.9 3.2-4.9 6.2c-3.1 3.1-12.4 6.8-12.4 6.8s-0.7 4.3-5 8.2-6.9 5.7-6.9 5.7-2.4 2.7-4.6 6.7c-2.2 3.9-8.2 8-8.2 8s-1 2.5-2.2 6c-1.2 3.4-7.9 9.5-7.9 9.5s0.9 11.4-4.7 18.8m4.6-18.9s-4-3.5-12.5-4.8c-8.1-1.3-8.5-1.2-8.5-1.2"/>
  </g>
  <g fill="#000" stroke="none">
   <path d="m581 213.2c-30.433-34.992-70.085-61.646-113.8-77.047-3.9216-1.3696-7.9255-2.7391-1.5363-1.0411 45.328 11.543 86.651 39.02 114.39 76.729z"/>
   <path d="m366.6 219.6c12.972-2.5923 26.589-1.252 39.193 2.5867l-1.2651 2.6566c-6.1418-3.4428-23.624-5.722-37.928-5.2433zm5.2-59.6 0.24145 3.1429c-8.2781 1.3084-19.424-2.3553-25.742 3.5571 6.8303-8.3876 16.861-3.0731 25.501-6.7zm0.8 24c12.829 9.2069 30.526 1.7206 39.001-9.9532 14.309-19.457 21.363-43.064 33.695-63.701 11.37-20.791 29.861-38.162 52.905-44.939 25.155-8.2091 52.038-7.3211 78.098-5.6062-32.316-0.34605-67.046-0.87832-95.65 16.512-24.945 14.815-37.087 42.585-49.225 67.602-8.3204 15.911-15.823 34.936-33.351 42.71-8.183 3.3706-18.456 3.3429-25.473-2.625z"/>
   <path d="m592.4 132.8c-34.671-13.004-70.981-21.777-107.92-24.836-2.6736-0.34899-10.362-0.70203-9.7991-0.90747 37.535-1.2694 75.409 6.1923 109.65 21.621 2.8019 1.1609 5.3592 2.777 8.0669 4.1223z"/>
   <path d="m449.4 253.8c-2.3278-16.49-3.4161-33.265-8.1559-49.314-2.5234-9.5567-6.5061-18.693-11.544-27.186 8.7611 9.9637 13.722 22.688 16.608 35.496 2.6426 12.305 3.1712 24.954 2.9922 37.504 0.0957 1.1631 0.16463 2.3333 0.1 3.5z"/>
   <path d="m526.2 255.7c-10.948-33.435-31.696-63.598-59.453-85.288-5.6709-4.6128-11.505-9.0192-17.347-13.412 25.499 14.391 48.118 34.766 62.242 60.657 6.6474 11.91 11.294 24.829 14.558 38.043z"/>
   <path d="m173.3 226c-1.2178 3.5117-9.8964 4.7252-9.8 2 3.3514-0.19002 6.495-1.5364 9.8-2zm-26.8 16.7c1.5022 3.4346-3.6264 10.622-5.6 8.7 2.2905-2.6008 3.4752-6.06 5.6-8.7zm-4 31.1c3.2818 1.5096 4.6221 10.025 2 10.1-0.19249-3.4454-1.4607-6.7353-2-10.1zm-7.9 10.6c-5.4118-1.6196-10.917 2.9791-11.531 8.375-0.4294 2.4617-0.0888 6.1721-0.70938 1.4953-0.095-5.7008 3.9928-11.448 9.9906-11.67 1.5904-0.17772 4.1718-0.45876 2.25 1.8zm58.9 5c-2.8859 0.66803-8.2575 4.2336-9.7 3.5 1.7337-3.3541 6.2733-4.7302 9.7-3.5zm-2.8 10.6c5.059 4.2721 4.2464 13.026-1.2 16.7-6.8523 4.3039 3.078-2.051 3.0375-5.4 2.1393-3.8816-2.5335-7.7157-2.3164-10.486 0.15963-0.27137 0.31926-0.54274 0.47889-0.81411zm-28-33.2c1.8737 2.624 8.4091-4.0828 5.3703 0.325-1.0931 2.4486-8.8503 4.3808-5.6664 0.246l0.1577-0.30414zm41.4 0.4c4.0288 1.6406 7.965-1.3358 11.8 1.1 3.0756-0.32974 5.7963-0.39526 8.7 1 2.7707 0.0398 5.2643-0.97611 7.7 0.9 1.976 1.3894 4.4751-0.89013 6.2064 1.0532 2.6838 1.9089 6.1773 0.24224 8.6936 2.5343 3.0594 0.82267 6.0501 1.122 8.9 2.7125 7.6918 1.3136-5.2867 1.6143-4.7 0-3.457 1.0632-7.156-2.1442-8.3-1.3-3.3705 1.0928-7.3224-2.5432-7.4379-1.5437-2.0393 1.124-8.714-1.8498-6.7621-1.8563-3.535 1.8227-9.1798-1.7374-9.8379-1.1437-5.3381 0.88602-7.1523-3.2568-11.662-1.7563-1.3332-0.189-2.7824-0.45588-3.3-1.7zm62.5 4.3c-2.1242 3.3624-2.2268 7.4696-1.8 11.3-3.3338-2.113-2.6994-10.565 1.8-11.3zm-94.9-16c-2.3526-0.27784-11.166-3.124-7.1555-5.5334 1.5959-0.70172 4.8688 5.4248 7.1555 5.5334z"/>
   <path d="m403.8 224.4c1.4466 3.1147 2.8586 6.2407 3.8656 9.5266 0.9708 2.7664 1.5167 5.6639 2.1344 8.5234 1.0234 6.0026 1.3748 12.152 0.57783 18.206-0.55923 5.0123-1.5771 9.9698-3.1017 14.779-0.82382 2.821-2.0414 5.5147-3.2796 8.1718-0.32393 1.0278-0.873 1.5579-1.7592 0.67987-0.96543-0.51562-2.1934-0.93825-0.86233-2.0869 3.4127-6.3235 5.6314-13.249 6.8649-20.312 0.75962-4.4834 1.118-9.0282 0.96013-13.578-0.0583-2.7695-0.43166-5.536-0.83438-8.2671-0.91432-5.3318-2.621-10.486-4.7656-15.442l0.2-0.2z"/>
   <path d="m398.1 628.4c1.6253 11.843 2.2559 23.825 1.7814 35.771-0.34672 3.1572-0.49501-1.2714-0.50791-2.1886-0.65302-11.148-2.0903-22.252-4.3734-33.183 1.0333-0.13333 2.0667-0.26667 3.1-0.4zm8.3 60.9c1.1716-9.2035 3.0073-18.306 4.6312-27.436 1.0688-5.4183 2.0151-10.869 2.5688-16.364 0.70636 0.52917 0.27659 2.3261 0.4 3.3921-0.0869 8.2051-1.5101 16.342-3.2406 24.344-1.303 5.3856-2.3914 10.873-4.3594 16.064z"/>
   <path d="m307.6-85.8c1.1097-6.5329 9.6158-7.1681 14.9-6.8 3.005 0.93378 14.379-0.68614 5.4 1.8-6.5357 1.4866-15.956-0.97204-20.3 5zm0.5 2c5.5285-1.9325 5.9164 5.0869 0 0zm84.8 48.1c6.2616 4.2038 8.4088 13.846 3.9 20.1 1.0142-6.9005-0.33275-14.088-3.9-20.1zm-8.4 32.2c-2.5559 6.9448 6.7204 12.473 3.9 19.5-0.5503-6.4591-8.9611-12.145-4.5-18.9l0.5-0.5zm-4.9 26.2c5.619 3.6839 8.6474 11.178 6.8 17.7-1.4223-6.1644-3.4052-12.331-6.8-17.7zm12.8-33.1c5.6987 3.803 8.3568 11.765 6 18.2-1.0125-6.3605-3.0807-12.465-6-18.2zm-28 57.8c0.61702 7.3059 0.75416 14.695 0.1 22-2.6534-6.9342-2.7142-15.04-0.1-22zm-13.1 17.4c-0.26657 6.3986 8.39 10.797 6.125 18.088-2.7965 10.245-0.51777-5.5902-4.347-8.4575-1.6231-2.7382-4.7744-6.6735-1.778-9.63zm-4.7 25.2c0.78666 3.6895 8.6297 10.24 0.8 6.4-1.7469-1.5977-2.0728-4.4358-0.8-6.4zm28.4-38.8c0.4757-4.7878-1.0701-13.144-0.4-15.4 3.5006 4.2942 3.6395 10.917 0.4 15.4z"/>
   <path d="m391.1 277.7c5.5094-14.914 6.0037-31.126 4.5-46.8 4.5986 9.1923 4.3679 22.197 1.9 32.7-1.1839 5.0354-3.2066 9.9987-6.4 14.1zm-50.9-2.9c-14.62-13.243-25.59-32.634-24.588-52.825-1.5797-10.023 11.333-22.83 1.3875-30.275 11.076 3.6732 1.4854 18.143 1.3 26.4-2.1053 17.872 6.8611 35.284 18.2 48.5 1.6222 3.3574 8.9436 4.8921 3.7 8.2zm-47.9 103.2c3.5223 5.8713-6.5277 14.964-1.6 5.2 0.58194-1.7194 0.88495-3.5238 1.6-5.2zm0.8 31.6c6.4665 0.62875 6.573 16.363 2.6 4.9-0.82162-1.6438-1.9929-3.1578-2.6-4.9zm24.7 19.2c5.448-3.703 15.474 7.1807 5.1 1.8-1.5434-0.83221-3.802-0.54957-5.1-1.8zm5.1 12.2c-5.3639 5.1352-1.3224 14 4.7 16.3-7.6367-1.7712-11.473-12.191-5.7-18 0.33333 0.56667 0.66667 1.1333 1 1.7zm34.2-48.2c-0.52442 4.6498-1.9852 16.796-2.8 5 0.39291-1.8522 1.2902-3.8022 2.8-5zm7.8 7.8c7.5595-2.9366 15.978 5.7788 13.6 12.8 0.93094-6.696-5.7758-13.83-12.6-11.2-0.33333-0.53333-0.66667-1.0667-1-1.6zm-42.9 7.2c3.2298-2.0414 1.0827-10.476 3.2-2 0.0541 2.9287-1.709 7.2566-3.2 2zm21.4-35.4c2.0125-5.0876 6.3984-8.1392 8.4-13.1 4.0883-2.1735 4.1533-7.5654 8.3-9.4 2.2243-2.5235 3.2416-5.4069 6.6-6.9 1.3521-3.7652 5.7731-4.5361 7.6-8 3.1792-1.4554 7.9777-8.0518 3.9-1.2-2.5814 2.645-5.9231 7.4502-7.9 9-3.5082 5.5002-4.9511 3.8836-7.5 9-4.4628 1.4854-2.1971 4.6638-7.5 8.1-0.21109 1.3526-5.9988 6.4537-7.2 8.3-1.0846 1.7423-2.4225 3.9762-4.7 4.2zm35.4-51.6c0.87346 4.7902 14.977 9.6396 3.5 6.8-2.3857-1.2295-4.0748-4.0968-3.5-6.8zm-61.9 73.6c-0.973 4.7267-12.117 6.2865-7.3 2.5 2.5946-0.24673 5.172-1.2146 7.3-2.5z"/>
   <path d="m329.8-87.5c2.4268 2.1895 5.5084 3.9943 8.9 3.4 4.1194-0.35-3.0956 1.146-4.9275 0.60273-1.669-0.66534-7.1154-1.6988-4.1409-3.8102l0.13684-0.15639zm-19.7 6.2c2.1384 4.503 2.8826 9.7097 6.2 13.6-5.3345-1.382-7.0853-7.947-6.2-12.8l-0.0375-0.625zm-68.4 14.2c1.1074 2.5117 6.0047 4.2104 6.8 5.1125-2.9611-0.88324-6.2392-1.4589-8.6-3.6125l1.8-1.5z"/>
   <path d="m334.6-49.3c3.5637-1.623 3.7803 5.1422 0.3375 1.575-0.21357-0.49264-0.36955-1.0327-0.3375-1.575zm6.6 4.9c3.808-3.0848 3.7448 8.1366 0.9 2.9-0.49435-0.87221-0.14379-2.3087-0.9-2.9zm-45.1-14.6c6.7995-2.5819 14.317-0.21536 20.4 3.1 2.4756 1.3573 6.1907 4.4143 6.9125 6-5.6692-3.7548-11.997-6.4404-18.641-7.8781-2.8207-0.83542-5.7848-0.82954-8.6719-1.2219zm51.4 22.2c3.3587 3.3068 7.3423 6.2432 8.9984 10.883 1.1716 1.9478 1.8084 3.8242-0.99844 3.8172-0.95941-4.8572-3.2716-9.3357-6.7703-12.845-0.50197-0.56351-0.93705-1.1578-1.2297-1.8547zm-83.1-36.7c3.8044 1.654 3.5848 8.9219-1 9.1 2.1219-2.6416 1.0545-6.0513 1-9.1zm-19-2.9c5.6999-2.6916 13.933 0.764 14.241 7.5125-0.26447 5.7286-1.7706-3.2128-4.2406-3.8125-2.7537-2.4086-6.669-2.6913-10-3.7z"/>
   <path d="m252.3-72.5c0.0392 2.3105 1.922 4.0115 2.6 6.1-2.555 0.39314-4.9382-2.4624-3.8469-4.8812 0.16284-0.635 0.74689-0.90135 1.2469-1.2188zm52.4-7.8c0.82908 2.5045 1.1673 5.1737 1.3812 7.8-0.081 0.71359 0.19885 2.1579-0.10625 2.525-2.918-2.417-3.2909-7.235-1.275-10.325z"/>
   <path d="m214.2-41c4.0544 1.4585 8.1945 2.6694 12.341 3.8278 1.0629 0.28958 1.0564 1.9112 0.03 2.2486-4.2407-0.56322-8.9495-4.1306-12.371-6.0764zm6.8 14.7c-4.0057-2.2481-7.7578-5.0404-10.801-8.4987-0.96876-1.1811-1.7997-2.6233-2.4265-3.9169 1.2603 2.1062 3.2832 3.828 5.2812 5.2301 3.0212 1.6429 5.9119 3.3284 8.8832 4.6234-0.29998 0.76666-0.6375 1.7955-0.93741 2.5621z"/>
   <path d="M363-75s.1-.3.3-.7c.1-.2.2-.5.4-.8.2-.3.4-.7.6-1 1-1.5 2.6-3.2 4.6-4.6 2-1.4 4.1-2.4 5.8-3.1 1.6-.7 2.8-1.1 2.8-1.1.6-.2 1.3.1 1.5.7.2.6-.1 1.3-.7 1.5h-.1s-1.1.2-2.8.7c-1.6.4-3.8 1.1-5.8 2.2-2 1-3.8 2.5-4.9 3.8-.3.3-.5.6-.7.9-.2.3-.4.5-.5.7-.4.6-.5.8-.5.8z"/>
   <path d="m433.4-82.1c-10.086-0.78106-20.35-1.2995-30.347 0.58554-5.4968 1.0499-10.613 3.3777-15.618 5.7987-3.8328 1.7895-7.9177 3.5099-12.235 3.3157 6.0591-0.66923 10.962-4.5696 16.249-7.2338 6.1313-3.4901 13.192-5.0036 20.197-5.2312 7.1764-0.17947 14.418 0.64617 21.324 2.6219l0.43043 0.14317z"/>
   <path d="m416.3-66c-2.8254 2.5636-6.2455 4.3849-9.7022 5.9479-4.0802 1.6873-8.48 2.7829-12.92 2.6515-4.4675 0.09381-8.6896-2.0424-11.888-5.0509-1.245-1.1659-2.4666-2.3646-3.5906-3.6484 3.2116 1.6575 6.017 4.0836 9.4685 5.2674 2.2073 0.75187 4.5852 0.9665 6.9131 0.97127 7.0155-0.18838 13.718-2.6299 20.107-5.3438 0.54403-0.24984 1.0733-0.53143 1.6109-0.79492z"/>
   <path d="m399.7-66.4c-1.733-0.60215-3.3848-1.4177-5.1202-2.0195-2.3761-0.9485-4.8654-1.5487-7.2798-2.3805 1.5442-0.87341 3.4044-0.87112 5.124-0.73394 2.8016 0.45496 5.465 2.0268 7.0806 4.3787 0.18777 0.2065 0.0518 0.52002 0.19536 0.75526z"/>
   <path d="m413.7-75.2c-1.48 0.91149-3.4196 0.6492-4.8581-0.21494-1.1272-0.6762-1.9354-1.892-2.049-3.2096 0.58783-0.2547 1.0915 0.28971 1.608 0.48201 1.6943 0.72338 3.2769 1.6824 4.815 2.69 0.15955 0.08762 0.32281 0.16821 0.4841 0.25254z"/>
   <path d="M374.5-55.7s-1.8-1.7-3.7-3.3c-.9-.8-1.9-1.6-2.7-2.1-.7-.6-1.3-.9-1.3-.9s.6.2 1.5.6c.9.4 2 .9 3.1 1.5 2.2 1.1 4.4 2.4 4.4 2.4.6.3.8 1.1.5 1.6-.3.6-1.1.8-1.6.5 0-.2-.1-.2-.2-.3z"/>
   <path d="m338.8-89.2c-1.3266 0.21124-2.641 0.51205-3.8942 1.0041-1.6683 0.61697-3.2819 1.3888-4.7687 2.3688-0.28108 0.1826-0.5982 0.48458-0.69971 0.01673-0.31247-0.59653-0.62493-1.1931-0.9374-1.7896 1.5208-0.68385 3.1626-1.0547 4.7972-1.3513 1.814-0.28111 3.6725-0.47676 5.5028-0.24866z"/>
   <path d="M403.8-48c-.3 0-.5-.1-.8-.2-3.5-2-7.4-2.2-11.6-2.5-5.3-.3-11.3-.6-17.1-4.8l1.8-2.4c5.1 3.7 10.4 4 15.5 4.3 3.9.2 7.9.4 11.6 2.2 4.3-7 12.6-11.5 21.7-11.8 2.7-8.2 10.4-10.5 17.8-12.8 7.1-2.2 13.9-4.2 17.3-10.8-6.3 2.4-15.3 2.8-21.5.6-3.7-1.3-6.3-3.3-7.8-5.9-8 5-20.3 5.7-27.7-1-4.9 5.3-13.4 7.1-19.8 8.4-1.9.4-3.6.8-5 1.2l-.8-2.9c1.5-.4 3.3-.8 5.2-1.2 6.4-1.3 15.1-3.2 19.1-8.6.3-.4.7-.6 1.1-.6.4 0 .9.2 1.2.5 6.5 7.3 19.1 6.3 26.4.8.4-.3.9-.4 1.3-.2.5.1.8.5 1 1 1.1 3.3 4.3 5 6.8 5.9 7.5 2.6 17.9 1 22.5-2.1.5-.3 1.2-.3 1.7 0 .5.4.7 1 .6 1.6-3.1 11-12.5 13.9-20.7 16.4-7.6 2.3-14.2 4.3-16.1 11.8-.2.7-.8 1.1-1.5 1.1-9-.1-17.2 4.4-20.9 11.5-.2.4-.5.6-.9.7-.2-.2-.3-.2-.4-.2z"/>
   <path d="M316.7-82c-.4 2.2.7 4.5 2.8 6.1.4.3.8.5 1.4.5.6-.1.9-.5 1-.9 1-2.3-.2-4.6-.3-7"/>
   <path d="M280.2 382.9s0-.1-.1-.2l-.3-.3c-.2-.2-.4-.3-.7-.6-.3-.2-.7-.4-1.1-.6-.4-.2-.9-.4-1.4-.5-.3-.1-.5-.1-.8-.2-.3 0-.6-.1-.8-.1-.3 0-.6 0-.9-.1h-.9c-.3 0-.6.1-.9.1-.3.1-.6.1-.9.2-.6.2-1.2.4-1.7.7l-.4.2c-.1 0-.2.2-.4.3-.3.2-.5.4-.8.6-1 .8-1.8 1.6-2.4 2.3-.6.8-1.1 1.5-1.3 2-.2.5-.3.8-.3.8h-.2s0-.4.2-.9c.2-.6.6-1.3 1.2-2.2.6-.8 1.4-1.7 2.3-2.6.2-.2.5-.4.7-.6.1-.1.2-.2.4-.3l.4-.3c.6-.4 1.2-.7 1.9-1 .3-.1.7-.2 1-.3.3-.1.7-.2 1-.2.3 0 .7-.1 1-.1h1c.3 0 .7.1 1 .1.3.1.6.1.9.2.6.1 1.2.3 1.7.5s1 .4 1.4.6c.4.2.7.4 1 .6.3.2.6.5.7.6l.2.2-1.7 1.1zM288.3 421.9H287.7c-.2 0-.6.1-.9.2-.4.1-.8.2-1.2.4-.4.2-.9.4-1.4.6-.2.1-.5.3-.7.4-.2.2-.5.3-.7.5-.2.2-.4.4-.7.6-.2.2-.4.4-.6.7-.2.2-.4.5-.6.8-.2.3-.3.5-.5.8-.3.6-.5 1.2-.7 1.8l-.1.5c0 .1 0 .3-.1.4 0 .3-.1.6-.1.9-.1 1.2-.1 2.4 0 3.4s.3 1.8.6 2.3c.2.5.4.8.4.8l-.2.1s-.2-.3-.5-.8-.6-1.3-.8-2.3c-.2-1-.3-2.2-.3-3.5v-1-.5l.1-.5c.1-.7.3-1.4.6-2 .2-.3.3-.7.5-1l.6-.9c.2-.3.4-.6.6-.8.2-.3.5-.5.7-.7.3-.2.5-.4.7-.7.3-.2.5-.4.8-.6l1.5-.9c.5-.2 1-.4 1.4-.6l1.2-.3c.3-.1.8-.1.9-.1h.2l-.1 2z"/>
   <path d="M163 218.2s0-.1.1-.2c.1-.2.1-.2.1-.4s.1-.6.1-.9v-1.3c0-.5-.1-1-.2-1.5-.1-.3-.1-.5-.2-.8-.1-.3-.2-.5-.3-.8-.1-.3-.3-.5-.4-.8-.2-.3-.3-.5-.5-.8-.2-.3-.4-.5-.6-.7l-.7-.7c-.5-.4-1-.8-1.5-1.1l-.4-.2c-.1 0-.3-.1-.4-.2-.3-.1-.6-.3-.9-.4-1.1-.4-2.3-.8-3.2-.9-1-.2-1.8-.2-2.4-.1-.6.1-.9.2-.9.2l-.1-.2s.3-.2.9-.3c.6-.1 1.5-.2 2.5-.1s2.2.3 3.4.7l.9.3c.2.1.3.1.5.2l.5.2c.6.3 1.2.7 1.8 1.1.3.2.5.5.8.7.2.3.5.5.7.8.2.3.4.6.6.8.2.3.4.6.5.9.1.3.3.6.4.9l.3.9c.2.6.3 1.2.4 1.7.1.5.1 1 .2 1.5v1.2c0 .3-.1.8-.2.9-.1.1-.1.2-.1.2l-1.7-.8zM133.5 244.9s0-.1-.1-.2c-.1-.2-.1-.1-.2-.4-.1-.2-.3-.4-.6-.7-.3-.3-.6-.5-.9-.8-.4-.3-.8-.6-1.2-.8-.2-.1-.5-.3-.7-.4-.3-.1-.5-.2-.8-.3-.3-.1-.6-.2-.8-.3-.3-.1-.6-.1-.9-.2-.3 0-.6-.1-.9-.1h-.9c-.6.1-1.3.1-1.9.3l-.5.1c-.1 0-.3.1-.4.2-.3.1-.6.3-.9.4-1.1.5-2.1 1.1-2.9 1.7-.8.6-1.4 1.2-1.7 1.6-.3.5-.5.8-.5.8l-.2-.1s.1-.3.4-.9c.3-.5.9-1.2 1.6-1.9.8-.7 1.7-1.4 2.9-2 .3-.2.6-.3.8-.5.2-.1.2-.1.5-.2l.5-.2c.6-.3 1.3-.4 2-.5.4 0 .7-.1 1.1-.1h1.1c.3 0 .7.1 1 .1.3.1.7.2 1 .2l.9.3c.3.1.6.2.9.4.6.3 1.1.6 1.5.9l1.2.9.8.8c.2.2.5.6.5.7.1.1.1.2.1.2l-1.8 1z"/>
  </g>
 </g>
</svg>
